<svg width="24" height="24" viewBox="0 0 24 24" fill="none" xmlns="http://www.w3.org/2000/svg">
<path fill-rule="evenodd" clip-rule="evenodd" d="M12 8.46473C12.4142 8.46473 12.75 8.80052 12.75 9.21473V13.4706C12.75 13.8848 12.4142 14.2206 12 14.2206C11.5858 14.2206 11.25 13.8848 11.25 13.4706V9.21473C11.25 8.80052 11.5858 8.46473 12 8.46473Z" fill="#16191D"/>
<path d="M12 15.9941C11.4477 15.9941 11 16.4418 11 16.9941C11 17.5464 11.4477 17.9941 12 17.9941C12.5523 17.9941 13 17.5464 13 16.9941C13 16.4418 12.5523 15.9941 12 15.9941Z" fill="#16191D"/>
<path fill-rule="evenodd" clip-rule="evenodd" d="M10.9298 3.20967C11.6097 2.90016 12.3903 2.90016 13.0702 3.20967C13.5384 3.42278 13.8779 3.81902 14.1801 4.26625C14.4814 4.712 14.8131 5.31525 15.2228 6.06011L20.4513 15.5664C20.8354 16.2647 21.1478 16.8329 21.3518 17.3003C21.5577 17.7723 21.703 18.2477 21.6441 18.7394C21.5579 19.4589 21.1735 20.1091 20.5846 20.5313C20.1821 20.8199 19.6955 20.9217 19.1827 20.9687C18.6749 21.0153 18.0265 21.0153 17.2295 21.0153H6.7705C5.97353 21.0153 5.32516 21.0153 4.81729 20.9687C4.30448 20.9217 3.81791 20.8199 3.41545 20.5313C2.82657 20.1091 2.44213 19.4589 2.35593 18.7394C2.29701 18.2477 2.44233 17.7723 2.64826 17.3003C2.8522 16.8329 3.16467 16.2647 3.54876 15.5664L8.77723 6.06012C9.18689 5.31526 9.51867 4.71201 9.81991 4.26625C10.1221 3.81902 10.4616 3.42278 10.9298 3.20967ZM12.4699 4.52846C12.1714 4.39257 11.8286 4.39257 11.5301 4.52846C11.4369 4.57087 11.2834 4.68858 11.0205 5.07758C10.7609 5.46162 10.4608 6.00587 10.0291 6.79081L4.83594 16.2328C4.4301 16.9707 4.15053 17.4805 3.97636 17.8797C3.80109 18.2815 3.78247 18.4654 3.79464 18.567C3.83249 18.8829 4.00128 19.1684 4.25984 19.3538C4.34297 19.4134 4.51314 19.4857 4.94961 19.5258C5.38332 19.5655 5.96478 19.5663 6.8069 19.5663H17.1931C18.0352 19.5663 18.6167 19.5655 19.0504 19.5258C19.4869 19.4857 19.6571 19.4134 19.7402 19.3538C19.9987 19.1684 20.1675 18.8829 20.2054 18.567C20.2176 18.4654 20.1989 18.2815 20.0237 17.8797C19.8495 17.4805 19.5699 16.9707 19.1641 16.2328L13.971 6.79081C13.5393 6.00587 13.2391 5.46162 12.9796 5.07758C12.7167 4.68858 12.5631 4.57087 12.4699 4.52846Z" fill="#16191D"/>
</svg>
