<svg width="24" height="24" viewBox="0 0 24 24" fill="none" xmlns="http://www.w3.org/2000/svg">
<path d="M12 3.5C7.30558 3.5 3.5 7.30558 3.5 12C3.5 16.6944 7.30558 20.5 12 20.5C16.6944 20.5 20.5 16.6944 20.5 12C20.5 7.30558 16.6944 3.5 12 3.5ZM2 12C2 6.47715 6.47715 2 12 2C17.5228 2 22 6.47715 22 12C22 17.5228 17.5228 22 12 22C6.47715 22 2 17.5228 2 12Z" fill="#16191D"/>
<path d="M12.0248 16.9269C12.5771 16.9269 13.0248 16.4791 13.0248 15.9269C13.0248 15.3746 12.5771 14.9269 12.0248 14.9269C11.4725 14.9269 11.0248 15.3746 11.0248 15.9269C11.0248 16.4791 11.4725 16.9269 12.0248 16.9269Z" fill="#16191D"/>
<path d="M12.3862 8.4998C12.1619 8.42259 11.9204 8.40987 11.6892 8.46306C11.458 8.51626 11.2464 8.63324 11.0784 8.80072C10.9104 8.96819 10.7927 9.17944 10.7388 9.41046C10.6446 9.81382 10.2413 10.0645 9.8379 9.97029C9.43453 9.87611 9.18389 9.47277 9.27807 9.06941C9.39581 8.56511 9.65267 8.10395 10.0194 7.73835C10.3862 7.37276 10.8482 7.11738 11.3529 7.00126C11.8575 6.88513 12.3847 6.91292 12.8744 7.08145C13.364 7.24998 13.7966 7.5525 14.1229 7.95463C14.4492 8.35676 14.6562 8.84236 14.7203 9.35625C14.7843 9.87013 14.703 10.3917 14.4854 10.8616C14.2678 11.3316 13.9228 11.7311 13.4895 12.0147C13.4249 12.057 13.3586 12.0965 13.291 12.1331C13.1133 12.2293 12.9676 12.3422 12.8747 12.4523C12.7851 12.5586 12.77 12.6294 12.7701 12.6712C12.7711 13.0854 12.4361 13.422 12.0219 13.423C11.6077 13.4239 11.2711 13.089 11.2701 12.6748C11.2678 11.703 12.0579 11.0949 12.5771 10.8139C12.608 10.7971 12.6384 10.7791 12.668 10.7597C12.8665 10.6297 13.0245 10.4467 13.1242 10.2315C13.2239 10.0162 13.2611 9.77726 13.2318 9.54185C13.2024 9.30645 13.1076 9.084 12.9582 8.89979C12.8087 8.71558 12.6105 8.577 12.3862 8.4998Z" fill="#16191D"/>
</svg>
