<svg width="24" height="24" viewBox="0 0 24 24" fill="none" xmlns="http://www.w3.org/2000/svg">
<path d="M12 2C6.47715 2 2 6.47715 2 12C2 17.5228 6.47715 22 12 22C17.5228 22 22 17.5228 22 12C22 6.47715 17.5228 2 12 2ZM12 6.75C12.4142 6.75 12.75 7.08579 12.75 7.5V12.75C12.75 13.1642 12.4142 13.5 12 13.5C11.5858 13.5 11.25 13.1642 11.25 12.75V7.5C11.25 7.08579 11.5858 6.75 12 6.75ZM12 17.0117C11.4477 17.0117 11 16.564 11 16.0117C11 15.4594 11.4477 15.0117 12 15.0117C12.5523 15.0117 13 15.4594 13 16.0117C13 16.564 12.5523 17.0117 12 17.0117Z" fill="#16191D"/>
</svg>
