<svg width="20" height="21" viewBox="0 0 20 21" fill="none" xmlns="http://www.w3.org/2000/svg">
<path d="M9.99987 6.76454C10.4141 6.76454 10.7499 7.10033 10.7499 7.51454V11.7704C10.7499 12.1846 10.4141 12.5204 9.99987 12.5204C9.58565 12.5204 9.24987 12.1846 9.24987 11.7704V7.51454C9.24987 7.10033 9.58565 6.76454 9.99987 6.76454Z" fill="#576175"/>
<path d="M9.99987 14.2938C9.44758 14.2938 8.99987 14.7416 8.99987 15.2938C8.99987 15.8461 9.44758 16.2938 9.99987 16.2938C10.5522 16.2938 10.9999 15.8461 10.9999 15.2938C10.9999 14.7416 10.5522 14.2938 9.99987 14.2938Z" fill="#576175"/>
<path fill-rule="evenodd" clip-rule="evenodd" d="M11.0703 1.50948C10.3904 1.19997 9.60976 1.19997 8.92984 1.50948C8.46169 1.72259 8.12221 2.11882 7.81997 2.56605C7.51873 3.01181 7.18696 3.61505 6.7773 4.3599L1.54882 13.8662C1.16473 14.5645 0.852265 15.1327 0.648323 15.6001C0.442394 16.0721 0.297071 16.5475 0.355987 17.0392C0.442194 17.7587 0.826634 18.4089 1.41551 18.8311C1.81797 19.1197 2.30454 19.2215 2.81735 19.2685C3.32522 19.3151 3.97359 19.3151 4.77056 19.3151H15.2296C16.0266 19.3151 16.6749 19.3151 17.1828 19.2685C17.6956 19.2215 18.1822 19.1197 18.5846 18.8311C19.1735 18.4089 19.558 17.7587 19.6442 17.0392C19.7031 16.5475 19.5578 16.0721 19.3518 15.6001C19.1479 15.1327 18.8354 14.5646 18.4513 13.8663L13.2228 4.35991C12.8132 3.61506 12.4814 3.01181 12.1802 2.56605C11.8779 2.11882 11.5385 1.72259 11.0703 1.50948ZM9.53017 2.82827C9.8287 2.69237 10.1714 2.69237 10.47 2.82827C10.5631 2.87068 10.7167 2.98838 10.9796 3.37739C11.2391 3.76142 11.5393 4.30568 11.971 5.09061L17.1642 14.5326C17.57 15.2705 17.8496 15.7804 18.0237 16.1795C18.199 16.5813 18.2176 16.7652 18.2055 16.8668C18.1676 17.1827 17.9988 17.4682 17.7402 17.6536C17.6571 17.7132 17.4869 17.7855 17.0505 17.8256C16.6168 17.8653 16.0353 17.8661 15.1932 17.8661H4.80696C3.96484 17.8661 3.38338 17.8653 2.94967 17.8256C2.5132 17.7855 2.34303 17.7132 2.2599 17.6536C2.00134 17.4682 1.83255 17.1827 1.7947 16.8668C1.78253 16.7652 1.80115 16.5813 1.97642 16.1795C2.15059 15.7803 2.43016 15.2705 2.836 14.5326L8.02911 5.09061C8.46083 4.30567 8.761 3.76142 9.02053 3.37739C9.28342 2.98838 9.437 2.87068 9.53017 2.82827Z" fill="#576175"/>
</svg>
