<svg width="24" height="24" viewBox="0 0 24 24" fill="none" xmlns="http://www.w3.org/2000/svg">
<path d="M12 3.5C7.30558 3.5 3.5 7.30558 3.5 12C3.5 16.6944 7.30558 20.5 12 20.5C16.6944 20.5 20.5 16.6944 20.5 12C20.5 7.30558 16.6944 3.5 12 3.5ZM2 12C2 6.47715 6.47715 2 12 2C17.5228 2 22 6.47715 22 12C22 17.5228 17.5228 22 12 22C6.47715 22 2 17.5228 2 12Z" fill="#16191D"/>
<path d="M12 6.75C12.4142 6.75 12.75 7.08579 12.75 7.5V12.75C12.75 13.1642 12.4142 13.5 12 13.5C11.5858 13.5 11.25 13.1642 11.25 12.75V7.5C11.25 7.08579 11.5858 6.75 12 6.75Z" fill="#16191D"/>
<path d="M12 17.0116C12.5523 17.0116 13 16.5639 13 16.0116C13 15.4593 12.5523 15.0116 12 15.0116C11.4477 15.0116 11 15.4593 11 16.0116C11 16.5639 11.4477 17.0116 12 17.0116Z" fill="#16191D"/>
</svg>
