<svg width="24" height="24" viewBox="0 0 24 24" fill="none" xmlns="http://www.w3.org/2000/svg">
<path fill-rule="evenodd" clip-rule="evenodd" d="M13.0713 3.20967C12.3914 2.90016 11.6107 2.90016 10.9308 3.20967C10.4627 3.42278 10.1232 3.81902 9.82095 4.26625C9.51971 4.712 9.18794 5.31523 8.77829 6.06007L3.54979 15.5664C3.16571 16.2647 2.85324 16.8329 2.6493 17.3003C2.44337 17.7723 2.29805 18.2477 2.35696 18.7394C2.44317 19.4589 2.82761 20.1091 3.41649 20.5313C3.81895 20.8199 4.30552 20.9217 4.81833 20.9687C5.3262 21.0153 5.97457 21.0153 6.77154 21.0153H17.2306C18.0275 21.0153 18.6759 21.0153 19.1838 20.9687C19.6966 20.9217 20.1832 20.8199 20.5856 20.5313C21.1745 20.1091 21.5589 19.4589 21.6451 18.7394C21.7041 18.2477 21.5587 17.7723 21.3528 17.3003C21.1489 16.8329 20.8364 16.2648 20.4523 15.5665L15.2238 6.06011C14.8142 5.31525 14.4824 4.712 14.1812 4.26625C13.8789 3.81902 13.5394 3.42278 13.0713 3.20967ZM12 8.46484C12.4142 8.46484 12.75 8.80063 12.75 9.21484V13.4707C12.75 13.8849 12.4142 14.2207 12 14.2207C11.5858 14.2207 11.25 13.8849 11.25 13.4707V9.21484C11.25 8.80063 11.5858 8.46484 12 8.46484ZM12 15.9941C11.4477 15.9941 11 16.4419 11 16.9941C11 17.5464 11.4477 17.9941 12 17.9941C12.5523 17.9941 13 17.5464 13 16.9941C13 16.4419 12.5523 15.9941 12 15.9941Z" fill="#16191D"/>
</svg>
