<svg width="24" height="24" viewBox="0 0 24 24" fill="none" xmlns="http://www.w3.org/2000/svg">
<path d="M12 2C6.47715 2 2 6.47715 2 12C2 17.5228 6.47715 22 12 22C17.5228 22 22 17.5228 22 12C22 6.47715 17.5228 2 12 2ZM12.3858 8.49969C12.1614 8.42249 11.92 8.40976 11.6888 8.46295C11.4576 8.51615 11.246 8.63313 11.078 8.80061C10.9099 8.96808 10.7923 9.17934 10.7383 9.41035C10.6442 9.81372 10.2408 10.0644 9.83746 9.97018C9.43409 9.87601 9.18345 9.47267 9.27762 9.0693C9.39537 8.565 9.65222 8.10384 10.019 7.73825C10.3858 7.37265 10.8478 7.11728 11.3524 7.00115C11.8571 6.88503 12.3842 6.91281 12.8739 7.08134C13.3636 7.24988 13.7962 7.5524 14.1225 7.95452C14.4488 8.35665 14.6557 8.84225 14.7198 9.35614C14.7839 9.87002 14.7025 10.3916 14.485 10.8615C14.2674 11.3315 13.9224 11.731 13.4891 12.0146C13.4244 12.0569 13.3582 12.0964 13.2906 12.133C13.1128 12.2292 12.9672 12.3421 12.8742 12.4522C12.7846 12.5585 12.7696 12.6293 12.7697 12.6711C12.7707 13.0853 12.4357 13.4219 12.0215 13.4228C11.6073 13.4238 11.2707 13.0889 11.2697 12.6746C11.2674 11.7029 12.0574 11.0948 12.5766 10.8138C12.6076 10.797 12.6379 10.7789 12.6676 10.7596C12.866 10.6296 13.0241 10.4466 13.1238 10.2313C13.2234 10.0161 13.2607 9.77715 13.2313 9.54175C13.202 9.30634 13.1072 9.08389 12.9577 8.89968C12.8082 8.71547 12.6101 8.57689 12.3858 8.49969ZM12.0234 16.9268C11.4712 16.9268 11.0234 16.479 11.0234 15.9268C11.0234 15.3745 11.4712 14.9268 12.0234 14.9268C12.5757 14.9268 13.0234 15.3745 13.0234 15.9268C13.0234 16.479 12.5757 16.9268 12.0234 16.9268Z" fill="#16191D"/>
</svg>
