<svg width="20" height="21" viewBox="0 0 20 21" fill="none" xmlns="http://www.w3.org/2000/svg">
<g clip-path="url(#clip0_1505_61000)">
<path d="M10 5.04883C10.4142 5.04883 10.75 5.38461 10.75 5.79883V11.0488C10.75 11.463 10.4142 11.7988 10 11.7988C9.58579 11.7988 9.25 11.463 9.25 11.0488V5.79883C9.25 5.38461 9.58579 5.04883 10 5.04883Z" fill="#576175"/>
<path d="M11 14.3105C11 14.8628 10.5523 15.3105 10 15.3105C9.44771 15.3105 9 14.8628 9 14.3105C9 13.7583 9.44771 13.3105 10 13.3105C10.5523 13.3105 11 13.7583 11 14.3105Z" fill="#576175"/>
<path fill-rule="evenodd" clip-rule="evenodd" d="M0 10.2988C0 4.77598 4.47715 0.298828 10 0.298828C15.5228 0.298828 20 4.77598 20 10.2988C20 15.8217 15.5228 20.2988 10 20.2988C4.47715 20.2988 0 15.8217 0 10.2988ZM10 1.79883C5.30558 1.79883 1.5 5.60441 1.5 10.2988C1.5 14.9932 5.30558 18.7988 10 18.7988C14.6944 18.7988 18.5 14.9932 18.5 10.2988C18.5 5.60441 14.6944 1.79883 10 1.79883Z" fill="#576175"/>
</g>
<defs>
<clipPath id="clip0_1505_61000">
<rect width="20" height="20" fill="white" transform="translate(0 0.298828)"/>
</clipPath>
</defs>
</svg>
