<svg width="24" height="24" viewBox="0 0 24 24" fill="none" xmlns="http://www.w3.org/2000/svg">
<path d="M12 2C6.47715 2 2 6.47715 2 12C2 17.5228 6.47715 22 12 22C17.5228 22 22 17.5228 22 12C22 6.47715 17.5228 2 12 2ZM12 6.99414C12.5523 6.99414 13 7.44186 13 7.99414C13 8.54643 12.5523 8.99414 12 8.99414C11.4477 8.99414 11 8.54643 11 7.99414C11 7.44186 11.4477 6.99414 12 6.99414ZM12 16.9941C11.5858 16.9941 11.25 16.6584 11.25 16.2441V11.2441C11.25 10.8299 11.5858 10.4941 12 10.4941C12.4142 10.4941 12.75 10.8299 12.75 11.2441V16.2441C12.75 16.6584 12.4142 16.9941 12 16.9941Z" fill="#16191D"/>
</svg>
