<svg width="20" height="21" viewBox="0 0 20 21" fill="none" xmlns="http://www.w3.org/2000/svg">
<g clip-path="url(#clip0_1505_61004)">
<path d="M10 5.29297C9.44771 5.29297 9 5.74068 9 6.29297C9 6.84525 9.44771 7.29297 10 7.29297C10.5523 7.29297 11 6.84525 11 6.29297C11 5.74068 10.5523 5.29297 10 5.29297Z" fill="#576175"/>
<path d="M10 15.293C9.58579 15.293 9.25 14.9572 9.25 14.543V9.54297C9.25 9.12876 9.58579 8.79297 10 8.79297C10.4142 8.79297 10.75 9.12876 10.75 9.54297V14.543C10.75 14.9572 10.4142 15.293 10 15.293Z" fill="#576175"/>
<path fill-rule="evenodd" clip-rule="evenodd" d="M10 0.298828C4.47715 0.298828 0 4.77598 0 10.2988C0 15.8217 4.47715 20.2988 10 20.2988C15.5228 20.2988 20 15.8217 20 10.2988C20 4.77598 15.5228 0.298828 10 0.298828ZM1.5 10.2988C1.5 5.60441 5.30558 1.79883 10 1.79883C14.6944 1.79883 18.5 5.60441 18.5 10.2988C18.5 14.9932 14.6944 18.7988 10 18.7988C5.30558 18.7988 1.5 14.9932 1.5 10.2988Z" fill="#576175"/>
</g>
<defs>
<clipPath id="clip0_1505_61004">
<rect width="20" height="20" fill="white" transform="translate(0 0.298828)"/>
</clipPath>
</defs>
</svg>
