<svg width="20" height="21" viewBox="0 0 20 21" fill="none" xmlns="http://www.w3.org/2000/svg">
<g clip-path="url(#clip0_1505_61012)">
<path d="M10.0249 15.2217C10.5772 15.2217 11.0249 14.774 11.0249 14.2217C11.0249 13.6694 10.5772 13.2217 10.0249 13.2217C9.47262 13.2217 9.0249 13.6694 9.0249 14.2217C9.0249 14.774 9.47262 15.2217 10.0249 15.2217Z" fill="#576175"/>
<path d="M9.6891 6.75788C9.92029 6.70468 10.1618 6.71741 10.3861 6.79461C10.6104 6.87181 10.8086 7.0104 10.958 7.1946C11.1075 7.37881 11.2023 7.60126 11.2317 7.83667C11.261 8.07207 11.2238 8.31099 11.1241 8.52627C11.0244 8.74155 10.8664 8.92455 10.6679 9.05447C10.6383 9.07387 10.6079 9.09196 10.5769 9.10872C10.0577 9.3897 9.2677 9.9978 9.27002 10.9696C9.27101 11.3838 9.6076 11.7188 10.0218 11.7178C10.436 11.7168 10.771 11.3802 10.77 10.966C10.7699 10.9242 10.7849 10.8534 10.8746 10.7472C10.9675 10.637 11.1131 10.5241 11.2909 10.4279C11.3585 10.3913 11.4247 10.3518 11.4894 10.3095C11.9227 10.0259 12.2677 9.62639 12.4853 9.15645C12.7029 8.6865 12.7842 8.16495 12.7201 7.65106C12.6561 7.13718 12.4491 6.65157 12.1228 6.24945C11.7965 5.84732 11.3639 5.5448 10.8742 5.37626C10.3846 5.20773 9.85743 5.17995 9.35275 5.29607C8.84807 5.4122 8.38609 5.66757 8.01932 6.03317C7.65254 6.39877 7.39569 6.85992 7.27794 7.36422C7.18377 7.76759 7.43441 8.17093 7.83778 8.26511C8.24114 8.35928 8.64448 8.10864 8.73866 7.70527C8.7926 7.47426 8.91026 7.26301 9.07827 7.09553C9.24629 6.92805 9.45792 6.81107 9.6891 6.75788Z" fill="#576175"/>
<path fill-rule="evenodd" clip-rule="evenodd" d="M0 10.2949C0 4.77207 4.47715 0.294922 10 0.294922C15.5228 0.294922 20 4.77207 20 10.2949C20 15.8178 15.5228 20.2949 10 20.2949C4.47715 20.2949 0 15.8178 0 10.2949ZM10 1.79492C5.30558 1.79492 1.5 5.6005 1.5 10.2949C1.5 14.9893 5.30558 18.7949 10 18.7949C14.6944 18.7949 18.5 14.9893 18.5 10.2949C18.5 5.6005 14.6944 1.79492 10 1.79492Z" fill="#576175"/>
</g>
<defs>
<clipPath id="clip0_1505_61012">
<rect width="20" height="20" fill="white" transform="translate(0 0.300781)"/>
</clipPath>
</defs>
</svg>
