<svg width="24" height="24" viewBox="0 0 24 24" fill="none" xmlns="http://www.w3.org/2000/svg">
<path fill-rule="evenodd" clip-rule="evenodd" d="M4.19359 12.5173C3.89384 12.2314 3.89384 11.7679 4.19359 11.482L8.43623 7.4356C8.73597 7.14972 9.22195 7.14972 9.52169 7.4356C9.82144 7.72148 9.82144 8.18498 9.52169 8.47086L5.82179 11.9996L9.52169 15.5284C9.82144 15.8143 9.82144 16.2778 9.52169 16.5637C9.22195 16.8496 8.73597 16.8496 8.43623 16.5637L4.19359 12.5173Z" fill="#16191D"/>
<path fill-rule="evenodd" clip-rule="evenodd" d="M14.4694 7.4356C14.7692 7.14972 15.2552 7.14972 15.5549 7.4356L19.7975 11.482C20.0973 11.7679 20.0973 12.2314 19.7975 12.5173L15.5549 16.5637C15.2552 16.8496 14.7692 16.8496 14.4694 16.5637C14.1697 16.2778 14.1697 15.8143 14.4694 15.5284L18.1693 11.9996L14.4694 8.47086C14.1697 8.18498 14.1697 7.72148 14.4694 7.4356Z" fill="#16191D"/>
</svg>
