<svg width="24" height="24" viewBox="0 0 24 24" fill="none" xmlns="http://www.w3.org/2000/svg">
<path d="M10.4961 11.9999C10.4961 11.801 10.4171 11.6102 10.2764 11.4696L7.27641 8.46959C6.98352 8.1767 6.50864 8.1767 6.21575 8.46959C5.92286 8.76248 5.92286 9.23736 6.21575 9.53025L8.68542 11.9999L6.21575 14.4696C5.92286 14.7625 5.92286 15.2374 6.21575 15.5303C6.50864 15.8231 6.98352 15.8231 7.27641 15.5303L10.2764 12.5303C10.4171 12.3896 10.4961 12.1988 10.4961 11.9999Z" fill="#16191D"/>
<path d="M18.0039 14.9999C18.0039 15.4141 17.6681 15.7499 17.2539 15.7499L11.2539 15.7499C10.8397 15.7499 10.5039 15.4141 10.5039 14.9999C10.5039 14.5857 10.8397 14.2499 11.2539 14.2499L17.2539 14.2499C17.6681 14.2499 18.0039 14.5857 18.0039 14.9999Z" fill="#16191D"/>
<path d="M4.25122 19.9995C3.00858 19.9995 2.00122 18.9922 2.00122 17.7495V6.24951C2.00122 5.00687 3.00858 3.99951 4.25122 3.99951H19.7512C20.9939 3.99951 22.0012 5.00687 22.0012 6.24951V17.7495C22.0012 18.9922 20.9939 19.9995 19.7512 19.9995H4.25122ZM3.50122 17.7495C3.50122 18.1637 3.83701 18.4995 4.25122 18.4995H19.7512C20.1654 18.4995 20.5012 18.1637 20.5012 17.7495V6.24951C20.5012 5.8353 20.1654 5.49951 19.7512 5.49951H4.25122C3.83701 5.49951 3.50122 5.8353 3.50122 6.24951V17.7495Z" fill="#16191D"/>
</svg>
