<svg width="24" height="24" viewBox="0 0 24 24" fill="none" xmlns="http://www.w3.org/2000/svg">
<path d="M10.3687 5.89282C10.3687 4.02711 11.8811 2.51465 13.7468 2.51465C15.6125 2.51465 17.125 4.02711 17.125 5.89282C17.125 6.01988 17.118 6.14542 17.1042 6.26904H20.4985C21.327 6.26904 21.9985 6.94062 21.9985 7.76904V11.7628C21.9985 12.0197 21.8671 12.2587 21.6501 12.3962C21.4332 12.5338 21.1609 12.5507 20.9286 12.4411C20.6868 12.3271 20.4163 12.2629 20.1287 12.2629C19.0914 12.2629 18.2505 13.1038 18.2505 14.1411C18.2505 15.1784 19.0914 16.0193 20.1287 16.0193C20.4163 16.0193 20.6868 15.9552 20.9286 15.8411C21.1609 15.7315 21.4332 15.7485 21.6501 15.886C21.8671 16.0236 21.9985 16.2626 21.9985 16.5194V20.5134C21.9985 21.3419 21.327 22.0134 20.4985 22.0134H6.99463C6.1662 22.0134 5.49463 21.3419 5.49463 20.5134V17.4997C5.37448 17.5126 5.25253 17.5193 5.12915 17.5193C3.26344 17.5193 1.75098 16.0068 1.75098 14.1411C1.75098 12.2754 3.26344 10.7629 5.12915 10.7629C5.25253 10.7629 5.37448 10.7696 5.49463 10.7825V7.76904C5.49463 6.94061 6.1662 6.26904 6.99463 6.26904H10.3894C10.3757 6.14542 10.3687 6.01988 10.3687 5.89282ZM13.7468 4.01465C12.7095 4.01465 11.8687 4.85554 11.8687 5.89282C11.8687 6.18221 11.9336 6.45434 12.049 6.69726C12.1593 6.92962 12.1429 7.20233 12.0055 7.41977C11.868 7.63721 11.6287 7.76904 11.3715 7.76904L6.99463 7.76904V11.7607C6.99463 12.0174 6.86341 12.2562 6.64679 12.3938C6.43018 12.5314 6.15824 12.5487 5.92593 12.4396C5.68497 12.3265 5.41552 12.2629 5.12915 12.2629C4.09186 12.2629 3.25098 13.1038 3.25098 14.1411C3.25098 15.1784 4.09186 16.0193 5.12915 16.0193C5.41552 16.0193 5.68497 15.9557 5.92593 15.8426C6.15824 15.7335 6.43018 15.7508 6.64679 15.8884C6.86341 16.0261 6.99463 16.2649 6.99463 16.5215V20.5134H20.4985V17.4992C20.377 17.5125 20.2535 17.5193 20.1287 17.5193C18.2629 17.5193 16.7505 16.0068 16.7505 14.1411C16.7505 12.2754 18.2629 10.7629 20.1287 10.7629C20.2535 10.7629 20.377 10.7697 20.4985 10.783V7.76904H16.1221C15.8649 7.76904 15.6256 7.63721 15.4882 7.41977C15.3507 7.20233 15.3343 6.92962 15.4447 6.69726C15.5601 6.45434 15.625 6.18221 15.625 5.89282C15.625 4.85554 14.7841 4.01465 13.7468 4.01465Z" fill="#16191D"/>
</svg>
