<svg width="24" height="24" viewBox="0 0 24 24" fill="none" xmlns="http://www.w3.org/2000/svg">
<path d="M10.3687 5.89282C10.3687 4.02711 11.8811 2.51465 13.7468 2.51465C15.6125 2.51465 17.125 4.02711 17.125 5.89282C17.125 6.01988 17.118 6.14542 17.1042 6.26904H20.4985C21.327 6.26904 21.9985 6.94062 21.9985 7.76904V11.7628C21.9985 12.0197 21.8671 12.2587 21.6501 12.3962C21.4332 12.5338 21.1609 12.5507 20.9286 12.4411C20.6868 12.3271 20.4163 12.2629 20.1287 12.2629C19.0914 12.2629 18.2505 13.1038 18.2505 14.1411C18.2505 15.1784 19.0914 16.0193 20.1287 16.0193C20.4163 16.0193 20.6868 15.9552 20.9286 15.8411C21.1609 15.7315 21.4332 15.7485 21.6501 15.886C21.8671 16.0236 21.9985 16.2626 21.9985 16.5194V20.5134C21.9985 21.3419 21.327 22.0134 20.4985 22.0134H6.99463C6.1662 22.0134 5.49463 21.3419 5.49463 20.5134V17.4997C5.37448 17.5126 5.25253 17.5193 5.12915 17.5193C3.26344 17.5193 1.75098 16.0068 1.75098 14.1411C1.75098 12.2754 3.26344 10.7629 5.12915 10.7629C5.25253 10.7629 5.37448 10.7696 5.49463 10.7825V7.76904C5.49463 6.94061 6.1662 6.26904 6.99463 6.26904H10.3894C10.3757 6.14542 10.3687 6.01988 10.3687 5.89282Z" fill="#16191D"/>
</svg>
