<svg width="21" height="20" viewBox="0 0 21 20" fill="none" xmlns="http://www.w3.org/2000/svg">
<g clip-path="url(#clip0_1505_61038)">
<path fill-rule="evenodd" clip-rule="evenodd" d="M2.75098 3.5C2.33676 3.5 2.00098 3.83579 2.00098 4.25V15.75C2.00098 16.1642 2.33676 16.5 2.75098 16.5H18.251C18.6652 16.5 19.001 16.1642 19.001 15.75V4.25C19.001 3.83579 18.6652 3.5 18.251 3.5H2.75098ZM0.500977 4.25C0.500977 3.00736 1.50834 2 2.75098 2H18.251C19.4936 2 20.501 3.00736 20.501 4.25V15.75C20.501 16.9926 19.4936 18 18.251 18H2.75098C1.50834 18 0.500977 16.9926 0.500977 15.75V4.25ZM5.77618 6.46967L8.77618 9.46967C8.91683 9.61032 8.99585 9.80109 8.99585 10C8.99585 10.1989 8.91683 10.3897 8.77618 10.5303L5.77618 13.5303L4.71552 12.4697L7.18519 10L4.71552 7.53033L5.77618 6.46967ZM9.75366 12.25L15.7537 12.25V13.75L9.75366 13.75V12.25Z" fill="#576175"/>
</g>
<defs>
<clipPath id="clip0_1505_61038">
<rect width="20" height="20" fill="white" transform="translate(0.5)"/>
</clipPath>
</defs>
</svg>
