<svg width="24" height="24" viewBox="0 0 24 24" fill="none" xmlns="http://www.w3.org/2000/svg">
<path fill-rule="evenodd" clip-rule="evenodd" d="M2 17.75C2 18.9926 3.00736 20 4.25 20H19.75C20.9926 20 22 18.9926 22 17.75V6.25C22 5.00736 20.9926 4 19.75 4H4.25C3.00736 4 2 5.00736 2 6.25V17.75ZM10.2764 11.4697L7.27642 8.46967C6.98353 8.17678 6.50866 8.17678 6.21576 8.46967C5.92287 8.76256 5.92287 9.23744 6.21576 9.53033L8.68543 12L6.21576 14.4697C5.92287 14.7626 5.92287 15.2374 6.21576 15.5303C6.50866 15.8232 6.98353 15.8232 7.27642 15.5303L10.2764 12.5303C10.5693 12.2374 10.5693 11.7626 10.2764 11.4697ZM18.0039 15C18.0039 15.4142 17.6681 15.75 17.2539 15.75L11.2539 15.75C10.8397 15.75 10.5039 15.4142 10.5039 15C10.5039 14.5858 10.8397 14.25 11.2539 14.25L17.2539 14.25C17.6681 14.25 18.0039 14.5858 18.0039 15Z" fill="#16191D"/>
</svg>
