<svg width="21" height="20" viewBox="0 0 21 20" fill="none" xmlns="http://www.w3.org/2000/svg">
<path fill-rule="evenodd" clip-rule="evenodd" d="M12.256 2.07849C12.6604 2.16814 12.9155 2.56864 12.8258 2.97304L9.63835 17.3509C9.5487 17.7553 9.14819 18.0105 8.7438 17.9208C8.3394 17.8312 8.08425 17.4307 8.1739 17.0263L11.3614 2.64838C11.4511 2.24398 11.8516 1.98883 12.256 2.07849ZM14.0959 5.34377C14.3887 5.05087 14.8636 5.05087 15.1565 5.34377L19.2826 9.46983C19.5755 9.76272 19.5755 10.2376 19.2826 10.5305L15.1565 14.6566C14.8636 14.9494 14.3887 14.9494 14.0959 14.6566C13.803 14.3637 13.803 13.8888 14.0959 13.5959L17.6916 10.0002L14.0959 6.40443C13.803 6.11153 13.803 5.63666 14.0959 5.34377ZM6.92327 5.36253C7.21617 5.65542 7.21617 6.1303 6.92327 6.42319L3.31115 10.0353L6.92327 13.6474C7.21617 13.9403 7.21617 14.4152 6.92327 14.7081C6.63038 15.001 6.15551 15.001 5.86261 14.7081L1.72016 10.5656C1.42726 10.2728 1.42726 9.79788 1.72016 9.50499L5.86261 5.36253C6.15551 5.06964 6.63038 5.06964 6.92327 5.36253Z" fill="#576175"/>
</svg>
