<svg width="24" height="24" viewBox="0 0 24 24" fill="none" xmlns="http://www.w3.org/2000/svg">
<path fill-rule="evenodd" clip-rule="evenodd" d="M13.7561 4.07849C14.1605 4.16814 14.4156 4.56864 14.326 4.97304L11.1385 19.3509C11.0488 19.7553 10.6483 20.0105 10.2439 19.9208C9.83952 19.8312 9.58437 19.4307 9.67403 19.0263L12.8615 4.64838C12.9512 4.24398 13.3517 3.98883 13.7561 4.07849Z" fill="#16191D"/>
<path fill-rule="evenodd" clip-rule="evenodd" d="M3.22028 12.5656C2.92739 12.2728 2.92739 11.7979 3.22028 11.505L7.36274 7.36253C7.65563 7.06964 8.1305 7.06964 8.4234 7.36253C8.71629 7.65542 8.71629 8.1303 8.4234 8.42319L4.81127 12.0353L8.4234 15.6474C8.71629 15.9403 8.71629 16.4152 8.4234 16.7081C8.1305 17.001 7.65563 17.001 7.36274 16.7081L3.22028 12.5656Z" fill="#16191D"/>
<path fill-rule="evenodd" clip-rule="evenodd" d="M15.596 7.34377C15.8889 7.05087 16.3637 7.05087 16.6566 7.34377L20.7827 11.4698C21.0756 11.7627 21.0756 12.2376 20.7827 12.5305L16.6566 16.6566C16.3637 16.9494 15.8889 16.9494 15.596 16.6566C15.3031 16.3637 15.3031 15.8888 15.596 15.5959L19.1917 12.0002L15.596 8.40443C15.3031 8.11153 15.3031 7.63666 15.596 7.34377Z" fill="#16191D"/>
</svg>
