<svg width="21" height="20" viewBox="0 0 21 20" fill="none" xmlns="http://www.w3.org/2000/svg">
<path fill-rule="evenodd" clip-rule="evenodd" d="M8.0217 5.4355C8.30758 5.73524 8.29634 6.20998 7.9966 6.49586L4.32301 9.99954L7.9966 13.5032C8.29634 13.7891 8.30758 14.2638 8.0217 14.5636C7.73582 14.8633 7.26108 14.8746 6.96134 14.5887L2.7187 10.5423C2.5703 10.4007 2.48633 10.2046 2.48633 9.99954C2.48633 9.79447 2.5703 9.59834 2.7187 9.45681L6.96134 5.41039C7.26108 5.12451 7.73582 5.13575 8.0217 5.4355ZM12.9694 5.4355C13.2553 5.13575 13.7301 5.12451 14.0298 5.41039L18.2724 9.45681C18.4208 9.59834 18.5048 9.79447 18.5048 9.99954C18.5048 10.2046 18.4208 10.4007 18.2724 10.5423L14.0298 14.5887C13.7301 14.8746 13.2553 14.8633 12.9694 14.5636C12.6836 14.2638 12.6948 13.7891 12.9945 13.5032L16.6681 9.99954L12.9945 6.49586C12.6948 6.20998 12.6836 5.73524 12.9694 5.4355Z" fill="#576175"/>
</svg>
