<svg width="32" height="32" viewBox="0 0 32 32" fill="none" xmlns="http://www.w3.org/2000/svg">
<path d="M11.6001 21.2L6.40006 16L11.6001 10.8C12.1201 10.28 12.1201 9.45333 11.6001 8.93333C11.0801 8.41333 10.2534 8.41333 9.73339 8.93333L3.61339 15.0533C3.09339 15.5733 3.09339 16.4133 3.61339 16.9333L9.73339 23.0667C10.2534 23.5867 11.0801 23.5867 11.6001 23.0667C12.1201 22.5467 12.1201 21.72 11.6001 21.2ZM20.4001 21.2L25.6001 16L20.4001 10.8C19.8801 10.28 19.8801 9.45333 20.4001 8.93333C20.9201 8.41333 21.7467 8.41333 22.2667 8.93333L28.3867 15.0533C28.9067 15.5733 28.9067 16.4133 28.3867 16.9333L22.2667 23.0667C21.7467 23.5867 20.9201 23.5867 20.4001 23.0667C19.8801 22.5467 19.8801 21.72 20.4001 21.2Z" fill="#16181D"/>
</svg>
