<svg width="24" height="24" viewBox="0 0 24 24" fill="none" xmlns="http://www.w3.org/2000/svg">
<path d="M4 2H12V3.5H5.5V7.25H9C10.3171 7.25 11.5317 7.69354 12.501 8.43838L17.4393 3.5H14V2H20V8H18.5V4.56066L13.5616 9.49904C14.3065 10.4683 14.75 11.6829 14.75 13V19.8916C16.9657 18.8556 18.5 16.6062 18.5 14V10H20V14C20 17.6539 17.5511 20.7338 14.2065 21.6916C13.5047 21.8926 12.7643 22 12 22C7.58172 22 4 18.4183 4 14V2ZM13.25 20.3801V13C13.25 11.8262 12.7751 10.7647 12.0052 9.9948C11.2353 9.22488 10.1738 8.75 9 8.75H5.5V14C5.5 17.5899 8.41015 20.5 12 20.5C12.4281 20.5 12.8459 20.4587 13.25 20.3801Z" fill="black"/>
</svg>
