<svg width="24" height="24" viewBox="0 0 24 24" fill="none" xmlns="http://www.w3.org/2000/svg">
<path d="M2.00391 5.25098C2.00391 4.00834 3.01127 3.00098 4.25391 3.00098H19.7463C20.989 3.00098 21.9963 4.00834 21.9963 5.25098V14.751C21.9963 15.9936 20.989 17.001 19.7463 17.001H4.25391C3.01127 17.001 2.00391 15.9936 2.00391 14.751V5.25098Z" fill="#16191D"/>
<path d="M6.75 21.2383C6.75 20.8241 7.08579 20.4883 7.5 20.4883H16.5C16.9142 20.4883 17.25 20.8241 17.25 21.2383C17.25 21.6525 16.9142 21.9883 16.5 21.9883H7.5C7.08579 21.9883 6.75 21.6525 6.75 21.2383Z" fill="#16191D"/>
<path d="M12 21.2676C11.5858 21.2676 11.25 20.9318 11.25 20.5176V16.2466C11.25 15.8324 11.5858 15.4966 12 15.4966C12.4142 15.4966 12.75 15.8324 12.75 16.2466V20.5176C12.75 20.9318 12.4142 21.2676 12 21.2676Z" fill="#16191D"/>
</svg>
