<svg width="24" height="24" viewBox="0 0 24 24" fill="none" xmlns="http://www.w3.org/2000/svg">
<path fill-rule="evenodd" clip-rule="evenodd" d="M3.03662 5.24512C3.03662 4.00248 4.04398 2.99512 5.28662 2.99512H18.7131C19.9558 2.99512 20.9631 4.00248 20.9631 5.24512V12.7547C20.9631 13.9973 19.9558 15.0047 18.7131 15.0047H5.28662C4.04398 15.0047 3.03662 13.9973 3.03662 12.7547V5.24512ZM5.28662 4.49512C4.87241 4.49512 4.53662 4.8309 4.53662 5.24512V12.7547C4.53662 13.1689 4.87241 13.5047 5.28662 13.5047H18.7131C19.1273 13.5047 19.4631 13.1689 19.4631 12.7547V5.24512C19.4631 4.8309 19.1273 4.49512 18.7131 4.49512H5.28662Z" fill="#16191D"/>
<path fill-rule="evenodd" clip-rule="evenodd" d="M5.95047 13.5049C4.65918 13.5049 3.51276 14.3312 3.10442 15.5562L2.05599 18.7015C1.67826 19.8347 2.52171 21.0049 3.71619 21.0049H20.2768C21.4713 21.0049 22.3147 19.8347 21.937 18.7015L20.8886 15.5562C20.4802 14.3312 19.3338 13.5049 18.0425 13.5049H5.95047ZM10.5 16.5049C10.0858 16.5049 9.75 16.8407 9.75 17.2549C9.75 17.6691 10.0858 18.0049 10.5 18.0049H13.5C13.9142 18.0049 14.25 17.6691 14.25 17.2549C14.25 16.8407 13.9142 16.5049 13.5 16.5049H10.5Z" fill="#16191D"/>
</svg>
