<svg width="24" height="24" viewBox="0 0 24 24" fill="none" xmlns="http://www.w3.org/2000/svg">
<path d="M7.38281 2.00488C6.14017 2.00488 5.13281 3.01224 5.13281 4.25488V19.746C5.13281 20.9886 6.14017 21.996 7.38281 21.996H16.614C17.8567 21.996 18.864 20.9886 18.864 19.746V4.25488C18.864 3.01224 17.8567 2.00488 16.614 2.00488H7.38281ZM10.5 18.9941C10.0858 18.9941 9.75 18.6584 9.75 18.2441C9.75 17.8299 10.0858 17.4941 10.5 17.4941H13.5C13.9142 17.4941 14.25 17.8299 14.25 18.2441C14.25 18.6584 13.9142 18.9941 13.5 18.9941H10.5Z" fill="#16191D"/>
</svg>
