<svg width="24" height="24" viewBox="0 0 24 24" fill="none" xmlns="http://www.w3.org/2000/svg">
<path fill-rule="evenodd" clip-rule="evenodd" d="M15.9795 3.00391C16.3937 3.00391 16.7295 3.33969 16.7295 3.75391V4.35645C16.7295 5.59909 15.7221 6.60645 14.4795 6.60645H13.4844C13.0702 6.60645 12.7344 6.94224 12.7344 7.35645V8.20898H14.729C17.9741 8.20898 20.76 10.5182 21.3619 13.707L21.901 16.563C22.3354 18.8649 20.5701 20.9946 18.2276 20.9946C17.1771 20.9946 16.175 20.5526 15.4668 19.7768L14.7696 19.0131C14.3433 18.5461 13.7401 18.28 13.1079 18.28H10.8434C10.2059 18.28 9.59825 18.5505 9.17157 19.0242L8.50829 19.7606C7.80077 20.5461 6.79322 20.9946 5.73604 20.9946C3.39809 20.9946 1.63616 18.869 2.06979 16.5716L2.6105 13.707C3.21239 10.5182 5.99825 8.20898 9.24337 8.20898H11.2344V7.35645C11.2344 6.11381 12.2417 5.10645 13.4844 5.10645H14.4795C14.8937 5.10645 15.2295 4.77067 15.2295 4.35645V3.75391C15.2295 3.33969 15.5653 3.00391 15.9795 3.00391ZM8.00391 11.6982C8.41812 11.6982 8.75391 12.034 8.75391 12.4482V13.1982H9.50391C9.91812 13.1982 10.2539 13.534 10.2539 13.9482C10.2539 14.3625 9.91812 14.6982 9.50391 14.6982H8.75391V15.4482C8.75391 15.8625 8.41812 16.1982 8.00391 16.1982C7.58969 16.1982 7.25391 15.8625 7.25391 15.4482V14.6982H6.50391C6.08969 14.6982 5.75391 14.3625 5.75391 13.9482C5.75391 13.534 6.08969 13.1982 6.50391 13.1982H7.25391V12.4482C7.25391 12.034 7.58969 11.6982 8.00391 11.6982ZM14.7461 13.9482C15.2984 13.9482 15.7461 13.5005 15.7461 12.9482C15.7461 12.396 15.2984 11.9482 14.7461 11.9482C14.1938 11.9482 13.7461 12.396 13.7461 12.9482C13.7461 13.5005 14.1938 13.9482 14.7461 13.9482ZM17.7461 14.9482C17.7461 15.5005 17.2984 15.9482 16.7461 15.9482C16.1938 15.9482 15.7461 15.5005 15.7461 14.9482C15.7461 14.396 16.1938 13.9482 16.7461 13.9482C17.2984 13.9482 17.7461 14.396 17.7461 14.9482Z" fill="#16191D"/>
</svg>
