<svg width="20" height="20" viewBox="0 0 20 20" fill="none" xmlns="http://www.w3.org/2000/svg">
<path d="M8.50061 15.4941C8.0864 15.4941 7.75061 15.8299 7.75061 16.2441C7.75061 16.6584 8.0864 16.9941 8.50061 16.9941H11.5006C11.9148 16.9941 12.2506 16.6584 12.2506 16.2441C12.2506 15.8299 11.9148 15.4941 11.5006 15.4941H8.50061Z" fill="#576175"/>
<path fill-rule="evenodd" clip-rule="evenodd" d="M5.38477 0.00488281C4.14213 0.00488281 3.13477 1.01224 3.13477 2.25488V17.746C3.13477 18.9886 4.14212 19.996 5.38477 19.996H14.616C15.8586 19.996 16.866 18.9886 16.866 17.746V2.25488C16.866 1.01224 15.8586 0.00488281 14.616 0.00488281H5.38477ZM4.63477 2.25488C4.63477 1.84067 4.97055 1.50488 5.38477 1.50488H14.616C15.0302 1.50488 15.366 1.84067 15.366 2.25488V17.746C15.366 18.1602 15.0302 18.496 14.616 18.496H5.38477C4.97055 18.496 4.63477 18.1602 4.63477 17.746V2.25488Z" fill="#576175"/>
</svg>
