<svg width="24" height="24" viewBox="0 0 24 24" fill="none" xmlns="http://www.w3.org/2000/svg">
<path d="M10.5001 17.4941C10.0859 17.4941 9.75012 17.8299 9.75012 18.2441C9.75012 18.6584 10.0859 18.9941 10.5001 18.9941H13.5001C13.9143 18.9941 14.2501 18.6584 14.2501 18.2441C14.2501 17.8299 13.9143 17.4941 13.5001 17.4941H10.5001Z" fill="#16191D"/>
<path d="M7.38428 2.00488C6.14164 2.00488 5.13428 3.01224 5.13428 4.25488V19.746C5.13428 20.9886 6.14164 21.996 7.38428 21.996H16.6155C17.8581 21.996 18.8655 20.9886 18.8655 19.746V4.25488C18.8655 3.01224 17.8581 2.00488 16.6155 2.00488H7.38428ZM6.63428 4.25488C6.63428 3.84067 6.97006 3.50488 7.38428 3.50488H16.6155C17.0297 3.50488 17.3655 3.84067 17.3655 4.25488V19.746C17.3655 20.1602 17.0297 20.496 16.6155 20.496H7.38428C6.97006 20.496 6.63428 20.1602 6.63428 19.746V4.25488Z" fill="#16191D"/>
</svg>
