<svg width="20" height="20" viewBox="0 0 20 20" fill="none" xmlns="http://www.w3.org/2000/svg">
<path d="M6.004 9.69824C6.41822 9.69824 6.754 10.034 6.754 10.4482V11.1982H7.504C7.91822 11.1982 8.25401 11.534 8.25401 11.9482C8.254 12.3625 7.91822 12.6982 7.504 12.6982H6.754V13.4482C6.754 13.8625 6.41822 14.1982 6.004 14.1982C5.58979 14.1982 5.254 13.8625 5.254 13.4482V12.6982H4.504C4.08979 12.6982 3.754 12.3625 3.754 11.9482C3.754 11.534 4.08979 11.1982 4.504 11.1982H5.254V10.4482C5.254 10.034 5.58979 9.69824 6.004 9.69824Z" fill="#576175"/>
<path d="M13.7472 10.9482C13.7472 11.5005 13.2995 11.9482 12.7472 11.9482C12.1949 11.9482 11.7472 11.5005 11.7472 10.9482C11.7472 10.396 12.1949 9.94824 12.7472 9.94824C13.2995 9.94824 13.7472 10.396 13.7472 10.9482Z" fill="#576175"/>
<path d="M14.7472 13.9482C15.2995 13.9482 15.7472 13.5005 15.7472 12.9482C15.7472 12.396 15.2995 11.9482 14.7472 11.9482C14.1949 11.9482 13.7472 12.396 13.7472 12.9482C13.7472 13.5005 14.1949 13.9482 14.7472 13.9482Z" fill="#576175"/>
<path fill-rule="evenodd" clip-rule="evenodd" d="M14.7296 1.75391C14.7296 1.33969 14.3938 1.00391 13.9796 1.00391C13.5654 1.00391 13.2296 1.33969 13.2296 1.75391V2.35645C13.2296 2.77067 12.8938 3.10645 12.4796 3.10645H11.4845C10.2418 3.10645 9.23447 4.11381 9.23447 5.35645V6.20899H7.24191C3.99678 6.20899 1.21093 8.5182 0.609032 11.707L0.0683272 14.5716C-0.36531 16.869 1.39663 18.9946 3.73458 18.9946C4.79175 18.9946 5.7993 18.5461 6.50682 17.7606L7.1701 17.0242C7.59678 16.5505 8.20439 16.28 8.84193 16.28H11.1064C11.7387 16.28 12.3418 16.5461 12.7681 17.0131L13.4653 17.7768C14.1736 18.5526 15.1756 18.9946 16.2261 18.9946C18.5686 18.9946 20.334 16.8649 19.8995 14.563L19.3604 11.707C18.7585 8.5182 15.9726 6.20899 12.7275 6.20899H10.7345V5.35645C10.7345 4.94224 11.0703 4.60645 11.4845 4.60645H12.4796C13.7222 4.60645 14.7296 3.59909 14.7296 2.35645V1.75391ZM2.083 11.9852C2.55115 9.50504 4.71792 7.70899 7.24191 7.70899H12.7275C15.2515 7.70899 17.4183 9.50504 17.8864 11.9852L18.4255 14.8413C18.6857 16.2195 17.6287 17.4946 16.2261 17.4946C15.5971 17.4946 14.9972 17.23 14.5731 16.7655L13.8759 16.0017C13.1654 15.2235 12.1602 14.78 11.1064 14.78H8.84193C7.77936 14.78 6.76668 15.2308 6.05555 16.0203L5.39227 16.7567C4.9692 17.2265 4.36673 17.4946 3.73458 17.4946C2.33657 17.4946 1.283 16.2236 1.5423 14.8499L2.083 11.9852Z" fill="#576175"/>
</svg>
