<svg width="24" height="24" viewBox="0 0 24 24" fill="none" xmlns="http://www.w3.org/2000/svg">
<path d="M2.00391 5.25098C2.00391 4.00834 3.01127 3.00098 4.25391 3.00098H19.7463C20.989 3.00098 21.9963 4.00834 21.9963 5.25098V14.751C21.9963 15.9936 20.989 17.001 19.7463 17.001H12.75V20.4883H16.5C16.9142 20.4883 17.25 20.8241 17.25 21.2383C17.25 21.6525 16.9142 21.9883 16.5 21.9883H7.5C7.08579 21.9883 6.75 21.6525 6.75 21.2383C6.75 20.8241 7.08579 20.4883 7.5 20.4883H11.25V17.001H4.25391C3.01127 17.001 2.00391 15.9936 2.00391 14.751V5.25098ZM12.0817 15.501H19.7463C20.1606 15.501 20.4963 15.1652 20.4963 14.751V5.25098C20.4963 4.83676 20.1606 4.50098 19.7463 4.50098H4.25391C3.83969 4.50098 3.50391 4.83676 3.50391 5.25098V14.751C3.50391 15.1652 3.83969 15.501 4.25391 15.501H11.9183C11.9452 15.4981 11.9724 15.4966 12 15.4966C12.0276 15.4966 12.0548 15.4981 12.0817 15.501Z" fill="#16191D"/>
</svg>
