<svg width="20" height="21" viewBox="0 0 20 21" fill="none" xmlns="http://www.w3.org/2000/svg">
<path fill-rule="evenodd" clip-rule="evenodd" d="M6.85819 3.87693C5.97951 4.75561 5.97951 6.18023 6.85819 7.05891L7.31912 7.51984C4.04829 9.65744 2.62076 13.8038 3.98829 17.5518L4.25887 18.2933H1.76562C1.35141 18.2933 1.01562 18.6291 1.01562 19.0433C1.01562 19.4576 1.35141 19.7933 1.76562 19.7933H5.30046C5.3208 19.7942 5.34125 19.7942 5.36177 19.7933H9.30005C9.71426 19.7933 10.05 19.4576 10.05 19.0433C10.05 18.6291 9.71426 18.2933 9.30005 18.2933H5.85561L5.39741 17.0376C4.23449 13.8504 5.5256 10.3134 8.40797 8.60869L8.70571 8.90643C9.21209 9.41282 9.52063 10.0836 9.57555 10.7977L9.78936 13.5772C9.85161 14.3864 10.8344 14.75 11.4083 14.1761L12.9298 12.6545C14.1096 13.3867 15.6665 13.3125 16.6874 12.2916C17.7082 11.2708 17.7824 9.71387 17.0503 8.53408L18.5715 7.01284C19.1454 6.43893 18.7819 5.45614 17.9726 5.39389L15.1931 5.18008C14.4791 5.12516 13.8083 4.81662 13.3019 4.31024L11.4544 2.46272C10.5757 1.58404 9.15109 1.58404 8.27241 2.46272L6.85819 3.87693ZM7.91885 5.99825C7.62596 5.70536 7.62596 5.23049 7.91885 4.93759L9.33307 3.52338C9.62596 3.23049 10.1008 3.23049 10.3937 3.52338L12.2412 5.3709C13.0008 6.13047 14.0071 6.59328 15.0781 6.67566L16.6653 6.79776L11.1932 12.2698L11.0711 10.6826C10.9887 9.61158 10.5259 8.60535 9.76637 7.84577L7.91885 5.99825ZM15.9363 9.64861L14.0444 11.5405C14.6127 11.7479 15.232 11.6257 15.6267 11.231C16.0215 10.8362 16.1436 10.217 15.9363 9.64861Z" fill="#576175"/>
</svg>
