<svg width="24" height="24" viewBox="0 0 24 24" fill="none" xmlns="http://www.w3.org/2000/svg">
<path d="M8.85822 5.07811C7.97954 5.95679 7.97954 7.38141 8.85822 8.26009L9.31899 8.72086C6.04806 10.8584 4.62046 15.0049 5.98801 18.7529L6.25854 19.4943H3.76538C3.35117 19.4943 3.01538 19.8301 3.01538 20.2443C3.01538 20.6585 3.35117 20.9943 3.76538 20.9943H7.29645C7.31926 20.9954 7.34221 20.9954 7.36523 20.9943H11.2998C11.714 20.9943 12.0498 20.6585 12.0498 20.2443C12.0498 19.8301 11.714 19.4943 11.2998 19.4943H7.85527L7.39714 18.2387C6.23419 15.0515 7.52537 11.5144 10.4079 9.80972C11.0239 10.4258 11.506 11.0941 11.5756 11.9988L11.7894 14.7783C11.8516 15.5876 12.8344 15.9511 13.4083 15.3772L14.9299 13.8557C16.1097 14.5876 17.6664 14.5134 18.6872 13.4926C19.7079 12.4718 19.7822 10.9151 19.0502 9.73533L20.5716 8.21401C21.1455 7.6401 20.7819 6.65731 19.9727 6.59506L17.1932 6.38125C16.4791 6.32633 15.8083 6.01779 15.3019 5.51141L13.4544 3.66389C12.5757 2.78521 11.1511 2.78521 10.2724 3.66389L8.85822 5.07811ZM9.91888 7.19943C9.62598 6.90653 9.62598 6.43166 9.91888 6.13877L11.3331 4.72455C11.626 4.43166 12.1009 4.43166 12.3938 4.72455L14.2413 6.57207C15.0008 7.33165 16.0071 7.79445 17.0781 7.87683L18.6653 7.99893L13.1933 13.471L13.0712 11.8838C12.9888 10.8128 12.526 9.80652 11.7664 9.04694L9.91888 7.19943ZM17.9361 10.8496C18.1434 11.4179 18.0213 12.0371 17.6265 12.4319C17.2317 12.8267 16.6125 12.9488 16.0441 12.7415L17.9361 10.8496Z" fill="#16191D"/>
</svg>
