<svg width="20" height="21" viewBox="0 0 20 21" fill="none" xmlns="http://www.w3.org/2000/svg">
<g clip-path="url(#clip0_1505_60752)">
<path d="M8.50015 15.3037C8.08593 15.3037 7.75015 15.6395 7.75015 16.0537C7.75015 16.4679 8.08593 16.8037 8.50015 16.8037H11.5001C11.9144 16.8037 12.2501 16.4679 12.2501 16.0537C12.2501 15.6395 11.9144 15.3037 11.5001 15.3037H8.50015Z" fill="#576175"/>
<path fill-rule="evenodd" clip-rule="evenodd" d="M1.03677 4.04395C1.03677 2.8013 2.04413 1.79395 3.28677 1.79395H16.7133C17.9559 1.79395 18.9633 2.8013 18.9633 4.04395V11.5535C18.9633 12.2201 18.6734 12.8189 18.2129 13.231C18.5124 13.5442 18.7467 13.925 18.89 14.355L19.9384 17.5003C20.3162 18.6335 19.4727 19.8037 18.2782 19.8037H1.71765C0.523175 19.8037 -0.320272 18.6335 0.0574544 17.5003L1.10588 14.355C1.24951 13.9241 1.48446 13.5426 1.78492 13.2289C1.32568 12.817 1.03677 12.219 1.03677 11.5535V4.04395ZM3.28677 3.29395C2.87255 3.29395 2.53677 3.62973 2.53677 4.04395V11.5535C2.53677 11.9677 2.87255 12.3035 3.28677 12.3035H16.7133C17.1275 12.3035 17.4633 11.9677 17.4633 11.5535V4.04395C17.4633 3.62973 17.1275 3.29395 16.7133 3.29395H3.28677ZM3.95193 13.8037C3.30629 13.8037 2.73308 14.2169 2.52891 14.8294L1.48048 17.9747C1.42652 18.1365 1.54701 18.3037 1.71765 18.3037H18.2782C18.4489 18.3037 18.5694 18.1365 18.5154 17.9747L17.467 14.8294C17.2628 14.2169 16.6896 13.8037 16.044 13.8037H3.95193Z" fill="#576175"/>
</g>
<defs>
<clipPath id="clip0_1505_60752">
<rect width="20" height="20" fill="white" transform="translate(0 0.798828)"/>
</clipPath>
</defs>
</svg>
