<svg width="20" height="21" viewBox="0 0 20 21" fill="none" xmlns="http://www.w3.org/2000/svg">
<g clip-path="url(#clip0_1505_60759)">
<path fill-rule="evenodd" clip-rule="evenodd" d="M0.00390625 4.0498C0.00390625 2.80716 1.01127 1.7998 2.25391 1.7998H17.7463C18.989 1.7998 19.9963 2.80716 19.9963 4.0498V13.5498C19.9963 14.7924 18.989 15.7998 17.7463 15.7998H10.75V19.2871H14.5C14.9142 19.2871 15.25 19.6229 15.25 20.0371C15.25 20.4513 14.9142 20.7871 14.5 20.7871H5.5C5.08579 20.7871 4.75 20.4513 4.75 20.0371C4.75 19.6229 5.08579 19.2871 5.5 19.2871H9.25V15.7998H2.25391C1.01127 15.7998 0.00390625 14.7924 0.00390625 13.5498V4.0498ZM10.0817 14.2998C10.0548 14.2969 10.0276 14.2954 10 14.2954C9.97241 14.2954 9.94516 14.2969 9.91834 14.2998H2.25391C1.83969 14.2998 1.50391 13.964 1.50391 13.5498V4.0498C1.50391 3.63559 1.83969 3.2998 2.25391 3.2998H17.7463C18.1606 3.2998 18.4963 3.63559 18.4963 4.0498V13.5498C18.4963 13.964 18.1606 14.2998 17.7463 14.2998H10.0817Z" fill="#576175"/>
</g>
<defs>
<clipPath id="clip0_1505_60759">
<rect width="20" height="20" fill="white" transform="translate(0 0.798828)"/>
</clipPath>
</defs>
</svg>
