<svg xmlns="http://www.w3.org/2000/svg" width="20" height="19" viewBox="0 0 20 19" fill="none">
  <path d="M0.00390625 2.25098C0.00390625 1.00834 1.01127 0.000976562 2.25391 0.000976562H17.7463C18.989 0.000976562 19.9963 1.00834 19.9963 2.25098V11.751C19.9963 12.9936 18.989 14.001 17.7463 14.001H10.75V17.4883H14.5C14.9142 17.4883 15.25 17.8241 15.25 18.2383C15.25 18.6525 14.9142 18.9883 14.5 18.9883H5.5C5.08579 18.9883 4.75 18.6525 4.75 18.2383C4.75 17.8241 5.08579 17.4883 5.5 17.4883H9.25V14.001H2.25391C1.01127 14.001 0.00390625 12.9936 0.00390625 11.751V2.25098ZM10.0817 12.501H17.7463C18.1606 12.501 18.4963 12.1652 18.4963 11.751V2.25098C18.4963 1.83676 18.1606 1.50098 17.7463 1.50098H2.25391C1.83969 1.50098 1.50391 1.83676 1.50391 2.25098V11.751C1.50391 12.1652 1.83969 12.501 2.25391 12.501H9.91834C9.94516 12.4981 9.97241 12.4966 10 12.4966C10.0276 12.4966 10.0548 12.4981 10.0817 12.501Z" fill="#16191D"/>
</svg>