<svg width="24" height="24" viewBox="0 0 24 24" fill="none" xmlns="http://www.w3.org/2000/svg">
<path d="M3.01538 20.244C3.01538 19.8298 3.35117 19.494 3.76538 19.494H11.2998C11.714 19.494 12.0498 19.8298 12.0498 20.244C12.0498 20.6582 11.714 20.994 11.2998 20.994H3.76538C3.35117 20.994 3.01538 20.6582 3.01538 20.244Z" fill="#16191D"/>
<path d="M11.1498 8.57667C11.3367 8.94636 11.1884 9.3975 10.8187 9.58432C7.65028 11.1854 6.18027 14.9034 7.39711 18.2383L8.03531 19.9874C8.17729 20.3765 7.97695 20.807 7.58783 20.949C7.19871 21.091 6.76817 20.8907 6.62619 20.5015L5.98798 18.7524C4.5106 14.7035 6.29536 10.1894 10.1422 8.24554C10.5119 8.05872 10.963 8.20698 11.1498 8.57667Z" fill="#16191D"/>
<path d="M17.936 10.8493L16.0441 12.7412C16.6124 12.9485 17.2316 12.8264 17.6264 12.4316C18.0212 12.0369 18.1433 11.4176 17.936 10.8493ZM18.581 9.1436C19.7784 10.341 19.8904 12.289 18.6871 13.4923C17.4838 14.6956 15.5358 14.5836 14.3384 13.3862C14.0455 13.0933 14.0455 12.6185 14.3384 12.3256L17.5204 9.1436C17.8132 8.8507 18.2881 8.8507 18.581 9.1436Z" fill="#16191D"/>
<path d="M8.85813 8.2596C7.97945 7.38092 7.97945 5.9563 8.85813 5.07762L10.2723 3.6634C11.151 2.78472 12.5756 2.78472 13.4543 3.6634L15.3018 5.51092C15.8082 6.0173 16.4791 6.32584 17.1931 6.38076L19.9726 6.59457C20.7818 6.65682 21.1454 7.63961 20.5715 8.21353L13.4083 15.3767C12.8343 15.9507 11.8516 15.5871 11.7893 14.7778L11.5755 11.9983C11.5206 11.2843 11.212 10.6135 10.7056 10.1071L8.85813 8.2596Z" fill="#16191D"/>
</svg>
