<svg width="24" height="24" viewBox="0 0 24 24" fill="none" xmlns="http://www.w3.org/2000/svg">
<path d="M3.03662 5.24512V12.7547C3.03662 13.9973 4.04398 15.0047 5.28662 15.0047H18.7131C19.9558 15.0047 20.9631 13.9973 20.9631 12.7547V5.24512C20.9631 4.00248 19.9558 2.99512 18.7131 2.99512H5.28662C4.04398 2.99512 3.03662 4.00248 3.03662 5.24512ZM5.28662 4.49512H18.7131C19.1273 4.49512 19.4631 4.8309 19.4631 5.24512V12.7547C19.4631 13.1689 19.1273 13.5047 18.7131 13.5047H5.28662C4.87241 13.5047 4.53662 13.1689 4.53662 12.7547V5.24512C4.53662 4.8309 4.87241 4.49512 5.28662 4.49512Z" fill="#16191D"/>
<path d="M5.95047 13.5049C4.65918 13.5049 3.51276 14.3312 3.10442 15.5562L2.05599 18.7015C1.67826 19.8347 2.52171 21.0049 3.71619 21.0049H20.2768C21.4713 21.0049 22.3147 19.8347 21.937 18.7015L20.8886 15.5562C20.4802 14.3312 19.3338 13.5049 18.0425 13.5049H5.95047ZM10.5 16.5049H13.5C13.9142 16.5049 14.25 16.8407 14.25 17.2549C14.25 17.6691 13.9142 18.0049 13.5 18.0049H10.5C10.0858 18.0049 9.75 17.6691 9.75 17.2549C9.75 16.8407 10.0858 16.5049 10.5 16.5049Z" fill="#16191D"/>
</svg>
