<svg width="24" height="24" viewBox="0 0 24 24" fill="none" xmlns="http://www.w3.org/2000/svg">
<path d="M8.00391 11.6982C8.41812 11.6982 8.75391 12.034 8.75391 12.4482V13.1982H9.50391C9.91812 13.1982 10.2539 13.534 10.2539 13.9482C10.2539 14.3625 9.91812 14.6982 9.50391 14.6982H8.75391V15.4482C8.75391 15.8625 8.41812 16.1982 8.00391 16.1982C7.58969 16.1982 7.25391 15.8625 7.25391 15.4482V14.6982H6.50391C6.08969 14.6982 5.75391 14.3625 5.75391 13.9482C5.75391 13.534 6.08969 13.1982 6.50391 13.1982H7.25391V12.4482C7.25391 12.034 7.58969 11.6982 8.00391 11.6982Z" fill="#16191D"/>
<path d="M15.7471 12.9482C15.7471 13.5005 15.2994 13.9482 14.7471 13.9482C14.1948 13.9482 13.7471 13.5005 13.7471 12.9482C13.7471 12.396 14.1948 11.9482 14.7471 11.9482C15.2994 11.9482 15.7471 12.396 15.7471 12.9482Z" fill="#16191D"/>
<path d="M16.7471 15.9482C17.2994 15.9482 17.7471 15.5005 17.7471 14.9482C17.7471 14.396 17.2994 13.9482 16.7471 13.9482C16.1948 13.9482 15.7471 14.396 15.7471 14.9482C15.7471 15.5005 16.1948 15.9482 16.7471 15.9482Z" fill="#16191D"/>
<path fill-rule="evenodd" clip-rule="evenodd" d="M16.7295 3.75391C16.7295 3.33969 16.3937 3.00391 15.9795 3.00391C15.5653 3.00391 15.2295 3.33969 15.2295 3.75391V4.35645C15.2295 4.77067 14.8937 5.10645 14.4795 5.10645H13.4844C12.2417 5.10645 11.2344 6.11381 11.2344 7.35645V8.20898H9.24179C5.99666 8.20898 3.21081 10.5182 2.60891 13.707L2.06821 16.5716C1.63457 18.869 3.3965 20.9946 5.73445 20.9946C6.79163 20.9946 7.79918 20.5461 8.5067 19.7606L9.16998 19.0242C9.59666 18.5505 10.2043 18.28 10.8418 18.28H13.1063C13.7386 18.28 14.3417 18.5461 14.768 19.0131L15.4652 19.7768C16.1734 20.5526 17.1755 20.9946 18.226 20.9946C20.5685 20.9946 22.3338 18.8649 21.8994 16.563L21.3603 13.707C20.7584 10.5182 17.9725 8.20898 14.7274 8.20898H12.7344V7.35645C12.7344 6.94224 13.0702 6.60645 13.4844 6.60645H14.4795C15.7221 6.60645 16.7295 5.59909 16.7295 4.35645V3.75391ZM4.08288 13.9852C4.55103 11.505 6.7178 9.70898 9.24179 9.70898H14.7274C17.2514 9.70898 19.4182 11.505 19.8863 13.9852L20.4254 16.8413C20.6855 18.2195 19.6285 19.4946 18.226 19.4946C17.597 19.4946 16.997 19.23 16.573 18.7655L15.8758 18.0017C15.1653 17.2235 14.1601 16.78 13.1063 16.78H10.8418C9.77924 16.78 8.76656 17.2308 8.05543 18.0203L7.39215 18.7567C6.96908 19.2265 6.36661 19.4946 5.73445 19.4946C4.33645 19.4946 3.28288 18.2236 3.54218 16.8498L4.08288 13.9852Z" fill="#16191D"/>
</svg>
