<svg xmlns="http://www.w3.org/2000/svg" width="22" height="18" viewBox="0 0 22 18" fill="none">
  <path d="M2.03662 2.24512V9.7547C2.03662 10.9973 3.04398 12.0047 4.28662 12.0047H17.7131C18.9558 12.0047 19.9631 10.9973 19.9631 9.7547V2.24512C19.9631 1.00248 18.9558 -0.00488281 17.7131 -0.00488281H4.28662C3.04398 -0.00488281 2.03662 1.00248 2.03662 2.24512ZM4.28662 1.49512H17.7131C18.1273 1.49512 18.4631 1.8309 18.4631 2.24512V9.7547C18.4631 10.1689 18.1273 10.5047 17.7131 10.5047H4.28662C3.87241 10.5047 3.53662 10.1689 3.53662 9.7547V2.24512C3.53662 1.8309 3.87241 1.49512 4.28662 1.49512Z" fill="#16191D"/>
  <path d="M4.95047 10.5049C3.65918 10.5049 2.51276 11.3312 2.10442 12.5562L1.05599 15.7015C0.678263 16.8347 1.52171 18.0049 2.71619 18.0049H19.2768C20.4713 18.0049 21.3147 16.8347 20.937 15.7015L19.8886 12.5562C19.4802 11.3312 18.3338 10.5049 17.0425 10.5049H4.95047ZM9.5 13.5049H12.5C12.9142 13.5049 13.25 13.8407 13.25 14.2549C13.25 14.6691 12.9142 15.0049 12.5 15.0049H9.5C9.08579 15.0049 8.75 14.6691 8.75 14.2549C8.75 13.8407 9.08579 13.5049 9.5 13.5049Z" fill="#16191D"/>
</svg>