<svg width="24" height="24" viewBox="0 0 24 24" fill="none" xmlns="http://www.w3.org/2000/svg">
<path d="M10.5 16.5049C10.0858 16.5049 9.75 16.8407 9.75 17.2549C9.75 17.6691 10.0858 18.0049 10.5 18.0049H13.5C13.9142 18.0049 14.25 17.6691 14.25 17.2549C14.25 16.8407 13.9142 16.5049 13.5 16.5049H10.5Z" fill="#16191D"/>
<path fill-rule="evenodd" clip-rule="evenodd" d="M3.03662 5.24512C3.03662 4.00248 4.04398 2.99512 5.28662 2.99512H18.7131C19.9558 2.99512 20.9631 4.00248 20.9631 5.24512V12.7547C20.9631 13.4213 20.6733 14.0201 20.2128 14.4321C20.5123 14.7454 20.7466 15.1262 20.8899 15.5562L21.9383 18.7015C22.316 19.8347 21.4726 21.0049 20.2781 21.0049H3.71753C2.52305 21.0049 1.67961 19.8347 2.05733 18.7015L3.10576 15.5562C3.24939 15.1253 3.48434 14.7438 3.78478 14.4301C3.32554 14.0182 3.03662 13.4202 3.03662 12.7547V5.24512ZM5.28662 4.49512C4.87241 4.49512 4.53662 4.8309 4.53662 5.24512V12.7547C4.53662 13.1689 4.87241 13.5047 5.28662 13.5047H18.7131C19.1273 13.5047 19.4631 13.1689 19.4631 12.7547V5.24512C19.4631 4.8309 19.1273 4.49512 18.7131 4.49512H5.28662ZM5.95181 15.0049C5.30616 15.0049 4.73296 15.418 4.52879 16.0305L3.48036 19.1758C3.4264 19.3377 3.54689 19.5049 3.71753 19.5049H20.2781C20.4488 19.5049 20.5693 19.3377 20.5153 19.1758L19.4669 16.0305C19.2627 15.418 18.6895 15.0049 18.0438 15.0049H5.95181Z" fill="#16191D"/>
</svg>
