<svg width="20" height="20" viewBox="0 0 20 20" fill="none" xmlns="http://www.w3.org/2000/svg">
<path fill-rule="evenodd" clip-rule="evenodd" d="M0.25 3.5C0.25 2.25736 1.25736 1.25 2.5 1.25H17.5C18.7426 1.25 19.75 2.25736 19.75 3.5V4.5C19.75 5.65814 18.875 6.61191 17.75 6.73627V16.5C17.75 17.7426 16.7426 18.75 15.5 18.75H4.5C3.25736 18.75 2.25 17.7426 2.25 16.5V6.73627C1.12501 6.61191 0.25 5.65814 0.25 4.5V3.5ZM3.75 6.75V16.5C3.75 16.9142 4.08579 17.25 4.5 17.25H15.5C15.9142 17.25 16.25 16.9142 16.25 16.5V6.75H3.75ZM2.5 2.75C2.08579 2.75 1.75 3.08579 1.75 3.5V4.5C1.75 4.91421 2.08579 5.25 2.5 5.25H17.5C17.9142 5.25 18.25 4.91421 18.25 4.5V3.5C18.25 3.08579 17.9142 2.75 17.5 2.75H2.5ZM7 10.0039C7 9.58969 7.33579 9.25391 7.75 9.25391H12.25C12.6642 9.25391 13 9.58969 13 10.0039C13 10.4181 12.6642 10.7539 12.25 10.7539H7.75C7.33579 10.7539 7 10.4181 7 10.0039Z" fill="#576175"/>
</svg>
