<svg width="24" height="24" viewBox="0 0 24 24" fill="none" xmlns="http://www.w3.org/2000/svg">
<path d="M4.5 3.25C3.25736 3.25 2.25 4.25736 2.25 5.5V6.5C2.25 7.65814 3.12501 8.61191 4.25 8.73627V18.5C4.25 19.7426 5.25736 20.75 6.5 20.75H17.5C18.7426 20.75 19.75 19.7426 19.75 18.5V8.73627C20.875 8.61191 21.75 7.65814 21.75 6.5V5.5C21.75 4.25736 20.7426 3.25 19.5 3.25H4.5ZM19.5 7.25H4.5C4.08579 7.25 3.75 6.91421 3.75 6.5V5.5C3.75 5.08579 4.08579 4.75 4.5 4.75H19.5C19.9142 4.75 20.25 5.08579 20.25 5.5V6.5C20.25 6.91421 19.9142 7.25 19.5 7.25ZM9 12.0039C9 11.5897 9.33579 11.2539 9.75 11.2539H14.25C14.6642 11.2539 15 11.5897 15 12.0039C15 12.4181 14.6642 12.7539 14.25 12.7539H9.75C9.33579 12.7539 9 12.4181 9 12.0039Z" fill="#16191D"/>
</svg>
