<svg width="20" height="20" viewBox="0 0 20 20" fill="none" xmlns="http://www.w3.org/2000/svg">
<g id="v3">
<g id="Vector">
<path fill-rule="evenodd" clip-rule="evenodd" d="M11.3982 3.06555L9.99967 1.66699H4.99967C4.0792 1.66699 3.33301 2.41318 3.33301 3.33366V16.667C3.33301 17.5875 4.0792 18.3337 4.99967 18.3337H14.9997C15.9201 18.3337 16.6663 17.5875 16.6663 16.667V8.33366L15.8623 7.52965L13.6199 10.613C13.3545 10.9779 12.8844 11.1305 12.4553 10.9909C12.0263 10.8514 11.7358 10.4515 11.7358 10.0003V7.80125H9.99967C9.60788 7.80125 9.24922 7.58141 9.07143 7.23227C8.89364 6.88313 8.9268 6.46377 9.15724 6.14691L11.3982 3.06555ZM5.20801 12.5003C5.20801 12.1551 5.48783 11.8753 5.83301 11.8753H12.4997C12.8449 11.8753 13.1247 12.1551 13.1247 12.5003C13.1247 12.8455 12.8449 13.1253 12.4997 13.1253H5.83301C5.48783 13.1253 5.20801 12.8455 5.20801 12.5003ZM5.20801 15.0003C5.20801 14.6551 5.48783 14.3753 5.83301 14.3753H9.16634C9.51152 14.3753 9.79134 14.6551 9.79134 15.0003C9.79134 15.3455 9.51152 15.6253 9.16634 15.6253H5.83301C5.48783 15.6253 5.20801 15.3455 5.20801 15.0003Z" fill="#16191D"/>
<path d="M14.2821 5.9494L14.3709 6.03826L13.8191 6.79701V6.75958C13.8191 6.39386 13.6306 6.07215 13.3455 5.8863C13.4571 5.92712 13.5776 5.9494 13.7034 5.9494H14.2821Z" fill="#16191D"/>
<path d="M12.7775 5.71792H12.0453L12.6617 4.87031V4.90773C12.6617 5.27346 12.8502 5.59517 13.1353 5.78102C13.0237 5.7402 12.9032 5.71792 12.7775 5.71792Z" fill="#16191D"/>
<path d="M13.7034 1.66699V4.90773H16.4812L12.7775 10.0003V6.75958H9.99967L13.7034 1.66699Z" fill="#16191D"/>
</g>
</g>
</svg>
