<svg width="24" height="24" viewBox="0 0 24 24" fill="none" xmlns="http://www.w3.org/2000/svg">
<path fill-rule="evenodd" clip-rule="evenodd" d="M3.00391 7.25706C3.00391 6.01448 4.01116 5.00715 5.25374 5.00706L8.16871 5.00684C8.90184 5.00678 9.60961 5.27518 10.1583 5.76134C10.5772 6.13245 10.9698 6.5089 11.571 6.50892L18.7379 6.50923C19.9805 6.50928 20.9878 7.51662 20.9878 8.75923V16.7279C20.9878 16.7471 20.9875 16.7668 20.9871 16.7859C20.9565 18.002 19.9612 18.9784 18.7378 18.9784H5.25391C4.01127 18.9784 3.00391 17.971 3.00391 16.7284V7.25706ZM5.25385 6.50706L8.16883 6.50684C8.77006 6.50679 9.16272 6.88326 9.58165 7.25442C10.1303 7.7405 10.8379 8.00889 11.5709 8.00892L18.7378 8.00923C19.152 8.00924 19.4878 8.34502 19.4878 8.75923V9.63704C19.2533 9.55414 19.0009 9.50903 18.738 9.50901L15.823 9.50879C15.0899 9.50873 14.3821 9.77713 13.8334 10.2633L13.4153 10.6336C13.141 10.8767 12.7872 11.0109 12.4207 11.0109L5.25381 11.0112C4.99087 11.0112 4.73846 11.0563 4.50391 11.1392V7.25706C4.50391 6.84287 4.83966 6.50709 5.25385 6.50706ZM4.50391 13.2612V16.7279C4.50391 17.1421 4.83969 17.4779 5.25391 17.4779H18.7378C19.1443 17.4779 19.4753 17.1544 19.4874 16.7508C19.4876 16.7464 19.4877 16.742 19.4877 16.7376C19.4878 16.7343 19.4878 16.7311 19.4878 16.7279V11.759C19.4878 11.3448 19.152 11.009 18.7379 11.009L15.8229 11.0088C15.4563 11.0088 15.1024 11.143 14.8281 11.386L14.41 11.7564C13.8614 12.2425 13.1538 12.5108 12.4208 12.5109L5.25387 12.5112C4.83967 12.5112 4.50391 12.847 4.50391 13.2612Z" fill="#16191D"/>
</svg>
