<svg width="20" height="21" viewBox="0 0 20 21" fill="none" xmlns="http://www.w3.org/2000/svg">
<path fill-rule="evenodd" clip-rule="evenodd" d="M15.1339 1.62877C14.4505 0.945356 13.3424 0.945357 12.659 1.62877L8.21117 6.07662C8.16506 6.12273 8.08147 6.16363 7.96443 6.16198C7.01587 6.14866 6.0416 6.30541 5.08767 6.62432C3.82584 7.04617 3.6983 8.56499 4.50239 9.36908L7.34786 12.2146L2.93549 16.6269C2.6426 16.9198 2.6426 17.3947 2.93549 17.6876C3.22838 17.9805 3.70326 17.9805 3.99615 17.6876L8.40852 13.2752L11.2534 16.1201C12.0584 16.9251 13.5774 16.7957 13.9995 15.5345C14.3171 14.5856 14.4761 13.6142 14.4619 12.6683C14.4601 12.5494 14.5015 12.4651 14.5476 12.4189L18.9984 7.96815C19.6818 7.28473 19.6818 6.17669 18.9984 5.49327L15.1339 1.62877ZM13.7197 2.68943C13.8173 2.5918 13.9756 2.5918 14.0732 2.68943L17.9377 6.55394C18.0354 6.65157 18.0354 6.80986 17.9377 6.90749L13.487 11.3582C13.1172 11.728 12.955 12.2215 12.9621 12.6908C12.9735 13.4543 12.8452 14.2573 12.5771 15.0584C12.5669 15.0888 12.555 15.1006 12.5484 15.1062C12.5398 15.1133 12.5246 15.1221 12.5003 15.1266C12.45 15.1358 12.3774 15.1227 12.3141 15.0594L5.56305 8.30842C5.49977 8.24515 5.48683 8.17259 5.49594 8.12265C5.50034 8.09854 5.50905 8.08359 5.51607 8.07521C5.52147 8.06876 5.53307 8.05702 5.56327 8.04693C6.36712 7.77819 7.1737 7.65102 7.94337 7.66184C8.41219 7.66842 8.90362 7.50548 9.27183 7.13728L13.7197 2.68943Z" fill="#576175"/>
</svg>
