<svg xmlns="http://www.w3.org/2000/svg" width="16" height="18" viewBox="0 0 16 18" fill="none">
  <path fill-rule="evenodd" clip-rule="evenodd" d="M3 0.0625C1.75736 0.0625 0.75 1.06986 0.75 2.3125V15.687C0.75 16.9296 1.75736 17.937 3 17.937H13C14.2426 17.937 15.25 16.9296 15.25 15.687V2.3125C15.25 1.06986 14.2426 0.0625 13 0.0625H3ZM4.71484 5.75C4.30063 5.75 3.96484 5.41421 3.96484 5C3.96484 4.58579 4.30063 4.25 4.71484 4.25H11.2871C11.7013 4.25 12.0371 4.58579 12.0371 5C12.0371 5.41421 11.7013 5.75 11.2871 5.75H4.71484ZM4.71484 9.75C4.30063 9.75 3.96484 9.41421 3.96484 9C3.96484 8.58579 4.30063 8.25 4.71484 8.25H11.2871C11.7013 8.25 12.0371 8.58579 12.0371 9C12.0371 9.41421 11.7013 9.75 11.2871 9.75H4.71484ZM3.96484 13C3.96484 12.5858 4.30063 12.25 4.71484 12.25H8.08666C8.50087 12.25 8.83666 12.5858 8.83666 13C8.83666 13.4142 8.50087 13.75 8.08666 13.75H4.71484C4.30063 13.75 3.96484 13.4142 3.96484 13Z" fill="#16191D"/>
</svg>