<svg width="20" height="20" viewBox="0 0 20 20" fill="none" xmlns="http://www.w3.org/2000/svg">
<path d="M16.7378 16.2279H3.25391C2.42548 16.2279 1.75391 15.5563 1.75391 14.7279V11.2612C1.75391 10.4328 2.42544 9.76121 3.25384 9.76118L10.4207 9.76088C10.9705 9.76086 11.5012 9.55956 11.9127 9.195L12.3307 8.82467C12.7423 8.46005 13.2731 8.25875 13.8229 8.25879L16.7379 8.25901C17.5663 8.25907 18.2378 8.93063 18.2378 9.75901V14.7279C18.2378 15.5563 17.5662 16.2279 16.7378 16.2279Z" fill="white"/>
<path fill-rule="evenodd" clip-rule="evenodd" d="M6.16883 4.50684L3.25385 4.50706C2.83966 4.50709 2.50391 4.84287 2.50391 5.25706V9.13921C2.73846 9.0563 2.99087 9.01119 3.25381 9.01118L10.4207 9.01088C10.7872 9.01086 11.141 8.87667 11.4153 8.63363L11.8334 8.26329C12.3821 7.77713 13.0899 7.50873 13.823 7.50879L16.738 7.50901C17.0009 7.50903 17.2533 7.55414 17.4878 7.63704V6.75923C17.4878 6.34502 17.152 6.00924 16.7378 6.00923L9.57093 6.00892C8.83793 6.00889 8.1303 5.7405 7.58165 5.25442L7.16365 4.88409C6.88927 4.64101 6.53539 4.50681 6.16883 4.50684ZM18.9878 6.75923C18.9878 5.51662 17.9805 4.50928 16.7379 4.50923L9.571 4.50893C9.20449 4.50891 8.85068 4.37471 8.57636 4.13167L8.15835 3.76134C7.60961 3.27518 6.90184 3.00678 6.16871 3.00684L3.25374 3.00706C2.01116 3.00715 1.00391 4.01448 1.00391 5.25706V14.7279C1.00391 15.9705 2.01127 16.9779 3.25391 16.9779H16.7378C17.9804 16.9779 18.9878 15.9705 18.9878 14.7279V6.75923ZM17.4878 14.7279V9.75901C17.4878 9.34482 17.152 9.00904 16.7378 9.00901L13.8229 9.00879C13.4563 9.00876 13.1024 9.14296 12.8281 9.38604L12.41 9.75637C11.8614 10.2425 11.1538 10.5108 10.4208 10.5109L3.25387 10.5112C2.83967 10.5112 2.50391 10.847 2.50391 11.2612V14.7279C2.50391 15.1421 2.83969 15.4779 3.25391 15.4779H16.7378C17.152 15.4779 17.4878 15.1421 17.4878 14.7279Z" fill="#576175"/>
</svg>
