<svg xmlns="http://www.w3.org/2000/svg" width="24" height="24" viewBox="0 0 24 24" fill="none">
  <path d="M19.416 4.57649C18.2177 3.37815 16.2748 3.37815 15.0764 4.57649L13.1367 6.51626C13.1282 6.52397 13.1199 6.5319 13.1118 6.54006C13.1036 6.54822 13.0957 6.55652 13.088 6.56496L6.45342 13.1995C4.94168 14.7112 4.17768 16.8152 4.3672 18.9447C4.40033 19.317 4.70005 19.6014 5.06134 19.6265C7.18621 19.8116 9.28447 19.0476 10.793 17.5391L17.4135 10.9186C17.4271 10.9068 17.4403 10.8945 17.4533 10.8816C17.4662 10.8686 17.4785 10.8554 17.4903 10.8418L19.416 8.91607C20.6143 7.71773 20.6143 5.77483 19.416 4.57649ZM16.9216 9.2892L14.7033 7.07094L16.1371 5.63715C16.7496 5.0246 17.7428 5.0246 18.3553 5.63715C18.9679 6.24971 18.9679 7.24285 18.3553 7.85541L16.9216 9.2892ZM13.6426 8.1316L15.8609 10.3499L9.73234 16.4784C8.69135 17.5194 7.29589 18.1129 5.84079 18.1517C5.87964 16.6966 6.47309 15.3011 7.51408 14.2602L13.6426 8.1316Z" fill="#16191D"/>
</svg>