<svg width="24" height="24" viewBox="0 0 24 24" fill="none" xmlns="http://www.w3.org/2000/svg">
<path d="M16.0205 4.11657C15.3371 3.43315 14.229 3.43315 13.5456 4.11657L9.09775 8.56441C9.05164 8.61052 8.96806 8.65142 8.85102 8.64978C7.90245 8.63645 6.92818 8.7932 5.97425 9.11212C4.71243 9.53396 4.58488 11.0528 5.38897 11.8569L8.23468 14.7026L3.8221 19.1152C3.52921 19.4081 3.52921 19.8829 3.8221 20.1758C4.115 20.4687 4.58987 20.4687 4.88276 20.1758L9.29534 15.7632L12.14 18.6079C12.945 19.4129 14.464 19.2835 14.8861 18.0223C15.2037 17.0733 15.3627 16.1019 15.3485 15.1561C15.3467 15.0372 15.3881 14.9528 15.4342 14.9067L19.885 10.4559C20.5684 9.77252 20.5684 8.66448 19.885 7.98107L16.0205 4.11657ZM14.6063 5.17723C14.7039 5.0796 14.8622 5.0796 14.9598 5.17723L18.8243 9.04173C18.9219 9.13936 18.9219 9.29765 18.8243 9.39528L14.3736 13.846C14.0038 14.2158 13.8416 14.7093 13.8487 15.1786C13.8601 15.9421 13.7318 16.7451 13.4636 17.5462C13.4535 17.5766 13.4416 17.5884 13.435 17.5939C13.4264 17.6011 13.4112 17.6099 13.3869 17.6144C13.3366 17.6236 13.264 17.6105 13.2007 17.5472L6.44963 10.7962C6.38636 10.7329 6.37341 10.6604 6.38252 10.6104C6.38692 10.5863 6.39563 10.5714 6.40265 10.563C6.40805 10.5565 6.41965 10.5448 6.44985 10.5347C7.2537 10.266 8.06029 10.1388 8.82995 10.1496C9.29878 10.1562 9.79021 9.99328 10.1584 9.62507L14.6063 5.17723Z" fill="#16191D"/>
</svg>
