<svg width="20" height="20" viewBox="0 0 20 20" fill="none" xmlns="http://www.w3.org/2000/svg">
<path fill-rule="evenodd" clip-rule="evenodd" d="M2.5 3.26172C2.5 2.01908 3.50736 1.01172 4.75 1.01172H15.25C16.4926 1.01172 17.5 2.01908 17.5 3.26172V17.5017C17.5 18.7605 16.043 19.4594 15.0612 18.6716L10.4697 14.9872C10.1955 14.7672 9.80518 14.7672 9.53094 14.9872L4.93872 18.6718C3.95692 19.4595 2.5 18.7606 2.5 17.5018V3.26172ZM4.75 2.51172C4.33579 2.51172 4 2.84751 4 3.26172V17.5018L8.59222 13.8172C9.41493 13.1571 10.5858 13.1572 11.4085 13.8173L16 17.5017V3.26172C16 2.84751 15.6642 2.51172 15.25 2.51172H4.75Z" fill="#576175"/>
</svg>
