<svg width="21" height="20" viewBox="0 0 21 20" fill="none" xmlns="http://www.w3.org/2000/svg">
<path d="M7.23778 14.3576C7.23778 14.7718 7.57356 15.1076 7.98778 15.1076H13.9878C14.402 15.1076 14.7378 14.7718 14.7378 14.3576C14.7378 13.9434 14.402 13.6076 13.9878 13.6076H7.98778C7.57356 13.6076 7.23778 13.9434 7.23778 14.3576Z" fill="#576175"/>
<path d="M7.98778 11.8361C7.57356 11.8361 7.23778 11.5003 7.23778 11.0861C7.23778 10.6719 7.57356 10.3361 7.98778 10.3361H10.9878C11.402 10.3361 11.7378 10.6719 11.7378 11.0861C11.7378 11.5003 11.402 11.8361 10.9878 11.8361H7.98778Z" fill="#576175"/>
<path fill-rule="evenodd" clip-rule="evenodd" d="M3.73794 3.32713C3.73796 2.07776 4.75585 1.06764 6.00518 1.07722L11.7587 1.1213C11.9485 1.12275 12.1307 1.19608 12.2685 1.32651L17.9409 6.6942C18.0896 6.83483 18.1743 7.03008 18.1754 7.23469L18.2292 16.6727C18.2363 17.9203 17.2269 18.9355 15.9792 18.9355H5.98779C4.74514 18.9355 3.73778 17.9282 3.73779 16.6855L3.73794 3.32713ZM5.99369 2.57717C5.57725 2.57398 5.23795 2.91069 5.23794 3.32714L5.23779 16.6855C5.23779 17.0997 5.57358 17.4355 5.98779 17.4355H15.9792C16.3951 17.4355 16.7316 17.0971 16.7292 16.6813L16.6798 7.99624L13.2354 8.02972C11.9754 8.04197 10.9509 7.01712 10.9637 5.75708L10.9954 2.61549L5.99369 2.57717ZM12.4856 3.59707L15.5608 6.50705L13.2208 6.52979C12.8008 6.53387 12.4593 6.19226 12.4636 5.77225L12.4856 3.59707Z" fill="#576175"/>
</svg>
