<svg xmlns="http://www.w3.org/2000/svg" width="24" height="24" viewBox="0 0 24 24" fill="none">
  <path fill-rule="evenodd" clip-rule="evenodd" d="M13.4758 7.77127L13.4978 5.59609L16.573 8.50607L14.2331 8.52881C13.813 8.5329 13.4716 8.19128 13.4758 7.77127ZM7.01739 3.07624C5.76806 3.06667 4.75016 4.07678 4.75015 5.32615L4.75 18.6845C4.74999 19.9272 5.75735 20.9345 7 20.9345H16.9914C18.2391 20.9345 19.2485 19.9194 19.2414 18.6717L19.1876 9.23372C19.1865 9.02911 19.1018 8.83386 18.9532 8.69322L13.2807 3.32554C13.1429 3.19511 12.9607 3.12178 12.7709 3.12032L7.01739 3.07624ZM8.25 13.0859C8.25 12.6717 8.58579 12.3359 9 12.3359H12C12.4142 12.3359 12.75 12.6717 12.75 13.0859C12.75 13.5002 12.4142 13.8359 12 13.8359H9C8.58579 13.8359 8.25 13.5002 8.25 13.0859ZM8.25 16.3574C8.25 15.9432 8.58579 15.6074 9 15.6074H15C15.4142 15.6074 15.75 15.9432 15.75 16.3574C15.75 16.7716 15.4142 17.1074 15 17.1074H9C8.58579 17.1074 8.25 16.7716 8.25 16.3574Z" fill="#16191D"/>
</svg>