<svg width="24" height="24" viewBox="0 0 24 24" fill="none" xmlns="http://www.w3.org/2000/svg">
<path d="M7.0059 4.57668C6.58945 4.57349 6.25016 4.9102 6.25015 5.32665L6.25 18.685C6.25 19.0992 6.58578 19.435 7 19.435H16.9914C17.4073 19.435 17.7438 19.0966 17.7414 18.6808L17.692 9.99576L14.2476 10.0292C12.9876 10.0415 11.9631 9.01663 11.9759 7.75659L12.0076 4.61501L7.0059 4.57668ZM13.4978 5.59658L13.4758 7.77176C13.4716 8.19177 13.813 8.53338 14.2331 8.5293L16.573 8.50656L13.4978 5.59658ZM4.75015 5.32664C4.75016 4.07727 5.76806 3.06716 7.01739 3.07673L12.7709 3.12081C12.9607 3.12226 13.1429 3.1956 13.2807 3.32603L18.9532 8.69371C19.1018 8.83434 19.1865 9.02959 19.1876 9.2342L19.2414 18.6722C19.2485 19.9199 18.2391 20.935 16.9914 20.935H7C5.75735 20.935 4.74999 19.9277 4.75 18.685L4.75015 5.32664Z" fill="#16191D"/>
<path d="M8.24998 16.3575C8.24998 16.7717 8.58577 17.1075 8.99998 17.1075H15C15.4142 17.1075 15.75 16.7717 15.75 16.3575C15.75 15.9433 15.4142 15.6075 15 15.6075H8.99998C8.58577 15.6075 8.24998 15.9433 8.24998 16.3575Z" fill="#16191D"/>
<path d="M8.24998 13.086C8.24998 13.5002 8.58577 13.836 8.99998 13.836H12C12.4142 13.836 12.75 13.5002 12.75 13.086C12.75 12.6718 12.4142 12.336 12 12.336H8.99998C8.58577 12.336 8.24998 12.6718 8.24998 13.086Z" fill="#16191D"/>
</svg>
