<svg width="24" height="24" viewBox="0 0 24 24" fill="none" xmlns="http://www.w3.org/2000/svg">
<path d="M7 3.0625C5.75736 3.0625 4.75 4.06986 4.75 5.3125V18.687C4.75 19.9296 5.75736 20.937 7 20.937H17C18.2426 20.937 19.25 19.9296 19.25 18.687V5.3125C19.25 4.06986 18.2426 3.0625 17 3.0625H7ZM8.71484 8.75C8.30063 8.75 7.96484 8.41421 7.96484 8C7.96484 7.58579 8.30063 7.25 8.71484 7.25H15.2871C15.7013 7.25 16.0371 7.58579 16.0371 8C16.0371 8.41421 15.7013 8.75 15.2871 8.75H8.71484ZM8.71484 12.75C8.30063 12.75 7.96484 12.4142 7.96484 12C7.96484 11.5858 8.30063 11.25 8.71484 11.25H15.2871C15.7013 11.25 16.0371 11.5858 16.0371 12C16.0371 12.4142 15.7013 12.75 15.2871 12.75H8.71484ZM7.96484 16C7.96484 15.5858 8.30063 15.25 8.71484 15.25H12.0867C12.5009 15.25 12.8367 15.5858 12.8367 16C12.8367 16.4142 12.5009 16.75 12.0867 16.75H8.71484C8.30063 16.75 7.96484 16.4142 7.96484 16Z" fill="#16191D"/>
</svg>
