<svg width="24" height="24" viewBox="0 0 24 24" fill="none" xmlns="http://www.w3.org/2000/svg">
<path fill-rule="evenodd" clip-rule="evenodd" d="M7.00593 4.57668C6.58949 4.57349 6.25019 4.9102 6.25018 5.32665L6.25003 18.685C6.25003 19.0992 6.58581 19.435 7.00003 19.435H16.9914C17.4073 19.435 17.7438 19.0966 17.7414 18.6808L17.692 9.99576L14.2477 10.0292C12.9876 10.0415 11.9632 9.01663 11.9759 7.75659L12.0077 4.61501L7.00593 4.57668ZM13.4978 5.59658L16.573 8.50656L14.2331 8.5293C13.8131 8.53338 13.4716 8.19177 13.4758 7.77176L13.4978 5.59658ZM4.75018 5.32664C4.7502 4.07727 5.76809 3.06716 7.01742 3.07673L12.771 3.12081C12.9607 3.12226 13.1429 3.1956 13.2807 3.32603L18.9532 8.69371C19.1018 8.83434 19.1865 9.02959 19.1877 9.2342L19.2414 18.6722C19.2485 19.9199 18.2391 20.935 16.9914 20.935H7.00003C5.75738 20.935 4.75002 19.9277 4.75003 18.685L4.75018 5.32664Z" fill="#16191D"/>
</svg>
