<svg width="24" height="24" viewBox="0 0 24 24" fill="none" xmlns="http://www.w3.org/2000/svg">
<path fill-rule="evenodd" clip-rule="evenodd" d="M3.67513 18.331C3.26079 17.9229 3.00391 17.3554 3.00391 16.7279V7.25706C3.00391 6.01448 4.01116 5.00715 5.25374 5.00706L8.16871 5.00684C8.90184 5.00678 9.60961 5.27518 10.1583 5.76134L10.5764 6.13167C10.8507 6.37471 11.2045 6.50891 11.571 6.50892L18.7379 6.50923C19.9805 6.50928 20.9878 7.51662 20.9878 8.75923V11.7117C20.9881 11.7274 20.9883 11.7432 20.9883 11.759V16.7284C20.9883 17.971 19.9809 18.9784 18.7383 18.9784H5.25439C4.63902 18.9784 4.08134 18.7313 3.67513 18.331ZM5.25385 6.50706L8.16883 6.50684C8.53539 6.50681 8.88927 6.64101 9.16365 6.88409L9.58165 7.25442C10.1303 7.7405 10.8379 8.00889 11.5709 8.00892L18.7378 8.00923C19.152 8.00924 19.4878 8.34502 19.4878 8.75923V9.63687C19.2534 9.55408 19.0012 9.50903 18.7385 9.50901L15.8235 9.50879C15.0904 9.50873 14.3826 9.77713 13.8338 10.2633L13.4158 10.6336C13.1415 10.8767 12.7877 11.0109 12.4212 11.0109L5.2543 11.0112C4.99117 11.0112 4.7386 11.0564 4.50391 11.1394V7.25706C4.50391 6.84287 4.83966 6.50709 5.25385 6.50706Z" fill="#16191D"/>
</svg>
