<svg width="24" height="24" viewBox="0 0 24 24" fill="none" xmlns="http://www.w3.org/2000/svg">
<path fill-rule="evenodd" clip-rule="evenodd" d="M19.3577 12.3619C19.5286 12.1857 19.5298 11.9059 19.3605 11.7282L15.1072 7.26482C15.021 7.17429 14.9014 7.12305 14.7763 7.12305L4.9669 7.12305C4.71443 7.12305 4.50977 7.32771 4.50977 7.58018L4.50977 16.4215C4.50977 16.6739 4.71443 16.8786 4.9669 16.8786H14.7827C14.9063 16.8786 15.0247 16.8285 15.1108 16.7398L19.3577 12.3619ZM20.4464 10.6934C21.1714 11.4543 21.1661 12.652 20.4343 13.4063L16.1874 17.7842C15.8188 18.1642 15.312 18.3786 14.7827 18.3786H4.9669C3.886 18.3786 3.00977 17.5024 3.00977 16.4215L3.00977 7.58018C3.00977 6.49929 3.886 5.62305 4.9669 5.62305L14.7763 5.62305C15.3117 5.62305 15.8238 5.84241 16.1931 6.23003L20.4464 10.6934Z" fill="#16191D"/>
</svg>
