<svg width="24" height="24" viewBox="0 0 24 24" fill="none" xmlns="http://www.w3.org/2000/svg">
<path d="M16.1378 4.00475C15.4544 3.32133 14.3464 3.32133 13.663 4.00475L9.2151 8.4526C9.16899 8.49871 9.08541 8.53961 8.96837 8.53796C8.0198 8.52464 7.04554 8.68138 6.09161 9.0003C4.82978 9.42215 4.70223 10.941 5.50633 11.7451L8.35146 14.5902L3.93842 19.0032C3.64553 19.2961 3.64553 19.771 3.93842 20.0639C4.23131 20.3568 4.70619 20.3568 4.99908 20.0639L9.41212 15.6509L12.2574 18.4961C13.0624 19.3011 14.5813 19.1717 15.0034 17.9105C15.321 16.9615 15.48 15.9901 15.4658 15.0442C15.4641 14.9254 15.5054 14.841 15.5516 14.7949L20.0023 10.3441C20.6857 9.66071 20.6857 8.55267 20.0023 7.86925L16.1378 4.00475Z" fill="#16191D"/>
</svg>
