<svg width="21" height="20" viewBox="0 0 21 20" fill="none" xmlns="http://www.w3.org/2000/svg">
<path fill-rule="evenodd" clip-rule="evenodd" d="M5.99369 2.5762C5.57725 2.573 5.23795 2.90971 5.23794 3.32617L5.23779 16.6845C5.23779 17.0988 5.57358 17.4345 5.98779 17.4345H15.9792C16.3951 17.4345 16.7316 17.0962 16.7292 16.6803L16.6798 7.99527L13.2354 8.02874C11.9754 8.04099 10.9509 7.01614 10.9637 5.7561L10.9954 2.61452L5.99369 2.5762ZM12.4856 3.59609L15.5608 6.50607L13.2208 6.52881C12.8008 6.5329 12.4593 6.19128 12.4636 5.77127L12.4856 3.59609ZM3.73794 3.32615C3.73796 2.07678 4.75585 1.06667 6.00518 1.07624L11.7587 1.12032C11.9485 1.12178 12.1307 1.19511 12.2685 1.32554L17.9409 6.69322C18.0896 6.83386 18.1743 7.02911 18.1754 7.23372L18.2292 16.6717C18.2363 17.9194 17.2269 18.9345 15.9792 18.9345H5.98779C4.74514 18.9345 3.73778 17.9272 3.73779 16.6845L3.73794 3.32615Z" fill="#576175"/>
</svg>
