<svg width="24" height="24" viewBox="0 0 24 24" fill="none" xmlns="http://www.w3.org/2000/svg">
<path fill-rule="evenodd" clip-rule="evenodd" d="M19.4173 4.57747C18.2189 3.37913 16.276 3.37912 15.0777 4.57747L9.66949 9.98565C9.56232 10.0909 9.45455 10.1977 9.34634 10.3059C9.23813 10.4141 9.13135 10.5218 9.02612 10.629L6.45464 13.2005C4.9429 14.7122 4.28361 17.3511 4.47314 19.4806C6.60264 19.6702 9.28248 19.0518 10.7942 17.5401L13.5077 14.8266C13.5676 14.7673 13.6277 14.7076 13.6878 14.6474C13.748 14.5872 13.8078 14.5271 13.867 14.4673L19.4173 8.91705C20.6156 7.7187 20.6156 5.77581 19.4173 4.57747ZM16.9224 9.2906L18.3566 7.85639C18.9691 7.24383 18.9691 6.25068 18.3566 5.63813C17.744 5.02557 16.7509 5.02557 16.1383 5.63813L14.7041 7.07234L16.9224 9.2906Z" fill="#16191D"/>
</svg>
