<svg width="20" height="20" viewBox="0 0 20 20" fill="none" xmlns="http://www.w3.org/2000/svg">
<path fill-rule="evenodd" clip-rule="evenodd" d="M17.4156 2.57649C16.2173 1.37815 14.2744 1.37815 13.0761 2.57649L11.1404 4.51216C11.1306 4.52098 11.121 4.53011 11.1115 4.53954C11.1021 4.54897 11.093 4.55859 11.0842 4.56839L4.45305 11.1995C2.94131 12.7112 2.17731 14.8152 2.36684 16.9447C2.39997 17.317 2.69968 17.6014 3.06098 17.6265C5.18584 17.8116 7.2841 17.0476 8.79263 15.5391L15.4161 8.91563C15.4287 8.90459 15.441 8.89306 15.453 8.88104C15.4651 8.86902 15.4766 8.85669 15.4876 8.84408L17.4156 6.91607C18.614 5.71773 18.614 3.77483 17.4156 2.57649ZM14.9215 7.28886L16.355 5.85541C16.9675 5.24285 16.9675 4.24971 16.355 3.63715C15.7424 3.0246 14.7493 3.0246 14.1367 3.63715L12.7033 5.0706L14.9215 7.28886ZM11.6426 6.13126L5.51371 12.2602C4.47273 13.3011 3.87928 14.6966 3.84042 16.1517C5.29552 16.1129 6.69099 15.5194 7.73197 14.4784L13.8609 8.34952L11.6426 6.13126Z" fill="#576175"/>
</svg>
