<svg width="24" height="24" viewBox="0 0 24 24" fill="none" xmlns="http://www.w3.org/2000/svg">
<path fill-rule="evenodd" clip-rule="evenodd" d="M4.75 5.3125C4.75 4.06986 5.75736 3.0625 7 3.0625H17C18.2426 3.0625 19.25 4.06986 19.25 5.3125V18.687C19.25 19.9296 18.2426 20.937 17 20.937H7C5.75736 20.937 4.75 19.9296 4.75 18.687V5.3125ZM7 4.5625C6.58579 4.5625 6.25 4.89829 6.25 5.3125V18.687C6.25 19.1012 6.58579 19.437 7 19.437H17C17.4142 19.437 17.75 19.1012 17.75 18.687V5.3125C17.75 4.89829 17.4142 4.5625 17 4.5625H7Z" fill="#16191D"/>
<path fill-rule="evenodd" clip-rule="evenodd" d="M7.96387 12C7.96387 11.5858 8.29965 11.25 8.71387 11.25H15.2861C15.7003 11.25 16.0361 11.5858 16.0361 12C16.0361 12.4142 15.7003 12.75 15.2861 12.75H8.71387C8.29965 12.75 7.96387 12.4142 7.96387 12Z" fill="#16191D"/>
<path fill-rule="evenodd" clip-rule="evenodd" d="M7.96387 8C7.96387 7.58579 8.29965 7.25 8.71387 7.25H15.2861C15.7003 7.25 16.0361 7.58579 16.0361 8C16.0361 8.41421 15.7003 8.75 15.2861 8.75H8.71387C8.29965 8.75 7.96387 8.41421 7.96387 8Z" fill="#16191D"/>
<path fill-rule="evenodd" clip-rule="evenodd" d="M7.96387 16C7.96387 15.5858 8.29965 15.25 8.71387 15.25H12.0857C12.4999 15.25 12.8357 15.5858 12.8357 16C12.8357 16.4142 12.4999 16.75 12.0857 16.75H8.71387C8.29965 16.75 7.96387 16.4142 7.96387 16Z" fill="#16191D"/>
</svg>
