<svg width="20" height="20" viewBox="0 0 20 20" fill="none" xmlns="http://www.w3.org/2000/svg">
<path fill-rule="evenodd" clip-rule="evenodd" d="M2.75 3.3125C2.75 2.06986 3.75736 1.0625 5 1.0625H15C16.2426 1.0625 17.25 2.06986 17.25 3.3125V16.687C17.25 17.9296 16.2426 18.937 15 18.937H5C3.75736 18.937 2.75 17.9296 2.75 16.687V3.3125ZM5 2.5625C4.58579 2.5625 4.25 2.89829 4.25 3.3125V16.687C4.25 17.1012 4.58579 17.437 5 17.437H15C15.4142 17.437 15.75 17.1012 15.75 16.687V3.3125C15.75 2.89829 15.4142 2.5625 15 2.5625H5ZM5.96387 6C5.96387 5.58579 6.29965 5.25 6.71387 5.25H13.2861C13.7003 5.25 14.0361 5.58579 14.0361 6C14.0361 6.41421 13.7003 6.75 13.2861 6.75H6.71387C6.29965 6.75 5.96387 6.41421 5.96387 6ZM5.96387 10C5.96387 9.58579 6.29965 9.25 6.71387 9.25H13.2861C13.7003 9.25 14.0361 9.58579 14.0361 10C14.0361 10.4142 13.7003 10.75 13.2861 10.75H6.71387C6.29965 10.75 5.96387 10.4142 5.96387 10ZM5.96387 14C5.96387 13.5858 6.29965 13.25 6.71387 13.25H10.0857C10.4999 13.25 10.8357 13.5858 10.8357 14C10.8357 14.4142 10.4999 14.75 10.0857 14.75H6.71387C6.29965 14.75 5.96387 14.4142 5.96387 14Z" fill="#576175"/>
</svg>
