<svg width="20" height="20" viewBox="0 0 20 20" fill="none" xmlns="http://www.w3.org/2000/svg">
<path fill-rule="evenodd" clip-rule="evenodd" d="M2.9669 5.12305C2.71443 5.12305 2.50977 5.32771 2.50977 5.58018L2.50977 14.4215C2.50977 14.6739 2.71443 14.8786 2.9669 14.8786H12.7827C12.9063 14.8786 13.0247 14.8285 13.1108 14.7398L17.3577 10.3619C17.5286 10.1857 17.5298 9.90594 17.3605 9.72823L13.1072 5.26482C13.021 5.17429 12.9014 5.12305 12.7763 5.12305L2.9669 5.12305ZM1.00977 5.58018C1.00977 4.49929 1.886 3.62305 2.9669 3.62305L12.7763 3.62305C13.3117 3.62305 13.8238 3.84241 14.1931 4.23003L18.4464 8.69344C19.1714 9.4543 19.1661 10.652 18.4343 11.4063L14.1874 15.7842C13.8188 16.1642 13.312 16.3786 12.7827 16.3786H2.9669C1.88601 16.3786 1.00977 15.5024 1.00977 14.4215L1.00977 5.58018Z" fill="#576175"/>
</svg>
