<svg width="20" height="20" viewBox="0 0 20 20" fill="none" xmlns="http://www.w3.org/2000/svg">
<path fill-rule="evenodd" clip-rule="evenodd" d="M6.16883 4.50684L3.25385 4.50706C2.83966 4.50709 2.50391 4.84287 2.50391 5.25706V14.7279C2.50391 15.1421 2.83969 15.4779 3.25391 15.4779H16.7378C17.152 15.4779 17.4878 15.1421 17.4878 14.7279V6.75923C17.4878 6.34502 17.152 6.00924 16.7378 6.00923L9.57093 6.00892C8.83793 6.00889 8.1303 5.7405 7.58165 5.25442L7.16365 4.88409C6.88927 4.64101 6.53539 4.50681 6.16883 4.50684ZM3.25374 3.00706L6.16871 3.00684C6.90184 3.00678 7.60961 3.27518 8.15835 3.76134L8.57636 4.13167C8.85068 4.37471 9.20449 4.50891 9.571 4.50893L16.7379 4.50923C17.9805 4.50928 18.9878 5.51662 18.9878 6.75923V14.7279C18.9878 15.9705 17.9804 16.9779 16.7378 16.9779H3.25391C2.01127 16.9779 1.00391 15.9705 1.00391 14.7279V5.25706C1.00391 4.01448 2.01116 3.00715 3.25374 3.00706Z" fill="#576175"/>
</svg>
