<svg width="24" height="24" viewBox="0 0 24 24" fill="none" xmlns="http://www.w3.org/2000/svg">
<path d="M9.75 11.2539C9.33579 11.2539 9 11.5897 9 12.0039C9 12.4181 9.33579 12.7539 9.75 12.7539H14.25C14.6642 12.7539 15 12.4181 15 12.0039C15 11.5897 14.6642 11.2539 14.25 11.2539H9.75Z" fill="#16191D"/>
<path fill-rule="evenodd" clip-rule="evenodd" d="M2.25 5.5C2.25 4.25736 3.25736 3.25 4.5 3.25H19.5C20.7426 3.25 21.75 4.25736 21.75 5.5V6.5C21.75 7.65814 20.875 8.61191 19.75 8.73627V18.5C19.75 19.7426 18.7426 20.75 17.5 20.75H6.5C5.25736 20.75 4.25 19.7426 4.25 18.5V8.73627C3.12501 8.61191 2.25 7.65814 2.25 6.5V5.5ZM5.75 8.75H18.25V18.5C18.25 18.9142 17.9142 19.25 17.5 19.25H6.5C6.08579 19.25 5.75 18.9142 5.75 18.5V8.75ZM4.5 4.75C4.08579 4.75 3.75 5.08579 3.75 5.5V6.5C3.75 6.91421 4.08579 7.25 4.5 7.25H19.5C19.9142 7.25 20.25 6.91421 20.25 6.5V5.5C20.25 5.08579 19.9142 4.75 19.5 4.75H4.5Z" fill="#16191D"/>
</svg>
