<svg width="24" height="24" viewBox="0 0 24 24" fill="none" xmlns="http://www.w3.org/2000/svg">
<path fill-rule="evenodd" clip-rule="evenodd" d="M4.5 5.26172C4.5 4.01908 5.50736 3.01172 6.75 3.01172H17.25C18.4926 3.01172 19.5 4.01908 19.5 5.26172V19.5017C19.5 20.7605 18.043 21.4594 17.0612 20.6716L12.4697 16.9872C12.1955 16.7672 11.8052 16.7672 11.5309 16.9872L6.93872 20.6718C5.95692 21.4595 4.5 20.7606 4.5 19.5018V5.26172ZM6.75 4.51172C6.33579 4.51172 6 4.84751 6 5.26172V19.5018L10.5922 15.8172C11.4149 15.1571 12.5858 15.1572 13.4085 15.8173L18 19.5017V5.26172C18 4.84751 17.6642 4.51172 17.25 4.51172H6.75Z" fill="#16191D"/>
</svg>
