<svg width="24" height="24" viewBox="0 0 24 24" fill="none" xmlns="http://www.w3.org/2000/svg">
<path fill-rule="evenodd" clip-rule="evenodd" d="M8.16883 6.50684L5.25385 6.50706C4.83966 6.50709 4.50391 6.84287 4.50391 7.25706V16.7279C4.50391 17.1421 4.83969 17.4779 5.25391 17.4779H18.7378C19.152 17.4779 19.4878 17.1421 19.4878 16.7279V8.75923C19.4878 8.34502 19.152 8.00924 18.7378 8.00923L11.5709 8.00892C10.8379 8.00889 10.1303 7.7405 9.58165 7.25442L9.16365 6.88409C8.88927 6.64101 8.53539 6.50681 8.16883 6.50684ZM5.25374 5.00706L8.16871 5.00684C8.90184 5.00678 9.60961 5.27518 10.1583 5.76134L10.5764 6.13167C10.8507 6.37471 11.2045 6.50891 11.571 6.50892L18.7379 6.50923C19.9805 6.50928 20.9878 7.51662 20.9878 8.75923V16.7279C20.9878 17.9705 19.9804 18.9779 18.7378 18.9779H5.25391C4.01126 18.9779 3.00391 17.9705 3.00391 16.7279V7.25706C3.00391 6.01448 4.01116 5.00715 5.25374 5.00706Z" fill="#16191D"/>
</svg>
