<svg width="24" height="24" viewBox="0 0 24 24" fill="none" xmlns="http://www.w3.org/2000/svg">
<path d="M20.25 14.8389C19.8216 14.9338 19.3507 15.1115 18.9385 15.4082C18.4271 15.7764 17.9749 16.3454 17.8135 17.25H19C19.3315 17.25 19.6494 17.1182 19.8838 16.8838C20.1182 16.6494 20.25 16.3315 20.25 16V14.8389ZM7.70215 6.75C7.51989 8.18296 6.81874 9.17473 5.93848 9.80859C5.23151 10.3176 4.43412 10.5774 3.75 10.6855V13.3135C4.43416 13.4217 5.23146 13.6824 5.93848 14.1914C6.81874 14.8253 7.51989 15.817 7.70215 17.25H16.2979C16.4801 15.817 17.1813 14.8253 18.0615 14.1914C18.7685 13.6824 19.5658 13.4217 20.25 13.3135V10.6855C19.5659 10.5774 18.7685 10.3176 18.0615 9.80859C17.1813 9.17473 16.4801 8.18296 16.2979 6.75H7.70215ZM13.2529 11.998C13.2527 11.3079 12.6932 10.748 12.0029 10.748C11.3128 10.7482 10.7531 11.3079 10.7529 11.998C10.7529 12.6883 11.3127 13.2479 12.0029 13.248C12.6933 13.248 13.2529 12.6884 13.2529 11.998ZM3.75 16C3.75 16.3315 3.88179 16.6494 4.11621 16.8838C4.35063 17.1182 4.66848 17.25 5 17.25H6.18652C6.02505 16.3454 5.57292 15.7764 5.06152 15.4082C4.64934 15.1115 4.17836 14.9338 3.75 14.8389V16ZM20.25 8C20.25 7.66848 20.1182 7.35063 19.8838 7.11621C19.6788 6.9112 19.41 6.78436 19.124 6.75586L19 6.75H17.8135C17.9749 7.65462 18.4271 8.22361 18.9385 8.5918C19.3506 8.88843 19.8217 9.06516 20.25 9.16016V8ZM14.7529 11.998C14.7529 13.5168 13.5217 14.748 12.0029 14.748C10.4842 14.7479 9.25293 13.5168 9.25293 11.998C9.25314 10.4795 10.4844 9.24815 12.0029 9.24805C13.5216 9.24805 14.7527 10.4794 14.7529 11.998ZM3.75 9.16016C4.1783 9.06516 4.64941 8.88843 5.06152 8.5918C5.57292 8.22361 6.02505 7.65462 6.18652 6.75H5C4.66848 6.75 4.35063 6.88179 4.11621 7.11621C3.88179 7.35063 3.75 7.66848 3.75 8V9.16016ZM21.75 16C21.75 16.7293 21.4601 17.4286 20.9443 17.9443C20.4286 18.4601 19.7293 18.75 19 18.75H5C4.27065 18.75 3.57139 18.4601 3.05566 17.9443C2.53994 17.4286 2.25 16.7293 2.25 16V8C2.25 7.27065 2.53994 6.57139 3.05566 6.05566C3.57139 5.53994 4.27065 5.25 5 5.25H19C19.7293 5.25 20.4286 5.53994 20.9443 6.05566C21.4601 6.57139 21.75 7.27065 21.75 8V16Z" fill="#16191D"/>
</svg>
