<svg width="24" height="24" viewBox="0 0 24 24" fill="none" xmlns="http://www.w3.org/2000/svg">
<path d="M3 10V8C3 7.46957 3.21071 6.96086 3.58579 6.58579C3.96086 6.21071 4.46957 6 5 6H7M3 10C4.333 10 7 9.2 7 6M3 10V14M7 6H17M3 14V16C3 16.5304 3.21071 17.0391 3.58579 17.4142C3.96086 17.7893 4.46957 18 5 18H7M3 14C4.333 14 7 14.8 7 18M21 10V8C21 7.46957 20.7893 6.96086 20.4142 6.58579C20.0391 6.21071 19.5304 6 19 6H17M21 10C19.667 10 17 9.2 17 6M21 10V14M21 14V16C21 16.5304 20.7893 17.0391 20.4142 17.4142C20.0391 17.7893 19.5304 18 19 18H17M21 14C19.667 14 17 14.8 17 18M17 18H7M14.0031 11.9984C14.0031 13.103 13.1077 13.9984 12.0031 13.9984C10.8986 13.9984 10.0031 13.103 10.0031 11.9984C10.0031 10.8939 10.8986 9.99844 12.0031 9.99844C13.1077 9.99844 14.0031 10.8939 14.0031 11.9984Z" stroke="#16191D" stroke-width="1.5" stroke-linecap="round" stroke-linejoin="round"/>
</svg>
