<svg width="24" height="24" viewBox="0 0 24 24" fill="none" xmlns="http://www.w3.org/2000/svg">
    <path fill-rule="evenodd" clip-rule="evenodd"
        d="M5 4.75C5 4.33579 5.33579 4 5.75 4H18.75C19.1642 4 19.5 4.33579 19.5 4.75C19.5 5.16421 19.1642 5.5 18.75 5.5H15.9594C16.1269 5.69749 16.2777 5.91184 16.4089 6.14142C16.616 6.50374 16.7631 6.87738 16.8554 7.25351H17.75C18.1642 7.25351 18.5 7.5893 18.5 8.00351C18.5 8.41772 18.1642 8.75351 17.75 8.75351H16.944C16.697 10.7664 15.0073 12.5 12.7189 12.5H9.73257C9.60413 12.5 9.50002 12.6041 9.50002 12.7326C9.50002 13.1851 9.67979 13.6191 9.9998 13.9392L15.2803 19.2197C15.5732 19.5126 15.5732 19.9874 15.2803 20.2803C14.9874 20.5732 14.5125 20.5732 14.2197 20.2803L8.93914 14.9998C8.33783 14.3985 8.00002 13.583 8.00002 12.7326C8.00002 11.7757 8.7757 11 9.73257 11H12.7189C14.1318 11 15.192 9.97864 15.425 8.75351L7.75 8.75351C7.33579 8.75351 7 8.41772 7 8.00351C7 7.5893 7.33579 7.25351 7.75 7.25351L15.2834 7.25351C15.2345 7.12946 15.1757 7.00657 15.1066 6.88563C14.6169 6.0288 13.7057 5.50002 12.7189 5.50002H8.75002C8.7484 5.50002 8.74679 5.50001 8.74518 5.5H5.75C5.33579 5.5 5 5.16421 5 4.75Z"
        fill="black" />
</svg>