<svg width="24" height="24" viewBox="0 0 24 24" fill="none" xmlns="http://www.w3.org/2000/svg">
<path d="M7.70215 6.75C7.51989 8.18296 6.81874 9.17473 5.93848 9.80859C5.23151 10.3176 4.43412 10.5774 3.75 10.6855V13.3135C4.43416 13.4217 5.23146 13.6824 5.93848 14.1914C6.81874 14.8253 7.51989 15.817 7.70215 17.25H16.2979C16.4801 15.817 17.1813 14.8253 18.0615 14.1914C18.7685 13.6824 19.5658 13.4217 20.25 13.3135V10.6855C19.5659 10.5774 18.7685 10.3176 18.0615 9.80859C17.1813 9.17473 16.4801 8.18296 16.2979 6.75H7.70215ZM14.7529 11.998C14.7529 13.5168 13.5217 14.748 12.0029 14.748C10.4842 14.7479 9.25293 13.5168 9.25293 11.998C9.25314 10.4795 10.4844 9.24815 12.0029 9.24805C13.5216 9.24805 14.7527 10.4794 14.7529 11.998ZM21.75 16C21.75 16.7293 21.4601 17.4286 20.9443 17.9443C20.4286 18.4601 19.7293 18.75 19 18.75H5C4.27065 18.75 3.57139 18.4601 3.05566 17.9443C2.53994 17.4286 2.25 16.7293 2.25 16V8C2.25 7.27065 2.53994 6.57139 3.05566 6.05566C3.57139 5.53994 4.27065 5.25 5 5.25H19C19.7293 5.25 20.4286 5.53994 20.9443 6.05566C21.4601 6.57139 21.75 7.27065 21.75 8V16Z" fill="#16191D"/>
</svg>
