<svg width="24" height="24" viewBox="0 0 24 24" fill="none" xmlns="http://www.w3.org/2000/svg">
<path fill-rule="evenodd" clip-rule="evenodd" d="M11.0762 4.00408C11.8415 3.14951 13.2574 3.69082 13.2574 4.83796V19.1638C13.2574 20.3104 11.8426 20.852 11.077 19.9985L7.05957 15.5203H4.01404C3.04754 15.5203 2.26404 14.7368 2.26404 13.7703V10.2258C2.26404 9.2593 3.04754 8.4758 4.01404 8.4758H6.96012C7.03121 8.4758 7.09894 8.44554 7.14636 8.39258L11.0762 4.00408ZM11.7574 5.49189L8.26381 9.39324C7.93184 9.76395 7.45775 9.9758 6.96012 9.9758H4.01404C3.87597 9.9758 3.76404 10.0877 3.76404 10.2258V13.7703C3.76404 13.9084 3.87597 14.0203 4.01404 14.0203H7.39431C7.60735 14.0203 7.81033 14.1109 7.95259 14.2695L11.7574 18.5108V5.49189Z" fill="#16191D"/>
<path d="M20.7662 9.41205C21.0591 9.70495 21.0591 10.1798 20.7662 10.4727L19.239 11.9999L20.7662 13.5272C21.0591 13.8201 21.0591 14.2949 20.7662 14.5878C20.4733 14.8807 19.9985 14.8807 19.7056 14.5878L18.1783 13.0606L16.6509 14.5881C16.358 14.881 15.8831 14.881 15.5902 14.5881C15.2973 14.2952 15.2973 13.8203 15.5902 13.5274L17.1177 11.9999L15.5902 10.4725C15.2973 10.1796 15.2973 9.70471 15.5902 9.41181C15.8831 9.11892 16.358 9.11892 16.6509 9.41181L18.1783 10.9393L19.7056 9.41205C19.9985 9.11916 20.4733 9.11916 20.7662 9.41205Z" fill="#16191D"/>
</svg>
