<svg width="21" height="20" viewBox="0 0 21 20" fill="none" xmlns="http://www.w3.org/2000/svg">
<g clip-path="url(#clip0_1505_60652)">
<path fill-rule="evenodd" clip-rule="evenodd" d="M9.07634 2.00457C9.8416 1.15 11.2575 1.69131 11.2575 2.83845V17.1643C11.2575 18.3109 9.84274 18.8525 9.07708 17.999L5.05969 13.5208H2.01416C1.04766 13.5208 0.26416 12.7373 0.26416 11.7708V8.22629C0.26416 7.25979 1.04766 6.47629 2.01416 6.47629H4.96024C5.03133 6.47629 5.09906 6.44603 5.14648 6.39307L9.07634 2.00457ZM9.75754 3.49238L6.26393 7.39373C5.93196 7.76444 5.45787 7.97629 4.96024 7.97629H2.01416C1.87609 7.97629 1.76416 8.08822 1.76416 8.22629V11.7708C1.76416 11.9089 1.87609 12.0208 2.01416 12.0208H5.39443C5.60747 12.0208 5.81045 12.1114 5.95271 12.27L9.75754 16.5113V3.49238ZM13.5903 7.41223C13.8832 7.11934 14.3581 7.11936 14.651 7.41226L16.1783 8.93971L17.7057 7.41237C17.9986 7.11948 18.4734 7.11948 18.7663 7.41237C19.0592 7.70526 19.0592 8.18014 18.7663 8.47303L17.239 10.0004L18.7663 11.5276C19.0592 11.8205 19.0592 12.2953 18.7663 12.5883C18.4735 12.8812 17.9986 12.8812 17.7057 12.5883L16.1783 11.061L14.651 12.5884C14.3581 12.8813 13.8832 12.8813 13.5903 12.5884C13.2974 12.2955 13.2974 11.8206 13.5903 11.5277L15.1177 10.0004L13.5903 8.47289C13.2974 8.17999 13.2974 7.70511 13.5903 7.41223Z" fill="#576175"/>
</g>
<defs>
<clipPath id="clip0_1505_60652">
<rect width="20" height="20" fill="white" transform="translate(0.125)"/>
</clipPath>
</defs>
</svg>
