<svg width="24" height="24" viewBox="0 0 24 24" fill="none" xmlns="http://www.w3.org/2000/svg">
<path d="M13.2668 4.83845C13.2668 3.69131 11.8509 3.14999 11.0856 4.00457L7.15576 8.39307C7.10834 8.44603 7.04061 8.47629 6.96952 8.47629H4.02344C3.05694 8.47629 2.27344 9.25979 2.27344 10.2263V13.7708C2.27344 14.7373 3.05694 15.5208 4.02344 15.5208H7.06897L11.0864 19.999C11.852 20.8525 13.2668 20.3109 13.2668 19.1643V4.83845Z" fill="#16191D"/>
<path d="M16.1296 7.57264C15.8401 7.27633 15.3708 7.27633 15.0814 7.57264C14.7919 7.86894 14.7919 8.34934 15.0814 8.64564C16.8971 10.5044 16.8909 13.5028 15.0814 15.3551C14.7919 15.6514 14.7919 16.1319 15.0814 16.4282C15.3708 16.7245 15.8401 16.7245 16.1296 16.4282C18.5166 13.9846 18.5255 10.0254 16.1296 7.57264Z" fill="#16191D"/>
</svg>
