<svg width="24" height="24" viewBox="0 0 24 24" fill="none" xmlns="http://www.w3.org/2000/svg">
<path fill-rule="evenodd" clip-rule="evenodd" d="M8.71921 6.27604C8.71921 4.4643 10.1879 2.99561 11.9996 2.99561C13.8114 2.99561 15.2801 4.4643 15.2801 6.27604V12.2079C15.2801 14.0196 13.8114 15.4883 11.9996 15.4883C10.1879 15.4883 8.71921 14.0196 8.71921 12.2079V6.27604ZM11.9996 4.49561C11.0163 4.49561 10.2192 5.29273 10.2192 6.27604V12.2079C10.2192 13.1912 11.0163 13.9883 11.9996 13.9883C12.9829 13.9883 13.7801 13.1912 13.7801 12.2079V6.27604C13.7801 5.29273 12.9829 4.49561 11.9996 4.49561Z" fill="#16191D"/>
<path d="M12.75 18.454C13.9378 18.3156 15.0693 17.8513 16.0163 17.1061C17.1496 16.2143 17.954 14.9709 18.3029 13.5716C18.4031 13.1697 18.1585 12.7627 17.7566 12.6625C17.3547 12.5623 16.9476 12.8068 16.8474 13.2087C16.5791 14.285 15.9603 15.2414 15.0887 15.9274C14.217 16.6133 13.1419 16.9898 12.0327 16.9975C10.9236 17.0053 9.84331 16.6438 8.96215 15.9701C8.08098 15.2964 7.44895 14.3487 7.16561 13.2763C7.0598 12.8759 6.64938 12.637 6.24891 12.7428C5.84844 12.8486 5.60957 13.259 5.71537 13.6595C6.08375 15.0538 6.90546 16.2859 8.05108 17.1618C8.98526 17.876 10.0915 18.3203 11.25 18.4545V20.2793C11.25 20.6935 11.5858 21.0293 12 21.0293C12.4142 21.0293 12.75 20.6935 12.75 20.2793V18.454Z" fill="#16191D"/>
</svg>
