<svg width="24" height="24" viewBox="0 0 24 24" fill="none" xmlns="http://www.w3.org/2000/svg">
<path fill-rule="evenodd" clip-rule="evenodd" d="M8.26884 2.99217C9.45176 2.50219 10.7196 2.25 12 2.25C13.2804 2.25 14.5482 2.50219 15.7312 2.99217C16.9141 3.48216 17.9889 4.20034 18.8943 5.10571C19.7997 6.01108 20.5178 7.08591 21.0078 8.26884C21.4352 9.30064 21.6817 10.3971 21.7377 11.51C21.7445 11.5507 21.748 11.5924 21.748 11.635V11.8048C21.7493 11.8699 21.75 11.9349 21.75 12H21.748V18.1297C21.748 19.7172 20.4611 21.0042 18.8736 21.0042C17.2861 21.0042 15.9992 19.7172 15.9992 18.1297V16.1818C15.9992 14.768 17.1453 13.6219 18.5591 13.6219H20.248V11.8205C20.2258 10.7982 20.0137 9.78848 19.622 8.84286C19.2074 7.84193 18.5997 6.93245 17.8336 6.16637C17.0675 5.40029 16.1581 4.79259 15.1571 4.37799C14.1562 3.96339 13.0834 3.75 12 3.75C10.9166 3.75 9.8438 3.96339 8.84286 4.37799C7.84193 4.7926 6.93245 5.40029 6.16637 6.16637C5.40029 6.93245 4.79259 7.84193 4.37799 8.84286C3.96339 9.8438 3.75 10.9166 3.75 12V13.6215H5.43893C6.85273 13.6215 7.99885 14.7676 7.99885 16.1814V18.1293C7.99885 19.7168 6.71193 21.0038 5.12442 21.0038C3.53692 21.0038 2.25 19.7168 2.25 18.1293V12C2.25 10.7196 2.50219 9.45176 2.99217 8.26884C3.48216 7.08591 4.20034 6.01108 5.10571 5.10571C6.01108 4.20034 7.08591 3.48216 8.26884 2.99217ZM3.75 15.1215V18.1293C3.75 18.8884 4.36535 19.5038 5.12442 19.5038C5.8835 19.5038 6.49885 18.8884 6.49885 18.1293V16.1814C6.49885 15.5961 6.02431 15.1215 5.43893 15.1215H3.75ZM20.248 18.1297V15.1219H18.5591C17.9737 15.1219 17.4992 15.5965 17.4992 16.1818V18.1297C17.4992 18.8888 18.1145 19.5042 18.8736 19.5042C19.6327 19.5042 20.248 18.8888 20.248 18.1297Z" fill="#16191D"/>
</svg>
