<svg width="24" height="24" viewBox="0 0 24 24" fill="none" xmlns="http://www.w3.org/2000/svg">
<path d="M11.9992 2.99609C10.1874 2.99609 8.71875 4.46479 8.71875 6.27652V12.2083C8.71875 14.0201 10.1874 15.4888 11.9992 15.4888C13.8109 15.4888 15.2796 14.0201 15.2796 12.2083V6.27652C15.2796 4.46479 13.8109 2.99609 11.9992 2.99609Z" fill="#16191D"/>
<path d="M6.25001 12.7424C6.65048 12.6366 7.0609 12.8755 7.16671 13.276C7.45005 14.3484 8.08208 15.2961 8.96324 15.9698C9.84441 16.6435 10.9247 17.0049 12.0338 16.9972C13.143 16.9894 14.2181 16.6129 15.0898 15.927C15.9614 15.2411 16.5802 14.2846 16.8485 13.2084C16.9487 12.8065 17.3558 12.5619 17.7577 12.6621C18.1596 12.7623 18.4042 13.1694 18.304 13.5713C17.9551 14.9705 17.1507 16.214 16.0174 17.1058C15.0699 17.8514 13.9376 18.3157 12.7491 18.4539V20.2792C12.7491 20.6934 12.4133 21.0292 11.9991 21.0292C11.5849 21.0292 11.2491 20.6934 11.2491 20.2792V18.4539C10.0914 18.3194 8.98583 17.8752 8.05218 17.1614C6.90656 16.2855 6.08485 15.0534 5.71647 13.6591C5.61066 13.2587 5.84953 12.8483 6.25001 12.7424Z" fill="#16191D"/>
</svg>
