<svg xmlns="http://www.w3.org/2000/svg" width="24" height="24" viewBox="0 0 24 24" fill="none">
  <path d="M18.5303 5.53033C18.8232 5.23744 18.8232 4.76256 18.5303 4.46967C18.2374 4.17678 17.7626 4.17678 17.4697 4.46967L15.47 6.46935C15.4702 6.46913 15.4698 6.46956 15.47 6.46935L4.47047 17.4689C4.46993 17.4694 4.4694 17.4699 4.46888 17.4705L2.46967 19.4697C2.17678 19.7626 2.17678 20.2374 2.46967 20.5303C2.76256 20.8232 3.23744 20.8232 3.53033 20.5303L5.31066 18.75H14.5C15.7426 18.75 16.75 17.7426 16.75 16.5V15.4966L19.1501 16.83C20.3166 17.4781 21.75 16.6346 21.75 15.3003V8.69929C21.75 7.36494 20.3166 6.5215 19.1501 7.16952L16.75 8.50293V7.31066L18.5303 5.53033ZM15.25 8.81066V9.76473C15.2498 9.77372 15.2498 9.78273 15.25 9.79174V14.2078C15.2498 14.2168 15.2498 14.2258 15.25 14.2348V16.5C15.25 16.9142 14.9142 17.25 14.5 17.25H6.81066L15.25 8.81066ZM16.75 13.7807V10.2189L19.8786 8.48076C20.0452 8.38818 20.25 8.50868 20.25 8.69929V15.3003C20.25 15.4909 20.0452 15.6114 19.8786 15.5188L16.75 13.7807Z" fill="#16191D"/>
  <path d="M4.5 6.75C4.08579 6.75 3.75 7.08579 3.75 7.5V15.8247C3.75 16.2389 3.41421 16.5747 3 16.5747C2.58579 16.5747 2.25 16.2389 2.25 15.8247V7.5C2.25 6.25736 3.25736 5.25 4.5 5.25H12.8034C13.2176 5.25 13.5534 5.58579 13.5534 6C13.5534 6.41421 13.2176 6.75 12.8034 6.75H4.5Z" fill="#16191D"/>
</svg>