<svg width="24" height="24" viewBox="0 0 24 24" fill="none" xmlns="http://www.w3.org/2000/svg">
<path fill-rule="evenodd" clip-rule="evenodd" d="M18.5303 4.46967C18.8232 4.76256 18.8232 5.23744 18.5303 5.53033L16.75 7.31066V8.50341L19.1501 7.17001C20.3166 6.52199 21.75 7.36543 21.75 8.69978V15.3008C21.75 16.6351 20.3166 17.4785 19.1501 16.8305L16.75 15.4971V16.5C16.75 17.7426 15.7426 18.75 14.5 18.75H5.31066L3.53033 20.5303C3.23744 20.8232 2.76256 20.8232 2.46967 20.5303C2.17678 20.2374 2.17678 19.7626 2.46967 19.4697L4.4689 17.4704L4.46967 17.4697L15.4697 6.46967L15.4698 6.46956L17.4697 4.46967C17.7626 4.17678 18.2374 4.17678 18.5303 4.46967ZM2.25 7.5C2.25 6.25736 3.25736 5.25 4.5 5.25H12.2008C13.0912 5.25 13.5376 6.32606 12.9087 6.95634L3.95787 15.9265C3.32822 16.5576 2.25 16.1116 2.25 15.2202V7.5Z" fill="#16191D"/>
</svg>
