<svg width="21" height="20" viewBox="0 0 21 20" fill="none" xmlns="http://www.w3.org/2000/svg">
<g clip-path="url(#clip0_1505_60656)">
<path fill-rule="evenodd" clip-rule="evenodd" d="M10 1.75C5.44365 1.75 1.75 5.44365 1.75 10C1.75 14.5563 5.44365 18.25 10 18.25C14.5563 18.25 18.25 14.5563 18.25 10C18.25 5.44365 14.5563 1.75 10 1.75ZM0.25 10C0.25 4.61522 4.61522 0.25 10 0.25C15.3848 0.25 19.75 4.61522 19.75 10C19.75 15.3848 15.3848 19.75 10 19.75C4.61522 19.75 0.25 15.3848 0.25 10ZM6.87497 6.96891C6.87497 5.81421 8.12497 5.09252 9.12497 5.66987L14.375 8.70096C15.375 9.27831 15.375 10.7217 14.375 11.299L9.12497 14.3301C8.12497 14.9075 6.87497 14.1858 6.87497 13.0311L6.87497 6.96891ZM13.625 10L8.37497 6.96891V13.0311L13.625 10Z" fill="#576175"/>
</g>
<defs>
<clipPath id="clip0_1505_60656">
<rect width="20" height="20" fill="white" transform="translate(0.125)"/>
</clipPath>
</defs>
</svg>
