<svg width="24" height="24" viewBox="0 0 24 24" fill="none" xmlns="http://www.w3.org/2000/svg">
<path fill-rule="evenodd" clip-rule="evenodd" d="M13.259 4.83845C13.259 3.69131 11.8431 3.14999 11.0778 4.00457L7.14795 8.39307C7.10052 8.44603 7.0328 8.47629 6.96171 8.47629H4.01562C3.04913 8.47629 2.26562 9.25979 2.26562 10.2263V13.7708C2.26562 14.7373 3.04913 15.5208 4.01562 15.5208H7.06115L11.0785 19.999C11.8442 20.8525 13.259 20.3109 13.259 19.1643V4.83845ZM20.7629 14.5881C20.47 14.881 19.9951 14.881 19.7022 14.5881L18.1749 13.0608L16.6475 14.5882C16.3546 14.8811 15.8798 14.8811 15.5869 14.5882C15.294 14.2953 15.294 13.8204 15.5869 13.5275L17.1143 12.0001L15.5869 10.4727C15.294 10.1798 15.294 9.70495 15.5869 9.41205C15.8798 9.11916 16.3546 9.11916 16.6475 9.41205L18.1749 10.9395L19.7022 9.41218C19.9951 9.11929 20.47 9.11929 20.7629 9.41218C21.0558 9.70507 21.0558 10.1799 20.7629 10.4728L19.2356 12.0001L20.7629 13.5274C21.0558 13.8203 21.0558 14.2952 20.7629 14.5881Z" fill="#16191D"/>
</svg>
