<svg width="24" height="24" viewBox="0 0 24 24" fill="none" xmlns="http://www.w3.org/2000/svg">
<path d="M12.0006 8.48888C12.7408 8.48912 13.6273 8.9166 14.3555 9.64478C15.0838 10.3731 15.5114 11.2604 15.5114 12.0007C15.5111 12.7409 15.0837 13.6275 14.3555 14.3557C13.6273 15.0838 12.7408 15.5113 12.0006 15.5115C11.2603 15.5115 10.373 15.0839 9.64466 14.3557C8.91657 13.6275 8.4891 12.7409 8.48877 12.0007C8.48877 11.2603 8.91631 10.3732 9.64466 9.64478C10.3731 8.91635 11.2602 8.48888 12.0006 8.48888Z" fill="black"/>
<path d="M11.9996 3.62549C14.0335 3.62549 16.1427 4.7912 17.9048 6.10707C19.698 7.44627 21.2792 9.05501 22.2799 10.1541C23.2396 11.2087 23.2397 12.7908 22.2799 13.8453C21.2793 14.9444 19.6979 16.5523 17.9048 17.8914C16.1427 19.2073 14.0335 20.373 11.9996 20.373C9.96575 20.3729 7.85648 19.2073 6.09448 17.8914C4.30133 16.5522 2.71993 14.9444 1.71934 13.8453C0.759758 12.7909 0.759887 11.2087 1.71934 10.1541C2.71996 9.05505 4.30126 7.44631 6.09448 6.10707C7.85646 4.79121 9.9658 3.62563 11.9996 3.62549ZM12.0006 6.86775C10.695 6.86775 9.42039 7.57836 8.49932 8.49943C7.57831 9.4205 6.86763 10.6952 6.86763 12.0007C6.86795 13.306 7.57845 14.5811 8.49932 15.502C9.42033 16.4227 10.6954 17.1327 12.0006 17.1327C13.3059 17.1325 14.5809 16.4228 15.5018 15.502C16.4227 14.5811 17.1322 13.306 17.1326 12.0007C17.1326 10.6955 16.4226 9.42045 15.5018 8.49943C14.5809 7.57851 13.3059 6.86797 12.0006 6.86775Z" fill="black"/>
</svg>
