<svg width="24" height="24" viewBox="0 0 24 24" fill="none" xmlns="http://www.w3.org/2000/svg">
<path d="M12 3.62598C14.0339 3.62598 16.143 4.7916 17.9051 6.10754C19.6984 7.4468 21.2795 9.05545 22.2802 10.1546C23.2399 11.2092 23.24 12.7912 22.2802 13.8457C21.2796 14.9448 19.6983 16.5526 17.9051 17.8918C16.143 19.2078 14.034 20.3734 12 20.3734C9.96604 20.3734 7.85701 19.2078 6.09491 17.8918C4.30167 16.5526 2.72043 14.9448 1.7198 13.8457C0.760001 12.7912 0.76013 11.2092 1.7198 10.1546C2.72046 9.05545 4.30161 7.4468 6.09491 6.10754C7.85698 4.7916 9.96608 3.62598 12 3.62598ZM12 5.2471C10.5189 5.2471 8.77189 6.13139 7.0647 7.40635C5.38874 8.65799 3.88698 10.1818 2.91886 11.2452C2.52169 11.6815 2.52169 12.3188 2.91886 12.7551C3.88699 13.8185 5.38885 15.3424 7.0647 16.594C8.77183 17.8689 10.5189 18.7532 12 18.7532C13.4811 18.7532 15.2282 17.8689 16.9353 16.594C18.6112 15.3424 20.113 13.8185 21.0811 12.7551C21.4783 12.3188 21.4783 11.6815 21.0811 11.2452C20.113 10.1818 18.6113 8.65799 16.9353 7.40635C15.2281 6.13139 13.4811 5.2471 12 5.2471Z" fill="black"/>
<path d="M15.5112 12.0004C15.5112 11.2599 15.0838 10.3729 14.3553 9.64445C13.627 8.91621 12.7407 8.48871 12.0004 8.48857C11.26 8.48857 10.3729 8.91603 9.64449 9.64445C8.91606 10.3729 8.4886 11.2599 8.4886 12.0004C8.48875 12.7407 8.91624 13.627 9.64449 14.3553C10.3729 15.0837 11.26 15.5112 12.0004 15.5112C12.7407 15.511 13.627 15.0836 14.3553 14.3553C15.0836 13.627 15.5111 12.7407 15.5112 12.0004ZM17.1323 12.0004C17.1322 13.3058 16.4226 14.5806 15.5016 15.5016C14.5806 16.4226 13.3058 17.1322 12.0004 17.1323C10.695 17.1323 9.42018 16.4225 8.49915 15.5016C7.57818 14.5806 6.86762 13.3058 6.86748 12.0004C6.86748 10.6948 7.57809 9.42018 8.49915 8.49912C9.42021 7.57805 10.6948 6.86745 12.0004 6.86745C13.3058 6.86759 14.5806 7.57814 15.5016 8.49912C16.4225 9.42015 17.1323 10.695 17.1323 12.0004Z" fill="black"/>
</svg>
