<svg width="24" height="24" viewBox="0 0 24 24" fill="none" xmlns="http://www.w3.org/2000/svg">
<path d="M19.8066 4.06046C20.0962 3.78215 20.5657 3.78224 20.8554 4.06046C21.145 4.33882 21.145 4.79001 20.8554 5.06837L18.9867 6.8633C20.3313 7.94707 21.4956 9.09676 22.2943 9.93993C23.2353 10.9332 23.2353 12.4224 22.2943 13.4156C21.2884 14.4775 19.7003 16.0301 17.9002 17.322C16.1288 18.5933 14.0218 19.7081 11.9995 19.7081C10.4044 19.708 8.7638 19.0138 7.2848 18.109L5.1225 20.1889C4.83297 20.4671 4.36338 20.4669 4.07371 20.1889C3.78406 19.9105 3.78406 19.4593 4.07371 19.181L19.8066 4.06046ZM15.6095 11.6782C15.6095 11.2912 15.4875 10.8662 15.2618 10.443L10.7141 14.8133C11.1545 15.0302 11.5968 15.1474 11.9995 15.1475C12.7708 15.1475 13.6814 14.7201 14.4236 14.0068C15.1656 13.2937 15.6094 12.4194 15.6095 11.6782ZM11.9995 3.64746C13.2919 3.64746 14.6063 4.10246 15.8248 4.73983C16.1844 4.92806 16.317 5.36031 16.1213 5.70597C15.9256 6.0516 15.4757 6.1797 15.116 5.99182C14.0074 5.41195 12.9452 5.07301 11.9995 5.07301C10.4832 5.07319 8.70843 5.94178 6.98735 7.177C5.29482 8.39173 3.77898 9.86915 2.80279 10.8996C2.37717 11.3489 2.37717 12.0067 2.80279 12.456C3.46408 13.154 4.377 14.0625 5.42768 14.9553C5.73421 15.2161 5.76264 15.6666 5.49142 15.9614C5.22004 16.256 4.75132 16.2833 4.44455 16.0227C3.34261 15.0863 2.39123 14.1393 1.70571 13.4156C0.764848 12.4224 0.764801 10.9331 1.70571 9.93993C2.71167 8.87807 4.29988 7.32635 6.09983 6.03452C7.87117 4.76326 9.97733 3.64763 11.9995 3.64746ZM6.90719 11.6782C6.90719 10.4399 7.60922 9.22351 8.52771 8.34083C9.44607 7.45832 10.7112 6.78365 11.9995 6.78349C12.4453 6.78349 12.8863 6.8651 13.3052 7.00344C13.6926 7.13141 13.899 7.53699 13.7659 7.90926C13.6327 8.28147 13.2106 8.47983 12.8233 8.35196C12.536 8.25704 12.2581 8.20904 11.9995 8.20904C11.2284 8.20921 10.3185 8.63572 9.5765 9.34874C8.83432 10.062 8.39057 10.937 8.39057 11.6782C8.39059 11.9266 8.43965 12.193 8.53833 12.469C8.67144 12.8411 8.46575 13.2467 8.07864 13.3748C7.69141 13.5027 7.2694 13.305 7.13607 12.933C6.99208 12.5305 6.90722 12.1067 6.90719 11.6782ZM17.0929 11.6782C17.0928 12.9165 16.3908 14.133 15.4723 15.0157C14.5539 15.8982 13.288 16.573 11.9995 16.573C11.1666 16.5729 10.3472 16.2875 9.62865 15.8565L8.3616 17.0742C9.63919 17.8176 10.8914 18.2824 11.9995 18.2826C13.5159 18.2826 15.2915 17.4147 17.0127 16.1795C18.7054 14.9647 20.2211 13.4864 21.1973 12.456C21.6229 12.0067 21.6229 11.3489 21.1973 10.8996C20.4031 10.0612 19.2501 8.92475 17.934 7.87492L16.3473 9.39978C16.7958 10.0904 17.0929 10.8777 17.0929 11.6782Z" fill="black"/>
</svg>
