<svg width="24" height="24" viewBox="0 0 24 24" fill="none" xmlns="http://www.w3.org/2000/svg">
<path fill-rule="evenodd" clip-rule="evenodd" d="M20.3091 4.1983C20.602 3.90541 20.602 3.43053 20.3091 3.13764C20.0162 2.84475 19.5413 2.84475 19.2484 3.13764L3.68842 18.6976C3.39553 18.9905 3.39553 19.4654 3.68842 19.7583C3.98131 20.0512 4.45619 20.0512 4.74908 19.7583L7.18616 17.3212C7.45351 17.6178 7.74741 17.8841 8.05765 18.1246L8.05763 18.1246L8.06237 18.1282C8.99276 18.8375 10.093 19.2751 11.2461 19.4138V21.2422C11.2461 21.6564 11.5819 21.9922 11.9961 21.9922C12.4103 21.9922 12.7461 21.6564 12.7461 21.2422V19.4192C13.9344 19.2825 15.0728 18.8201 16.022 18.0703C17.1525 17.1772 17.9546 15.934 18.3047 14.5336C18.4051 14.1318 18.1608 13.7246 17.759 13.6241C17.3571 13.5237 16.9499 13.768 16.8495 14.1698C16.5796 15.2495 15.9617 16.2063 15.0922 16.8932C14.2254 17.5779 13.1486 17.9524 12.0441 17.9617C10.9263 17.9611 9.84901 17.6032 8.97414 16.9371C8.70406 16.7276 8.46079 16.5024 8.24873 16.2587L9.37557 15.1318L9.39263 15.156L9.40177 15.1679C9.99605 15.9431 10.9314 16.4516 11.997 16.4516C13.8112 16.4516 15.277 14.9858 15.277 13.1716V9.26402C15.2791 9.25106 15.2809 9.23806 15.2823 9.22503L20.3091 4.1983ZM8.71484 7.24191C8.71484 5.4277 10.1806 3.96191 11.9948 3.96191C12.8456 3.96191 13.6231 4.28844 14.2092 4.81851C14.6571 5.22362 14.6032 5.87021 14.2442 6.23655L10.4291 10.1296C9.80207 10.7693 8.71484 10.3254 8.71484 9.42963V7.24191Z" fill="#16191D"/>
</svg>
