<svg width="24" height="24" viewBox="0 0 24 24" fill="none" xmlns="http://www.w3.org/2000/svg">
<path fill-rule="evenodd" clip-rule="evenodd" d="M13.2651 4.83796C13.2651 3.69082 11.8492 3.14951 11.0839 4.00408L7.15405 8.39258C7.10663 8.44554 7.0389 8.4758 6.96781 8.4758H4.02173C3.05523 8.4758 2.27173 9.2593 2.27173 10.2258V13.7703C2.27173 14.7368 3.05523 15.5203 4.02173 15.5203H7.06726L11.0846 19.9985C11.8503 20.852 13.2651 20.3104 13.2651 19.1638V4.83796ZM8.2715 9.39324L11.7651 5.49189V18.5108L7.96028 14.2695C7.81802 14.1109 7.61504 14.0203 7.402 14.0203H4.02173C3.88366 14.0203 3.77173 13.9084 3.77173 13.7703V10.2258C3.77173 10.0877 3.88366 9.9758 4.02173 9.9758H6.96781C7.46544 9.9758 7.93953 9.76395 8.2715 9.39324Z" fill="#16191D"/>
<path d="M16.1315 7.57264C15.8421 7.27633 15.3728 7.27633 15.0833 7.57264C14.7939 7.86894 14.7939 8.34934 15.0833 8.64564C16.8991 10.5044 16.8928 13.5028 15.0833 15.3551C14.7939 15.6514 14.7939 16.1319 15.0833 16.4282C15.3728 16.7245 15.8421 16.7245 16.1315 16.4282C18.5185 13.9846 18.5275 10.0254 16.1315 7.57264Z" fill="#16191D"/>
</svg>
