<svg width="21" height="20" viewBox="0 0 21 20" fill="none" xmlns="http://www.w3.org/2000/svg">
<g clip-path="url(#clip0_1505_60648)">
<path fill-rule="evenodd" clip-rule="evenodd" d="M9.08415 2.00457C9.84941 1.15 11.2654 1.69131 11.2654 2.83845V17.1643C11.2654 18.3109 9.85055 18.8525 9.08489 17.999L5.0675 13.5208H2.02197C1.05547 13.5208 0.271973 12.7373 0.271973 11.7708V8.22629C0.271973 7.25979 1.05547 6.47629 2.02197 6.47629H4.96806C5.03914 6.47629 5.10687 6.44603 5.1543 6.39307L9.08415 2.00457ZM9.76535 3.49238L6.27174 7.39373C5.93977 7.76444 5.46568 7.97629 4.96806 7.97629H2.02197C1.8839 7.97629 1.77197 8.08822 1.77197 8.22629V11.7708C1.77197 11.9089 1.8839 12.0208 2.02197 12.0208H5.40225C5.61528 12.0208 5.81826 12.1114 5.96052 12.27L9.76535 16.5113V3.49238ZM15.2308 3.33117C15.5271 3.04173 16.0019 3.04729 16.2914 3.34359C19.8892 7.0267 19.8826 12.9808 16.2914 16.6571C16.0019 16.9534 15.5271 16.959 15.2308 16.6695C14.9345 16.3801 14.9289 15.9052 15.2184 15.6089C18.2409 12.5148 18.2462 7.49138 15.2184 4.39176C14.9289 4.09545 14.9345 3.62061 15.2308 3.33117ZM13.0835 5.57319C13.3798 5.28375 13.8547 5.28931 14.1441 5.58561C16.5353 8.03345 16.5264 11.9776 14.1441 14.4163C13.8547 14.7126 13.3798 14.7181 13.0835 14.4287C12.7872 14.1393 12.7817 13.6644 13.0711 13.3681C14.8853 11.5109 14.8916 8.49745 13.0711 6.63378C12.7817 6.33747 12.7872 5.86263 13.0835 5.57319Z" fill="#576175"/>
</g>
<defs>
<clipPath id="clip0_1505_60648">
<rect width="20" height="20" fill="white" transform="translate(0.125)"/>
</clipPath>
</defs>
</svg>
