<svg width="24" height="24" viewBox="0 0 24 24" fill="none" xmlns="http://www.w3.org/2000/svg">
<path d="M8.27274 2.74608C9.45567 2.2561 10.7235 2.00391 12.0039 2.00391C13.2843 2.00391 14.5521 2.2561 15.7351 2.74608C16.918 3.23606 17.9928 3.95424 18.8982 4.85962C19.8036 5.76499 20.5217 6.83982 21.0117 8.02274C21.4839 9.16264 21.7352 10.3814 21.7529 11.6143H21.7578V15.6125C21.7578 16.8257 20.9727 17.8555 19.8828 18.2216V18.4691C19.8828 20.3996 18.3178 21.9646 16.3873 21.9646H10.8686C10.4544 21.9646 10.1186 21.6288 10.1186 21.2146C10.1186 20.8003 10.4544 20.4646 10.8686 20.4646H16.3873C17.4894 20.4646 18.3828 19.5712 18.3828 18.4691V18.2932C17.1634 18.0108 16.2545 16.9178 16.2545 15.6125V14.2341C16.2545 12.9903 17.2629 11.9819 18.5068 11.9819H20.2578V11.7539H20.2539C20.2539 10.6705 20.0405 9.5977 19.6259 8.59677C19.2113 7.59583 18.6036 6.68636 17.8375 5.92028C17.0715 5.15419 16.162 4.5465 15.161 4.1319C14.1601 3.7173 13.0873 3.50391 12.0039 3.50391C10.9205 3.50391 9.8477 3.7173 8.84677 4.1319C7.84583 4.5465 6.93636 5.15419 6.17027 5.92028C5.40419 6.68636 4.7965 7.59583 4.3819 8.59677C3.9673 9.5977 3.75391 10.6705 3.75391 11.7539V11.9821H5.50495C6.74882 11.9821 7.75717 12.9905 7.75717 14.2343V15.6127C7.75717 17.1324 6.52522 18.3643 5.00554 18.3643C3.48586 18.3643 2.25391 17.1324 2.25391 15.6127V11.6145C2.27154 10.3815 2.52389 9.16271 2.99608 8.02274C3.48606 6.83982 4.20424 5.76499 5.10961 4.85962C6.01499 3.95424 7.08982 3.23606 8.27274 2.74608Z" fill="#16191D"/>
</svg>
