<svg width="24" height="24" viewBox="0 0 24 24" fill="none" xmlns="http://www.w3.org/2000/svg">
<path fill-rule="evenodd" clip-rule="evenodd" d="M11.0839 4.00408C11.8492 3.14951 13.2651 3.69082 13.2651 4.83796V19.1638C13.2651 20.3104 11.8503 20.852 11.0846 19.9985L7.06726 15.5203H4.02173C3.05523 15.5203 2.27173 14.7368 2.27173 13.7703V10.2258C2.27173 9.2593 3.05523 8.4758 4.02173 8.4758H6.96781C7.0389 8.4758 7.10663 8.44554 7.15405 8.39258L11.0839 4.00408ZM11.7651 5.49189L8.2715 9.39324C7.93953 9.76395 7.46544 9.9758 6.96781 9.9758H4.02173C3.88366 9.9758 3.77173 10.0877 3.77173 10.2258V13.7703C3.77173 13.9084 3.88366 14.0203 4.02173 14.0203H7.402C7.61504 14.0203 7.81802 14.1109 7.96028 14.2695L11.7651 18.5108V5.49189Z" fill="#16191D"/>
<path d="M15.0833 7.57264C15.3728 7.27633 15.8421 7.27633 16.1315 7.57264C18.5275 10.0254 18.5185 13.9846 16.1315 16.4282C15.8421 16.7245 15.3728 16.7245 15.0833 16.4282C14.7939 16.1319 14.7939 15.6514 15.0833 15.3551C16.8928 13.5028 16.8991 10.5044 15.0833 8.64564C14.7939 8.34934 14.7939 7.86894 15.0833 7.57264Z" fill="#16191D"/>
<path d="M18.2787 5.33094C17.9893 5.03463 17.52 5.03463 17.2306 5.33094C16.9411 5.62724 16.9411 6.10764 17.2306 6.40394C20.2536 9.49866 20.2483 14.507 17.2306 17.5963C16.9411 17.8926 16.9411 18.373 17.2306 18.6693C17.52 18.9656 17.9893 18.9656 18.2787 18.6693C21.8747 14.9881 21.8814 9.01895 18.2787 5.33094Z" fill="#16191D"/>
</svg>
