<svg width="20" height="20" viewBox="0 0 20 20" fill="none" xmlns="http://www.w3.org/2000/svg">
<path fill-rule="evenodd" clip-rule="evenodd" d="M18.3105 1.13862C18.6034 1.43151 18.6034 1.90638 18.3105 2.19928L13.2829 7.22687C13.2815 7.23956 13.2798 7.25221 13.2777 7.26483V11.1724C13.2777 12.9866 11.8119 14.4524 9.99769 14.4524C8.93212 14.4524 7.99677 13.9439 7.40249 13.1687L7.39335 13.1568L7.37667 13.1332L6.24989 14.2599C6.46182 14.5034 6.70489 14.7284 6.97474 14.9377C7.84959 15.6039 8.92687 15.9617 10.0447 15.9624C11.1491 15.953 12.226 15.5786 13.0928 14.8939C13.9623 14.2069 14.5802 13.2501 14.8501 12.1705C14.9505 11.7686 15.3577 11.5243 15.7596 11.6248C16.1614 11.7252 16.4057 12.1324 16.3053 12.5343C15.9552 13.9347 15.1531 15.1778 14.0226 16.0709C13.0737 16.8205 11.9356 17.2829 10.7477 17.4197V19.243C10.7477 19.6572 10.4119 19.993 9.99768 19.993C9.58347 19.993 9.24768 19.6572 9.24768 19.243V17.4146C8.09419 17.276 6.99362 16.8383 6.06297 16.1288L6.05823 16.1252C5.74822 15.8849 5.45453 15.6189 5.18733 15.3225L2.75054 17.7593C2.45765 18.0522 1.98278 18.0522 1.68988 17.7593C1.39699 17.4664 1.39699 16.9915 1.68988 16.6986L17.2499 1.13862C17.5428 0.845722 18.0177 0.845722 18.3105 1.13862ZM8.54482 12.1868L8.6013 12.267C8.92726 12.6856 9.42818 12.9524 9.99769 12.9524C10.9835 12.9524 11.7777 12.1582 11.7777 11.1724V8.96048L8.54482 12.1868ZM9.99769 3.46273C9.0119 3.46273 8.21769 4.25694 8.21769 5.24273V8.04273C8.21769 8.45694 7.8819 8.79273 7.46769 8.79273C7.05347 8.79273 6.71769 8.45694 6.71769 8.04273V5.24273C6.71769 3.42851 8.18347 1.96273 9.99769 1.96273C10.9586 1.96273 11.8251 2.37897 12.4292 3.03446C12.7099 3.33906 12.6905 3.81354 12.3859 4.09424C12.0814 4.37495 11.6069 4.35558 11.3262 4.05099C10.9903 3.68648 10.5167 3.46273 9.99769 3.46273Z" fill="#576175"/>
</svg>
