<svg width="24" height="24" viewBox="0 0 24 24" fill="none" xmlns="http://www.w3.org/2000/svg">
<path d="M11.0856 4.00457C11.8509 3.14999 13.2668 3.69131 13.2668 4.83845V19.1643C13.2668 20.3109 11.852 20.8525 11.0864 19.999L7.06897 15.5208H4.02344C3.05694 15.5208 2.27344 14.7373 2.27344 13.7708V10.2263C2.27344 9.25979 3.05694 8.47629 4.02344 8.47629H6.96952C7.04061 8.47629 7.10834 8.44603 7.15576 8.39307L11.0856 4.00457Z" fill="#16191D"/>
<path d="M15.085 7.57319C15.3744 7.27689 15.8437 7.27689 16.1332 7.57319C18.5291 10.0259 18.5202 13.9851 16.1332 16.4287C15.8437 16.725 15.3744 16.725 15.085 16.4287C14.7955 16.1324 14.7955 15.652 15.085 15.3557C16.8945 13.5033 16.9007 10.5049 15.085 8.6462C14.7955 8.34989 14.7955 7.86949 15.085 7.57319Z" fill="#16191D"/>
<path d="M17.2323 5.33117C17.5217 5.03487 17.991 5.03487 18.2804 5.33117C21.8831 9.01919 21.8764 14.9883 18.2804 18.6695C17.991 18.9658 17.5217 18.9658 17.2323 18.6695C16.9428 18.3732 16.9428 17.8928 17.2323 17.5965C20.25 14.5072 20.2553 9.49889 17.2323 6.40418C16.9428 6.10787 16.9428 5.62747 17.2323 5.33117Z" fill="#16191D"/>
</svg>
