<svg width="24" height="24" viewBox="0 0 24 24" fill="none" xmlns="http://www.w3.org/2000/svg">
<path d="M10.8248 16.3301L16.0748 13.299C17.0748 12.7217 17.0748 11.2783 16.0748 10.701L10.8248 7.66987C9.8248 7.09252 8.5748 7.81421 8.5748 8.96891L8.5748 15.0311C8.5748 16.1858 9.8248 16.9075 10.8248 16.3301ZM15.3248 12L10.0748 15.0311L10.0748 8.96891L15.3248 12Z" fill="#16191D"/>
<path d="M12 2.25C6.61522 2.25 2.25 6.61522 2.25 12C2.25 17.3848 6.61522 21.75 12 21.75C17.3848 21.75 21.75 17.3848 21.75 12C21.75 6.61522 17.3848 2.25 12 2.25ZM3.75 12C3.75 7.44365 7.44365 3.75 12 3.75C16.5563 3.75 20.25 7.44365 20.25 12C20.25 16.5563 16.5563 20.25 12 20.25C7.44365 20.25 3.75 16.5563 3.75 12Z" fill="#16191D"/>
</svg>
