<svg width="20" height="20" viewBox="0 0 20 20" fill="none" xmlns="http://www.w3.org/2000/svg">
<path fill-rule="evenodd" clip-rule="evenodd" d="M16.5303 2.46967C16.8232 2.76256 16.8232 3.23744 16.5303 3.53033L14.75 5.31066V6.50314L17.1501 5.16974C18.3165 4.52173 19.75 5.36516 19.75 6.69951V13.3005C19.75 14.6348 18.3166 15.4783 17.1501 14.8303L14.75 13.4969V14.5C14.75 15.7426 13.7426 16.75 12.5 16.75H3.31066L1.53033 18.5303C1.23744 18.8232 0.762563 18.8232 0.46967 18.5303C0.176777 18.2374 0.176777 17.7626 0.46967 17.4697L2.46887 15.4705C2.4694 15.4699 2.46994 15.4694 2.47047 15.4689L13.4693 4.47004C13.4695 4.46979 13.4698 4.46955 13.47 4.4693L15.4697 2.46967C15.7626 2.17678 16.2374 2.17678 16.5303 2.46967ZM13.25 6.81066L4.81066 15.25H12.5C12.9142 15.25 13.25 14.9142 13.25 14.5V12.2359C13.2498 12.2263 13.2498 12.2168 13.25 12.2072V7.79276C13.2498 7.78322 13.2498 7.77367 13.25 7.76415V6.81066ZM14.75 8.21908V11.7809L17.8786 13.519C18.0452 13.6116 18.25 13.4911 18.25 13.3005V6.69951C18.25 6.5089 18.0452 6.3884 17.8786 6.48098L14.75 8.21908ZM2.5 4.75C2.08579 4.75 1.75 5.08579 1.75 5.5V13.8247C1.75 14.2389 1.41421 14.5747 1 14.5747C0.585786 14.5747 0.25 14.2389 0.25 13.8247V5.5C0.25 4.25736 1.25736 3.25 2.5 3.25H10.8034C11.2176 3.25 11.5534 3.58579 11.5534 4C11.5534 4.41421 11.2176 4.75 10.8034 4.75H2.5Z" fill="#576175"/>
</svg>
