<svg width="20" height="20" viewBox="0 0 20 20" fill="none" xmlns="http://www.w3.org/2000/svg">
<path fill-rule="evenodd" clip-rule="evenodd" d="M0.25 5.5C0.25 4.25736 1.25736 3.25 2.5 3.25H12.5C13.7426 3.25 14.75 4.25736 14.75 5.5V6.50316L17.1502 5.16974C18.3166 4.52172 19.75 5.36516 19.75 6.69951V13.3005C19.75 14.6348 18.3166 15.4783 17.1502 14.8303L14.75 13.4968V14.5C14.75 15.7426 13.7426 16.75 12.5 16.75H2.5C1.25736 16.75 0.25 15.7426 0.25 14.5V5.5ZM13.25 12.209C13.2499 12.2174 13.2499 12.2257 13.25 12.234V14.5C13.25 14.9142 12.9142 15.25 12.5 15.25H2.5C2.08579 15.25 1.75 14.9142 1.75 14.5V5.5C1.75 5.08579 2.08579 4.75 2.5 4.75H12.5C12.9142 4.75 13.25 5.08579 13.25 5.5V7.76596C13.2499 7.77428 13.2499 7.78261 13.25 7.79095V12.209ZM14.75 11.7809L17.8786 13.519C18.0453 13.6116 18.25 13.4911 18.25 13.3005V6.69951C18.25 6.5089 18.0453 6.3884 17.8786 6.48098L14.75 8.2191V11.7809Z" fill="#576175"/>
</svg>
