<svg width="24" height="24" viewBox="0 0 24 24" fill="none" xmlns="http://www.w3.org/2000/svg">
<path d="M12.0039 2.00391C10.7235 2.00391 9.45567 2.2561 8.27274 2.74608C7.08982 3.23606 6.01499 3.95424 5.10961 4.85962C4.20424 5.76499 3.48606 6.83982 2.99608 8.02274C2.52389 9.16271 2.27254 10.3815 2.2549 11.6145L2.25391 11.7539V15.6127C2.25391 17.1324 3.48586 18.3643 5.00554 18.3643C6.52522 18.3643 7.75717 17.1324 7.75717 15.6127V14.2343C7.75717 12.9905 6.74882 11.9821 5.50495 11.9821H3.75391V11.7539C3.75391 10.6705 3.9673 9.5977 4.3819 8.59677C4.7965 7.59583 5.40419 6.68636 6.17027 5.92028C6.93636 5.15419 7.84583 4.5465 8.84677 4.1319C9.8477 3.7173 10.9205 3.50391 12.0039 3.50391C13.0873 3.50391 14.1601 3.7173 15.161 4.1319C16.162 4.5465 17.0715 5.15419 17.8375 5.92028C18.6036 6.68636 19.2113 7.59583 19.6259 8.59677C20.0405 9.5977 20.2539 10.6705 20.2539 11.7539H20.2578V11.9819H18.5068C17.2629 11.9819 16.2545 12.9903 16.2545 14.2341V15.6125C16.2545 16.9178 17.1634 18.0108 18.3828 18.2932V18.4691C18.3828 19.5712 17.4894 20.4646 16.3873 20.4646H10.8686C10.4544 20.4646 10.1186 20.8003 10.1186 21.2146C10.1186 21.6288 10.4544 21.9646 10.8686 21.9646H16.3873C18.3178 21.9646 19.8828 20.3996 19.8828 18.4691V18.2216C20.9727 17.8555 21.7578 16.8257 21.7578 15.6125V11.6143H21.7529C21.7352 10.3814 21.4839 9.16264 21.0117 8.02274C20.5217 6.83982 19.8036 5.76499 18.8982 4.85962C17.9928 3.95424 16.918 3.23606 15.7351 2.74608C14.5521 2.2561 13.2843 2.00391 12.0039 2.00391ZM3.75391 15.6127V13.4821H5.50495C5.92039 13.4821 6.25717 13.8189 6.25717 14.2343V15.6127C6.25717 16.304 5.6968 16.8644 5.00554 16.8644C4.31428 16.8644 3.75391 16.304 3.75391 15.6127ZM20.2578 13.4819V15.6125C20.2578 16.3038 19.6974 16.8642 19.0062 16.8642C18.3149 16.8642 17.7545 16.3038 17.7545 15.6125V14.2341C17.7545 13.8187 18.0913 13.4819 18.5068 13.4819H20.2578Z" fill="#16191D"/>
</svg>
