<svg width="20" height="20" viewBox="0 0 20 20" fill="none" xmlns="http://www.w3.org/2000/svg">
<path fill-rule="evenodd" clip-rule="evenodd" d="M6.71931 4.27652C6.71931 2.46479 8.18801 0.996094 9.99974 0.996094C11.8115 0.996094 13.2802 2.46479 13.2802 4.27652V10.2083C13.2802 12.0201 11.8115 13.4888 9.99974 13.4888C8.18801 13.4888 6.71931 12.0201 6.71931 10.2083V4.27652ZM9.99974 2.49609C9.01644 2.49609 8.21931 3.29322 8.21931 4.27652V10.2083C8.21931 11.1916 9.01644 11.9888 9.99974 11.9888C10.983 11.9888 11.7802 11.1916 11.7802 10.2083V4.27652C11.7802 3.29322 10.983 2.49609 9.99974 2.49609ZM15.7567 10.6629C16.1586 10.7631 16.4032 11.1701 16.303 11.572C15.9541 12.9713 15.1497 14.2147 14.0164 15.1065C13.0695 15.8517 11.9379 16.316 10.7501 16.4544V18.2798C10.7501 18.694 10.4143 19.0298 10.0001 19.0298C9.58586 19.0298 9.25008 18.694 9.25008 18.2798V16.4549C8.09165 16.3207 6.98538 15.8764 6.0512 15.1621C4.90558 14.2862 4.08387 13.0541 3.7155 11.6599C3.60969 11.2594 3.84856 10.849 4.24903 10.7432C4.6495 10.6374 5.05992 10.8763 5.16573 11.2767C5.44907 12.3491 6.0811 13.2968 6.96227 13.9705C7.84344 14.6442 8.92368 15.0057 10.0329 14.9979C11.142 14.9902 12.2171 14.6137 13.0888 13.9277C13.9605 13.2418 14.5792 12.2854 14.8475 11.2091C14.9477 10.8072 15.3548 10.5626 15.7567 10.6629Z" fill="#576175"/>
</svg>
