<svg width="21" height="20" viewBox="0 0 21 20" fill="none" xmlns="http://www.w3.org/2000/svg">
<g clip-path="url(#clip0_1505_60642)">
<path fill-rule="evenodd" clip-rule="evenodd" d="M10 1.75C5.44365 1.75 1.75 5.44365 1.75 10C1.75 14.5563 5.44365 18.25 10 18.25C14.5563 18.25 18.25 14.5563 18.25 10C18.25 5.44365 14.5563 1.75 10 1.75ZM0.25 10C0.25 4.61522 4.61522 0.25 10 0.25C15.3848 0.25 19.75 4.61522 19.75 10C19.75 15.3848 15.3848 19.75 10 19.75C4.61522 19.75 0.25 15.3848 0.25 10ZM7.99997 5.25C8.41418 5.25 8.74997 5.58579 8.74997 6V14C8.74997 14.4142 8.41418 14.75 7.99997 14.75C7.58576 14.75 7.24997 14.4142 7.24997 14V6C7.24997 5.58579 7.58576 5.25 7.99997 5.25ZM11.7143 5.25C12.1285 5.25 12.4643 5.58579 12.4643 6V14C12.4643 14.4142 12.1285 14.75 11.7143 14.75C11.3 14.75 10.9643 14.4142 10.9643 14V6C10.9643 5.58579 11.3 5.25 11.7143 5.25Z" fill="#576175"/>
</g>
<defs>
<clipPath id="clip0_1505_60642">
<rect width="20" height="20" fill="white" transform="translate(0.125)"/>
</clipPath>
</defs>
</svg>
