<svg width="24" height="24" viewBox="0 0 24 24" fill="none" xmlns="http://www.w3.org/2000/svg">
<path d="M20 10C20.4142 10 20.75 10.3358 20.75 10.75V13.2504C20.75 13.6646 20.4142 14.0004 20 14.0004C19.5858 14.0004 19.25 13.6646 19.25 13.2504V10.75C19.25 10.3358 19.5858 10 20 10Z" fill="black"/>
<path d="M4 10C4.41421 10 4.75 10.3358 4.75 10.75L4.75 13.2504C4.75 13.6646 4.41421 14.0004 4 14.0004C3.58579 14.0004 3.25 13.6646 3.25 13.2504L3.25 10.75C3.25 10.3358 3.58579 10 4 10Z" fill="black"/>
<path d="M16 5.99609C16.4142 5.99609 16.75 6.33188 16.75 6.74609V17.2531C16.75 17.6673 16.4142 18.0031 16 18.0031C15.5858 18.0031 15.25 17.6673 15.25 17.2531V6.74609C15.25 6.33188 15.5858 5.99609 16 5.99609Z" fill="black"/>
<path d="M8 5.99609C8.41421 5.99609 8.75 6.33188 8.75 6.74609L8.75 17.2531C8.75 17.6673 8.41421 18.0031 8 18.0031C7.58579 18.0031 7.25 17.6673 7.25 17.2531L7.25 6.74609C7.25 6.33188 7.58579 5.99609 8 5.99609Z" fill="black"/>
<path d="M12 1.99609C12.4142 1.99609 12.75 2.33188 12.75 2.74609L12.75 21.2539C12.75 21.6681 12.4142 22.0039 12 22.0039C11.5858 22.0039 11.25 21.6681 11.25 21.2539L11.25 2.74609C11.25 2.33188 11.5858 1.99609 12 1.99609Z" fill="black"/>
</svg>
