<svg width="24" height="24" viewBox="0 0 24 24" fill="none" xmlns="http://www.w3.org/2000/svg">
<path d="M2.00122 17.75C2.00122 18.9926 3.00858 20 4.25122 20H19.7512C20.9939 20 22.0012 18.9926 22.0012 17.75V6.25C22.0012 5.00736 20.9939 4 19.7512 4H4.25122C3.00858 4 2.00122 5.00736 2.00122 6.25V17.75ZM4.25122 18.5C3.83701 18.5 3.50122 18.1642 3.50122 17.75V6.25C3.50122 5.83579 3.83701 5.5 4.25122 5.5H19.7512C20.1654 5.5 20.5012 5.83579 20.5012 6.25V17.75C20.5012 18.1642 20.1654 18.5 19.7512 18.5H4.25122Z" fill="#16191D"/>
<path d="M10.25 9.75542V14.2441L14.4181 11.9998L10.25 9.75542ZM8.75 8.66718C8.75 8.02401 9.43669 7.61385 10.003 7.91878L16.1921 11.2514C16.7881 11.5723 16.7881 12.4272 16.1921 12.7482L10.003 16.0807C9.43669 16.3857 8.75 15.9755 8.75 15.3323V8.66718Z" fill="#16191D"/>
</svg>
