<svg width="24" height="24" viewBox="0 0 24 24" fill="none" xmlns="http://www.w3.org/2000/svg">
<path fill-rule="evenodd" clip-rule="evenodd" d="M12 2.25C6.61522 2.25 2.25 6.61522 2.25 12C2.25 17.3848 6.61522 21.75 12 21.75C17.3848 21.75 21.75 17.3848 21.75 12C21.75 6.61522 17.3848 2.25 12 2.25ZM10.75 8C10.75 7.58579 10.4142 7.25 10 7.25C9.58579 7.25 9.25 7.58579 9.25 8V16C9.25 16.4142 9.58579 16.75 10 16.75C10.4142 16.75 10.75 16.4142 10.75 16V8ZM14.4643 8C14.4643 7.58579 14.1285 7.25 13.7143 7.25C13.3001 7.25 12.9643 7.58579 12.9643 8V16C12.9643 16.4142 13.3001 16.75 13.7143 16.75C14.1285 16.75 14.4643 16.4142 14.4643 16V8Z" fill="#16191D"/>
</svg>
