<svg width="24" height="24" viewBox="0 0 24 24" fill="none" xmlns="http://www.w3.org/2000/svg">
<path fill-rule="evenodd" clip-rule="evenodd" d="M19.8074 4.06046C20.0971 3.78227 20.5666 3.78216 20.8562 4.06046C21.1456 4.33878 21.1456 4.79007 20.8562 5.06837L18.9865 6.8633C20.3311 7.94707 21.4954 9.09677 22.2942 9.93993C23.2351 10.9332 23.2351 12.4224 22.2942 13.4156C21.2882 14.4775 19.6999 16.0293 17.9 17.3211C16.1286 18.5924 14.0216 19.7081 11.9993 19.7081C10.4043 19.7079 8.76344 19.0138 7.28454 18.109L5.12223 20.1889C4.83265 20.467 4.36305 20.467 4.07343 20.1889C3.78382 19.9105 3.7839 19.4593 4.07343 19.181L17.3486 6.42246C17.3529 6.4182 17.3578 6.41453 17.3621 6.41039L19.8074 4.06046ZM16.3471 9.39978C16.7957 10.0905 17.0927 10.8777 17.0927 11.6783C17.0926 12.9165 16.3915 14.133 15.4731 15.0157C14.5547 15.8983 13.2887 16.5729 12.0003 16.573C11.1674 16.573 10.348 16.2874 9.62938 15.8565L8.36135 17.0742C9.6389 17.8174 10.8912 18.2824 11.9993 18.2826C13.5156 18.2826 15.2914 17.4146 17.0125 16.1795C18.705 14.9648 20.2209 13.4864 21.1971 12.456C21.6227 12.0067 21.6227 11.3489 21.1971 10.8996C20.4029 10.0612 19.2499 8.92484 17.9338 7.87492L16.3471 9.39978Z" fill="black"/>
<path d="M11.9993 3.64746C13.2916 3.64746 14.6061 4.10252 15.8247 4.73983C16.1842 4.92806 16.3168 5.36031 16.1211 5.70597C15.9254 6.05152 15.4755 6.17968 15.1158 5.99182C14.0072 5.41201 12.9449 5.07301 11.9993 5.07301C10.483 5.07329 8.70809 5.94185 6.98709 7.177C5.29462 8.39171 3.77866 9.86919 2.8025 10.8996C2.37704 11.3488 2.37704 12.0068 2.8025 12.456C3.46377 13.154 4.37678 14.0626 5.42741 14.9553C5.73394 15.2162 5.76238 15.6666 5.49115 15.9614C5.21975 16.2559 4.75101 16.2833 4.44428 16.0227C3.34239 15.0863 2.3909 14.1392 1.70541 13.4156C0.764702 12.4224 0.764655 10.9331 1.70541 9.93993C2.71135 8.8781 4.29967 7.32632 6.09957 6.03452C7.87084 4.76331 9.97718 3.64773 11.9993 3.64746Z" fill="black"/>
<path d="M11.9993 6.78349C12.445 6.78349 12.8862 6.86514 13.305 7.00345C13.6924 7.13141 13.8988 7.53699 13.7657 7.90926C13.6325 8.28142 13.2104 8.47982 12.8231 8.35196C12.5358 8.25709 12.2578 8.20904 11.9993 8.20904C11.2282 8.2093 10.3182 8.6358 9.57626 9.34874C8.83416 10.062 8.39032 10.9371 8.39032 11.6783C8.39035 11.9266 8.43942 12.193 8.53808 12.469C8.67119 12.8411 8.4655 13.2467 8.07839 13.3748C7.69122 13.5026 7.26911 13.305 7.13582 12.933C6.99184 12.5305 6.90696 12.1066 6.90693 11.6783C6.90693 10.44 7.60903 9.2235 8.52746 8.34083C9.44577 7.45838 10.7111 6.78374 11.9993 6.78349Z" fill="black"/>
</svg>
