<svg width="24" height="24" viewBox="0 0 24 24" fill="none" xmlns="http://www.w3.org/2000/svg">
<path d="M15.277 9.26402C15.3148 9.03389 15.2452 8.78948 15.0678 8.61181C14.7752 8.31862 14.3004 8.31814 14.0072 8.61074L8.58984 14.0172L9.39263 15.156L9.40177 15.1679C9.99605 15.9431 10.9314 16.4516 11.997 16.4516C13.8112 16.4516 15.277 14.9858 15.277 13.1716V9.26402Z" fill="#16191D"/>
<path d="M8.71484 7.24191C8.71484 5.4277 10.1806 3.96191 11.9948 3.96191C12.8456 3.96191 13.6231 4.28844 14.2092 4.81851C14.6571 5.22362 14.6032 5.87021 14.2442 6.23655L10.4291 10.1296C9.80207 10.7693 8.71484 10.3254 8.71484 9.42963V7.24191Z" fill="#16191D"/>
<path d="M11.9961 18.2422C12.4103 18.2422 12.7461 18.578 12.7461 18.9922V21.2422C12.7461 21.6564 12.4103 21.9922 11.9961 21.9922C11.5819 21.9922 11.2461 21.6564 11.2461 21.2422V18.9922C11.2461 18.578 11.5819 18.2422 11.9961 18.2422Z" fill="#16191D"/>
<path d="M17.759 13.6241C18.1608 13.7246 18.4051 14.1318 18.3047 14.5336C17.9546 15.934 17.1525 17.1772 16.022 18.0703C14.8895 18.9649 13.4875 19.4504 12.053 19.4617L12.0471 19.4618C10.607 19.4618 9.20631 19.0003 8.06237 18.1282L8.05763 18.1246C7.61411 17.7808 7.20396 17.3843 6.85708 16.9217C6.60855 16.5904 6.6757 16.1203 7.00708 15.8717C7.33845 15.6232 7.80855 15.6904 8.05708 16.0217C8.30963 16.3585 8.61866 16.6613 8.97414 16.9371C9.84901 17.6032 10.9263 17.9611 12.0441 17.9617C13.1486 17.9524 14.2254 17.5779 15.0922 16.8932C15.9617 16.2063 16.5796 15.2495 16.8495 14.1698C16.9499 13.768 17.3571 13.5237 17.759 13.6241Z" fill="#16191D"/>
<path d="M20.3091 3.13764C20.602 3.43053 20.602 3.90541 20.3091 4.1983L4.74908 19.7583C4.45619 20.0512 3.98131 20.0512 3.68842 19.7583C3.39553 19.4654 3.39553 18.9905 3.68842 18.6976L19.2484 3.13764C19.5413 2.84475 20.0162 2.84475 20.3091 3.13764Z" fill="#16191D"/>
</svg>
