<svg width="24" height="24" viewBox="0 0 24 24" fill="none" xmlns="http://www.w3.org/2000/svg">
<path d="M4.5 5.25C3.25736 5.25 2.25 6.25736 2.25 7.5V16.5C2.25 17.7426 3.25736 18.75 4.5 18.75H14.5C15.7426 18.75 16.75 17.7426 16.75 16.5V15.4966L19.1501 16.83C20.3166 17.4781 21.75 16.6346 21.75 15.3003V8.69929C21.75 7.36494 20.3166 6.5215 19.1501 7.16952L16.75 8.50293V7.5C16.75 6.25736 15.7426 5.25 14.5 5.25H4.5ZM15.25 9.76484C15.2498 9.77376 15.2498 9.78269 15.25 9.79163V14.2079C15.2498 14.2169 15.2498 14.2258 15.25 14.2347V16.5C15.25 16.9142 14.9142 17.25 14.5 17.25H4.5C4.08579 17.25 3.75 16.9142 3.75 16.5V7.5C3.75 7.08579 4.08579 6.75 4.5 6.75H14.5C14.9142 6.75 15.25 7.08579 15.25 7.5V9.76484ZM16.75 13.7807V10.2189L19.8786 8.48076C20.0452 8.38818 20.25 8.50867 20.25 8.69929V15.3003C20.25 15.4909 20.0452 15.6114 19.8786 15.5188L16.75 13.7807Z" fill="#16191D"/>
</svg>
