<svg width="24" height="24" viewBox="0 0 24 24" fill="none" xmlns="http://www.w3.org/2000/svg">
<path d="M20.3104 4.19879C20.6033 3.90589 20.6033 3.43102 20.3104 3.13813C20.0175 2.84523 19.5426 2.84523 19.2497 3.13813L3.6897 18.6981C3.39681 18.991 3.39681 19.4659 3.6897 19.7588C3.98259 20.0517 4.45747 20.0517 4.75036 19.7588L7.18699 17.3222C7.45423 17.6186 7.748 17.8847 8.05807 18.125L8.06279 18.1287C8.99345 18.8382 10.094 19.2759 11.2475 19.4144V21.2427C11.2475 21.6569 11.5833 21.9927 11.9975 21.9927C12.4117 21.9927 12.7475 21.6569 12.7475 21.2427V19.4196C13.9354 19.2827 15.0735 18.8204 16.0224 18.0707C17.1529 17.1777 17.955 15.9345 18.3051 14.5341C18.4056 14.1323 18.1613 13.7251 17.7594 13.6246C17.3576 13.5242 16.9504 13.7685 16.8499 14.1703C16.58 15.2499 15.9621 16.2068 15.0926 16.8937C14.2258 17.5784 13.149 17.9529 12.0446 17.9622C10.9267 17.9616 9.84944 17.6037 8.97457 16.9376C8.70466 16.7282 8.46152 16.5032 8.24955 16.2596L9.37642 15.1327L9.39318 15.1565L9.40232 15.1684C9.9966 15.9436 10.9319 16.4521 11.9975 16.4521C13.8117 16.4521 15.2775 14.9863 15.2775 13.1721V9.2645C15.2796 9.25182 15.2814 9.2391 15.2828 9.22635L20.3104 4.19879ZM13.7775 10.9602V13.1721C13.7775 14.1579 12.9833 14.9521 11.9975 14.9521C11.428 14.9521 10.9271 14.6852 10.6011 14.2666L10.5447 14.1865L13.7775 10.9602Z" fill="#16191D"/>
<path d="M11.9975 5.4624C11.0117 5.4624 10.2175 6.25662 10.2175 7.2424V10.0424C10.2175 10.4566 9.88168 10.7924 9.46747 10.7924C9.05325 10.7924 8.71747 10.4566 8.71747 10.0424V7.2424C8.71747 5.42819 10.1833 3.9624 11.9975 3.9624C12.9584 3.9624 13.8249 4.37865 14.429 5.03414C14.7097 5.33874 14.6903 5.81321 14.3857 6.09392C14.0811 6.37462 13.6067 6.35526 13.326 6.05066C12.99 5.68616 12.5165 5.4624 11.9975 5.4624Z" fill="#16191D"/>
</svg>
