<svg width="21" height="20" viewBox="0 0 21 20" fill="none" xmlns="http://www.w3.org/2000/svg">
<g clip-path="url(#clip0_1505_60625)">
<path fill-rule="evenodd" clip-rule="evenodd" d="M10 0.25C4.61522 0.25 0.25 4.61522 0.25 10C0.25 15.3848 4.61522 19.75 10 19.75C15.3848 19.75 19.75 15.3848 19.75 10C19.75 4.61522 15.3848 0.25 10 0.25ZM8.75 6C8.75 5.58579 8.41421 5.25 8 5.25C7.58579 5.25 7.25 5.58579 7.25 6V14C7.25 14.4142 7.58579 14.75 8 14.75C8.41421 14.75 8.75 14.4142 8.75 14V6ZM12.4643 6C12.4643 5.58579 12.1285 5.25 11.7143 5.25C11.3001 5.25 10.9643 5.58579 10.9643 6V14C10.9643 14.4142 11.3001 14.75 11.7143 14.75C12.1285 14.75 12.4643 14.4142 12.4643 14V6Z" fill="#576175"/>
</g>
<defs>
<clipPath id="clip0_1505_60625">
<rect width="20" height="20" fill="white" transform="translate(0.125)"/>
</clipPath>
</defs>
</svg>
