<svg width="24" height="24" viewBox="0 0 24 24" fill="none" xmlns="http://www.w3.org/2000/svg">
<path d="M12.0078 2C6.48497 2 2.00781 6.47715 2.00781 12C2.00781 17.5228 6.48497 22 12.0078 22C17.5307 22 22.0078 17.5228 22.0078 12C22.0078 6.47715 17.5307 2 12.0078 2ZM9 7.57617C9.82843 7.57617 10.5 8.24774 10.5 9.07617C10.5 9.9046 9.82843 10.5762 9 10.5762C8.17157 10.5762 7.5 9.9046 7.5 9.07617C7.5 8.24774 8.17157 7.57617 9 7.57617ZM12.0017 17.6737C9.96784 17.6737 8.22163 16.4584 7.42521 14.718C7.10519 14.0186 7.65943 13.3262 8.32866 13.3262H15.6746C16.3439 13.3262 16.8981 14.0186 16.5781 14.718C15.7817 16.4584 14.0355 17.6737 12.0017 17.6737ZM16.5 9.07617C16.5 9.9046 15.8284 10.5762 15 10.5762C14.1716 10.5762 13.5 9.9046 13.5 9.07617C13.5 8.24774 14.1716 7.57617 15 7.57617C15.8284 7.57617 16.5 8.24774 16.5 9.07617Z" fill="#16191D"/>
</svg>
