<svg width="20" height="20" viewBox="0 0 20 20" fill="none" xmlns="http://www.w3.org/2000/svg">
<path d="M2.49273 3.5495C3.48422 2.52351 4.79903 2.00098 6.12129 2.00098C7.37235 2.00098 8.63307 2.47384 9.61326 3.4201C9.74145 3.54308 9.86997 3.6673 9.99837 3.79272C10.1259 3.66772 10.2532 3.54341 10.38 3.41958L10.3861 3.41368C12.4047 1.47911 15.5559 1.54343 17.5046 3.54869C18.4992 4.57204 19 5.91375 19 7.25092C19 8.52562 18.5472 9.80686 17.6298 10.8132C15.3861 13.2941 12.9507 15.5737 10.5071 17.8031C10.2211 18.0641 9.78339 18.0644 9.49696 17.8038C7.04798 15.576 4.6088 13.2938 2.36244 10.8123C0.495352 8.74944 0.555303 5.54397 2.49273 3.5495Z" fill="#576175"/>
</svg>
