<svg width="24" height="24" viewBox="0 0 24 24" fill="none" xmlns="http://www.w3.org/2000/svg">
<path d="M12.75 14.79C12.75 14.3758 12.4142 14.04 12 14.04C11.5858 14.04 11.25 14.3758 11.25 14.79V15.79C11.25 16.2043 11.5858 16.54 12 16.54C12.4142 16.54 12.75 16.2043 12.75 15.79V14.79Z" fill="#16191D"/>
<path d="M7.25 8.29004C7.25 5.66669 9.37665 3.54004 12 3.54004C14.6234 3.54004 16.75 5.66669 16.75 8.29004V9.54004H17.5C18.7426 9.54004 19.75 10.5474 19.75 11.79V18.79C19.75 20.0327 18.7426 21.04 17.5 21.04H6.5C5.25736 21.04 4.25 20.0327 4.25 18.79V11.79C4.25 10.5474 5.25736 9.54004 6.5 9.54004H7.25V8.29004ZM15.25 8.29004C15.25 6.49511 13.7949 5.04004 12 5.04004C10.2051 5.04004 8.75 6.49511 8.75 8.29004V9.54004H15.25V8.29004ZM6.5 11.04C6.08579 11.04 5.75 11.3758 5.75 11.79V18.79C5.75 19.2043 6.08579 19.54 6.5 19.54H17.5C17.9142 19.54 18.25 19.2043 18.25 18.79V11.79C18.25 11.3758 17.9142 11.04 17.5 11.04H6.5Z" fill="#16191D"/>
</svg>
