<svg width="20" height="20" viewBox="0 0 20 20" fill="none" xmlns="http://www.w3.org/2000/svg">
<g clip-path="url(#clip0_1505_60519)">
<path fill-rule="evenodd" clip-rule="evenodd" d="M5.25 4.74316C5.25 2.11981 7.37665 -0.00683594 10 -0.00683594C12.6234 -0.00683594 14.75 2.11981 14.75 4.74316V5.29745C14.75 5.71167 14.4142 6.04745 14 6.04745C13.5858 6.04745 13.25 5.71167 13.25 5.29745V4.74316C13.25 2.94824 11.7949 1.49316 10 1.49316C8.20507 1.49316 6.75 2.94824 6.75 4.74316V7.54004H15.5C16.7426 7.54004 17.75 8.5474 17.75 9.79004V16.79C17.75 18.0327 16.7426 19.04 15.5 19.04H4.5C3.25736 19.04 2.25 18.0327 2.25 16.79V9.79004C2.25 8.5474 3.25736 7.54004 4.5 7.54004H5.25V4.74316ZM4.5 9.04004C4.08579 9.04004 3.75 9.37583 3.75 9.79004V16.79C3.75 17.2043 4.08579 17.54 4.5 17.54H15.5C15.9142 17.54 16.25 17.2043 16.25 16.79V9.79004C16.25 9.37583 15.9142 9.04004 15.5 9.04004H4.5ZM10 12.0401C10.4142 12.0401 10.75 12.3759 10.75 12.7901V13.7901C10.75 14.2044 10.4142 14.5401 10 14.5401C9.58579 14.5401 9.25 14.2044 9.25 13.7901V12.7901C9.25 12.3759 9.58579 12.0401 10 12.0401Z" fill="#576175"/>
</g>
<defs>
<clipPath id="clip0_1505_60519">
<rect width="20" height="20" fill="white"/>
</clipPath>
</defs>
</svg>
