<svg width="24" height="24" viewBox="0 0 24 24" fill="none" xmlns="http://www.w3.org/2000/svg">
<mask id="path-1-inside-1_5054_12022" fill="white">
<path fill-rule="evenodd" clip-rule="evenodd" d="M6.61567 12.1984C6.61567 11.8201 7.00248 11.5651 7.35019 11.7141L12.7314 14.0203C12.8639 14.0771 13.014 14.0771 13.1465 14.0203L18.5277 11.7141C18.8754 11.5651 19.2622 11.8201 19.2622 12.1984V17.2709C19.2622 17.2709 19.2622 17.2709 19.2622 17.2709H19.2622C19.2622 17.2709 19.2622 17.271 19.2622 17.271C19.2622 17.271 19.2622 17.271 19.2622 17.271L14.0123 19.896C13.3366 20.2338 12.5413 20.2338 11.8656 19.896L6.61571 17.271C6.61569 17.271 6.61569 17.271 6.61571 17.271C6.61572 17.271 6.61572 17.2709 6.6157 17.2709H6.61569C6.61568 17.2709 6.61567 17.2709 6.61567 17.2709V12.1984Z"/>
</mask>
<path fill-rule="evenodd" clip-rule="evenodd" d="M6.61567 12.1984C6.61567 11.8201 7.00248 11.5651 7.35019 11.7141L12.7314 14.0203C12.8639 14.0771 13.014 14.0771 13.1465 14.0203L18.5277 11.7141C18.8754 11.5651 19.2622 11.8201 19.2622 12.1984V17.2709C19.2622 17.2709 19.2622 17.2709 19.2622 17.2709H19.2622C19.2622 17.2709 19.2622 17.271 19.2622 17.271C19.2622 17.271 19.2622 17.271 19.2622 17.271L14.0123 19.896C13.3366 20.2338 12.5413 20.2338 11.8656 19.896L6.61571 17.271C6.61569 17.271 6.61569 17.271 6.61571 17.271C6.61572 17.271 6.61572 17.2709 6.6157 17.2709H6.61569C6.61568 17.2709 6.61567 17.2709 6.61567 17.2709V12.1984Z" fill="#16191D"/>
<path d="M14.0123 19.896L14.625 21.1214H14.625L14.0123 19.896ZM11.8656 19.896L11.2529 21.1214H11.2529L11.8656 19.896ZM6.61571 17.271L7.22841 16.0456L6.61571 17.271ZM19.2622 17.271L19.8749 18.4964L19.2622 17.271ZM18.5277 11.7141L17.988 10.4548L18.5277 11.7141ZM12.7314 14.0203L13.2711 12.761L12.7314 14.0203ZM13.1465 14.0203L12.6068 12.761L13.1465 14.0203ZM6.8105 12.9733L12.1917 15.2796L13.2711 12.761L7.88988 10.4548L6.8105 12.9733ZM13.6862 15.2796L19.0674 12.9733L17.988 10.4548L12.6068 12.761L13.6862 15.2796ZM20.6323 17.2709V12.1984H17.8922V17.2709H20.6323ZM19.2622 18.641H19.2622V15.9009H19.2622V18.641ZM14.625 21.1214L19.8749 18.4964L18.6495 16.0456L13.3996 18.6706L14.625 21.1214ZM11.2529 21.1214C12.3143 21.6521 13.5636 21.6521 14.625 21.1214L13.3996 18.6706C13.1096 18.8156 12.7683 18.8156 12.4783 18.6706L11.2529 21.1214ZM6.003 18.4964L11.2529 21.1214L12.4783 18.6706L7.22841 16.0456L6.003 18.4964ZM6.61569 18.641H6.6157V15.9009H6.61569V18.641ZM5.24562 12.1984V17.2709H7.98572V12.1984H5.24562ZM6.61569 15.9009C7.3658 15.9009 7.98572 16.5077 7.98572 17.2709H5.24562C5.24562 18.0341 5.86557 18.641 6.61569 18.641V15.9009ZM7.22841 18.4964C8.52149 17.8498 8.06144 15.9009 6.6157 15.9009V18.641C5.17 18.641 4.70995 16.6921 6.003 16.0456L7.22841 18.4964ZM7.22841 16.0456C8.23819 16.5505 8.23819 17.9915 7.22841 18.4964L6.003 16.0456C4.9932 16.5505 4.9932 17.9915 6.003 18.4964L7.22841 16.0456ZM18.6495 18.4964C17.6643 18.0038 17.6152 16.5627 18.6495 16.0456L19.8749 18.4964C20.9092 17.9792 20.8601 16.5382 19.8749 16.0456L18.6495 18.4964ZM19.2622 15.9009C17.8165 15.9009 17.3564 17.8498 18.6495 18.4964L19.8749 16.0456C21.168 16.6921 20.7079 18.641 19.2622 18.641V15.9009ZM17.8922 17.2709C17.8922 16.5143 18.5056 15.9009 19.2622 15.9009V18.641C20.0189 18.641 20.6323 18.0276 20.6323 17.2709H17.8922ZM19.0674 12.9733C18.5111 13.2118 17.8922 12.8037 17.8922 12.1984H20.6323C20.6323 10.8365 19.2398 9.91833 17.988 10.4548L19.0674 12.9733ZM12.1917 15.2796C12.6689 15.4841 13.209 15.4841 13.6862 15.2796L12.6068 12.761C12.8189 12.6701 13.059 12.6701 13.2711 12.761L12.1917 15.2796ZM7.88988 10.4548C6.63812 9.91833 5.24562 10.8365 5.24562 12.1984H7.98572C7.98572 12.8037 7.36684 13.2118 6.8105 12.9733L7.88988 10.4548Z" fill="#16191D" mask="url(#path-1-inside-1_5054_12022)"/>
<path d="M12.8962 3.58934L3.67079 7.68956C3.58734 7.72665 3.58734 7.84508 3.67079 7.88217L12.8962 11.9824C12.9235 11.9945 12.9546 11.9945 12.9818 11.9824L22.2072 7.88217C22.2907 7.84508 22.2907 7.72665 22.2072 7.68956L12.9818 3.58934C12.9546 3.57722 12.9235 3.57722 12.8962 3.58934Z" fill="#16191D" stroke="#16191D" stroke-width="1.4" stroke-linecap="round"/>
<path d="M2.43274 13.9786L3.35164 10.303C3.37825 10.1966 3.52951 10.1966 3.55612 10.303L4.47502 13.9786C4.49165 14.0452 4.44134 14.1096 4.37278 14.1096H2.53498C2.46642 14.1096 2.41611 14.0452 2.43274 13.9786Z" stroke="#16191D" stroke-width="1.05388" stroke-linecap="round"/>
</svg>
