<svg width="24" height="24" viewBox="0 0 24 24" fill="none" xmlns="http://www.w3.org/2000/svg">
<path d="M21.1653 7.37396C22.3778 11.1846 20.1743 16.516 12.3922 20.407C11.959 20.6235 11.4324 20.448 11.2158 20.0148C10.9992 19.5817 11.1748 19.055 11.6079 18.8385C19.0238 15.1306 20.3276 10.5249 19.4942 7.90567C19.067 6.56286 18.082 5.63726 16.8911 5.35029C15.7132 5.06644 14.176 5.37316 12.5925 6.82465C12.2355 7.15186 11.6809 7.12774 11.3537 6.77077C11.0265 6.41379 11.0506 5.85915 11.4076 5.53194C13.3313 3.7686 15.4475 3.19859 17.3019 3.64547C19.1434 4.08922 20.5696 5.5018 21.1653 7.37396Z" fill="#16191D"/>
<path fill-rule="evenodd" clip-rule="evenodd" d="M21.1653 7.37396C22.3778 11.1846 20.1743 16.516 12.3922 20.407C11.959 20.6235 11.4324 20.448 11.2158 20.0148C10.9992 19.5817 11.1748 19.055 11.6079 18.8385C19.0238 15.1306 20.3276 10.5249 19.4942 7.90567C19.067 6.56286 18.082 5.63726 16.8911 5.35029C15.7132 5.06644 14.176 5.37316 12.5925 6.82465C12.2355 7.15186 11.6809 7.12774 11.3537 6.77077C11.0265 6.41379 11.0506 5.85915 11.4076 5.53194C13.3313 3.7686 15.4475 3.19859 17.3019 3.64547C19.1434 4.08922 20.5696 5.5018 21.1653 7.37396Z" fill="#16191D"/>
<path d="M12.7787 5.55272C13.0825 5.92983 13.0231 6.4818 12.6459 6.78559C12.0104 7.2976 11.4899 7.97489 11.1458 8.65208C10.7919 9.3488 10.6733 9.94689 10.7118 10.3036C10.7298 10.471 10.7748 10.5229 10.7783 10.5267C10.7783 10.5267 10.7829 10.5317 10.7942 10.5367C10.8078 10.5426 10.8435 10.5554 10.9131 10.5597C11.2443 10.5805 11.9841 10.3966 13.2675 9.54093C13.4698 9.40613 13.7188 9.3613 13.9554 9.41714C14.1919 9.47298 14.3946 9.62447 14.5152 9.83547C14.8489 10.4195 15.5094 11.2259 16.3575 11.7192C17.1678 12.1906 18.1186 12.3686 19.207 11.8244C19.6401 11.6078 20.1668 11.7834 20.3833 12.2165C20.5999 12.6496 20.4243 13.1763 19.9912 13.3929C18.2738 14.2516 16.6917 13.9425 15.4757 13.235C14.6489 12.754 13.9792 12.0865 13.4993 11.4616C12.4661 12.0566 11.5633 12.3575 10.8035 12.3099C10.2984 12.2783 9.83602 12.0895 9.49258 11.7192C9.16124 11.362 9.01395 10.9151 8.96825 10.4917C8.87921 9.66665 9.14719 8.71451 9.58241 7.85782C10.0275 6.98162 10.6988 6.10234 11.5458 5.41996C11.9229 5.11617 12.4749 5.17561 12.7787 5.55272Z" fill="#16191D"/>
<path d="M2.83486 7.37424C1.62237 11.1849 3.82584 16.5163 11.608 20.4072C12.0411 20.6238 12.5678 20.4482 12.7843 20.0151C13.0009 19.582 12.8253 19.0553 12.3922 18.8388C4.9763 15.1309 3.67252 10.5252 4.50593 7.90595C4.93319 6.56315 5.91818 5.63755 7.10905 5.35057C8.28691 5.06673 9.82411 5.37344 11.4076 6.82494C11.7646 7.15215 12.3192 7.12802 12.6464 6.77105C12.9737 6.41408 12.9495 5.85944 12.5926 5.53223C10.6688 3.76888 8.55265 3.19887 6.69822 3.64576C4.85678 4.08951 3.43055 5.50209 2.83486 7.37424Z" fill="#16191D"/>
<path fill-rule="evenodd" clip-rule="evenodd" d="M2.83486 7.37424C1.62237 11.1849 3.82584 16.5163 11.608 20.4072C12.0411 20.6238 12.5678 20.4482 12.7843 20.0151C13.0009 19.582 12.8253 19.0553 12.3922 18.8388C4.9763 15.1309 3.67252 10.5252 4.50593 7.90595C4.93319 6.56315 5.91818 5.63755 7.10905 5.35057C8.28691 5.06673 9.82411 5.37344 11.4076 6.82494C11.7646 7.15215 12.3192 7.12802 12.6464 6.77105C12.9737 6.41408 12.9495 5.85944 12.5926 5.53223C10.6688 3.76888 8.55265 3.19887 6.69822 3.64576C4.85678 4.08951 3.43055 5.50209 2.83486 7.37424Z" fill="#16191D"/>
<path d="M20.7635 8.99305C20.7635 11.0477 19.698 12.4645 17.6777 12.4645C15.6575 12.4645 12.1783 9.6914 12.1783 7.63673C12.1783 5.58206 14.3387 4.72531 16.359 4.72531C18.3793 4.72531 20.7635 6.93838 20.7635 8.99305Z" fill="#16191D"/>
<path d="M15.7368 9.03033C15.7368 11.085 13.452 11.046 11.4317 11.046C9.41145 11.046 10.3865 10.5873 10.3865 8.53264C10.3865 6.47797 13.0196 5.34724 15.0399 5.34724C17.0602 5.34724 15.7368 6.97567 15.7368 9.03033Z" fill="#16191D"/>
</svg>
