<svg width="24" height="24" viewBox="0 0 24 24" fill="none" xmlns="http://www.w3.org/2000/svg">
<path fill-rule="evenodd" clip-rule="evenodd" d="M7.5473 7.74902C8.03983 6.49032 9.66284 6.15069 10.6186 7.10645L17.4291 13.917C18.3849 14.8727 18.0453 16.4957 16.7866 16.9883L5.5971 21.3662C4.07516 21.9617 2.57399 20.4604 3.16937 18.9385L7.5473 7.74902ZM4.66546 19.5234C4.58038 19.7409 4.79471 19.9552 5.01214 19.8701L9.08539 18.2764L6.25921 15.4502L4.66546 19.5234ZM6.89789 13.8174L10.7182 17.6377L12.8344 16.8096L7.72601 11.7012L6.89789 13.8174ZM9.48187 8.24219C9.34531 8.10587 9.11373 8.15424 9.04339 8.33398L8.36468 10.0684L14.4672 16.1709L16.2016 15.4922C16.3812 15.4218 16.4295 15.1903 16.2934 15.0537L9.48187 8.24219Z" fill="#16191D"/>
<path d="M20.1616 11.0684C20.6049 11.0686 20.9641 11.4277 20.9643 11.8711C20.9643 12.3146 20.605 12.6746 20.1616 12.6748H18.019C17.5754 12.6747 17.2162 12.3147 17.2162 11.8711C17.2164 11.4276 17.5755 11.0684 18.019 11.0684H20.1616Z" fill="#16191D"/>
<path d="M19.8627 7.37695C20.2745 7.21224 20.7418 7.41255 20.9067 7.82422C21.0714 8.23608 20.8712 8.70336 20.4594 8.86816L17.7817 9.93945C17.3698 10.1041 16.9025 9.90404 16.7377 9.49219C16.573 9.08039 16.7733 8.61311 17.185 8.44824L19.8627 7.37695Z" fill="#16191D"/>
<path d="M19.0903 2.5C19.5338 2.50008 19.893 2.86013 19.893 3.30371V3.83887C19.893 5.16963 18.8146 6.2489 17.4838 6.24902C17.0402 6.24902 16.6801 6.60815 16.6801 7.05176V7.58691C16.6801 8.03044 16.3209 8.39046 15.8774 8.39062C15.4337 8.39062 15.0737 8.03054 15.0737 7.58691V7.05176C15.0737 5.7209 16.153 4.6416 17.4838 4.6416C17.9273 4.64148 18.2865 4.28237 18.2866 3.83887V3.30371C18.2866 2.86008 18.6466 2.5 19.0903 2.5Z" fill="#16191D"/>
<path d="M12.6645 3.57129C13.1078 3.57154 13.4671 3.93067 13.4672 4.37402V6.5166C13.4671 6.95994 13.1078 7.31909 12.6645 7.31934C12.221 7.31934 11.8609 6.9601 11.8608 6.5166V4.37402C11.8609 3.93051 12.2209 3.57129 12.6645 3.57129Z" fill="#16191D"/>
</svg>
