<svg width="24" height="24" viewBox="0 0 24 24" fill="none" xmlns="http://www.w3.org/2000/svg">
<path d="M16.0456 2.83845C16.3285 3.01215 16.4635 3.35108 16.3776 3.67167L14.5538 10.4777L17.9335 11.3833C18.1993 11.4545 18.4048 11.6657 18.4688 11.9334C18.5328 12.2011 18.445 12.4823 18.2401 12.6661L8.84663 21.0909C8.59954 21.3125 8.23619 21.3454 7.95336 21.1717C7.67054 20.998 7.53552 20.659 7.62142 20.3384L9.44518 13.5324L6.06555 12.6268C5.79969 12.5556 5.59421 12.3444 5.53022 12.0767C5.46622 11.809 5.554 11.5278 5.7589 11.344L15.1524 2.91921C15.3995 2.69761 15.7628 2.66476 16.0456 2.83845Z" fill="#16191D"/>
</svg>
