<svg width="24" height="24" viewBox="0 0 24 24" fill="none" xmlns="http://www.w3.org/2000/svg">
<path d="M12 18.6391C14.8906 17.1377 16.8071 15.4998 18.0069 13.9123C17.0648 13.9401 16.2046 13.6591 15.4758 13.2351C14.6489 12.7541 13.9792 12.0866 13.4993 11.4617C12.466 12.0567 11.5632 12.3576 10.8034 12.31C10.2983 12.2784 9.83592 12.0896 9.49248 11.7193C9.16113 11.362 9.01383 10.9152 8.96814 10.4918C8.8791 9.66669 9.14708 8.71452 9.58231 7.8578C9.86441 7.30252 10.2373 6.746 10.6882 6.23914C9.36401 5.29347 8.10734 5.10973 7.10887 5.35034C5.91797 5.63732 4.93295 6.56295 4.50568 7.90579C3.68716 10.4783 4.9301 14.9668 12 18.6391ZM12.0001 5.03079C13.7591 3.66317 15.6362 3.24403 17.3021 3.64547C19.1436 4.08924 20.5698 5.50186 21.1655 7.37407C22.3781 11.1848 20.1745 16.5164 12.3922 20.4074C12.1453 20.5309 11.8548 20.5309 11.6079 20.4074C3.82557 16.5164 1.62204 11.1848 2.83456 7.37407C3.43027 5.50186 4.85654 4.08924 6.69803 3.64547C8.3639 3.24403 10.241 3.66317 12.0001 5.03079ZM12.7604 6.67496C12.7263 6.71453 12.6881 6.75158 12.6459 6.78554C12.0103 7.29757 11.4898 7.97487 11.1458 8.65209C10.7918 9.34882 10.6732 9.94693 10.7117 10.3036C10.7298 10.4711 10.7748 10.523 10.7782 10.5267C10.7797 10.5284 10.7829 10.5317 10.7942 10.5367C10.8077 10.5427 10.8435 10.5554 10.9131 10.5598C11.2442 10.5805 11.984 10.3966 13.2676 9.54096C13.4698 9.40616 13.7189 9.36133 13.9554 9.41717C14.1919 9.473 14.3946 9.6245 14.5152 9.83551C14.8489 10.4195 15.5095 11.2259 16.3576 11.7193C17.1679 12.1907 18.1188 12.3687 19.2072 11.8245C19.209 11.8236 19.2109 11.8226 19.2127 11.8217C19.8192 10.3214 19.8281 8.95442 19.4944 7.90579C19.0672 6.56295 18.0821 5.63732 16.8912 5.35034C15.755 5.07653 14.2844 5.35225 12.7604 6.67496Z" fill="#16191D"/>
</svg>
