<svg width="24" height="24" viewBox="0 0 24 24" fill="none" xmlns="http://www.w3.org/2000/svg">
<path d="M12.75 14.79C12.75 14.3758 12.4142 14.04 12 14.04C11.5858 14.04 11.25 14.3758 11.25 14.79V15.79C11.25 16.2043 11.5858 16.54 12 16.54C12.4142 16.54 12.75 16.2043 12.75 15.79V14.79Z" fill="#16191D"/>
<path fill-rule="evenodd" clip-rule="evenodd" d="M7.25 6.74316C7.25 4.11981 9.37665 1.99316 12 1.99316C14.6234 1.99316 16.75 4.11981 16.75 6.74316V7.29745C16.75 7.71167 16.4142 8.04745 16 8.04745C15.5858 8.04745 15.25 7.71167 15.25 7.29745V6.74316C15.25 4.94824 13.7949 3.49316 12 3.49316C10.2051 3.49316 8.75 4.94824 8.75 6.74316V9.54004H17.5C18.7426 9.54004 19.75 10.5474 19.75 11.79V18.79C19.75 20.0327 18.7426 21.04 17.5 21.04H6.5C5.25736 21.04 4.25 20.0327 4.25 18.79V11.79C4.25 10.5474 5.25736 9.54004 6.5 9.54004H7.25V6.74316ZM8 11.0425C7.97922 11.0425 7.95864 11.0417 7.93829 11.04H6.5C6.08579 11.04 5.75 11.3758 5.75 11.79V18.79C5.75 19.2043 6.08579 19.54 6.5 19.54H17.5C17.9142 19.54 18.25 19.2043 18.25 18.79V11.79C18.25 11.3758 17.9142 11.04 17.5 11.04H8.06171C8.04136 11.0417 8.02078 11.0425 8 11.0425Z" fill="#16191D"/>
</svg>
