<svg width="24" height="24" viewBox="0 0 24 24" fill="none" xmlns="http://www.w3.org/2000/svg">
<path d="M11.7755 10.5852C11.7764 10.9866 11.9341 11.3987 12.216 11.6938C11.7591 12.0365 11.4922 12.6166 11.4922 13.1929C11.4922 14.0929 12.1429 15.0021 13.1517 15.0021C14.1604 15.0021 14.8111 14.0929 14.8111 13.1929C14.8111 12.6378 14.5635 12.0791 14.137 11.7325C14.3765 11.4999 14.5339 11.1851 14.5913 10.8581C14.5966 10.8546 14.6023 10.8509 14.6081 10.8472C14.6811 10.8016 14.7523 10.7525 14.8215 10.7001C15.2849 10.3493 15.6414 9.86528 15.8627 9.31255C16.084 8.75992 16.1651 8.15184 16.1007 7.55498L15.4028 7.63024L16.1007 7.55498C16.0363 6.95814 15.8278 6.38554 15.4896 5.90359C15.1511 5.4211 14.6919 5.04377 14.1551 4.83012C13.6166 4.61579 13.0319 4.57945 12.4727 4.72825C11.9149 4.87666 11.4188 5.19923 11.0342 5.64259C10.6502 6.08518 10.3896 6.63319 10.271 7.22047C10.1235 7.95096 10.4957 8.81414 11.3121 9.03456C11.7416 9.15053 12.1344 9.05054 12.4396 8.82899C12.0845 9.23939 11.774 9.81887 11.7755 10.5852ZM14.5963 10.8283C14.5963 10.8283 14.5963 10.8283 14.5963 10.8283ZM13.1798 8.19653C13.062 8.27023 12.9178 8.37167 12.767 8.50221C12.9036 8.31696 13.0003 8.10117 13.0457 7.87594C13.0584 7.81346 13.0839 7.7673 13.1086 7.73885L12.5783 7.27882L13.1086 7.73885C13.1326 7.71116 13.1512 7.70469 13.1558 7.70349C13.1584 7.70279 13.1598 7.7028 13.1607 7.70285C13.1616 7.7029 13.1641 7.70315 13.1686 7.70494L13.4224 7.06713L13.1686 7.70494C13.1774 7.70843 13.2002 7.72088 13.2252 7.7565C13.2506 7.79267 13.2726 7.84573 13.2797 7.911L13.2797 7.911C13.2867 7.97624 13.2772 8.04016 13.256 8.09302C13.2349 8.14579 13.207 8.17645 13.1876 8.19111L13.1876 8.19112C13.1868 8.19169 13.1861 8.19224 13.1854 8.19276C13.1834 8.1942 13.1815 8.19545 13.1798 8.19653ZM13.9077 8.35393C13.9725 8.19216 13.9967 8.01263 13.9776 7.83574L13.9077 8.35393ZM7.16202 5.3401C7.16202 4.49068 7.85061 3.8021 8.70002 3.8021H17.66C18.5094 3.8021 19.198 4.49068 19.198 5.3401V14.3001C19.198 15.1495 18.5094 15.8381 17.66 15.8381H8.70002C7.85061 15.8381 7.16202 15.1495 7.16202 14.3001V5.3401Z" fill="#16191D" stroke="#16191D" stroke-width="1.404"/>
</svg>
