<svg width="24" height="24" viewBox="0 0 24 24" fill="none" xmlns="http://www.w3.org/2000/svg">
<path d="M9.06994 5.55932C8.83806 4.97138 8.72212 4.67741 8.55576 4.59121C8.41152 4.51647 8.23995 4.51647 8.09571 4.59121C7.92935 4.67741 7.8134 4.97138 7.58152 5.55933L7.2353 6.43718C7.09591 6.79062 7.02621 6.96733 6.91949 7.11635C6.82489 7.24843 6.70925 7.36408 6.57716 7.45868C6.42815 7.5654 6.25143 7.63509 5.898 7.77449L5.02014 8.12071C4.4322 8.35259 4.13822 8.46853 4.05203 8.63489C3.97729 8.77914 3.97729 8.9507 4.05203 9.09494C4.13822 9.26131 4.4322 9.37725 5.02014 9.60913L5.898 9.95535C6.25143 10.0947 6.42815 10.1644 6.57716 10.2712C6.70925 10.3658 6.82489 10.4814 6.91949 10.6135C7.02621 10.7625 7.09591 10.9392 7.2353 11.2927L7.58152 12.1705C7.8134 12.7585 7.92935 13.0524 8.09571 13.1386C8.23995 13.2134 8.41152 13.2134 8.55576 13.1386C8.72212 13.0524 8.83806 12.7585 9.06994 12.1705L9.41617 11.2927C9.55556 10.9392 9.62525 10.7625 9.73198 10.6135C9.82657 10.4814 9.94222 10.3658 10.0743 10.2712C10.2233 10.1644 10.4 10.0947 10.7535 9.95535L11.6313 9.60913C12.2193 9.37725 12.5132 9.26131 12.5994 9.09494C12.6742 8.9507 12.6742 8.77914 12.5994 8.63489C12.5132 8.46853 12.2193 8.35259 11.6313 8.12071L10.7535 7.77449C10.4 7.63509 10.2233 7.5654 10.0743 7.45868C9.94222 7.36408 9.82657 7.24843 9.73198 7.11635C9.62525 6.96733 9.55556 6.79062 9.41617 6.43718L9.06994 5.55932Z" fill="#16191D"/>
<path d="M17.9242 9.85214C17.6923 9.2642 17.5764 8.97022 17.41 8.88403C17.2658 8.80929 17.0942 8.80929 16.9499 8.88403C16.7836 8.97022 16.6676 9.2642 16.4358 9.85214L16.4057 9.92825C16.3068 10.1792 16.2573 10.3047 16.1815 10.4105C16.1143 10.5043 16.0322 10.5864 15.9385 10.6535C15.8326 10.7293 15.7072 10.7788 15.4562 10.8778L15.3801 10.9078C14.7922 11.1397 14.4982 11.2556 14.412 11.422C14.3373 11.5662 14.3373 11.7378 14.412 11.882C14.4982 12.0484 14.7922 12.1643 15.3801 12.3962L15.4562 12.4262C15.7072 12.5252 15.8326 12.5747 15.9385 12.6505C16.0322 12.7176 16.1143 12.7997 16.1815 12.8935C16.2573 12.9993 16.3068 13.1248 16.4057 13.3757L16.4358 13.4519C16.6676 14.0398 16.7836 14.3338 16.9499 14.42C17.0942 14.4947 17.2658 14.4947 17.41 14.42C17.5764 14.3338 17.6923 14.0398 17.9242 13.4519L17.9542 13.3757C18.0532 13.1248 18.1027 12.9993 18.1784 12.8935C18.2456 12.7997 18.3277 12.7176 18.4215 12.6505C18.5273 12.5747 18.6528 12.5252 18.9037 12.4262L18.9798 12.3962C19.5678 12.1643 19.8617 12.0484 19.9479 11.882C20.0227 11.7378 20.0227 11.5662 19.9479 11.422C19.8617 11.2556 19.5678 11.1397 18.9798 10.9078L18.9037 10.8778C18.6528 10.7788 18.5273 10.7293 18.4215 10.6535C18.3277 10.5864 18.2456 10.5043 18.1784 10.4105C18.1027 10.3047 18.0532 10.1792 17.9542 9.92825L17.9242 9.85214Z" fill="#16191D"/>
<path d="M12.6814 15.7551C12.525 15.3585 12.4468 15.1602 12.3527 15.0795C12.1654 14.9188 11.8889 14.9188 11.7016 15.0795C11.6075 15.1602 11.5293 15.3585 11.3729 15.7551C11.2892 15.9672 11.2474 16.0732 11.1834 16.1627C11.1266 16.2419 11.0572 16.3113 10.978 16.3681C10.8886 16.4321 10.7825 16.4739 10.5705 16.5576C10.1738 16.714 9.97554 16.7922 9.89482 16.8863C9.73412 17.0736 9.73412 17.3501 9.89482 17.5374C9.97554 17.6315 10.1738 17.7097 10.5705 17.8661C10.7825 17.9498 10.8886 17.9916 10.978 18.0556C11.0572 18.1124 11.1266 18.1818 11.1834 18.261C11.2474 18.3504 11.2892 18.4565 11.3729 18.6685C11.5293 19.0652 11.6075 19.2635 11.7016 19.3442C11.8889 19.5049 12.1654 19.5049 12.3527 19.3442C12.4468 19.2635 12.525 19.0652 12.6814 18.6685C12.7651 18.4565 12.8069 18.3504 12.8709 18.261C12.9277 18.1818 12.9971 18.1124 13.0763 18.0556C13.1657 17.9916 13.2718 17.9498 13.4838 17.8661C13.8805 17.7097 14.0788 17.6315 14.1595 17.5374C14.3202 17.3501 14.3202 17.0736 14.1595 16.8863C14.0788 16.7922 13.8805 16.714 13.4838 16.5576C13.2718 16.4739 13.1657 16.4321 13.0763 16.3681C12.9971 16.3113 12.9277 16.2419 12.8709 16.1627C12.8069 16.0732 12.7651 15.9672 12.6814 15.7551Z" fill="#16191D"/>
</svg>
