<svg width="20" height="20" viewBox="0 0 20 20" fill="none" xmlns="http://www.w3.org/2000/svg">
<path d="M12.2491 8.21685C12.542 7.92396 12.542 7.44909 12.2491 7.15619C11.9562 6.8633 11.4813 6.8633 11.1884 7.15619L9.41397 8.93065L8.81165 8.32817C8.51879 8.03524 8.04392 8.03518 7.75099 8.32804C7.45806 8.6209 7.458 9.09577 7.75085 9.3887L8.88351 10.5216C9.02416 10.6623 9.21493 10.7414 9.41386 10.7414C9.61279 10.7414 9.80357 10.6624 9.94424 10.5217L12.2491 8.21685Z" fill="#576175"/>
<path fill-rule="evenodd" clip-rule="evenodd" d="M9.99938 0.991211C6.76988 0.991211 4.15186 3.60924 4.15186 6.83873V17.4893H2.75244C2.33823 17.4893 2.00244 17.825 2.00244 18.2393C2.00244 18.6535 2.33823 18.9893 2.75244 18.9893H4.97334C4.99288 18.9906 5.0126 18.9912 5.03246 18.9912H14.9663C14.9862 18.9912 15.0059 18.9906 15.0254 18.9893H17.2475C17.6617 18.9893 17.9975 18.6535 17.9975 18.2393C17.9975 17.825 17.6617 17.4893 17.2475 17.4893H15.8469V6.83873C15.8469 3.60924 13.2289 0.991211 9.99938 0.991211ZM14.3469 17.4893V15.0146H5.65186V17.4893H14.3469ZM14.3469 6.83873V13.5146H5.65186V6.83873C5.65186 4.43766 7.59831 2.49121 9.99938 2.49121C12.4005 2.49121 14.3469 4.43766 14.3469 6.83873Z" fill="#576175"/>
</svg>
