<svg width="24" height="24" viewBox="0 0 24 24" fill="none" xmlns="http://www.w3.org/2000/svg">
<path d="M9 10.5762C9.82843 10.5762 10.5 9.9046 10.5 9.07617C10.5 8.24774 9.82843 7.57617 9 7.57617C8.17157 7.57617 7.5 8.24774 7.5 9.07617C7.5 9.9046 8.17157 10.5762 9 10.5762Z" fill="#16191D"/>
<path d="M8.67602 13.1421C8.53514 12.7526 8.10517 12.551 7.71565 12.6919C7.32613 12.8328 7.12456 13.2627 7.26543 13.6523C7.969 15.5976 9.81883 16.9947 12 16.9947C14.1811 16.9947 16.031 15.5976 16.7345 13.6523C16.8754 13.2627 16.6738 12.8328 16.2843 12.6919C15.8948 12.551 15.4648 12.7526 15.3239 13.1421C14.8254 14.5206 13.521 15.4947 12 15.4947C10.479 15.4947 9.17456 14.5206 8.67602 13.1421Z" fill="#16191D"/>
<path d="M16.5 9.07617C16.5 9.9046 15.8284 10.5762 15 10.5762C14.1716 10.5762 13.5 9.9046 13.5 9.07617C13.5 8.24774 14.1716 7.57617 15 7.57617C15.8284 7.57617 16.5 8.24774 16.5 9.07617Z" fill="#16191D"/>
<path fill-rule="evenodd" clip-rule="evenodd" d="M12.0068 2C6.48399 2 2.00684 6.47715 2.00684 12C2.00684 17.5228 6.48399 22 12.0068 22C17.5297 22 22.0068 17.5228 22.0068 12C22.0068 6.47715 17.5297 2 12.0068 2ZM3.50684 12C3.50684 7.30558 7.31242 3.5 12.0068 3.5C16.7013 3.5 20.5068 7.30558 20.5068 12C20.5068 16.6944 16.7013 20.5 12.0068 20.5C7.31242 20.5 3.50684 16.6944 3.50684 12Z" fill="#16191D"/>
</svg>
