<svg width="24" height="24" viewBox="0 0 24 24" fill="none" xmlns="http://www.w3.org/2000/svg">
<path d="M13.4727 13.502C14.025 13.502 14.4727 13.0542 14.4727 12.502C14.4727 11.9497 14.025 11.502 13.4727 11.502C12.9204 11.502 12.4727 11.9497 12.4727 12.502C12.4727 13.0542 12.9204 13.502 13.4727 13.502Z" fill="#16191D"/>
<path d="M13.2884 6.9311C13.4454 6.89499 13.6092 6.90363 13.7615 6.95603C13.9137 7.00843 14.0482 7.10248 14.1497 7.22751C14.2511 7.35253 14.3155 7.50351 14.3354 7.66328C14.3553 7.82305 14.33 7.98521 14.2624 8.13132C14.1947 8.27743 14.0875 8.40163 13.9527 8.48982C13.9326 8.50298 13.912 8.51526 13.891 8.52663C13.4662 8.75656 12.7665 9.28084 12.7686 10.1453C12.7696 10.5595 13.1062 10.8945 13.5204 10.8935C13.9346 10.8925 14.2695 10.556 14.2686 10.1418C14.2686 10.1418 14.2694 10.138 14.2718 10.1324C14.2766 10.1207 14.2888 10.0977 14.3164 10.0651C14.3749 9.99564 14.4744 9.91649 14.605 9.84583C14.6626 9.81462 14.7191 9.78094 14.7743 9.74485C15.1438 9.50297 15.438 9.16228 15.6236 8.7615C15.8091 8.36072 15.8785 7.91592 15.8239 7.47767C15.7692 7.03942 15.5927 6.62529 15.3144 6.28235C15.0362 5.93941 14.6672 5.68141 14.2496 5.53768C13.832 5.39395 13.3825 5.37026 12.9521 5.46929C12.5217 5.56833 12.1277 5.78611 11.8149 6.0979C11.5021 6.40969 11.2831 6.80297 11.1827 7.23305C11.0885 7.63642 11.3391 8.03976 11.7425 8.13393C12.1459 8.22811 12.5492 7.97747 12.6434 7.5741C12.68 7.41731 12.7598 7.27393 12.8739 7.16026C12.9879 7.0466 13.1315 6.9672 13.2884 6.9311Z" fill="#16191D"/>
<path d="M20.3507 18.1393C20.5824 18.2775 20.8706 18.2805 21.1052 18.1472C21.3398 18.014 21.4847 17.7649 21.4847 17.4951L21.4846 4.9951C21.4846 3.75247 20.4773 2.74512 19.2346 2.74512H7.77014C6.52749 2.74512 5.52012 3.75249 5.52014 4.99514L5.52016 7.49507H4.76535C3.52272 7.49507 2.51536 8.50241 2.51535 9.74505L2.51526 20.1245C2.51526 20.3943 2.6602 20.6434 2.89482 20.7766C3.12944 20.9099 3.41756 20.9069 3.64933 20.7687L6.76282 18.9125C6.80153 18.8894 6.84577 18.8772 6.89084 18.8772H14.0088C15.2515 18.8772 16.2588 17.8699 16.2588 16.6272L16.2588 15.8913H16.5111C16.5562 15.8913 16.6005 15.9035 16.6392 15.9265L20.3507 18.1393ZM14.7588 15.8913L14.7588 16.6272C14.7588 17.0414 14.423 17.3772 14.0088 17.3772L6.89084 17.3772C6.57533 17.3772 6.26569 17.4625 5.99469 17.6241L4.01527 18.8042L4.01535 9.74506C4.01535 9.33085 4.35114 8.99507 4.76535 8.99507H5.52018L5.52023 13.6413C5.52024 14.8839 6.52759 15.8913 7.77022 15.8913L14.7588 15.8913ZM19.9846 4.99511L19.9847 16.1748L17.4073 14.6381C17.1363 14.4766 16.8267 14.3913 16.5111 14.3913L7.77023 14.3913C7.35602 14.3913 7.02023 14.0555 7.02023 13.6413L7.02014 4.99513C7.02013 4.58091 7.35592 4.24512 7.77014 4.24512L19.2346 4.24512C19.6488 4.24512 19.9846 4.5809 19.9846 4.99511Z" fill="#16191D"/>
</svg>
