<svg width="24" height="24" viewBox="0 0 24 24" fill="none" xmlns="http://www.w3.org/2000/svg">
<path d="M17 20.5628C16.71 20.5628 16.4 20.4803 16.2 20.3903C15.49 20.0203 14.9 19.5003 14.4 18.0003C13.89 16.4403 12.92 15.7103 12 15.0003C11.21 14.3903 10.31 13.8903 9.59999 12.6003C9.06999 11.6403 8.54874 10.3203 8.54874 9.3903C8.54874 6.5903 11.2 4.20029 14 4.20029C16.8 4.20029 19.2 6.5903 19.2 9.3903H21C21 5.4603 17.93 2.3903 14 2.3903C10.07 2.3903 6.99999 5.4603 6.99999 9.3903C6.99999 10.6503 7.37999 12.0403 8.06999 13.2903C8.97999 14.9403 10.05 15.7703 10.92 16.4403C11.73 17.0603 12.31 17.5103 12.63 18.4903C13.23 20.3103 14 21.3303 15.36 22.0403C15.87 22.2703 16.43 22.3903 17 22.3903C19.21 22.3903 21 20.6003 21 18.3903H19.2C19.2 19.4903 18.1 20.5628 17 20.5628ZM7.20012 3.00029L6.21999 1.80029C4.22999 3.79029 3.29807 6.3503 3.29807 9.3903C3.29807 12.4303 4.22999 14.7445 6.21999 16.7345L7.20012 15.6003C5.58012 13.9703 4.79982 11.8803 4.79982 9.3903C4.79982 6.9003 5.57012 4.62029 7.20012 3.00029ZM11.5 9.3903C11.5 10.7703 12.62 11.8903 14 11.8903C15.38 11.8903 16.5 10.7703 16.5 9.3903C16.5 8.0103 15.38 6.8903 14 6.8903C12.62 6.8903 11.5 8.0103 11.5 9.3903Z" fill="#2B303B"/>
</svg>
