<svg width="21" height="20" viewBox="0 0 21 20" fill="none" xmlns="http://www.w3.org/2000/svg">
<g clip-path="url(#clip0_1505_60556)">
<path fill-rule="evenodd" clip-rule="evenodd" d="M15.7958 3.17754C14.1793 1.96547 12.1798 1.37701 10.1644 1.52013C8.14892 1.66324 6.25268 2.52834 4.82358 3.95668C3.39449 5.38503 2.52839 7.28081 2.38421 9.29618C2.24003 11.3115 2.82744 13.3113 4.03866 14.9285C5.24988 16.5458 7.00366 17.672 8.9782 18.1005C10.9527 18.5291 13.0156 18.2313 14.7883 17.2617L14.7887 17.2624C14.9522 17.1726 15.1492 17.1434 15.3436 17.1954L19.0521 18.1891L18.0584 14.4806C18.0067 14.2874 18.0353 14.0916 18.1237 13.9286L18.1233 13.9284C19.0938 12.1562 19.3928 10.0935 18.9653 8.11876C18.5377 6.14399 17.4124 4.38961 15.7958 3.17754ZM19.5832 14.3755C20.6118 12.3496 20.9133 10.0281 20.4313 7.80138C19.9274 5.47381 18.6011 3.40602 16.6957 1.97741C14.7903 0.548805 12.4336 -0.144791 10.0581 0.0238931C7.68261 0.192577 5.44761 1.21223 3.7632 2.89574C2.0788 4.57926 1.05797 6.81373 0.888034 9.18914C0.718097 11.5646 1.41045 13.9216 2.83805 15.8277C4.26566 17.7339 6.33275 19.0613 8.66005 19.5664C10.8877 20.0499 13.2108 19.749 15.2379 18.7201L19.9187 19.9742C20.1775 20.0436 20.4537 19.9696 20.6431 19.7801C20.8326 19.5907 20.9066 19.3145 20.8372 19.0557L19.5832 14.3755Z" fill="#576175"/>
</g>
<defs>
<clipPath id="clip0_1505_60556">
<rect width="20" height="20" fill="white" transform="translate(0.862793)"/>
</clipPath>
</defs>
</svg>
