<svg width="24" height="24" viewBox="0 0 24 24" fill="none" xmlns="http://www.w3.org/2000/svg">
<path d="M7.42352 16.2236C7.1035 16.9229 7.65774 17.6154 8.32697 17.6154H15.673C16.3422 17.6154 16.8964 16.9229 16.5764 16.2236C15.78 14.4831 14.0338 13.2679 12 13.2679C9.96615 13.2679 8.21994 14.4831 7.42352 16.2236Z" fill="#16191D"/>
<path d="M7.11622 7.43982C7.40914 7.14696 7.88402 7.14702 8.17688 7.43995L10.2804 9.54395C10.5733 9.83688 10.5732 10.3118 10.2803 10.6046C9.98734 10.8975 9.51247 10.8974 9.21961 10.6045L7.11609 8.50048C6.82323 8.20756 6.82329 7.73268 7.11622 7.43982Z" fill="#16191D"/>
<path d="M10.2803 7.43982C10.5732 7.73268 10.5733 8.20756 10.2804 8.50048L8.17688 10.6045C7.88402 10.8974 7.40914 10.8975 7.11622 10.6046C6.82329 10.3118 6.82323 9.83688 7.11609 9.54395L9.21961 7.43995C9.51247 7.14702 9.98734 7.14696 10.2803 7.43982Z" fill="#16191D"/>
<path d="M13.7197 7.43982C14.0127 7.14696 14.4875 7.14702 14.7804 7.43995L16.8839 9.54395C17.1768 9.83688 17.1767 10.3118 16.8838 10.6046C16.5909 10.8975 16.116 10.8974 15.8231 10.6045L13.7196 8.50048C13.4267 8.20756 13.4268 7.73268 13.7197 7.43982Z" fill="#16191D"/>
<path d="M16.8838 7.43982C17.1767 7.73268 17.1768 8.20756 16.8839 8.50048L14.7804 10.6045C14.4875 10.8974 14.0127 10.8975 13.7197 10.6046C13.4268 10.3118 13.4267 9.83688 13.7196 9.54395L15.8231 7.43995C16.116 7.14702 16.5909 7.14696 16.8838 7.43982Z" fill="#16191D"/>
<path d="M12.0068 3.5C7.31242 3.5 3.50684 7.30558 3.50684 12C3.50684 16.6944 7.31242 20.5 12.0068 20.5C16.7013 20.5 20.5068 16.6944 20.5068 12C20.5068 7.30558 16.7013 3.5 12.0068 3.5ZM2.00684 12C2.00684 6.47715 6.48399 2 12.0068 2C17.5297 2 22.0068 6.47715 22.0068 12C22.0068 17.5228 17.5297 22 12.0068 22C6.48399 22 2.00684 17.5228 2.00684 12Z" fill="#16191D"/>
</svg>
