<svg width="20" height="20" viewBox="0 0 20 20" fill="none" xmlns="http://www.w3.org/2000/svg">
<path fill-rule="evenodd" clip-rule="evenodd" d="M6.12373 3.51172C5.1982 3.51172 4.27547 3.87622 3.57325 4.60319L3.57168 4.60482C2.18385 6.0329 2.14146 8.3409 3.47696 9.81643C5.52343 12.0771 7.73456 14.1708 10.0034 16.2442C12.2671 14.1701 14.4797 12.0736 16.5207 9.81667L16.5229 9.81427C17.1754 9.09902 17.5024 8.1836 17.5024 7.26166C17.5024 6.29604 17.1409 5.33497 16.4314 4.60482C15.0549 3.1884 12.8492 3.1463 11.4288 4.50507C11.1265 4.80033 10.8269 5.09296 10.5277 5.39041C10.3864 5.53089 10.195 5.60937 9.99575 5.60852C9.7965 5.60766 9.60577 5.52756 9.46567 5.38587C9.17395 5.09087 8.87609 4.79992 8.57641 4.51246L8.57455 4.51067C7.88159 3.84136 6.99723 3.51172 6.12373 3.51172ZM2.49517 3.56024C3.48666 2.53425 4.80147 2.01172 6.12373 2.01172C7.37478 2.01172 8.63549 2.48458 9.61567 3.43082C9.74388 3.5538 9.8724 3.67803 10.0008 3.80346C10.1283 3.67854 10.2555 3.55431 10.3822 3.43055L10.3885 3.42442C12.4071 1.48985 15.5584 1.55417 17.5071 3.55943C18.5016 4.58278 19.0024 5.92449 19.0024 7.26166C19.0024 8.53636 18.5496 9.8176 17.6322 10.824C15.3886 13.3048 12.9531 15.5845 10.5096 17.8138C10.2235 18.0748 9.78583 18.0751 9.4994 17.8146C7.04791 15.5844 4.61459 13.3082 2.36488 10.8231C0.497794 8.76018 0.557744 5.55471 2.49517 3.56024Z" fill="#576175"/>
</svg>
