<svg width="24" height="24" viewBox="0 0 24 24" fill="none" xmlns="http://www.w3.org/2000/svg">
<path d="M11.9999 2.99121C8.77037 2.99121 6.15234 5.60924 6.15234 8.83873V19.4893H4.75391C4.33969 19.4893 4.00391 19.825 4.00391 20.2393C4.00391 20.6535 4.33969 20.9893 4.75391 20.9893H6.97383C6.99337 20.9906 7.01308 20.9912 7.03295 20.9912H16.9668C16.9867 20.9912 17.0064 20.9906 17.0259 20.9893H19.2489C19.6632 20.9893 19.9989 20.6535 19.9989 20.2393C19.9989 19.825 19.6632 19.4893 19.2489 19.4893H17.8474V8.83873C17.8474 5.60924 15.2294 2.99121 11.9999 2.99121ZM16.3474 19.4893H7.65234V17.0146H16.3474V19.4893ZM14.2491 9.15619C14.542 9.44909 14.542 9.92396 14.2491 10.2169L11.9442 12.5217C11.8036 12.6624 11.6128 12.7414 11.4139 12.7414C11.2149 12.7414 11.0242 12.6623 10.8835 12.5216L9.75085 11.3887C9.458 11.0958 9.45806 10.6209 9.75099 10.328C10.0439 10.0352 10.5188 10.0352 10.8116 10.3282L11.414 10.9307L13.1884 9.15619C13.4813 8.8633 13.9562 8.8633 14.2491 9.15619Z" fill="#16191D"/>
</svg>
