<svg width="20" height="20" viewBox="0 0 20 20" fill="none" xmlns="http://www.w3.org/2000/svg">
<g clip-path="url(#clip0_1505_60528)">
<path fill-rule="evenodd" clip-rule="evenodd" d="M15.7387 0.270078C15.9917 0.329799 16.1957 0.51625 16.2779 0.762844L17.0178 2.98237L19.2373 3.72221C19.4839 3.80441 19.6703 4.00843 19.73 4.26141C19.7898 4.51439 19.7142 4.78025 19.5304 4.96406L16.9552 7.53934C16.8152 7.67929 16.6256 7.75825 16.4277 7.759L13.198 7.77128L10.6567 10.2117C10.3579 10.4986 9.88314 10.489 9.59624 10.1902C9.30934 9.89142 9.31897 9.41664 9.61773 9.12974L12.1539 6.69432L12.2414 3.55441C12.2467 3.3628 12.3252 3.18051 12.4608 3.04497L15.0361 0.469685C15.2199 0.285884 15.4857 0.210358 15.7387 0.270078ZM13.6663 6.26949L16.113 6.26019L17.6117 4.76149L16.1877 4.28681C15.9637 4.21216 15.788 4.03642 15.7133 3.81247L15.2386 2.38844L13.7325 3.89456L13.6663 6.26949ZM10.2082 1.75264C8.52437 1.71014 6.86789 2.18404 5.46134 3.11067C4.05479 4.0373 2.96557 5.37225 2.34004 6.93613C1.7145 8.50001 1.58264 10.2179 1.96216 11.8589C2.34168 13.5 3.2144 14.9855 4.46304 16.1159C5.71169 17.2464 7.27643 17.9676 8.947 18.1825C10.6176 18.3975 12.3139 18.096 13.8081 17.3186C15.3023 16.5411 16.5227 15.3249 17.3053 13.8334C18.0879 12.3419 18.3953 10.6467 18.1861 8.97535C18.1347 8.56435 18.4262 8.18946 18.8372 8.13801C19.2482 8.08656 19.6231 8.37804 19.6745 8.78905C19.9217 10.7642 19.5585 12.7678 18.6335 14.5304C17.7086 16.2931 16.2663 17.7304 14.5005 18.6492C12.7346 19.568 10.7299 19.9243 8.75554 19.6703C6.78123 19.4162 4.932 18.5639 3.45632 17.2279C1.98065 15.892 0.949254 14.1363 0.50073 12.1969C0.0522072 10.2575 0.208049 8.22728 0.947315 6.37906C1.68658 4.53083 2.97385 2.95317 4.63613 1.85806C6.29842 0.762958 8.25607 0.202891 10.246 0.253119C10.6601 0.263571 10.9873 0.607724 10.9769 1.02181C10.9664 1.43589 10.6223 1.76309 10.2082 1.75264ZM10 5.50001C9.11008 5.50001 8.24015 5.76391 7.50021 6.25832C6.76027 6.75273 6.18355 7.45546 5.843 8.27764C5.50244 9.09982 5.41333 10.0045 5.58695 10.8773C5.76056 11.7502 6.1891 12.5519 6.81837 13.1812C7.44764 13.8104 8.24937 14.239 9.12219 14.4126C9.99501 14.5862 10.8997 14.4971 11.7219 14.1565C12.5441 13.816 13.2468 13.2393 13.7412 12.4993C14.2356 11.7594 14.4995 10.8894 14.4995 9.99953C14.4995 9.58531 14.8353 9.24953 15.2495 9.24953C15.6637 9.24953 15.9995 9.58531 15.9995 9.99953C15.9995 11.1861 15.6476 12.3461 14.9884 13.3327C14.3292 14.3193 13.3922 15.0883 12.2959 15.5424C11.1996 15.9964 9.99335 16.1153 8.82956 15.8838C7.66577 15.6523 6.59675 15.0809 5.75771 14.2418C4.91866 13.4028 4.34726 12.3338 4.11577 11.17C3.88428 10.0062 4.00309 8.79988 4.45718 7.70361C4.91127 6.60735 5.68024 5.67035 6.66685 5.01111C7.65347 4.35188 8.81341 4.00002 10 4.00002C10.4142 4.00002 10.75 4.3358 10.75 4.75001C10.75 5.16423 10.4142 5.50002 10 5.50001Z" fill="#576175"/>
</g>
<defs>
<clipPath id="clip0_1505_60528">
<rect width="20" height="20" fill="white"/>
</clipPath>
</defs>
</svg>
