<svg width="24" height="24" viewBox="0 0 24 24" fill="none" xmlns="http://www.w3.org/2000/svg">
<path fill-rule="evenodd" clip-rule="evenodd" d="M12 3.54004C9.37665 3.54004 7.25 5.66669 7.25 8.29004V9.54004H6.5C5.25736 9.54004 4.25 10.5474 4.25 11.79V18.79C4.25 20.0327 5.25736 21.04 6.5 21.04H17.5C18.7426 21.04 19.75 20.0327 19.75 18.79V11.79C19.75 10.5474 18.7426 9.54004 17.5 9.54004H16.75V8.29004C16.75 5.66669 14.6234 3.54004 12 3.54004ZM15.25 9.54004V8.29004C15.25 6.49511 13.7949 5.04004 12 5.04004C10.2051 5.04004 8.75 6.49511 8.75 8.29004V9.54004H15.25ZM12 14.04C12.4142 14.04 12.75 14.3758 12.75 14.79V15.79C12.75 16.2043 12.4142 16.54 12 16.54C11.5858 16.54 11.25 16.2043 11.25 15.79V14.79C11.25 14.3758 11.5858 14.04 12 14.04Z" fill="#16191D"/>
</svg>
