<svg width="24" height="24" viewBox="0 0 24 24" fill="none" xmlns="http://www.w3.org/2000/svg">
<path d="M17.6249 2.125C18.0058 2.125 18.3146 2.43377 18.3146 2.81465C18.3146 4.46516 19.6525 5.80316 21.3031 5.80316C21.6839 5.80316 21.9927 6.11192 21.9927 6.49281C21.9927 6.8737 21.6839 7.18246 21.3031 7.18246C19.6525 7.18246 18.3146 8.52046 18.3146 10.171C18.3146 10.5519 18.0058 10.8606 17.6249 10.8606C17.244 10.8606 16.9352 10.5519 16.9352 10.171C16.9352 8.52046 15.5972 7.18246 13.9467 7.18246C13.5659 7.18246 13.2571 6.8737 13.2571 6.49281C13.2571 6.11192 13.5659 5.80316 13.9467 5.80316C15.5972 5.80316 16.9352 4.46516 16.9352 2.81465C16.9352 2.43377 17.244 2.125 17.6249 2.125Z" fill="black"/>
<path d="M12.5674 6.49281C12.5674 5.73104 13.185 5.1135 13.9467 5.1135C14.5332 5.1135 15.0684 4.89389 15.4745 4.53241C14.3603 3.46821 12.8505 2.81465 11.1881 2.81465C7.76016 2.81465 4.98124 5.59357 4.98124 9.02154C4.98124 12.4495 7.76016 15.2284 11.1881 15.2284C13.7863 15.2284 16.0116 13.632 16.9367 11.3666C16.5236 11.1283 16.2456 10.6821 16.2456 10.171C16.2456 8.90135 15.2164 7.87212 13.9467 7.87212C13.185 7.87212 12.5674 7.25458 12.5674 6.49281Z" fill="black"/>
<path d="M5.95252 14.103C6.21275 14.0326 6.49015 14.1202 6.66265 14.3274C7.64183 15.5033 9.37099 16.148 11.1883 16.148C13.0057 16.148 14.7348 15.5033 15.714 14.3274C15.8865 14.1202 16.1639 14.0326 16.4242 14.103C16.6844 14.1734 16.8797 14.389 16.9242 14.6549C17.2077 16.3494 17.4897 18.1295 17.6655 19.2529C17.8164 20.2176 17.3617 21.2961 16.2521 21.5966C15.2815 21.8594 13.6841 22.125 11.1883 22.125C8.69262 22.125 7.09519 21.8594 6.12458 21.5966C5.01502 21.2961 4.56031 20.2176 4.71121 19.2529C4.88694 18.1295 5.16895 16.3494 5.45247 14.6549C5.49696 14.389 5.6923 14.1734 5.95252 14.103Z" fill="black"/>
</svg>
