<svg width="20" height="20" viewBox="0 0 20 20" fill="none" xmlns="http://www.w3.org/2000/svg">
<g clip-path="url(#clip0_1505_61046)">
<path d="M7 8.57617C7.82843 8.57617 8.5 7.9046 8.5 7.07617C8.5 6.24774 7.82843 5.57617 7 5.57617C6.17157 5.57617 5.5 6.24774 5.5 7.07617C5.5 7.9046 6.17157 8.57617 7 8.57617Z" fill="#576175"/>
<path d="M6.67599 11.1424C6.53512 10.7529 6.10515 10.5513 5.71563 10.6922C5.3261 10.833 5.12454 11.263 5.26541 11.6525C5.96898 13.5979 7.81881 14.995 9.99996 14.995C12.1811 14.995 14.0309 13.5979 14.7345 11.6525C14.8754 11.263 14.6738 10.833 14.2843 10.6922C13.8948 10.5513 13.4648 10.7529 13.3239 11.1424C12.8254 12.5209 11.521 13.495 9.99996 13.495C8.47894 13.495 7.17454 12.5209 6.67599 11.1424Z" fill="#576175"/>
<path d="M14.5 7.07617C14.5 7.9046 13.8284 8.57617 13 8.57617C12.1716 8.57617 11.5 7.9046 11.5 7.07617C11.5 6.24774 12.1716 5.57617 13 5.57617C13.8284 5.57617 14.5 6.24774 14.5 7.07617Z" fill="#576175"/>
<path fill-rule="evenodd" clip-rule="evenodd" d="M10.0068 0C4.48399 0 0.00683594 4.47715 0.00683594 10C0.00683594 15.5228 4.48399 20 10.0068 20C15.5297 20 20.0068 15.5228 20.0068 10C20.0068 4.47715 15.5297 0 10.0068 0ZM1.50684 10C1.50684 5.30558 5.31242 1.5 10.0068 1.5C14.7013 1.5 18.5068 5.30558 18.5068 10C18.5068 14.6944 14.7013 18.5 10.0068 18.5C5.31242 18.5 1.50684 14.6944 1.50684 10Z" fill="#576175"/>
</g>
<defs>
<clipPath id="clip0_1505_61046">
<rect width="20" height="20" fill="white"/>
</clipPath>
</defs>
</svg>
