<svg width="24" height="24" viewBox="0 0 24 24" fill="none" xmlns="http://www.w3.org/2000/svg">
<rect x="7.16208" y="3.8021" width="12.036" height="12.036" rx="1.538" stroke="#16191D" stroke-width="1.404"/>
<mask id="path-2-inside-1_5022_1752" fill="white">
<path d="M3.10008 7.57996C3.10008 6.9614 3.60152 6.45996 4.22008 6.45996H14.3001C14.9186 6.45996 15.4201 6.9614 15.4201 7.57996V18.78C15.4201 19.3985 14.9186 19.9 14.3001 19.9H6.46008C4.6044 19.9 3.10008 18.3956 3.10008 16.54V7.57996Z"/>
</mask>
<path d="M3.10008 6.45996H15.4201H3.10008ZM15.4201 18.78C15.4201 20.1739 14.29 21.304 12.8961 21.304H6.46008C3.829 21.304 1.69608 19.171 1.69608 16.54H4.50408C4.50408 17.6202 5.37981 18.496 6.46008 18.496H14.3001C14.9186 18.496 15.4201 18.496 15.4201 18.496V18.78ZM6.46008 21.304C3.829 21.304 1.69608 19.171 1.69608 16.54V8.98396C1.69608 7.58999 2.82612 6.45996 4.22008 6.45996H4.50408C4.50408 6.45996 4.50408 6.9614 4.50408 7.57996V16.54C4.50408 17.6202 5.37981 18.496 6.46008 18.496V21.304ZM15.4201 6.45996V19.9V6.45996Z" fill="#16191D" mask="url(#path-2-inside-1_5022_1752)"/>
<path d="M13.1516 14.3003C13.6804 14.3003 14.1091 13.8046 14.1091 13.1932C14.1091 12.5817 13.6804 12.086 13.1516 12.086C12.6229 12.086 12.1942 12.5817 12.1942 13.1932C12.1942 13.8046 12.6229 14.3003 13.1516 14.3003Z" fill="#16191D"/>
<path d="M12.9752 7.02534C13.1254 6.98536 13.2823 6.99493 13.4281 7.05294C13.5739 7.11095 13.7026 7.21509 13.7998 7.35351C13.8969 7.49193 13.9585 7.65909 13.9776 7.83598C13.9967 8.01288 13.9724 8.19241 13.9077 8.35418C13.8429 8.51594 13.7402 8.65346 13.6112 8.75109C13.592 8.76566 13.5723 8.77926 13.5521 8.79185C13.1454 9.04641 12.4755 9.62688 12.4775 10.584C12.4784 11.0426 12.8007 11.4135 13.1973 11.4124C13.5938 11.4113 13.9145 11.0387 13.9136 10.5802C13.9136 10.5802 13.9145 10.5759 13.9167 10.5697C13.9213 10.5568 13.933 10.5313 13.9594 10.4951C14.0154 10.4183 14.1107 10.3306 14.2357 10.2524C14.2909 10.2179 14.345 10.1806 14.3978 10.1406C14.7516 9.87281 15.0333 9.49561 15.2109 9.05188C15.3886 8.60816 15.455 8.1157 15.4027 7.63048C15.3504 7.14527 15.1814 6.68676 14.915 6.30707C14.6485 5.92738 14.2953 5.64173 13.8955 5.4826C13.4957 5.32347 13.0652 5.29724 12.6532 5.40689C12.2411 5.51653 11.8639 5.75766 11.5644 6.10286C11.2649 6.44806 11.0552 6.88349 10.959 7.35965C10.8689 7.80624 11.1089 8.2528 11.495 8.35707C11.8812 8.46134 12.2674 8.18384 12.3576 7.73725C12.3926 7.56365 12.4691 7.40491 12.5783 7.27906C12.6875 7.15322 12.825 7.06531 12.9752 7.02534Z" fill="#16191D"/>
</svg>
