<svg width="24" height="24" viewBox="0 0 24 24" fill="none" xmlns="http://www.w3.org/2000/svg">
<path d="M7 8.5C7.82843 8.5 8.5 7.82843 8.5 7C8.5 6.17157 7.82843 5.5 7 5.5C6.17157 5.5 5.5 6.17157 5.5 7C5.5 7.82843 6.17157 8.5 7 8.5ZM7 10C8.65685 10 10 8.65685 10 7C10 5.34315 8.65685 4 7 4C5.34315 4 4 5.34315 4 7C4 8.65685 5.34315 10 7 10Z" fill="#16191D"/>
<path d="M7 9.3C7.3866 9.3 7.7 9.6134 7.7 10L7.7 19C7.7 19.3866 7.3866 19.7 7 19.7C6.6134 19.7 6.3 19.3866 6.3 19L6.3 10C6.3 9.6134 6.6134 9.3 7 9.3Z" fill="#16191D"/>
<path d="M17 18.5C16.1716 18.5 15.5 17.8284 15.5 17C15.5 16.1716 16.1716 15.5 17 15.5C17.8284 15.5 18.5 16.1716 18.5 17C18.5 17.8284 17.8284 18.5 17 18.5ZM17 20C18.6569 20 20 18.6569 20 17C20 15.3431 18.6569 14 17 14C15.3431 14 14 15.3431 14 17C14 18.6569 15.3431 20 17 20Z" fill="#16191D"/>
<path d="M11.3 7C11.3 6.6134 11.6134 6.3 12 6.3H15C16.4912 6.3 17.7 7.50883 17.7 9V14C17.7 14.3866 17.3866 14.7 17 14.7C16.6134 14.7 16.3 14.3866 16.3 14V9C16.3 8.28203 15.718 7.7 15 7.7H12C11.6134 7.7 11.3 7.3866 11.3 7Z" fill="#16191D"/>
</svg>
