<svg width="24" height="24" viewBox="0 0 24 24" fill="none" xmlns="http://www.w3.org/2000/svg">
<path fill-rule="evenodd" clip-rule="evenodd" d="M8.12373 5.51172C7.1982 5.51172 6.27547 5.87622 5.57325 6.60319L5.57168 6.60482C4.18385 8.0329 4.14146 10.3409 5.47696 11.8164C7.52343 14.0771 9.73456 16.1708 12.0034 18.2442C14.2671 16.1701 16.4797 14.0736 18.5207 11.8167L18.5229 11.8143C19.1754 11.099 19.5024 10.1836 19.5024 9.26166C19.5024 8.29604 19.1409 7.33497 18.4314 6.60482C17.0549 5.1884 14.8492 5.1463 13.4288 6.50507C13.1265 6.80033 12.8269 7.09296 12.5277 7.39041C12.3864 7.53089 12.195 7.60937 11.9958 7.60851C11.7965 7.60766 11.6058 7.52756 11.4657 7.38587C11.174 7.09087 10.8761 6.79992 10.5764 6.51246L10.5745 6.51067C9.88159 5.84136 8.99723 5.51172 8.12373 5.51172ZM4.49517 5.56024C5.48666 4.53425 6.80147 4.01172 8.12373 4.01172C9.37478 4.01172 10.6355 4.48458 11.6157 5.43082C11.7439 5.5538 11.8724 5.67803 12.0008 5.80346C12.1283 5.67854 12.2555 5.55431 12.3822 5.43055L12.3885 5.42442C14.4071 3.48985 17.5584 3.55417 19.5071 5.55943C20.5016 6.58278 21.0024 7.92449 21.0024 9.26166C21.0024 10.5364 20.5496 11.8176 19.6322 12.824C17.3886 15.3048 14.9531 17.5845 12.5096 19.8138C12.2235 20.0748 11.7858 20.0751 11.4994 19.8146C9.04791 17.5844 6.61459 15.3082 4.36488 12.8231C2.49779 10.7602 2.55774 7.55471 4.49517 5.56024Z" fill="#16191D"/>
</svg>
