<svg width="20" height="20" viewBox="0 0 20 20" fill="none" xmlns="http://www.w3.org/2000/svg">
<g clip-path="url(#clip0_1505_60514)">
<path d="M8.52441 13.3359C9.0767 13.3359 9.52441 12.8882 9.52441 12.3359C9.52441 11.7837 9.0767 11.3359 8.52441 11.3359C7.97213 11.3359 7.52441 11.7837 7.52441 12.3359C7.52441 12.8882 7.97213 13.3359 8.52441 13.3359Z" fill="#576175"/>
<path d="M8.16508 5.37283C8.41524 5.31527 8.67654 5.32904 8.91927 5.41258C9.162 5.49612 9.37642 5.64608 9.53817 5.84541C9.69992 6.04474 9.80251 6.28546 9.83428 6.54019C9.86604 6.79492 9.82571 7.05345 9.71786 7.2864C9.61002 7.51935 9.43898 7.71737 9.2242 7.85796C9.18753 7.88197 9.14985 7.90413 9.11128 7.9244C8.56914 8.20946 7.76932 8.82821 7.77168 9.81394L7.77174 9.83938C7.77273 10.2536 8.10932 10.5886 8.52353 10.5876C8.93774 10.5866 9.27273 10.25 9.27174 9.83579L9.27167 9.81036C9.27156 9.76137 9.28955 9.68498 9.38216 9.57558C9.47813 9.46222 9.62793 9.34746 9.80936 9.25207C9.8901 9.20962 9.96898 9.16323 10.0457 9.113C10.4953 8.81871 10.8533 8.40419 11.0791 7.91658C11.3048 7.42896 11.3892 6.88779 11.3227 6.35458C11.2563 5.82137 11.0415 5.3175 10.7029 4.90025C10.3644 4.483 9.91551 4.16911 9.40742 3.99424C8.89934 3.81937 8.35238 3.79054 7.82872 3.91103C7.30507 4.03152 6.82571 4.2965 6.44515 4.67584C6.06458 5.05519 5.79807 5.53369 5.67589 6.05695C5.58171 6.46032 5.83236 6.86366 6.23573 6.95784C6.63909 7.05201 7.04243 6.80137 7.13661 6.398C7.19497 6.14802 7.32229 5.91943 7.5041 5.7382C7.68591 5.55698 7.91491 5.43039 8.16508 5.37283Z" fill="#576175"/>
<path fill-rule="evenodd" clip-rule="evenodd" d="M4.25342 0.00488281C3.01078 0.00488281 2.00342 1.01224 2.00342 2.25488V14.7488C2.00342 15.9914 3.01078 16.9988 4.25342 16.9988H5.00586V17.7507C5.00586 18.9934 6.01322 20.0007 7.25586 20.0007H15.7495C16.9922 20.0007 17.9995 18.9934 17.9995 17.7507V5.25684C17.9995 4.0142 16.9922 3.00684 15.7495 3.00684H14.9971V2.25488C14.9971 1.01224 13.9897 0.00488281 12.7471 0.00488281H4.25342ZM14.9971 4.50684V14.7488C14.9971 15.9914 13.9897 16.9988 12.7471 16.9988H6.50586V17.7507C6.50586 18.1649 6.84165 18.5007 7.25586 18.5007H15.7495C16.1637 18.5007 16.4995 18.1649 16.4995 17.7507V5.25684C16.4995 4.84262 16.1637 4.50684 15.7495 4.50684H14.9971ZM3.50342 2.25488C3.50342 1.84067 3.8392 1.50488 4.25342 1.50488H12.7471C13.1613 1.50488 13.4971 1.84067 13.4971 2.25488V14.7488C13.4971 15.163 13.1613 15.4988 12.7471 15.4988H4.25342C3.8392 15.4988 3.50342 15.163 3.50342 14.7488V2.25488Z" fill="#576175"/>
</g>
<defs>
<clipPath id="clip0_1505_60514">
<rect width="20" height="20" fill="white"/>
</clipPath>
</defs>
</svg>
