<svg width="24" height="24" viewBox="0 0 24 24" fill="none" xmlns="http://www.w3.org/2000/svg">
<path d="M18.2774 2.76284C18.1952 2.51625 17.9912 2.3298 17.7382 2.27008C17.4852 2.21036 17.2194 2.28588 17.0356 2.46968L14.4603 5.04497C14.3248 5.18051 14.2463 5.3628 14.2409 5.55441L14.1534 8.69432L11.6172 11.1297C11.3185 11.4166 11.3089 11.8914 11.5958 12.1902C11.8827 12.489 12.3574 12.4986 12.6562 12.2117L15.1976 9.77128L18.4272 9.759C18.6251 9.75825 18.8147 9.67929 18.9547 9.53934L21.5299 6.96406C21.7137 6.78025 21.7893 6.51439 21.7296 6.26141C21.6698 6.00843 21.4834 5.80441 21.2368 5.72221L19.0173 4.98237L18.2774 2.76284Z" fill="#16191D"/>
<path d="M12.9601 3.30669C12.994 2.74748 12.5544 2.24793 11.9655 2.25001C10.0726 2.2567 8.22023 2.8144 6.63613 3.85799C4.97385 4.9531 3.68658 6.53076 2.94732 8.37899C2.20805 10.2272 2.05221 12.2574 2.50073 14.1968C2.94925 16.1362 3.98065 17.8919 5.45632 19.2279C6.932 20.5638 8.78123 21.4161 10.7555 21.6702C12.7299 21.9243 14.7346 21.568 16.5005 20.6491C18.2663 19.7303 19.7086 18.293 20.6335 16.5303C21.4087 15.0532 21.7893 13.4069 21.7468 11.7499C21.7208 10.7354 20.7265 10.1602 19.8609 10.423L17.5638 11.1203C16.9175 11.3165 16.5361 11.8936 16.4743 12.4753C16.3975 13.1969 16.147 13.8919 15.7412 14.4993C15.2468 15.2392 14.5441 15.8159 13.7219 16.1565C12.8997 16.497 11.995 16.5861 11.1222 16.4125C10.2494 16.2389 9.44764 15.8104 8.81837 15.1811C8.1891 14.5518 7.76056 13.7501 7.58695 12.8773C7.41333 12.0044 7.50244 11.0997 7.843 10.2776C8.18355 9.45539 8.76027 8.75266 9.50021 8.25825C10.1842 7.80125 10.9792 7.54121 11.7984 7.50447C12.2925 7.4823 12.7304 7.09619 12.7629 6.56044L12.9601 3.30669Z" fill="#16191D"/>
</svg>
