<svg width="24" height="24" viewBox="0 0 24 24" fill="none" xmlns="http://www.w3.org/2000/svg">
<path d="M7.43115 14.7025C7.11113 14.0032 7.66537 13.3107 8.3346 13.3107H15.6806C16.3498 13.3107 16.9041 14.0032 16.584 14.7025C15.7876 16.443 14.0414 17.6582 12.0076 17.6582C9.97379 17.6582 8.22757 16.443 7.43115 14.7025Z" fill="#16191D"/>
<path d="M8.96678 7.5708C9.15885 7.57069 9.35096 7.64391 9.49751 7.79045L10.9971 9.2899C11.29 9.58278 11.29 10.0577 10.9972 10.3506C10.7043 10.6435 10.2294 10.6435 9.93649 10.3506L8.9668 9.38101L7.9971 10.3506C7.7042 10.6435 7.22932 10.6435 6.93644 10.3506C6.64356 10.0577 6.64358 9.58278 6.93649 9.2899L8.43609 7.79045C8.58263 7.64392 8.77472 7.5707 8.96678 7.5708Z" fill="#16191D"/>
<path d="M14.9668 7.5708C15.1588 7.57069 15.351 7.64391 15.4975 7.79045L16.9971 9.2899C17.29 9.58278 17.29 10.0577 16.9972 10.3506C16.7043 10.6435 16.2294 10.6435 15.9365 10.3506L14.9668 9.38101L13.9971 10.3506C13.7042 10.6435 13.2293 10.6435 12.9364 10.3506C12.6436 10.0577 12.6436 9.58278 12.9365 9.2899L14.4361 7.79045C14.5826 7.64392 14.7747 7.5707 14.9668 7.5708Z" fill="#16191D"/>
<path d="M12.0068 3.5C7.31242 3.5 3.50684 7.30558 3.50684 12C3.50684 16.6944 7.31242 20.5 12.0068 20.5C16.7013 20.5 20.5068 16.6944 20.5068 12C20.5068 7.30558 16.7013 3.5 12.0068 3.5ZM2.00684 12C2.00684 6.47715 6.48399 2 12.0068 2C17.5297 2 22.0068 6.47715 22.0068 12C22.0068 17.5228 17.5297 22 12.0068 22C6.48399 22 2.00684 17.5228 2.00684 12Z" fill="#16191D"/>
</svg>
