<svg width="24" height="24" viewBox="0 0 24 24" fill="none" xmlns="http://www.w3.org/2000/svg">
<path d="M21.1046 18.1472C20.87 18.2805 20.5818 18.2775 20.3501 18.1393L16.6386 15.9265C16.5998 15.9035 16.5556 15.8913 16.5105 15.8913H16.2592L16.2592 16.6267C16.2592 17.8694 15.2518 18.8767 14.0092 18.8767H6.89121C6.84614 18.8767 6.8019 18.8889 6.76319 18.912L3.64969 20.7682C3.41793 20.9064 3.1298 20.9094 2.89518 20.7762C2.66057 20.6429 2.51562 20.3938 2.51563 20.124L2.51571 9.74456C2.51573 8.50192 3.52308 7.49458 4.76571 7.49458H5.51956L5.51953 4.99514C5.51952 3.75249 6.52688 2.74512 7.76953 2.74512H19.234C20.4767 2.74512 21.484 3.75247 21.484 4.9951L21.4841 17.4951C21.4841 17.7649 21.3392 18.014 21.1046 18.1472ZM5.51957 8.99458H4.76571C4.3515 8.99458 4.01572 9.33036 4.01571 9.74457L4.01564 18.8037L5.99505 17.6236C6.26605 17.462 6.5757 17.3767 6.89121 17.3767L14.0092 17.3767C14.4234 17.3767 14.7592 17.0409 14.7592 16.6267L14.7592 15.8913L7.76962 15.8913C6.52699 15.8913 5.51963 14.8839 5.51962 13.6413L5.51957 8.99458ZM13.2894 6.9311C13.4463 6.89499 13.6102 6.90363 13.7625 6.95603C13.9147 7.00843 14.0492 7.10248 14.1507 7.22751C14.2521 7.35253 14.3165 7.50351 14.3364 7.66328C14.3563 7.82305 14.331 7.98521 14.2634 8.13132C14.1957 8.27743 14.0884 8.40163 13.9537 8.48982C13.9336 8.50298 13.913 8.51526 13.892 8.52663C13.4672 8.75656 12.7675 9.28084 12.7696 10.1453C12.7706 10.5595 13.1072 10.8945 13.5214 10.8935C13.9356 10.8925 14.2705 10.556 14.2696 10.1418C14.2697 10.1412 14.2704 10.138 14.2728 10.1324C14.2776 10.1207 14.2898 10.0977 14.3174 10.0651C14.3759 9.99564 14.4754 9.91649 14.6059 9.84583C14.6636 9.81462 14.7201 9.78094 14.7752 9.74485C15.1448 9.50297 15.439 9.16228 15.6246 8.7615C15.8101 8.36072 15.8795 7.91592 15.8248 7.47767C15.7702 7.03942 15.5937 6.62529 15.3154 6.28235C15.0371 5.93941 14.6682 5.68141 14.2506 5.53768C13.833 5.39395 13.3835 5.37026 12.9531 5.46929C12.5227 5.56833 12.1287 5.78611 11.8159 6.0979C11.5031 6.40969 11.2841 6.80297 11.1836 7.23305C11.0895 7.63642 11.3401 8.03976 11.7435 8.13393C12.1468 8.22811 12.5502 7.97747 12.6443 7.5741C12.681 7.41731 12.7608 7.27393 12.8748 7.16027C12.9889 7.0466 13.1325 6.9672 13.2894 6.9311ZM14.4724 12.502C14.4724 11.9497 14.0247 11.502 13.4724 11.502C12.9201 11.502 12.4724 11.9497 12.4724 12.502C12.4724 13.0542 12.9201 13.502 13.4724 13.502C14.0247 13.502 14.4724 13.0542 14.4724 12.502Z" fill="#16191D"/>
</svg>
