<svg width="24" height="24" viewBox="0 0 24 24" fill="none" xmlns="http://www.w3.org/2000/svg">
<mask id="path-1-inside-1_5054_12014" fill="white">
<path fill-rule="evenodd" clip-rule="evenodd" d="M6.61568 12.1984C6.61568 11.8201 7.00248 11.5651 7.35019 11.7141L12.7314 14.0203C12.8639 14.0771 13.014 14.0771 13.1465 14.0203L18.5277 11.7141C18.8754 11.5651 19.2622 11.8201 19.2622 12.1984L19.2622 16.9455C19.2622 17.1451 19.1495 17.3276 18.9709 17.4168L14.0123 19.8962C13.3366 20.234 12.5413 20.234 11.8656 19.8962L6.90696 17.4168C6.72844 17.3275 6.61568 17.1451 6.61568 16.9455V12.1984Z"/>
</mask>
<path d="M14.0123 19.8962L14.625 21.1216L14.625 21.1216L14.0123 19.8962ZM11.8656 19.8962L11.2529 21.1216L11.2529 21.1216L11.8656 19.8962ZM19.2622 16.9455L17.8922 16.9455L19.2622 16.9455ZM19.2622 12.1984L17.8922 12.1984L19.2622 12.1984ZM6.90696 17.4168L7.51968 16.1914L6.90696 17.4168ZM12.7314 14.0203L13.2711 12.761L12.7314 14.0203ZM13.1465 14.0203L13.6862 15.2796L13.1465 14.0203ZM6.8105 12.9733L12.1917 15.2796L13.2711 12.761L7.88988 10.4548L6.8105 12.9733ZM13.6862 15.2796L19.0674 12.9733L17.988 10.4548L12.6068 12.761L13.6862 15.2796ZM20.6323 16.9455L20.6323 12.1984L17.8922 12.1984L17.8922 16.9455L20.6323 16.9455ZM14.625 21.1216L19.5837 18.6422L18.3582 16.1914L13.3996 18.6708L14.625 21.1216ZM11.2529 21.1216C12.3143 21.6523 13.5636 21.6523 14.625 21.1216L13.3996 18.6708C13.1096 18.8158 12.7683 18.8158 12.4783 18.6708L11.2529 21.1216ZM6.29424 18.6422L11.2529 21.1216L12.4784 18.6708L7.51968 16.1914L6.29424 18.6422ZM5.24563 12.1984V16.9455H7.98573V12.1984H5.24563ZM17.8922 16.9455C17.8922 16.6262 18.0726 16.3342 18.3582 16.1914L19.5837 18.6422C20.2263 18.3209 20.6323 17.664 20.6323 16.9455L17.8922 16.9455ZM19.0674 12.9733C18.5111 13.2118 17.8922 12.8037 17.8922 12.1984L20.6323 12.1984C20.6323 10.8365 19.2398 9.91833 17.988 10.4548L19.0674 12.9733ZM7.51968 16.1914C7.8053 16.3342 7.98573 16.6261 7.98573 16.9455H5.24563C5.24563 17.664 5.65158 18.3208 6.29424 18.6422L7.51968 16.1914ZM12.1917 15.2796C12.6689 15.4841 13.209 15.4841 13.6862 15.2796L12.6068 12.761C12.8189 12.6702 13.059 12.6701 13.2711 12.761L12.1917 15.2796ZM7.88988 10.4548C6.63812 9.91833 5.24563 10.8365 5.24563 12.1984H7.98573C7.98573 12.8037 7.36684 13.2118 6.8105 12.9733L7.88988 10.4548Z" fill="#16191D" mask="url(#path-1-inside-1_5054_12014)"/>
<path d="M12.939 4.33645L5.17764 7.78598L12.939 11.2355L20.7004 7.78598L12.939 4.33645ZM12.6119 2.94979C12.8202 2.85723 13.0579 2.85723 13.2661 2.94979L22.4915 7.05001C23.1293 7.33344 23.1293 8.23852 22.4915 8.52195L13.2661 12.6222C13.0579 12.7147 12.8202 12.7147 12.6119 12.6222L3.38649 8.52195C2.74877 8.23852 2.74877 7.33344 3.38649 7.05001L12.6119 2.94979Z" fill="#16191D"/>
<path d="M3.45388 12.0664L3.07489 13.5823H3.83286L3.45388 12.0664ZM2.84043 10.1749C3.00008 9.53627 3.90767 9.53626 4.06733 10.1749L4.98623 13.8505C5.086 14.2496 4.78415 14.6362 4.37278 14.6362H2.53498C2.1236 14.6362 1.82175 14.2496 1.92153 13.8505L2.84043 10.1749Z" fill="#16191D"/>
</svg>
