<svg width="20" height="20" viewBox="0 0 20 20" fill="none" xmlns="http://www.w3.org/2000/svg">
<path d="M11.4727 11.502C12.0249 11.502 12.4727 11.0542 12.4727 10.502C12.4727 9.94967 12.0249 9.50195 11.4727 9.50195C10.9204 9.50195 10.4727 9.94967 10.4727 10.502C10.4727 11.0542 10.9204 11.502 11.4727 11.502Z" fill="#576175"/>
<path d="M11.2885 4.9311C11.4454 4.89499 11.6093 4.90363 11.7616 4.95603C11.9138 5.00843 12.0483 5.10248 12.1497 5.22751C12.2512 5.35253 12.3155 5.50351 12.3355 5.66328C12.3554 5.82305 12.3301 5.98521 12.2625 6.13132C12.1948 6.27743 12.0875 6.40163 11.9528 6.48982C11.9327 6.50298 11.9121 6.51526 11.8911 6.52663C11.4663 6.75656 10.7666 7.28084 10.7687 8.14533C10.7697 8.55954 11.1063 8.89453 11.5205 8.89354C11.9346 8.89255 12.2696 8.55601 12.2687 8.14185C12.2688 8.1412 12.2695 8.138 12.2718 8.13243C12.2767 8.12075 12.2889 8.09771 12.3164 8.06507C12.375 7.99564 12.4745 7.91649 12.605 7.84583C12.6627 7.81462 12.7192 7.78094 12.7743 7.74485C13.1439 7.50297 13.4381 7.16228 13.6237 6.7615C13.8092 6.36072 13.8786 5.91592 13.8239 5.47767C13.7693 5.03942 13.5928 4.62529 13.3145 4.28235C13.0362 3.93941 12.6673 3.68141 12.2497 3.53768C11.8321 3.39395 11.3826 3.37026 10.9522 3.46929C10.5218 3.56833 10.1278 3.78611 9.81499 4.0979C9.5022 4.40969 9.28314 4.80297 9.18273 5.23305C9.08855 5.63642 9.3392 6.03976 9.74256 6.13393C10.1459 6.22811 10.5493 5.97747 10.6434 5.5741C10.6801 5.41731 10.7599 5.27393 10.8739 5.16026C10.988 5.0466 11.1316 4.9672 11.2885 4.9311Z" fill="#576175"/>
<path fill-rule="evenodd" clip-rule="evenodd" d="M18.3508 16.1393C18.5826 16.2775 18.8707 16.2805 19.1053 16.1472C19.3399 16.014 19.4849 15.7649 19.4849 15.4951L19.4848 2.9951C19.4847 1.75247 18.4774 0.745117 17.2348 0.745117H5.77026C4.52761 0.745117 3.52025 1.75249 3.52026 2.99514L3.52028 5.49458H2.76523C1.52259 5.49458 0.515237 6.50192 0.515226 7.74456L0.515137 18.124C0.515134 18.3938 0.660077 18.6429 0.894695 18.7762C1.12931 18.9094 1.41744 18.9064 1.6492 18.7682L4.7627 16.912C4.80141 16.8889 4.84565 16.8767 4.89072 16.8767H12.0087C13.2513 16.8767 14.2587 15.8694 14.2587 14.6268L14.2587 13.8913H14.5113C14.5563 13.8913 14.6006 13.9035 14.6393 13.9265L18.3508 16.1393ZM12.7587 13.8913L5.77035 13.8913C4.52771 13.8913 3.52036 12.8839 3.52035 11.6413L3.5203 6.99458H2.76523C2.35102 6.99458 2.01523 7.33036 2.01523 7.74457L2.01515 16.8037L3.99456 15.6236C4.26557 15.462 4.57521 15.3767 4.89072 15.3767H12.0087C12.4229 15.3767 12.7587 15.0409 12.7587 14.6267L12.7587 13.8913ZM17.9848 2.99511L17.9849 14.1748L15.4074 12.6381C15.1364 12.4766 14.8268 12.3913 14.5113 12.3913L5.77035 12.3913C5.35614 12.3913 5.02035 12.0555 5.02035 11.6413L5.02026 2.99513C5.02025 2.58091 5.35604 2.24512 5.77026 2.24512L17.2348 2.24512C17.649 2.24512 17.9848 2.5809 17.9848 2.99511Z" fill="#576175"/>
</svg>
