<svg width="24" height="24" viewBox="0 0 24 24" fill="none" xmlns="http://www.w3.org/2000/svg">
<path d="M20.5837 16.3755C21.6123 14.3496 21.9138 12.0281 21.4318 9.80138C20.9279 7.47381 19.6016 5.40602 17.6962 3.97741C15.7908 2.5488 13.4341 1.85521 11.0586 2.02389C8.6831 2.19258 6.44809 3.21223 4.76369 4.89574C3.07928 6.57926 2.05846 8.81373 1.88852 11.1891C1.71859 13.5646 2.41094 15.9216 3.83854 17.8277C5.26614 19.7339 7.33324 21.0613 9.66054 21.5664C11.8882 22.0499 14.2113 21.749 16.2384 20.7201L20.9192 21.9742C21.178 22.0436 21.4541 21.9696 21.6436 21.7801C21.8331 21.5907 21.9071 21.3145 21.8377 21.0557L20.5837 16.3755Z" fill="#16191D"/>
</svg>
