<svg width="24" height="24" viewBox="0 0 24 24" fill="none" xmlns="http://www.w3.org/2000/svg">
<path fill-rule="evenodd" clip-rule="evenodd" d="M20.6004 19.8098C20.3657 19.9431 20.0776 19.9401 19.8458 19.8019L16.0209 17.5215C15.9822 17.4984 15.9379 17.4862 15.8929 17.4862H5.27021C4.02758 17.4862 3.02022 16.4789 3.02021 15.2363L3.02011 6.25539C3.0201 5.01274 4.02746 4.00537 5.27011 4.00537L18.7298 4.00537C19.9724 4.00537 20.9798 5.01272 20.9798 6.25535L20.9799 19.1577C20.9799 19.4275 20.835 19.6766 20.6004 19.8098ZM19.4799 17.8374L19.4798 6.25537C19.4798 5.84115 19.144 5.50537 18.7298 5.50537L5.27011 5.50537C4.8559 5.50537 4.52011 5.84116 4.52011 6.25538L4.5202 15.2362C4.52021 15.6504 4.85599 15.9862 5.27021 15.9862H15.8929C16.2084 15.9862 16.518 16.0715 16.789 16.2331L19.4799 17.8374Z" fill="#16191D"/>
</svg>
