<svg width="24" height="24" viewBox="0 0 24 24" fill="none" xmlns="http://www.w3.org/2000/svg">
<path d="M10.5242 15.3354C11.0765 15.3354 11.5242 14.8877 11.5242 14.3354C11.5242 13.7832 11.0765 13.3354 10.5242 13.3354C9.97189 13.3354 9.52417 13.7832 9.52417 14.3354C9.52417 14.8877 9.97189 15.3354 10.5242 15.3354Z" fill="#16191D"/>
<path d="M10.1648 7.37234C10.415 7.31478 10.6763 7.32855 10.919 7.41209C11.1617 7.49563 11.3762 7.64559 11.5379 7.84492C11.6997 8.04426 11.8023 8.28497 11.834 8.5397C11.8658 8.79443 11.8254 9.05296 11.7176 9.28591C11.6098 9.51886 11.4387 9.71688 11.2239 9.85748C11.1873 9.88148 11.1496 9.90364 11.111 9.92392C10.5689 10.209 9.76906 10.8277 9.77142 11.8135L9.77148 11.8389C9.77247 12.2531 10.1091 12.5881 10.5233 12.5871C10.9375 12.5861 11.2725 12.2495 11.2715 11.8353L11.2714 11.8099C11.2713 11.7609 11.2893 11.6845 11.3819 11.5751C11.4779 11.4617 11.6277 11.347 11.8091 11.2516C11.8898 11.2091 11.9687 11.1627 12.0455 11.1125C12.495 10.8182 12.8531 10.4037 13.0788 9.91609C13.3046 9.42847 13.389 8.8873 13.3225 8.35409C13.256 7.82088 13.0413 7.31701 12.7027 6.89977C12.3641 6.48252 11.9153 6.16862 11.4072 5.99375C10.8991 5.81888 10.3521 5.79005 9.82846 5.91054C9.30481 6.03103 8.82545 6.29601 8.44489 6.67535C8.06432 7.0547 7.79781 7.5332 7.67563 8.05647C7.58146 8.45983 7.8321 8.86317 8.23547 8.95735C8.63883 9.05152 9.04217 8.80088 9.13635 8.39751C9.19471 8.14753 9.32204 7.91894 9.50384 7.73772C9.68565 7.55649 9.91465 7.4299 10.1648 7.37234Z" fill="#16191D"/>
<path fill-rule="evenodd" clip-rule="evenodd" d="M6.25342 2.00488C5.01078 2.00488 4.00342 3.01224 4.00342 4.25488V16.7488C4.00342 17.9914 5.01078 18.9988 6.25342 18.9988H7.00562V19.7507C7.00562 20.9934 8.01297 22.0007 9.25562 22.0007H17.7493C18.9919 22.0007 19.9993 20.9934 19.9993 19.7507V7.25684C19.9993 6.0142 18.9919 5.00684 17.7493 5.00684H16.9971V4.25488C16.9971 3.01224 15.9897 2.00488 14.7471 2.00488H6.25342ZM16.9971 6.50684V16.7488C16.9971 17.9914 15.9897 18.9988 14.7471 18.9988H8.50562V19.7507C8.50562 20.1649 8.8414 20.5007 9.25562 20.5007H17.7493C18.1635 20.5007 18.4993 20.1649 18.4993 19.7507V7.25684C18.4993 6.84262 18.1635 6.50684 17.7493 6.50684H16.9971ZM5.50342 4.25488C5.50342 3.84067 5.8392 3.50488 6.25342 3.50488H14.7471C15.1613 3.50488 15.4971 3.84067 15.4971 4.25488V16.7488C15.4971 17.163 15.1613 17.4988 14.7471 17.4988H6.25342C5.8392 17.4988 5.50342 17.163 5.50342 16.7488V4.25488Z" fill="#16191D"/>
</svg>
