<svg width="24" height="24" viewBox="0 0 24 24" fill="none" xmlns="http://www.w3.org/2000/svg">
<path d="M7.42352 16.2575C7.1035 16.9569 7.65774 17.6494 8.32697 17.6494H15.673C16.3422 17.6494 16.8964 16.9569 16.5764 16.2575C15.78 14.5171 14.0338 13.3018 12 13.3018C9.96615 13.3018 8.21994 14.5171 7.42352 16.2575Z" fill="#16191D"/>
<path d="M10.5 9.07617C10.5 9.9046 9.82843 10.5762 9 10.5762C8.17157 10.5762 7.5 9.9046 7.5 9.07617C7.5 8.24774 8.17157 7.57617 9 7.57617C9.82843 7.57617 10.5 8.24774 10.5 9.07617Z" fill="#16191D"/>
<path d="M16.5 9.07617C16.5 9.9046 15.8284 10.5762 15 10.5762C14.1716 10.5762 13.5 9.9046 13.5 9.07617C13.5 8.24774 14.1716 7.57617 15 7.57617C15.8284 7.57617 16.5 8.24774 16.5 9.07617Z" fill="#16191D"/>
<path d="M12.0068 3.5C7.31242 3.5 3.50684 7.30558 3.50684 12C3.50684 16.6944 7.31242 20.5 12.0068 20.5C16.7013 20.5 20.5068 16.6944 20.5068 12C20.5068 7.30558 16.7013 3.5 12.0068 3.5ZM2.00684 12C2.00684 6.47715 6.48399 2 12.0068 2C17.5297 2 22.0068 6.47715 22.0068 12C22.0068 17.5228 17.5297 22 12.0068 22C6.48399 22 2.00684 17.5228 2.00684 12Z" fill="#16191D"/>
</svg>
