<svg width="24" height="24" viewBox="0 0 24 24" fill="none" xmlns="http://www.w3.org/2000/svg">
<path d="M18.2779 2.76284C18.1957 2.51625 17.9917 2.3298 17.7387 2.27008C17.4857 2.21036 17.2199 2.28588 17.0361 2.46968L14.4608 5.04497C14.3252 5.18051 14.2467 5.3628 14.2414 5.55441L14.1539 8.69432L11.6177 11.1297C11.319 11.4166 11.3093 11.8914 11.5962 12.1902C11.8831 12.489 12.3579 12.4986 12.6567 12.2117L15.198 9.77128L18.4277 9.759C18.6256 9.75825 18.8152 9.67929 18.9552 9.53934L21.5304 6.96406C21.7142 6.78025 21.7898 6.51439 21.73 6.26141C21.6703 6.00843 21.4839 5.80441 21.2373 5.72221L19.0177 4.98237L18.2779 2.76284ZM18.113 8.26019L15.6663 8.26949L15.7325 5.89456L17.2386 4.38844L17.7133 5.81247C17.788 6.03642 17.9637 6.21216 18.1877 6.28681L19.6117 6.76149L18.113 8.26019Z" fill="#16191D"/>
<path d="M12.2082 3.75263C10.5244 3.71013 8.86789 4.18403 7.46134 5.11066C6.05479 6.03728 4.96557 7.37223 4.34004 8.93611C3.7145 10.5 3.58264 12.2179 3.96216 13.8589C4.34168 15.4999 5.2144 16.9855 6.46304 18.1159C7.71169 19.2464 9.27643 19.9675 10.947 20.1825C12.6176 20.3975 14.3139 20.096 15.8081 19.3185C17.3023 18.5411 18.5227 17.3249 19.3053 15.8334C20.0879 14.3419 20.3953 12.6466 20.1861 10.9753C20.1347 10.5643 20.4262 10.1894 20.8372 10.138C21.2482 10.0865 21.6231 10.378 21.6745 10.789C21.9217 12.7642 21.5585 14.7677 20.6335 16.5304C19.7086 18.293 18.2663 19.7304 16.5005 20.6492C14.7346 21.568 12.7299 21.9243 10.7555 21.6703C8.78123 21.4162 6.932 20.5639 5.45632 19.2279C3.98065 17.8919 2.94925 16.1363 2.50073 14.1969C2.05221 12.2575 2.20805 10.2273 2.94732 8.37904C3.68658 6.53082 4.97385 4.95315 6.63613 3.85805C8.29842 2.76294 10.2561 2.20288 12.246 2.25311C12.6601 2.26356 12.9873 2.60771 12.9769 3.02179C12.9664 3.43587 12.6223 3.76308 12.2082 3.75263Z" fill="#16191D"/>
<path d="M12 7.5C11.1101 7.5 10.2401 7.76389 9.50021 8.2583C8.76027 8.75272 8.18355 9.45544 7.843 10.2776C7.50244 11.0998 7.41333 12.0045 7.58695 12.8773C7.76056 13.7501 8.1891 14.5519 8.81837 15.1811C9.44764 15.8104 10.2494 16.239 11.1222 16.4126C11.995 16.5862 12.8997 16.4971 13.7219 16.1565C14.5441 15.816 15.2468 15.2392 15.7412 14.4993C16.2356 13.7594 16.4995 12.8894 16.4995 11.9995C16.4995 11.5853 16.8353 11.2495 17.2495 11.2495C17.6637 11.2495 17.9995 11.5853 17.9995 11.9995C17.9995 13.1861 17.6476 14.346 16.9884 15.3327C16.3292 16.3193 15.3922 17.0882 14.2959 17.5423C13.1996 17.9964 11.9933 18.1152 10.8296 17.8837C9.66576 17.6523 8.59675 17.0809 7.75771 16.2418C6.91866 15.4028 6.34726 14.3337 6.11577 13.17C5.88428 12.0062 6.00309 10.7999 6.45718 9.7036C6.91127 8.60733 7.68024 7.67033 8.66685 7.0111C9.65347 6.35187 10.8134 6 12 6C12.4142 6 12.75 6.33579 12.75 6.75C12.75 7.16421 12.4142 7.5 12 7.5Z" fill="#16191D"/>
</svg>
