<svg width="24" height="24" viewBox="0 0 24 24" fill="none" xmlns="http://www.w3.org/2000/svg">
<mask id="path-1-inside-1_5022_1757" fill="white">
<path d="M3.10007 7.57996C3.10007 6.9614 3.60151 6.45996 4.22007 6.45996H14.3001C14.9186 6.45996 15.4201 6.9614 15.4201 7.57996V18.78C15.4201 19.3985 14.9186 19.9 14.3001 19.9H6.46006C4.60439 19.9 3.10007 18.3956 3.10007 16.54V7.57996Z"/>
</mask>
<path d="M3.10007 6.45996H15.4201H3.10007ZM15.4201 18.78C15.4201 20.1739 14.29 21.304 12.8961 21.304H6.46007C3.82898 21.304 1.69607 19.171 1.69607 16.54H4.50407C4.50407 17.6202 5.3798 18.496 6.46007 18.496H14.3001C14.9186 18.496 15.4201 18.496 15.4201 18.496V18.78ZM6.46007 21.304C3.82898 21.304 1.69607 19.171 1.69607 16.54V8.98396C1.69607 7.58999 2.8261 6.45996 4.22007 6.45996H4.50407C4.50407 6.45996 4.50407 6.9614 4.50407 7.57996V16.54C4.50407 17.6202 5.3798 18.496 6.46007 18.496V21.304ZM15.4201 6.45996V19.9V6.45996Z" fill="#16191D" mask="url(#path-1-inside-1_5022_1757)"/>
<mask id="path-3-inside-2_5022_1757" fill="white">
<path fill-rule="evenodd" clip-rule="evenodd" d="M8.70002 3.1001C7.4629 3.1001 6.46002 4.10298 6.46002 5.3401V14.3001C6.46002 15.5372 7.4629 16.5401 8.70002 16.5401H17.66C18.8971 16.5401 19.9 15.5372 19.9 14.3001V5.3401C19.9 4.10298 18.8971 3.1001 17.66 3.1001H8.70002ZM13.4282 7.0527C13.2824 6.99468 13.1255 6.98512 12.9752 7.02509C12.825 7.06507 12.6875 7.15297 12.5783 7.27882C12.4691 7.40467 12.3927 7.56341 12.3576 7.737C12.2675 8.18359 11.8813 8.4611 11.4951 8.35683C11.1089 8.25256 10.8689 7.806 10.9591 7.35941C11.0552 6.88324 11.265 6.44781 11.5644 6.10261C11.8639 5.75741 12.2411 5.51629 12.6532 5.40664C13.0653 5.297 13.4957 5.32323 13.8955 5.48236C14.2954 5.64149 14.6486 5.92713 14.915 6.30682C15.1814 6.68652 15.3504 7.14503 15.4028 7.63024C15.4551 8.11546 15.3886 8.60791 15.211 9.05164C15.0333 9.49537 14.7516 9.87257 14.3978 10.1404C14.345 10.1803 14.291 10.2176 14.2357 10.2522C14.1107 10.3304 14.0155 10.418 13.9594 10.4949C13.9331 10.531 13.9214 10.5565 13.9167 10.5695C13.9145 10.5756 13.9137 10.5799 13.9137 10.5799C13.9146 11.0385 13.5939 11.4111 13.1973 11.4121C12.8007 11.4132 12.4785 11.0424 12.4775 10.5838C12.4756 9.62663 13.1454 9.04617 13.5522 8.79161C13.5723 8.77901 13.592 8.76542 13.6113 8.75084C13.7403 8.65321 13.843 8.5157 13.9077 8.35393C13.9725 8.19216 13.9967 8.01263 13.9776 7.83574C13.9586 7.65885 13.897 7.49169 13.7998 7.35327C13.7027 7.21485 13.5739 7.11071 13.4282 7.0527ZM14.1091 13.1929C14.1091 13.8044 13.6805 14.3001 13.1517 14.3001C12.6229 14.3001 12.1942 13.8044 12.1942 13.1929C12.1942 12.5815 12.6229 12.0858 13.1517 12.0858C13.6805 12.0858 14.1091 12.5815 14.1091 13.1929Z"/>
</mask>
<path fill-rule="evenodd" clip-rule="evenodd" d="M8.70002 3.1001C7.4629 3.1001 6.46002 4.10298 6.46002 5.3401V14.3001C6.46002 15.5372 7.4629 16.5401 8.70002 16.5401H17.66C18.8971 16.5401 19.9 15.5372 19.9 14.3001V5.3401C19.9 4.10298 18.8971 3.1001 17.66 3.1001H8.70002ZM13.4282 7.0527C13.2824 6.99468 13.1255 6.98512 12.9752 7.02509C12.825 7.06507 12.6875 7.15297 12.5783 7.27882C12.4691 7.40467 12.3927 7.56341 12.3576 7.737C12.2675 8.18359 11.8813 8.4611 11.4951 8.35683C11.1089 8.25256 10.8689 7.806 10.9591 7.35941C11.0552 6.88324 11.265 6.44781 11.5644 6.10261C11.8639 5.75741 12.2411 5.51629 12.6532 5.40664C13.0653 5.297 13.4957 5.32323 13.8955 5.48236C14.2954 5.64149 14.6486 5.92713 14.915 6.30682C15.1814 6.68652 15.3504 7.14503 15.4028 7.63024C15.4551 8.11546 15.3886 8.60791 15.211 9.05164C15.0333 9.49537 14.7516 9.87257 14.3978 10.1404C14.345 10.1803 14.291 10.2176 14.2357 10.2522C14.1107 10.3304 14.0155 10.418 13.9594 10.4949C13.9331 10.531 13.9214 10.5565 13.9167 10.5695C13.9145 10.5756 13.9137 10.5799 13.9137 10.5799C13.9146 11.0385 13.5939 11.4111 13.1973 11.4121C12.8007 11.4132 12.4785 11.0424 12.4775 10.5838C12.4756 9.62663 13.1454 9.04617 13.5522 8.79161C13.5723 8.77901 13.592 8.76542 13.6113 8.75084C13.7403 8.65321 13.843 8.5157 13.9077 8.35393C13.9725 8.19216 13.9967 8.01263 13.9776 7.83574C13.9586 7.65885 13.897 7.49169 13.7998 7.35327C13.7027 7.21485 13.5739 7.11071 13.4282 7.0527ZM14.1091 13.1929C14.1091 13.8044 13.6805 14.3001 13.1517 14.3001C12.6229 14.3001 12.1942 13.8044 12.1942 13.1929C12.1942 12.5815 12.6229 12.0858 13.1517 12.0858C13.6805 12.0858 14.1091 12.5815 14.1091 13.1929Z" fill="#16191D"/>
<path d="M12.9752 7.02509L12.6142 5.6683L12.6142 5.6683L12.9752 7.02509ZM13.4282 7.0527L12.909 8.35718L12.909 8.35718L13.4282 7.0527ZM12.5783 7.27882L13.6388 8.19888L13.6388 8.19888L12.5783 7.27882ZM12.3576 7.737L10.9814 7.45913L10.9814 7.45913L12.3576 7.737ZM10.9591 7.35941L9.58286 7.08154V7.08154L10.9591 7.35941ZM11.5644 6.10261L12.625 7.02267L12.625 7.02267L11.5644 6.10261ZM12.6532 5.40664L12.2922 4.04985L12.2922 4.04985L12.6532 5.40664ZM13.8955 5.48236L14.4147 4.17788V4.17788L13.8955 5.48236ZM14.915 6.30682L16.0643 5.50036L16.0643 5.50035L14.915 6.30682ZM15.4028 7.63024L16.7987 7.47971V7.47971L15.4028 7.63024ZM14.3978 10.1404L15.2452 11.2598L15.2452 11.2598L14.3978 10.1404ZM14.2357 10.2522L13.4909 9.06202L13.4909 9.06203L14.2357 10.2522ZM13.9594 10.4949L12.8251 9.66759L12.8251 9.6676L13.9594 10.4949ZM13.9167 10.5695L15.2372 11.0465L15.2373 11.0463L13.9167 10.5695ZM13.9137 10.5799L12.5344 10.3176L12.5094 10.449L12.5097 10.5826L13.9137 10.5799ZM13.1973 11.4121L13.1935 10.0082H13.1934L13.1973 11.4121ZM12.4775 10.5838L13.8815 10.5809V10.5809L12.4775 10.5838ZM13.5522 8.79161L12.8074 7.60146L12.8074 7.60146L13.5522 8.79161ZM13.6113 8.75084L12.7639 7.63139L12.7639 7.63141L13.6113 8.75084ZM13.9077 8.35393L15.2112 8.87576L15.2112 8.87575L13.9077 8.35393ZM13.9776 7.83574L12.5817 7.98626L12.5817 7.98627L13.9776 7.83574ZM13.7998 7.35327L12.6506 8.15974L12.6506 8.15974L13.7998 7.35327ZM7.86402 5.3401C7.86402 4.87839 8.23831 4.5041 8.70002 4.5041V1.6961C6.6875 1.6961 5.05602 3.32757 5.05602 5.3401H7.86402ZM7.86402 14.3001V5.3401H5.05602V14.3001H7.86402ZM8.70002 15.1361C8.23831 15.1361 7.86402 14.7618 7.86402 14.3001H5.05602C5.05602 16.3126 6.6875 17.9441 8.70002 17.9441V15.1361ZM17.66 15.1361H8.70002V17.9441H17.66V15.1361ZM18.496 14.3001C18.496 14.7618 18.1217 15.1361 17.66 15.1361V17.9441C19.6725 17.9441 21.304 16.3126 21.304 14.3001H18.496ZM18.496 5.3401V14.3001H21.304V5.3401H18.496ZM17.66 4.5041C18.1217 4.5041 18.496 4.87839 18.496 5.3401H21.304C21.304 3.32757 19.6725 1.6961 17.66 1.6961V4.5041ZM8.70002 4.5041H17.66V1.6961H8.70002V4.5041ZM13.3363 8.38189C13.1922 8.42021 13.0406 8.40957 12.909 8.35718L13.9473 5.74822C13.5242 5.5798 13.0587 5.55003 12.6142 5.6683L13.3363 8.38189ZM13.6388 8.19888C13.5777 8.26934 13.4774 8.34432 13.3363 8.38188L12.6142 5.6683C12.1726 5.78581 11.7973 6.0366 11.5178 6.35876L13.6388 8.19888ZM13.7339 8.01487C13.724 8.06352 13.6986 8.12994 13.6388 8.19888L11.5178 6.35876C11.2396 6.67939 11.0613 7.0633 10.9814 7.45913L13.7339 8.01487ZM11.1291 9.71229C12.475 10.0757 13.5218 9.06497 13.7339 8.01487L10.9814 7.45913C11.0019 7.35774 11.068 7.22115 11.2181 7.11334C11.3753 7.00037 11.6131 6.93442 11.8611 7.00136L11.1291 9.71229ZM9.58286 7.08154C9.37805 8.09592 9.88254 9.37572 11.1291 9.71229L11.8611 7.00136C12.0966 7.06495 12.2286 7.2165 12.2852 7.32188C12.3421 7.42775 12.3554 7.53762 12.3353 7.63728L9.58286 7.08154ZM10.5039 5.18256C10.0355 5.72254 9.72388 6.38313 9.58286 7.08154L12.3353 7.63728C12.3866 7.38335 12.4945 7.17309 12.625 7.02267L10.5039 5.18256ZM12.2922 4.04985C11.5887 4.23703 10.9737 4.64105 10.5039 5.18256L12.625 7.02267C12.7541 6.87378 12.8936 6.79554 13.0142 6.76343L12.2922 4.04985ZM14.4147 4.17788C13.7375 3.90835 12.9986 3.86191 12.2922 4.04985L13.0142 6.76344C13.132 6.73209 13.2539 6.73811 13.3764 6.78684L14.4147 4.17788ZM16.0643 5.50035C15.6536 4.91507 15.0885 4.44605 14.4147 4.17788L13.3764 6.78684C13.5022 6.83693 13.6436 6.93919 13.7657 7.1133L16.0643 5.50035ZM16.7987 7.47971C16.7223 6.77126 16.4742 6.08456 16.0643 5.50036L13.7657 7.11329C13.8887 7.28847 13.9786 7.51879 14.0068 7.78077L16.7987 7.47971ZM16.5144 9.57346C16.7793 8.91193 16.8751 8.18823 16.7987 7.47971L14.0068 7.78077C14.0351 8.04268 13.998 8.30389 13.9076 8.52982L16.5144 9.57346ZM15.2452 11.2598C15.8182 10.8261 16.2495 10.2352 16.5144 9.57346L13.9076 8.52982C13.8172 8.75555 13.685 8.91904 13.5505 9.02091L15.2452 11.2598ZM14.9806 11.4423C15.0713 11.3855 15.1596 11.3246 15.2452 11.2598L13.5505 9.02091C13.5305 9.03603 13.5106 9.0497 13.4909 9.06202L14.9806 11.4423ZM15.0938 11.3222C15.0518 11.3797 15.0178 11.4116 15.0046 11.4233C14.9893 11.437 14.9809 11.4421 14.9806 11.4423L13.4909 9.06203C13.2537 9.21045 13.0111 9.41253 12.8251 9.66759L15.0938 11.3222ZM15.2373 11.0463C15.191 11.1745 15.135 11.2657 15.0938 11.3222L12.8251 9.6676C12.7311 9.79638 12.6518 9.93856 12.5962 10.0927L15.2373 11.0463ZM13.9137 10.5799C15.293 10.8422 15.2929 10.8424 15.2929 10.8425C15.2929 10.8426 15.2929 10.8427 15.2928 10.8428C15.2928 10.843 15.2928 10.8433 15.2927 10.8435C15.2926 10.8439 15.2926 10.8443 15.2925 10.8448C15.2923 10.8456 15.2921 10.8465 15.292 10.8474C15.2916 10.8491 15.2913 10.8508 15.291 10.8526C15.2903 10.8561 15.2895 10.8596 15.2888 10.8632C15.2873 10.8704 15.2858 10.8777 15.2841 10.8852C15.2807 10.9002 15.2769 10.9161 15.2726 10.9328C15.2639 10.9656 15.2525 11.0041 15.2372 11.0465L12.5962 10.0925C12.5787 10.141 12.5658 10.1847 12.5562 10.2213C12.5513 10.2398 12.5472 10.2571 12.5436 10.2731C12.5418 10.2811 12.5402 10.2888 12.5386 10.2962C12.5379 10.2999 12.5371 10.3036 12.5364 10.3071C12.5361 10.3089 12.5357 10.3107 12.5354 10.3124C12.5352 10.3133 12.5351 10.3142 12.5349 10.315C12.5348 10.3155 12.5347 10.3159 12.5346 10.3163C12.5346 10.3166 12.5346 10.3168 12.5345 10.317C12.5345 10.3171 12.5345 10.3173 12.5345 10.3173C12.5344 10.3175 12.5344 10.3176 13.9137 10.5799ZM13.2012 12.8161C14.5571 12.8124 15.3197 11.6125 15.3177 10.5772L12.5097 10.5826C12.5095 10.4865 12.5427 10.3652 12.6405 10.2517C12.7407 10.1352 12.9321 10.0089 13.1935 10.0082L13.2012 12.8161ZM11.0735 10.5867C11.0757 11.6224 11.8441 12.8199 13.2012 12.8161L13.1934 10.0082C13.4549 10.0074 13.6476 10.1329 13.7489 10.2495C13.8476 10.3631 13.8813 10.4847 13.8815 10.5809L11.0735 10.5867ZM12.8074 7.60146C12.2508 7.94977 11.0701 8.90093 11.0735 10.5867L13.8815 10.5809C13.8813 10.4532 13.9199 10.355 13.9927 10.2559C14.0763 10.1423 14.1949 10.0457 14.297 9.98176L12.8074 7.60146ZM12.7639 7.63141C12.7775 7.62112 12.792 7.6111 12.8074 7.60146L14.297 9.98176C14.3527 9.94693 14.4066 9.90971 14.4587 9.87028L12.7639 7.63141ZM12.6043 7.83211C12.6268 7.77588 12.6737 7.69969 12.7639 7.63139L14.4586 9.8703C14.8068 9.60674 15.0591 9.25552 15.2112 8.87576L12.6043 7.83211ZM12.5817 7.98627C12.5767 7.93985 12.5819 7.88814 12.6043 7.83211L15.2112 8.87575C15.3631 8.49619 15.4167 8.08541 15.3735 7.68521L12.5817 7.98627ZM12.6506 8.15974C12.6042 8.09365 12.5867 8.03261 12.5817 7.98626L15.3735 7.68522C15.3304 7.28508 15.1897 6.88973 14.9491 6.54679L12.6506 8.15974ZM12.909 8.35718C12.7808 8.30615 12.6977 8.22691 12.6506 8.15974L14.9491 6.5468C14.7077 6.20278 14.3671 5.91527 13.9473 5.74821L12.909 8.35718ZM13.1517 15.7041C14.6404 15.7041 15.5131 14.3814 15.5131 13.1929H12.7051C12.7051 13.1732 12.7118 13.121 12.7667 13.0574C12.8241 12.991 12.9564 12.8961 13.1517 12.8961V15.7041ZM10.7902 13.1929C10.7902 14.3814 11.6629 15.7041 13.1517 15.7041V12.8961C13.347 12.8961 13.4792 12.991 13.5367 13.0574C13.5916 13.121 13.5982 13.1732 13.5982 13.1929H10.7902ZM13.1517 10.6818C11.6629 10.6818 10.7902 12.0045 10.7902 13.1929H13.5982C13.5982 13.2127 13.5916 13.2649 13.5367 13.3284C13.4792 13.3948 13.347 13.4898 13.1517 13.4898V10.6818ZM15.5131 13.1929C15.5131 12.0045 14.6404 10.6818 13.1517 10.6818V13.4898C12.9564 13.4898 12.8241 13.3948 12.7667 13.3284C12.7118 13.2649 12.7051 13.2127 12.7051 13.1929H15.5131Z" fill="#16191D" mask="url(#path-3-inside-2_5022_1757)"/>
</svg>
