<svg width="24" height="24" viewBox="0 0 24 24" fill="none" xmlns="http://www.w3.org/2000/svg">
<path d="M20.6004 19.8098C20.3657 19.9431 20.0776 19.9401 19.8458 19.8019L16.0209 17.5215C15.9822 17.4984 15.9379 17.4862 15.8928 17.4862H5.2702C4.02757 17.4862 3.02021 16.4789 3.0202 15.2363L3.0201 6.25539C3.02009 5.01274 4.02745 4.00537 5.2701 4.00537L18.7298 4.00537C19.9724 4.00537 20.9798 5.01272 20.9798 6.25535L20.9799 19.1577C20.9799 19.4275 20.835 19.6766 20.6004 19.8098ZM19.4799 17.8374L19.4798 6.25537C19.4798 5.84115 19.144 5.50537 18.7298 5.50537L5.2701 5.50537C4.85589 5.50537 4.5201 5.84116 4.5201 6.25538L4.5202 15.2362C4.5202 15.6504 4.85599 15.9862 5.2702 15.9862H15.8928C16.2084 15.9862 16.518 16.0715 16.789 16.2331L19.4799 17.8374Z" fill="#16191D"/>
</svg>
