<svg width="24" height="24" viewBox="0 0 24 24" fill="none" xmlns="http://www.w3.org/2000/svg">
<path d="M16.7958 5.17803C18.4124 6.3901 19.5377 8.14448 19.9653 10.1192C20.3928 12.094 20.0943 14.157 19.1237 15.9291C19.0353 16.092 19.0067 16.2879 19.0584 16.4811L20.0521 20.1896L16.3436 19.1959C16.1492 19.1438 15.9518 19.1724 15.7883 19.2621C14.0156 20.2317 11.9527 20.5296 9.9782 20.101C8.00366 19.6725 6.24988 18.5463 5.03866 16.929C3.82744 15.3118 3.24003 13.312 3.38421 11.2967C3.52839 9.2813 4.39449 7.38552 5.82358 5.95717C7.25268 4.52883 9.14892 3.66373 11.1644 3.52061C13.1798 3.3775 15.1793 3.96596 16.7958 5.17803ZM20.5832 16.3759C21.6118 14.3501 21.9133 12.0286 21.4313 9.80186C20.9274 7.4743 19.6011 5.40651 17.6957 3.9779C15.7903 2.54929 13.4336 1.8557 11.0581 2.02438C8.68261 2.19307 6.44761 3.21271 4.7632 4.89623C3.0788 6.57975 2.05797 8.81422 1.88803 11.1896C1.7181 13.565 2.41045 15.9221 3.83805 17.8282C5.26566 19.7344 7.33275 21.0618 9.66005 21.5669C11.8877 22.0504 14.2108 21.7495 16.2379 20.7205L20.9187 21.9747C21.1775 22.0441 21.4537 21.9701 21.6431 21.7806C21.8326 21.5912 21.9066 21.315 21.8372 21.0562L20.5832 16.3759Z" fill="#16191D"/>
</svg>
