<svg width="20" height="20" viewBox="0 0 20 20" fill="none" xmlns="http://www.w3.org/2000/svg">
<path fill-rule="evenodd" clip-rule="evenodd" d="M5.25 6.29004C5.25 3.66669 7.37665 1.54004 10 1.54004C12.6234 1.54004 14.75 3.66669 14.75 6.29004V7.54004H15.5C16.7426 7.54004 17.75 8.5474 17.75 9.79004V16.79C17.75 18.0327 16.7426 19.04 15.5 19.04H4.5C3.25736 19.04 2.25 18.0327 2.25 16.79V9.79004C2.25 8.5474 3.25736 7.54004 4.5 7.54004H5.25V6.29004ZM6.75 7.54004H13.25V6.29004C13.25 4.49511 11.7949 3.04004 10 3.04004C8.20507 3.04004 6.75 4.49511 6.75 6.29004V7.54004ZM4.5 9.04004C4.08579 9.04004 3.75 9.37583 3.75 9.79004V16.79C3.75 17.2043 4.08579 17.54 4.5 17.54H15.5C15.9142 17.54 16.25 17.2043 16.25 16.79V9.79004C16.25 9.37583 15.9142 9.04004 15.5 9.04004H4.5ZM10 12.04C10.4142 12.04 10.75 12.3758 10.75 12.79V13.79C10.75 14.2043 10.4142 14.54 10 14.54C9.58579 14.54 9.25 14.2043 9.25 13.79V12.79C9.25 12.3758 9.58579 12.04 10 12.04Z" fill="#576175"/>
</svg>
