<svg width="24" height="24" viewBox="0 0 24 24" fill="none" xmlns="http://www.w3.org/2000/svg">
<path fill-rule="evenodd" clip-rule="evenodd" d="M12.0078 2C6.48497 2 2.00781 6.47715 2.00781 12C2.00781 17.5228 6.48497 22 12.0078 22C17.5307 22 22.0078 17.5228 22.0078 12C22.0078 6.47715 17.5307 2 12.0078 2ZM9 10.5762C9.82843 10.5762 10.5 9.9046 10.5 9.07617C10.5 8.24774 9.82843 7.57617 9 7.57617C8.17157 7.57617 7.5 8.24774 7.5 9.07617C7.5 9.9046 8.17157 10.5762 9 10.5762ZM9.75 13.3301C9.33579 13.3301 9 13.6659 9 14.0801C9 14.4943 9.33579 14.8301 9.75 14.8301H14.25C14.6642 14.8301 15 14.4943 15 14.0801C15 13.6659 14.6642 13.3301 14.25 13.3301H9.75ZM16.5 9.07617C16.5 9.9046 15.8284 10.5762 15 10.5762C14.1716 10.5762 13.5 9.9046 13.5 9.07617C13.5 8.24774 14.1716 7.57617 15 7.57617C15.8284 7.57617 16.5 8.24774 16.5 9.07617Z" fill="#16191D"/>
</svg>
