<svg xmlns="http://www.w3.org/2000/svg" width="24" height="24" viewBox="0 0 24 24" fill="none">
  <path fill-rule="evenodd" clip-rule="evenodd" d="M12.0078 2C6.48497 2 2.00781 6.47715 2.00781 12C2.00781 17.5228 6.48497 22 12.0078 22C17.5307 22 22.0078 17.5228 22.0078 12C22.0078 6.47715 17.5307 2 12.0078 2ZM9 7.57617C9.82843 7.57617 10.5 8.24774 10.5 9.07617C10.5 9.9046 9.82843 10.5762 9 10.5762C8.17157 10.5762 7.5 9.9046 7.5 9.07617C7.5 8.24774 8.17157 7.57617 9 7.57617ZM8.67425 17.1475C8.53337 17.537 8.1034 17.7385 7.71388 17.5977C7.32436 17.4568 7.12279 17.0268 7.26366 16.6373C7.96723 14.6919 9.81706 13.2949 11.9982 13.2949C14.1794 13.2949 16.0292 14.6919 16.7328 16.6373C16.8736 17.0268 16.6721 17.4568 16.2825 17.5977C15.893 17.7385 15.4631 17.537 15.3222 17.1475C14.8236 15.769 13.5192 14.7949 11.9982 14.7949C10.4772 14.7949 9.17279 15.769 8.67425 17.1475ZM16.5 9.07617C16.5 9.9046 15.8284 10.5762 15 10.5762C14.1716 10.5762 13.5 9.9046 13.5 9.07617C13.5 8.24774 14.1716 7.57617 15 7.57617C15.8284 7.57617 16.5 8.24774 16.5 9.07617Z" fill="#16191D"/>
</svg>