<svg width="20" height="20" viewBox="0 0 20 20" fill="none" xmlns="http://www.w3.org/2000/svg">
<path fill-rule="evenodd" clip-rule="evenodd" d="M1.02002 4.25588C1.02001 3.01323 2.02737 2.00586 3.27002 2.00586L16.7297 2.00586C17.9723 2.00586 18.9797 3.01321 18.9797 4.25584L18.9798 17.1582C18.9798 17.428 18.8349 17.6771 18.6003 17.8103C18.3656 17.9436 18.0775 17.9406 17.8458 17.8024L14.0208 15.522C13.9821 15.4989 13.9378 15.4867 13.8928 15.4867H3.27011C2.02748 15.4867 1.02013 14.4794 1.02011 13.2367L1.02002 4.25588ZM3.27002 3.50586C2.8558 3.50586 2.52002 3.84165 2.52002 4.25587L2.52011 13.2367C2.52012 13.6509 2.8559 13.9867 3.27012 13.9867H13.8928C14.2083 13.9867 14.5179 14.072 14.7889 14.2336L17.4798 15.8379L17.4797 4.25585C17.4797 3.84164 17.1439 3.50586 16.7297 3.50586L3.27002 3.50586Z" fill="#576175"/>
</svg>
