<svg width="24" height="24" viewBox="0 0 24 24" fill="none" xmlns="http://www.w3.org/2000/svg">
<path fill-rule="evenodd" clip-rule="evenodd" d="M12.0068 2C6.48399 2 2.00684 6.47715 2.00684 12C2.00684 17.5228 6.48399 22 12.0068 22C17.5297 22 22.0068 17.5228 22.0068 12C22.0068 6.47715 17.5297 2 12.0068 2ZM9 10.5762C9.82843 10.5762 10.5 9.9046 10.5 9.07617C10.5 8.24774 9.82843 7.57617 9 7.57617C8.17157 7.57617 7.5 8.24774 7.5 9.07617C7.5 9.9046 8.17157 10.5762 9 10.5762ZM8.67425 13.1426C8.53337 12.7531 8.1034 12.5515 7.71388 12.6924C7.32436 12.8333 7.12279 13.2632 7.26366 13.6527C7.96723 15.5981 9.81706 16.9952 11.9982 16.9952C14.1794 16.9952 16.0292 15.5981 16.7328 13.6527C16.8736 13.2632 16.6721 12.8333 16.2825 12.6924C15.893 12.5515 15.4631 12.7531 15.3222 13.1426C14.8236 14.5211 13.5192 15.4952 11.9982 15.4952C10.4772 15.4952 9.17279 14.5211 8.67425 13.1426ZM16.5 9.07617C16.5 9.9046 15.8284 10.5762 15 10.5762C14.1716 10.5762 13.5 9.9046 13.5 9.07617C13.5 8.24774 14.1716 7.57617 15 7.57617C15.8284 7.57617 16.5 8.24774 16.5 9.07617Z" fill="#16191D"/>
</svg>
