<svg width="24" height="24" viewBox="0 0 24 24" fill="none" xmlns="http://www.w3.org/2000/svg">
<path d="M17.6601 4.5041C18.1218 4.5041 18.4961 4.87839 18.4961 5.3401V14.3001C18.4961 14.7618 18.1218 15.1361 17.6601 15.1361H8.70007C8.23836 15.1361 7.86407 14.7618 7.86407 14.3001V5.3401C7.86407 4.87839 8.23836 4.5041 8.70007 4.5041H17.6601ZM8.70007 3.1001C7.46295 3.1001 6.46007 4.10298 6.46007 5.3401V14.3001C6.46007 15.5372 7.46295 16.5401 8.70007 16.5401H17.6601C18.8972 16.5401 19.9001 15.5372 19.9001 14.3001V5.3401C19.9001 4.10298 18.8972 3.1001 17.6601 3.1001H8.70007Z" fill="#16191D"/>
<path d="M3.10007 16.5401V7.5801C3.10007 6.96154 3.60151 6.4601 4.22007 6.4601H4.50407V16.5401C4.50407 17.6204 5.3798 18.4961 6.46007 18.4961H15.4201V18.7801C15.4201 19.3987 14.9186 19.9001 14.3001 19.9001H6.46006C4.60439 19.9001 3.10007 18.3958 3.10007 16.5401Z" fill="#16191D"/>
<path d="M13.1516 14.3001C12.6228 14.3001 12.1942 13.8044 12.1942 13.1929C12.1942 12.5815 12.6228 12.0858 13.1516 12.0858C13.6804 12.0858 14.1091 12.5815 14.1091 13.1929C14.1091 13.8044 13.6804 14.3001 13.1516 14.3001Z" fill="#16191D"/>
<path d="M12.9752 7.0251C12.825 7.06508 12.6874 7.15298 12.5783 7.27883C12.4691 7.40468 12.3926 7.56342 12.3576 7.73701C12.2674 8.1836 11.8812 8.46111 11.495 8.35684C11.1088 8.25257 10.8689 7.80601 10.959 7.35942C11.0552 6.88325 11.2649 6.44782 11.5644 6.10262C11.8639 5.75742 12.2411 5.5163 12.6532 5.40665C13.0652 5.29701 13.4956 5.32324 13.8955 5.48237C14.2953 5.6415 14.6485 5.92714 14.915 6.30683C15.1814 6.68653 15.3504 7.14504 15.4027 7.63025C15.455 8.11546 15.3886 8.60792 15.2109 9.05165C15.0333 9.49538 14.7516 9.87258 14.3978 10.1404C14.345 10.1803 14.2909 10.2176 14.2357 10.2522C14.1107 10.3304 14.0154 10.418 13.9594 10.4949C13.933 10.5311 13.9213 10.5566 13.9167 10.5695C13.9144 10.5757 13.9136 10.5799 13.9136 10.5799C13.9145 11.0385 13.5938 11.4111 13.1973 11.4122C12.8007 11.4133 12.4784 11.0424 12.4775 10.5838C12.4755 9.62664 13.1454 9.04618 13.5521 8.79162C13.5722 8.77902 13.592 8.76543 13.6112 8.75085C13.7402 8.65322 13.8429 8.51571 13.9077 8.35394C13.9724 8.19217 13.9967 8.01264 13.9776 7.83575C13.9585 7.65886 13.8969 7.4917 13.7998 7.35328C13.7026 7.21486 13.5739 7.11072 13.4281 7.05271C13.2823 6.99469 13.1254 6.98513 12.9752 7.0251Z" fill="#16191D"/>
</svg>
