<svg xmlns="http://www.w3.org/2000/svg" width="24" height="24" viewBox="0 0 24 24" fill="none">
  <path fill-rule="evenodd" clip-rule="evenodd" d="M12.0078 2C6.48497 2 2.00781 6.47715 2.00781 12C2.00781 17.5228 6.48497 22 12.0078 22C17.5307 22 22.0078 17.5228 22.0078 12C22.0078 6.47715 17.5307 2 12.0078 2ZM8.70117 7.96095L9.22156 7.44043C9.51442 7.14751 9.98929 7.14745 10.2822 7.44031C10.5751 7.73317 10.5752 8.20804 10.2823 8.50097L9.76171 9.02173L10.2843 9.54444C10.5772 9.83737 10.5771 10.3122 10.2842 10.6051C9.99125 10.898 9.51637 10.8979 9.22351 10.605L8.70117 10.0825L8.17883 10.605C7.88597 10.8979 7.4111 10.898 7.11817 10.6051C6.82524 10.3122 6.82519 9.83737 7.11805 9.54444L7.64063 9.02173L7.12 8.50097C6.82714 8.20804 6.82719 7.73317 7.12012 7.44031C7.41305 7.14745 7.88792 7.14751 8.18078 7.44043L8.70117 7.96095ZM8.32866 17.6152C7.65943 17.6152 7.10519 16.9228 7.42521 16.2234C8.22163 14.483 9.96784 13.2677 12.0017 13.2677C14.0355 13.2677 15.7817 14.483 16.5781 16.2234C16.8981 16.9228 16.3439 17.6152 15.6746 17.6152H8.32866ZM15.8231 7.44043C16.116 7.14751 16.5909 7.14745 16.8838 7.44031C17.1767 7.73317 17.1768 8.20804 16.8839 8.50097L16.3633 9.02173L16.8859 9.54444C17.1787 9.83737 17.1787 10.3122 16.8857 10.6051C16.5928 10.898 16.1179 10.8979 15.8251 10.605L15.3027 10.0825L14.7804 10.605C14.4875 10.8979 14.0127 10.898 13.7197 10.6051C13.4268 10.3122 13.4267 9.83737 13.7196 9.54444L14.2422 9.02173L13.7216 8.50097C13.4287 8.20804 13.4288 7.73317 13.7217 7.44031C14.0146 7.14745 14.4895 7.14751 14.7823 7.44043L15.3027 7.96095L15.8231 7.44043Z" fill="#16191D"/>
</svg>