<svg width="24" height="24" viewBox="0 0 24 24" fill="none" xmlns="http://www.w3.org/2000/svg">
<path fill-rule="evenodd" clip-rule="evenodd" d="M7.42352 14.718C7.1035 14.0187 7.65774 13.3262 8.32697 13.3262H15.673C16.3422 13.3262 16.8964 14.0187 16.5764 14.718C15.78 16.4585 14.0338 17.6737 12 17.6737C9.96615 17.6737 8.21994 16.4585 7.42352 14.718Z" fill="#16191D"/>
<path d="M10.5 9.07617C10.5 9.9046 9.82843 10.5762 9 10.5762C8.17157 10.5762 7.5 9.9046 7.5 9.07617C7.5 8.24774 8.17157 7.57617 9 7.57617C9.82843 7.57617 10.5 8.24774 10.5 9.07617Z" fill="#16191D"/>
<path d="M16.5 9.07617C16.5 9.9046 15.8284 10.5762 15 10.5762C14.1716 10.5762 13.5 9.9046 13.5 9.07617C13.5 8.24774 14.1716 7.57617 15 7.57617C15.8284 7.57617 16.5 8.24774 16.5 9.07617Z" fill="#16191D"/>
<path fill-rule="evenodd" clip-rule="evenodd" d="M12.0068 3.5C7.31242 3.5 3.50684 7.30558 3.50684 12C3.50684 16.6944 7.31242 20.5 12.0068 20.5C16.7013 20.5 20.5068 16.6944 20.5068 12C20.5068 7.30558 16.7013 3.5 12.0068 3.5ZM2.00684 12C2.00684 6.47715 6.48399 2 12.0068 2C17.5297 2 22.0068 6.47715 22.0068 12C22.0068 17.5228 17.5297 22 12.0068 22C6.48399 22 2.00684 17.5228 2.00684 12Z" fill="#16191D"/>
</svg>
