<svg width="24" height="24" viewBox="0 0 24 24" fill="none" xmlns="http://www.w3.org/2000/svg">
<path fill-rule="evenodd" clip-rule="evenodd" d="M19.8453 19.8024C20.077 19.9406 20.3652 19.9436 20.5998 19.8103C20.8344 19.6771 20.9793 19.428 20.9793 19.1582L20.9792 6.25584C20.9792 5.01321 19.9719 4.00586 18.7292 4.00586H5.26953C4.02688 4.00586 3.01952 5.01323 3.01953 6.25588L3.01963 15.2367C3.01964 16.4794 4.02699 17.4867 5.26963 17.4867H15.8923C15.9373 17.4867 15.9816 17.4989 16.0203 17.522L19.8453 19.8024ZM11.9989 6.69238C11.4466 6.69238 10.9989 7.1401 10.9989 7.69238C10.9989 8.24467 11.4466 8.69238 11.9989 8.69238C12.5512 8.69238 12.9989 8.24467 12.9989 7.69238C12.9989 7.1401 12.5512 6.69238 11.9989 6.69238ZM11.9973 14.4688C11.583 14.4686 11.2474 14.1326 11.2476 13.7184L11.2489 10.9266C11.2491 10.5124 11.585 10.1767 11.9992 10.1769C12.4134 10.1771 12.7491 10.513 12.7489 10.9273L12.7476 13.7191C12.7474 14.1333 12.4115 14.4689 11.9973 14.4688Z" fill="#16191D"/>
</svg>
