<svg width="24" height="24" viewBox="0 0 24 24" fill="none" xmlns="http://www.w3.org/2000/svg">
<path d="M11.6158 5.43098C9.59312 3.47829 6.4271 3.5613 4.49525 5.56036C2.55783 7.55483 2.49783 10.7603 4.36492 12.8231C6.0562 14.6914 7.85631 16.4927 9.72742 18.2026L9.72869 18.2038L11.4995 19.8147C11.7859 20.0752 12.2236 20.0749 12.5097 19.8139L14.2748 18.2035C16.1464 16.4991 17.935 14.7009 19.6324 12.824C21.5086 10.7658 21.4464 7.55506 19.5072 5.55955C17.5584 3.55429 14.4072 3.48999 12.3886 5.42456L12.3835 5.4295C12.2789 5.53162 12.1389 5.66904 12.0001 5.80535C11.8622 5.66984 11.722 5.53287 11.6158 5.43098Z" fill="#16191D"/>
</svg>
