<svg width="24" height="24" viewBox="0 0 24 24" fill="none" xmlns="http://www.w3.org/2000/svg">
<path d="M4.00391 4.25488C4.00391 3.01224 5.01127 2.00488 6.25391 2.00488H14.7476C15.9902 2.00488 16.9976 3.01224 16.9976 4.25488V5.00684H17.7476C18.9902 5.00684 19.9976 6.0142 19.9976 7.25684V19.7507C19.9976 20.9934 18.9902 22.0007 17.7476 22.0007H9.25391C8.01127 22.0007 7.00391 20.9934 7.00391 19.7507V18.9988H6.25391C5.01127 18.9988 4.00391 17.9914 4.00391 16.7488V4.25488ZM8.50391 18.9988V19.7507C8.50391 20.1649 8.83969 20.5007 9.25391 20.5007H17.7476C18.1618 20.5007 18.4976 20.1649 18.4976 19.7507V7.25684C18.4976 6.84262 18.1618 6.50684 17.7476 6.50684H16.9976V16.7488C16.9976 17.9914 15.9902 18.9988 14.7476 18.9988H8.50391ZM10.1652 7.37283C10.4154 7.31527 10.6767 7.32904 10.9194 7.41258C11.1622 7.49612 11.3766 7.64608 11.5383 7.84541C11.7001 8.04474 11.8027 8.28546 11.8344 8.54019C11.8662 8.79492 11.8259 9.05345 11.718 9.2864C11.6102 9.51935 11.4392 9.71737 11.2244 9.85796C11.1877 9.88197 11.15 9.90413 11.1114 9.9244C10.5693 10.2095 9.76949 10.8282 9.77185 11.8139L9.77191 11.8394C9.7729 12.2536 10.1095 12.5886 10.5237 12.5876C10.9379 12.5866 11.2729 12.25 11.2719 11.8358L11.2718 11.8104C11.2717 11.7614 11.2897 11.685 11.3823 11.5756C11.4783 11.4622 11.6281 11.3475 11.8095 11.2521C11.8903 11.2096 11.9692 11.1632 12.0459 11.113C12.4955 10.8187 12.8535 10.4042 13.0792 9.91658C13.305 9.42896 13.3894 8.88779 13.3229 8.35458C13.2564 7.82137 13.0417 7.3175 12.7031 6.90025C12.3645 6.483 11.9157 6.16911 11.4076 5.99424C10.8995 5.81937 10.3525 5.79054 9.82889 5.91103C9.30523 6.03152 8.82588 6.2965 8.44532 6.67584C8.06475 7.05519 7.79823 7.53369 7.67606 8.05695C7.58188 8.46032 7.83253 8.86366 8.23589 8.95783C8.63926 9.05201 9.0426 8.80137 9.13678 8.398C9.19514 8.14802 9.32246 7.91943 9.50427 7.7382C9.68608 7.55698 9.91508 7.43039 10.1652 7.37283ZM11.5234 14.3359C11.5234 13.7837 11.0757 13.3359 10.5234 13.3359C9.97115 13.3359 9.52344 13.7837 9.52344 14.3359C9.52344 14.8882 9.97115 15.3359 10.5234 15.3359C11.0757 15.3359 11.5234 14.8882 11.5234 14.3359Z" fill="#16191D"/>
</svg>
