<svg width="24" height="24" viewBox="0 0 24 24" fill="none" xmlns="http://www.w3.org/2000/svg">
<path d="M12 1.99316C9.37665 1.99316 7.25 4.11981 7.25 6.74316V9.54004H6.5C5.25736 9.54004 4.25 10.5474 4.25 11.79V18.79C4.25 20.0327 5.25736 21.04 6.5 21.04H17.5C18.7426 21.04 19.75 20.0327 19.75 18.79V11.79C19.75 10.5474 18.7426 9.54004 17.5 9.54004H8.75V6.74316C8.75 4.94824 10.2051 3.49316 12 3.49316C13.7949 3.49316 15.25 4.94824 15.25 6.74316V7.29745C15.25 7.71167 15.5858 8.04745 16 8.04745C16.4142 8.04745 16.75 7.71167 16.75 7.29745V6.74316C16.75 4.11981 14.6234 1.99316 12 1.99316ZM12 14.04C12.4142 14.04 12.75 14.3758 12.75 14.79V15.79C12.75 16.2043 12.4142 16.54 12 16.54C11.5858 16.54 11.25 16.2043 11.25 15.79V14.79C11.25 14.3758 11.5858 14.04 12 14.04Z" fill="#16191D"/>
</svg>
