<svg width="20" height="20" viewBox="0 0 20 20" fill="none" xmlns="http://www.w3.org/2000/svg">
<path d="M7.07007 3.55932C6.83818 2.97138 6.72224 2.67741 6.55588 2.59121C6.41164 2.51647 6.24007 2.51647 6.09583 2.59121C5.92947 2.67741 5.81353 2.97138 5.58164 3.55933L5.23542 4.43718C5.09603 4.79062 5.02633 4.96733 4.91961 5.11635C4.82502 5.24843 4.70937 5.36408 4.57728 5.45868C4.42827 5.5654 4.25155 5.63509 3.89812 5.77449L3.02026 6.12071C2.43232 6.35259 2.13835 6.46853 2.05215 6.63489C1.97741 6.77914 1.97741 6.9507 2.05215 7.09494C2.13835 7.26131 2.43232 7.37725 3.02026 7.60913L3.89812 7.95535C4.25155 8.09474 4.42827 8.16444 4.57728 8.27116C4.70937 8.36576 4.82502 8.48141 4.91961 8.61349C5.02633 8.7625 5.09603 8.93922 5.23542 9.29265L5.58164 10.1705C5.81353 10.7585 5.92947 11.0524 6.09583 11.1386C6.24007 11.2134 6.41164 11.2134 6.55588 11.1386C6.72224 11.0524 6.83818 10.7585 7.07007 10.1705L7.41629 9.29266C7.55568 8.93922 7.62538 8.7625 7.7321 8.61349C7.82669 8.48141 7.94234 8.36576 8.07443 8.27116C8.22344 8.16444 8.40016 8.09474 8.75359 7.95535L9.63145 7.60913C10.2194 7.37725 10.5134 7.26131 10.5996 7.09494C10.6743 6.9507 10.6743 6.77914 10.5996 6.63489C10.5134 6.46853 10.2194 6.35259 9.63145 6.12071L8.75359 5.77449C8.40016 5.63509 8.22344 5.5654 8.07443 5.45868C7.94234 5.36408 7.82669 5.24843 7.7321 5.11635C7.62538 4.96733 7.55568 4.79062 7.41629 4.43718L7.07007 3.55932Z" fill="#576175"/>
<path d="M15.9243 7.85214C15.6924 7.2642 15.5765 6.97022 15.4101 6.88403C15.2659 6.80929 15.0943 6.80929 14.9501 6.88403C14.7837 6.97022 14.6678 7.2642 14.4359 7.85214L14.4059 7.92825C14.3069 8.1792 14.2574 8.30467 14.1816 8.41048C14.1145 8.50426 14.0324 8.58637 13.9386 8.65354C13.8328 8.72931 13.7073 8.7788 13.4564 8.87777L13.3802 8.90779C12.7923 9.13967 12.4983 9.25561 12.4121 9.42197C12.3374 9.56622 12.3374 9.73778 12.4121 9.88202C12.4983 10.0484 12.7923 10.1643 13.3802 10.3962L13.4564 10.4262C13.7073 10.5252 13.8328 10.5747 13.9386 10.6505C14.0324 10.7176 14.1145 10.7997 14.1816 10.8935C14.2574 10.9993 14.3069 11.1248 14.4059 11.3757L14.4359 11.4519C14.6678 12.0398 14.7837 12.3338 14.9501 12.42C15.0943 12.4947 15.2659 12.4947 15.4101 12.42C15.5765 12.3338 15.6924 12.0398 15.9243 11.4519L15.9543 11.3757C16.0533 11.1248 16.1028 10.9993 16.1786 10.8935C16.2457 10.7997 16.3278 10.7176 16.4216 10.6505C16.5274 10.5747 16.6529 10.5252 16.9038 10.4262L16.9799 10.3962C17.5679 10.1643 17.8619 10.0484 17.9481 9.88202C18.0228 9.73778 18.0228 9.56622 17.9481 9.42197C17.8619 9.25561 17.5679 9.13967 16.9799 8.90779L16.9038 8.87777C16.6529 8.7788 16.5274 8.72931 16.4216 8.65354C16.3278 8.58637 16.2457 8.50426 16.1786 8.41048C16.1028 8.30467 16.0533 8.1792 15.9543 7.92825L15.9243 7.85214Z" fill="#576175"/>
<path d="M10.6816 13.7551C10.5251 13.3585 10.4469 13.1602 10.3529 13.0795C10.1655 12.9188 9.889 12.9188 9.70169 13.0795C9.60762 13.1602 9.52941 13.3585 9.37299 13.7551C9.28935 13.9672 9.24753 14.0732 9.18349 14.1627C9.12673 14.2419 9.05734 14.3113 8.97809 14.3681C8.88868 14.4321 8.78264 14.4739 8.57057 14.5576C8.17396 14.714 7.97566 14.7922 7.89494 14.8863C7.73424 15.0736 7.73424 15.3501 7.89494 15.5374C7.97566 15.6315 8.17396 15.7097 8.57057 15.8661C8.78264 15.9498 8.88868 15.9916 8.97809 16.0556C9.05734 16.1124 9.12673 16.1818 9.18349 16.261C9.24753 16.3504 9.28935 16.4565 9.37299 16.6685C9.52941 17.0652 9.60762 17.2635 9.70169 17.3442C9.889 17.5049 10.1655 17.5049 10.3529 17.3442C10.4469 17.2635 10.5251 17.0652 10.6816 16.6685C10.7652 16.4565 10.807 16.3504 10.871 16.261C10.9278 16.1818 10.9972 16.1124 11.0765 16.0556C11.1659 15.9916 11.2719 15.9498 11.484 15.8661C11.8806 15.7097 12.0789 15.6315 12.1596 15.5374C12.3203 15.3501 12.3203 15.0736 12.1596 14.8863C12.0789 14.7922 11.8806 14.714 11.484 14.5576C11.2719 14.4739 11.1659 14.4321 11.0765 14.3681C10.9972 14.3113 10.9278 14.2419 10.871 14.1627C10.807 14.0732 10.7652 13.9672 10.6816 13.7551Z" fill="#576175"/>
</svg>
