<svg width="24" height="24" viewBox="0 0 24 24" fill="none" xmlns="http://www.w3.org/2000/svg">
<path d="M6.61568 12.1987C6.61568 11.8204 7.00248 11.5653 7.3502 11.7143L12.7314 14.0206C12.8639 14.0774 13.014 14.0774 13.1465 14.0206L18.5277 11.7143C18.8754 11.5653 19.2622 11.8204 19.2622 12.1987V16.9457C19.2622 17.1453 19.1495 17.3277 18.9709 17.417L14.0123 19.8963C13.3366 20.2342 12.5413 20.2342 11.8656 19.8963L6.90696 17.4169C6.72844 17.3277 6.61568 17.1452 6.61568 16.9456V12.1987Z" fill="#16191D"/>
<path d="M12.939 4.14735L21.1265 7.78626L12.939 11.4252L4.75154 7.78626L12.939 4.14735ZM13.1958 3.10821L22.4213 7.20843C22.9219 7.43096 22.922 8.14156 22.4213 8.36409L13.1958 12.4643C13.0323 12.537 12.8457 12.537 12.6822 12.4643L3.45678 8.36409C2.95609 8.14156 2.95609 7.43096 3.45678 7.20843L12.6822 3.10821C12.8457 3.03555 13.0323 3.03554 13.1958 3.10821ZM2.84044 10.1752C3.00009 9.53655 3.90768 9.53655 4.06734 10.1752L4.98624 13.8508C5.08601 14.2499 4.78416 14.6365 4.37279 14.6365H2.53499C2.12361 14.6365 1.82176 14.2499 1.92153 13.8508L2.84044 10.1752ZM3.45389 12.0667L3.0749 13.5826H3.83287L3.45389 12.0667Z" fill="#16191D"/>
</svg>
