<svg width="20" height="20" viewBox="0 0 20 20" fill="none" xmlns="http://www.w3.org/2000/svg">
<path d="M14.0458 0.838451C14.3286 1.01215 14.4636 1.35108 14.3777 1.67167L12.554 8.47774L15.9336 9.3833C16.1994 9.45454 16.4049 9.66568 16.4689 9.93338C16.5329 10.2011 16.4451 10.4823 16.2402 10.6661L6.84675 19.0909C6.59966 19.3125 6.23631 19.3454 5.95349 19.1717C5.67066 18.998 5.53564 18.659 5.62154 18.3384L7.4453 11.5324L4.06567 10.6268C3.79981 10.5556 3.59433 10.3444 3.53034 10.0767C3.46635 9.80904 3.55413 9.52779 3.75903 9.34402L13.1525 0.919211C13.3996 0.697606 13.7629 0.664756 14.0458 0.838451Z" fill="#576175"/>
</svg>
