<svg xmlns="http://www.w3.org/2000/svg" width="24" height="24" viewBox="0 0 24 24" fill="none">
  <path fill-rule="evenodd" clip-rule="evenodd" d="M12.0078 2C6.48497 2 2.00781 6.47715 2.00781 12C2.00781 17.5228 6.48497 22 12.0078 22C17.5307 22 22.0078 17.5228 22.0078 12C22.0078 6.47715 17.5307 2 12.0078 2ZM8.43804 7.78996C8.58458 7.64343 8.77667 7.57021 8.96873 7.57031C9.1608 7.5702 9.35291 7.64342 9.49946 7.78996L10.9991 9.28941C11.292 9.58229 11.292 10.0572 10.9991 10.3501C10.7062 10.643 10.2314 10.643 9.93845 10.3501L8.96875 9.38052L7.99906 10.3501C7.70615 10.643 7.23127 10.643 6.9384 10.3501C6.64552 10.0572 6.64554 9.58229 6.93844 9.28941L8.43804 7.78996ZM12.0095 17.6581C9.97565 17.6581 8.22944 16.4428 7.43302 14.7024C7.113 14.003 7.66724 13.3105 8.33647 13.3105H15.6825C16.3517 13.3105 16.9059 14.003 16.5859 14.7024C15.7895 16.4428 14.0433 17.6581 12.0095 17.6581ZM14.9687 7.57031C15.1608 7.5702 15.3529 7.64342 15.4995 7.78996L16.9991 9.28941C17.292 9.58229 17.292 10.0572 16.9991 10.3501C16.7062 10.643 16.2314 10.643 15.9384 10.3501L14.9688 9.38052L13.9991 10.3501C13.7061 10.643 13.2313 10.643 12.9384 10.3501C12.6455 10.0572 12.6455 9.58229 12.9384 9.28941L14.438 7.78996C14.5846 7.64343 14.7767 7.57021 14.9687 7.57031Z" fill="#16191D"/>
</svg>