<svg width="24" height="24" viewBox="0 0 24 24" fill="none" xmlns="http://www.w3.org/2000/svg">
<path d="M14.2491 10.2169C14.542 9.92396 14.542 9.44909 14.2491 9.15619C13.9562 8.8633 13.4813 8.8633 13.1884 9.15619L11.414 10.9307L10.8116 10.3282C10.5188 10.0352 10.0439 10.0352 9.75099 10.328C9.45806 10.6209 9.458 11.0958 9.75085 11.3887L10.8835 12.5216C11.0242 12.6623 11.2149 12.7414 11.4139 12.7414C11.6128 12.7414 11.8036 12.6624 11.9442 12.5217L14.2491 10.2169Z" fill="#16191D"/>
<path fill-rule="evenodd" clip-rule="evenodd" d="M11.9995 2.99121C8.77 2.99121 6.15198 5.60924 6.15198 8.83873V19.4893H4.75256C4.33835 19.4893 4.00256 19.825 4.00256 20.2393C4.00256 20.6535 4.33835 20.9893 4.75256 20.9893H6.97346C6.993 20.9906 7.01272 20.9912 7.03258 20.9912H16.9664C16.9863 20.9912 17.006 20.9906 17.0255 20.9893H19.2476C19.6618 20.9893 19.9976 20.6535 19.9976 20.2393C19.9976 19.825 19.6618 19.4893 19.2476 19.4893H17.847V8.83873C17.847 5.60924 15.229 2.99121 11.9995 2.99121ZM16.347 19.4893V17.0146H7.65198V19.4893H16.347ZM16.347 8.83873V15.5146H7.65198V8.83873C7.65198 6.43766 9.59843 4.49121 11.9995 4.49121C14.4006 4.49121 16.347 6.43766 16.347 8.83873Z" fill="#16191D"/>
</svg>
