<svg width="24" height="24" viewBox="0 0 24 24" fill="none" xmlns="http://www.w3.org/2000/svg">
<path d="M18.3146 2.81465C18.3146 2.43377 18.0058 2.125 17.6249 2.125C17.244 2.125 16.9352 2.43377 16.9352 2.81465C16.9352 4.46516 15.5972 5.80316 13.9467 5.80316C13.5659 5.80316 13.2571 6.11192 13.2571 6.49281C13.2571 6.8737 13.5659 7.18246 13.9467 7.18246C15.5972 7.18246 16.9352 8.52046 16.9352 10.171C16.9352 10.5519 17.244 10.8606 17.6249 10.8606C18.0058 10.8606 18.3146 10.5519 18.3146 10.171C18.3146 8.52046 19.6525 7.18246 21.3031 7.18246C21.6839 7.18246 21.9927 6.8737 21.9927 6.49281C21.9927 6.11192 21.6839 5.80316 21.3031 5.80316C19.6525 5.80316 18.3146 4.46516 18.3146 2.81465ZM16.3034 6.49281C16.8332 6.15263 17.2847 5.70111 17.6249 5.17127C17.9651 5.70111 18.4166 6.15263 18.9464 6.49281C18.4166 6.83298 17.9651 7.28451 17.6249 7.81435C17.2847 7.28451 16.8332 6.83298 16.3034 6.49281Z" fill="black"/>
<path d="M11.1881 13.8491C13.8068 13.8491 15.9386 11.764 16.0137 9.16352C16.1622 9.46773 16.2456 9.80961 16.2456 10.171C16.2456 10.6821 16.5236 11.1283 16.9367 11.3666C16.0116 13.632 13.7863 15.2284 11.1881 15.2284C7.76016 15.2284 4.98124 12.4495 4.98124 9.02154C4.98124 5.59357 7.76016 2.81465 11.1881 2.81465C12.8505 2.81465 14.3603 3.46821 15.4745 4.53241C15.0857 4.87851 14.5785 5.09456 14.0213 5.11232C13.2256 4.53463 12.2466 4.19396 11.1881 4.19396C8.52193 4.19396 6.36055 6.35534 6.36055 9.02154C6.36055 11.6877 8.52193 13.8491 11.1881 13.8491Z" fill="black"/>
<path d="M6.66265 14.3274C6.49015 14.1202 6.21275 14.0326 5.95252 14.103C5.6923 14.1734 5.49696 14.389 5.45247 14.6549C5.16895 16.3494 4.88694 18.1295 4.71121 19.2529C4.56031 20.2176 5.01502 21.2961 6.12458 21.5966C7.09519 21.8594 8.69262 22.125 11.1883 22.125C13.6841 22.125 15.2815 21.8594 16.2521 21.5966C17.3617 21.2961 17.8164 20.2176 17.6655 19.2529C17.4897 18.1295 17.2077 16.3494 16.9242 14.6549C16.8797 14.389 16.6844 14.1734 16.4242 14.103C16.1639 14.0326 15.8865 14.1202 15.714 14.3274C14.7348 15.5033 13.0057 16.148 11.1883 16.148C9.37099 16.148 7.64183 15.5033 6.66265 14.3274ZM6.07395 19.4661C6.20579 18.6233 6.39734 17.4115 6.60424 16.1451C7.88938 17.0843 9.56545 17.5273 11.1883 17.5273C12.8112 17.5273 14.4873 17.0843 15.7724 16.1451C15.9793 17.4115 16.1709 18.6232 16.3027 19.4661C16.3727 19.9134 16.1615 20.1921 15.8916 20.2652C15.0616 20.4899 13.5888 20.7457 11.1883 20.7457C8.78793 20.7457 7.31511 20.4899 6.48507 20.2652C6.21514 20.1921 6.00398 19.9134 6.07395 19.4661Z" fill="black"/>
</svg>
