<svg width="24" height="24" viewBox="0 0 24 24" fill="none" xmlns="http://www.w3.org/2000/svg">
<path d="M7.71563 17.5975C8.10515 17.7384 8.53512 17.5368 8.67599 17.1473C9.17454 15.7688 10.4789 14.7947 12 14.7947C13.521 14.7947 14.8254 15.7688 15.3239 17.1473C15.4648 17.5368 15.8948 17.7384 16.2843 17.5975C16.6738 17.4566 16.8754 17.0266 16.7345 16.6371C16.0309 14.6917 14.1811 13.2947 12 13.2947C9.81881 13.2947 7.96898 14.6917 7.26541 16.6371C7.12454 17.0266 7.3261 17.4566 7.71563 17.5975Z" fill="#16191D"/>
<path d="M10.5 9.07617C10.5 9.9046 9.82843 10.5762 9 10.5762C8.17157 10.5762 7.5 9.9046 7.5 9.07617C7.5 8.24774 8.17157 7.57617 9 7.57617C9.82843 7.57617 10.5 8.24774 10.5 9.07617Z" fill="#16191D"/>
<path d="M16.5 9.07617C16.5 9.9046 15.8284 10.5762 15 10.5762C14.1716 10.5762 13.5 9.9046 13.5 9.07617C13.5 8.24774 14.1716 7.57617 15 7.57617C15.8284 7.57617 16.5 8.24774 16.5 9.07617Z" fill="#16191D"/>
<path d="M12.0068 3.5C7.31242 3.5 3.50684 7.30558 3.50684 12C3.50684 16.6944 7.31242 20.5 12.0068 20.5C16.7013 20.5 20.5068 16.6944 20.5068 12C20.5068 7.30558 16.7013 3.5 12.0068 3.5ZM2.00684 12C2.00684 6.47715 6.48399 2 12.0068 2C17.5297 2 22.0068 6.47715 22.0068 12C22.0068 17.5228 17.5297 22 12.0068 22C6.48399 22 2.00684 17.5228 2.00684 12Z" fill="#16191D"/>
</svg>
