<svg width="24" height="24" viewBox="0 0 24 24" fill="none" xmlns="http://www.w3.org/2000/svg">
<path d="M13.8 5.28009C13.8663 5.28009 13.92 5.33382 13.92 5.40009V18.72H10.08V5.40009C10.08 5.33382 10.1337 5.28009 10.2 5.28009H13.8ZM10.2 3.6001C9.2059 3.6001 8.40001 4.40598 8.40001 5.40009V20.4H15.6V5.40009C15.6 4.40598 14.7941 3.6001 13.8 3.6001H10.2Z" fill="#16191D"/>
<path d="M2.4 20.4001H9.59998V18.7201H4.08V10.2001C4.08 10.1339 4.13372 10.0801 4.2 10.0801H9.59998V8.40014H4.2C3.20589 8.40014 2.4 9.20603 2.4 10.2001V20.4001Z" fill="#16191D"/>
<path d="M21.6 12.6001C21.6 11.606 20.7941 10.8001 19.8 10.8001H14.4V12.4801H19.8C19.8663 12.4801 19.92 12.5338 19.92 12.6001V18.7201H14.4V20.4H21.6V12.6001Z" fill="#16191D"/>
</svg>
