<svg width="20" height="21" viewBox="0 0 20 21" fill="none" xmlns="http://www.w3.org/2000/svg">
<path fill-rule="evenodd" clip-rule="evenodd" d="M9.99987 5.56661L7.61052 10.3639C7.31745 10.9523 6.61872 11.2132 6.01173 10.9608L2.04497 9.3115L3.78305 17.1393C5.04242 16.7413 7.64074 16.0203 9.99987 16.0203C12.359 16.0203 14.9573 16.7413 16.2167 17.1393L17.9548 9.3115L13.988 10.9608C13.381 11.2132 12.6823 10.9523 12.3892 10.3639L9.99987 5.56661ZM8.88097 4.44857C9.341 3.52495 10.6587 3.52496 11.1188 4.44857L13.6278 9.48607L17.8232 7.74169C18.758 7.35305 19.7428 8.17862 19.5234 9.16686L17.6245 17.7191C17.4606 18.4572 16.6947 18.8722 15.9954 18.6437C14.8772 18.2783 12.271 17.5203 9.99987 17.5203C7.72872 17.5203 5.12254 18.2783 4.00438 18.6437C3.30503 18.8722 2.53916 18.4572 2.37527 17.7191L0.476321 9.16686C0.256892 8.17862 1.24176 7.35306 2.1765 7.74169L6.37196 9.48607L8.88097 4.44857Z" fill="#576175"/>
</svg>
