<svg width="24" height="24" viewBox="0 0 24 24" fill="none" xmlns="http://www.w3.org/2000/svg">
<path d="M8.40002 5.40009C8.40002 4.40598 9.2059 3.6001 10.2 3.6001H13.8C14.7941 3.6001 15.6 4.40598 15.6 5.40009V20.4H8.40002V5.40009Z" fill="#16191D"/>
<path d="M2.40001 20.4001V10.2001C2.40001 9.20603 3.20589 8.40014 4.2 8.40014H9.59999V10.0801H4.2C4.13373 10.0801 4.08 10.1339 4.08 10.2001V18.7201H9.59999V20.4001H2.40001Z" fill="#16191D"/>
<path d="M21.6 12.6001V20.4H14.4V18.7201H19.92V12.6001C19.92 12.5338 19.8663 12.4801 19.8 12.4801H14.4V10.8001H19.8C20.7941 10.8001 21.6 11.606 21.6 12.6001Z" fill="#16191D"/>
</svg>
