<svg width="24" height="24" viewBox="0 0 24 24" fill="none" xmlns="http://www.w3.org/2000/svg">
<path d="M6.36903 10.5278L3.5729 5.68342C2.89951 4.51675 3.74149 3.05859 5.08855 3.05859L7.9605 3.0586C8.58488 3.0586 9.16196 3.39126 9.47487 3.93157L11.5493 7.51347C11.6988 7.50356 11.8497 7.49853 12.0018 7.49853C12.1579 7.49853 12.3128 7.50383 12.4662 7.51426L14.5405 3.93255C14.8534 3.39224 15.4305 3.05958 16.0549 3.05958L18.9229 3.05957C20.2715 3.05957 21.1133 4.5207 20.4368 5.68736L17.6323 10.5243C18.3398 11.5917 18.7518 12.872 18.7518 14.2485C18.7518 17.9765 15.7297 20.9985 12.0018 20.9985C8.2739 20.9985 5.25182 17.9765 5.25182 14.2485C5.25182 12.8735 5.66297 11.5945 6.36903 10.5278ZM4.87203 4.93357L7.39887 9.31136C8.12843 8.63089 9.00898 8.11021 9.98475 7.80507L8.17683 4.68331C8.13213 4.60612 8.04969 4.5586 7.9605 4.5586L5.08855 4.55859C4.89611 4.55859 4.77583 4.7669 4.87203 4.93357ZM16.6028 9.3095L19.1392 4.93497C19.2358 4.7683 19.1155 4.55957 18.9229 4.55957L16.0549 4.55958C15.9657 4.55958 15.8832 4.6071 15.8385 4.68429L14.0293 7.80833C15 8.11363 15.8762 8.63236 16.6028 9.3095ZM11.8172 12.0982L11.1563 13.0624C11.1271 13.1051 11.084 13.1364 11.0344 13.151L9.91322 13.4815C9.76169 13.5262 9.70226 13.7091 9.79859 13.8343L10.5114 14.7607C10.5429 14.8017 10.5594 14.8523 10.558 14.904L10.5258 16.0725C10.5215 16.2304 10.6771 16.3435 10.8259 16.2905L11.9273 15.8989C11.976 15.8815 12.0292 15.8815 12.0779 15.8989L13.1793 16.2905C13.3282 16.3435 13.4837 16.2304 13.4794 16.0725L13.4473 14.904C13.4458 14.8523 13.4623 14.8017 13.4938 14.7607L14.2066 13.8343C14.303 13.7091 14.2435 13.5262 14.092 13.4815L12.9708 13.151C12.9212 13.1364 12.8781 13.1051 12.8489 13.0624L12.1881 12.0982C12.0988 11.9679 11.9065 11.9679 11.8172 12.0982Z" fill="#16191D"/>
</svg>
