<svg width="24" height="24" viewBox="0 0 24 24" fill="none" xmlns="http://www.w3.org/2000/svg">
<path d="M9.24001 5.40009C9.24001 4.8699 9.66981 4.4401 10.2 4.4401H13.8C14.3302 4.4401 14.76 4.8699 14.76 5.40009V19.56H9.24001V5.40009Z" stroke="#16191D" stroke-width="1.68"/>
<mask id="path-2-inside-1_5022_1388" fill="white">
<path d="M2.4 10.1999C2.4 9.20579 3.20589 8.3999 4.2 8.3999H9.59998V20.3999H2.4V10.1999Z"/>
</mask>
<path d="M0.720006 10.1999C0.720006 8.27795 2.27805 6.71991 4.2 6.71991H9.59998V10.0799H4.2C4.13372 10.0799 4.08 10.1336 4.08 10.1999H0.720006ZM9.59998 22.0799H0.720006L4.08 18.7199H9.59998V22.0799ZM0.720006 22.0799V10.1999C0.720006 8.27795 2.27805 6.71991 4.2 6.71991V10.0799C4.13372 10.0799 4.08 10.1336 4.08 10.1999V18.7199L0.720006 22.0799ZM9.59998 8.3999V20.3999V8.3999Z" fill="#16191D" mask="url(#path-2-inside-1_5022_1388)"/>
<mask id="path-4-inside-2_5022_1388" fill="white">
<path d="M14.4 10.7998H19.8C20.7941 10.7998 21.6 11.6057 21.6 12.5998V20.3998H14.4V10.7998Z"/>
</mask>
<path d="M14.4 9.11981H19.8C21.722 9.11981 23.28 10.6779 23.28 12.5998H19.92C19.92 12.5335 19.8663 12.4798 19.8 12.4798H14.4V9.11981ZM23.28 22.0798H14.4V18.7198H19.92L23.28 22.0798ZM14.4 20.3998V10.7998V20.3998ZM19.8 9.11981C21.722 9.11981 23.28 10.6779 23.28 12.5998V22.0798L19.92 18.7198V12.5998C19.92 12.5335 19.8663 12.4798 19.8 12.4798V9.11981Z" fill="#16191D" mask="url(#path-4-inside-2_5022_1388)"/>
</svg>
