<svg width="24" height="24" viewBox="0 0 24 24" fill="none" xmlns="http://www.w3.org/2000/svg">
<path d="M7.64849 3.00586C8.0627 3.00586 8.39849 3.34165 8.39849 3.75586L8.39848 4.67658C8.55296 4.62293 8.71949 4.56715 8.89429 4.51162C9.72991 4.24617 10.862 3.95025 11.7672 3.9841C12.8536 4.02474 13.5371 4.43059 14.1083 4.78984L14.1788 4.83424C14.6983 5.16159 15.1078 5.41962 15.7754 5.51841C16.8331 5.67492 18.199 5.36707 18.7911 5.20692C19.3825 5.04699 19.9991 5.48317 19.9991 6.12855V12.2913C19.9991 13.0482 19.5021 13.7607 18.707 13.9425C17.9438 14.117 16.6217 14.3506 15.4585 14.1714C14.4798 14.0205 13.8357 13.6113 13.3251 13.2869L13.217 13.2184C12.7062 12.8963 12.3025 12.6716 11.6258 12.6531C11.0188 12.6364 10.1269 12.855 9.31772 13.116C8.96096 13.2311 8.64079 13.3476 8.39846 13.44L8.39844 19.4941H9.89844C10.3127 19.4941 10.6484 19.8299 10.6484 20.2441C10.6484 20.6584 10.3127 20.9941 9.89844 20.9941H7.74264C7.71179 20.998 7.68034 21 7.64844 21C7.61653 21 7.58509 20.998 7.55423 20.9941H5.39844C4.98422 20.9941 4.64844 20.6584 4.64844 20.2441C4.64844 19.8299 4.98422 19.4941 5.39844 19.4941H6.89844L6.89849 3.75586C6.89849 3.34164 7.23428 3.00586 7.64849 3.00586Z" fill="#16191D"/>
</svg>
