<svg width="20" height="20" viewBox="0 0 20 20" fill="none" xmlns="http://www.w3.org/2000/svg">
<g clip-path="url(#clip0_1505_60675)">
<path fill-rule="evenodd" clip-rule="evenodd" d="M8.67339 1.66527C9.23619 0.598557 10.7639 0.598552 11.3267 1.66527L13.5478 5.87497L18.2378 6.68645C19.4262 6.89208 19.8983 8.34503 19.0577 9.20993L15.7404 12.6232L16.4179 17.3344C16.5896 18.5282 15.3537 19.4262 14.2713 18.894L10.0001 16.7938L5.72879 18.894C4.64647 19.4261 3.41051 18.5282 3.58219 17.3344L4.25971 12.6232L0.9424 9.20993C0.101808 8.34504 0.573896 6.89208 1.76233 6.68645L6.45233 5.87497L8.67339 1.66527ZM12.2211 6.57493L10.0001 2.36523L7.779 6.57493C7.56196 6.98629 7.16637 7.27371 6.70806 7.353L2.01806 8.16449L5.33537 11.5777C5.65954 11.9112 5.81064 12.3763 5.74443 12.8367L5.06691 17.5479L9.33818 15.4477C9.75557 15.2425 10.2445 15.2425 10.6619 15.4477L14.9332 17.5479L14.2557 12.8367C14.1895 12.3763 14.3406 11.9113 14.6647 11.5777L17.982 8.16449L13.2921 7.353C12.8337 7.27371 12.4382 6.98629 12.2211 6.57493Z" fill="#576175"/>
</g>
<defs>
<clipPath id="clip0_1505_60675">
<rect width="20" height="20" fill="white"/>
</clipPath>
</defs>
</svg>
