<svg width="24" height="24" viewBox="0 0 24 24" fill="none" xmlns="http://www.w3.org/2000/svg">
<path d="M13.3267 3.70727C12.7639 2.64054 11.2361 2.64055 10.6733 3.70727L8.45227 7.91696L3.76227 8.72845C2.57384 8.93407 2.10175 10.387 2.94234 11.2519L6.25965 14.6651L5.58213 19.3764C5.41045 20.5702 6.64641 21.4681 7.72873 20.936L12 18.8358L16.2713 20.936C17.3536 21.4681 18.5896 20.5702 18.4179 19.3764L17.7404 14.6651L21.0577 11.2519C21.8983 10.387 21.4262 8.93407 20.2377 8.72845L15.5477 7.91696L13.3267 3.70727ZM12.1985 4.78351L14.2211 8.61692C14.4381 9.02829 14.8337 9.3157 15.292 9.395L19.982 10.2065L16.6647 13.6197C16.3405 13.9532 16.1894 14.4183 16.2556 14.8787L16.9331 19.5899L12.6619 17.4897C12.5117 17.4159 12.3524 17.3686 12.1904 17.3479C12.1904 17.3479 12.1969 8.91119 12.1985 4.78351Z" fill="#16191D"/>
</svg>
