<svg width="24" height="24" viewBox="0 0 24 24" fill="none" xmlns="http://www.w3.org/2000/svg">
<path fill-rule="evenodd" clip-rule="evenodd" d="M4.87203 4.93357C4.77583 4.7669 4.89611 4.55859 5.08855 4.55859L7.9605 4.5586C8.04969 4.5586 8.13213 4.60612 8.17683 4.68331L9.98475 7.80507C9.00898 8.11021 8.12843 8.63089 7.39887 9.31136L4.87203 4.93357ZM6.36903 10.5278L3.5729 5.68342C2.89951 4.51675 3.74149 3.05859 5.08855 3.05859L7.9605 3.0586C8.58488 3.0586 9.16196 3.39126 9.47487 3.93157L11.5493 7.51347C11.6988 7.50356 11.8497 7.49853 12.0018 7.49853C12.1579 7.49853 12.3128 7.50383 12.4662 7.51426L14.5405 3.93255C14.8534 3.39224 15.4305 3.05958 16.0549 3.05958L18.9229 3.05957C20.2715 3.05957 21.1133 4.5207 20.4368 5.68736L17.6323 10.5243C18.3398 11.5917 18.7518 12.872 18.7518 14.2485C18.7518 17.9765 15.7297 20.9985 12.0018 20.9985C8.2739 20.9985 5.25182 17.9765 5.25182 14.2485C5.25182 12.8735 5.66297 11.5945 6.36903 10.5278ZM16.6028 9.3095L19.1392 4.93497C19.2358 4.7683 19.1155 4.55957 18.9229 4.55957L16.0549 4.55958C15.9657 4.55958 15.8832 4.6071 15.8385 4.68429L14.0293 7.80833C15 8.11363 15.8762 8.63236 16.6028 9.3095ZM11.8172 12.0982C11.9065 11.9679 12.0988 11.9679 12.1881 12.0982L12.8489 13.0624C12.8781 13.1051 12.9212 13.1364 12.9708 13.151L14.092 13.4815C14.2435 13.5262 14.303 13.7091 14.2066 13.8343L13.4938 14.7607C13.4623 14.8017 13.4458 14.8523 13.4473 14.904L13.4794 16.0725C13.4837 16.2304 13.3282 16.3435 13.1793 16.2905L12.0779 15.8989C12.0292 15.8815 11.976 15.8815 11.9273 15.8989L10.8259 16.2905C10.6771 16.3435 10.5215 16.2304 10.5258 16.0725L10.558 14.904C10.5594 14.8523 10.5429 14.8017 10.5114 14.7607L9.79859 13.8343C9.70226 13.7091 9.76169 13.5262 9.91322 13.4815L11.0344 13.151C11.084 13.1364 11.1271 13.1051 11.1563 13.0624L11.8172 12.0982Z" fill="#16191D"/>
</svg>
