<svg width="24" height="24" viewBox="0 0 24 24" fill="none" xmlns="http://www.w3.org/2000/svg">
<path d="M12 3.74964C12.6842 2.83901 13.7733 2.25 15 2.25C16.5188 2.25 17.75 3.48122 17.75 5C17.75 5.45011 17.6419 5.87497 17.4501 6.25H19.5C20.7426 6.25 21.75 7.25736 21.75 8.5V10.5C21.75 11.6581 20.875 12.6119 19.75 12.7363V19.5C19.75 20.7426 18.7426 21.75 17.5 21.75H6.5C5.25736 21.75 4.25 20.7426 4.25 19.5V12.7363C3.12501 12.6119 2.25 11.6581 2.25 10.5V8.5C2.25 7.25736 3.25736 6.25 4.5 6.25H6.54985C6.35814 5.87497 6.25 5.45011 6.25 5C6.25 3.48122 7.48122 2.25 9 2.25C10.2267 2.25 11.3158 2.83901 12 3.74964ZM12.75 6V6.25H15C15.6904 6.25 16.25 5.69036 16.25 5C16.25 4.30964 15.6904 3.75 15 3.75C13.7574 3.75 12.75 4.75736 12.75 6ZM11.25 7.75H4.5C4.08579 7.75 3.75 8.08579 3.75 8.5V10.5C3.75 10.9142 4.08579 11.25 4.5 11.25H11.25V7.75ZM12.75 7.75V11.25H19.5C19.9142 11.25 20.25 10.9142 20.25 10.5V8.5C20.25 8.08579 19.9142 7.75 19.5 7.75H12.75ZM9 6.25H11.25V6C11.25 4.75736 10.2426 3.75 9 3.75C8.30964 3.75 7.75 4.30964 7.75 5C7.75 5.69036 8.30964 6.25 9 6.25ZM12.75 12.75V20.25H17.5C17.9142 20.25 18.25 19.9142 18.25 19.5V12.75H12.75ZM11.25 12.75H5.75V19.5C5.75 19.9142 6.08579 20.25 6.5 20.25H11.25V12.75Z" fill="#16191D"/>
</svg>
