<svg width="20" height="21" viewBox="0 0 20 21" fill="none" xmlns="http://www.w3.org/2000/svg">
<path fill-rule="evenodd" clip-rule="evenodd" d="M5.65044 2.00586C6.06465 2.00586 6.40044 2.34165 6.40044 2.75586L6.40044 3.67662C6.55491 3.62297 6.72144 3.5672 6.89625 3.51167C7.73186 3.24621 8.864 2.95029 9.76914 2.98414C10.8555 3.02478 11.5391 3.43063 12.1103 3.78989C12.134 3.80482 12.1575 3.81962 12.1808 3.83428C12.7003 4.16163 13.1097 4.41967 13.7773 4.51845C14.835 4.67496 16.2009 4.36711 16.7931 4.20697C17.3844 4.04703 18.0011 4.48321 18.0011 5.12859V11.2914C18.0011 12.0482 17.5041 12.7607 16.709 12.9425C15.9458 13.1171 14.6237 13.3507 13.4604 13.1714C12.4817 13.0206 11.8377 12.6114 11.327 12.2869C11.2903 12.2636 11.2544 12.2407 11.219 12.2184C10.7081 11.8964 10.3045 11.6717 9.62771 11.6531C9.02079 11.6365 8.12882 11.855 7.31967 12.1161C6.96291 12.2312 6.64274 12.3476 6.40041 12.4401L6.40039 18.4946H7.90039C8.3146 18.4946 8.65039 18.8304 8.65039 19.2446C8.65039 19.6588 8.3146 19.9946 7.90039 19.9946H5.74084C5.71118 19.9982 5.681 20 5.65039 20C5.61978 20 5.5896 19.9982 5.55995 19.9946H3.40039C2.98618 19.9946 2.65039 19.6588 2.65039 19.2446C2.65039 18.8304 2.98618 18.4946 3.40039 18.4946H4.90039L4.90039 4.2652L4.90044 2.75586C4.90044 2.34164 5.23623 2.00586 5.65044 2.00586ZM6.40041 10.843C6.54404 10.7926 6.69797 10.7405 6.8591 10.6885C7.67558 10.4251 8.78254 10.1294 9.66881 10.1537C10.7586 10.1836 11.4449 10.5876 12.0189 10.9496C12.0476 10.9676 12.0758 10.9855 12.1038 11.0031C12.6194 11.3291 13.0272 11.5869 13.6889 11.6889C14.5562 11.8226 15.6448 11.6472 16.3746 11.4803C16.4312 11.4673 16.5011 11.4082 16.5011 11.2914V5.8195C15.7235 5.98448 14.5767 6.15307 13.5578 6.00229C12.5705 5.85621 11.9242 5.44718 11.4094 5.12134C11.3763 5.1004 11.3438 5.0798 11.3117 5.05963C10.7982 4.73669 10.3927 4.50852 9.71308 4.4831C9.09174 4.45986 8.17851 4.67819 7.35039 4.94126C6.98083 5.05866 6.64958 5.17785 6.40043 5.27203L6.40041 10.843Z" fill="#576175"/>
</svg>
