<svg width="24" height="24" viewBox="0 0 24 24" fill="none" xmlns="http://www.w3.org/2000/svg">
<path fill-rule="evenodd" clip-rule="evenodd" d="M12 6.5671L9.61065 11.3643C9.31758 11.9528 8.61884 12.2136 8.01185 11.9613L4.04509 10.312L5.78318 18.1398C7.04255 17.7417 9.64087 17.0208 12 17.0208C14.3591 17.0208 16.9574 17.7417 18.2168 18.1398L19.9549 10.312L15.9881 11.9613C15.3811 12.2136 14.6824 11.9528 14.3893 11.3643L12 6.5671ZM10.8811 5.44906C11.3411 4.52544 12.6589 4.52545 13.1189 5.44906L15.6279 10.4866L19.8234 8.74218C20.7581 8.35354 21.743 9.17911 21.5235 10.1673L19.6246 18.7196C19.4607 19.4577 18.6948 19.8727 17.9955 19.6442C16.8773 19.2788 14.2711 18.5208 12 18.5208C9.72884 18.5208 7.12266 19.2788 6.0045 19.6442C5.30515 19.8727 4.53928 19.4577 4.37539 18.7196L2.47644 10.1673C2.25701 9.17911 3.24189 8.35354 4.17662 8.74218L8.37209 10.4866L10.8811 5.44906Z" fill="#16191D"/>
</svg>
