<svg width="21" height="20" viewBox="0 0 21 20" fill="none" xmlns="http://www.w3.org/2000/svg">
<g clip-path="url(#clip0_1505_60688)">
<path fill-rule="evenodd" clip-rule="evenodd" d="M10 1.74964C10.6842 0.839009 11.7733 0.25 13 0.25C14.5188 0.25 15.75 1.48122 15.75 3C15.75 3.45011 15.6419 3.87497 15.4501 4.25H17.5C18.7426 4.25 19.75 5.25736 19.75 6.5V8.5C19.75 9.65814 18.875 10.6119 17.75 10.7363V17.5C17.75 18.7426 16.7426 19.75 15.5 19.75H4.5C3.25736 19.75 2.25 18.7426 2.25 17.5V10.7363C1.12501 10.6119 0.25 9.65814 0.25 8.5V6.5C0.25 5.25736 1.25736 4.25 2.5 4.25H4.54985C4.35814 3.87497 4.25 3.45011 4.25 3C4.25 1.48122 5.48122 0.25 7 0.25C8.2267 0.25 9.31583 0.839009 10 1.74964ZM10.75 4V4.25H13C13.6904 4.25 14.25 3.69036 14.25 3C14.25 2.30964 13.6904 1.75 13 1.75C11.7574 1.75 10.75 2.75736 10.75 4ZM9.25 5.75H2.5C2.08579 5.75 1.75 6.08579 1.75 6.5V8.5C1.75 8.91421 2.08579 9.25 2.5 9.25H9.25V5.75ZM10.75 5.75V9.25H17.5C17.9142 9.25 18.25 8.91421 18.25 8.5V6.5C18.25 6.08579 17.9142 5.75 17.5 5.75H10.75ZM7 4.25H9.25V4C9.25 2.75736 8.24264 1.75 7 1.75C6.30964 1.75 5.75 2.30964 5.75 3C5.75 3.69036 6.30964 4.25 7 4.25ZM10.75 10.75H16.25V17.5C16.25 17.9142 15.9142 18.25 15.5 18.25H10.75V10.75ZM9.25 10.75V18.25H4.5C4.08579 18.25 3.75 17.9142 3.75 17.5V10.75H9.25Z" fill="#576175"/>
</g>
<defs>
<clipPath id="clip0_1505_60688">
<rect width="20" height="20" fill="white" transform="translate(0.125)"/>
</clipPath>
</defs>
</svg>
