<svg width="24" height="24" viewBox="0 0 24 24" fill="none" xmlns="http://www.w3.org/2000/svg">
<path fill-rule="evenodd" clip-rule="evenodd" d="M7.65032 3.00586C8.06453 3.00586 8.40032 3.34165 8.40032 3.75586L8.40032 4.67658C8.55479 4.62293 8.72132 4.56715 8.89612 4.51162C9.73174 4.24617 10.8639 3.95025 11.769 3.9841C12.8554 4.02474 13.539 4.43059 14.1102 4.78984L14.1807 4.83424C14.7002 5.16159 15.1096 5.41962 15.7772 5.51841C16.8349 5.67492 18.2008 5.36707 18.7929 5.20692C19.3843 5.04699 20.001 5.48317 20.001 6.12855V12.2913C20.001 13.0482 19.5039 13.7607 18.7089 13.9425C17.9456 14.117 16.6235 14.3506 15.4603 14.1714C14.4816 14.0205 13.8376 13.6113 13.3269 13.2869L13.2189 13.2184C12.708 12.8963 12.3044 12.6716 11.6276 12.6531C11.0207 12.6364 10.1287 12.855 9.31955 13.116C8.96279 13.2311 8.64262 13.3476 8.40029 13.44L8.40027 19.4946H9.90027C10.3145 19.4946 10.6503 19.8304 10.6503 20.2446C10.6503 20.6588 10.3145 20.9946 9.90027 20.9946H7.74049C7.71091 20.9982 7.6808 21 7.65027 21C7.61973 21 7.58963 20.9982 7.56005 20.9946H5.40027C4.98605 20.9946 4.65027 20.6588 4.65027 20.2446C4.65027 19.8304 4.98605 19.4946 5.40027 19.4946H6.90027L6.90032 3.75586C6.90032 3.34164 7.23611 3.00586 7.65032 3.00586ZM8.40031 6.27198L8.40029 11.8429C8.54392 11.7926 8.69784 11.7405 8.85897 11.6885C9.67546 11.4251 10.7824 11.1293 11.6687 11.1536C12.7585 11.1835 13.4447 11.5876 14.0188 11.9495L14.1037 12.0031C14.6193 12.3291 15.0271 12.5869 15.6888 12.6889C16.5561 12.8225 17.6447 12.6471 18.3745 12.4802C18.4311 12.4673 18.501 12.4082 18.501 12.2913V6.81946C17.7234 6.98443 16.5766 7.15303 15.5576 7.00225C14.5704 6.85617 13.9241 6.44714 13.4093 6.1213L13.3116 6.05959C12.7981 5.73665 12.3926 5.50847 11.713 5.48305C11.0916 5.45982 10.1784 5.67815 9.35027 5.94122C8.98071 6.05862 8.64946 6.17781 8.40031 6.27198Z" fill="#16191D"/>
</svg>
