<svg width="20" height="21" viewBox="0 0 20 21" fill="none" xmlns="http://www.w3.org/2000/svg">
<path d="M10.1852 11.0982C10.0958 10.9679 9.90353 10.9679 9.81422 11.0982L9.1534 12.0624C9.12417 12.1051 9.08112 12.1364 9.03151 12.151L7.91029 12.4815C7.75876 12.5262 7.69933 12.7091 7.79566 12.8343L8.50848 13.7607C8.54002 13.8017 8.55646 13.8523 8.55504 13.904L8.5229 15.0725C8.51856 15.2304 8.67414 15.3435 8.82299 15.2905L9.92436 14.8989C9.97308 14.8815 10.0263 14.8815 10.075 14.8989L11.1764 15.2905C11.3252 15.3435 11.4808 15.2304 11.4765 15.0725L11.4443 13.904C11.4429 13.8523 11.4594 13.8017 11.4909 13.7607L12.2037 12.8343C12.3 12.7091 12.2406 12.5262 12.0891 12.4815L10.9679 12.151C10.9183 12.1364 10.8752 12.1051 10.846 12.0624L10.1852 11.0982Z" fill="#576175"/>
<path fill-rule="evenodd" clip-rule="evenodd" d="M9.54591 6.51356L7.47145 2.93157C7.15854 2.39126 6.58146 2.0586 5.95708 2.0586L3.08513 2.05859C1.73807 2.05859 0.896089 3.51675 1.56948 4.68342L4.3663 9.52893C3.66071 10.5954 3.24987 11.874 3.24987 13.2485C3.24987 16.9765 6.27195 19.9985 9.99987 19.9985C13.7278 19.9985 16.7499 16.9765 16.7499 13.2485C16.7499 11.8713 16.3374 10.5905 15.6293 9.52273L18.4329 4.68736C19.1094 3.5207 18.2676 2.05957 16.919 2.05957L14.051 2.05958C13.4266 2.05958 12.8495 2.39224 12.5366 2.93255L10.4624 6.51413C10.3095 6.50379 10.1553 6.49853 9.99987 6.49853C9.84731 6.49853 9.69594 6.5036 9.54591 6.51356ZM3.08513 3.55859C2.89269 3.55859 2.77241 3.7669 2.86861 3.93357L5.39597 8.31225C6.12541 7.63163 7.00585 7.11078 7.98156 6.80545L6.17342 3.68331C6.12872 3.60612 6.04628 3.5586 5.95708 3.5586L3.08513 3.55859ZM17.1353 3.93497L14.5996 8.30832C13.8728 7.63137 12.9965 7.11286 12.0257 6.80781L13.8346 3.68429C13.8793 3.6071 13.9618 3.55958 14.051 3.55958L16.919 3.55957C17.1116 3.55957 17.2319 3.7683 17.1353 3.93497ZM4.74987 13.2485C4.74987 10.349 7.10037 7.99853 9.99987 7.99853C12.8994 7.99853 15.2499 10.349 15.2499 13.2485C15.2499 16.148 12.8994 18.4985 9.99987 18.4985C7.10037 18.4985 4.74987 16.148 4.74987 13.2485Z" fill="#576175"/>
</svg>
