<svg width="24" height="24" viewBox="0 0 24 24" fill="none" xmlns="http://www.w3.org/2000/svg">
<path d="M15 2.25C13.7733 2.25 12.6842 2.83901 12 3.74963C11.3158 2.83901 10.2267 2.25 9 2.25C7.48122 2.25 6.25 3.48122 6.25 5C6.25 5.45011 6.35814 5.87497 6.54985 6.25H4.5C3.25736 6.25 2.25 7.25736 2.25 8.5V10.5C2.25 11.6581 3.12501 12.6119 4.25 12.7363V19.5C4.25 20.7426 5.25736 21.75 6.5 21.75H11.25V12.75H12.75V21.75H17.5C18.7426 21.75 19.75 20.7426 19.75 19.5V12.7363C20.875 12.6119 21.75 11.6581 21.75 10.5V8.5C21.75 7.25736 20.7426 6.25 19.5 6.25H17.4501C17.6419 5.87497 17.75 5.45011 17.75 5C17.75 3.48122 16.5188 2.25 15 2.25ZM15 6.25H12.75V6C12.75 4.75736 13.7574 3.75 15 3.75C15.6904 3.75 16.25 4.30964 16.25 5C16.25 5.69036 15.6904 6.25 15 6.25ZM11.25 6.25H9C8.30964 6.25 7.75 5.69036 7.75 5C7.75 4.30964 8.30964 3.75 9 3.75C10.2426 3.75 11.25 4.75736 11.25 6V6.25ZM19.5 11.25H12.75V7.75H19.5C19.9142 7.75 20.25 8.08579 20.25 8.5V10.5C20.25 10.9142 19.9142 11.25 19.5 11.25ZM11.25 11.25H4.5C4.08579 11.25 3.75 10.9142 3.75 10.5V8.5C3.75 8.08579 4.08579 7.75 4.5 7.75H11.25V11.25Z" fill="#16191D"/>
</svg>
