<svg width="20" height="20" viewBox="0 0 20 20" fill="none" xmlns="http://www.w3.org/2000/svg">
<g clip-path="url(#clip0_1505_60679)">
<path fill-rule="evenodd" clip-rule="evenodd" d="M11.3267 1.66527C10.7639 0.598552 9.23619 0.598557 8.67339 1.66527L6.45233 5.87497L1.76233 6.68645C0.573896 6.89208 0.101808 8.34504 0.9424 9.20993L4.25971 12.6232L3.58219 17.3344C3.41051 18.5282 4.64647 19.4261 5.72879 18.894L10.0001 16.7938L14.2713 18.894C15.3537 19.4262 16.5896 18.5282 16.4179 17.3344L15.7404 12.6232L19.0577 9.20993C19.8983 8.34503 19.4262 6.89208 18.2378 6.68645L13.5478 5.87497L11.3267 1.66527ZM10.1987 2.74175L12.2211 6.57493C12.4382 6.98629 12.8337 7.27371 13.2921 7.353L17.9821 8.16449L14.6647 11.5777C14.3406 11.9112 14.1895 12.3763 14.2557 12.8367L14.9332 17.5479L10.6619 15.4477C10.5118 15.3739 10.3525 15.3266 10.1905 15.3059C10.1927 15.2828 10.1938 15.2595 10.1938 15.236L10.1987 2.74175Z" fill="#576175"/>
</g>
<defs>
<clipPath id="clip0_1505_60679">
<rect width="20" height="20" fill="white"/>
</clipPath>
</defs>
</svg>
