<svg width="24" height="24" viewBox="0 0 24 24" fill="none" xmlns="http://www.w3.org/2000/svg">
<path d="M12.1854 12.0979C12.0961 11.9676 11.9038 11.9676 11.8145 12.0979L11.1537 13.0621C11.1244 13.1048 11.0814 13.136 11.0318 13.1507L9.91055 13.4812C9.75902 13.5259 9.6996 13.7088 9.79593 13.834L10.5088 14.7604C10.5403 14.8014 10.5567 14.852 10.5553 14.9037L10.5232 16.0722C10.5188 16.2301 10.6744 16.3431 10.8233 16.2902L11.9246 15.8986C11.9733 15.8812 12.0266 15.8812 12.0753 15.8986L13.1767 16.2902C13.3255 16.3431 13.4811 16.2301 13.4767 16.0722L13.4446 14.9037C13.4432 14.852 13.4596 14.8014 13.4912 14.7604L14.204 13.834C14.3003 13.7088 14.2409 13.5259 14.0894 13.4812L12.9681 13.1507C12.9185 13.136 12.8755 13.1048 12.8462 13.0621L12.1854 12.0979Z" fill="#16191D"/>
<path fill-rule="evenodd" clip-rule="evenodd" d="M11.5462 7.51322L9.47169 3.93108C9.15878 3.39078 8.5817 3.05811 7.95733 3.05811L5.08538 3.05811C3.73831 3.0581 2.89633 4.51626 3.56973 5.68293L6.36655 10.5285C5.6609 11.595 5.25001 12.8736 5.25001 14.2482C5.25001 17.9761 8.27209 20.9982 12 20.9982C15.7279 20.9982 18.75 17.9761 18.75 14.2482C18.75 12.8711 18.3376 11.5904 17.6296 10.5227L20.4333 5.68714C21.1098 4.52048 20.268 3.05935 18.9194 3.05935L16.0514 3.05936C15.427 3.05936 14.8499 3.39202 14.537 3.93233L12.4628 7.51383C12.3099 7.50347 12.1556 7.49821 12 7.49821C11.8475 7.49821 11.6962 7.50327 11.5462 7.51322ZM5.08537 4.55811C4.89294 4.5581 4.77265 4.76641 4.86885 4.93308L7.39624 9.31181C8.12569 8.63121 9.00615 8.11038 9.98187 7.80508L8.17366 4.68282C8.12896 4.60563 8.04652 4.55811 7.95732 4.55811L5.08537 4.55811ZM19.1357 4.93475L16.5999 9.30819C15.8732 8.63121 14.9969 8.11267 14.0261 7.80757L15.835 4.68407C15.8797 4.60688 15.9622 4.55936 16.0514 4.55936L18.9194 4.55935C19.112 4.55935 19.2323 4.76808 19.1357 4.93475ZM6.75001 14.2482C6.75001 11.3487 9.10052 8.99821 12 8.99821C14.8995 8.99821 17.25 11.3487 17.25 14.2482C17.25 17.1477 14.8995 19.4982 12 19.4982C9.10052 19.4982 6.75001 17.1477 6.75001 14.2482Z" fill="#16191D"/>
</svg>
