<svg width="24" height="24" viewBox="0 0 24 24" fill="none" xmlns="http://www.w3.org/2000/svg">
<path d="M10.6733 3.66527C11.2361 2.59856 12.7639 2.59855 13.3267 3.66527L15.5477 7.87497L20.2377 8.68645C21.4262 8.89208 21.8983 10.345 21.0577 11.2099L17.7403 14.6232L18.4179 19.3344C18.5895 20.5282 17.3536 21.4262 16.2713 20.894L12 18.7938L7.72873 20.894C6.64641 21.4261 5.41045 20.5282 5.58213 19.3344L6.25965 14.6232L2.94234 11.2099C2.10175 10.345 2.57383 8.89208 3.76227 8.68645L8.45227 7.87497L10.6733 3.66527ZM14.2211 8.57493L12 4.36523L9.77894 8.57493C9.5619 8.98629 9.16631 9.27371 8.708 9.353L4.018 10.1645L7.33531 13.5777C7.65948 13.9112 7.81058 14.3763 7.74437 14.8367L7.06685 19.5479L11.3381 17.4477C11.7555 17.2425 12.2445 17.2425 12.6619 17.4477L16.9331 19.5479L16.2556 14.8367C16.1894 14.3763 16.3405 13.9112 16.6647 13.5777L19.982 10.1645L15.292 9.353C14.8337 9.27371 14.4381 8.98629 14.2211 8.57493Z" fill="#16191D"/>
</svg>
