<svg width="24" height="24" viewBox="0 0 24 24" fill="none" xmlns="http://www.w3.org/2000/svg">
<path d="M6.12 13.9951C5.91 13.3651 5.78625 12.6968 5.78625 12.0001C5.78625 11.3033 5.91 10.6351 6.12 10.0051L2.6265 7.29382C1.91025 8.70682 1.5 10.3006 1.5 12.0001C1.5 13.6996 1.91025 15.2933 2.6265 16.7063L6.12 13.9951Z" fill="black"/>
<path d="M22.08 12.2386C22.08 11.4938 22.0132 10.7783 21.8887 10.0906H12V14.1571H17.6512C17.403 15.4651 16.6582 16.5721 15.5415 17.3168L18.9495 19.9606C20.9347 18.1276 22.08 15.4358 22.08 12.2386Z" fill="black"/>
<path d="M12 22.4999C14.835 22.4999 17.2125 21.5641 18.9495 19.9606L15.5415 17.3168C14.6063 17.9468 13.4122 18.3291 11.9992 18.3291C9.26923 18.3291 6.94948 16.4871 6.11923 14.0054L2.62573 16.7166C4.35373 20.1434 7.89448 22.5014 11.9992 22.5014L12 22.4999Z" fill="black"/>
<path d="M12 5.68125C13.5465 5.68125 14.9213 6.216 16.0185 7.2465L19.0253 4.23975C17.202 2.541 14.835 1.5 12 1.5C7.89526 1.5 4.35375 3.85807 2.6265 7.29382L6.12 10.0051C6.95025 7.52332 9.27001 5.68125 12 5.68125Z" fill="black"/>
</svg>
