<svg width="24" height="24" viewBox="0 0 24 24" fill="none" xmlns="http://www.w3.org/2000/svg">
<path d="M7.65146 1.57362C6.53396 1.62612 5.77122 1.80462 5.10447 2.06637C4.41447 2.33562 3.82947 2.69637 3.24672 3.28062C2.66472 3.86487 2.30622 4.45062 2.03922 5.14137C1.78047 5.80962 1.60572 6.57312 1.55622 7.69137C1.50672 8.80887 1.49622 9.16887 1.50147 12.0196C1.50672 14.8704 1.51947 15.2281 1.57347 16.3486C1.62672 17.4654 1.80447 18.2281 2.06622 18.8956C2.33547 19.5856 2.69622 20.1706 3.28047 20.7534C3.86472 21.3354 4.44971 21.6931 5.14271 21.9609C5.81021 22.2189 6.57447 22.3951 7.69197 22.4439C8.80947 22.4926 9.16947 22.5039 12.0202 22.4986C14.871 22.4934 15.2295 22.4806 16.35 22.4274C17.4705 22.3741 18.2287 22.1956 18.8962 21.9346C19.5862 21.6646 20.172 21.3046 20.754 20.7196C21.336 20.1346 21.6945 19.5489 21.9607 18.8574C22.2195 18.1899 22.395 17.4256 22.4437 16.3089C22.4925 15.1884 22.5045 14.8306 22.4985 11.9791C22.4925 9.12762 22.4805 8.77062 22.4272 7.65087C22.374 6.53112 22.1962 5.77062 21.9345 5.10312C21.6645 4.41312 21.3045 3.82812 20.7202 3.24537C20.136 2.66262 19.5495 2.30487 18.858 2.03862C18.1897 1.77987 17.4262 1.60362 16.3087 1.55562C15.1912 1.50762 14.8312 1.49487 11.9797 1.50012C9.12822 1.50537 8.77121 1.51812 7.65146 1.57212M7.77447 20.5539C6.75072 20.5096 6.19496 20.3394 5.82446 20.1969C5.33396 20.0079 4.98446 19.7791 4.61546 19.4139C4.24646 19.0486 4.01922 18.6976 3.82797 18.2079C3.68397 17.8374 3.51072 17.2824 3.46272 16.2586C3.41097 15.1524 3.39972 14.8201 3.39372 12.0166C3.38772 9.21312 3.39822 8.88162 3.44697 7.77462C3.49047 6.75162 3.66147 6.19512 3.80397 5.82462C3.99297 5.33337 4.22097 4.98462 4.58697 4.61562C4.95297 4.24662 5.30321 4.01937 5.79296 3.82812C6.16271 3.68337 6.71847 3.51162 7.74147 3.46287C8.84847 3.41037 9.18072 3.39987 11.9835 3.39387C14.7862 3.38787 15.1192 3.39837 16.227 3.44712C17.25 3.49137 17.8065 3.66087 18.1762 3.80412C18.6667 3.99312 19.0162 4.22037 19.3852 4.58712C19.7542 4.95387 19.9815 5.30262 20.1735 5.79387C20.3182 6.16287 20.49 6.71787 20.538 7.74162C20.5905 8.84862 20.6025 9.18087 20.6077 11.9836C20.613 14.7864 20.6032 15.1194 20.5545 16.2256C20.5095 17.2494 20.34 17.8051 20.1975 18.1764C20.0085 18.6669 19.7805 19.0164 19.4137 19.3854C19.047 19.7544 18.6975 19.9816 18.2077 20.1729C17.838 20.3169 17.2822 20.4894 16.26 20.5381C15.153 20.5899 14.8207 20.6011 12.0172 20.6071C9.21372 20.6131 8.88147 20.6019 7.77447 20.5539ZM16.3342 6.38787C16.3357 7.08387 16.9005 7.64712 17.5965 7.64562C18.2925 7.64412 18.8557 7.07937 18.8542 6.38337C18.8527 5.68737 18.288 5.12412 17.592 5.12562C16.896 5.12712 16.3335 5.69187 16.3342 6.38787ZM6.60896 12.0099C6.61496 14.9874 9.03297 17.3964 12.0105 17.3904C14.988 17.3844 17.3977 14.9664 17.3925 11.9889C17.3865 9.01137 14.9677 6.60162 11.9902 6.60762C9.01272 6.61362 6.60296 9.03237 6.60896 12.0099ZM8.50122 12.0061C8.49747 10.0734 10.0612 8.50287 11.9947 8.49912C13.9275 8.49537 15.498 10.0591 15.5017 11.9926C15.5055 13.9254 13.9417 15.4959 12.0082 15.4996C10.0755 15.5034 8.50497 13.9404 8.50122 12.0076" fill="black"/>
</svg>
