<svg width="24" height="24" viewBox="0 0 24 24" fill="none" xmlns="http://www.w3.org/2000/svg">
<path d="M21.1875 9.68652C21.8875 9.68652 22.5 10.4325 22.5 11.2851V19.278C22.5 20.1305 21.8875 20.8765 21.1875 20.8765H18.5625C17.8625 20.8765 17.25 20.1305 17.25 19.278V11.2851C17.25 10.4325 17.8625 9.68652 18.5625 9.68652H21.1875Z" fill="black"/>
<path d="M13.3125 3.12402C14.0125 3.12402 14.625 3.8143 14.625 4.60319V19.3949C14.625 20.1837 14.0125 20.874 13.3125 20.874H10.6875C9.9875 20.874 9.375 20.1837 9.375 19.3949V4.60319C9.375 3.8143 9.9875 3.12402 10.6875 3.12402H13.3125Z" fill="black"/>
<path d="M5.4375 7.06152C6.1375 7.06152 6.75 7.7776 6.75 8.59597V19.3371C6.75 20.1555 6.1375 20.8715 5.4375 20.8715H2.8125C2.1125 20.8715 1.5 20.1555 1.5 19.3371V8.59597C1.5 7.7776 2.1125 7.06152 2.8125 7.06152H5.4375Z" fill="black"/>
</svg>
