<svg width="24" height="24" viewBox="0 0 24 24" fill="none" xmlns="http://www.w3.org/2000/svg">
<g clip-path="url(#clip0_2947_644)">
<path d="M17.7996 19.9702H6.20035V18.8254H17.7996V19.9702ZM20.3376 1.1998H9.75355V7.04261H9.78595C10.6716 5.95181 11.784 5.7898 12.972 5.8654C14.7324 5.9734 16.4712 7.0642 16.5792 10.4986V17.065C16.59 17.1622 16.536 17.2162 16.4496 17.2162H14.3976C14.3112 17.2162 14.2572 17.1622 14.2572 17.0758V10.7146C14.2572 9.127 13.7172 7.9282 12.1404 7.9282C10.9956 7.9282 9.76435 8.7274 9.76435 10.4014V17.0434C9.76435 17.1298 9.71035 17.1838 9.62395 17.1838H7.57195C7.48555 17.1838 7.43155 17.1298 7.43155 17.0434V1.1998H3.66235C2.30155 1.1998 1.19995 2.3014 1.19995 3.6622V20.3374C1.19995 21.6982 2.30155 22.7998 3.66235 22.7998H20.3376C21.6876 22.7998 22.8 21.6982 22.8 20.3374V3.6622C22.8 2.3014 21.6984 1.1998 20.3376 1.1998Z" fill="#16191D"/>
</g>
<defs>
<clipPath id="clip0_2947_644">
<rect width="21.6" height="21.6" fill="white" transform="matrix(1 0 0 -1 1.19995 22.7998)"/>
</clipPath>
</defs>
</svg>
