<svg width="25" height="24" viewBox="0 0 25 24" fill="none" xmlns="http://www.w3.org/2000/svg">
<g clip-path="url(#clip0_2947_722)">
<path d="M22.5 14.3553C22.5 13.6133 21.936 13.0093 21.24 13.0093H11.176C10.48 13.0093 9.91602 13.6133 9.91602 14.3553C9.91602 15.0973 10.479 15.7013 11.176 15.7013H21.24C21.936 15.7023 22.5 15.0983 22.5 14.3553Z" fill="#16191D"/>
<path d="M3.982 18.1876L8.295 22.5486C9.268 23.5276 10.613 24.0006 12.098 24.0006C13.583 24.0006 14.928 23.4886 15.903 22.5066L18.491 19.8696C19.001 19.3556 18.983 18.5046 18.452 17.9696C17.921 17.4346 17.077 17.4166 16.568 17.9306L13.892 20.5376C13.43 21.0046 12.79 21.1996 12.083 21.1996C11.376 21.1996 10.737 21.0046 10.273 20.5376L5.975 16.1746C5.512 15.7076 5.279 15.0246 5.279 14.3116C5.279 13.5986 5.512 12.9546 5.975 12.4876L10.26 8.1076C10.723 7.6406 11.376 7.4626 12.082 7.4626C12.788 7.4626 13.428 7.6576 13.891 8.1246L16.567 10.7306C17.077 11.2456 17.921 11.2276 18.452 10.6926C18.983 10.1566 19.001 9.3056 18.491 8.7916L15.903 6.1556C15.254 5.5096 14.432 5.0396 13.511 4.8256L13.477 4.8186L15.924 2.3156C16.436 1.8016 16.418 0.949599 15.887 0.414599C15.356 -0.120402 14.511 -0.137402 14 0.376599L3.982 10.4766C3.009 11.4586 2.5 12.8136 2.5 14.3116C2.5 15.8096 3.009 17.2076 3.982 18.1876Z" fill="#16191D"/>
<path d="M7.28858 21.531L3.982 18.1876C3.009 17.2076 2.5 15.8096 2.5 14.3116C2.5 12.8136 3.009 11.4586 3.982 10.4766L14 0.376599C14.511 -0.137402 15.356 -0.120402 15.887 0.414599C16.418 0.949599 16.436 1.8016 15.924 2.3156L13.477 4.8186L10.26 8.1076L5.975 12.4876C5.512 12.9546 5.279 13.5986 5.279 14.3116C5.279 15.0246 5.512 15.7076 5.975 16.1746L9.29787 19.5477C9.83889 20.0969 9.83923 20.9786 9.29863 21.5282C8.7466 22.0895 7.84215 22.0907 7.28858 21.531Z" fill="#16191D"/>
</g>
<defs>
<clipPath id="clip0_2947_722">
<rect width="24" height="24" fill="white" transform="translate(0.5)"/>
</clipPath>
</defs>
</svg>
