<svg width="24" height="24" viewBox="0 0 24 24" fill="none" xmlns="http://www.w3.org/2000/svg">
<g clip-path="url(#clip0_2947_659)">
<path d="M10.9694 5.30176H7.95339C7.85161 5.30176 7.76861 5.38475 7.76861 5.48654V10.2798H4.51932V5.4881C4.51932 5.38632 4.43632 5.30332 4.33454 5.30332H1.31857C1.21678 5.30332 1.13379 5.38632 1.13379 5.4881V18.4618C1.13379 18.5636 1.21678 18.6466 1.31857 18.6466H4.33454C4.43632 18.6466 4.51932 18.5636 4.51932 18.4618V13.6685H7.76861V18.4618C7.76861 18.5636 7.85161 18.6466 7.95339 18.6466H10.9694C11.0711 18.6466 11.1541 18.5636 11.1541 18.4618V5.4881C11.1541 5.38475 11.0711 5.30176 10.9694 5.30176Z" fill="#16191D"/>
<path d="M22.6146 18.6466H12.9622C12.8605 18.6466 12.7775 18.5636 12.7775 18.4618V5.48654C12.7775 5.38475 12.8605 5.30176 12.9622 5.30176H22.6146C22.7164 5.30176 22.7994 5.38475 22.7994 5.48654V18.4602C22.7994 18.5636 22.7164 18.6466 22.6146 18.6466Z" fill="#16191D"/>
</g>
<defs>
<clipPath id="clip0_2947_659">
<rect width="21.6656" height="13.3448" fill="white" transform="translate(1.13379 5.30176)"/>
</clipPath>
</defs>
</svg>
