<svg width="24" height="24" viewBox="0 0 24 24" fill="none" xmlns="http://www.w3.org/2000/svg">
<path d="M17.4872 16.4248C18.0513 16.6095 18.5154 16.871 18.877 17.2095C18.9565 17.2659 18.995 17.33 18.995 17.4044C18.995 17.5249 18.9052 17.6403 18.7232 17.7531C18.5103 17.8865 18.1923 18.1224 17.7718 18.4609C17.382 18.7712 17.0666 18.9968 16.8282 19.1404C16.782 19.1635 16.7358 19.1763 16.6897 19.1763C16.6204 19.1763 16.5589 19.1507 16.5102 19.1045C16.4589 19.0558 16.4333 18.9994 16.4333 18.9353C16.4333 18.8789 16.4538 18.8301 16.4948 18.7814C16.5512 18.6891 16.6794 18.5865 16.8846 18.4763C17.0179 18.407 17.1846 18.2942 17.3846 18.1352C17.6256 17.9403 17.7923 17.8121 17.8846 17.7531C18.0872 17.6506 18.1898 17.5788 18.1898 17.5377C18.1898 17.5275 18.1872 17.5198 18.1821 17.5095C18.0718 17.3147 17.8872 17.1685 17.6333 17.071C17.4077 17.0069 17.1769 16.9403 16.9461 16.8685C16.6743 16.7864 16.4717 16.6685 16.3409 16.5146C16.3307 16.5018 16.3281 16.4838 16.3281 16.4659C16.3281 16.4095 16.3615 16.3479 16.4256 16.2812C16.4897 16.2146 16.5538 16.1812 16.6128 16.1812C16.6487 16.171 16.6871 16.1684 16.723 16.1684C16.8307 16.1684 16.9615 16.2018 17.1179 16.2659C17.2384 16.3171 17.3615 16.3684 17.4872 16.4248ZM6.65312 16.1966C6.75825 16.1966 6.84544 16.2248 6.91467 16.2812C6.98134 16.3377 7.01468 16.4018 7.01468 16.4761C7.01468 16.5325 6.99417 16.5813 6.95314 16.6223C6.79928 16.789 6.48644 16.9685 6.00948 17.1582C5.56843 17.3352 5.27355 17.5377 5.11969 17.7685C5.37867 17.9249 5.71972 18.0968 6.14026 18.2814C6.8121 18.5814 7.15828 18.7378 7.18136 18.7481C7.26854 18.7891 7.31214 18.8558 7.31214 18.9507C7.32239 19.066 7.27624 19.1635 7.17623 19.2455C7.07622 19.3276 6.96083 19.3661 6.83262 19.3661C6.78133 19.3661 6.73261 19.3558 6.68645 19.3379C6.63004 19.2814 6.55568 19.2173 6.45823 19.143C5.84794 18.8096 5.19405 18.4917 4.49914 18.1916C4.4299 18.1634 4.36066 18.1378 4.29143 18.1147C4.20424 18.0737 4.15296 18.0121 4.13757 17.9352C4.13757 17.7352 4.22476 17.5506 4.40169 17.3788C4.61453 17.207 4.96583 17.0121 5.45817 16.789C5.93512 16.5761 6.27873 16.3787 6.49413 16.1992C6.49413 16.1966 6.54542 16.1966 6.65312 16.1966Z" fill="black"/>
<path d="M11.0104 16.1864C10.895 16.0197 10.7873 15.9018 10.6898 15.8325C10.5924 15.7633 10.4796 15.73 10.3488 15.73C10.3026 15.73 10.2616 15.7376 10.2283 15.7505L9.45898 16.0172C9.41538 16.0325 9.3641 16.0377 9.30768 16.0377C9.20511 16.0377 9.12306 16.0146 9.06151 15.9659C8.99741 15.9197 8.92048 15.8248 8.83073 15.6838L8.61789 15.8248C8.75124 16.0172 8.86663 16.1454 8.95894 16.2069C9.05382 16.271 9.17178 16.3018 9.31794 16.3018C9.38205 16.3018 9.44616 16.2915 9.5077 16.2736L10.2129 16.0172C10.259 15.9992 10.3103 15.9889 10.3642 15.9889C10.4539 15.9889 10.5283 16.0069 10.5821 16.0454C10.636 16.0813 10.7129 16.1659 10.8103 16.2992L11.0104 16.1864Z" fill="black"/>
<path d="M16.2081 20.4356C16.5954 22.7486 13.767 22.9717 12.6053 21.9332C11.8027 21.2152 12.0284 20.2177 13.1797 20.2792C14.1926 20.3331 14.7901 21.6409 16.2081 20.4356Z" fill="black"/>
<path d="M7.61778 20.4356C7.23057 22.7486 10.059 22.9717 11.2206 21.9332C12.0232 21.2152 11.7975 20.2177 10.6462 20.2792C9.6333 20.3331 9.03582 21.6409 7.61778 20.4356Z" fill="black"/>
<path d="M10.3946 17.0788C10.2664 16.9891 10.1074 16.9429 9.91769 16.9429C9.68947 16.9429 9.50484 17.0122 9.36124 17.1481C9.19456 17.2994 9.13046 17.5148 9.16892 17.7968C9.192 18.0251 9.27406 18.2251 9.41253 18.3994C9.55356 18.5738 9.7228 18.661 9.91769 18.661C10.0382 18.661 10.1639 18.6277 10.2921 18.5584C10.5203 18.4225 10.6331 18.161 10.6331 17.7738C10.6331 17.425 10.5536 17.1942 10.3946 17.0788ZM9.90743 17.9994C9.77409 17.9994 9.66383 17.8917 9.66383 17.7558C9.66383 17.6225 9.77153 17.5122 9.90743 17.5122C10.0408 17.5122 10.151 17.6199 10.151 17.7558C10.151 17.8917 10.0408 17.9994 9.90743 17.9994Z" fill="black"/>
<path d="M12.0868 20.0817C12.1586 20.0817 12.2278 20.0689 12.2919 20.0432C12.356 20.0176 12.415 19.9868 12.4688 19.9458C12.5227 19.9047 12.5714 19.8586 12.615 19.8099C12.6586 19.7586 12.6971 19.7099 12.7278 19.656C12.7612 19.6047 12.7868 19.556 12.8073 19.5073C12.8278 19.4611 12.8432 19.4227 12.8509 19.3893C12.8484 19.3842 12.8458 19.3765 12.8407 19.3662C12.8355 19.3586 12.8304 19.3509 12.8278 19.3432C12.8227 19.338 12.8176 19.3355 12.815 19.3355C12.7535 19.4483 12.6868 19.5406 12.6099 19.6124C12.5329 19.6842 12.4483 19.7355 12.3586 19.7688C12.2663 19.8022 12.1663 19.8176 12.0611 19.8176C11.9688 19.8176 11.8868 19.8047 11.815 19.7817C11.7406 19.7586 11.6765 19.7227 11.6175 19.6791C11.5585 19.6329 11.5072 19.5791 11.4585 19.5175C11.4124 19.456 11.3688 19.3842 11.3303 19.3073C11.3277 19.3073 11.3252 19.3098 11.32 19.315C11.3149 19.3201 11.3098 19.3278 11.3072 19.3355C11.3021 19.3432 11.3021 19.3483 11.2995 19.3534C11.3354 19.4534 11.379 19.5457 11.4329 19.6355C11.4842 19.7227 11.5431 19.7996 11.6098 19.8663C11.6765 19.9329 11.7483 19.9868 11.8303 20.0253C11.9073 20.0586 11.9945 20.0791 12.0868 20.0817Z" fill="black"/>
<path d="M14.3408 17.0635C14.2126 16.9737 14.0536 16.9276 13.8639 16.9276C13.6356 16.9276 13.451 16.9968 13.3074 17.1327C13.1407 17.284 13.0766 17.502 13.1151 17.7815C13.1381 18.0097 13.2202 18.2097 13.3587 18.3841C13.4997 18.5585 13.669 18.6456 13.8639 18.6456C13.9844 18.6456 14.11 18.6123 14.2382 18.5431C14.4665 18.4072 14.5793 18.1456 14.5793 17.7584C14.5819 17.4071 14.5024 17.1763 14.3408 17.0635ZM13.7818 18.0277C13.6485 18.0277 13.5382 17.9174 13.5382 17.784C13.5382 17.6507 13.6459 17.5404 13.7818 17.5404C13.9151 17.5404 14.0254 17.6481 14.0254 17.784C14.0254 17.92 13.9151 18.0277 13.7818 18.0277Z" fill="black"/>
<path d="M16.013 14.3041C16.4079 14.1323 16.6105 12.7989 16.8772 11.5578C17.8388 9.36017 19.9851 7.74211 19.8569 5.69839C18.0952 2.24944 15.6284 2.12636 14.5719 1.85198C13.2026 1.59812 11.8358 1.41092 10.4691 1.60837C9.49722 1.75197 8.23816 2.68793 7.07398 2.76742C5.96365 3.13412 5.68671 3.62133 5.37643 4.04956C5.03026 4.80346 4.95077 5.55479 5.12001 6.30868C5.54567 7.66262 6.19956 8.89347 6.40214 10.3679C6.85089 11.1603 6.88166 12.6578 7.90737 13.663C11.046 12.168 13.6103 13.3271 16.013 14.3041Z" fill="black"/>
<path d="M7.9975 14.5351C9.12834 13.9351 11.9593 12.4503 15.7493 15.0531C16.4828 10.8963 9.91297 10.1747 7.96673 13.1914L7.9975 14.5351Z" fill="black"/>
<path d="M15.7594 15.0737L15.744 15.0635C14.1208 13.948 12.4848 13.4582 10.877 13.6044C9.54873 13.7249 8.54353 14.2583 8.00247 14.5455L7.98708 14.5532V14.5352C7.89405 10.4651 16.6173 10.2292 15.762 15.0558L15.7594 15.0737ZM11.4335 13.5557C12.8592 13.5557 14.3055 14.0506 15.7414 15.0353C16.5948 10.043 7.90654 10.2877 8.00503 14.5147C8.55122 14.225 9.55129 13.6993 10.8719 13.5788C11.0616 13.5634 11.2488 13.5557 11.4335 13.5557Z" fill="black"/>
</svg>
