<svg width="24" height="24" viewBox="0 0 24 24" fill="none" xmlns="http://www.w3.org/2000/svg">
<path d="M19.4048 4.55175C17.4405 2.5845 14.8275 1.5015 12.0443 1.5C6.30829 1.5 1.63954 6.168 1.63804 11.9055C1.63729 13.74 2.11654 15.5303 3.02704 17.1075L1.55029 22.5L7.06654 21.0532C8.58604 21.8827 10.2975 22.3192 12.039 22.32H12.0435C17.7788 22.32 22.4475 17.652 22.449 11.9145C22.4498 9.1335 21.369 6.51975 19.404 4.55325L19.4048 4.55175ZM12.0443 20.562H12.0405C10.4888 20.562 8.96629 20.1443 7.63804 19.3568L7.32229 19.1693L4.04854 20.028L4.92229 16.836L4.71679 16.509C3.85129 15.132 3.39379 13.5405 3.39454 11.9062C3.39679 7.13775 7.27654 3.258 12.0473 3.258C14.3573 3.25875 16.5285 4.1595 18.162 5.7945C19.7948 7.42875 20.694 9.60225 20.6925 11.913C20.6903 16.6823 16.8113 20.562 12.0443 20.562ZM16.788 14.085C16.5278 13.9545 15.2498 13.326 15.0113 13.239C14.7728 13.152 14.5995 13.1085 14.4263 13.3695C14.253 13.6298 13.755 14.2155 13.6028 14.3888C13.4513 14.5628 13.299 14.5837 13.0395 14.4532C12.7793 14.3227 11.9415 14.0482 10.9485 13.1632C10.176 12.474 9.65404 11.6227 9.50179 11.3617C9.35029 11.1015 9.48604 10.9605 9.61579 10.8315C9.73279 10.7145 9.87604 10.5278 10.0058 10.3763C10.1363 10.2248 10.179 10.116 10.266 9.94275C10.353 9.76875 10.3095 9.61725 10.2443 9.4875C10.179 9.357 9.65929 8.0775 9.44254 7.557C9.23179 7.05 9.01729 7.119 8.85754 7.11075C8.70604 7.10325 8.53279 7.10175 8.35879 7.10175C8.18479 7.10175 7.90354 7.16625 7.66504 7.42725C7.42654 7.6875 6.75529 8.31675 6.75529 9.59625C6.75529 10.8758 7.68679 12.1125 7.81729 12.2865C7.94779 12.4605 9.65104 15.0863 12.2588 16.2128C12.879 16.4805 13.3635 16.641 13.7415 16.7603C14.364 16.9583 14.931 16.9305 15.3788 16.8638C15.8783 16.7888 16.917 16.2345 17.1338 15.627C17.3505 15.0195 17.3505 14.499 17.2853 14.3903C17.22 14.2815 17.0468 14.2163 16.7865 14.0865L16.788 14.085Z" fill="black"/>
</svg>
