<svg width="24" height="24" viewBox="0 0 24 24" fill="none" xmlns="http://www.w3.org/2000/svg">
<g clip-path="url(#clip0_10293_9669)">
<path d="M12 0C5.37258 0 0 5.37258 0 12C0 17.9895 4.3882 22.954 10.125 23.8542V15.4688H7.07812V12H10.125V9.35625C10.125 6.34875 11.9166 4.6875 14.6576 4.6875C14.8216 4.6875 14.9867 4.69116 15.1498 4.69757C15.8477 4.72498 16.5118 4.80263 16.9229 4.8589C17.1846 4.89472 17.3438 4.92188 17.3438 4.92188V7.875H15.8306C14.34 7.875 13.875 8.80102 13.875 9.75V12H17.2031L16.6711 15.4688H13.875V23.8542C19.6118 22.954 24 17.9895 24 12C24 5.37258 18.6274 0 12 0Z" fill="black"/>
</g>
<defs>
<clipPath id="clip0_10293_9669">
<rect width="24" height="24" fill="white"/>
</clipPath>
</defs>
</svg>
