<svg width="24" height="24" viewBox="0 0 24 24" fill="none" xmlns="http://www.w3.org/2000/svg">
<path d="M18.1092 16.9237C18.7373 17.1292 19.254 17.4204 19.6566 17.7973C19.7451 17.8601 19.7879 17.9315 19.7879 18.0143C19.7879 18.1484 19.688 18.2769 19.4853 18.4025C19.2483 18.551 18.8943 18.8136 18.4261 19.1905C17.9922 19.5359 17.641 19.7872 17.3755 19.947C17.3241 19.9727 17.2727 19.987 17.2213 19.987C17.1442 19.987 17.0757 19.9585 17.0215 19.9071C16.9644 19.8528 16.9358 19.79 16.9358 19.7187C16.9358 19.6558 16.9587 19.6016 17.0044 19.5474C17.0672 19.4446 17.2099 19.3304 17.4383 19.2076C17.5868 19.1305 17.7723 19.0049 17.995 18.8279C18.2634 18.6109 18.4489 18.4682 18.5517 18.4025C18.7773 18.2883 18.8915 18.2084 18.8915 18.1627C18.8915 18.1513 18.8886 18.1427 18.8829 18.1313C18.7601 17.9143 18.5546 17.7516 18.2719 17.6431C18.0207 17.5717 17.7638 17.4975 17.5068 17.4176C17.2042 17.3262 16.9787 17.1949 16.8331 17.0236C16.8216 17.0093 16.8188 16.9893 16.8188 16.9694C16.8188 16.9065 16.8559 16.838 16.9273 16.7638C16.9986 16.6896 17.07 16.6525 17.1357 16.6525C17.1757 16.641 17.2185 16.6382 17.2584 16.6382C17.3783 16.6382 17.524 16.6753 17.6981 16.7467C17.8323 16.8038 17.9693 16.8609 18.1092 16.9237ZM6.04714 16.6696C6.16419 16.6696 6.26126 16.701 6.33834 16.7638C6.41257 16.8266 6.44968 16.898 6.44968 16.9808C6.44968 17.0436 6.42684 17.0978 6.38116 17.1435C6.20987 17.3291 5.86157 17.5289 5.33055 17.7402C4.8395 17.9372 4.51119 18.1627 4.3399 18.4197C4.62824 18.5938 5.00794 18.7851 5.47615 18.9906C6.22414 19.3247 6.60956 19.4988 6.63525 19.5102C6.73232 19.5559 6.78085 19.6301 6.78085 19.7358C6.79227 19.8643 6.74088 19.9727 6.62954 20.0641C6.5182 20.1555 6.38973 20.1983 6.24698 20.1983C6.18988 20.1983 6.13564 20.1869 6.08425 20.1669C6.02144 20.1041 5.93865 20.0327 5.83016 19.9499C5.15069 19.5788 4.42269 19.2247 3.649 18.8907C3.57192 18.8593 3.49484 18.8308 3.41776 18.8051C3.32069 18.7594 3.26359 18.6909 3.24646 18.6052C3.24646 18.3825 3.34353 18.177 3.54052 17.9857C3.77748 17.7944 4.1686 17.5775 4.71674 17.3291C5.24776 17.0921 5.63032 16.8723 5.87013 16.6724C5.87013 16.6696 5.92723 16.6696 6.04714 16.6696Z" fill="#16191D"/>
<path d="M10.8983 16.6582C10.7698 16.4726 10.6499 16.3413 10.5414 16.2642C10.4329 16.1871 10.3073 16.15 10.1617 16.15C10.1103 16.15 10.0646 16.1586 10.0275 16.1729L9.17104 16.4698C9.1225 16.4869 9.0654 16.4926 9.0026 16.4926C8.8884 16.4926 8.79704 16.4669 8.72852 16.4127C8.65715 16.3613 8.5715 16.2557 8.47158 16.0986L8.23462 16.2557C8.38308 16.4698 8.51155 16.6125 8.61432 16.681C8.71996 16.7524 8.85128 16.7867 9.01402 16.7867C9.08539 16.7867 9.15676 16.7753 9.22528 16.7553L10.0104 16.4698C10.0618 16.4498 10.1189 16.4384 10.1788 16.4384C10.2787 16.4384 10.3615 16.4584 10.4215 16.5012C10.4814 16.5411 10.5671 16.6354 10.6756 16.7838L10.8983 16.6582Z" fill="#16191D"/>
<path fill-rule="evenodd" clip-rule="evenodd" d="M16.6852 21.3891C17.1163 23.9642 13.9673 24.2126 12.674 23.0564C11.7804 22.257 12.0317 21.1464 13.3135 21.2149C14.4412 21.2749 15.1064 22.7309 16.6852 21.3891Z" fill="#16191D"/>
<path fill-rule="evenodd" clip-rule="evenodd" d="M7.12114 21.3891C6.69005 23.9642 9.83903 24.2126 11.1323 23.0564C12.0259 22.257 11.7747 21.1464 10.4928 21.2149C9.36512 21.2749 8.69992 22.7309 7.12114 21.3891Z" fill="#16191D"/>
<path d="M10.2128 17.6518C10.07 17.5519 9.89301 17.5005 9.68174 17.5005C9.42765 17.5005 9.2221 17.5776 9.06222 17.7289C8.87665 17.8973 8.80528 18.1371 8.8481 18.4512C8.8738 18.7053 8.96516 18.928 9.11932 19.1221C9.27634 19.3162 9.46477 19.4133 9.68174 19.4133C9.81592 19.4133 9.95582 19.3762 10.0986 19.2991C10.3527 19.1478 10.4783 18.8566 10.4783 18.4255C10.4783 18.0372 10.3898 17.7803 10.2128 17.6518ZM9.67032 18.6767C9.52187 18.6767 9.39911 18.5568 9.39911 18.4055C9.39911 18.257 9.51901 18.1343 9.67032 18.1343C9.81878 18.1343 9.94154 18.2542 9.94154 18.4055C9.94154 18.5568 9.81878 18.6767 9.67032 18.6767Z" fill="#16191D"/>
<path d="M12.0967 20.995C12.1766 20.995 12.2537 20.9807 12.3251 20.9522C12.3964 20.9236 12.4621 20.8894 12.5221 20.8437C12.582 20.798 12.6363 20.7466 12.6848 20.6924C12.7333 20.6353 12.7762 20.581 12.8104 20.5211C12.8475 20.464 12.8761 20.4097 12.8989 20.3555C12.9218 20.3041 12.9389 20.2613 12.9474 20.2242C12.9446 20.2185 12.9417 20.2099 12.936 20.1985C12.9303 20.1899 12.9246 20.1813 12.9218 20.1728C12.916 20.1671 12.9103 20.1642 12.9075 20.1642C12.839 20.2898 12.7647 20.3926 12.6791 20.4725C12.5934 20.5525 12.4992 20.6096 12.3993 20.6467C12.2965 20.6838 12.1852 20.7009 12.0681 20.7009C11.9654 20.7009 11.874 20.6867 11.7941 20.661C11.7113 20.6353 11.6399 20.5953 11.5742 20.5468C11.5086 20.4954 11.4515 20.4354 11.3972 20.3669C11.3458 20.2984 11.2973 20.2185 11.2545 20.1328C11.2516 20.1328 11.2488 20.1357 11.2431 20.1414C11.2373 20.1471 11.2316 20.1557 11.2288 20.1642C11.2231 20.1728 11.2231 20.1785 11.2202 20.1842C11.2602 20.2955 11.3087 20.3983 11.3687 20.4982C11.4258 20.5953 11.4914 20.681 11.5657 20.7552C11.6399 20.8294 11.7198 20.8894 11.8112 20.9322C11.8968 20.9693 11.9939 20.9921 12.0967 20.995Z" fill="#16191D"/>
<path d="M14.6062 17.6347C14.4635 17.5348 14.2865 17.4834 14.0752 17.4834C13.8211 17.4834 13.6155 17.5605 13.4557 17.7118C13.2701 17.8802 13.1987 18.1229 13.2415 18.4341C13.2672 18.6882 13.3586 18.9109 13.5128 19.105C13.6698 19.2991 13.8582 19.3962 14.0752 19.3962C14.2094 19.3962 14.3493 19.3591 14.492 19.282C14.7461 19.1307 14.8717 18.8395 14.8717 18.4084C14.8746 18.0173 14.7861 17.7603 14.6062 17.6347ZM13.9838 18.7082C13.8354 18.7082 13.7126 18.5854 13.7126 18.4369C13.7126 18.2885 13.8325 18.1657 13.9838 18.1657C14.1323 18.1657 14.2551 18.2856 14.2551 18.4369C14.2551 18.5883 14.1323 18.7082 13.9838 18.7082Z" fill="#16191D"/>
<path d="M16.468 14.5625C16.9076 14.3713 17.1332 12.8867 17.4301 11.5049C18.5007 9.05823 20.8903 7.25677 20.7475 4.98139C18.7862 1.14151 16.0397 1.00448 14.8635 0.699C13.339 0.416362 11.8173 0.207952 10.2956 0.427782C9.21361 0.587658 7.81184 1.62971 6.5157 1.71821C5.27952 2.12646 4.97119 2.6689 4.62574 3.14567C4.24033 3.98502 4.15183 4.82152 4.34026 5.66087C4.81417 7.16827 5.54217 8.53863 5.76771 10.1802C6.26732 11.0624 6.30158 12.7297 7.44356 13.8488C10.938 12.1844 13.7929 13.4748 16.468 14.5625Z" fill="#16191D"/>
<path fill-rule="evenodd" clip-rule="evenodd" d="M7.5439 14.8197C8.80293 14.1517 11.9548 12.4987 16.1744 15.3964C16.2943 14.7169 16.3057 14.0375 16.2115 13.358C16.0916 11.7507 9.79359 9.78363 7.50964 13.3237L7.5439 14.8197Z" fill="#16191D"/>
<path d="M16.1856 15.4194L16.1685 15.408C14.3613 14.1661 12.5399 13.6208 10.7498 13.7836C9.27096 13.9177 8.15183 14.5116 7.54944 14.8313L7.53231 14.8399V14.8199L7.49805 13.3211L7.5009 13.3182C8.11757 12.3647 9.05113 11.7423 10.2816 11.4739C11.2894 11.2512 12.4656 11.2883 13.5933 11.5767C15.095 11.9593 16.177 12.693 16.2256 13.3582C16.3198 14.0348 16.3084 14.7228 16.1885 15.3994L16.1856 15.4194ZM11.3693 13.7293C12.9567 13.7293 14.5669 14.2803 16.1656 15.3766C16.2798 14.7085 16.2912 14.0291 16.197 13.361C16.1485 12.7158 15.0493 11.9735 13.5819 11.5995C12.4599 11.314 11.2865 11.2769 10.2816 11.4968C9.05969 11.7651 8.12899 12.3818 7.51803 13.3268L7.55229 14.7971C8.16039 14.4744 9.27381 13.8892 10.7441 13.755C10.9554 13.7379 11.1638 13.7293 11.3693 13.7293Z" fill="#16191D"/>
</svg>
