<svg width="24" height="24" viewBox="0 0 24 24" fill="none" xmlns="http://www.w3.org/2000/svg">
<path d="M17.3727 19.4467H6.62772V18.3833H17.3727V19.4467ZM19.4777 2H9.92605V7.425H10.0127C10.8344 6.36167 11.8511 6.25833 12.9611 6.33667C14.6002 6.43417 16.2027 7.45833 16.3086 10.6442V16.7458C16.3086 16.82 16.2669 16.8933 16.1936 16.8933H14.2852C14.2102 16.8933 14.0744 16.825 14.0744 16.7458V10.8333C14.0744 9.3475 13.5911 8.2375 12.1236 8.2375C11.0552 8.2375 9.92605 8.98083 9.92605 10.5458V16.7267C9.92605 16.8008 9.91939 16.7867 9.84105 16.7867H7.93272C7.85772 16.7867 7.69105 16.805 7.69105 16.7267V2H4.64855C3.94605 2 3.33105 2.56083 3.33105 3.2625V20.7592C3.33105 21.4617 3.94605 22 4.64772 22H19.4786C20.1811 22 20.6711 21.4617 20.6711 20.7592V3.2625C20.6711 2.56083 20.1811 2 19.4794 2" fill="black"/>
</svg>
