<svg width="24" height="24" viewBox="0 0 24 24" fill="none" xmlns="http://www.w3.org/2000/svg">
<path d="M17.6944 21.1258C17.676 21.2178 17.6024 21.2485 17.449 21.2485H14.9948C14.8414 21.2485 14.7187 21.1871 14.596 21.0644L10.5607 15.9192L9.43947 16.9858V20.9739C9.43947 21.158 9.34743 21.25 9.16337 21.25H7.2761C7.09203 21.25 7 21.158 7 20.9739V3.0261C7 2.84203 7.09203 2.75 7.2761 2.75H9.14742C9.33148 2.75 9.42351 2.84203 9.42351 3.0261V14.07L14.2374 9.20145C14.365 9.07414 14.4926 9.01003 14.6203 9.01003H17.137C17.2462 9.01003 17.319 9.05574 17.3558 9.14654C17.3923 9.26925 17.3864 9.33061 17.3251 9.39196L12.1725 14.3767C17.6944 20.819 17.6944 21.1258 17.6944 21.1258Z" fill="#16191D"/>
</svg>
