<svg width="24" height="24" viewBox="0 0 24 24" fill="none" xmlns="http://www.w3.org/2000/svg">
<path d="M20.3266 13.9624C20.3266 13.3441 19.8566 12.8407 19.2766 12.8407H10.8898C10.3098 12.8407 9.83976 13.3441 9.83976 13.9624C9.83976 14.5807 10.3089 15.0841 10.8898 15.0841H19.2766C19.8566 15.0849 20.3266 14.5816 20.3266 13.9624Z" fill="black"/>
<path d="M4.89467 17.1561L8.48889 20.7903C9.29974 21.6061 10.4206 22.0003 11.6581 22.0003C12.8956 22.0003 14.0165 21.5736 14.829 20.7553L16.9857 18.5577C17.4107 18.1294 17.3957 17.4202 16.9532 16.9744C16.5107 16.5285 15.8073 16.5135 15.3832 16.9419L13.1531 19.1144C12.7681 19.5036 12.2348 19.6661 11.6456 19.6661C11.0564 19.6661 10.5239 19.5036 10.1373 19.1144L6.55553 15.4785C6.16969 15.0894 5.97552 14.5202 5.97552 13.926C5.97552 13.3318 6.16969 12.7952 6.55553 12.406L10.1264 8.75592C10.5123 8.36675 11.0564 8.21842 11.6448 8.21842C12.2331 8.21842 12.7665 8.38092 13.1523 8.77009L15.3823 10.9418C15.8073 11.371 16.5107 11.356 16.9532 10.9101C17.3957 10.4635 17.4107 9.75427 16.9857 9.32593L14.829 7.12923C14.2807 6.58136 13.5903 6.1975 12.8356 6.02088L12.8073 6.01505L14.8465 3.92918C15.2732 3.50084 15.2582 2.79083 14.8157 2.34499C14.3732 1.89915 13.669 1.88498 13.2431 2.31332L4.89467 10.7301C4.08382 11.5485 3.65965 12.6777 3.65965 13.926C3.65965 15.1744 4.08382 16.3394 4.89467 17.1561Z" fill="black"/>
<path d="M8.75557 21.0119C8.61033 20.9308 8.47734 20.8295 8.36057 20.711C7.25472 19.6002 6.14387 18.4943 5.04052 17.3801C3.38299 15.7068 3.12215 13.2659 4.38551 11.28C4.58737 10.9765 4.82182 10.6959 5.08468 10.4434L13.104 2.40741C13.6248 1.88573 14.3523 1.86406 14.8365 2.35157C15.3032 2.82075 15.2757 3.56409 14.7715 4.07327C14.1307 4.71994 13.489 5.36495 12.8473 6.0108C12.8131 6.11246 12.7306 6.17747 12.6598 6.24997C11.9406 6.97998 11.2014 7.69082 10.4923 8.43167C10.3998 8.52834 10.2739 8.58667 10.1823 8.68584C8.99641 9.87169 7.79639 11.0442 6.62721 12.2459C5.68136 13.2184 5.71303 14.6943 6.68388 15.6851C7.77389 16.7985 8.88308 17.8935 9.98476 18.9968C10.0406 19.0527 10.0981 19.1068 10.1548 19.1618C10.5448 19.4143 10.5498 20.2035 10.3073 20.5544C10.0398 20.9419 9.69059 21.1794 9.19641 21.161C9.03058 21.156 8.89391 21.0894 8.75557 21.0119Z" fill="black"/>
</svg>
