<svg width="24" height="24" viewBox="0 0 24 24" fill="none" xmlns="http://www.w3.org/2000/svg">
<path d="M12 1.75879C17.8013 1.75879 22.5 6.45754 22.5 12.2588C22.4985 16.77 19.6208 20.778 15.3473 22.2203C14.8223 22.3253 14.625 21.9968 14.625 21.7215C14.625 21.3668 14.6385 20.238 14.6385 18.834C14.6385 17.85 14.3108 17.22 13.9298 16.8915C16.266 16.629 18.7208 15.7365 18.7208 11.7075C18.7208 10.5525 18.3135 9.62029 17.6445 8.88604C17.7495 8.62354 18.117 7.54729 17.5395 6.10354C17.5395 6.10354 16.6598 5.81479 14.652 7.17979C13.812 6.94354 12.9195 6.82579 12.027 6.82579C11.1345 6.82579 10.242 6.94354 9.402 7.17979C7.39425 5.82829 6.5145 6.10354 6.5145 6.10354C5.937 7.54729 6.3045 8.62354 6.4095 8.88604C5.7405 9.62104 5.33325 10.566 5.33325 11.7075C5.33325 15.7238 7.7745 16.6298 10.1108 16.8923C9.8085 17.1548 9.53325 17.6145 9.441 18.2963C8.83725 18.5723 7.3275 19.0185 6.38325 17.43C6.186 17.115 5.59575 16.341 4.76925 16.3538C3.8895 16.3673 4.41525 16.8525 4.782 17.049C5.22825 17.298 5.73975 18.2303 5.85825 18.5325C6.06825 19.1228 6.75075 20.2523 9.3885 19.7663C9.3885 20.646 9.402 21.4725 9.402 21.7215C9.402 21.9975 9.20475 22.3118 8.67975 22.2203C4.3905 20.7923 1.49775 16.779 1.5 12.258C1.5 6.45679 6.19875 1.75879 12 1.75879Z" fill="black"/>
</svg>
