<svg width="24" height="24" viewBox="0 0 24 24" fill="none" xmlns="http://www.w3.org/2000/svg">
<path d="M3 2C2.44772 2 2 2.44772 2 3V21C2 21.5523 2.44772 22 3 22H21C21.5523 22 22 21.5523 22 21V3C22 2.44772 21.5523 2 21 2H3ZM10.2917 8.66833H11.7958C11.8467 8.66833 11.8883 8.71 11.8883 8.76083V15.2333C11.8883 15.2842 11.8467 15.3258 11.7967 15.3258H10.2917C10.2673 15.3258 10.2439 15.3162 10.2266 15.299C10.2092 15.2819 10.1994 15.2586 10.1992 15.2342V12.8425H8.57833V15.2342C8.57833 15.2842 8.53667 15.3258 8.48667 15.3258H6.98C6.96796 15.3258 6.95604 15.3235 6.94492 15.3189C6.9338 15.3142 6.92369 15.3075 6.91518 15.299C6.90667 15.2905 6.89992 15.2804 6.89531 15.2692C6.8907 15.2581 6.88833 15.2462 6.88833 15.2342V8.76C6.88833 8.71 6.93 8.66833 6.98 8.66833H8.485C8.53583 8.66833 8.57667 8.71 8.57667 8.76V11.1508H10.2V8.75917C10.2 8.70917 10.2417 8.66833 10.2917 8.66833ZM12.7908 8.66833H17.6058C17.6567 8.66833 17.6983 8.71 17.6983 8.76V15.2325C17.6986 15.2447 17.6963 15.2568 17.6918 15.2681C17.6873 15.2794 17.6806 15.2897 17.6721 15.2984C17.6635 15.3071 17.6534 15.314 17.6421 15.3187C17.6309 15.3234 17.6188 15.3258 17.6067 15.3258H12.79C12.7657 15.3258 12.7424 15.3162 12.7252 15.299C12.708 15.2818 12.6983 15.2585 12.6983 15.2342V8.75917C12.6983 8.70917 12.74 8.6675 12.79 8.6675L12.7908 8.66833Z" fill="black"/>
</svg>
