<svg width="24" height="24" viewBox="0 0 24 24" fill="none" xmlns="http://www.w3.org/2000/svg">
<path d="M7.91856 20.9382C16.2205 20.9382 20.7613 14.0601 20.7613 8.09544C20.7613 7.90008 20.7613 7.7056 20.7481 7.512C21.6315 6.87304 22.394 6.08189 23 5.1756C22.1763 5.5408 21.3024 5.78019 20.4075 5.88576C21.3498 5.32172 22.0551 4.43447 22.3919 3.3892C21.5059 3.915 20.5366 4.28554 19.5258 4.4848C18.8452 3.76116 17.9452 3.28198 16.9648 3.12142C15.9845 2.96086 14.9786 3.12787 14.1028 3.59659C13.227 4.06532 12.53 4.80964 12.1198 5.71437C11.7097 6.61909 11.6091 7.63379 11.8337 8.60144C10.0392 8.51142 8.28361 8.04505 6.681 7.2326C5.07839 6.42015 3.66453 5.27978 2.5312 3.88552C1.954 4.87918 1.77722 6.05547 2.03684 7.1749C2.29647 8.29433 2.97298 9.27272 3.92864 9.91088C3.2103 9.88983 2.50759 9.69604 1.88 9.34592V9.40312C1.88029 10.4452 2.24103 11.4552 2.90105 12.2616C3.56107 13.0681 4.47972 13.6214 5.5012 13.8278C4.83669 14.009 4.13947 14.0355 3.46312 13.9052C3.75166 14.802 4.31323 15.5862 5.0693 16.1482C5.82538 16.7102 6.73817 17.0219 7.68008 17.0398C6.74424 17.7754 5.67254 18.3192 4.5263 18.6403C3.38006 18.9613 2.18178 19.0532 1 18.9106C3.06418 20.2352 5.46593 20.9379 7.91856 20.9346" fill="black"/>
</svg>
