<svg width="24" height="24" viewBox="0 0 24 24" fill="none" xmlns="http://www.w3.org/2000/svg">
<path d="M12 2C10.0078 2 8.15161 2.58258 6.59258 3.58667C6.25918 3.8014 6.09248 3.90876 6.00056 4.09271C5.92594 4.24203 5.90348 4.45192 5.94481 4.61365C5.99573 4.81288 6.1529 4.97006 6.46725 5.2844L9.66788 8.48504C9.80499 8.62214 10.0194 8.66307 10.1908 8.57241C10.7308 8.28676 11.3465 8.125 12 8.125C12.4394 8.125 12.8616 8.19812 13.2553 8.33286C13.6894 8.48142 13.9065 8.5557 14.0331 8.5551C14.1709 8.55443 14.2323 8.54018 14.3563 8.48016C14.4703 8.42498 14.5882 8.30705 14.8241 8.0712L17.5801 5.31523C17.8929 5.00235 18.0494 4.84591 18.1005 4.6475C18.142 4.4864 18.1202 4.27727 18.0465 4.12813C17.9558 3.94447 17.7905 3.83656 17.4599 3.62074C15.8902 2.59577 14.0147 2 12 2Z" fill="#16191D"/>
<path d="M20.3405 6.48112C20.1235 6.1538 20.015 5.99015 19.8316 5.90065C19.6827 5.82795 19.4744 5.80707 19.314 5.84874C19.1166 5.90004 18.9609 6.05566 18.6497 6.3669L15.905 9.11157C15.6655 9.35107 15.5458 9.47082 15.4904 9.58628C15.4301 9.71198 15.4161 9.77402 15.4167 9.91343C15.4171 10.0415 15.4953 10.2611 15.6516 10.7003C15.7963 11.1065 15.875 11.5441 15.875 12C15.875 12.425 15.8066 12.8339 15.6802 13.2165C15.5382 13.6462 15.4673 13.861 15.4688 13.9864C15.4705 14.1227 15.485 14.1837 15.5447 14.3062C15.5997 14.4189 15.7161 14.5352 15.9488 14.7679L18.7148 17.5339C19.0291 17.8482 19.1863 18.0054 19.3855 18.0563C19.5472 18.0977 19.7571 18.0752 19.9064 18.0006C20.0904 17.9087 20.1977 17.7421 20.4125 17.4087C21.4171 15.8494 22 13.9928 22 12C22 9.96007 21.3892 8.06281 20.3405 6.48112Z" fill="#16191D"/>
<path d="M17.5695 20.3067C17.8941 20.0886 18.0563 19.9796 18.1447 19.7966C18.2166 19.6478 18.2367 19.4403 18.1949 19.2805C18.1434 19.0839 17.9885 18.929 17.6787 18.6191L14.9435 15.884C14.7009 15.6413 14.5795 15.52 14.4628 15.4644C14.3356 15.4039 14.2731 15.3902 14.1323 15.3917C14.003 15.3932 13.7812 15.4748 13.3377 15.6379C12.9208 15.7913 12.4702 15.875 12 15.875C11.545 15.875 11.1083 15.7966 10.7027 15.6525C10.2638 15.4966 10.0443 15.4187 9.91637 15.4182C9.77706 15.4178 9.71505 15.4318 9.58945 15.4921C9.47407 15.5474 9.35442 15.6671 9.11512 15.9064L6.36983 18.6517C6.0585 18.963 5.90284 19.1186 5.85155 19.3162C5.80988 19.4766 5.83082 19.6849 5.90357 19.8339C5.99314 20.0172 6.15688 20.1257 6.48438 20.3426C8.06541 21.39 9.96147 22 12 22C14.0618 22 15.9778 21.3761 17.5695 20.3067Z" fill="#16191D"/>
<path d="M8.125 12C8.125 12.4403 8.19843 12.8634 8.33371 13.2578C8.4827 13.6922 8.55719 13.9094 8.55664 14.0361C8.55605 14.1739 8.54181 14.2354 8.48177 14.3595C8.42658 14.4736 8.30855 14.5916 8.0725 14.8277L5.31717 17.583C5.00437 17.8958 4.84798 18.0522 4.64963 18.1033C4.48856 18.1448 4.27949 18.1231 4.13036 18.0495C3.94671 17.9588 3.83876 17.7936 3.62287 17.4632C2.5966 15.8928 2 14.0161 2 12C2 9.93769 2.62429 8.02118 3.6942 6.42916C3.91225 6.1047 4.02127 5.94247 4.20433 5.8541C4.35307 5.7823 4.56056 5.76214 4.72033 5.80397C4.91698 5.85545 5.07187 6.01034 5.38165 6.32013L8.60722 9.5457C8.73056 9.66904 8.76165 9.86402 8.67211 10.0137C8.32467 10.5946 8.125 11.274 8.125 12Z" fill="#16191D"/>
</svg>
