<svg width="24" height="24" viewBox="0 0 24 24" fill="none" xmlns="http://www.w3.org/2000/svg">
<path d="M8.25991 4.27937C8.62886 3.4854 9.42487 2.97754 10.3004 2.97754H13.6996C14.5751 2.97754 15.3711 3.4854 15.7401 4.27937L16.3663 5.62708C16.5006 5.9159 16.8025 6.08847 17.1195 6.05746L18.458 5.92655C20.2218 5.75403 21.75 7.14003 21.75 8.9123V17.2741C21.75 19.3452 20.0711 21.0241 18 21.0241H6C3.92893 21.0241 2.25 19.3452 2.25 17.2741V8.91231C2.25 7.14004 3.77818 5.75403 5.54203 5.92655L6.88049 6.05746C7.19746 6.08847 7.49944 5.9159 7.63365 5.62708L8.25991 4.27937ZM10.3004 4.47754C10.0085 4.47754 9.7432 4.64683 9.62022 4.91148L8.99396 6.25919C8.59133 7.12566 7.68538 7.64335 6.73447 7.55034L5.39602 7.41943C4.51409 7.33317 3.75 8.02617 3.75 8.91231V17.2741C3.75 18.5168 4.75736 19.5241 6 19.5241H18C19.2426 19.5241 20.25 18.5168 20.25 17.2741V8.9123C20.25 8.02617 19.4859 7.33317 18.604 7.41943L17.2655 7.55034C16.3146 7.64335 15.4087 7.12566 15.006 6.25919L14.3798 4.91148C14.2568 4.64683 13.9915 4.47754 13.6996 4.47754H10.3004ZM12 10.0323C10.4812 10.0323 9.25 11.2635 9.25 12.7823C9.25 14.3011 10.4812 15.5323 12 15.5323C13.5188 15.5323 14.75 14.3011 14.75 12.7823C14.75 11.2635 13.5188 10.0323 12 10.0323ZM7.75 12.7823C7.75 10.4351 9.65279 8.53232 12 8.53232C14.3472 8.53232 16.25 10.4351 16.25 12.7823C16.25 15.1295 14.3472 17.0323 12 17.0323C9.65279 17.0323 7.75 15.1295 7.75 12.7823Z" fill="#16191D"/>
</svg>
