<svg width="24" height="24" viewBox="0 0 24 24" fill="none" xmlns="http://www.w3.org/2000/svg">
<path d="M15.3587 8.64155C15.6516 8.93444 15.6516 9.40931 15.3587 9.70221L13.0611 11.9999L15.3589 14.2977C15.6517 14.5906 15.6517 15.0654 15.3589 15.3583C15.066 15.6512 14.5911 15.6512 14.2982 15.3583L12.0004 13.0605L9.70188 15.3591C9.40899 15.652 8.93412 15.652 8.64122 15.3591C8.34833 15.0662 8.34833 14.5913 8.64122 14.2984L10.9397 11.9999L8.64134 9.70149C8.34845 9.40859 8.34845 8.93372 8.64134 8.64083C8.93423 8.34793 9.40911 8.34793 9.702 8.64083L12.0004 10.9392L14.2981 8.64154C14.591 8.34865 15.0658 8.34865 15.3587 8.64155Z" fill="#16191D"/>
<path fill-rule="evenodd" clip-rule="evenodd" d="M21 7.01942V16.9806C21 17.5321 21 17.9911 20.9694 18.3657C20.9375 18.756 20.8687 19.1204 20.6935 19.4643C20.4238 19.9936 19.9936 20.4238 19.4644 20.6935C19.1204 20.8687 18.7561 20.9375 18.3658 20.9694C17.9911 21 17.5322 21 16.9806 21H7.01943C6.4679 21 6.00895 21 5.63431 20.9694C5.244 20.9375 4.87963 20.8687 4.53568 20.6935C4.00648 20.4238 3.57622 19.9936 3.30657 19.4643C3.13133 19.1204 3.06251 18.756 3.03062 18.3657C3.00001 17.9911 3.00002 17.5321 3.00003 16.9806L3.00003 7.0194C3.00002 6.46787 3.00001 6.00893 3.03062 5.63428C3.06251 5.24397 3.13133 4.8796 3.30657 4.53565C3.57622 4.00645 4.00648 3.57619 4.53568 3.30655C4.87963 3.1313 5.244 3.06248 5.63431 3.03059C6.00896 2.99998 6.46791 2.99999 7.01944 3L16.9806 3C17.5321 2.99999 17.9911 2.99998 18.3658 3.03059C18.7561 3.06248 19.1204 3.1313 19.4644 3.30655C19.9936 3.57619 20.4238 4.00645 20.6935 4.53565C20.8687 4.8796 20.9376 5.24397 20.9694 5.63428C21 6.00893 21 6.46789 21 7.01942ZM19.4744 5.75643C19.4501 5.45888 19.4065 5.31388 19.357 5.21664C19.2311 4.96968 19.0304 4.76889 18.7834 4.64306C18.6861 4.59351 18.5411 4.54992 18.2436 4.52561C17.9373 4.50058 17.54 4.5 16.95 4.5L7.05003 4.5C6.4601 4.5 6.06276 4.50058 5.75646 4.52561C5.45891 4.54992 5.31391 4.59351 5.21667 4.64305C4.96971 4.76889 4.76892 4.96968 4.64308 5.21664C4.59354 5.31388 4.54995 5.45888 4.52564 5.75643C4.50062 6.06273 4.50003 6.46007 4.50003 7.05L4.50003 16.95C4.50003 17.5399 4.50061 17.9373 4.52564 18.2436C4.54995 18.5411 4.59353 18.6861 4.64308 18.7834C4.76892 19.0303 4.96971 19.2311 5.21667 19.3569C5.31391 19.4065 5.45891 19.4501 5.75646 19.4744C6.06276 19.4994 6.4601 19.5 7.05003 19.5H16.95C17.54 19.5 17.9373 19.4994 18.2436 19.4744C18.5411 19.4501 18.6861 19.4065 18.7834 19.3569C19.0304 19.2311 19.2311 19.0303 19.357 18.7834C19.4065 18.6861 19.4501 18.5411 19.4744 18.2436C19.4994 17.9373 19.5 17.5399 19.5 16.95V7.05C19.5 6.46007 19.4994 6.06273 19.4744 5.75643Z" fill="#16191D"/>
</svg>
