<svg width="24" height="24" viewBox="0 0 24 24" fill="none" xmlns="http://www.w3.org/2000/svg">
<path d="M15.5462 15.5458C15.2533 15.8387 14.7784 15.8387 14.4855 15.5458L12.0005 13.0609L9.51487 15.5465C9.22197 15.8394 8.7471 15.8394 8.45421 15.5465C8.16131 15.2536 8.16131 14.7788 8.45421 14.4859L10.9399 12.0002L8.4542 9.5145C8.16131 9.22161 8.16131 8.74673 8.4542 8.45384C8.74709 8.16095 9.22197 8.16095 9.51486 8.45384L12.0006 10.9395L14.4855 8.45453C14.7784 8.16164 15.2533 8.16164 15.5462 8.45453C15.8391 8.74743 15.8391 9.2223 15.5462 9.51519L13.0612 12.0002L15.5462 14.4852C15.8391 14.7781 15.8391 15.2529 15.5462 15.5458Z" fill="#16191D"/>
<path fill-rule="evenodd" clip-rule="evenodd" d="M2.00122 17.75C2.00122 18.9926 3.00858 20 4.25122 20H19.7512C20.9939 20 22.0012 18.9926 22.0012 17.75V6.25C22.0012 5.00736 20.9939 4 19.7512 4H4.25122C3.00858 4 2.00122 5.00736 2.00122 6.25V17.75ZM4.25122 18.5C3.83701 18.5 3.50122 18.1642 3.50122 17.75V6.25C3.50122 5.83579 3.83701 5.5 4.25122 5.5H19.7512C20.1654 5.5 20.5012 5.83579 20.5012 6.25V17.75C20.5012 18.1642 20.1654 18.5 19.7512 18.5H4.25122Z" fill="#16191D"/>
</svg>
