<svg width="24" height="24" viewBox="0 0 24 24" fill="none" xmlns="http://www.w3.org/2000/svg">
<path d="M3.97656 2.73828C3.97656 2.32407 4.31235 1.98828 4.72656 1.98828H19.2695C19.6837 1.98828 20.0195 2.32407 20.0195 2.73828C20.0195 3.15249 19.6837 3.48828 19.2695 3.48828H18.4795C18.3886 6.75389 16.9928 9.84092 14.6167 12.0642C16.9573 14.2543 18.3467 17.2826 18.4745 20.4941H19.2695C19.6837 20.4941 20.0195 20.8299 20.0195 21.2441C20.0195 21.6584 19.6837 21.9941 19.2695 21.9941H4.72656C4.31235 21.9941 3.97656 21.6584 3.97656 21.2441C3.97656 20.8299 4.31235 20.4941 4.72656 20.4941H5.5253C5.65313 17.2826 7.04251 14.2543 9.38313 12.0642C7.00708 9.84092 5.61128 6.75389 5.52036 3.48828H4.72656C4.31235 3.48828 3.97656 3.15249 3.97656 2.73828Z" fill="#16191D"/>
</svg>
