<svg width="24" height="24" viewBox="0 0 24 24" fill="none" xmlns="http://www.w3.org/2000/svg">
<path d="M17.9064 7.49409C18.2003 7.20222 18.202 6.72735 17.9101 6.43344C17.6182 6.13952 17.1434 6.13787 16.8495 6.42974L9.36234 13.8649L7.51285 12.0282C7.21894 11.7363 6.74407 11.738 6.4522 12.0319C6.16033 12.3258 6.16198 12.8007 6.4559 13.0926L8.29797 14.9218L7.23197 15.9804L3.25114 12.0272C2.95722 11.7354 2.48235 11.737 2.19048 12.0309C1.89861 12.3249 1.90027 12.7997 2.19418 13.0916L6.7035 17.5696C6.99596 17.86 7.46799 17.86 7.76045 17.5696L9.36234 15.9788L10.9652 17.5706C11.2577 17.861 11.7297 17.861 12.0222 17.5706L22.1681 7.49507C22.462 7.20319 22.4637 6.72832 22.1718 6.43441C21.88 6.1405 21.4051 6.13885 21.1112 6.43072L11.4937 15.9814L10.4267 14.9218L17.9064 7.49409Z" fill="#16191D"/>
</svg>
