<svg width="24" height="24" viewBox="0 0 24 24" fill="none" xmlns="http://www.w3.org/2000/svg">
<path d="M10.5 10.2592C10.0858 10.2592 9.75 10.5949 9.75 11.0092C9.75 11.4234 10.0858 11.7592 10.5 11.7592H13.5C13.9142 11.7592 14.25 11.4234 14.25 11.0092C14.25 10.5949 13.9142 10.2592 13.5 10.2592H10.5Z" fill="#16191D"/>
<path d="M19.75 5.75037H15.75V5.25195C15.75 4.00931 14.7426 3.00195 13.5 3.00195H10.5C9.25736 3.00195 8.25 4.00931 8.25 5.25195V5.75037H4.25C3.00736 5.75037 2 6.75773 2 8.00037V19.0004C2 20.243 3.00736 21.2504 4.25 21.2504H19.75C20.9926 21.2504 22 20.243 22 19.0004V8.00037C22 6.75773 20.9926 5.75037 19.75 5.75037ZM9.75 5.68299V5.25195C9.75 4.83774 10.0858 4.50195 10.5 4.50195H13.5C13.9142 4.50195 14.25 4.83774 14.25 5.25195V5.68299H9.75ZM4.25 19.7504H19.75C20.1642 19.7504 20.5 19.4146 20.5 19.0004V13.0482C19.917 13.2364 19.1171 13.4823 18.2066 13.7283C16.3453 14.2312 13.9526 14.7543 12 14.7543C10.0474 14.7543 7.65473 14.2312 5.79344 13.7283C4.88288 13.4823 4.08303 13.2364 3.5 13.0482V19.0004C3.5 19.4146 3.83579 19.7504 4.25 19.7504ZM20.5 11.4693C20.3825 11.5087 20.2461 11.5537 20.0932 11.6033C19.5235 11.788 18.7259 12.0342 17.8153 12.2802C15.9756 12.7773 13.7433 13.2543 12 13.2543C10.2567 13.2543 8.02444 12.7773 6.1847 12.2802C5.27407 12.0342 4.47647 11.788 3.90685 11.6033C3.7539 11.5537 3.61754 11.5087 3.5 11.4693V8.00037C3.5 7.58616 3.83579 7.25037 4.25 7.25037H19.75C20.1642 7.25037 20.5 7.58616 20.5 8.00037V11.4693Z" fill="#16191D"/>
<path d="M3.5 19.0004C3.5 19.4146 3.83579 19.7504 4.25 19.7504H19.75C20.1642 19.7504 20.5 19.4146 20.5 19.0004V13.0482C19.917 13.2364 19.1171 13.4823 18.2066 13.7283C16.3453 14.2312 13.9526 14.7543 12 14.7543C10.0474 14.7543 7.65473 14.2312 5.79344 13.7283C4.88288 13.4823 4.08303 13.2364 3.5 13.0482V19.0004Z" fill="#16191D"/>
</svg>
