<svg width="24" height="24" viewBox="0 0 24 24" fill="none" xmlns="http://www.w3.org/2000/svg">
<path d="M8.09034 5.66699L8.54422 4.22469C8.77359 3.4958 9.44938 3 10.2135 3H13.7816C14.5457 3 15.2215 3.49579 15.4509 4.22469L15.9048 5.66699H18.8179C19.2321 5.66699 19.5679 6.00278 19.5679 6.41699C19.5679 6.83121 19.2321 7.16699 18.8179 7.16699H18.0751V18.2437C18.0751 19.7624 16.8439 20.9937 15.3251 20.9937H8.67188C7.15309 20.9937 5.92188 19.7624 5.92188 18.2437V7.16699H5.17969C4.76547 7.16699 4.42969 6.83121 4.42969 6.41699C4.42969 6.00278 4.76547 5.66699 5.17969 5.66699H8.09034ZM9.97504 4.67496L9.66286 5.66699H14.3323L14.0201 4.67496C13.9873 4.57083 13.8908 4.5 13.7816 4.5H10.2135C10.1044 4.5 10.0078 4.57083 9.97504 4.67496ZM10.75 9.83594C10.75 9.42172 10.4142 9.08594 10 9.08594C9.58579 9.08594 9.25 9.42172 9.25 9.83594V16.8359C9.25 17.2502 9.58579 17.5859 10 17.5859C10.4142 17.5859 10.75 17.2502 10.75 16.8359V9.83594ZM14 9.08594C13.5858 9.08594 13.25 9.42172 13.25 9.83594V16.8359C13.25 17.2502 13.5858 17.5859 14 17.5859C14.4142 17.5859 14.75 17.2502 14.75 16.8359V9.83594C14.75 9.42172 14.4142 9.08594 14 9.08594Z" fill="#16191D"/>
</svg>
