<svg width="24" height="24" viewBox="0 0 24 24" fill="none" xmlns="http://www.w3.org/2000/svg">
<path d="M17.125 11.002C17.7463 11.002 18.25 10.4983 18.25 9.87695C18.25 9.25563 17.7463 8.75195 17.125 8.75195C16.5037 8.75195 16 9.25563 16 9.87695C16 10.4983 16.5037 11.002 17.125 11.002Z" fill="#16191D"/>
<path d="M7.5 2.75293C6.67157 2.75293 6 3.4245 6 4.25293V5.75293H4.25C3.00736 5.75293 2 6.76029 2 8.00293V16.48C2 17.3084 2.67157 17.98 3.5 17.98H6V19.7524C6 20.5809 6.67157 21.2524 7.5 21.2524H16.5C17.3284 21.2524 18 20.5809 18 19.7524V17.98H20.5C21.3284 17.98 22 17.3084 22 16.48V8.00293C22 6.76029 20.9926 5.75293 19.75 5.75293H18V4.25293C18 3.4245 17.3284 2.75293 16.5 2.75293H7.5ZM6 15.1611V16.48H3.5V8.00293C3.5 7.58872 3.83579 7.25293 4.25 7.25293H19.75C20.1642 7.25293 20.5 7.58872 20.5 8.00293V16.48H18V15.1611C18 14.3327 17.3284 13.6611 16.5 13.6611H7.5C6.67157 13.6611 6 14.3327 6 15.1611ZM16.5 5.75293H7.5V4.25293H16.5V5.75293ZM16.5 15.1611V19.7524H7.5V15.1611H16.5Z" fill="#16191D"/>
</svg>
