<svg width="24" height="24" viewBox="0 0 24 24" fill="none" xmlns="http://www.w3.org/2000/svg">
<path fill-rule="evenodd" clip-rule="evenodd" d="M16.8312 3.00049H7.16878C6.63532 3.00048 6.18862 3.00047 5.82344 3.03124C5.44168 3.0634 5.08243 3.13309 4.74316 3.31136C4.22396 3.58418 3.80609 4.01716 3.54558 4.54441C3.37667 4.88629 3.31037 5.24809 3.27959 5.63661C3.24998 6.01032 3.24999 6.46846 3.25 7.02065V16.9803C3.24999 17.5325 3.24998 17.9907 3.27959 18.3644C3.31037 18.7529 3.37667 19.1147 3.54558 19.4566C3.80609 19.9838 4.22396 20.4168 4.74316 20.6896C5.08243 20.8679 5.44168 20.9376 5.82344 20.9697C6.18863 21.0005 6.63531 21.0005 7.16879 21.0005H16.8312C17.3647 21.0005 17.8114 21.0005 18.1766 20.9697C18.5583 20.9376 18.9176 20.8679 19.2568 20.6896C19.776 20.4168 20.1939 19.9838 20.4544 19.4566C20.6233 19.1147 20.6896 18.7529 20.7204 18.3644C20.75 17.9907 20.75 17.5325 20.75 16.9803V7.02066C20.75 6.46846 20.75 6.01032 20.7204 5.63661C20.6896 5.24809 20.6233 4.88629 20.4544 4.54441C20.1939 4.01716 19.776 3.58418 19.2568 3.31136C18.9176 3.13309 18.5583 3.0634 18.1766 3.03124C17.8114 3.00047 17.3647 3.00048 16.8312 3.00049ZM8 11.2505C7.58579 11.2505 7.25 11.5863 7.25 12.0005C7.25 12.4147 7.58579 12.7505 8 12.7505H16C16.4142 12.7505 16.75 12.4147 16.75 12.0005C16.75 11.5863 16.4142 11.2505 16 11.2505H8Z" fill="#16191D"/>
</svg>
