<svg width="24" height="24" viewBox="0 0 24 24" fill="none" xmlns="http://www.w3.org/2000/svg">
<rect x="2.7" y="6.7" width="18.6" height="13.6" rx="1.3" stroke="#16191D" stroke-width="1.4"/>
<path d="M8.7 5C8.7 4.28203 9.28203 3.7 10 3.7H14C14.718 3.7 15.3 4.28203 15.3 5V20.3H8.7V5Z" stroke="#16191D" stroke-width="1.4"/>
<mask id="path-3-inside-1_5021_1850" fill="white">
<path d="M8 5C8 3.89543 8.89543 3 10 3H14C15.1046 3 16 3.89543 16 5V7H8V5Z"/>
</mask>
<path d="M8 5C8 3.89543 8.89543 3 10 3H14C15.1046 3 16 3.89543 16 5V7H8V5Z" fill="#16191D"/>
<path d="M6.6 5C6.6 3.12223 8.12223 1.6 10 1.6H14C15.8778 1.6 17.4 3.12223 17.4 5H14.6C14.6 4.66863 14.3314 4.4 14 4.4H10C9.66863 4.4 9.4 4.66863 9.4 5H6.6ZM17.4 7.2H6.6L9.4 6.8H14.6L17.4 7.2ZM6.6 7.2V5C6.6 3.12223 8.12223 1.6 10 1.6V4.4C9.66863 4.4 9.4 4.66863 9.4 5V6.8L6.6 7.2ZM14 1.6C15.8778 1.6 17.4 3.12223 17.4 5V7.2L14.6 6.8V5C14.6 4.66863 14.3314 4.4 14 4.4V1.6Z" fill="#16191D" mask="url(#path-3-inside-1_5021_1850)"/>
</svg>
