<svg width="24" height="24" viewBox="0 0 24 24" fill="none" xmlns="http://www.w3.org/2000/svg">
<path d="M7.01562 6.97998C7.01562 4.228 9.24655 1.99707 11.9985 1.99707C14.7505 1.99707 16.9814 4.228 16.9814 6.97998C16.9814 9.47653 15.1454 11.5443 12.75 11.9066V17.4944C12.75 17.9086 12.4142 18.2444 12 18.2444C11.5858 18.2444 11.25 17.9086 11.25 17.4944V11.907C8.85313 11.5459 7.01562 9.47755 7.01562 6.97998Z" fill="#16191D"/>
<path d="M7.34747 13.334C7.47648 13.7276 7.26198 14.1513 6.86837 14.2803C5.75747 14.6444 4.88982 15.1096 4.3146 15.611C3.73903 16.1127 3.51562 16.5928 3.51562 17.0134C3.51562 17.7108 4.16481 18.5832 5.78231 19.3248C7.33438 20.0364 9.53124 20.4963 11.998 20.4963C14.4649 20.4963 16.6617 20.0364 18.2138 19.3248C19.8313 18.5832 20.4805 17.7108 20.4805 17.0134C20.4805 16.5928 20.2571 16.1127 19.6815 15.611C19.1063 15.1096 18.2386 14.6444 17.1277 14.2803C16.7341 14.1513 16.5196 13.7276 16.6486 13.334C16.7776 12.9404 17.2013 12.7259 17.5949 12.8549C18.8264 13.2585 19.8933 13.8058 20.6671 14.4802C21.4405 15.1543 21.9805 16.0133 21.9805 17.0134C21.9805 18.6538 20.5629 19.8979 18.8389 20.6883C17.0495 21.5087 14.6302 21.9963 11.998 21.9963C9.36593 21.9963 6.94658 21.5087 5.15716 20.6883C3.43318 19.8979 2.01562 18.6538 2.01562 17.0134C2.01562 16.0133 2.5556 15.1543 3.32902 14.4802C4.10278 13.8058 5.1697 13.2585 6.40118 12.8549C6.79479 12.7259 7.21846 12.9404 7.34747 13.334Z" fill="#16191D"/>
</svg>
