<svg width="21" height="21" viewBox="0 0 21 21" fill="none" xmlns="http://www.w3.org/2000/svg">
<g clip-path="url(#clip0_1505_60851)">
<path fill-rule="evenodd" clip-rule="evenodd" d="M0.993164 3.79102C0.993164 2.54837 2.00052 1.54102 3.24316 1.54102H6.24602C6.66023 1.54102 6.99602 1.8768 6.99602 2.29102C6.99602 2.70523 6.66023 3.04102 6.24602 3.04102H3.24316C2.82895 3.04102 2.49316 3.3768 2.49316 3.79102V6.78414C2.49316 7.19836 2.15738 7.53414 1.74316 7.53414C1.32895 7.53414 0.993164 7.19836 0.993164 6.78414V3.79102ZM12.9998 2.29102C12.9998 1.8768 13.3356 1.54102 13.7498 1.54102H16.7432C17.9858 1.54102 18.9932 2.54837 18.9932 3.79102V6.78746C18.9932 7.20168 18.6574 7.53746 18.2432 7.53746C17.829 7.53746 17.4932 7.20168 17.4932 6.78746V3.79102C17.4932 3.3768 17.1574 3.04102 16.7432 3.04102H13.7498C13.3356 3.04102 12.9998 2.70523 12.9998 2.29102ZM18.2432 13.5504C18.6574 13.5504 18.9932 13.8862 18.9932 14.3004V17.291C18.9932 18.5337 17.9858 19.541 16.7432 19.541L13.7536 19.541C13.3394 19.541 13.0036 19.2052 13.0036 18.791C13.0036 18.3768 13.3394 18.041 13.7536 18.041L16.7432 18.041C17.1574 18.041 17.4932 17.7052 17.4932 17.291V14.3004C17.4932 13.8862 17.829 13.5504 18.2432 13.5504ZM1.74316 13.5504C2.15738 13.5504 2.49316 13.8862 2.49316 14.3004V17.291C2.49316 17.7053 2.82895 18.041 3.24316 18.041H6.24602C6.66023 18.041 6.99602 18.3768 6.99602 18.791C6.99602 19.2053 6.66023 19.541 6.24602 19.541H3.24316C2.00052 19.541 0.993164 18.5337 0.993164 17.291V14.3004C0.993164 13.8862 1.32895 13.5504 1.74316 13.5504Z" fill="#576175"/>
</g>
<defs>
<clipPath id="clip0_1505_60851">
<rect width="20" height="20" fill="white" transform="translate(0.118164 0.541016)"/>
</clipPath>
</defs>
</svg>
