<svg width="24" height="24" viewBox="0 0 24 24" fill="none" xmlns="http://www.w3.org/2000/svg">
<path d="M5.0105 7.5C5.0105 7.08579 5.34628 6.75 5.7605 6.75H18.2605C18.6747 6.75 19.0105 7.08579 19.0105 7.5C19.0105 7.91421 18.6747 8.25 18.2605 8.25H5.7605C5.34628 8.25 5.0105 7.91421 5.0105 7.5Z" fill="#16191D"/>
<path d="M5.0105 12C5.0105 11.5858 5.34628 11.25 5.7605 11.25H18.2605C18.6747 11.25 19.0105 11.5858 19.0105 12C19.0105 12.4142 18.6747 12.75 18.2605 12.75H5.7605C5.34628 12.75 5.0105 12.4142 5.0105 12Z" fill="#16191D"/>
<path d="M5.7605 15.75C5.34628 15.75 5.0105 16.0858 5.0105 16.5C5.0105 16.9142 5.34628 17.25 5.7605 17.25H18.2605C18.6747 17.25 19.0105 16.9142 19.0105 16.5C19.0105 16.0858 18.6747 15.75 18.2605 15.75H5.7605Z" fill="#16191D"/>
</svg>
