<svg width="24" height="24" viewBox="0 0 24 24" fill="none" xmlns="http://www.w3.org/2000/svg">
<path d="M11.5434 4.64587C11.7995 4.46961 12.1377 4.4696 12.3938 4.64586L18.4764 8.83235L18.4764 19.2211C18.4764 19.3591 18.3645 19.4711 18.2264 19.4711H15.1715C15.0754 19.4711 14.9975 19.3933 14.9973 19.2972L14.9904 15.9995C14.987 14.3502 13.649 13.015 11.9997 13.015C10.3455 13.015 9.00546 14.3578 9.0089 16.012L9.01573 19.3003C9.01593 19.3946 8.93959 19.4711 8.84534 19.4711H5.77741C5.63934 19.4711 5.52741 19.3591 5.52741 19.2211L5.52741 8.78666L11.5434 4.64587ZM4.02741 9.81911L3.4253 10.2335C3.0841 10.4684 2.61712 10.3822 2.38227 10.041C2.14742 9.69978 2.23364 9.2328 2.57484 8.99795L10.6929 3.41027C11.4612 2.88148 12.476 2.88147 13.2443 3.41025L21.3627 8.99794C21.7039 9.23278 21.7901 9.69976 21.5553 10.041C21.3204 10.3822 20.8535 10.4684 20.5123 10.2336L19.9764 9.86476L19.9764 19.2211C19.9764 20.1876 19.1929 20.9711 18.2264 20.9711H15.1715C14.2482 20.9711 13.4992 20.2236 13.4973 19.3003L13.4904 16.0026C13.4887 15.1805 12.8218 14.515 11.9997 14.515C11.1751 14.515 10.5072 15.1843 10.5089 16.0088L10.5157 19.2972C10.5176 20.2211 9.76923 20.9711 8.84534 20.9711H5.77741C4.81092 20.9711 4.02741 20.1876 4.02741 19.2211L4.02741 9.81911Z" fill="#16191D"/>
<path d="M12.3938 4.64586C12.1377 4.4696 11.7995 4.46961 11.5434 4.64587L5.52741 8.78666L5.52741 19.2211C5.52741 19.3591 5.63934 19.4711 5.77741 19.4711H8.84534C8.93959 19.4711 9.01593 19.3946 9.01573 19.3003L9.0089 16.012C9.00546 14.3578 10.3455 13.015 11.9997 13.015C13.649 13.015 14.987 14.3502 14.9904 15.9995L14.9973 19.2972C14.9975 19.3933 15.0754 19.4711 15.1715 19.4711H18.2264C18.3645 19.4711 18.4764 19.3591 18.4764 19.2211L18.4764 8.83235L12.3938 4.64586Z" fill="#16191D"/>
</svg>
