<svg xmlns="http://www.w3.org/2000/svg" width="24" height="24" viewBox="0 0 24 24" fill="none">
  <path fill-rule="evenodd" clip-rule="evenodd" d="M3 18.7495C3 19.9922 4.00736 20.9995 5.25 20.9995H18.75C19.9926 20.9995 21 19.9922 21 18.7495V10.5583C21 9.9616 20.7629 9.3893 20.341 8.96734L15.0322 3.65852C14.6102 3.23656 14.0379 2.99951 13.4412 2.99951H5.25C4.00736 2.99951 3 4.00687 3 5.24951V18.7495ZM8.21875 19.4863V15.5015C8.21875 15.0873 8.55454 14.7515 8.96875 14.7515H15.0039C15.4181 14.7515 15.7539 15.0873 15.7539 15.5015V19.4863H8.21875ZM8.21875 8.12256C7.80454 8.12256 7.46875 7.78677 7.46875 7.37256C7.46875 6.95834 7.80454 6.62256 8.21875 6.62256H12.7188C13.133 6.62256 13.4688 6.95834 13.4688 7.37256C13.4688 7.78677 13.133 8.12256 12.7188 8.12256H8.21875Z" fill="#16191D"/>
</svg>