<svg width="24" height="24" viewBox="0 0 24 24" fill="none" xmlns="http://www.w3.org/2000/svg">
<path fill-rule="evenodd" clip-rule="evenodd" d="M5.96721 17.5292C5.67441 17.2362 5.67457 16.7613 5.96756 16.4685L10.44 11.999L5.96756 7.52953C5.67457 7.23674 5.67441 6.76186 5.9672 6.46887C6.26 6.17588 6.73487 6.17572 7.02786 6.46852L12.0312 11.4685C12.1719 11.6092 12.251 11.8 12.251 11.999C12.251 12.198 12.1719 12.3888 12.0312 12.5295L7.02787 17.5295C6.73488 17.8223 6.26 17.8222 5.96721 17.5292ZM11.9684 17.5301C11.6756 17.2371 11.6757 16.7622 11.9687 16.4694L16.4412 11.9999L11.9687 7.53043C11.6757 7.23763 11.6756 6.76276 11.9684 6.46977C12.2612 6.17678 12.736 6.17662 13.029 6.46942L18.0324 11.4694C18.1731 11.6101 18.2522 11.8009 18.2522 11.9999C18.2522 12.1989 18.1731 12.3898 18.0324 12.5304L13.029 17.5304C12.736 17.8232 12.2612 17.8231 11.9684 17.5301Z" fill="#16191D"/>
</svg>
