<svg width="24" height="24" viewBox="0 0 24 24" fill="none" xmlns="http://www.w3.org/2000/svg">
<path fill-rule="evenodd" clip-rule="evenodd" d="M7.5 2.75244C6.67157 2.75244 6 3.42401 6 4.25244V5.75244H4.25C3.00736 5.75244 2 6.7598 2 8.00244V16.4795C2 17.3079 2.67157 17.9795 3.5 17.9795H6V19.752C6 20.5804 6.67157 21.252 7.5 21.252H16.5C17.3284 21.252 18 20.5804 18 19.752V17.9795H20.5C21.3284 17.9795 22 17.3079 22 16.4795V8.00244C22 6.7598 20.9926 5.75244 19.75 5.75244H18V4.25244C18 3.42401 17.3284 2.75244 16.5 2.75244H7.5ZM16.5 5.75244V4.25244H7.5V5.75244H16.5ZM7.5 15.1606H16.5V19.752H7.5V15.1606ZM18.25 9.87646C18.25 10.4978 17.7463 11.0015 17.125 11.0015C16.5037 11.0015 16 10.4978 16 9.87646C16 9.25514 16.5037 8.75146 17.125 8.75146C17.7463 8.75146 18.25 9.25514 18.25 9.87646Z" fill="#16191D"/>
</svg>
