<svg width="24" height="24" viewBox="0 0 24 24" fill="none" xmlns="http://www.w3.org/2000/svg">
<path fill-rule="evenodd" clip-rule="evenodd" d="M16.656 5.33281C15.6471 4.32396 14.0114 4.32396 13.0026 5.33281L6.16722 12.1682C4.50749 13.8279 4.50749 16.5189 6.16722 18.1786C7.82695 19.8383 10.5179 19.8383 12.1776 18.1786L19.298 11.0582C19.5909 10.7653 20.0658 10.7653 20.3587 11.0582C20.6516 11.3511 20.6516 11.826 20.3587 12.1188L13.2383 19.2392C10.9928 21.4848 7.35207 21.4848 5.10656 19.2392C2.86105 16.9937 2.86105 13.353 5.10656 11.1075L11.9419 4.27215C13.5366 2.67751 16.122 2.67751 17.7166 4.27215C19.3113 5.86679 19.3113 8.45222 17.7166 10.0469L10.8922 16.8713C9.94846 17.815 8.41831 17.815 7.47455 16.8713C6.53078 15.9275 6.53078 14.3973 7.47455 13.4536L13.696 7.23213C13.9889 6.93924 14.4638 6.93924 14.7566 7.23213C15.0495 7.52503 15.0495 7.9999 14.7566 8.29279L8.53521 14.5142C8.17723 14.8722 8.17723 15.4526 8.53521 15.8106C8.89319 16.1686 9.47359 16.1686 9.83157 15.8106L16.656 8.9862C17.6648 7.97734 17.6648 6.34167 16.656 5.33281Z" fill="#16191D"/>
</svg>
