<svg width="24" height="24" viewBox="0 0 24 24" fill="none" xmlns="http://www.w3.org/2000/svg">
<path fill-rule="evenodd" clip-rule="evenodd" d="M7.18418 3.91309C6.10475 3.91309 5.1774 4.67967 4.97435 5.73984L3.6936 12.4268C3.60504 12.8891 3.95942 13.3178 4.43021 13.3178H10.8172C11.6806 13.3178 12.3232 14.1155 12.1394 14.9592C11.771 16.6499 11.9076 18.4034 12.5196 20.0053L15.9995 13.8324V4.66309C15.9995 4.2555 15.6744 3.92386 15.2694 3.91334H13.769C13.7624 3.91334 13.7558 3.91326 13.7492 3.91309H7.18418ZM15.2839 2.41334C15.2725 2.41317 15.261 2.41309 15.2495 2.41309H7.18418C5.38512 2.41309 3.83955 3.69072 3.50113 5.45767L2.22038 12.1446C1.9547 13.5317 3.01784 14.8178 4.43021 14.8178H10.6366C10.2415 16.7977 10.435 18.8432 11.1826 20.7045C11.5964 21.7346 12.874 21.8399 13.5528 21.1321C13.639 21.0422 13.7136 20.9418 13.7747 20.8333L17.3175 14.549C17.3819 14.4734 17.4318 14.3852 17.4629 14.2885H19.6428C20.8855 14.2885 21.8928 13.2811 21.8928 12.0385V4.66334C21.8928 3.4207 20.8855 2.41334 19.6428 2.41334H15.2839ZM17.3716 3.91334C17.4545 4.14785 17.4995 4.40021 17.4995 4.66309V12.7885H19.6428C20.0571 12.7885 20.3928 12.4527 20.3928 12.0385V4.66334C20.3928 4.24913 20.0571 3.91334 19.6428 3.91334H17.3716Z" fill="#16191D"/>
</svg>
