<svg width="24" height="24" viewBox="0 0 24 24" fill="none" xmlns="http://www.w3.org/2000/svg">
<path d="M3.97656 2.73779C3.97656 2.32358 4.31235 1.98779 4.72656 1.98779H19.2695C19.6837 1.98779 20.0195 2.32358 20.0195 2.73779C20.0195 3.15201 19.6837 3.48779 19.2695 3.48779H18.4795C18.3886 6.7534 16.9928 9.84044 14.6167 12.0637C16.9573 14.2538 18.3467 17.2822 18.4745 20.4937H19.2695C19.6837 20.4937 20.0195 20.8294 20.0195 21.2437C20.0195 21.6579 19.6837 21.9937 19.2695 21.9937H4.72656C4.31235 21.9937 3.97656 21.6579 3.97656 21.2437C3.97656 20.8294 4.31235 20.4937 4.72656 20.4937H5.5253C5.65313 17.2822 7.04251 14.2538 9.38313 12.0637C7.00708 9.84044 5.61128 6.7534 5.52036 3.48779H4.72656C4.31235 3.48779 3.97656 3.15201 3.97656 2.73779Z" fill="#16191D"/>
</svg>
