<svg width="21" height="21" viewBox="0 0 21 21" fill="none" xmlns="http://www.w3.org/2000/svg">
<g clip-path="url(#clip0_1505_60942)">
<path d="M6.99316 9.79102C6.57895 9.79102 6.24316 10.1268 6.24316 10.541C6.24316 10.9552 6.57895 11.291 6.99316 11.291H14.9932C15.4074 11.291 15.7432 10.9552 15.7432 10.541C15.7432 10.1268 15.4074 9.79102 14.9932 9.79102H6.99316Z" fill="#576175"/>
<path fill-rule="evenodd" clip-rule="evenodd" d="M10.9932 0.541016C5.47032 0.541016 0.993164 5.01817 0.993164 10.541C0.993164 16.0639 5.47032 20.541 10.9932 20.541C16.516 20.541 20.9932 16.0639 20.9932 10.541C20.9932 5.01817 16.516 0.541016 10.9932 0.541016ZM2.49316 10.541C2.49316 5.8466 6.29874 2.04102 10.9932 2.04102C15.6876 2.04102 19.4932 5.8466 19.4932 10.541C19.4932 15.2354 15.6876 19.041 10.9932 19.041C6.29874 19.041 2.49316 15.2354 2.49316 10.541Z" fill="#576175"/>
</g>
<defs>
<clipPath id="clip0_1505_60942">
<rect width="20" height="20" fill="white" transform="translate(0.993164 0.541016)"/>
</clipPath>
</defs>
</svg>
