<svg width="21" height="21" viewBox="0 0 21 21" fill="none" xmlns="http://www.w3.org/2000/svg">
<path d="M8.50201 1.69037C8.20912 1.39748 7.73424 1.39748 7.44135 1.69037L4.44135 4.69037C4.14846 4.98327 4.14846 5.45814 4.44135 5.75103C4.73424 6.04393 5.20912 6.04393 5.50201 5.75103L7.22168 4.03136L7.22168 10.7729C7.22168 11.1872 7.55747 11.5229 7.97168 11.5229C8.38589 11.5229 8.72168 11.1872 8.72168 10.773L8.72168 4.03137L10.4413 5.75103C10.7342 6.04393 11.2091 6.04393 11.502 5.75103C11.7949 5.45814 11.7949 4.98327 11.502 4.69037L8.50201 1.69037Z" fill="#576175"/>
<path d="M14.5167 19.296L17.5167 16.296C17.8096 16.0031 17.8096 15.5282 17.5167 15.2353C17.2238 14.9424 16.7489 14.9424 16.456 15.2353L14.7363 16.955L14.7363 10.2769C14.7363 9.86264 14.4005 9.52685 13.9863 9.52686C13.5721 9.52686 13.2363 9.86265 13.2363 10.2769L13.2363 16.955L11.5167 15.2353C11.2238 14.9424 10.7489 14.9424 10.456 15.2353C10.1631 15.5282 10.1631 16.0031 10.456 16.296L13.456 19.296C13.7489 19.5888 14.2238 19.5888 14.5167 19.296Z" fill="#576175"/>
</svg>
