<svg xmlns="http://www.w3.org/2000/svg" width="24" height="24" viewBox="0 0 24 24" fill="none">
  <path d="M16.2422 2.0127C14.1711 2.0127 12.4922 3.69163 12.4922 5.7627C12.4922 6.16759 12.5564 6.55749 12.6751 6.9228L8.43042 9.37345C7.74993 8.6801 6.80215 8.25 5.75391 8.25C3.68284 8.25 2.00391 9.92893 2.00391 12C2.00391 14.0711 3.68284 15.75 5.75391 15.75C6.73916 15.75 7.63567 15.37 8.30489 14.7487L12.6088 17.2335C12.5327 17.5314 12.4922 17.8435 12.4922 18.165C12.4922 20.2361 14.1711 21.915 16.2422 21.915C18.3133 21.915 19.9922 20.2361 19.9922 18.165C19.9922 16.094 18.3133 14.415 16.2422 14.415C15.0304 14.415 13.9528 14.9898 13.2673 15.8816L9.18179 13.5229C9.38884 13.0575 9.50391 12.5422 9.50391 12C9.50391 11.518 9.41296 11.0572 9.24729 10.6339L13.4157 8.22724C14.1032 9.01498 15.1145 9.5127 16.2422 9.5127C18.3133 9.5127 19.9922 7.83376 19.9922 5.7627C19.9922 3.69163 18.3133 2.0127 16.2422 2.0127ZM13.9922 5.7627C13.9922 4.52005 14.9995 3.5127 16.2422 3.5127C17.4848 3.5127 18.4922 4.52005 18.4922 5.7627C18.4922 7.00534 17.4848 8.0127 16.2422 8.0127C14.9995 8.0127 13.9922 7.00534 13.9922 5.7627ZM5.75391 9.75C6.99655 9.75 8.00391 10.7574 8.00391 12C8.00391 13.2426 6.99655 14.25 5.75391 14.25C4.51127 14.25 3.50391 13.2426 3.50391 12C3.50391 10.7574 4.51127 9.75 5.75391 9.75ZM16.2422 15.915C17.4848 15.915 18.4922 16.9224 18.4922 18.165C18.4922 19.4077 17.4848 20.415 16.2422 20.415C14.9995 20.415 13.9922 19.4077 13.9922 18.165C13.9922 16.9224 14.9995 15.915 16.2422 15.915Z" fill="#16191D"/>
</svg>