<svg xmlns="http://www.w3.org/2000/svg" width="24" height="24" viewBox="0 0 24 24" fill="none">
  <path d="M10.5 10.2587C10.0858 10.2587 9.75 10.5945 9.75 11.0087C9.75 11.4229 10.0858 11.7587 10.5 11.7587H13.5C13.9142 11.7587 14.25 11.4229 14.25 11.0087C14.25 10.5945 13.9142 10.2587 13.5 10.2587H10.5Z" fill="#16191D"/>
  <path d="M19.75 5.74989H15.75V5.25147C15.75 4.00882 14.7426 3.00146 13.5 3.00146H10.5C9.25736 3.00146 8.25 4.00882 8.25 5.25146V5.74989H4.25C3.00736 5.74989 2 6.75725 2 7.99989V18.9999C2 20.2425 3.00736 21.2499 4.25 21.2499H19.75C20.9926 21.2499 22 20.2425 22 18.9999V7.99989C22 6.75725 20.9926 5.74989 19.75 5.74989ZM9.75 5.6825V5.25146C9.75 4.83725 10.0858 4.50146 10.5 4.50146H13.5C13.9142 4.50146 14.25 4.83725 14.25 5.25146V5.6825H9.75ZM4.25 19.7499H19.75C20.1642 19.7499 20.5 19.4141 20.5 18.9999V13.0478C19.917 13.2359 19.1171 13.4818 18.2066 13.7278C16.3453 14.2307 13.9526 14.7538 12 14.7538C10.0474 14.7538 7.65473 14.2307 5.79344 13.7278C4.88288 13.4818 4.08303 13.2359 3.5 13.0478V18.9999C3.5 19.4141 3.83579 19.7499 4.25 19.7499ZM20.5 11.4688C20.3825 11.5082 20.2461 11.5533 20.0932 11.6028C19.5235 11.7875 18.7259 12.0337 17.8153 12.2798C15.9756 12.7768 13.7433 13.2538 12 13.2538C10.2567 13.2538 8.02444 12.7768 6.1847 12.2798C5.27407 12.0337 4.47647 11.7875 3.90685 11.6028C3.7539 11.5533 3.61754 11.5082 3.5 11.4688V7.99989C3.5 7.58567 3.83579 7.24989 4.25 7.24989H19.75C20.1642 7.24989 20.5 7.58567 20.5 7.99989V11.4688Z" fill="#16191D"/>
  <path d="M3.5 18.9999C3.5 19.4141 3.83579 19.7499 4.25 19.7499H19.75C20.1642 19.7499 20.5 19.4141 20.5 18.9999V13.0478C19.917 13.2359 19.1171 13.4818 18.2066 13.7278C16.3453 14.2307 13.9526 14.7538 12 14.7538C10.0474 14.7538 7.65473 14.2307 5.79344 13.7278C4.88288 13.4818 4.08303 13.2359 3.5 13.0478V18.9999Z" fill="#16191D"/>
</svg>