<svg width="21" height="21" viewBox="0 0 21 21" fill="none" xmlns="http://www.w3.org/2000/svg">
<g clip-path="url(#clip0_1505_60904)">
<path fill-rule="evenodd" clip-rule="evenodd" d="M9.49463 0.791016C4.93828 0.791016 1.24463 4.48467 1.24463 9.04102C1.24463 13.5974 4.93828 17.291 9.49463 17.291C11.5028 17.291 13.3433 16.5735 14.7739 15.381L19.4643 20.0713C19.7572 20.3642 20.2321 20.3642 20.525 20.0713C20.8179 19.7785 20.8179 19.3036 20.525 19.0107L15.8346 14.3203C17.0272 12.8897 17.7446 11.0491 17.7446 9.04102C17.7446 4.48467 14.051 0.791016 9.49463 0.791016ZM2.74463 9.04102C2.74463 5.31309 5.76671 2.29102 9.49463 2.29102C13.2226 2.29102 16.2446 5.31309 16.2446 9.04102C16.2446 12.7689 13.2226 15.791 9.49463 15.791C5.76671 15.791 2.74463 12.7689 2.74463 9.04102Z" fill="#576175"/>
</g>
<defs>
<clipPath id="clip0_1505_60904">
<rect width="20" height="20" fill="white" transform="translate(0.993164 0.541016)"/>
</clipPath>
</defs>
</svg>
