<svg width="24" height="24" viewBox="0 0 24 24" fill="none" xmlns="http://www.w3.org/2000/svg">
<path d="M11.9999 3.45757C7.02929 3.45757 2.99985 7.48701 2.99985 12.4576C2.99985 17.4281 7.02929 21.4576 11.9999 21.4576C16.9704 21.4576 20.9999 17.4281 20.9999 12.4576C20.9999 7.48701 16.9704 3.45757 11.9999 3.45757ZM12.6249 7.45757V11.8779C12.6249 11.9675 12.6728 12.0503 12.7506 12.0948L15.2383 13.5193C15.5977 13.7252 15.7222 14.1834 15.5164 14.5429C15.3106 14.9023 14.8523 15.0269 14.4929 14.821L12.0052 13.3965C11.4607 13.0847 11.1249 12.5053 11.1249 11.8779V7.45757C11.1249 7.04336 11.4606 6.70757 11.8749 6.70757C12.2891 6.70757 12.6249 7.04336 12.6249 7.45757Z" fill="#16191D"/>
<path d="M6.24225 2.76302C6.47699 3.1043 6.39062 3.57125 6.04935 3.80599C4.96278 4.55337 4.02673 5.49875 3.29017 6.59268C3.05882 6.93626 2.59275 7.02726 2.24916 6.79591C1.90557 6.56457 1.81458 6.09849 2.04592 5.7549C2.88771 4.5047 3.95748 3.42427 5.19928 2.57012C5.54055 2.33538 6.00751 2.42175 6.24225 2.76302Z" fill="#16191D"/>
<path d="M17.7575 2.76302C17.5227 3.1043 17.6091 3.57125 17.9504 3.80599C19.0369 4.55337 19.973 5.49875 20.7095 6.59268C20.9409 6.93626 21.407 7.02726 21.7505 6.79591C22.0941 6.56457 22.1851 6.09849 21.9538 5.7549C21.112 4.5047 20.0422 3.42427 18.8004 2.57012C18.4592 2.33538 17.9922 2.42175 17.7575 2.76302Z" fill="#16191D"/>
</svg>
