<svg width="24" height="24" viewBox="0 0 24 24" fill="none" xmlns="http://www.w3.org/2000/svg">
<path fill-rule="evenodd" clip-rule="evenodd" d="M5.98959 4.98883C6.28249 4.69593 6.28249 4.22106 5.98959 3.92817C5.6967 3.63527 5.22182 3.63527 4.92893 3.92817C3.05357 5.80353 2 8.34707 2 10.9992C2 13.6514 3.05357 16.1949 4.92893 18.0703C5.22183 18.3632 5.6967 18.3632 5.98959 18.0703C6.28249 17.7774 6.28249 17.3025 5.98959 17.0096C4.39553 15.4156 3.5 13.2536 3.5 10.9992C3.5 8.74489 4.39553 6.58289 5.98959 4.98883ZM18.0104 4.98883C17.7175 4.69593 17.7175 4.22106 18.0104 3.92817C18.3033 3.63527 18.7782 3.63527 19.0711 3.92817C20.9464 5.80353 22 8.34707 22 10.9992C22 13.6514 20.9464 16.1949 19.0711 18.0703C18.7782 18.3632 18.3033 18.3632 18.0104 18.0703C17.7175 17.7774 17.7175 17.3025 18.0104 17.0096C19.6045 15.4156 20.5 13.2536 20.5 10.9992C20.5 8.74489 19.6045 6.58289 18.0104 4.98883ZM8.10815 6.04731C8.40104 6.3402 8.40104 6.81507 8.10815 7.10797C7.07597 8.14015 6.49609 9.54009 6.49609 10.9998C6.49609 12.4595 7.07597 13.8595 8.10815 14.8917C8.40104 15.1846 8.40104 15.6594 8.10815 15.9523C7.81526 16.2452 7.34038 16.2452 7.04749 15.9523C5.734 14.6388 4.99609 12.8574 4.99609 10.9998C4.99609 9.14226 5.734 7.36079 7.04749 6.04731C7.34038 5.75441 7.81526 5.75441 8.10815 6.04731ZM15.8918 7.10797C15.599 6.81507 15.599 6.3402 15.8918 6.04731C16.1847 5.75441 16.6596 5.75441 16.9525 6.04731C18.266 7.36079 19.0039 9.14226 19.0039 10.9998C19.0039 12.8574 18.266 14.6388 16.9525 15.9523C16.6596 16.2452 16.1847 16.2452 15.8918 15.9523C15.599 15.6594 15.599 15.1846 15.8918 14.8917C16.924 13.8595 17.5039 12.4595 17.5039 10.9998C17.5039 9.54009 16.924 8.14015 15.8918 7.10797ZM9.25 10.9995C9.25 9.48073 10.4812 8.24951 12 8.24951C13.5188 8.24951 14.75 9.48073 14.75 10.9995C14.75 12.2597 13.9023 13.3219 12.7461 13.6471V21.2285C12.7461 21.6427 12.4103 21.9785 11.9961 21.9785C11.5819 21.9785 11.2461 21.6427 11.2461 21.2285V13.6449C10.0938 13.3171 9.25 12.2569 9.25 10.9995Z" fill="#16191D"/>
</svg>
