<svg width="24" height="24" viewBox="0 0 24 24" fill="none" xmlns="http://www.w3.org/2000/svg">
<path d="M17.5297 18.0326C17.2367 18.3254 16.7618 18.3252 16.469 18.0322L11.9995 13.5598L7.53005 18.0322C7.23725 18.3252 6.76238 18.3254 6.46939 18.0326C6.1764 17.7398 6.17624 17.2649 6.46904 16.9719L11.469 11.9686C11.6097 11.8278 11.8005 11.7487 11.9995 11.7487C12.1985 11.7487 12.3894 11.8278 12.53 11.9686L17.53 16.9719C17.8228 17.2649 17.8227 17.7398 17.5297 18.0326ZM17.5306 12.0314C17.2376 12.3242 16.7627 12.324 16.4699 12.031L12.0004 7.55857L7.53095 12.031C7.23815 12.324 6.76328 12.3242 6.47029 12.0314C6.1773 11.7386 6.17714 11.2637 6.46994 10.9707L11.4699 5.9674C11.6106 5.82664 11.8014 5.74756 12.0004 5.74756C12.1994 5.74756 12.3903 5.82664 12.5309 5.9674L17.5309 10.9707C17.8237 11.2637 17.8236 11.7386 17.5306 12.0314Z" fill="#16191D"/>
</svg>
