<svg width="24" height="24" viewBox="0 0 24 24" fill="none" xmlns="http://www.w3.org/2000/svg">
<path d="M8.36654 5.53729C5.37697 7.80432 4.47196 11.9955 6.39678 15.3293C8.48299 18.9428 13.1034 20.1808 16.7169 18.0946C17.8383 17.4471 18.7305 16.5564 19.3658 15.5271C15.5926 16.3911 11.5419 14.7526 9.50536 11.2253C8.47209 9.4356 8.11948 7.43922 8.36654 5.53729ZM5.09775 16.0793C2.59733 11.7485 4.08119 6.21066 8.41204 3.71024C8.66481 3.5643 8.92189 3.43185 9.18242 3.31271C9.78176 3.03863 10.4178 3.61535 10.2036 4.23859C9.51714 6.23554 9.66665 8.50465 10.8044 10.4753C12.7684 13.877 16.9794 15.1739 20.4803 13.573C21.0796 13.2989 21.7157 13.8756 21.5014 14.4988C20.8164 16.4917 19.4352 18.2572 17.4669 19.3936C13.136 21.8941 7.59816 20.4102 5.09775 16.0793Z" fill="#16191D"/>
<path d="M6.39678 15.3293C4.47196 11.9955 5.37697 7.80432 8.36654 5.53729C8.11948 7.43922 8.47209 9.4356 9.50536 11.2253C11.5419 14.7526 15.5926 16.3911 19.3658 15.5271C18.7305 16.5564 17.8383 17.4471 16.7169 18.0946C13.1034 20.1808 8.48299 18.9428 6.39678 15.3293Z" fill="#16191D"/>
</svg>
