<svg width="24" height="24" viewBox="0 0 24 24" fill="none" xmlns="http://www.w3.org/2000/svg">
<path d="M4.20935 4.50146C3.79514 4.50146 3.45935 4.83725 3.45935 5.25146V18.7515C3.45935 19.1657 3.79514 19.5015 4.20935 19.5015H11.464L11.464 4.50146H4.20935ZM12.964 4.50146L12.964 19.5015H19.7094C20.1236 19.5015 20.4594 19.1657 20.4594 18.7515V5.25146C20.4594 4.83725 20.1236 4.50146 19.7094 4.50146H12.964ZM1.95935 5.25146C1.95935 4.00882 2.96671 3.00146 4.20935 3.00146H19.7094C20.952 3.00146 21.9594 4.00882 21.9594 5.25146V18.7515C21.9594 19.9941 20.952 21.0015 19.7094 21.0015H4.20935C2.96671 21.0015 1.95935 19.9941 1.95935 18.7515V5.25146ZM14.4617 9.00146C14.4617 8.58725 14.7975 8.25146 15.2117 8.25146H18.2117C18.6259 8.25146 18.9617 8.58725 18.9617 9.00146C18.9617 9.41568 18.6259 9.75146 18.2117 9.75146H15.2117C14.7975 9.75146 14.4617 9.41568 14.4617 9.00146ZM14.4617 12.0015C14.4617 11.5873 14.7975 11.2515 15.2117 11.2515H18.2117C18.6259 11.2515 18.9617 11.5873 18.9617 12.0015C18.9617 12.4157 18.6259 12.7515 18.2117 12.7515H15.2117C14.7975 12.7515 14.4617 12.4157 14.4617 12.0015ZM14.4617 15.0015C14.4617 14.5873 14.7975 14.2515 15.2117 14.2515H18.2117C18.6259 14.2515 18.9617 14.5873 18.9617 15.0015C18.9617 15.4157 18.6259 15.7515 18.2117 15.7515H15.2117C14.7975 15.7515 14.4617 15.4157 14.4617 15.0015Z" fill="#16191D"/>
</svg>
