<svg width="24" height="24" viewBox="0 0 24 24" fill="none" xmlns="http://www.w3.org/2000/svg">
<path d="M6.33588 6.34223C6.62877 6.04934 7.10364 6.04933 7.39654 6.34222L16.3721 15.3176L16.3704 10.0476C16.3702 9.63339 16.7059 9.29749 17.1201 9.29735C17.5343 9.29722 17.8702 9.63289 17.8704 10.0471L17.8727 17.1205C17.8728 17.3195 17.7937 17.5104 17.653 17.6511C17.5123 17.7918 17.3215 17.8708 17.1225 17.8708L10.049 17.8684C9.63483 17.8683 9.29915 17.5324 9.29929 17.1182C9.29943 16.704 9.63532 16.3683 10.0495 16.3684L15.3033 16.3702L6.33589 7.40289C6.04299 7.11 6.04299 6.63513 6.33588 6.34223Z" fill="#16191D"/>
</svg>
