<svg width="21" height="20" viewBox="0 0 21 20" fill="none" xmlns="http://www.w3.org/2000/svg">
<g clip-path="url(#clip0_1516_60568)">
<path fill-rule="evenodd" clip-rule="evenodd" d="M10.0025 6.82227C6.66788 6.82227 3.8294 8.26416 1.93908 10.6647C1.78664 10.8582 1.7717 11.1643 1.96099 11.4208C2.18479 11.7241 2.43599 12.0609 2.65468 12.3452C2.88685 12.647 3.04763 12.8435 3.1063 12.9025C3.20974 13.0066 3.32546 13.0821 3.44594 13.1312C3.45737 13.132 3.47809 13.1328 3.50991 13.1319C3.59199 13.1293 3.70749 13.1162 3.85558 13.0883C4.15086 13.0326 4.51574 12.93 4.89155 12.7994C5.26565 12.6695 5.63158 12.5185 5.92765 12.3736C5.99969 12.3383 6.0659 12.3042 6.12581 12.2717L5.61927 10.1255C5.54116 9.79455 5.69549 9.45245 5.99529 9.29198C7.15143 8.67317 8.46965 8.3242 9.86805 8.3242C11.3672 8.3242 12.7751 8.72643 13.9887 9.42994C14.2734 9.595 14.4172 9.92641 14.3434 10.2471L13.8775 12.2696C13.9249 12.2953 13.9762 12.3222 14.0313 12.35C14.3111 12.4916 14.6595 12.644 15.0167 12.7807C15.375 12.9178 15.726 13.0328 16.0116 13.1045C16.1549 13.1405 16.2691 13.1623 16.3523 13.1724C16.3884 13.1767 16.4112 13.1779 16.423 13.1782C16.5953 13.1341 16.7606 13.043 16.8987 12.9041C16.9541 12.8483 17.1143 12.6518 17.3485 12.3463C17.5685 12.0592 17.8221 11.7184 18.0475 11.412C18.2363 11.1554 18.2213 10.8501 18.0696 10.6571C16.1813 8.25458 13.3402 6.82227 10.0025 6.82227ZM0.760613 9.73664C2.93608 6.97405 6.20934 5.32227 10.0025 5.32227C13.7948 5.32227 17.0728 6.96147 19.2489 9.73016C19.8615 10.5096 19.7999 11.5614 19.2556 12.301C19.0279 12.6105 18.7678 12.9604 18.539 13.2588C18.3244 13.5388 18.1007 13.8226 17.9625 13.9616C17.6146 14.3116 17.1849 14.5436 16.7297 14.6471C16.5284 14.6932 16.3224 14.6796 16.1727 14.6616C16.0059 14.6415 15.8259 14.6045 15.6463 14.5593C15.2858 14.4688 14.8756 14.3327 14.4807 14.1816C14.0847 14.0301 13.688 13.8574 13.3543 13.6886C13.0517 13.5355 12.7083 13.341 12.4994 13.1309C12.3177 12.9481 12.2426 12.6849 12.3005 12.4338L12.7522 10.4727C11.8777 10.0567 10.9006 9.8242 9.86805 9.8242C8.92547 9.8242 8.0304 10.0173 7.21744 10.3668L7.70359 12.4266C7.7631 12.6788 7.68824 12.9439 7.50558 13.1276C7.27962 13.355 6.91748 13.5591 6.58725 13.7207C6.22908 13.8961 5.80623 14.0696 5.38375 14.2164C4.96298 14.3626 4.52347 14.4888 4.13331 14.5623C3.93868 14.599 3.74119 14.6255 3.55585 14.6311C3.38509 14.6364 3.15894 14.6269 2.94285 14.5449C2.60914 14.4196 2.3025 14.2216 2.04243 13.96C1.90265 13.8193 1.67996 13.5382 1.46578 13.2598C1.23814 12.9639 0.980127 12.6179 0.75398 12.3114C0.207496 11.5707 0.146352 10.5167 0.760613 9.73664Z" fill="#576175"/>
</g>
<defs>
<clipPath id="clip0_1516_60568">
<rect width="20" height="20" fill="white" transform="translate(0.00341797)"/>
</clipPath>
</defs>
</svg>
