<svg width="24" height="24" viewBox="0 0 24 24" fill="none" xmlns="http://www.w3.org/2000/svg">
<path fill-rule="evenodd" clip-rule="evenodd" d="M3 5.25C3 4.00736 4.00736 3 5.25 3H8.25285C8.66707 3 9.00285 3.33579 9.00285 3.75C9.00285 4.16421 8.66707 4.5 8.25285 4.5H5.25C4.83579 4.5 4.5 4.83579 4.5 5.25V8.24313C4.5 8.65734 4.16421 8.99313 3.75 8.99313C3.33579 8.99313 3 8.65734 3 8.24313V5.25ZM15.0067 3.75C15.0067 3.33579 15.3425 3 15.7567 3H18.75C19.9926 3 21 4.00736 21 5.25V8.24645C21 8.66066 20.6642 8.99645 20.25 8.99645C19.8358 8.99645 19.5 8.66066 19.5 8.24645V5.25C19.5 4.83579 19.1642 4.5 18.75 4.5H15.7567C15.3425 4.5 15.0067 4.16421 15.0067 3.75ZM20.25 15.0094C20.6642 15.0094 21 15.3452 21 15.7594V18.75C21 19.9927 19.9926 21 18.75 21L15.7604 21C15.3462 21 15.0104 20.6642 15.0104 20.25C15.0104 19.8358 15.3462 19.5 15.7604 19.5L18.75 19.5C19.1642 19.5 19.5 19.1642 19.5 18.75V15.7594C19.5 15.3452 19.8358 15.0094 20.25 15.0094ZM3.75 15.0094C4.16421 15.0094 4.5 15.3452 4.5 15.7594V18.75C4.5 19.1642 4.83579 19.5 5.25 19.5H8.25285C8.66707 19.5 9.00285 19.8358 9.00285 20.25C9.00285 20.6642 8.66706 21 8.25285 21H5.25C4.00736 21 3 19.9927 3 18.75V15.7594C3 15.3452 3.33579 15.0094 3.75 15.0094Z" fill="#16191D"/>
</svg>
