<svg width="24" height="24" viewBox="0 0 24 24" fill="none" xmlns="http://www.w3.org/2000/svg">
<path fill-rule="evenodd" clip-rule="evenodd" d="M12 8.75C10.2051 8.75 8.75 10.2051 8.75 12C8.75 13.7949 10.2051 15.25 12 15.25C13.7949 15.25 15.25 13.7949 15.25 12C15.25 10.2051 13.7949 8.75 12 8.75ZM7.30888 11.25C7.66846 8.98301 9.63185 7.25 12 7.25C14.3682 7.25 16.3315 8.98301 16.6911 11.25L21.2417 11.25C21.656 11.25 21.9917 11.5858 21.9917 12C21.9917 12.4142 21.656 12.75 21.2417 12.75L16.6911 12.75C16.3315 15.017 14.3682 16.75 12 16.75C9.63185 16.75 7.66846 15.017 7.30888 12.75L2.75977 12.75C2.34555 12.75 2.00977 12.4142 2.00977 12C2.00977 11.5858 2.34555 11.25 2.75977 11.25L7.30888 11.25Z" fill="#16191D"/>
</svg>
