<svg xmlns="http://www.w3.org/2000/svg" width="24" height="24" viewBox="0 0 24 24" fill="none">
  <path d="M17.7283 8.33657C17.615 7.03497 17.0682 5.85756 16.2329 4.9496L17.6146 3.56793C17.9075 3.27503 17.9075 2.80016 17.6146 2.50727C17.3217 2.21437 16.8468 2.21437 16.5539 2.50727L15.0777 3.98351C14.1878 3.4186 13.1322 3.09145 12.0001 3.09145C10.9112 3.09145 9.89301 3.39413 9.02504 3.91996L7.61249 2.50741C7.3196 2.21452 6.84472 2.21452 6.55183 2.50741C6.25894 2.8003 6.25894 3.27518 6.55183 3.56807L7.84774 4.86398C6.96724 5.78296 6.38881 6.99366 6.27199 8.33657H5.26356C4.9938 8.33657 4.74482 8.19169 4.61152 7.95716L3.90608 6.71597C3.7014 6.35586 3.24355 6.22985 2.88344 6.43452C2.52333 6.6392 2.39732 7.09705 2.60199 7.45716L3.30744 8.69835C3.70733 9.40194 4.45427 9.83657 5.26356 9.83657H6.00945C4.96219 11.1471 4.33607 12.8088 4.33607 14.6168C4.33607 15.6546 4.54236 16.6441 4.91606 17.5465L3.20027 19.2623C2.90738 19.5552 2.90738 20.0301 3.20027 20.323C3.49316 20.6158 3.96804 20.6158 4.26093 20.323L5.66012 18.9238C6.47284 20.1175 7.6138 21.0695 8.95256 21.6502L9.58117 21.9228L9.90935 21.3213C10.0472 21.0686 10.1807 20.8132 10.3096 20.5552C11.4622 20.8832 12.6859 20.8689 13.8304 20.5143C13.9555 20.7658 14.0849 21.0148 14.2184 21.2612L14.5527 21.8781L15.1904 21.5856C16.4669 21.0002 17.5552 20.074 18.3386 18.9232L19.739 20.3236C20.0319 20.6165 20.5068 20.6165 20.7996 20.3236C21.0925 20.0307 21.0925 19.5558 20.7996 19.2629L19.0825 17.5458C19.456 16.6436 19.6622 15.6543 19.6622 14.6168C19.6622 12.8088 19.0361 11.1471 17.9889 9.83657H18.7367C19.546 9.83657 20.2929 9.40194 20.6928 8.69835L21.3983 7.45716C21.6029 7.09705 21.4769 6.6392 21.1168 6.43452C20.7567 6.22985 20.2989 6.35586 20.0942 6.71597L19.3887 7.95716C19.2554 8.19169 19.0065 8.33657 18.7367 8.33657H17.7283ZM13.1985 19.1355C12.462 19.3303 11.689 19.3424 10.947 19.1709C11.4041 18.0888 11.7841 16.9663 12.0802 15.8102C12.3731 16.9537 12.7481 18.0643 13.1985 19.1355ZM12.0001 4.59145C14.1324 4.59145 15.898 6.16174 16.2034 8.20899C15.1726 7.53133 13.9685 7.09568 12.6719 6.98287L12.6691 6.95228L12.0889 6.95351L11.4925 6.93853L11.4896 6.9704C10.1318 7.05954 8.87054 7.50233 7.79709 8.20754C8.10314 6.161 9.86834 4.59145 12.0001 4.59145ZM12.8302 9.83214C12.8302 9.38974 12.843 8.9504 12.8681 8.51446C15.8603 8.93661 18.1622 11.508 18.1622 14.6168C18.1622 16.8498 16.9747 18.8067 15.1943 19.8882C13.6816 16.8621 12.8302 13.4475 12.8302 9.83214ZM11.2911 8.49395C11.3171 8.93662 11.3302 9.3828 11.3302 9.83214C11.3302 13.477 10.4649 16.9178 8.92895 19.9621C7.07955 18.8975 5.83607 16.9017 5.83607 14.6168C5.83607 11.4525 8.22083 8.84511 11.2911 8.49395Z" fill="#16191D"/>
</svg>