<svg width="24" height="24" viewBox="0 0 24 24" fill="none" xmlns="http://www.w3.org/2000/svg">
<path d="M20.2034 6.84229C20.6176 6.84229 20.9534 7.17807 20.9534 7.59229V12.6101C20.9534 13.0243 20.6176 13.3601 20.2034 13.3601C19.7892 13.3601 19.4534 13.0243 19.4534 12.6101V9.40254L13.3967 15.4592C13.1328 15.7231 12.715 15.7528 12.4164 15.5289L8.88172 12.8779L4.27288 17.4867C3.97999 17.7796 3.50512 17.7796 3.21222 17.4867C2.91933 17.1938 2.91933 16.719 3.21222 16.4261L8.28101 11.3573C8.54493 11.0934 8.96275 11.0637 9.26134 11.2876L12.796 13.9386L18.3923 8.34229L15.1855 8.34229C14.7713 8.34229 14.4355 8.0065 14.4355 7.59228C14.4355 7.17807 14.7713 6.84229 15.1855 6.84229H20.2034Z" fill="#16191D"/>
</svg>
