<svg width="24" height="24" viewBox="0 0 24 24" fill="none" xmlns="http://www.w3.org/2000/svg">
<path d="M19.8466 5.06968C19.9873 5.21035 20.0664 5.40118 20.0664 5.60017V12.0003C20.0664 15.0781 18.0265 17.5542 16.1531 19.1935C14.4846 20.6534 12.8394 21.5515 12.4327 21.765C12.402 21.7811 12.3712 21.7971 12.3403 21.8127L12.3385 21.8136L12.002 21.1434L12.3374 21.8142C12.1262 21.9198 11.8772 21.9195 11.6661 21.814L11.6636 21.8127L11.6581 21.8099C11.629 21.7951 11.6 21.7802 11.5712 21.765C11.1645 21.5515 9.51935 20.6534 7.85085 19.1935C5.97742 17.5542 3.9375 15.0781 3.9375 12.0003V5.60017C3.9375 5.40118 4.01658 5.21035 4.15732 5.06968C4.29803 4.92906 4.48884 4.8501 4.68777 4.85017L4.69215 4.85016L4.70911 4.85008C4.72453 4.84999 4.74803 4.8498 4.77883 4.84939C4.84046 4.84858 4.93117 4.84693 5.04474 4.84354C5.27227 4.83677 5.58952 4.82311 5.94718 4.79571C6.68037 4.73955 7.51666 4.63006 8.10583 4.43208C8.79475 4.20058 9.63467 3.68362 10.3396 3.18616C10.6834 2.94355 10.9798 2.71661 11.19 2.55051L11.1917 2.54922C11.5861 2.23748 12.021 1.89383 12.5065 2.3016C12.6044 2.38346 13.0631 2.76192 13.6643 3.18616C14.3692 3.68362 15.2092 4.20058 15.8981 4.43208C16.4872 4.63006 17.3235 4.73955 18.0567 4.79571C18.4756 4.8278 18.8959 4.84941 19.3161 4.85017C19.515 4.85008 19.7059 4.92905 19.8466 5.06968ZM16.0636 10.1054C16.3575 9.81355 16.3592 9.33868 16.0673 9.04476C15.7755 8.75085 15.3006 8.7492 15.0067 9.04107L10.689 13.3288L9.06364 11.7147C8.76972 11.4228 8.29485 11.4245 8.00298 11.7184C7.71111 12.0123 7.71277 12.4872 8.00668 12.779L10.1605 14.9179C10.453 15.2084 10.925 15.2084 11.2175 14.9179L16.0636 10.1054Z" fill="#16191D"/>
</svg>
