<svg width="24" height="24" viewBox="0 0 24 24" fill="none" xmlns="http://www.w3.org/2000/svg">
<path d="M17.7282 8.33572C17.6148 7.034 17.0676 5.85654 16.232 4.94865L17.6127 3.56793C17.9056 3.27503 17.9056 2.80016 17.6127 2.50727C17.3199 2.21437 16.845 2.21437 16.5521 2.50727L15.0766 3.98279C14.1869 3.41832 13.1317 3.09145 12.0001 3.09145C10.9107 3.09145 9.89211 3.3944 9.02389 3.92065L7.61065 2.50741C7.31776 2.21452 6.84288 2.21452 6.54999 2.50741C6.2571 2.8003 6.2571 3.27518 6.54999 3.56807L7.84684 4.86492C6.96703 5.78359 6.38901 6.99361 6.27206 8.33572H5.26356C4.9938 8.33572 4.74482 8.19085 4.61152 7.95632L3.90608 6.71513C3.7014 6.35501 3.24355 6.229 2.88344 6.43368C2.52333 6.63835 2.39732 7.0962 2.60199 7.45632L3.30744 8.6975C3.70733 9.40109 4.45427 9.83572 5.26356 9.83572H6.0098C4.96234 11.1463 4.33607 12.8082 4.33607 14.6164C4.33607 15.6538 4.5422 16.6429 4.91564 17.5451L3.19843 19.2623C2.90554 19.5552 2.90554 20.0301 3.19843 20.323C3.49132 20.6158 3.9662 20.6158 4.25909 20.323L5.65954 18.9225C6.4723 20.1167 7.61348 21.069 8.95256 21.6498L9.58117 21.9224L9.90935 21.3209C10.0471 21.0685 10.1804 20.8134 10.3092 20.5556C11.462 20.8834 12.6858 20.8689 13.8304 20.5139C13.9555 20.7654 14.0848 21.0144 14.2184 21.2608L14.5527 21.8777L15.1904 21.5852C16.467 20.9998 17.5554 20.0734 18.3388 18.9225L19.739 20.3227C20.0319 20.6156 20.5068 20.6156 20.7996 20.3227C21.0925 20.0298 21.0925 19.555 20.7996 19.2621L19.0827 17.5451C19.4561 16.6429 19.6622 15.6538 19.6622 14.6164C19.6622 12.8082 19.036 11.1463 17.9885 9.83572H18.7367C19.546 9.83572 20.2929 9.40109 20.6928 8.6975L21.3983 7.45632C21.6029 7.0962 21.4769 6.63835 21.1168 6.43368C20.7567 6.229 20.2989 6.35501 20.0942 6.71513L19.3887 7.95632C19.2554 8.19085 19.0065 8.33572 18.7367 8.33572H17.7282ZM13.1985 19.1351C12.462 19.3303 11.6888 19.3426 10.9467 19.1713C11.4039 18.0889 11.784 16.9661 12.0802 15.8098C12.3731 16.9533 12.7481 18.0639 13.1985 19.1351ZM12.0001 4.59145C14.1323 4.59145 15.8977 6.16151 16.2033 8.20854C15.1726 7.53091 13.9685 7.09528 12.6719 6.98246L12.6691 6.95188L12.0889 6.95311L11.4925 6.93813L11.4896 6.96999C10.1318 7.05913 8.87059 7.50191 7.79715 8.20709C8.1034 6.16077 9.8685 4.59145 12.0001 4.59145Z" fill="#16191D"/>
</svg>
