<svg width="24" height="24" viewBox="0 0 24 24" fill="none" xmlns="http://www.w3.org/2000/svg">
<path d="M8.36651 5.53695C5.37695 7.80398 4.47194 11.9951 6.39676 15.329C8.48296 18.9424 13.1034 20.1805 16.7168 18.0943C17.8383 17.4468 18.7305 16.556 19.3658 15.5268C15.5925 16.3907 11.5418 14.7522 9.50533 11.2249C8.47206 9.43526 8.11945 7.43888 8.36651 5.53695ZM5.09772 16.079C2.5973 11.7482 4.08116 6.21031 8.41201 3.7099C8.66479 3.56396 8.92187 3.43151 9.1824 3.31237C9.78174 3.03829 10.4178 3.615 10.2036 4.23825C9.51711 6.2352 9.66663 8.50431 10.8044 10.4749C12.7684 13.8767 16.9793 15.1736 20.4802 13.5726C21.0796 13.2985 21.7157 13.8753 21.5014 14.4985C20.8164 16.4914 19.4352 18.2569 17.4668 19.3933C13.136 21.8937 7.59814 20.4099 5.09772 16.079Z" fill="#16191D"/>
<path d="M6.39676 15.329C4.47194 11.9951 5.37695 7.80398 8.36651 5.53695C8.11945 7.43888 8.47206 9.43526 9.50533 11.2249C11.5418 14.7522 15.5925 16.3907 19.3658 15.5268C18.7305 16.556 17.8383 17.4468 16.7168 18.0943C13.1034 20.1805 8.48296 18.9424 6.39676 15.329Z" fill="#16191D"/>
</svg>
