<svg width="24" height="24" viewBox="0 0 24 24" fill="none" xmlns="http://www.w3.org/2000/svg">
<path d="M16.75 12C16.75 12.4142 16.4142 12.75 16 12.75H12.75V16C12.75 16.4142 12.4142 16.75 12 16.75C11.5858 16.75 11.25 16.4142 11.25 16V12.75L8 12.75C7.58579 12.75 7.25 12.4142 7.25 12C7.25 11.5858 7.58579 11.25 8 11.25L11.25 11.25V8C11.25 7.58579 11.5858 7.25 12 7.25C12.4142 7.25 12.75 7.58579 12.75 8V11.25H16C16.4142 11.25 16.75 11.5858 16.75 12Z" fill="#16191D"/>
<path fill-rule="evenodd" clip-rule="evenodd" d="M21 7.01942V16.9806C21 17.5321 21 17.9911 20.9694 18.3657C20.9375 18.756 20.8687 19.1204 20.6935 19.4643C20.4238 19.9936 19.9936 20.4238 19.4643 20.6935C19.1204 20.8687 18.756 20.9375 18.3657 20.9694C17.9911 21 17.5321 21 16.9806 21H7.0194C6.46787 21 6.00892 21 5.63428 20.9694C5.24397 20.9375 4.8796 20.8687 4.53565 20.6935C4.00645 20.4238 3.57619 19.9936 3.30654 19.4643C3.13129 19.1204 3.06248 18.756 3.03059 18.3657C2.99998 17.9911 2.99999 17.5321 3 16.9806L3 7.0194C2.99999 6.46787 2.99998 6.00893 3.03059 5.63428C3.06248 5.24397 3.1313 4.8796 3.30654 4.53565C3.57619 4.00645 4.00645 3.57619 4.53565 3.30655C4.8796 3.1313 5.24397 3.06248 5.63428 3.03059C6.00893 2.99998 6.46788 2.99999 7.01941 3L16.9806 3C17.5321 2.99999 17.9911 2.99998 18.3657 3.03059C18.756 3.06248 19.1204 3.1313 19.4643 3.30655C19.9936 3.57619 20.4238 4.00645 20.6935 4.53565C20.8687 4.8796 20.9375 5.24397 20.9694 5.63428C21 6.00893 21 6.46789 21 7.01942ZM19.4744 5.75643C19.4501 5.45888 19.4065 5.31388 19.3569 5.21664C19.2311 4.96968 19.0303 4.76889 18.7834 4.64306C18.6861 4.59351 18.5411 4.54992 18.2436 4.52561C17.9373 4.50058 17.5399 4.5 16.95 4.5L7.05 4.5C6.46007 4.5 6.06273 4.50058 5.75643 4.52561C5.45888 4.54992 5.31388 4.59351 5.21664 4.64305C4.96968 4.76889 4.76889 4.96968 4.64305 5.21664C4.5935 5.31388 4.54992 5.45888 4.52561 5.75643C4.50058 6.06273 4.5 6.46007 4.5 7.05L4.5 16.95C4.5 17.5399 4.50058 17.9373 4.52561 18.2436C4.54992 18.5411 4.5935 18.6861 4.64305 18.7834C4.76889 19.0303 4.96968 19.2311 5.21664 19.3569C5.31388 19.4065 5.45888 19.4501 5.75643 19.4744C6.06273 19.4994 6.46007 19.5 7.05 19.5H16.95C17.5399 19.5 17.9373 19.4994 18.2436 19.4744C18.5411 19.4501 18.6861 19.4065 18.7834 19.3569C19.0303 19.2311 19.2311 19.0303 19.3569 18.7834C19.4065 18.6861 19.4501 18.5411 19.4744 18.2436C19.4994 17.9373 19.5 17.5399 19.5 16.95V7.05C19.5 6.46007 19.4994 6.06273 19.4744 5.75643Z" fill="#16191D"/>
</svg>
