<svg width="24" height="24" viewBox="0 0 24 24" fill="none" xmlns="http://www.w3.org/2000/svg">
<path d="M11.9999 3.45806C7.02929 3.45806 2.99985 7.4875 2.99985 12.4581C2.99985 17.4286 7.02929 21.4581 11.9999 21.4581C16.9704 21.4581 20.9999 17.4286 20.9999 12.4581C20.9999 7.4875 16.9704 3.45806 11.9999 3.45806ZM12.6249 7.45806V11.8784C12.6249 11.968 12.6728 12.0508 12.7506 12.0953L15.2383 13.5198C15.5977 13.7257 15.7222 14.1839 15.5164 14.5434C15.3106 14.9028 14.8523 15.0274 14.4929 14.8215L12.0052 13.397C11.4607 13.0852 11.1249 12.5058 11.1249 11.8784V7.45806C11.1249 7.04385 11.4606 6.70806 11.8749 6.70806C12.2891 6.70806 12.6249 7.04385 12.6249 7.45806Z" fill="#16191D"/>
<path d="M6.24225 2.76351C6.47699 3.10479 6.39062 3.57174 6.04935 3.80648C4.96278 4.55386 4.02673 5.49924 3.29017 6.59316C3.05882 6.93675 2.59275 7.02774 2.24916 6.7964C1.90557 6.56505 1.81458 6.09898 2.04592 5.75539C2.88771 4.50519 3.95748 3.42476 5.19928 2.57061C5.54055 2.33587 6.00751 2.42223 6.24225 2.76351Z" fill="#16191D"/>
<path d="M17.7575 2.76351C17.5227 3.10479 17.6091 3.57174 17.9504 3.80648C19.0369 4.55386 19.973 5.49924 20.7095 6.59316C20.9409 6.93675 21.407 7.02774 21.7505 6.7964C22.0941 6.56505 22.1851 6.09898 21.9538 5.75539C21.112 4.50519 20.0422 3.42476 18.8004 2.57061C18.4592 2.33587 17.9922 2.42223 17.7575 2.76351Z" fill="#16191D"/>
</svg>
