<svg width="24" height="24" viewBox="0 0 24 24" fill="none" xmlns="http://www.w3.org/2000/svg">
<path d="M6.46679 13.7206C6.75978 13.4278 7.23466 13.4279 7.52745 13.7209L11.9969 18.1934L16.4664 13.7209C16.7592 13.4279 17.2341 13.4278 17.5271 13.7206C17.8201 14.0134 17.8203 14.4882 17.5275 14.7812L12.5275 19.7845C12.3868 19.9253 12.1959 20.0044 11.9969 20.0044C11.7979 20.0044 11.6071 19.9253 11.4664 19.7845L6.46644 14.7812C6.17365 14.4882 6.1738 14.0134 6.46679 13.7206Z" fill="#16191D"/>
<path d="M12.002 19.6143C11.5878 19.6143 11.252 19.2786 11.252 18.8643L11.2522 4.75536C11.2522 4.34115 11.588 4.00537 12.0022 4.00537C12.4164 4.00538 12.7522 4.34117 12.7522 4.75538L12.752 18.8644C12.752 19.2786 12.4163 19.6144 12.002 19.6143Z" fill="#16191D"/>
</svg>
