<svg width="24" height="24" viewBox="0 0 24 24" fill="none" xmlns="http://www.w3.org/2000/svg">
<path d="M2.75781 12.75L7.30888 12.75C7.66846 15.017 9.63185 16.75 12 16.75C14.3682 16.75 16.3315 15.017 16.6911 12.75L21.2422 12.75C21.6564 12.75 21.9922 12.4142 21.9922 12C21.9922 11.5858 21.6564 11.25 21.2422 11.25L16.6911 11.25C16.3315 8.98301 14.3682 7.25 12 7.25C9.63185 7.25 7.66846 8.98301 7.30888 11.25L2.75781 11.25C2.3436 11.25 2.00781 11.5858 2.00781 12C2.00781 12.4142 2.3436 12.75 2.75781 12.75Z" fill="#16191D"/>
</svg>
