<svg width="24" height="24" viewBox="0 0 24 24" fill="none" xmlns="http://www.w3.org/2000/svg">
<path fill-rule="evenodd" clip-rule="evenodd" d="M7.01939 3H16.9805C17.5321 2.99999 17.991 2.99998 18.3657 3.03059C18.756 3.06248 19.1204 3.1313 19.4643 3.30655C19.9935 3.57619 20.4238 4.00645 20.6934 4.53565C20.8687 4.8796 20.9375 5.24397 20.9694 5.63428C21 6.00893 21 6.46787 21 7.0194V16.9806C21 17.5321 21 17.9911 20.9694 18.3657C20.9375 18.756 20.8687 19.1204 20.6934 19.4643C20.4238 19.9936 19.9935 20.4238 19.4643 20.6935C19.1204 20.8687 18.756 20.9375 18.3657 20.9694C17.991 21 17.5321 21 16.9806 21H7.01937C6.46784 21 6.00889 21 5.63425 20.9694C5.24394 20.9375 4.87957 20.8687 4.53562 20.6935C4.00642 20.4238 3.57616 19.9936 3.30651 19.4643C3.13126 19.1204 3.06245 18.756 3.03056 18.3657C2.99995 17.9911 2.99996 17.5321 2.99997 16.9806V7.01942C2.99996 6.46788 2.99995 6.00893 3.03056 5.63428C3.06245 5.24397 3.13126 4.8796 3.30651 4.53565C3.57616 4.00645 4.00642 3.57619 4.53562 3.30655C4.87957 3.1313 5.24394 3.06248 5.63425 3.03059C6.0089 2.99998 6.46785 2.99999 7.01939 3ZM5.7564 4.52561C5.45885 4.54992 5.31385 4.59351 5.21661 4.64305C4.96965 4.76889 4.76886 4.96968 4.64302 5.21664C4.59348 5.31388 4.54989 5.45888 4.52558 5.75643C4.50055 6.06273 4.49997 6.46007 4.49997 7.05V16.95C4.49997 17.5399 4.50055 17.9373 4.52558 18.2436C4.54989 18.5411 4.59348 18.6861 4.64302 18.7834C4.76886 19.0303 4.96965 19.2311 5.21661 19.3569C5.31385 19.4065 5.45885 19.4501 5.7564 19.4744C6.0627 19.4994 6.46004 19.5 7.04997 19.5H16.95C17.5399 19.5 17.9372 19.4994 18.2435 19.4744C18.5411 19.4501 18.6861 19.4065 18.7833 19.3569C19.0303 19.2311 19.2311 19.0303 19.3569 18.7834C19.4065 18.6861 19.4501 18.5411 19.4744 18.2436C19.4994 17.9373 19.5 17.5399 19.5 16.95V7.05C19.5 6.46007 19.4994 6.06273 19.4744 5.75643C19.4501 5.45888 19.4065 5.31388 19.3569 5.21664C19.2311 4.96968 19.0303 4.76889 18.7833 4.64305C18.6861 4.59351 18.5411 4.54992 18.2435 4.52561C17.9372 4.50058 17.5399 4.5 16.95 4.5H7.04997C6.46004 4.5 6.0627 4.50058 5.7564 4.52561Z" fill="#16191D"/>
</svg>
