<svg xmlns="http://www.w3.org/2000/svg" width="24" height="24" viewBox="0 0 24 24" fill="none">
  <path fill-rule="evenodd" clip-rule="evenodd" d="M19.8466 5.0692C19.9873 5.20986 20.0664 5.40069 20.0664 5.59968V11.9998C20.0664 15.0776 18.0265 17.5537 16.1531 19.193C14.4846 20.6529 12.8394 21.551 12.4327 21.7645C12.402 21.7806 12.3712 21.7966 12.3403 21.8123L12.3385 21.8132L12.002 21.1429L12.3374 21.8137C12.1262 21.9193 11.8772 21.919 11.6661 21.8135L11.6636 21.8123L11.6581 21.8094C11.629 21.7946 11.6 21.7797 11.5712 21.7645C11.1645 21.551 9.51935 20.6529 7.85085 19.193C5.97742 17.5537 3.9375 15.0776 3.9375 11.9998V5.59968C3.9375 5.40069 4.01658 5.20986 4.15732 5.0692C4.29803 4.92857 4.48884 4.84961 4.68777 4.84968L4.69215 4.84967L4.70911 4.8496C4.72453 4.8495 4.74803 4.84931 4.77883 4.84891C4.84046 4.8481 4.93117 4.84644 5.04474 4.84306C5.27227 4.83628 5.58952 4.82263 5.94718 4.79523C6.68037 4.73906 7.51666 4.62957 8.10583 4.43159C8.79475 4.20009 9.63467 3.68313 10.3396 3.18568C10.6834 2.94306 10.9798 2.71612 11.19 2.55002L11.1917 2.54873C11.5861 2.237 12.021 1.89334 12.5065 2.30111C12.6044 2.38297 13.0631 2.76143 13.6643 3.18568C14.3692 3.68313 15.2092 4.20009 15.8981 4.43159C16.4872 4.62957 17.3235 4.73906 18.0567 4.79523C18.4756 4.82732 18.8959 4.84892 19.3161 4.84968C19.515 4.8496 19.7059 4.92856 19.8466 5.0692ZM16.0636 10.1049C16.3575 9.81306 16.3592 9.33819 16.0673 9.04427C15.7755 8.75036 15.3006 8.74871 15.0067 9.04058L10.689 13.3283L9.06364 11.7142C8.76972 11.4223 8.29485 11.424 8.00298 11.7179C7.71111 12.0118 7.71277 12.4867 8.00668 12.7785L10.1605 14.9174C10.453 15.2079 10.925 15.2079 11.2175 14.9174L16.0636 10.1049Z" fill="#16191D"/>
</svg>