<svg width="24" height="24" viewBox="0 0 24 24" fill="none" xmlns="http://www.w3.org/2000/svg">
<path d="M11.5434 4.64636C11.7995 4.4701 12.1377 4.47009 12.3938 4.64635L18.4764 8.83284L18.4764 19.2216C18.4764 19.3596 18.3645 19.4716 18.2264 19.4716H15.1715C15.0754 19.4716 14.9975 19.3938 14.9973 19.2977L14.9904 16C14.987 14.3507 13.649 13.0155 11.9997 13.0155C10.3455 13.0155 9.00546 14.3583 9.0089 16.0125L9.01573 19.3008C9.01593 19.3951 8.93959 19.4716 8.84534 19.4716H5.77741C5.63934 19.4716 5.52741 19.3596 5.52741 19.2216L5.52741 8.78715L11.5434 4.64636ZM4.02741 9.8196L3.4253 10.234C3.0841 10.4689 2.61712 10.3827 2.38227 10.0415C2.14742 9.70026 2.23364 9.23328 2.57484 8.99843L10.6929 3.41076C11.4612 2.88197 12.476 2.88196 13.2443 3.41074L21.3627 8.99843C21.7039 9.23327 21.7901 9.70025 21.5553 10.0415C21.3204 10.3827 20.8535 10.4689 20.5123 10.234L19.9764 9.86525L19.9764 19.2216C19.9764 20.1881 19.1929 20.9716 18.2264 20.9716H15.1715C14.2482 20.9716 13.4992 20.2241 13.4973 19.3008L13.4904 16.0031C13.4887 15.181 12.8218 14.5155 11.9997 14.5155C11.1751 14.5155 10.5072 15.1848 10.5089 16.0093L10.5157 19.2977C10.5176 20.2216 9.76923 20.9716 8.84534 20.9716H5.77741C4.81092 20.9716 4.02741 20.1881 4.02741 19.2216L4.02741 9.8196Z" fill="#16191D"/>
<path d="M12.3938 4.64635C12.1377 4.47009 11.7995 4.4701 11.5434 4.64636L5.52741 8.78715L5.52741 19.2216C5.52741 19.3596 5.63934 19.4716 5.77741 19.4716H8.84534C8.93959 19.4716 9.01593 19.3951 9.01573 19.3008L9.0089 16.0125C9.00546 14.3583 10.3455 13.0155 11.9997 13.0155C13.649 13.0155 14.987 14.3507 14.9904 16L14.9973 19.2977C14.9975 19.3938 15.0754 19.4716 15.1715 19.4716H18.2264C18.3645 19.4716 18.4764 19.3596 18.4764 19.2216L18.4764 8.83284L12.3938 4.64635Z" fill="#16191D"/>
</svg>
