<svg width="24" height="24" viewBox="0 0 24 24" fill="none" xmlns="http://www.w3.org/2000/svg">
<path d="M15.8181 3.87501C13.9966 2.99168 11.9252 2.76725 9.9568 3.23995C7.98841 3.71265 6.24481 4.85325 5.0231 6.46739C4.21134 7.53989 3.66497 8.77715 3.41217 10.0792C3.33323 10.4858 3.59886 10.8795 4.00548 10.9584C4.4121 11.0374 4.80573 10.7717 4.88468 10.3651C5.09431 9.2854 5.54714 8.2605 6.21914 7.37264C7.23141 6.03521 8.67611 5.09015 10.3071 4.69848C11.938 4.30681 13.6543 4.49277 15.1635 5.22468C16.4762 5.86126 17.3047 6.99255 18.3157 8.3731L18.4091 8.50064H16.0427C15.6285 8.50064 15.2927 8.83642 15.2927 9.25064C15.2927 9.66485 15.6285 10.0006 16.0427 10.0006H20.2854C20.6996 10.0006 21.0354 9.66485 21.0354 9.25064V5.008C21.0354 4.59378 20.6996 4.258 20.2854 4.258C19.8712 4.258 19.5354 4.59378 19.5354 5.008V7.49793L19.5189 7.47533C18.5447 6.13644 17.4887 4.68517 15.8181 3.87501Z" fill="#16191D"/>
<path d="M14.0881 20.7522C12.1197 21.2249 10.0483 21.0005 8.22683 20.1172C6.55625 19.307 5.50022 17.8558 4.52596 16.5169C4.52048 16.5093 4.51501 16.5018 4.50954 16.4943L4.50954 18.9842C4.50954 19.3984 4.17375 19.7342 3.75954 19.7342C3.34533 19.7342 3.00954 19.3984 3.00954 18.9842V14.7416C3.00954 14.3273 3.34533 13.9916 3.75954 13.9916H8.00218C8.4164 13.9916 8.75218 14.3273 8.75218 14.7416C8.75218 15.1558 8.41639 15.4916 8.00218 15.4916H5.63579C5.667 15.5341 5.69802 15.5765 5.72887 15.6186C6.73989 16.9992 7.5687 18.1309 8.88135 18.7675C10.3906 19.4994 12.1069 19.6854 13.7378 19.2937C15.3688 18.902 16.8135 17.957 17.8258 16.6195C18.502 15.7261 18.9576 14.6947 19.1657 13.6088C19.2437 13.202 19.6367 12.9354 20.0435 13.0134C20.4503 13.0914 20.7169 13.4844 20.6389 13.8912C20.3877 15.202 19.8377 16.4468 19.0218 17.5248C17.8001 19.1389 16.0565 20.2795 14.0881 20.7522Z" fill="#16191D"/>
</svg>
