<svg width="24" height="24" viewBox="0 0 24 24" fill="none" xmlns="http://www.w3.org/2000/svg">
<path d="M6.00977 8.5C6.56205 8.5 7.00977 8.05228 7.00977 7.5C7.00977 6.94772 6.56205 6.5 6.00977 6.5C5.45748 6.5 5.00977 6.94772 5.00977 7.5C5.00977 8.05228 5.45748 8.5 6.00977 8.5Z" fill="#16191D"/>
<path d="M9.26013 6.75C8.84592 6.75 8.51013 7.08579 8.51013 7.5C8.51013 7.91421 8.84592 8.25 9.26013 8.25H18.2605C18.6747 8.25 19.0105 7.91421 19.0105 7.5C19.0105 7.08579 18.6747 6.75 18.2605 6.75H9.26013Z" fill="#16191D"/>
<path d="M9.26013 11.25C8.84592 11.25 8.51013 11.5858 8.51013 12C8.51013 12.4142 8.84592 12.75 9.26013 12.75H18.2605C18.6747 12.75 19.0105 12.4142 19.0105 12C19.0105 11.5858 18.6747 11.25 18.2605 11.25H9.26013Z" fill="#16191D"/>
<path d="M8.51013 16.5C8.51013 16.0858 8.84592 15.75 9.26013 15.75H18.2605C18.6747 15.75 19.0105 16.0858 19.0105 16.5C19.0105 16.9142 18.6747 17.25 18.2605 17.25H9.26013C8.84592 17.25 8.51013 16.9142 8.51013 16.5Z" fill="#16191D"/>
<path d="M7.00977 12C7.00977 12.5523 6.56205 13 6.00977 13C5.45748 13 5.00977 12.5523 5.00977 12C5.00977 11.4477 5.45748 11 6.00977 11C6.56205 11 7.00977 11.4477 7.00977 12Z" fill="#16191D"/>
<path d="M6.00977 17.5C6.56205 17.5 7.00977 17.0523 7.00977 16.5C7.00977 15.9477 6.56205 15.5 6.00977 15.5C5.45748 15.5 5.00977 15.9477 5.00977 16.5C5.00977 17.0523 5.45748 17.5 6.00977 17.5Z" fill="#16191D"/>
</svg>
