<svg width="24" height="24" viewBox="0 0 24 24" fill="none" xmlns="http://www.w3.org/2000/svg">
<path d="M12 2.00049C6.47715 2.00049 2 6.47764 2 12.0005C2 17.5233 6.47715 22.0005 12 22.0005C17.5228 22.0005 22 17.5233 22 12.0005C22 6.47764 17.5228 2.00049 12 2.00049ZM12 7.25049C12.4142 7.25049 12.75 7.58627 12.75 8.00049V11.2505H16C16.4142 11.2505 16.75 11.5863 16.75 12.0005C16.75 12.4147 16.4142 12.7505 16 12.7505H12.75V16.0005C12.75 16.4147 12.4142 16.7505 12 16.7505C11.5858 16.7505 11.25 16.4147 11.25 16.0005V12.7505H8C7.58579 12.7505 7.25 12.4147 7.25 12.0005C7.25 11.5863 7.58579 11.2505 8 11.2505H11.25V8.00049C11.25 7.58627 11.5858 7.25049 12 7.25049Z" fill="#16191D"/>
</svg>
