<svg width="24" height="24" viewBox="0 0 24 24" fill="none" xmlns="http://www.w3.org/2000/svg">
<path d="M8.07891 4.17749C8.32421 3.47497 8.98696 3.00439 9.73108 3.00439L16.2198 3.0044C17.5293 3.0044 18.3748 4.38981 17.7762 5.55442L14.8467 11.2537H17.2703C18.3903 11.2537 18.9451 12.6135 18.1447 13.397L10.6182 20.7643C9.75958 21.6047 8.32539 20.8681 8.50837 19.6807L9.57579 12.7537H6.84477C5.9841 12.7537 5.38092 11.9042 5.66465 11.0916L8.07891 4.17749ZM9.73108 4.50439C9.62478 4.50439 9.5301 4.57162 9.49506 4.67198L7.19687 11.2537H9.86726C10.6335 11.2537 11.2194 11.9368 11.1027 12.6941L10.1052 19.1675L16.6575 12.7537H14.4371C13.5018 12.7537 12.8978 11.7641 13.3254 10.9323L16.4421 4.86869C16.5277 4.70232 16.4069 4.5044 16.2198 4.5044L9.73108 4.50439Z" fill="#16191D"/>
<path d="M9.49506 4.67198C9.5301 4.57162 9.62478 4.50439 9.73108 4.50439L16.2198 4.5044C16.4069 4.5044 16.5277 4.70232 16.4421 4.86869L13.3254 10.9323C12.8978 11.7641 13.5018 12.7537 14.4371 12.7537H16.6575L10.1052 19.1675L11.1027 12.6941C11.2194 11.9368 10.6335 11.2537 9.86726 11.2537H7.19687L9.49506 4.67198Z" fill="#16191D"/>
</svg>
