<svg width="21" height="21" viewBox="0 0 21 21" fill="none" xmlns="http://www.w3.org/2000/svg">
<path fill-rule="evenodd" clip-rule="evenodd" d="M6.01356 1.54102H15.9747C16.5263 1.54101 16.9852 1.541 17.3599 1.57161C17.7502 1.6035 18.1145 1.67231 18.4585 1.84756C18.9877 2.1172 19.418 2.54746 19.6876 3.07667C19.8628 3.42061 19.9317 3.78499 19.9636 4.1753C19.9942 4.54994 19.9942 5.00889 19.9941 5.56042V15.5216C19.9942 16.0731 19.9942 16.5321 19.9636 16.9067C19.9317 17.297 19.8628 17.6614 19.6876 18.0054C19.418 18.5346 18.9877 18.9648 18.4585 19.2345C18.1145 19.4097 17.7502 19.4785 17.3599 19.5104C16.9852 19.541 16.5263 19.541 15.9747 19.541H6.01354C5.46201 19.541 5.00307 19.541 4.62842 19.5104C4.23811 19.4785 3.87374 19.4097 3.52979 19.2345C3.00059 18.9648 2.57033 18.5346 2.30069 18.0054C2.12544 17.6614 2.05662 17.297 2.02473 16.9067C1.99412 16.5321 1.99413 16.0731 1.99414 15.5216V5.56044C1.99413 5.0089 1.99412 4.54994 2.02473 4.1753C2.05662 3.78499 2.12544 3.42062 2.30069 3.07667C2.57033 2.54746 3.00059 2.1172 3.52979 1.84756C3.87374 1.67231 4.23811 1.6035 4.62842 1.57161C5.00307 1.541 5.46202 1.54101 6.01356 1.54102ZM4.75057 3.06663C4.45302 3.09094 4.30802 3.13452 4.21078 3.18407C3.96382 3.3099 3.76303 3.51069 3.6372 3.75765C3.58765 3.8549 3.54406 3.9999 3.51975 4.29744C3.49472 4.60375 3.49414 5.00109 3.49414 5.59102V15.491C3.49414 16.0809 3.49472 16.4783 3.51975 16.7846C3.54406 17.0821 3.58765 17.2271 3.6372 17.3244C3.76303 17.5713 3.96382 17.7721 4.21078 17.898C4.30802 17.9475 4.45302 17.9911 4.75057 18.0154C5.05687 18.0404 5.45421 18.041 6.04414 18.041H15.9441C16.5341 18.041 16.9314 18.0404 17.2377 18.0154C17.5353 17.9911 17.6803 17.9475 17.7775 17.898C18.0245 17.7721 18.2253 17.5713 18.3511 17.3244C18.4006 17.2271 18.4442 17.0821 18.4685 16.7846C18.4936 16.4783 18.4941 16.0809 18.4941 15.491V5.59102C18.4941 5.00109 18.4936 4.60375 18.4685 4.29744C18.4442 3.9999 18.4006 3.8549 18.3511 3.75766C18.2253 3.51069 18.0245 3.3099 17.7775 3.18407C17.6803 3.13452 17.5353 3.09094 17.2377 3.06663C16.9314 3.0416 16.5341 3.04102 15.9441 3.04102H6.04414C5.45421 3.04102 5.05687 3.0416 4.75057 3.06663Z" fill="#576175"/>
</svg>
