<svg width="24" height="24" viewBox="0 0 24 24" fill="none" xmlns="http://www.w3.org/2000/svg">
<path d="M7.25 4.5C7.25 3.25736 8.25736 2.25 9.5 2.25H14.5C15.7426 2.25 16.75 3.25736 16.75 4.5V7.25H19.5C20.7426 7.25 21.75 8.25736 21.75 9.5V14.5C21.75 15.7426 20.7426 16.75 19.5 16.75H16.75V19.5C16.75 20.7426 15.7426 21.75 14.5 21.75H9.5C8.25736 21.75 7.25 20.7426 7.25 19.5V16.75H4.5C3.25736 16.75 2.25 15.7426 2.25 14.5L2.25 9.5C2.25 8.25736 3.25736 7.25 4.5 7.25L7.25 7.25V4.5ZM8.75 7.25L12 7.25C12.4142 7.25 12.75 7.58579 12.75 8C12.75 8.41421 12.4142 8.75 12 8.75L4.5 8.75C4.08579 8.75 3.75 9.08579 3.75 9.5L3.75 14.5C3.75 14.9142 4.08579 15.25 4.5 15.25H7.25L7.25 13.5C7.25 12.2574 8.25736 11.25 9.5 11.25H14.5C14.9142 11.25 15.25 10.9142 15.25 10.5V4.5C15.25 4.08579 14.9142 3.75 14.5 3.75H9.5C9.08579 3.75 8.75 4.08579 8.75 4.5V7.25ZM15.25 16.75H12C11.5858 16.75 11.25 16.4142 11.25 16C11.25 15.5858 11.5858 15.25 12 15.25H19.5C19.9142 15.25 20.25 14.9142 20.25 14.5V9.5C20.25 9.08579 19.9142 8.75 19.5 8.75H16.75V10.5C16.75 11.7426 15.7426 12.75 14.5 12.75H9.5C9.08579 12.75 8.75 13.0858 8.75 13.5L8.75 19.5C8.75 19.9142 9.08579 20.25 9.5 20.25H14.5C14.9142 20.25 15.25 19.9142 15.25 19.5V16.75Z" fill="#16191D"/>
<path d="M10.9989 5.24945C10.9989 5.66336 10.6634 5.9989 10.2495 5.9989C9.83554 5.9989 9.5 5.66336 9.5 5.24945C9.5 4.83554 9.83554 4.5 10.2495 4.5C10.6634 4.5 10.9989 4.83554 10.9989 5.24945Z" fill="#16191D"/>
<path d="M14.5 18.7476C14.5 19.1631 14.1631 19.5 13.7476 19.5C13.332 19.5 12.9952 19.1631 12.9952 18.7476C12.9952 18.332 13.332 17.9952 13.7476 17.9952C14.1631 17.9952 14.5 18.332 14.5 18.7476Z" fill="#16191D"/>
</svg>
