<svg width="24" height="24" viewBox="0 0 24 24" fill="none" xmlns="http://www.w3.org/2000/svg">
<path d="M10.2812 17.535C10.574 17.242 10.5738 16.7672 10.2809 16.4744L5.80839 12.0049L10.2809 7.53539C10.5738 7.24259 10.574 6.76772 10.2812 6.47473C9.98841 6.18174 9.51353 6.18158 9.22054 6.47438L4.21722 11.4744C4.07646 11.615 3.99738 11.8059 3.99738 12.0049C3.99738 12.2039 4.07646 12.3947 4.21722 12.5354L9.22054 17.5354C9.51353 17.8282 9.98841 17.828 10.2812 17.535Z" fill="#16191D"/>
<path d="M4.38742 12.0002C4.38742 12.4144 4.72321 12.7502 5.13742 12.7502L19.2464 12.75C19.6606 12.75 19.9964 12.4142 19.9964 12C19.9964 11.5858 19.6606 11.25 19.2464 11.25L5.13741 11.2502C4.72319 11.2502 4.38741 11.5859 4.38742 12.0002Z" fill="#16191D"/>
</svg>
