<svg width="24" height="24" viewBox="0 0 24 24" fill="none" xmlns="http://www.w3.org/2000/svg">
<path d="M12.8912 3.29589C12.4774 2.26583 11.1997 2.16054 10.521 2.86828C10.4348 2.95819 10.3602 3.05858 10.299 3.16709L6.75624 9.45139C6.69188 9.52696 6.64199 9.61523 6.61085 9.71191H4.42969C3.18705 9.71191 2.17969 10.7193 2.17969 11.9619V19.337C2.17969 20.5797 3.18704 21.587 4.42969 21.587H8.78907C8.80077 21.5872 8.81248 21.5873 8.82422 21.5873H16.8896C18.6886 21.5873 20.2342 20.3097 20.5726 18.5427L21.8534 11.8558C22.1191 10.4687 21.0559 9.18256 19.6436 9.18256H13.4371C13.8323 7.20269 13.6388 5.15719 12.8912 3.29589ZM6.70215 20.087H4.42969C4.01547 20.087 3.67969 19.7513 3.67969 19.337V11.9619C3.67969 11.5477 4.01548 11.2119 4.42969 11.2119H6.57422V19.3373C6.57422 19.6002 6.6193 19.8525 6.70215 20.087Z" fill="#16191D"/>
</svg>
