<svg width="24" height="24" viewBox="0 0 24 24" fill="none" xmlns="http://www.w3.org/2000/svg">
<path fill-rule="evenodd" clip-rule="evenodd" d="M10.2809 16.4744C10.5739 16.7672 10.5741 17.242 10.2813 17.535C9.98847 17.828 9.51359 17.8282 9.2206 17.5354L4.21728 12.5354C4.07652 12.3947 3.99744 12.2039 3.99744 12.0049C3.99744 11.8059 4.07652 11.615 4.21728 11.4744L9.2206 6.47438C9.51359 6.18158 9.98847 6.18174 10.2813 6.47473C10.5741 6.76772 10.5739 7.24259 10.2809 7.53539L6.5637 11.2501L19.2464 11.25C19.6607 11.25 19.9964 11.5858 19.9965 12C19.9965 12.4142 19.6607 12.75 19.2465 12.75L6.5542 12.7501L10.2809 16.4744Z" fill="#16191D"/>
</svg>
