<svg width="24" height="24" viewBox="0 0 24 24" fill="none" xmlns="http://www.w3.org/2000/svg">
<path d="M3.41881 5.44446C2.61931 4.46473 3.31643 2.99609 4.58097 2.99609H19.4172C20.683 2.99609 21.3797 4.46729 20.5776 5.44655L14.9971 12.26L14.9997 17.7009C15 18.2875 14.6583 18.8205 14.125 19.065L11.1237 20.4416C10.1314 20.8967 9.00074 20.1731 8.99839 19.0814L8.9837 12.2638L3.41881 5.44446ZM19.4172 4.49609H4.58097L10.1459 11.3154C10.3637 11.5823 10.483 11.9161 10.4837 12.2606L10.4984 19.0781L13.4997 17.7016L13.4971 12.2607C13.497 11.9139 13.617 11.5778 13.8367 11.3095L19.4172 4.49609Z" fill="#16191D"/>
<path d="M4.58097 4.49609H19.4172L13.8367 11.3095C13.617 11.5778 13.497 11.9139 13.4971 12.2607L13.4997 17.7016L10.4984 19.0781L10.4837 12.2606C10.483 11.9161 10.3637 11.5823 10.1459 11.3154L4.58097 4.49609Z" fill="#16191D"/>
</svg>
