<svg width="24" height="24" viewBox="0 0 24 24" fill="none" xmlns="http://www.w3.org/2000/svg">
<path fill-rule="evenodd" clip-rule="evenodd" d="M5.5382 6.47752C4.26745 7.963 3.5 9.89188 3.5 12C3.5 14.0669 4.23772 15.9615 5.46422 17.4348L7.68866 15.2104C7.02052 14.3146 6.625 13.2035 6.625 12C6.625 10.7545 7.04862 9.60797 7.75963 8.69659C7.74706 8.68559 7.73477 8.6741 7.72279 8.66211L5.5382 6.47752ZM6.60954 5.42754L8.78345 7.60145C8.80114 7.61914 8.81776 7.63749 8.83331 7.65642C9.72144 7.00781 10.816 6.625 12 6.625C13.2062 6.625 14.3196 7.02232 15.2165 7.69323C15.2397 7.66102 15.2659 7.63023 15.2949 7.60124L17.4332 5.46289C15.9601 4.23719 14.0661 3.5 12 3.5C9.95379 3.5 8.07646 4.22303 6.60954 5.42754ZM18.4977 6.51974L16.3555 8.6619C16.3286 8.68886 16.3001 8.71333 16.2703 8.73533C16.9633 9.64036 17.375 10.7721 17.375 12C17.375 13.1827 16.993 14.2763 16.3456 15.1639C16.3499 15.168 16.3541 15.1721 16.3583 15.1763L18.5725 17.3905C19.777 15.9235 20.5 14.0462 20.5 12C20.5 9.9118 19.747 7.99947 18.4977 6.51974ZM17.5225 18.4618L15.3021 16.2414C14.3909 16.9518 13.2449 17.375 12 17.375C10.7759 17.375 9.64731 16.9658 8.74367 16.2767L6.52133 18.499C8.00084 19.7475 9.91254 20.5 12 20.5C14.1081 20.5 16.037 19.7326 17.5225 18.4618ZM2 12C2 6.47715 6.47715 2 12 2C17.5228 2 22 6.47715 22 12C22 17.5228 17.5228 22 12 22C6.47715 22 2 17.5228 2 12ZM12 8.125C9.8599 8.125 8.125 9.8599 8.125 12C8.125 14.1401 9.8599 15.875 12 15.875C14.1401 15.875 15.875 14.1401 15.875 12C15.875 9.8599 14.1401 8.125 12 8.125Z" fill="#16191D"/>
</svg>
