<svg width="24" height="24" viewBox="0 0 24 24" fill="none" xmlns="http://www.w3.org/2000/svg">
<path d="M8.99939 7.49969C8.99939 8.32795 8.32795 8.99939 7.49969 8.99939C6.67144 8.99939 6 8.32795 6 7.49969C6 6.67144 6.67144 6 7.49969 6C8.32795 6 8.99939 6.67144 8.99939 7.49969Z" fill="#16191D"/>
<path d="M8.99939 11.9987C8.99939 12.827 8.32795 13.4984 7.49969 13.4984C6.67144 13.4984 6 12.827 6 11.9987C6 11.1705 6.67144 10.499 7.49969 10.499C8.32795 10.499 8.99939 11.1705 8.99939 11.9987Z" fill="#16191D"/>
<path d="M7.49969 17.9984C8.32795 17.9984 8.99939 17.327 8.99939 16.4987C8.99939 15.6705 8.32795 14.999 7.49969 14.999C6.67144 14.999 6 15.6705 6 16.4987C6 17.327 6.67144 17.9984 7.49969 17.9984Z" fill="#16191D"/>
<path d="M13.4988 11.9987C13.4988 12.827 12.8273 13.4984 11.9991 13.4984C11.1708 13.4984 10.4994 12.827 10.4994 11.9987C10.4994 11.1705 11.1708 10.499 11.9991 10.499C12.8273 10.499 13.4988 11.1705 13.4988 11.9987Z" fill="#16191D"/>
<path d="M11.9991 8.99939C12.8273 8.99939 13.4988 8.32795 13.4988 7.49969C13.4988 6.67144 12.8273 6 11.9991 6C11.1708 6 10.4994 6.67144 10.4994 7.49969C10.4994 8.32795 11.1708 8.99939 11.9991 8.99939Z" fill="#16191D"/>
<path d="M13.4988 16.4987C13.4988 17.327 12.8273 17.9984 11.9991 17.9984C11.1708 17.9984 10.4994 17.327 10.4994 16.4987C10.4994 15.6705 11.1708 14.999 11.9991 14.999C12.8273 14.999 13.4988 15.6705 13.4988 16.4987Z" fill="#16191D"/>
<path d="M16.4985 13.4984C17.3267 13.4984 17.9982 12.827 17.9982 11.9987C17.9982 11.1705 17.3267 10.499 16.4985 10.499C15.6702 10.499 14.9988 11.1705 14.9988 11.9987C14.9988 12.827 15.6702 13.4984 16.4985 13.4984Z" fill="#16191D"/>
<path d="M17.9982 7.49969C17.9982 8.32795 17.3267 8.99939 16.4985 8.99939C15.6702 8.99939 14.9988 8.32795 14.9988 7.49969C14.9988 6.67144 15.6702 6 16.4985 6C17.3267 6 17.9982 6.67144 17.9982 7.49969Z" fill="#16191D"/>
<path d="M16.4985 17.9984C17.3267 17.9984 17.9982 17.327 17.9982 16.4987C17.9982 15.6705 17.3267 14.999 16.4985 14.999C15.6702 14.999 14.9988 15.6705 14.9988 16.4987C14.9988 17.327 15.6702 17.9984 16.4985 17.9984Z" fill="#16191D"/>
</svg>
