<svg width="24" height="24" viewBox="0 0 24 24" fill="none" xmlns="http://www.w3.org/2000/svg">
<path d="M9.5 2.25C8.25736 2.25 7.25 3.25736 7.25 4.5V5.75L12 5.75C12.4142 5.75 12.75 6.08579 12.75 6.5C12.75 6.91421 12.4142 7.25 12 7.25L4.4976 7.25C3.25606 7.2513 2.25 8.25816 2.25 9.5V14.5C2.25 15.7426 3.25736 16.75 4.5 16.75H5.75L5.75 13.5C5.75 12.2574 6.75736 11.25 8 11.25H16C16.4142 11.25 16.75 10.9142 16.75 10.5V4.5C16.75 3.25736 15.7426 2.25 14.5 2.25H9.5ZM9.7489 3.99945C9.7489 4.41336 9.41336 4.7489 8.99945 4.7489C8.58554 4.7489 8.25 4.41336 8.25 3.99945C8.25 3.58554 8.58554 3.25 8.99945 3.25C9.41336 3.25 9.7489 3.58554 9.7489 3.99945Z" fill="#16191D"/>
<path d="M18.25 7.25V10.5C18.25 11.7426 17.2426 12.75 16 12.75H8C7.58579 12.75 7.25 13.0858 7.25 13.5L7.25 19.5C7.25 20.7426 8.25736 21.75 9.5 21.75H14.5C15.7426 21.75 16.75 20.7426 16.75 19.5V18.25H12C11.5858 18.25 11.25 17.9142 11.25 17.5C11.25 17.0858 11.5858 16.75 12 16.75H19.5C20.7426 16.75 21.75 15.7426 21.75 14.5V9.5C21.75 8.25736 20.7426 7.25 19.5 7.25H18.25ZM14.9937 20.75C14.5782 20.75 14.2413 20.4131 14.2413 19.9976C14.2413 19.5821 14.5782 19.2452 14.9937 19.2452C15.4093 19.2452 15.7461 19.5821 15.7461 19.9976C15.7461 20.4131 15.4093 20.75 14.9937 20.75Z" fill="#16191D"/>
</svg>
