<svg width="24" height="24" viewBox="0 0 24 24" fill="none" xmlns="http://www.w3.org/2000/svg">
<path d="M20.7739 10.4746C21.0668 10.7675 21.0668 11.2423 20.7739 11.5352L16.7739 15.5353C16.481 15.8282 16.0062 15.8282 15.7133 15.5353C15.4204 15.2424 15.4204 14.7675 15.7133 14.4746L18.4328 11.7551H6.76594C5.5233 11.7551 4.51593 12.7624 4.51593 14.0051V17.0782C4.51593 17.4924 4.18015 17.8282 3.76593 17.8282C3.35172 17.8282 3.01593 17.4924 3.01593 17.0782V14.0051C3.01593 11.934 4.69487 10.2551 6.76594 10.2551H18.4331L15.7133 7.53521C15.4204 7.24232 15.4204 6.76744 15.7133 6.47455C16.0062 6.18166 16.481 6.18166 16.7739 6.47456L20.7739 10.4746Z" fill="#16191D"/>
</svg>
