<svg width="24" height="24" viewBox="0 0 24 24" fill="none" xmlns="http://www.w3.org/2000/svg">
<path d="M18.0328 6.47076C18.3256 6.76375 18.3254 7.23863 18.0324 7.53142L13.56 12.0009L18.0324 16.4704C18.3254 16.7632 18.3256 17.2381 18.0328 17.5311C17.74 17.824 17.2651 17.8242 16.9721 17.5314L11.9688 12.5314C11.8281 12.3908 11.749 12.1999 11.749 12.0009C11.749 11.8019 11.8281 11.6111 11.9688 11.4704L16.9721 6.47041C17.2651 6.17762 17.74 6.17777 18.0328 6.47076ZM12.0316 6.46985C12.3244 6.76284 12.3243 7.23771 12.0313 7.53051L7.5588 12L12.0313 16.4695C12.3243 16.7623 12.3244 17.2372 12.0316 17.5302C11.7388 17.8231 11.2639 17.8233 10.971 17.5305L5.96763 12.5305C5.82687 12.3898 5.74779 12.199 5.74779 12C5.74779 11.801 5.82687 11.6102 5.96763 11.4695L10.971 6.46949C11.2639 6.1767 11.7388 6.17686 12.0316 6.46985Z" fill="#16191D"/>
</svg>
