<svg width="24" height="24" viewBox="0 0 24 24" fill="none" xmlns="http://www.w3.org/2000/svg">
<path d="M21 16.8317V7.16927C21 6.63581 21 6.18911 20.9693 5.82392C20.9371 5.44217 20.8674 5.08292 20.6891 4.74365C20.4163 4.22445 19.9833 3.80658 19.4561 3.54607C19.1142 3.37715 18.7524 3.31086 18.3639 3.28008C17.9902 3.25047 17.532 3.25048 16.9798 3.25049L7.0202 3.25049C6.468 3.25048 6.00983 3.25047 5.63612 3.28008C5.2476 3.31086 4.8858 3.37715 4.54392 3.54607C4.01667 3.80658 3.58369 4.22445 3.31088 4.74365C3.13261 5.08292 3.06291 5.44217 3.03075 5.82392C2.99998 6.18912 2.99999 6.6358 3 7.16928L3 16.8317C2.99999 17.3652 2.99998 17.8119 3.03075 18.1771C3.06291 18.5588 3.1326 18.9181 3.31088 19.2573C3.58369 19.7765 4.01667 20.1944 4.54392 20.4549C4.8858 20.6238 5.2476 20.6901 5.63612 20.7209C6.00983 20.7505 6.46797 20.7505 7.02016 20.7505H16.9798C17.532 20.7505 17.9902 20.7505 18.3639 20.7209C18.7524 20.6901 19.1142 20.6238 19.4561 20.4549C19.9833 20.1944 20.4163 19.7765 20.6891 19.2573C20.8674 18.9181 20.9371 18.5588 20.9693 18.1771C21 17.8119 21 17.3652 21 16.8317ZM16.75 12.0005C16.75 12.4147 16.4142 12.7505 16 12.7505H12.75V16.0005C12.75 16.4147 12.4142 16.7505 12 16.7505C11.5858 16.7505 11.25 16.4147 11.25 16.0005V12.7505L8 12.7505C7.58579 12.7505 7.25 12.4147 7.25 12.0005C7.25 11.5863 7.58579 11.2505 8 11.2505L11.25 11.2505V8.00049C11.25 7.58628 11.5858 7.25049 12 7.25049C12.4142 7.25049 12.75 7.58628 12.75 8.00049V11.2505H16C16.4142 11.2505 16.75 11.5863 16.75 12.0005Z" fill="#16191D"/>
</svg>
