<svg width="24" height="24" viewBox="0 0 24 24" fill="none" xmlns="http://www.w3.org/2000/svg">
<path fill-rule="evenodd" clip-rule="evenodd" d="M16.2422 2.01221C14.1711 2.01221 12.4922 3.69114 12.4922 5.76221C12.4922 6.16734 12.5564 6.55746 12.6753 6.92295L8.4309 9.37345C7.75038 8.67981 6.80239 8.24951 5.75391 8.24951C3.68284 8.24951 2.00391 9.92844 2.00391 11.9995C2.00391 14.0706 3.68284 15.7495 5.75391 15.7495C6.73859 15.7495 7.63464 15.37 8.30374 14.7492L12.6084 17.2345C12.5325 17.5319 12.4922 17.8435 12.4922 18.1646C12.4922 20.2356 14.1711 21.9146 16.2422 21.9146C18.3133 21.9146 19.9922 20.2356 19.9922 18.1646C19.9922 16.0935 18.3133 14.4146 16.2422 14.4146C15.0298 14.4146 13.9519 14.9899 13.2664 15.8824L9.18117 13.5238C9.38861 13.0581 9.50391 12.5422 9.50391 11.9995C9.50391 11.5177 9.41305 11.0572 9.24754 10.634L13.4162 8.22726C14.1036 9.0147 15.1148 9.51221 16.2422 9.51221C18.3133 9.51221 19.9922 7.83327 19.9922 5.76221C19.9922 3.69114 18.3133 2.01221 16.2422 2.01221Z" fill="#16191D"/>
</svg>
