<svg width="24" height="24" viewBox="0 0 24 24" fill="none" xmlns="http://www.w3.org/2000/svg">
<path fill-rule="evenodd" clip-rule="evenodd" d="M6.46679 13.7205C6.75978 13.4277 7.23466 13.4278 7.52745 13.7208L11.9969 18.1933L16.4664 13.7208C16.7592 13.4278 17.2341 13.4277 17.5271 13.7205C17.8201 14.0133 17.8203 14.4881 17.5275 14.7811L12.5275 19.7845C12.3868 19.9252 12.1959 20.0043 11.9969 20.0043C11.7979 20.0043 11.6071 19.9252 11.4664 19.7845L6.46644 14.7811C6.17365 14.4881 6.1738 14.0133 6.46679 13.7205Z" fill="#16191D"/>
<path fill-rule="evenodd" clip-rule="evenodd" d="M12.002 19.6143C11.5878 19.6143 11.252 19.2785 11.252 18.8642L11.2522 4.75528C11.2522 4.34106 11.588 4.00528 12.0022 4.00528C12.4164 4.00529 12.7522 4.34108 12.7522 4.75529L12.752 18.8643C12.752 19.2785 12.4163 19.6143 12.002 19.6143Z" fill="#16191D"/>
</svg>
