<svg width="24" height="24" viewBox="0 0 24 24" fill="none" xmlns="http://www.w3.org/2000/svg">
<path d="M12 22C17.5228 22 22 17.5228 22 12C22 6.47715 17.5228 2 12 2C6.47715 2 2 6.47715 2 12C2 17.5228 6.47715 22 12 22ZM4.06242 12.9974C3.99356 12.4494 4.44772 12 5 12L11 12C11.5523 12 12 11.5523 12 11L12 5C12 4.44771 12.4494 3.99356 12.9974 4.06242C14.2262 4.21683 15.4072 4.65513 16.4446 5.34824C17.7602 6.22729 18.7855 7.47672 19.391 8.93853C19.9965 10.4003 20.155 12.0089 19.8463 13.5607C19.5376 15.1126 18.7757 16.538 17.6569 17.6569C16.538 18.7757 15.1126 19.5376 13.5607 19.8463C12.0089 20.155 10.4003 19.9965 8.93853 19.391C7.47672 18.7855 6.22729 17.7602 5.34824 16.4446C4.65513 15.4072 4.21683 14.2262 4.06242 12.9974Z" fill="black"/>
</svg>
