<svg width="24" height="24" viewBox="0 0 24 24" fill="none" xmlns="http://www.w3.org/2000/svg">
<path d="M16.4664 10.2888C16.7592 10.5818 17.2341 10.582 17.5271 10.2892C17.8201 9.9964 17.8203 9.52153 17.5275 9.22854L12.5275 4.22522C12.3868 4.08446 12.1959 4.00537 11.9969 4.00537C11.7979 4.00537 11.6071 4.08446 11.4664 4.22522L6.46644 9.22854C6.17365 9.52153 6.1738 9.9964 6.46679 10.2892C6.75978 10.582 7.23466 10.5818 7.52745 10.2888L11.2418 6.572L11.2417 19.2544C11.2417 19.6686 11.5775 20.0044 11.9917 20.0044C12.4059 20.0044 12.7417 19.6686 12.7417 19.2544L12.7418 6.56177L16.4664 10.2888Z" fill="#16191D"/>
</svg>
