<svg width="24" height="24" viewBox="0 0 24 24" fill="none" xmlns="http://www.w3.org/2000/svg">
<path fill-rule="evenodd" clip-rule="evenodd" d="M19.8446 5.0692C19.7039 4.92856 19.5131 4.8496 19.3141 4.84968C18.8939 4.84892 18.4737 4.82732 18.0548 4.79523C17.3216 4.73906 16.4853 4.62957 15.8961 4.43159C15.2072 4.20009 14.3673 3.68313 13.6624 3.18568C13.0612 2.76143 12.6025 2.38297 12.5046 2.30111C12.0184 1.89278 11.583 2.23795 11.1881 2.55002C10.9779 2.71612 10.6815 2.94306 10.3376 3.18568C9.63272 3.68313 8.7928 4.20009 8.10387 4.43159C7.51471 4.62957 6.67841 4.73906 5.94523 4.79523C5.58757 4.82263 5.27031 4.83628 5.04279 4.84306C4.92922 4.84644 4.83851 4.8481 4.77688 4.84891C4.74607 4.84931 4.72257 4.8495 4.70715 4.8496L4.6902 4.84967L4.68582 4.84968C4.48689 4.84961 4.29608 4.92857 4.15537 5.0692C4.01462 5.20986 3.93555 5.40069 3.93555 5.59968V11.9998C3.93555 15.0776 5.97547 17.5537 7.8489 19.193C9.5174 20.6529 11.1626 21.551 11.5692 21.7645C11.5981 21.7797 11.6271 21.7946 11.6561 21.8094L11.6617 21.8123L11.6641 21.8135L12 21.1429L12.3365 21.8132L12.3383 21.8123C12.3693 21.7966 12.4001 21.7806 12.4308 21.7645C12.8374 21.551 14.4826 20.6529 16.1511 19.193C18.0245 17.5537 20.0645 15.0776 20.0645 11.9998V5.59968C20.0645 5.40069 19.9854 5.20986 19.8446 5.0692ZM12 3.81952C11.7865 3.98577 11.5128 4.19226 11.2025 4.41124C10.478 4.92255 9.48926 5.54847 8.58167 5.85346C7.80646 6.11396 6.81414 6.23306 6.05981 6.29084C5.83272 6.30824 5.62115 6.32048 5.43555 6.3291V11.9998C5.43555 14.4079 7.05285 16.5033 8.83665 18.0641C10.1136 19.1814 11.4049 19.9592 12 20.2916C12.595 19.9592 13.8864 19.1814 15.1633 18.0641C16.9471 16.5033 18.5645 14.4079 18.5645 11.9998V6.3291C18.3789 6.32048 18.1673 6.30824 17.9402 6.29084C17.1859 6.23306 16.1935 6.11396 15.4183 5.85346C14.5107 5.54847 13.522 4.92255 12.7975 4.41124C12.4872 4.19226 12.2135 3.98577 12 3.81952Z" fill="#16191D"/>
<path fill-rule="evenodd" clip-rule="evenodd" d="M11.6641 21.8135L12 21.1429L12.3354 21.8137C12.1243 21.9193 11.8753 21.919 11.6641 21.8135Z" fill="#16191D"/>
</svg>
