<svg width="24" height="24" viewBox="0 0 24 24" fill="none" xmlns="http://www.w3.org/2000/svg">
<path d="M6.10597 3.18086C7.64888 2.66656 9.73268 2.36133 12 2.36133C14.2673 2.36133 16.3511 2.66656 17.894 3.18086C18.6616 3.43671 19.3368 3.75788 19.8356 4.15095C20.3259 4.53735 20.75 5.08151 20.75 5.778V18.2224C20.75 18.9171 20.3304 19.4615 19.8408 19.8494C19.3437 20.2433 18.6704 20.5647 17.9042 20.8205C16.3639 21.3347 14.2798 21.6391 12 21.6391C9.7202 21.6391 7.6361 21.3347 6.09583 20.8205C5.32958 20.5647 4.65627 20.2433 4.1592 19.8494C3.66962 19.4615 3.25 18.9171 3.25 18.2224V5.778C3.25 5.29084 3.4575 4.87822 3.75 4.54197V4.38539L3.93599 4.34819C4.00948 4.27843 4.08612 4.21268 4.16445 4.15095C4.66321 3.75788 5.33844 3.43671 6.10597 3.18086ZM4.75 7.79196V12.0002C4.75 12.0433 4.77483 12.2012 5.0908 12.4516C5.39928 12.696 5.89264 12.9491 6.57083 13.1755C7.91946 13.6257 9.83535 13.9169 12 13.9169C14.1646 13.9169 16.0805 13.6257 17.4292 13.1755C18.1074 12.9491 18.6007 12.696 18.9092 12.4516C19.2252 12.2012 19.25 12.0433 19.25 12.0002V7.79196C18.8524 8.01512 18.3927 8.20891 17.894 8.37513C16.3511 8.88943 14.2673 9.19466 12 9.19466C9.73268 9.19466 7.64888 8.88943 6.10597 8.37513C5.60733 8.20891 5.14765 8.01512 4.75 7.79196ZM5.25 5.61509L11.9948 4.26612L18.424 5.64383L18.5198 5.93143L12 7.23539L5.25 5.88539V5.61509ZM19.25 14.0188C18.8551 14.2405 18.399 14.4331 17.9042 14.5983C16.3639 15.1125 14.2798 15.4169 12 15.4169C9.7202 15.4169 7.6361 15.1125 6.09583 14.5983C5.60098 14.4331 5.14489 14.2405 4.75 14.0188V18.2224C4.75 18.2655 4.77483 18.4234 5.0908 18.6738C5.39928 18.9182 5.89264 19.1713 6.57083 19.3977C7.91946 19.8479 9.83535 20.1391 12 20.1391C14.1646 20.1391 16.0805 19.8479 17.4292 19.3977C18.1074 19.1713 18.6007 18.9182 18.9092 18.6738C19.2252 18.4234 19.25 18.2655 19.25 18.2224V14.0188Z" fill="#16191D"/>
</svg>
