<svg width="24" height="24" viewBox="0 0 24 24" fill="none" xmlns="http://www.w3.org/2000/svg">
<path d="M5.5 3.50049H18.5C18.9142 3.50049 19.25 3.83627 19.25 4.25049V19.7505C19.25 20.1647 18.9142 20.5005 18.5 20.5005H5.5C5.08579 20.5005 4.75 20.1647 4.75 19.7505V4.25049C4.75 3.83627 5.08579 3.50049 5.5 3.50049ZM5.5 2.00049C4.25736 2.00049 3.25 3.00785 3.25 4.25049V19.7505C3.25 20.9931 4.25736 22.0005 5.5 22.0005H18.5C19.7426 22.0005 20.75 20.9931 20.75 19.7505V4.25049C20.75 3.00785 19.7426 2.00049 18.5 2.00049H5.5Z" fill="#16191D"/>
<path d="M8.75 3.75024V9.18958L9.39896 8.54062C9.7309 8.20868 10.2691 8.20868 10.601 8.54062L11.25 9.18958V3.75024H8.75ZM7.25 3.10024C7.25 2.6308 7.63056 2.25024 8.1 2.25024H11.9C12.3694 2.25024 12.75 2.6308 12.75 3.10024V10.7588C12.75 11.5161 11.8344 11.8953 11.299 11.3599L10 10.0609L8.70104 11.3599L8.17071 10.8295L8.1 10.7588M8.17071 10.8295L8.70104 11.3599C8.16557 11.8953 7.25 11.5161 7.25 10.7588V3.10024" fill="#16191D"/>
</svg>
