<svg width="24" height="24" viewBox="0 0 24 24" fill="none" xmlns="http://www.w3.org/2000/svg">
<path d="M13.4286 4.00049C13.4286 3.84269 13.3007 3.71477 13.1429 3.71477H6.28571C6.12792 3.71477 6 3.84269 6 4.00049V20.2862H13.1429C13.3007 20.2862 13.4286 20.1583 13.4286 20.0005V4.00049ZM15.1429 4.2862H17.7143C18.8189 4.2862 19.7143 5.18163 19.7143 6.2862V20.0005C19.7143 20.1583 19.8422 20.2862 20 20.2862H21.1429C21.6162 20.2862 22 20.67 22 21.1433C22 21.6167 21.6162 22.0005 21.1429 22.0005H20C18.8954 22.0005 18 21.1051 18 20.0005V6.2862C18 6.12841 17.8721 6.00049 17.7143 6.00049H15.1429V20.0005C15.1429 21.1051 14.2474 22.0005 13.1429 22.0005H2.85714C2.38376 22.0005 2 21.6167 2 21.1433C2 20.67 2.38376 20.2862 2.85714 20.2862H4.28571V4.00049C4.28571 2.89592 5.18115 2.00049 6.28571 2.00049H13.1429C14.2474 2.00049 15.1429 2.89592 15.1429 4.00049V4.2862Z" fill="#16191D"/>
<path d="M12 12.0005C12 12.6317 11.4883 13.1433 10.8571 13.1433C10.226 13.1433 9.71429 12.6317 9.71429 12.0005C9.71429 11.3693 10.226 10.8576 10.8571 10.8576C11.4883 10.8576 12 11.3693 12 12.0005Z" fill="#16191D"/>
</svg>
