<svg width="24" height="24" viewBox="0 0 24 24" fill="none" xmlns="http://www.w3.org/2000/svg">
<path d="M12.002 3.51123C8.31179 3.51123 5.32031 6.5027 5.32031 10.1929C5.32031 12.2616 6.60868 14.5437 8.19706 16.5386C9.63849 18.3489 11.23 19.804 12.0038 20.4731C12.7782 19.8085 14.3684 18.3636 15.8086 16.5582C17.3949 14.5696 18.6836 12.2849 18.6836 10.1929C18.6836 6.5027 15.6921 3.51123 12.002 3.51123ZM3.82031 10.1929C3.82031 5.67428 7.48336 2.01123 12.002 2.01123C16.5205 2.01123 20.1836 5.67428 20.1836 10.1929C20.1836 12.8234 18.6084 15.4537 16.9812 17.4936C15.3304 19.5631 13.5068 21.1704 12.7901 21.7735C12.3322 22.1586 11.6693 22.1575 11.2128 21.7705C10.4974 21.164 8.67425 19.546 7.02359 17.4729C5.39738 15.4305 3.82031 12.8018 3.82031 10.1929Z" fill="#16191D"/>
<path d="M9.46967 7.47016C10.8671 6.0727 13.1329 6.0727 14.5303 7.47016C15.9278 8.86762 15.9278 11.1334 14.5303 12.5308C13.1329 13.9283 10.8671 13.9283 9.46967 12.5308C8.07221 11.1334 8.07221 8.86762 9.46967 7.47016ZM13.4697 8.53082C12.658 7.71914 11.342 7.71914 10.5303 8.53082C9.71865 9.34249 9.71865 10.6585 10.5303 11.4702C11.342 12.2818 12.658 12.2818 13.4697 11.4702C14.2813 10.6585 14.2813 9.34249 13.4697 8.53082Z" fill="#16191D"/>
</svg>
