<svg xmlns="http://www.w3.org/2000/svg" width="24" height="24" viewBox="0 0 24 24" fill="none">
  <path d="M7.18418 3.91309H13.7492C13.7558 3.91326 13.7624 3.91334 13.769 3.91334H15.2694C15.6744 3.92386 15.9995 4.2555 15.9995 4.66309V13.8324L12.5196 20.0053C11.9076 18.4034 11.771 16.6499 12.1394 14.9592C12.3232 14.1155 11.6806 13.3178 10.8172 13.3178H4.43021C3.95942 13.3178 3.60504 12.8891 3.6936 12.4268L4.97435 5.73984C5.1774 4.67967 6.10475 3.91309 7.18418 3.91309ZM15.2839 2.41334C15.2725 2.41317 15.261 2.41309 15.2495 2.41309H7.18418C5.38512 2.41309 3.83955 3.69072 3.50113 5.45767L2.22038 12.1446C1.9547 13.5317 3.01784 14.8178 4.43021 14.8178H10.6366C10.2415 16.7977 10.435 18.8432 11.1826 20.7045C11.5964 21.7346 12.874 21.8399 13.5528 21.1321C13.639 21.0422 13.7136 20.9418 13.7747 20.8333L17.3175 14.549C17.3819 14.4734 17.4318 14.3852 17.4629 14.2885H19.6428C20.8855 14.2885 21.8928 13.2811 21.8928 12.0385V4.66334C21.8928 3.4207 20.8855 2.41334 19.6428 2.41334H15.2839ZM17.3716 3.91334H19.6428C20.0571 3.91334 20.3928 4.24913 20.3928 4.66334V12.0385C20.3928 12.4527 20.0571 12.7885 19.6428 12.7885H17.4995V4.66309C17.4995 4.40021 17.4545 4.14785 17.3716 3.91334Z" fill="#16191D"/>
</svg>