<svg width="21" height="21" viewBox="0 0 21 21" fill="none" xmlns="http://www.w3.org/2000/svg">
<path d="M5.00293 7.04102C5.55521 7.04102 6.00293 6.5933 6.00293 6.04102C6.00293 5.48873 5.55521 5.04102 5.00293 5.04102C4.45064 5.04102 4.00293 5.48873 4.00293 6.04102C4.00293 6.5933 4.45064 7.04102 5.00293 7.04102Z" fill="#576175"/>
<path d="M8.25342 5.29102C7.8392 5.29102 7.50342 5.6268 7.50342 6.04102C7.50342 6.45523 7.8392 6.79102 8.25342 6.79102H17.2538C17.668 6.79102 18.0038 6.45523 18.0038 6.04102C18.0038 5.6268 17.668 5.29102 17.2538 5.29102H8.25342Z" fill="#576175"/>
<path d="M8.25342 9.79102C7.8392 9.79102 7.50342 10.1268 7.50342 10.541C7.50342 10.9552 7.8392 11.291 8.25342 11.291H17.2538C17.668 11.291 18.0038 10.9552 18.0038 10.541C18.0038 10.1268 17.668 9.79102 17.2538 9.79102H8.25342Z" fill="#576175"/>
<path d="M7.50342 15.041C7.50342 14.6268 7.8392 14.291 8.25342 14.291H17.2538C17.668 14.291 18.0038 14.6268 18.0038 15.041C18.0038 15.4552 17.668 15.791 17.2538 15.791H8.25342C7.8392 15.791 7.50342 15.4552 7.50342 15.041Z" fill="#576175"/>
<path d="M6.00293 10.541C6.00293 11.0933 5.55521 11.541 5.00293 11.541C4.45064 11.541 4.00293 11.0933 4.00293 10.541C4.00293 9.98873 4.45064 9.54102 5.00293 9.54102C5.55521 9.54102 6.00293 9.98873 6.00293 10.541Z" fill="#576175"/>
<path d="M5.00293 16.041C5.55521 16.041 6.00293 15.5933 6.00293 15.041C6.00293 14.4887 5.55521 14.041 5.00293 14.041C4.45064 14.041 4.00293 14.4887 4.00293 15.041C4.00293 15.5933 4.45064 16.041 5.00293 16.041Z" fill="#576175"/>
</svg>
