<svg width="24" height="24" viewBox="0 0 24 24" fill="none" xmlns="http://www.w3.org/2000/svg">
<path fill-rule="evenodd" clip-rule="evenodd" d="M12.002 3.51074C8.31179 3.51074 5.32031 6.50221 5.32031 10.1924C5.32031 12.2611 6.60868 14.5432 8.19706 16.5381C9.63849 18.3484 11.23 19.8035 12.0038 20.4726C12.7782 19.808 14.3684 18.3631 15.8086 16.5577C17.3949 14.5691 18.6836 12.2844 18.6836 10.1924C18.6836 6.50221 15.6921 3.51074 12.002 3.51074ZM3.82031 10.1924C3.82031 5.67379 7.48336 2.01074 12.002 2.01074C16.5205 2.01074 20.1836 5.67379 20.1836 10.1924C20.1836 12.8229 18.6084 15.4532 16.9812 17.4931C15.3304 19.5626 13.5068 21.17 12.7901 21.773C12.3322 22.1582 11.6693 22.157 11.2128 21.77C10.4974 21.1635 8.67425 19.5456 7.02359 17.4724C5.39738 15.43 3.82031 12.8013 3.82031 10.1924ZM11.999 7.72852C10.6383 7.72852 9.53516 8.83163 9.53516 10.1924C9.53516 11.5531 10.6383 12.6562 11.999 12.6562C13.3598 12.6562 14.4629 11.5531 14.4629 10.1924C14.4629 8.83163 13.3598 7.72852 11.999 7.72852ZM8.03516 10.1924C8.03516 8.0032 9.80984 6.22852 11.999 6.22852C14.1882 6.22852 15.9629 8.0032 15.9629 10.1924C15.9629 12.3816 14.1882 14.1562 11.999 14.1562C9.80984 14.1562 8.03516 12.3816 8.03516 10.1924Z" fill="#16191D"/>
</svg>
