<svg width="20" height="21" viewBox="0 0 20 21" fill="none" xmlns="http://www.w3.org/2000/svg">
<g clip-path="url(#clip0_1505_60779)">
<path fill-rule="evenodd" clip-rule="evenodd" d="M10.001 0.541016C4.47813 0.541016 0.000976562 5.01817 0.000976562 10.541C0.000976562 16.0639 4.47813 20.541 10.001 20.541C15.5238 20.541 20.001 16.0639 20.001 10.541C20.001 5.01817 15.5238 0.541016 10.001 0.541016ZM6.00098 9.79102C5.58676 9.79102 5.25098 10.1268 5.25098 10.541C5.25098 10.9552 5.58676 11.291 6.00098 11.291H14.001C14.4152 11.291 14.751 10.9552 14.751 10.541C14.751 10.1268 14.4152 9.79102 14.001 9.79102H6.00098Z" fill="#576175"/>
</g>
<defs>
<clipPath id="clip0_1505_60779">
<rect width="20" height="20" fill="white" transform="translate(0.000976562 0.541016)"/>
</clipPath>
</defs>
</svg>
