<svg width="21" height="21" viewBox="0 0 21 21" fill="none" xmlns="http://www.w3.org/2000/svg">
<g clip-path="url(#clip0_1505_60868)">
<path d="M14.8117 2.66798C12.9903 1.78465 10.9189 1.56022 8.95047 2.03292C6.98207 2.50562 5.23847 3.64621 4.01676 5.26036C2.79505 6.8745 2.17082 8.86231 2.25042 10.8851C2.33003 12.9079 3.10855 14.8405 4.45333 16.3537C5.79811 17.8668 7.62595 18.8668 9.62541 19.1834C11.6249 19.4999 13.6722 19.1134 15.4186 18.0897C17.1651 17.0659 18.5025 15.4683 19.203 13.569C19.3464 13.1804 19.1475 12.7492 18.7589 12.6058C18.3703 12.4625 17.939 12.6613 17.7957 13.0499C17.2153 14.6236 16.1071 15.9474 14.6601 16.7956C13.213 17.6439 11.5167 17.9641 9.85996 17.7018C8.20327 17.4396 6.68878 16.6109 5.57453 15.3572C4.46028 14.1035 3.81522 12.5021 3.74926 10.8261C3.68331 9.15009 4.20053 7.50304 5.2128 6.16561C6.22508 4.82818 7.66977 3.88312 9.30073 3.49145C10.9317 3.09978 12.648 3.28574 14.1572 4.01765C15.4699 4.65422 16.2983 5.78551 17.3093 7.16606C17.3403 7.20837 17.3715 7.25095 17.4029 7.29372H15.0369C14.6227 7.29372 14.2869 7.62951 14.2869 8.04372C14.2869 8.45793 14.6227 8.79372 15.0369 8.79372H19.2795C19.6937 8.79372 20.0295 8.45793 20.0295 8.04372V3.80108C20.0295 3.38687 19.6937 3.05108 19.2795 3.05108C18.8653 3.05108 18.5295 3.38687 18.5295 3.80108V6.29155C18.5239 6.28381 18.5182 6.27605 18.5126 6.2683C17.5383 4.92941 16.4823 3.47814 14.8117 2.66798Z" fill="#576175"/>
</g>
<defs>
<clipPath id="clip0_1505_60868">
<rect width="20" height="20" fill="white" transform="translate(0.993164 0.541016)"/>
</clipPath>
</defs>
</svg>
