<svg width="24" height="24" viewBox="0 0 24 24" fill="none" xmlns="http://www.w3.org/2000/svg">
<path fill-rule="evenodd" clip-rule="evenodd" d="M6.33918 6.34858C6.47989 6.20786 6.67076 6.12884 6.86976 6.12891L13.9432 6.13126C14.3574 6.13139 14.6931 6.46729 14.6929 6.8815C14.6928 7.29572 14.3569 7.63139 13.9427 7.63126L8.68886 7.62951L17.6563 16.5968C17.9492 16.8897 17.9492 17.3645 17.6563 17.6574C17.3634 17.9503 16.8886 17.9503 16.5957 17.6575L7.62011 8.68207L7.62185 13.9521C7.62199 14.3663 7.28632 14.7022 6.8721 14.7023C6.45789 14.7025 6.12199 14.3668 6.12185 13.9526L6.11951 6.87916C6.11944 6.68016 6.19846 6.48929 6.33918 6.34858Z" fill="#16191D"/>
</svg>
