<svg width="24" height="24" viewBox="0 0 24 24" fill="none" xmlns="http://www.w3.org/2000/svg">
<path d="M10.2813 17.535C10.5741 17.242 10.5739 16.7672 10.2809 16.4744L5.80845 12.0049L10.2809 7.53539C10.5739 7.24259 10.5741 6.76772 10.2813 6.47473C9.98847 6.18174 9.51359 6.18158 9.2206 6.47438L4.21728 11.4744C4.07652 11.615 3.99744 11.8059 3.99744 12.0049C3.99744 12.2039 4.07652 12.3947 4.21728 12.5354L9.2206 17.5354C9.51359 17.8282 9.98847 17.828 10.2813 17.535Z" fill="#16191D"/>
<path d="M4.38748 12.0002C4.38748 12.4144 4.72327 12.7502 5.13748 12.7502L19.2465 12.75C19.6607 12.75 19.9965 12.4142 19.9965 12C19.9964 11.5858 19.6607 11.25 19.2464 11.25L5.13747 11.2502C4.72326 11.2502 4.38747 11.5859 4.38748 12.0002Z" fill="#16191D"/>
</svg>
