<svg width="24" height="24" viewBox="0 0 24 24" fill="none" xmlns="http://www.w3.org/2000/svg">
<path fill-rule="evenodd" clip-rule="evenodd" d="M2 17.75C2 18.9926 3.00736 20 4.25 20H19.75C20.9926 20 22 18.9926 22 17.75V6.25C22 5.00736 20.9926 4 19.75 4H4.25C3.00736 4 2 5.00736 2 6.25V17.75ZM11.4697 7.1933C11.7626 6.90041 12.2374 6.90041 12.5303 7.1933L15.5303 10.1933C15.8232 10.4862 15.8232 10.9611 15.5303 11.254C15.2374 11.5469 14.7626 11.5469 14.4697 11.254L12.75 9.5343L12.75 16.2759C12.75 16.6901 12.4142 17.0259 12 17.0259C11.5858 17.0259 11.25 16.6901 11.25 16.2759L11.25 9.53429L9.53033 11.254C9.23744 11.5469 8.76256 11.5469 8.46967 11.254C8.17678 10.9611 8.17678 10.4862 8.46967 10.1933L11.4697 7.1933Z" fill="#16191D"/>
</svg>
