<svg width="24" height="24" viewBox="0 0 24 24" fill="none" xmlns="http://www.w3.org/2000/svg">
<path d="M2.75781 12.7495L7.30888 12.7495C7.66846 15.0165 9.63185 16.7495 12 16.7495C14.3682 16.7495 16.3315 15.0165 16.6911 12.7495L21.2422 12.7495C21.6564 12.7495 21.9922 12.4137 21.9922 11.9995C21.9922 11.5853 21.6564 11.2495 21.2422 11.2495L16.6911 11.2495C16.3315 8.98252 14.3682 7.24951 12 7.24951C9.63185 7.24951 7.66846 8.98252 7.30888 11.2495L2.75781 11.2495C2.3436 11.2495 2.00781 11.5853 2.00781 11.9995C2.00781 12.4137 2.3436 12.7495 2.75781 12.7495Z" fill="#16191D"/>
</svg>
