<svg width="21" height="21" viewBox="0 0 21 21" fill="none" xmlns="http://www.w3.org/2000/svg">
<path d="M3.54688 3.79492C3.54688 3.38071 3.88266 3.04492 4.29688 3.04492H12.2939C12.7081 3.04492 13.0439 2.70914 13.0439 2.29492C13.0439 1.88071 12.7081 1.54492 12.2939 1.54492H4.29688C3.05423 1.54492 2.04688 2.55228 2.04688 3.79492V17.2915C2.04688 18.5341 3.05423 19.5415 4.29687 19.5415H12.2939C12.7081 19.5415 13.0439 19.2057 13.0439 18.7915C13.0439 18.3773 12.7081 18.0415 12.2939 18.0415H4.29687C3.88266 18.0415 3.54688 17.7057 3.54688 17.2915V3.79492Z" fill="#576175"/>
<path d="M7.18842 10.0107C6.89553 10.3036 6.89553 10.7785 7.18842 11.0713L11.1884 15.0713C11.4813 15.3642 11.9562 15.3642 12.2491 15.0713C12.542 14.7785 12.542 14.3036 12.2491 14.0107L9.52941 11.291L19.2339 11.291C19.6481 11.291 19.9839 10.9552 19.9839 10.541C19.9839 10.1268 19.6481 9.79102 19.2339 9.79102L9.52941 9.79102L12.2491 7.07135C12.542 6.77845 12.542 6.30358 12.2491 6.01069C11.9562 5.71779 11.4813 5.71779 11.1884 6.01069L7.18842 10.0107Z" fill="#576175"/>
</svg>
