<svg width="24" height="24" viewBox="0 0 24 24" fill="none" xmlns="http://www.w3.org/2000/svg">
<path d="M2.25 5.5C2.25 4.25736 3.25736 3.25 4.5 3.25H13.5C14.7426 3.25 15.75 4.25736 15.75 5.5V6.88997H17.4011C17.6248 6.88997 17.8369 6.98988 17.9794 7.16241L21.5799 11.5224C21.6909 11.6568 21.7516 11.8257 21.7516 12V15.75C21.7516 16.1642 21.4158 16.5 21.0016 16.5H20.7404C20.7478 16.5823 20.7516 16.6657 20.7516 16.75C20.7516 18.2688 19.5204 19.5 18.0016 19.5C16.4828 19.5 15.2516 18.2688 15.2516 16.75C15.2516 16.7355 15.2517 16.7211 15.2519 16.7066C15.1732 16.7347 15.0884 16.75 15 16.75H9.75C9.75 18.2688 8.51878 19.5007 7 19.5007C5.48122 19.5007 4.25 18.2695 4.25 16.7507L3 16.75C2.58579 16.75 2.25 16.4142 2.25 16V5.5ZM5.75 16.7507C5.75 17.441 6.30964 18.0007 7 18.0007C7.69036 18.0007 8.24937 17.441 8.24937 16.7507C8.24937 16.0607 7.69003 15.5014 7.00005 15.5014C6.31007 15.5014 5.75 16.0607 5.75 16.7507ZM15.7523 8.38997L15.7557 12H20.0289L17.0478 8.38997H15.7523ZM16.7766 16.5C16.7602 16.5808 16.7516 16.6644 16.7516 16.75C16.7516 17.4404 17.3112 18 18.0016 18C18.6919 18 19.2516 17.4404 19.2516 16.75C19.2516 16.6644 19.243 16.5808 19.2266 16.5H19.2251C19.1093 15.9302 18.6055 15.5014 18.0015 15.5014C17.3976 15.5014 16.8938 15.9302 16.778 16.5H16.7766Z" fill="#16191D"/>
</svg>
