<svg width="21" height="21" viewBox="0 0 21 21" fill="none" xmlns="http://www.w3.org/2000/svg">
<path d="M11.7407 2.29883L11.7407 12.0033L14.4604 9.28364C14.7533 8.99075 15.2282 8.99075 15.5211 9.28364C15.8139 9.57654 15.8139 10.0514 15.5211 10.3443L11.5211 14.3443C11.2282 14.6372 10.7533 14.6372 10.4604 14.3443L6.46039 10.3443C6.1675 10.0514 6.1675 9.57654 6.46039 9.28364C6.75329 8.99075 7.22816 8.99075 7.52105 9.28364L10.2407 12.0033L10.2407 2.29883C10.2407 1.88461 10.5765 1.54883 10.9907 1.54883C11.4049 1.54883 11.7407 1.88461 11.7407 2.29883Z" fill="#576175"/>
<path d="M4.24365 18.0357C3.82944 18.0357 3.49365 17.6999 3.49365 17.2857L3.49365 12.7857C3.49365 12.3714 3.15787 12.0357 2.74365 12.0357C2.32944 12.0357 1.99365 12.3714 1.99365 12.7857V17.2857C1.99365 18.5283 3.00101 19.5357 4.24365 19.5357H17.7402C18.9829 19.5357 19.9902 18.5283 19.9902 17.2857V12.7857C19.9902 12.3714 19.6544 12.0357 19.2402 12.0357C18.826 12.0357 18.4902 12.3714 18.4902 12.7857V17.2857C18.4902 17.6999 18.1544 18.0357 17.7402 18.0357H4.24365Z" fill="#576175"/>
</svg>
