<svg width="24" height="24" viewBox="0 0 24 24" fill="none" xmlns="http://www.w3.org/2000/svg">
<path d="M3.25 4.25C3.25 3.00736 4.25736 2 5.5 2H18.5C19.7426 2 20.75 3.00736 20.75 4.25V19.75C20.75 20.9926 19.7426 22 18.5 22H5.5C4.25736 22 3.25 20.9926 3.25 19.75V4.25ZM5.5 3.5C5.08579 3.5 4.75 3.83579 4.75 4.25V19.75C4.75 20.1642 5.08579 20.5 5.5 20.5H7.24609L7.24609 3.5H5.5ZM8.74609 3.5L8.74609 20.5H18.5C18.9142 20.5 19.25 20.1642 19.25 19.75V4.25C19.25 3.83579 18.9142 3.5 18.5 3.5H8.74609ZM10.2461 11.9697C10.2461 11.5555 10.5819 11.2197 10.9961 11.2197H14.6992C15.1134 11.2197 15.4492 11.5555 15.4492 11.9697C15.4492 12.3839 15.1134 12.7197 14.6992 12.7197H10.9961C10.5819 12.7197 10.2461 12.3839 10.2461 11.9697ZM10.2477 15.7656C10.2477 15.3514 10.5834 15.0156 10.9977 15.0156H16.5898C17.0041 15.0156 17.3398 15.3514 17.3398 15.7656C17.3398 16.1798 17.0041 16.5156 16.5898 16.5156H10.9977C10.5834 16.5156 10.2477 16.1798 10.2477 15.7656Z" fill="#16191D"/>
</svg>
