<svg width="24" height="24" viewBox="0 0 24 24" fill="none" xmlns="http://www.w3.org/2000/svg">
<path d="M11.9985 3.49707C10.075 3.49707 8.51562 5.05642 8.51562 6.97998C8.51562 8.90354 10.075 10.4629 11.9985 10.4629C13.9221 10.4629 15.4814 8.90354 15.4814 6.97998C15.4814 5.05642 13.9221 3.49707 11.9985 3.49707ZM7.01562 6.97998C7.01562 4.228 9.24655 1.99707 11.9985 1.99707C14.7505 1.99707 16.9814 4.228 16.9814 6.97998C16.9814 9.47653 15.1454 11.5443 12.75 11.9066V17.4944C12.75 17.9086 12.4142 18.2444 12 18.2444C11.5858 18.2444 11.25 17.9086 11.25 17.4944V11.907C8.85313 11.5459 7.01562 9.47755 7.01562 6.97998ZM7.34747 13.3338C7.47648 13.7274 7.26198 14.1511 6.86837 14.2801C5.75747 14.6442 4.88982 15.1094 4.3146 15.6108C3.73903 16.1125 3.51562 16.5926 3.51562 17.0132C3.51562 17.7106 4.16481 18.583 5.78231 19.3246C7.33438 20.0362 9.53124 20.4961 11.998 20.4961C14.4649 20.4961 16.6617 20.0362 18.2138 19.3246C19.8313 18.583 20.4805 17.7106 20.4805 17.0132C20.4805 16.5926 20.2571 16.1125 19.6815 15.6108C19.1063 15.1094 18.2386 14.6442 17.1277 14.2801C16.7341 14.1511 16.5196 13.7274 16.6486 13.3338C16.7776 12.9402 17.2013 12.7257 17.5949 12.8547C18.8264 13.2583 19.8933 13.8056 20.6671 14.48C21.4405 15.1541 21.9805 16.0131 21.9805 17.0132C21.9805 18.6536 20.5629 19.8977 18.8389 20.6881C17.0495 21.5085 14.6302 21.9961 11.998 21.9961C9.36593 21.9961 6.94658 21.5085 5.15716 20.6881C3.43318 19.8977 2.01562 18.6536 2.01562 17.0132C2.01562 16.0131 2.5556 15.1541 3.32902 14.48C4.10278 13.8056 5.1697 13.2583 6.40118 12.8547C6.79479 12.7257 7.21846 12.9402 7.34747 13.3338Z" fill="#16191D"/>
</svg>
