<svg width="20" height="20" viewBox="0 0 20 20" fill="none" xmlns="http://www.w3.org/2000/svg">
<path fill-rule="evenodd" clip-rule="evenodd" d="M7.70895 3.21483C7.55594 3.12416 7.37453 3.07168 7.17876 3.07227C7.10006 3.07251 6.84787 3.09818 6.46621 3.14863C6.10763 3.19603 5.68734 3.2578 5.31129 3.31502C4.99635 3.36294 4.79111 3.58942 4.7619 3.83322C4.39831 6.86728 5.39443 9.889 7.75456 12.2491C10.1125 14.6071 13.1392 15.5946 16.1732 15.2338C16.4179 15.2047 16.6449 14.9989 16.6924 14.6837C16.7486 14.3109 16.8091 13.8952 16.8555 13.5395C16.9048 13.162 16.93 12.9093 16.9303 12.8261C16.9307 12.6793 16.9023 12.5441 16.8518 12.4242C16.8443 12.4156 16.8302 12.4003 16.807 12.3785C16.7472 12.3223 16.6563 12.2499 16.5318 12.1649C16.2837 11.9955 15.9531 11.81 15.595 11.6366C15.2386 11.464 14.8731 11.312 14.5613 11.2051C14.4854 11.1791 14.4145 11.1564 14.3491 11.137L13.1897 13.0128C13.0109 13.302 12.6599 13.4348 12.3344 13.3363C11.0793 12.9563 9.90046 12.271 8.91164 11.2822C7.85157 10.2221 7.14048 8.94216 6.77981 7.58658C6.69519 7.26852 6.82781 6.93246 7.10683 6.75791L8.86633 5.6572C8.85103 5.60555 8.83375 5.55027 8.8145 5.49164C8.7167 5.19369 8.57813 4.83951 8.42219 4.4903C8.26579 4.14004 8.09892 3.81047 7.9477 3.55786C7.8718 3.43107 7.80649 3.33485 7.75479 3.26897C7.7323 3.24031 7.71698 3.22335 7.70895 3.21483ZM16.8409 12.3992L16.8391 12.3954L16.8391 12.3954M8.53075 1.95927C8.13561 1.7106 7.66773 1.57078 7.17421 1.57228C6.97823 1.57287 6.61934 1.61534 6.26963 1.66157C5.89684 1.71085 5.46548 1.7743 5.08567 1.83208C4.17777 1.97022 3.39051 2.67042 3.27255 3.65474C2.85354 7.15125 4.0123 10.6282 6.6939 13.3098C9.37606 15.992 12.8586 17.1385 16.3503 16.7233C17.3362 16.6061 18.0383 15.8176 18.1756 14.9074C18.2325 14.5308 18.2947 14.1037 18.3429 13.7335C18.3883 13.3852 18.4297 13.0289 18.4303 12.8306C18.4314 12.4617 18.3545 12.1049 18.2072 11.7803C18.1124 11.5696 17.9592 11.4029 17.8347 11.2859C17.6997 11.1588 17.5413 11.0379 17.3777 10.9262C17.0499 10.7023 16.6498 10.4808 16.2489 10.2866C15.8464 10.0917 15.4247 9.91537 15.0475 9.7861C14.6996 9.66693 14.2992 9.55517 13.9787 9.55614C13.7196 9.55693 13.4792 9.6914 13.343 9.91181L12.2302 11.7121C11.4082 11.3844 10.6388 10.888 9.9723 10.2215C9.24219 9.49139 8.71569 8.63603 8.39147 7.7236L10.0976 6.65627C10.316 6.51961 10.449 6.28038 10.4498 6.02271C10.4507 5.72637 10.3455 5.34604 10.2397 5.02382C10.123 4.66847 9.96472 4.26585 9.79185 3.87871C9.61945 3.49262 9.42561 3.1063 9.23473 2.78743C9.13958 2.62848 9.0385 2.47506 8.93479 2.34291C8.84172 2.22432 8.70561 2.06903 8.53075 1.95927Z" fill="#576175"/>
</svg>
