<svg width="24" height="24" viewBox="0 0 24 24" fill="none" xmlns="http://www.w3.org/2000/svg">
<path d="M3 5.25C3 4.00736 4.00736 3 5.25 3H18.75C19.9926 3 21 4.00736 21 5.25V13.4412C21 14.0379 20.7629 14.6102 20.341 15.0322L15.0322 20.341C14.6102 20.7629 14.0379 21 13.4412 21H5.25C4.00736 21 3 19.9926 3 18.75V5.25ZM18.4442 14.8076H15.5703C15.1561 14.8076 14.8203 15.1434 14.8203 15.5576V18.4315L18.4442 14.8076ZM15.2578 8.11621C15.2578 7.77103 14.978 7.49121 14.6328 7.49121H8.13281C7.78763 7.49121 7.50781 7.77103 7.50781 8.11621C7.50781 8.46139 7.78763 8.74121 8.13281 8.74121H14.6328C14.978 8.74121 15.2578 8.46139 15.2578 8.11621ZM11.7578 10.8662C11.7578 10.521 11.478 10.2412 11.1328 10.2412H8.13281C7.78763 10.2412 7.50781 10.521 7.50781 10.8662C7.50781 11.2114 7.78763 11.4912 8.13281 11.4912H11.1328C11.478 11.4912 11.7578 11.2114 11.7578 10.8662Z" fill="#16191D"/>
</svg>
