<svg width="24" height="24" viewBox="0 0 24 24" fill="none" xmlns="http://www.w3.org/2000/svg">
<path fill-rule="evenodd" clip-rule="evenodd" d="M3.47656 4.25C3.47656 3.00736 4.48392 2 5.72656 2H18.5C19.7426 2 20.75 3.00736 20.75 4.25V19.75C20.75 20.9926 19.7426 22 18.5 22H5.72656C4.48392 22 3.47656 20.9926 3.47656 19.75V17.25H2.71484C2.30063 17.25 1.96484 16.9142 1.96484 16.5C1.96484 16.0858 2.30063 15.75 2.71484 15.75H3.47656V12.75H2.71484C2.30063 12.75 1.96484 12.4142 1.96484 12C1.96484 11.5858 2.30063 11.25 2.71484 11.25H3.47656V8.25H2.71484C2.30063 8.25 1.96484 7.91421 1.96484 7.5C1.96484 7.08579 2.30063 6.75 2.71484 6.75H3.47656V4.25ZM4.97656 8.25H5.71484C6.12906 8.25 6.46484 7.91421 6.46484 7.5C6.46484 7.08579 6.12906 6.75 5.71484 6.75H4.97656V4.25C4.97656 3.83579 5.31235 3.5 5.72656 3.5H7.97266L7.97266 20.5H5.72656C5.31235 20.5 4.97656 20.1642 4.97656 19.75V17.25H5.71484C6.12906 17.25 6.46484 16.9142 6.46484 16.5C6.46484 16.0858 6.12906 15.75 5.71484 15.75H4.97656V12.75H5.71484C6.12906 12.75 6.46484 12.4142 6.46484 12C6.46484 11.5858 6.12906 11.25 5.71484 11.25H4.97656V8.25ZM9.47266 20.5H18.5C18.9142 20.5 19.25 20.1642 19.25 19.75V4.25C19.25 3.83579 18.9142 3.5 18.5 3.5H9.47266L9.47266 20.5Z" fill="#16191D"/>
</svg>
