<svg width="24" height="24" viewBox="0 0 24 24" fill="none" xmlns="http://www.w3.org/2000/svg">
<path d="M12 3.50049C7.30558 3.50049 3.5 7.30607 3.5 12.0005C3.5 14.0941 4.25692 16.0109 5.51204 17.4922L17.4918 5.51253C16.0104 4.25741 14.0936 3.50049 12 3.50049ZM18.5467 6.57886L6.57837 18.5472C8.04982 19.7672 9.93927 20.5005 12 20.5005C16.6944 20.5005 20.5 16.6949 20.5 12.0005C20.5 9.93976 19.7667 8.05031 18.5467 6.57886ZM2 12.0005C2 6.47764 6.47715 2.00049 12 2.00049C17.5228 2.00049 22 6.47764 22 12.0005C22 17.5233 17.5228 22.0005 12 22.0005C6.47715 22.0005 2 17.5233 2 12.0005Z" fill="#16191D"/>
</svg>
