<svg xmlns="http://www.w3.org/2000/svg" width="24" height="24" viewBox="0 0 24 24" fill="none">
  <path d="M6.60962 9.71241C6.64076 9.61573 6.69065 9.52746 6.75501 9.45188L10.2978 3.16758C10.359 3.05907 10.4335 2.95868 10.5198 2.86877C11.1985 2.16103 12.4762 2.26632 12.8899 3.29638C13.6376 5.15768 13.831 7.20318 13.4359 9.18305H19.6423C21.0547 9.18305 22.1178 10.4691 21.8522 11.8563L20.5714 18.5432C20.233 20.3102 18.6874 21.5878 16.8884 21.5878H8.82299C8.81151 21.5878 8.80004 21.5877 8.7886 21.5875H4.42969C3.18704 21.5875 2.17969 20.5802 2.17969 19.3375V11.9624C2.17969 10.7198 3.18705 9.71241 4.42969 9.71241H6.60962ZM8.07299 10.1684V19.3378C8.07299 19.7454 8.3981 20.077 8.80314 20.0875H10.3035C10.3102 20.0875 10.3168 20.0876 10.3234 20.0878H16.8884C17.9678 20.0878 18.8951 19.3212 19.0982 18.2611L20.3789 11.5741C20.4675 11.1117 20.1131 10.6831 19.6423 10.6831H13.2554C12.3919 10.6831 11.7493 9.88536 11.9331 9.0417C12.3015 7.35095 12.165 5.59752 11.5529 3.99561L8.07299 10.1684ZM6.70093 20.0875C6.61807 19.853 6.57299 19.6007 6.57299 19.3378V11.2124H4.42969C4.01548 11.2124 3.67969 11.5482 3.67969 11.9624V19.3375C3.67969 19.7518 4.01547 20.0875 4.42969 20.0875H6.70093Z" fill="#16191D"/>
</svg>