<svg width="24" height="24" viewBox="0 0 24 24" fill="none" xmlns="http://www.w3.org/2000/svg">
<path fill-rule="evenodd" clip-rule="evenodd" d="M5.01557 4.75C4.7089 4.75 4.43311 4.93671 4.31922 5.22146L3.17081 8.09246C3.0341 8.43425 3.16564 8.82473 3.4813 9.01412L4.94749 9.89383C5.185 10.0363 5.48172 10.0363 5.71923 9.89383L7.50908 8.81993C8.22161 8.39241 9.11177 8.39241 9.82431 8.81993L11.6142 9.89383C11.8517 10.0363 12.1484 10.0363 12.3859 9.89383L14.1757 8.81993C14.8883 8.39241 15.7784 8.39241 16.491 8.81993L18.2808 9.89383C18.5183 10.0363 18.8151 10.0363 19.0526 9.89383L20.5187 9.01412C20.8344 8.82473 20.9659 8.43425 20.8292 8.09246L19.6808 5.22146C19.5669 4.93671 19.2912 4.75 18.9845 4.75H5.01557ZM2.9265 4.66437C3.26819 3.81014 4.09554 3.25 5.01557 3.25H18.9845C19.9045 3.25 20.7319 3.81014 21.0735 4.66437L22.2219 7.53537C22.6321 8.56073 22.2375 9.73218 21.2905 10.3004L20.75 10.6246V19.5C20.75 20.7426 19.7427 21.75 18.5 21.75H5.50002C4.25738 21.75 3.25002 20.7426 3.25002 19.5V10.6246L2.70956 10.3004C1.76259 9.73218 1.36796 8.56073 1.7781 7.53537L2.9265 4.66437ZM4.75002 11.4238V19.5C4.75002 19.9142 5.08581 20.25 5.50002 20.25H9.25002V16.5C9.25002 15.2574 10.2574 14.25 11.5 14.25H12.5C13.7427 14.25 14.75 15.2574 14.75 16.5L14.75 20.25H18.5C18.9142 20.25 19.25 19.9142 19.25 19.5V11.4238C18.669 11.5798 18.0398 11.4985 17.5091 11.1801L15.7192 10.1062C15.4817 9.96366 15.185 9.96366 14.9475 10.1062L13.1576 11.1801C12.4451 11.6076 11.5549 11.6076 10.8424 11.1801L9.05256 10.1062C8.81505 9.96366 8.51833 9.96366 8.28082 10.1062L6.49097 11.1801C5.96027 11.4985 5.33102 11.5798 4.75002 11.4238ZM13.25 20.25L13.25 16.5C13.25 16.0858 12.9142 15.75 12.5 15.75H11.5C11.0858 15.75 10.75 16.0858 10.75 16.5V20.25H13.25Z" fill="#16191D"/>
</svg>
