<svg width="24" height="24" viewBox="0 0 24 24" fill="none" xmlns="http://www.w3.org/2000/svg">
<path d="M4.28906 21C3.04642 21 2.03906 19.9926 2.03906 18.75V5.25C2.03906 4.00736 3.04642 3 4.28906 3H19.7891C21.0317 3 22.0391 4.00736 22.0391 5.25V18.75C22.0391 19.9926 21.0317 21 19.7891 21H4.28906ZM12.5352 19.5H19.7891C20.2033 19.5 20.5391 19.1642 20.5391 18.75V5.25C20.5391 4.83579 20.2033 4.5 19.7891 4.5H12.5352L12.5352 19.5ZM5.78516 8.25C5.37094 8.25 5.03516 8.58579 5.03516 9C5.03516 9.41421 5.37094 9.75 5.78516 9.75H8.78516C9.19937 9.75 9.53516 9.41421 9.53516 9C9.53516 8.58579 9.19937 8.25 8.78516 8.25H5.78516ZM5.03516 12C5.03516 12.4142 5.37094 12.75 5.78516 12.75H8.78516C9.19937 12.75 9.53516 12.4142 9.53516 12C9.53516 11.5858 9.19937 11.25 8.78516 11.25H5.78516C5.37094 11.25 5.03516 11.5858 5.03516 12ZM5.78516 14.25C5.37094 14.25 5.03516 14.5858 5.03516 15C5.03516 15.4142 5.37094 15.75 5.78516 15.75H8.78516C9.19937 15.75 9.53516 15.4142 9.53516 15C9.53516 14.5858 9.19937 14.25 8.78516 14.25H5.78516Z" fill="#16191D"/>
</svg>
