<svg width="24" height="24" viewBox="0 0 24 24" fill="none" xmlns="http://www.w3.org/2000/svg">
<path d="M5.98959 4.98931C6.28249 4.69642 6.28249 4.22155 5.98959 3.92865C5.6967 3.63576 5.22182 3.63576 4.92893 3.92865C3.05357 5.80402 2 8.34756 2 10.9997C2 13.6519 3.05357 16.1954 4.92893 18.0708C5.22183 18.3637 5.6967 18.3637 5.98959 18.0708C6.28249 17.7779 6.28249 17.303 5.98959 17.0101C4.39553 15.4161 3.5 13.2541 3.5 10.9997C3.5 8.74538 4.39553 6.58337 5.98959 4.98931Z" fill="#16191D"/>
<path d="M18.0104 4.98931C17.7175 4.69642 17.7175 4.22155 18.0104 3.92865C18.3033 3.63576 18.7782 3.63576 19.0711 3.92865C20.9464 5.80402 22 8.34756 22 10.9997C22 13.6519 20.9464 16.1954 19.0711 18.0708C18.7782 18.3637 18.3033 18.3637 18.0104 18.0708C17.7175 17.7779 17.7175 17.303 18.0104 17.0101C19.6045 15.4161 20.5 13.2541 20.5 10.9997C20.5 8.74538 19.6045 6.58337 18.0104 4.98931Z" fill="#16191D"/>
<path d="M8.10815 6.04779C8.40104 6.34069 8.40104 6.81556 8.10815 7.10845C7.07597 8.14064 6.49609 9.54058 6.49609 11.0003C6.49609 12.46 7.07597 13.86 8.10815 14.8922C8.40104 15.185 8.40104 15.6599 8.10815 15.9528C7.81526 16.2457 7.34038 16.2457 7.04749 15.9528C5.734 14.6393 4.99609 12.8579 4.99609 11.0003C4.99609 9.14275 5.734 7.36128 7.04749 6.04779C7.34038 5.7549 7.81526 5.7549 8.10815 6.04779Z" fill="#16191D"/>
<path d="M15.8918 7.10845C15.599 6.81556 15.599 6.34069 15.8918 6.04779C16.1847 5.7549 16.6596 5.7549 16.9525 6.04779C18.266 7.36128 19.0039 9.14275 19.0039 11.0003C19.0039 12.8579 18.266 14.6393 16.9525 15.9528C16.6596 16.2457 16.1847 16.2457 15.8918 15.9528C15.599 15.6599 15.599 15.185 15.8918 14.8922C16.924 13.86 17.5039 12.46 17.5039 11.0003C17.5039 9.54058 16.924 8.14064 15.8918 7.10845Z" fill="#16191D"/>
<path d="M9.25 11C9.25 9.48122 10.4812 8.25 12 8.25C13.5188 8.25 14.75 9.48122 14.75 11C14.75 12.2602 13.9023 13.3224 12.7461 13.6476V21.229C12.7461 21.6432 12.4103 21.979 11.9961 21.979C11.5819 21.979 11.2461 21.6432 11.2461 21.229V13.6454C10.0938 13.3176 9.25 12.2574 9.25 11Z" fill="#16191D"/>
</svg>
