<svg width="24" height="24" viewBox="0 0 24 24" fill="none" xmlns="http://www.w3.org/2000/svg">
<path d="M13.1598 15.98C13.1598 15.5658 13.4956 15.23 13.9098 15.23H20.2113C20.6255 15.23 20.9613 15.5658 20.9613 15.98V20.0525C20.9613 20.4667 20.6255 20.8025 20.2113 20.8025H13.9098C13.4956 20.8025 13.1598 20.4667 13.1598 20.0525V15.98Z" fill="white"/>
<path d="M12.4854 2.2854C12.2054 2.04789 11.7907 2.05114 11.5108 2.28866L12.4854 2.2854ZM14.334 13.6686C14.334 12.1628 15.5547 10.9421 17.0605 10.9421C18.5663 10.9421 19.7869 12.1628 19.7869 13.6686V14.48H20.2113C21.0397 14.48 21.7113 15.1516 21.7113 15.98V20.0525C21.7113 20.8809 21.0397 21.5525 20.2113 21.5525H13.9098C13.0814 21.5525 12.4098 20.8809 12.4098 20.0525V15.98C12.4098 15.1516 13.0814 14.48 13.9098 14.48H14.334V13.6686ZM15.834 14.48H18.2869V13.6686C18.2869 12.9913 17.7378 12.4421 17.0605 12.4421C16.3831 12.4421 15.834 12.9913 15.834 13.6686V14.48Z" fill="#16191D"/>
<path d="M12.4892 2.28866L12.4854 2.2854C12.2054 2.04789 11.7907 2.05114 11.5108 2.28866L11.4954 2.30154C11.4815 2.31322 11.4601 2.33095 11.4321 2.35401C11.376 2.40015 11.293 2.46754 11.1881 2.55045C10.9779 2.71655 10.6815 2.94348 10.3376 3.1861C9.63272 3.68356 8.7928 4.20051 8.10387 4.43202C7.51471 4.63 6.67841 4.73948 5.94523 4.79565C5.58757 4.82305 5.27031 4.8367 5.04279 4.84348C4.92922 4.84687 4.83851 4.84852 4.77688 4.84933L4.70715 4.85002L4.6902 4.8501L4.68582 4.85011C4.48689 4.85003 4.29608 4.929 4.15537 5.06962C4.01462 5.21029 3.93555 5.40112 3.93555 5.60011V12.0003C3.93555 13.958 4.7635 15.6702 5.82946 17.0642C6.89527 18.4579 8.2326 19.5789 9.34236 20.3739C9.67908 20.6151 10.1476 20.5377 10.3888 20.201C10.63 19.8642 10.5526 19.3957 10.2159 19.1545C9.17337 18.4077 7.96392 17.3861 7.02101 16.153C6.07825 14.9201 5.43555 13.5213 5.43555 12.0003V6.32952C5.62115 6.32091 5.83272 6.30867 6.05981 6.29127C6.81414 6.23348 7.80646 6.11439 8.58167 5.85389C9.48926 5.5489 10.478 4.92297 11.2025 4.41167C11.5128 4.19268 11.7865 3.98619 12 3.81995C12.2135 3.98619 12.4872 4.19268 12.7975 4.41167C13.522 4.92297 14.5107 5.5489 15.4183 5.85389C16.1935 6.11439 17.1859 6.23348 17.9402 6.29127C18.1673 6.30867 18.3789 6.32091 18.5645 6.32952V9.07778C18.5645 9.492 18.9002 9.82778 19.3145 9.82778C19.7287 9.82778 20.0645 9.492 20.0645 9.07778V5.60011C20.0645 5.40112 19.9854 5.21029 19.8446 5.06962C19.7039 4.92899 19.5125 4.85002 19.3135 4.85011L19.3098 4.8501L19.2928 4.85002L19.2231 4.84933C19.1615 4.84852 19.0708 4.84687 18.9572 4.84348C18.7297 4.8367 18.4124 4.82305 18.0548 4.79565C17.3216 4.73948 16.4853 4.63 15.8961 4.43202C15.2072 4.20051 14.3673 3.68356 13.6624 3.1861C13.3185 2.94348 13.0221 2.71655 12.8119 2.55045C12.707 2.46754 12.624 2.40015 12.5679 2.35401C12.5399 2.33095 12.5185 2.31322 12.5046 2.30154L12.4892 2.28866Z" fill="#16191D"/>
</svg>
