<svg width="20" height="20" viewBox="0 0 20 20" fill="none" xmlns="http://www.w3.org/2000/svg">
<g clip-path="url(#clip0_1516_60564)">
<path d="M13.546 13.546C13.2531 13.8388 12.7782 13.8388 12.4853 13.546L10 11.0607L7.51461 13.546C7.22172 13.8389 6.74685 13.8389 6.45395 13.546C6.16106 13.2532 6.16106 12.7783 6.45395 12.4854L8.93934 10L6.45395 7.51461C6.16106 7.22172 6.16106 6.74685 6.45395 6.45395C6.74685 6.16106 7.22172 6.16106 7.51461 6.45395L10 8.93934L12.4853 6.45404C12.7782 6.16115 13.2531 6.16115 13.546 6.45404C13.8388 6.74694 13.8388 7.22181 13.546 7.51471L11.0607 10L13.546 12.4853C13.8388 12.7782 13.8388 13.2531 13.546 13.546Z" fill="#576175"/>
<path fill-rule="evenodd" clip-rule="evenodd" d="M0.00146484 15.75C0.00146484 16.9926 1.00882 18 2.25147 18H17.7515C18.9941 18 20.0015 16.9926 20.0015 15.75V4.25C20.0015 3.00736 18.9941 2 17.7515 2H2.25146C1.00882 2 0.00146484 3.00736 0.00146484 4.25V15.75ZM2.25147 16.5C1.83725 16.5 1.50146 16.1642 1.50146 15.75V4.25C1.50146 3.83579 1.83725 3.5 2.25146 3.5H17.7515C18.1657 3.5 18.5015 3.83579 18.5015 4.25V15.75C18.5015 16.1642 18.1657 16.5 17.7515 16.5H2.25147Z" fill="#576175"/>
</g>
<defs>
<clipPath id="clip0_1516_60564">
<rect width="20" height="20" fill="white"/>
</clipPath>
</defs>
</svg>
