<svg width="21" height="21" viewBox="0 0 21 21" fill="none" xmlns="http://www.w3.org/2000/svg">
<path fill-rule="evenodd" clip-rule="evenodd" d="M4.46283 4.01069C4.75573 3.71779 5.2306 3.71779 5.52349 4.01069L10.9932 9.48036L16.4628 4.01069C16.7557 3.71779 17.2306 3.71779 17.5235 4.01069C17.8164 4.30358 17.8164 4.77845 17.5235 5.07135L12.0538 10.541L17.5235 16.0107C17.8164 16.3036 17.8164 16.7785 17.5235 17.0713C17.2306 17.3642 16.7557 17.3642 16.4628 17.0713L10.9932 11.6017L5.52349 17.0713C5.2306 17.3642 4.75573 17.3642 4.46283 17.0713C4.16994 16.7785 4.16994 16.3036 4.46283 16.0107L9.9325 10.541L4.46283 5.07135C4.16994 4.77845 4.16994 4.30358 4.46283 4.01069Z" fill="#576175"/>
</svg>
