<svg width="24" height="24" viewBox="0 0 24 24" fill="none" xmlns="http://www.w3.org/2000/svg">
<path d="M5.99605 18.0046C4.53159 16.5401 4.53159 14.1657 5.99605 12.7013L7.92882 10.7685C8.22172 10.4756 8.22172 10.0007 7.92882 9.70784C7.63593 9.41494 7.16106 9.41494 6.86816 9.70784L4.93539 11.6406C2.88514 13.6909 2.88514 17.015 4.93539 19.0652C6.98565 21.1155 10.3098 21.1155 12.36 19.0652L14.2928 17.1325C14.5857 16.8396 14.5857 16.3647 14.2928 16.0718C13.9999 15.7789 13.525 15.7789 13.2321 16.0718L11.2994 18.0046C9.83489 19.469 7.46052 19.469 5.99605 18.0046Z" fill="#16191D"/>
<path d="M9.6913 6.8847C9.3984 7.1776 9.3984 7.65247 9.6913 7.94536C9.98419 8.23826 10.4591 8.23826 10.752 7.94536L12.7025 5.99483C14.167 4.53037 16.5413 4.53037 18.0058 5.99483C19.4703 7.4593 19.4703 9.83367 18.0058 11.2981L16.0691 13.2348C15.7762 13.5277 15.7762 14.0026 16.0691 14.2955C16.362 14.5884 16.8369 14.5884 17.1298 14.2955L19.0664 12.3588C21.1167 10.3085 21.1167 6.98443 19.0664 4.93417C17.0162 2.88392 13.6921 2.88392 11.6418 4.93417L9.6913 6.8847Z" fill="#16191D"/>
<path d="M8.46734 14.472C8.17445 14.7649 8.17445 15.2398 8.46734 15.5327C8.76024 15.8256 9.23511 15.8256 9.528 15.5327L15.535 9.5257C15.8279 9.23281 15.8279 8.75794 15.535 8.46504C15.2421 8.17215 14.7672 8.17215 14.4743 8.46504L8.46734 14.472Z" fill="#16191D"/>
</svg>
