<svg width="24" height="24" viewBox="0 0 24 24" fill="none" xmlns="http://www.w3.org/2000/svg">
<path fill-rule="evenodd" clip-rule="evenodd" d="M19.7109 2.99951C20.9536 2.99951 21.9609 4.00687 21.9609 5.24951V18.7495C21.9609 19.9922 20.9536 20.9995 19.7109 20.9995H4.21094C2.9683 20.9995 1.96094 19.9922 1.96094 18.7495V5.24951C1.96094 4.00687 2.9683 2.99951 4.21094 2.99951H19.7109ZM11.4648 4.49951H4.21094C3.79672 4.49951 3.46094 4.8353 3.46094 5.24951V18.7495C3.46094 19.1637 3.79672 19.4995 4.21094 19.4995H11.4648L11.4648 4.49951ZM18.2148 15.7495C18.6291 15.7495 18.9648 15.4137 18.9648 14.9995C18.9648 14.5853 18.6291 14.2495 18.2148 14.2495H15.2148C14.8006 14.2495 14.4648 14.5853 14.4648 14.9995C14.4648 15.4137 14.8006 15.7495 15.2148 15.7495H18.2148ZM18.9648 11.9995C18.9648 12.4137 18.6291 12.7495 18.2148 12.7495H15.2148C14.8006 12.7495 14.4648 12.4137 14.4648 11.9995C14.4648 11.5853 14.8006 11.2495 15.2148 11.2495H18.2148C18.6291 11.2495 18.9648 11.5853 18.9648 11.9995ZM18.2148 9.74951C18.6291 9.74951 18.9648 9.41372 18.9648 8.99951C18.9648 8.5853 18.6291 8.24951 18.2148 8.24951H15.2148C14.8006 8.24951 14.4648 8.5853 14.4648 8.99951C14.4648 9.41372 14.8006 9.74951 15.2148 9.74951H18.2148Z" fill="#16191D"/>
</svg>
