<svg width="24" height="24" viewBox="0 0 24 24" fill="none" xmlns="http://www.w3.org/2000/svg">
<path fill-rule="evenodd" clip-rule="evenodd" d="M2 12C2 6.47715 6.47715 2 12 2C17.5228 2 22 6.47715 22 12C22 17.5228 17.5228 22 12 22C6.47715 22 2 17.5228 2 12ZM10.918 3.56821C6.97881 4.06865 3.881 7.26526 3.53263 11.25H7.87091C8.07929 8.43821 9.14312 5.75732 10.918 3.56821ZM13.0885 3.56904C14.863 5.758 15.9266 8.43856 16.1349 11.25H20.4674C20.1192 7.26746 17.0246 4.07218 13.0885 3.56904ZM14.6303 11.25C14.4287 8.82647 13.514 6.51679 12.0029 4.61296C10.4919 6.51679 9.57715 8.82647 9.37553 11.25H14.6303ZM9.37561 12.75H14.6302C14.4285 15.1732 13.5138 17.4825 12.0029 19.3861C10.4921 17.4825 9.5774 15.1732 9.37561 12.75ZM7.87098 12.75H3.53263C3.88102 16.735 6.97928 19.9318 10.9189 20.4319C9.14368 18.2429 8.07957 15.5619 7.87098 12.75ZM13.0876 20.4311C14.8624 18.2422 15.9263 15.5615 16.1349 12.75H20.4674C20.1192 16.7328 17.0241 19.9283 13.0876 20.4311Z" fill="#16191D"/>
</svg>
