<svg width="24" height="24" viewBox="0 0 24 24" fill="none" xmlns="http://www.w3.org/2000/svg">
<path d="M11.4696 7.1933C11.7625 6.90041 12.2374 6.90041 12.5303 7.1933L15.5303 10.1933C15.8232 10.4862 15.8232 10.9611 15.5303 11.254C15.2374 11.5469 14.7625 11.5469 14.4696 11.254L12.7499 9.5343L12.7499 16.2759C12.7499 16.6901 12.4141 17.0259 11.9999 17.0259C11.5857 17.0259 11.2499 16.6901 11.2499 16.2759L11.2499 9.53429L9.53026 11.254C9.23737 11.5469 8.76249 11.5469 8.4696 11.254C8.17671 10.9611 8.17671 10.4862 8.4696 10.1933L11.4696 7.1933Z" fill="#16191D"/>
<path d="M2.00124 17.75C2.00124 18.9926 3.0086 20 4.25124 20H19.7512C20.9939 20 22.0012 18.9926 22.0012 17.75V6.25C22.0012 5.00736 20.9939 4 19.7512 4H4.25124C3.0086 4 2.00124 5.00736 2.00124 6.25V17.75ZM4.25124 18.5C3.83702 18.5 3.50124 18.1642 3.50124 17.75V6.25C3.50124 5.83579 3.83702 5.5 4.25124 5.5H19.7512C20.1654 5.5 20.5012 5.83579 20.5012 6.25V17.75C20.5012 18.1642 20.1654 18.5 19.7512 18.5H4.25124Z" fill="#16191D"/>
</svg>
