<svg width="20" height="21" viewBox="0 0 20 21" fill="none" xmlns="http://www.w3.org/2000/svg">
<path fill-rule="evenodd" clip-rule="evenodd" d="M14.8322 1.54102H5.16976C4.6363 1.54101 4.18959 1.541 3.82441 1.57177C3.44266 1.60393 3.08341 1.67362 2.74414 1.85189C2.22494 2.1247 1.80707 2.55769 1.54656 3.08494C1.37764 3.42682 1.31135 3.78861 1.28057 4.17714C1.25096 4.55085 1.25097 5.00899 1.25098 5.56118V15.5208C1.25097 16.073 1.25096 16.5312 1.28057 16.9049C1.31135 17.2934 1.37764 17.6552 1.54656 17.9971C1.80707 18.5243 2.22494 18.9573 2.74414 19.2301C3.08341 19.4084 3.44266 19.4781 3.82441 19.5103C4.1896 19.541 4.63628 19.541 5.16976 19.541H14.8322C15.3657 19.541 15.8124 19.541 16.1775 19.5103C16.5593 19.4781 16.9185 19.4084 17.2578 19.2301C17.777 18.9573 18.1949 18.5243 18.4554 17.9971C18.6243 17.6552 18.6906 17.2934 18.7214 16.9049C18.751 16.5312 18.751 16.073 18.751 15.5209V5.56118C18.751 5.00899 18.751 4.55085 18.7214 4.17714C18.6906 3.78861 18.6243 3.42682 18.4554 3.08494C18.1949 2.55769 17.777 2.1247 17.2578 1.85189C16.9185 1.67362 16.5593 1.60393 16.1775 1.57177C15.8124 1.541 15.3657 1.54101 14.8322 1.54102ZM6.00098 9.79102C5.58676 9.79102 5.25098 10.1268 5.25098 10.541C5.25098 10.9552 5.58676 11.291 6.00098 11.291H14.001C14.4152 11.291 14.751 10.9552 14.751 10.541C14.751 10.1268 14.4152 9.79102 14.001 9.79102H6.00098Z" fill="#576175"/>
</svg>
