<svg width="24" height="24" viewBox="0 0 24 24" fill="none" xmlns="http://www.w3.org/2000/svg">
<path fill-rule="evenodd" clip-rule="evenodd" d="M8.44721 3.14936C8.7401 2.85646 9.21498 2.85646 9.50787 3.14936L12.5079 6.14936C12.8008 6.44225 12.8008 6.91712 12.5079 7.21002C12.215 7.50291 11.7401 7.50291 11.4472 7.21002L8.97754 4.74035L6.50787 7.21002C6.21498 7.50291 5.7401 7.50291 5.44721 7.21002C5.15432 6.91712 5.15432 6.44225 5.44721 6.14936L8.44721 3.14936Z" fill="#16191D"/>
<path fill-rule="evenodd" clip-rule="evenodd" d="M8.97754 2.96484C9.39176 2.96484 9.72754 3.30063 9.72754 3.71484L9.72754 12.2319C9.72754 12.6461 9.39175 12.9819 8.97754 12.9819C8.56333 12.9819 8.22754 12.6461 8.22754 12.2319L8.22754 3.71484C8.22754 3.30063 8.56333 2.96484 8.97754 2.96484Z" fill="#16191D"/>
<path fill-rule="evenodd" clip-rule="evenodd" d="M14.4619 20.7549C14.7548 21.0478 15.2296 21.0478 15.5225 20.7549L18.5225 17.7549C18.8154 17.462 18.8154 16.9872 18.5225 16.6943C18.2296 16.4014 17.7548 16.4014 17.4619 16.6943L14.9922 19.1639L12.5225 16.6943C12.2296 16.4014 11.7548 16.4014 11.4619 16.6943C11.169 16.9872 11.169 17.462 11.4619 17.7549L14.4619 20.7549Z" fill="#16191D"/>
<path fill-rule="evenodd" clip-rule="evenodd" d="M14.9921 20.459C14.5779 20.459 14.2421 20.1232 14.2421 19.709L14.2421 11.7358C14.2421 11.3216 14.5779 10.9858 14.9921 10.9858C15.4063 10.9858 15.7421 11.3216 15.7421 11.7358L15.7421 19.709C15.7421 20.1232 15.4063 20.459 14.9921 20.459Z" fill="#16191D"/>
</svg>
