<svg width="24" height="24" viewBox="0 0 24 24" fill="none" xmlns="http://www.w3.org/2000/svg">
<path fill-rule="evenodd" clip-rule="evenodd" d="M9 21.2462C9 20.8319 9.33579 20.4962 9.75 20.4962H14.25C14.6642 20.4962 15 20.8319 15 21.2462C15 21.6604 14.6642 21.9962 14.25 21.9962H9.75C9.33579 21.9962 9 21.6604 9 21.2462Z" fill="#16191D"/>
<path fill-rule="evenodd" clip-rule="evenodd" d="M6.75 8.75635C6.75 5.85685 9.10051 3.50635 12 3.50635C14.8995 3.50635 17.25 5.85685 17.25 8.75635C17.25 10.2891 16.5941 11.6676 15.5454 12.6284C14.8678 13.2493 14.2613 14.1523 14.2613 15.2416V15.9964C14.2613 16.8248 13.5898 17.4964 12.7613 17.4964H12.75L12.75 11.4741L13.916 10.6968C14.2607 10.467 14.3538 10.0014 14.124 9.65673C13.8943 9.31208 13.4286 9.21895 13.084 9.44872L12 10.1714L10.916 9.44872C10.5714 9.21895 10.1057 9.31208 9.87596 9.65673C9.6462 10.0014 9.73933 10.467 10.084 10.6968L11.25 11.4741L11.25 17.4964H11.2391C10.4106 17.4964 9.73907 16.8248 9.73907 15.9964V15.2419C9.73907 14.1526 9.13251 13.2495 8.4548 12.6286C7.40597 11.6678 6.75 10.2892 6.75 8.75635ZM12 2.00635C8.27208 2.00635 5.25 5.02843 5.25 8.75635C5.25 10.7272 6.09562 12.5016 7.44154 13.7346C7.94579 14.1966 8.23907 14.7284 8.23907 15.2419V15.9964C8.23907 17.6533 9.58222 18.9964 11.2391 18.9964H12.7613C14.4182 18.9964 15.7613 17.6533 15.7613 15.9964V15.2416C15.7613 14.728 16.0546 14.1963 16.5587 13.7344C17.9045 12.5014 18.75 10.7271 18.75 8.75635C18.75 5.02843 15.7279 2.00635 12 2.00635Z" fill="#16191D"/>
</svg>
