<svg width="21" height="21" viewBox="0 0 21 21" fill="none" xmlns="http://www.w3.org/2000/svg">
<g clip-path="url(#clip0_1505_60939)">
<path d="M15.5235 8.07135C15.8164 7.77845 15.8164 7.30358 15.5235 7.01069C15.2306 6.71779 14.7557 6.71779 14.4628 7.01069L9.49316 11.9804L7.52349 10.0107C7.2306 9.71779 6.75573 9.71779 6.46283 10.0107C6.16994 10.3036 6.16994 10.7785 6.46283 11.0713L8.96283 13.5713C9.25573 13.8642 9.7306 13.8642 10.0235 13.5713L15.5235 8.07135Z" fill="#576175"/>
<path fill-rule="evenodd" clip-rule="evenodd" d="M10.9932 0.541016C5.47032 0.541016 0.993164 5.01817 0.993164 10.541C0.993164 16.0639 5.47032 20.541 10.9932 20.541C16.516 20.541 20.9932 16.0639 20.9932 10.541C20.9932 5.01817 16.516 0.541016 10.9932 0.541016ZM2.49316 10.541C2.49316 5.8466 6.29874 2.04102 10.9932 2.04102C15.6876 2.04102 19.4932 5.8466 19.4932 10.541C19.4932 15.2354 15.6876 19.041 10.9932 19.041C6.29874 19.041 2.49316 15.2354 2.49316 10.541Z" fill="#576175"/>
</g>
<defs>
<clipPath id="clip0_1505_60939">
<rect width="20" height="20" fill="white" transform="translate(0.993164 0.541016)"/>
</clipPath>
</defs>
</svg>
