<svg width="24" height="24" viewBox="0 0 24 24" fill="none" xmlns="http://www.w3.org/2000/svg">
<path fill-rule="evenodd" clip-rule="evenodd" d="M5.5 1.99951C4.25736 1.99951 3.25 3.00687 3.25 4.24951V19.7495C3.25 20.9922 4.25736 21.9995 5.5 21.9995H18.5C19.7426 21.9995 20.75 20.9922 20.75 19.7495V4.24951C20.75 3.00687 19.7426 1.99951 18.5 1.99951H5.5ZM4.75 4.24951C4.75 3.8353 5.08579 3.49951 5.5 3.49951H7.24609L7.24609 20.4995H5.5C5.08579 20.4995 4.75 20.1637 4.75 19.7495V4.24951ZM17.3398 15.7651C17.3398 16.1793 17.0041 16.5151 16.5898 16.5151H10.9977C10.5834 16.5151 10.2477 16.1793 10.2477 15.7651C10.2477 15.3509 10.5834 15.0151 10.9977 15.0151H16.5898C17.0041 15.0151 17.3398 15.3509 17.3398 15.7651ZM14.6992 12.7192C15.1134 12.7192 15.4492 12.3835 15.4492 11.9692C15.4492 11.555 15.1134 11.2192 14.6992 11.2192H10.9961C10.5819 11.2192 10.2461 11.555 10.2461 11.9692C10.2461 12.3835 10.5819 12.7192 10.9961 12.7192H14.6992Z" fill="#16191D"/>
</svg>
