<svg width="24" height="24" viewBox="0 0 24 24" fill="none" xmlns="http://www.w3.org/2000/svg">
<path fill-rule="evenodd" clip-rule="evenodd" d="M12.001 1.99854C6.47759 1.99854 2 6.47612 2 11.9995C2 17.5229 6.47759 22.0005 12.001 22.0005C17.5244 22.0005 22.002 17.5229 22.002 11.9995C22.002 6.47612 17.5244 1.99854 12.001 1.99854ZM16.5751 8.54519C16.892 7.83354 16.1644 7.10602 15.4528 7.42298L10.7951 9.49762C10.1665 9.77761 9.66578 10.2831 9.39167 10.9142L7.41568 15.4641C7.10845 16.1716 7.82637 16.8896 8.53382 16.5824L13.084 14.607C13.7154 14.3329 14.2211 13.832 14.5011 13.2031L16.5751 8.54519Z" fill="#16191D"/>
</svg>
