<svg width="24" height="24" viewBox="0 0 24 24" fill="none" xmlns="http://www.w3.org/2000/svg">
<path d="M3.25 4.25C3.25 3.00736 4.25736 2 5.5 2H18.5C19.7426 2 20.75 3.00736 20.75 4.25V16.7267C20.7513 16.7447 20.752 16.7629 20.752 16.7812C20.752 17.1955 20.4162 17.5312 20.002 17.5312H18.997C18.9581 17.6184 18.9155 17.7178 18.8728 17.8247C18.7146 18.2206 18.5901 18.6338 18.579 18.9196C18.5697 19.1581 18.633 19.4779 18.7337 19.8127C18.7698 19.9326 18.8106 20.0543 18.8546 20.1749C18.8997 20.2984 18.9452 20.4132 18.9873 20.5142H20.002C20.4162 20.5142 20.752 20.8499 20.752 21.2642C20.752 21.6784 20.4162 22.0142 20.002 22.0142H6.24145C4.66579 22.0142 3.37465 20.7959 3.25851 19.25H3.25V4.25ZM17.3837 20.5142C17.2229 20.0431 17.0582 19.4235 17.0801 18.8612C17.0976 18.411 17.2378 17.9237 17.3797 17.5312H6.24145C5.41775 17.5312 4.75 18.199 4.75 19.0227C4.75 19.8464 5.41775 20.5142 6.24145 20.5142H17.3837ZM15.293 10.7861H9.29297C8.87876 10.7861 8.54297 11.1219 8.54297 11.5361C8.54297 11.9503 8.87876 12.2861 9.29297 12.2861H15.293C15.7072 12.2861 16.043 11.9503 16.043 11.5361C16.043 11.1219 15.7072 10.7861 15.293 10.7861ZM13.7461 8.53613C13.7461 8.12192 13.4103 7.78613 12.9961 7.78613H9.29297C8.87876 7.78613 8.54297 8.12192 8.54297 8.53613C8.54297 8.95035 8.87876 9.28613 9.29297 9.28613H12.9961C13.4103 9.28613 13.7461 8.95035 13.7461 8.53613Z" fill="#16191D"/>
</svg>
