<svg width="24" height="24" viewBox="0 0 24 24" fill="none" xmlns="http://www.w3.org/2000/svg">
<path d="M15.5462 15.5463C15.2533 15.8392 14.7784 15.8392 14.4855 15.5463L12.0005 13.0613L9.51487 15.547C9.22197 15.8399 8.7471 15.8399 8.45421 15.547C8.16131 15.2541 8.16131 14.7793 8.45421 14.4864L10.9399 12.0007L8.4542 9.51499C8.16131 9.22209 8.16131 8.74722 8.4542 8.45433C8.74709 8.16143 9.22197 8.16143 9.51486 8.45433L12.0006 10.94L14.4855 8.45502C14.7784 8.16213 15.2533 8.16213 15.5462 8.45502C15.8391 8.74791 15.8391 9.22279 15.5462 9.51568L13.0612 12.0007L15.5462 14.4857C15.8391 14.7786 15.8391 15.2534 15.5462 15.5463Z" fill="#16191D"/>
<path d="M2.00122 17.7505C2.00122 18.9931 3.00858 20.0005 4.25122 20.0005H19.7512C20.9939 20.0005 22.0012 18.9931 22.0012 17.7505V6.25049C22.0012 5.00785 20.9939 4.00049 19.7512 4.00049H4.25122C3.00858 4.00049 2.00122 5.00785 2.00122 6.25049V17.7505ZM4.25122 18.5005C3.83701 18.5005 3.50122 18.1647 3.50122 17.7505V6.25049C3.50122 5.83628 3.83701 5.50049 4.25122 5.50049H19.7512C20.1654 5.50049 20.5012 5.83628 20.5012 6.25049V17.7505C20.5012 18.1647 20.1654 18.5005 19.7512 18.5005H4.25122Z" fill="#16191D"/>
</svg>
