<svg width="24" height="24" viewBox="0 0 24 24" fill="none" xmlns="http://www.w3.org/2000/svg">
<path d="M19.7109 3C20.9536 3 21.9609 4.00736 21.9609 5.25V18.75C21.9609 19.9926 20.9536 21 19.7109 21H4.21094C2.9683 21 1.96094 19.9926 1.96094 18.75V5.25C1.96094 4.00736 2.9683 3 4.21094 3H19.7109ZM11.4648 4.5H4.21094C3.79672 4.5 3.46094 4.83579 3.46094 5.25V18.75C3.46094 19.1642 3.79672 19.5 4.21094 19.5H11.4648L11.4648 4.5ZM18.2148 15.75C18.6291 15.75 18.9648 15.4142 18.9648 15C18.9648 14.5858 18.6291 14.25 18.2148 14.25H15.2148C14.8006 14.25 14.4648 14.5858 14.4648 15C14.4648 15.4142 14.8006 15.75 15.2148 15.75H18.2148ZM18.9648 12C18.9648 11.5858 18.6291 11.25 18.2148 11.25H15.2148C14.8006 11.25 14.4648 11.5858 14.4648 12C14.4648 12.4142 14.8006 12.75 15.2148 12.75H18.2148C18.6291 12.75 18.9648 12.4142 18.9648 12ZM18.2148 9.75C18.6291 9.75 18.9648 9.41421 18.9648 9C18.9648 8.58579 18.6291 8.25 18.2148 8.25H15.2148C14.8006 8.25 14.4648 8.58579 14.4648 9C14.4648 9.41421 14.8006 9.75 15.2148 9.75H18.2148Z" fill="#16191D"/>
</svg>
