<svg width="24" height="24" viewBox="0 0 24 24" fill="none" xmlns="http://www.w3.org/2000/svg">
<path d="M13.7129 16.4744C13.42 16.7672 13.4198 17.242 13.7126 17.535C14.0054 17.828 14.4803 17.8282 14.7733 17.5354L19.7766 12.5354C19.9173 12.3947 19.9964 12.2039 19.9964 12.0049C19.9964 11.8059 19.9173 11.615 19.7766 11.4744L14.7733 6.47438C14.4803 6.18158 14.0054 6.18174 13.7126 6.47473C13.4198 6.76772 13.42 7.24259 13.7129 7.53539L17.4302 11.2501L4.74748 11.25C4.33326 11.25 3.99747 11.5858 3.99747 12C3.99746 12.4142 4.33325 12.75 4.74746 12.75L17.4397 12.7501L13.7129 16.4744Z" fill="#16191D"/>
</svg>
