<svg width="24" height="24" viewBox="0 0 24 24" fill="none" xmlns="http://www.w3.org/2000/svg">
<path d="M18.25 3.74951V12.603C17.0957 12.9295 16.25 13.9907 16.25 15.2495C16.25 16.5083 17.0957 17.5695 18.25 17.896V20.2495C18.25 20.6637 18.5858 20.9995 19 20.9995C19.4142 20.9995 19.75 20.6637 19.75 20.2495V17.896C20.9043 17.5695 21.75 16.5083 21.75 15.2495C21.75 13.9907 20.9043 12.9295 19.75 12.603V3.74951C19.75 3.3353 19.4142 2.99951 19 2.99951C18.5858 2.99951 18.25 3.3353 18.25 3.74951Z" fill="#16191D"/>
<path d="M5.75 11.103C6.90425 11.4295 7.75 12.4907 7.75 13.7495C7.75 15.0083 6.90425 16.0695 5.75 16.396L5.75 20.2495C5.75 20.6637 5.41421 20.9995 5 20.9995C4.58579 20.9995 4.25 20.6637 4.25 20.2495L4.25 16.396C3.09575 16.0695 2.25 15.0083 2.25 13.7495C2.25 12.4907 3.09575 11.4295 4.25 11.103L4.25 3.75C4.25 3.33579 4.58579 3 5 3C5.41421 3 5.75 3.33579 5.75 3.75L5.75 11.103Z" fill="#16191D"/>
<path d="M11.25 20.2495C11.25 20.6637 11.5858 20.9995 12 20.9995C12.4142 20.9995 12.75 20.6637 12.75 20.2495L12.75 11.396C13.9043 11.0695 14.75 10.0083 14.75 8.74951C14.75 7.49073 13.9043 6.42949 12.75 6.10303V3.74951C12.75 3.3353 12.4142 2.99951 12 2.99951C11.5858 2.99951 11.25 3.3353 11.25 3.74951V6.10303C10.0957 6.42949 9.25 7.49073 9.25 8.74951C9.25 10.0083 10.0957 11.0695 11.25 11.396L11.25 20.2495Z" fill="#16191D"/>
</svg>
