<svg width="24" height="24" viewBox="0 0 24 24" fill="none" xmlns="http://www.w3.org/2000/svg">
<path d="M18.25 3.75V12.6035C17.0957 12.93 16.25 13.9912 16.25 15.25C16.25 16.5088 17.0957 17.57 18.25 17.8965V20.25C18.25 20.6642 18.5858 21 19 21C19.4142 21 19.75 20.6642 19.75 20.25V17.8965C20.9043 17.57 21.75 16.5088 21.75 15.25C21.75 13.9912 20.9043 12.93 19.75 12.6035V3.75C19.75 3.33579 19.4142 3 19 3C18.5858 3 18.25 3.33579 18.25 3.75Z" fill="#16191D"/>
<path d="M5.75 11.1035C6.90425 11.43 7.75 12.4912 7.75 13.75C7.75 15.0088 6.90425 16.07 5.75 16.3965L5.75 20.25C5.75 20.6642 5.41421 21 5 21C4.58579 21 4.25 20.6642 4.25 20.25L4.25 16.3965C3.09575 16.07 2.25 15.0088 2.25 13.75C2.25 12.4912 3.09575 11.43 4.25 11.1035L4.25 3.75049C4.25 3.33627 4.58579 3.00049 5 3.00049C5.41421 3.00049 5.75 3.33627 5.75 3.75049L5.75 11.1035Z" fill="#16191D"/>
<path d="M11.25 20.25C11.25 20.6642 11.5858 21 12 21C12.4142 21 12.75 20.6642 12.75 20.25L12.75 11.3965C13.9043 11.07 14.75 10.0088 14.75 8.75C14.75 7.49122 13.9043 6.42998 12.75 6.10352V3.75C12.75 3.33579 12.4142 3 12 3C11.5858 3 11.25 3.33579 11.25 3.75V6.10352C10.0957 6.42998 9.25 7.49122 9.25 8.75C9.25 10.0088 10.0957 11.07 11.25 11.3965L11.25 20.25Z" fill="#16191D"/>
</svg>
