<svg width="24" height="24" viewBox="0 0 24 24" fill="none" xmlns="http://www.w3.org/2000/svg">
<path d="M3.22602 13.5264C2.93312 13.2336 2.93312 12.7587 3.22602 12.4658L7.22602 8.46577C7.51891 8.17287 7.99378 8.17287 8.28668 8.46576C8.57957 8.75866 8.57958 9.23353 8.28668 9.52643L5.56717 12.246H17.2338C18.4764 12.246 19.4838 11.2386 19.4838 9.99595V6.92285C19.4838 6.50864 19.8195 6.17285 20.2338 6.17285C20.648 6.17285 20.9838 6.50864 20.9838 6.92285V9.99595C20.9838 12.067 19.3048 13.746 17.2338 13.746H5.56685L8.28668 16.4658C8.57958 16.7587 8.57957 17.2336 8.28668 17.5265C7.99378 17.8194 7.51891 17.8194 7.22602 17.5265L3.22602 13.5264Z" fill="#16191D"/>
</svg>
