<svg width="24" height="24" viewBox="0 0 24 24" fill="none" xmlns="http://www.w3.org/2000/svg">
<path fill-rule="evenodd" clip-rule="evenodd" d="M3.4179 5.44446C2.6184 4.46473 3.31551 2.99609 4.58005 2.99609H19.4163C20.6821 2.99609 21.3788 4.46729 20.5767 5.44655L14.9962 12.26L14.9988 17.7009C14.9991 18.2875 14.6573 18.8205 14.1241 19.065L11.1228 20.4416C10.1305 20.8967 8.99983 20.1731 8.99748 19.0814L8.98279 12.2638L3.4179 5.44446ZM19.4163 4.49609H4.58005L10.1449 11.3154C10.3627 11.5823 10.482 11.9161 10.4828 12.2606L10.4975 19.0781L13.4988 17.7016L13.4962 12.2607C13.496 11.9139 13.616 11.5778 13.8358 11.3095L19.4163 4.49609Z" fill="#16191D"/>
</svg>
