<svg width="24" height="24" viewBox="0 0 24 24" fill="none" xmlns="http://www.w3.org/2000/svg">
<path d="M10.2812 17.535C10.574 17.242 10.5739 16.7672 10.2809 16.4744L5.80842 12.0049L10.2809 7.53539C10.5739 7.24259 10.574 6.76772 10.2812 6.47473C9.98844 6.18174 9.51357 6.18158 9.22058 6.47438L4.21726 11.4744C4.0765 11.615 3.99741 11.8059 3.99741 12.0049C3.99741 12.2039 4.0765 12.3947 4.21726 12.5354L9.22058 17.5354C9.51357 17.8282 9.98844 17.828 10.2812 17.535Z" fill="#16191D"/>
<path d="M4.38745 12.0002C4.38746 12.4144 4.72325 12.7502 5.13746 12.7502L19.2464 12.75C19.6606 12.75 19.9964 12.4142 19.9964 12C19.9964 11.5858 19.6606 11.25 19.2464 11.25L5.13744 11.2502C4.72323 11.2502 4.38745 11.5859 4.38745 12.0002Z" fill="#16191D"/>
</svg>
