<svg width="21" height="21" viewBox="0 0 21 21" fill="none" xmlns="http://www.w3.org/2000/svg">
<path fill-rule="evenodd" clip-rule="evenodd" d="M16.5229 16.5735C16.2299 16.8663 15.755 16.8661 15.4622 16.5731L10.9927 12.1007L6.52326 16.5731C6.23046 16.8661 5.75559 16.8663 5.4626 16.5735C5.16961 16.2807 5.16945 15.8058 5.46224 15.5128L10.4622 10.5095C10.6029 10.3687 10.7937 10.2896 10.9927 10.2896C11.1917 10.2896 11.3826 10.3687 11.5232 10.5095L16.5232 15.5128C16.816 15.8058 16.8159 16.2807 16.5229 16.5735ZM16.5238 10.5723C16.2308 10.8651 15.7559 10.8649 15.4631 10.5719L10.9937 6.09948L6.52416 10.5719C6.23136 10.8649 5.75649 10.8651 5.4635 10.5723C5.17051 10.2795 5.17035 9.80463 5.46315 9.51164L10.4631 4.50832C10.6038 4.36756 10.7947 4.28847 10.9937 4.28847C11.1927 4.28847 11.3835 4.36756 11.5242 4.50832L16.5242 9.51164C16.817 9.80463 16.8168 10.2795 16.5238 10.5723Z" fill="#576175"/>
</svg>
