<svg width="24" height="24" viewBox="0 0 24 24" fill="none" xmlns="http://www.w3.org/2000/svg">
<path d="M17.7283 8.33706C17.615 7.03546 17.0682 5.85805 16.2329 4.95009L17.6146 3.56842C17.9075 3.27552 17.9075 2.80065 17.6146 2.50776C17.3217 2.21486 16.8468 2.21486 16.5539 2.50776L15.0777 3.984C14.1878 3.41909 13.1322 3.09194 12.0001 3.09194C10.9112 3.09194 9.89301 3.39462 9.02504 3.92044L7.61249 2.5079C7.3196 2.215 6.84472 2.215 6.55183 2.5079C6.25894 2.80079 6.25894 3.27566 6.55183 3.56856L7.84774 4.86447C6.96724 5.78344 6.38881 6.99415 6.27199 8.33706H5.26356C4.9938 8.33706 4.74482 8.19218 4.61152 7.95765L3.90608 6.71646C3.7014 6.35635 3.24355 6.23034 2.88344 6.43501C2.52333 6.63969 2.39732 7.09754 2.60199 7.45765L3.30744 8.69884C3.70733 9.40243 4.45427 9.83706 5.26356 9.83706H6.00945C4.96219 11.1476 4.33607 12.8093 4.33607 14.6173C4.33607 15.6551 4.54236 16.6446 4.91606 17.547L3.20027 19.2628C2.90738 19.5557 2.90738 20.0305 3.20027 20.3234C3.49316 20.6163 3.96804 20.6163 4.26093 20.3234L5.66012 18.9242C6.47284 20.118 7.6138 21.07 8.95256 21.6507L9.58117 21.9233L9.90935 21.3218C10.0472 21.0691 10.1807 20.8137 10.3096 20.5556C11.4622 20.8837 12.6859 20.8694 13.8304 20.5148C13.9555 20.7663 14.0849 21.0153 14.2184 21.2617L14.5527 21.8786L15.1904 21.5861C16.4669 21.0007 17.5552 20.0745 18.3386 18.9237L19.739 20.3241C20.0319 20.617 20.5068 20.617 20.7996 20.3241C21.0925 20.0312 21.0925 19.5563 20.7996 19.2634L19.0825 17.5463C19.456 16.644 19.6622 15.6548 19.6622 14.6173C19.6622 12.8093 19.0361 11.1475 17.9889 9.83706H18.7367C19.546 9.83706 20.2929 9.40243 20.6928 8.69884L21.3983 7.45765C21.6029 7.09754 21.4769 6.63969 21.1168 6.43501C20.7567 6.23034 20.2989 6.35635 20.0942 6.71646L19.3887 7.95765C19.2554 8.19218 19.0065 8.33706 18.7367 8.33706H17.7283ZM13.1985 19.136C12.462 19.3308 11.689 19.3429 10.947 19.1714C11.4041 18.0893 11.7841 16.9667 12.0802 15.8107C12.3731 16.9541 12.7481 18.0648 13.1985 19.136ZM12.0001 4.59194C14.1324 4.59194 15.898 6.16223 16.2034 8.20948C15.1726 7.53182 13.9685 7.09617 12.6719 6.98335L12.6691 6.95277L12.0889 6.954L11.4925 6.93902L11.4896 6.97088C10.1318 7.06003 8.87054 7.50282 7.79709 8.20803C8.10314 6.16149 9.86834 4.59194 12.0001 4.59194ZM12.8302 9.83262C12.8302 9.39023 12.843 8.95089 12.8681 8.51495C15.8603 8.93709 18.1622 11.5085 18.1622 14.6173C18.1622 16.8503 16.9747 18.8071 15.1943 19.8887C13.6816 16.8626 12.8302 13.448 12.8302 9.83262ZM11.2911 8.49443C11.3171 8.93711 11.3302 9.38329 11.3302 9.83262C11.3302 13.4775 10.4649 16.9183 8.92895 19.9626C7.07955 18.898 5.83607 16.9022 5.83607 14.6173C5.83607 11.453 8.22083 8.8456 11.2911 8.49443Z" fill="#16191D"/>
</svg>
