<svg width="24" height="24" viewBox="0 0 24 24" fill="none" xmlns="http://www.w3.org/2000/svg">
<path d="M8.07891 4.17798C8.32421 3.47546 8.98696 3.00488 9.73108 3.00488L16.2198 3.00489C17.5293 3.00489 18.3748 4.3903 17.7762 5.55491L14.8467 11.2542H17.2703C18.3903 11.2542 18.9451 12.614 18.1447 13.3975L10.6182 20.7648C9.75958 21.6052 8.32539 20.8686 8.50837 19.6811L9.57579 12.7542H6.84477C5.9841 12.7542 5.38092 11.9047 5.66465 11.0921L8.07891 4.17798ZM9.73108 4.50488C9.62478 4.50488 9.5301 4.57211 9.49506 4.67247L7.19687 11.2542H9.86726C10.6335 11.2542 11.2194 11.9373 11.1027 12.6946L10.1052 19.168L16.6575 12.7542H14.4371C13.5018 12.7542 12.8978 11.7646 13.3254 10.9327L16.4421 4.86918C16.5277 4.70281 16.4069 4.50489 16.2198 4.50489L9.73108 4.50488Z" fill="#16191D"/>
<path d="M9.49506 4.67247C9.5301 4.57211 9.62478 4.50488 9.73108 4.50488L16.2198 4.50489C16.4069 4.50489 16.5277 4.70281 16.4421 4.86918L13.3254 10.9327C12.8978 11.7646 13.5018 12.7542 14.4371 12.7542H16.6575L10.1052 19.168L11.1027 12.6946C11.2194 11.9373 10.6335 11.2542 9.86726 11.2542H7.19687L9.49506 4.67247Z" fill="#16191D"/>
</svg>
