<svg width="24" height="24" viewBox="0 0 24 24" fill="none" xmlns="http://www.w3.org/2000/svg">
<path fill-rule="evenodd" clip-rule="evenodd" d="M10.5 2.25C5.94365 2.25 2.25 5.94365 2.25 10.5C2.25 15.0563 5.94365 18.75 10.5 18.75C12.5081 18.75 14.3486 18.0326 15.7792 16.84L20.4697 21.5304C20.7626 21.8233 21.2374 21.8233 21.5303 21.5304C21.8232 21.2376 21.8232 20.7627 21.5303 20.4698L16.8399 15.7794C18.0325 14.3487 18.75 12.5082 18.75 10.5C18.75 5.94365 15.0563 2.25 10.5 2.25ZM3.75 10.5C3.75 6.77208 6.77208 3.75 10.5 3.75C14.2279 3.75 17.25 6.77208 17.25 10.5C17.25 14.2279 14.2279 17.25 10.5 17.25C6.77208 17.25 3.75 14.2279 3.75 10.5Z" fill="#16191D"/>
</svg>
