<svg width="24" height="24" viewBox="0 0 24 24" fill="none" xmlns="http://www.w3.org/2000/svg">
<path fill-rule="evenodd" clip-rule="evenodd" d="M11.3724 16.1291C11.5697 16.18 11.7902 16.2389 12.0245 16.3048C12.9181 16.5563 13.9627 16.8967 14.7016 17.2718C16.0532 17.9579 17.7344 19.441 18.5268 20.1789C19.054 20.6698 20.0223 20.6593 20.4132 19.8549C20.9386 18.7733 21.8479 16.2064 21.8754 11.3692C21.903 6.50305 20.9582 3.99411 20.4062 2.94734C19.9976 2.17272 19.0587 2.18524 18.5483 2.66092C17.7664 3.38963 16.0665 4.89235 14.7022 5.58354C13.9632 5.95791 12.9187 6.2972 12.0252 6.54768C11.5852 6.67103 11.194 6.76953 10.9132 6.83712C10.7729 6.87088 10.6605 6.89683 10.5837 6.91423L10.5693 6.91748H6.62891C4.14362 6.91748 2.12891 8.9322 2.12891 11.4175C2.12891 13.7231 3.86291 15.6238 6.09797 15.8865L8.11946 21.064C8.40542 21.7964 9.40651 21.8842 9.81565 21.2128L11.1898 18.9578C11.3092 18.7618 11.3724 18.5368 11.3724 18.3073V16.1291ZM9.87598 14.4175L9.87598 8.41748H6.62891C4.97205 8.41748 3.62891 9.76063 3.62891 11.4175C3.62891 13.0743 4.97205 14.4175 6.62891 14.4175H9.87598Z" fill="#16191D"/>
</svg>
