<svg width="24" height="24" viewBox="0 0 24 24" fill="none" xmlns="http://www.w3.org/2000/svg">
<path d="M19.2066 18.7414C19.1571 19.0472 18.9247 19.2912 18.6216 19.3553C14.7811 20.1685 10.8465 19.0826 7.88427 16.1203C4.92357 13.1596 3.82255 9.23331 4.64236 5.38664C4.70682 5.08421 4.95028 4.85234 5.2555 4.8027L5.36596 4.78489C5.43619 4.77362 5.5369 4.75754 5.65919 4.73825C5.90362 4.6997 6.23499 4.64821 6.58184 4.59661C6.92798 4.54511 7.29287 4.49301 7.60331 4.45351C7.89404 4.41653 8.18967 4.38335 8.36458 4.38282C8.8581 4.38133 9.32598 4.52115 9.72112 4.76982C9.89598 4.87958 10.0321 5.03486 10.1252 5.15346C10.2289 5.28561 10.33 5.43903 10.4251 5.59798C10.616 5.91685 10.8098 6.30317 10.9822 6.68925C11.1551 7.0764 11.3134 7.47902 11.4301 7.83437C11.5358 8.15659 11.6411 8.53691 11.6402 8.83326C11.6394 9.09093 11.5064 9.33016 11.288 9.46681L9.58184 10.5341C9.90606 11.4466 10.4326 12.3019 11.1627 13.032C11.8292 13.6986 12.5986 14.1949 13.4206 14.5226L14.5334 12.7224C14.6696 12.502 14.91 12.3675 15.1691 12.3667C15.4896 12.3657 15.89 12.4775 16.2378 12.5966C16.6151 12.7259 17.0368 12.9022 17.4393 13.0972C17.8402 13.2914 18.2402 13.5128 18.5681 13.7368C18.7317 13.8485 18.89 13.9694 19.0251 14.0964C19.1495 14.2135 19.3027 14.3801 19.3976 14.5908C19.5449 14.9155 19.6218 15.2723 19.6206 15.6412C19.6201 15.8186 19.5876 16.1141 19.551 16.4058C19.512 16.7163 19.4606 17.0798 19.4099 17.4241C19.359 17.7692 19.3082 18.0982 19.2702 18.3408C19.2511 18.4622 19.2353 18.5621 19.2242 18.6318L19.2066 18.7414ZM17.808 17.9819C17.8425 17.7602 17.8842 17.4879 17.9259 17.2053C17.976 16.8654 18.0257 16.514 18.0627 16.2191C18.102 15.9055 18.1204 15.7052 18.1207 15.6366C18.1211 15.4899 18.0927 15.3547 18.0422 15.2348C18.0347 15.2261 18.0206 15.2109 17.9974 15.1891C17.9376 15.1328 17.8466 15.0604 17.7222 14.9755C17.474 14.806 17.1435 14.6206 16.7854 14.4472C16.429 14.2745 16.0635 14.1225 15.7516 14.0157C15.6757 13.9897 15.6048 13.967 15.5395 13.9476L14.3801 15.8233C14.2013 16.1126 13.8503 16.2454 13.5248 16.1468C12.2697 15.7669 11.0908 15.0815 10.102 14.0927C9.04194 13.0326 8.33085 11.7527 7.97018 10.3971C7.88556 10.0791 8.01818 9.74301 8.2972 9.56846L10.0567 8.46774C10.0414 8.4161 10.0241 8.36082 10.0049 8.30219C9.90707 8.00424 9.7685 7.65006 9.61256 7.30085C9.45616 6.95059 9.28929 6.62102 9.13807 6.36841C9.06217 6.24162 8.99686 6.1454 8.94516 6.07952C8.92267 6.05086 8.90735 6.0339 8.89932 6.02538C8.74631 5.93471 8.5649 5.88222 8.36913 5.88282C8.30515 5.88301 8.10747 5.90147 7.7926 5.94152C7.49744 5.97907 7.14444 6.02941 6.80257 6.08028C6.51593 6.12292 6.23943 6.16558 6.01502 6.20074C5.4943 9.38635 6.47289 12.5876 8.94493 15.0597C11.4151 17.5299 14.6227 18.499 17.808 17.9819Z" fill="#16191D"/>
</svg>
