<svg width="24" height="24" viewBox="0 0 24 24" fill="none" xmlns="http://www.w3.org/2000/svg">
<path fill-rule="evenodd" clip-rule="evenodd" d="M2.13788 13.475C1.9566 13.2238 1.94847 12.8869 2.11741 12.6272C4.25802 9.33658 7.80807 7.32227 11.9973 7.32227C16.1844 7.32227 19.7393 9.32006 21.8796 12.6198C22.0478 12.8792 22.0397 13.2153 21.8589 13.4662L21.7934 13.5569C21.7517 13.6146 21.6919 13.6971 21.619 13.7973C21.4735 13.9973 21.2756 14.2681 21.0668 14.5498C20.8584 14.831 20.6373 15.1259 20.4457 15.3733C20.2663 15.605 20.0807 15.8375 19.9574 15.9616C19.6095 16.3116 19.1797 16.5436 18.7245 16.6471C18.5233 16.6932 18.3172 16.6796 18.1675 16.6616C18.0008 16.6415 17.8208 16.6045 17.6411 16.5593C17.2807 16.4688 16.8704 16.3327 16.4755 16.1816C16.0795 16.0301 15.6829 15.8574 15.3491 15.6886C15.0465 15.5355 14.7031 15.341 14.4942 15.1309C14.3126 14.9481 14.2375 14.6849 14.2953 14.4338L14.747 12.4727C13.8726 12.0567 12.8954 11.8242 11.8629 11.8242C10.9203 11.8242 10.0252 12.0173 9.21228 12.3668L9.69843 14.4266C9.75795 14.6788 9.68308 14.9439 9.50042 15.1276C9.27447 15.355 8.91232 15.5591 8.5821 15.7207C8.22393 15.8961 7.80107 16.0696 7.3786 16.2164C6.95783 16.3626 6.51832 16.4888 6.12816 16.5623C5.93353 16.599 5.73604 16.6255 5.5507 16.6311C5.37994 16.6364 5.15379 16.6269 4.9377 16.5449C4.60399 16.4196 4.29735 16.2216 4.03728 15.96C3.91223 15.8342 3.72624 15.6022 3.54583 15.37C3.35384 15.1229 3.13313 14.8295 2.92558 14.5502C2.7176 14.2702 2.52081 14.0016 2.37615 13.8032C2.30378 13.7039 2.24434 13.622 2.20294 13.5649L2.13788 13.475ZM3.66384 13.0231C3.79622 13.2043 3.9593 13.4263 4.12966 13.6556C4.33454 13.9314 4.54794 14.215 4.7303 14.4497C4.92423 14.6993 5.05282 14.8539 5.10115 14.9025C5.20459 15.0066 5.3203 15.0821 5.44079 15.1312C5.45222 15.132 5.47294 15.1328 5.50476 15.1319C5.58683 15.1293 5.70234 15.1162 5.85043 15.0883C6.14571 15.0326 6.51058 14.93 6.8864 14.7994C7.2605 14.6695 7.62643 14.5185 7.9225 14.3736C7.99454 14.3383 8.06074 14.3042 8.12066 14.2717L7.61412 12.1255C7.53601 11.7945 7.69034 11.4525 7.99014 11.292C9.14628 10.6732 10.4645 10.3242 11.8629 10.3242C13.3621 10.3242 14.7699 10.7264 15.9835 11.4299C16.2682 11.595 16.4121 11.9264 16.3382 12.2471L15.8724 14.2696C15.9197 14.2953 15.971 14.3222 16.0261 14.35C16.3059 14.4916 16.6544 14.644 17.0116 14.7807C17.3698 14.9178 17.7209 15.0328 18.0064 15.1045C18.1497 15.1405 18.264 15.1623 18.3471 15.1724C18.3833 15.1767 18.4061 15.1779 18.4178 15.1782C18.5901 15.1341 18.7555 15.043 18.8935 14.9041C18.9386 14.8588 19.0653 14.7059 19.2597 14.455C19.4418 14.2197 19.6558 13.9345 19.8616 13.6568C20.0341 13.4239 20.1995 13.1983 20.3333 13.0147C18.4489 10.3939 15.4933 8.82227 11.9973 8.82227C8.50395 8.82227 5.55056 10.4051 3.66384 13.0231Z" fill="#16191D"/>
<path d="M4.12966 13.6556C3.9593 13.4263 3.79622 13.2043 3.66384 13.0231C5.55056 10.4051 8.50395 8.82227 11.9973 8.82227C15.4933 8.82227 18.4489 10.3939 20.3333 13.0147C20.1995 13.1983 20.0341 13.4239 19.8616 13.6568C19.6558 13.9345 19.4418 14.2197 19.2597 14.455C19.0653 14.7059 18.9386 14.8588 18.8935 14.9041C18.7555 15.043 18.5901 15.1341 18.4178 15.1782C18.4061 15.1779 18.3833 15.1767 18.3471 15.1724C18.264 15.1623 18.1497 15.1405 18.0064 15.1045C17.7209 15.0328 17.3698 14.9178 17.0116 14.7807C16.6544 14.644 16.3059 14.4916 16.0261 14.35C15.971 14.3222 15.9197 14.2953 15.8724 14.2696L16.3382 12.2471C16.4121 11.9264 16.2682 11.595 15.9835 11.4299C14.7699 10.7264 13.3621 10.3242 11.8629 10.3242C10.4645 10.3242 9.14628 10.6732 7.99014 11.292C7.69034 11.4525 7.53601 11.7945 7.61412 12.1255L8.12066 14.2717C8.06074 14.3042 7.99454 14.3383 7.9225 14.3736C7.62643 14.5185 7.2605 14.6695 6.8864 14.7994C6.51058 14.93 6.14571 15.0326 5.85043 15.0883C5.70234 15.1162 5.58683 15.1293 5.50476 15.1319C5.47294 15.1328 5.45222 15.132 5.44079 15.1312C5.3203 15.0821 5.20459 15.0066 5.10115 14.9025C5.05282 14.8539 4.92423 14.6993 4.7303 14.4497C4.54794 14.215 4.33454 13.9314 4.12966 13.6556Z" fill="#16191D"/>
</svg>
