<svg width="21" height="21" viewBox="0 0 21 21" fill="none" xmlns="http://www.w3.org/2000/svg">
<g clip-path="url(#clip0_1505_60768)">
<path fill-rule="evenodd" clip-rule="evenodd" d="M10.9922 0.541016C5.46934 0.541016 0.992188 5.01817 0.992188 10.541C0.992188 16.0639 5.46934 20.541 10.9922 20.541C16.515 20.541 20.9922 16.0639 20.9922 10.541C20.9922 5.01817 16.515 0.541016 10.9922 0.541016ZM14.5225 7.01069C14.8154 7.30358 14.8154 7.77845 14.5225 8.07135L12.0528 10.541L14.5225 13.0107C14.8154 13.3036 14.8154 13.7785 14.5225 14.0713C14.2296 14.3642 13.7548 14.3642 13.4619 14.0713L10.9922 11.6017L8.52252 14.0713C8.22962 14.3642 7.75475 14.3642 7.46186 14.0713C7.16896 13.7785 7.16896 13.3036 7.46186 13.0107L9.93153 10.541L7.46186 8.07135C7.16896 7.77845 7.16896 7.30358 7.46186 7.01069C7.75475 6.71779 8.22962 6.71779 8.52252 7.01069L10.9922 9.48036L13.4619 7.01069C13.7548 6.71779 14.2296 6.71779 14.5225 7.01069Z" fill="#576175"/>
</g>
<defs>
<clipPath id="clip0_1505_60768">
<rect width="20" height="20" fill="white" transform="translate(0.992188 0.541016)"/>
</clipPath>
</defs>
</svg>
