<svg width="24" height="24" viewBox="0 0 24 24" fill="none" xmlns="http://www.w3.org/2000/svg">
<path d="M7.18418 3.91357H13.7492C13.7558 3.91375 13.7624 3.91383 13.769 3.91383H15.2694C15.6744 3.92434 15.9995 4.25599 15.9995 4.66357V13.8329L12.5196 20.0058C11.9076 18.4039 11.771 16.6504 12.1394 14.9597C12.3232 14.116 11.6806 13.3183 10.8172 13.3183H4.43021C3.95942 13.3183 3.60504 12.8896 3.6936 12.4272L4.97435 5.74032C5.1774 4.68016 6.10475 3.91357 7.18418 3.91357ZM15.2839 2.41383C15.2725 2.41366 15.261 2.41357 15.2495 2.41357H7.18418C5.38512 2.41357 3.83955 3.69121 3.50113 5.45816L2.22038 12.1451C1.9547 13.5322 3.01784 14.8183 4.43021 14.8183H10.6366C10.2415 16.7982 10.435 18.8437 11.1826 20.705C11.5964 21.7351 12.874 21.8404 13.5528 21.1326C13.639 21.0427 13.7136 20.9423 13.7747 20.8338L17.3175 14.5495C17.3819 14.4739 17.4318 14.3857 17.4629 14.289H19.6428C20.8855 14.289 21.8928 13.2816 21.8928 12.039V4.66383C21.8928 3.42119 20.8855 2.41383 19.6428 2.41383H15.2839ZM17.3716 3.91383H19.6428C20.0571 3.91383 20.3928 4.24962 20.3928 4.66383V12.039C20.3928 12.4532 20.0571 12.789 19.6428 12.789H17.4995V4.66357C17.4995 4.40069 17.4545 4.14834 17.3716 3.91383Z" fill="#16191D"/>
</svg>
