<svg width="24" height="24" viewBox="0 0 24 24" fill="none" xmlns="http://www.w3.org/2000/svg">
<path fill-rule="evenodd" clip-rule="evenodd" d="M5.33984 8.67222C5.33984 4.99319 8.32229 2.01074 12.0013 2.01074C15.6804 2.01074 18.6628 4.99319 18.6628 8.67222C18.6628 10.7841 17.4229 12.8754 16.1501 14.4894C14.8549 16.1316 13.4107 17.4214 12.7895 17.9485C12.3313 18.3374 11.6684 18.3357 11.212 17.9455C10.5919 17.4154 9.14816 16.1175 7.85319 14.4727C6.58142 12.8573 5.33984 10.7674 5.33984 8.67222ZM4.40198 15.5222C4.72169 15.2589 4.76737 14.7862 4.50401 14.4665C4.24065 14.1468 3.76798 14.1011 3.44827 14.3645C2.61042 15.0547 2.01562 15.9478 2.01562 16.9983C2.01562 18.6389 3.43387 19.8829 5.15842 20.6732C6.94851 21.4936 9.36879 21.9812 12.002 21.9812C14.6351 21.9812 17.0554 21.4936 18.8455 20.6732C20.57 19.8829 21.9883 18.6389 21.9883 16.9983C21.9883 15.9478 21.3935 15.0547 20.5556 14.3645C20.2359 14.1011 19.7633 14.1468 19.4999 14.4665C19.2365 14.7862 19.2822 15.2589 19.6019 15.5222C20.2415 16.0491 20.4883 16.5573 20.4883 16.9983C20.4883 17.6955 19.8389 18.5679 18.2206 19.3096C16.6678 20.0212 14.4699 20.4812 12.002 20.4812C9.53403 20.4812 7.33615 20.0212 5.78335 19.3096C4.165 18.5679 3.51562 17.6955 3.51562 16.9983C3.51562 16.5573 3.76242 16.0491 4.40198 15.5222ZM11.9992 5.51855C10.2565 5.51855 8.84375 6.93129 8.84375 8.67398C8.84375 10.4167 10.2565 11.8294 11.9992 11.8294C13.7419 11.8294 15.1546 10.4167 15.1546 8.67398C15.1546 6.93129 13.7419 5.51855 11.9992 5.51855Z" fill="#16191D"/>
</svg>
