<svg width="24" height="24" viewBox="0 0 24 24" fill="none" xmlns="http://www.w3.org/2000/svg">
<path d="M16.5303 9.53033C16.8232 9.23744 16.8232 8.76256 16.5303 8.46967C16.2374 8.17678 15.7626 8.17678 15.4697 8.46967L10.5 13.4393L8.53033 11.4697C8.23744 11.1768 7.76256 11.1768 7.46967 11.4697C7.17678 11.7626 7.17678 12.2374 7.46967 12.5303L9.96967 15.0303C10.2626 15.3232 10.7374 15.3232 11.0303 15.0303L16.5303 9.53033Z" fill="#16191D"/>
<path fill-rule="evenodd" clip-rule="evenodd" d="M16.9806 3H7.01942C6.46789 2.99999 6.00893 2.99998 5.63428 3.03059C5.24397 3.06248 4.8796 3.1313 4.53565 3.30655C4.00645 3.57619 3.57619 4.00645 3.30655 4.53565C3.1313 4.8796 3.06248 5.24397 3.03059 5.63428C2.99998 6.00893 2.99999 6.46788 3 7.01941V16.9806C2.99999 17.5321 2.99998 17.9911 3.03059 18.3657C3.06248 18.756 3.1313 19.1204 3.30655 19.4643C3.57619 19.9936 4.00645 20.4238 4.53565 20.6935C4.8796 20.8687 5.24397 20.9375 5.63428 20.9694C6.00893 21 6.46787 21 7.0194 21H16.9806C17.5321 21 17.9911 21 18.3657 20.9694C18.756 20.9375 19.1204 20.8687 19.4643 20.6935C19.9936 20.4238 20.4238 19.9936 20.6935 19.4643C20.8687 19.1204 20.9375 18.756 20.9694 18.3657C21 17.9911 21 17.5321 21 16.9806V7.0194C21 6.46787 21 6.00893 20.9694 5.63428C20.9375 5.24397 20.8687 4.8796 20.6935 4.53565C20.4238 4.00645 19.9936 3.57619 19.4643 3.30655C19.1204 3.1313 18.756 3.06248 18.3657 3.03059C17.9911 2.99998 17.5321 2.99999 16.9806 3ZM5.21664 4.64305C5.31388 4.59351 5.45888 4.54992 5.75643 4.52561C6.06273 4.50058 6.46007 4.5 7.05 4.5H16.95C17.5399 4.5 17.9373 4.50058 18.2436 4.52561C18.5411 4.54992 18.6861 4.59351 18.7834 4.64305C19.0303 4.76889 19.2311 4.96968 19.3569 5.21664C19.4065 5.31388 19.4501 5.45888 19.4744 5.75643C19.4994 6.06273 19.5 6.46007 19.5 7.05V16.95C19.5 17.5399 19.4994 17.9373 19.4744 18.2436C19.4501 18.5411 19.4065 18.6861 19.3569 18.7834C19.2311 19.0303 19.0303 19.2311 18.7834 19.3569C18.6861 19.4065 18.5411 19.4501 18.2436 19.4744C17.9373 19.4994 17.5399 19.5 16.95 19.5H7.05C6.46007 19.5 6.06273 19.4994 5.75643 19.4744C5.45888 19.4501 5.31388 19.4065 5.21664 19.3569C4.96968 19.2311 4.76889 19.0303 4.64305 18.7834C4.59351 18.6861 4.54992 18.5411 4.52561 18.2436C4.50058 17.9373 4.5 17.5399 4.5 16.95V7.05C4.5 6.46007 4.50058 6.06273 4.52561 5.75643C4.54992 5.45888 4.59351 5.31388 4.64306 5.21664C4.76889 4.96968 4.96968 4.76889 5.21664 4.64305Z" fill="#16191D"/>
</svg>
