<svg width="24" height="24" viewBox="0 0 24 24" fill="none" xmlns="http://www.w3.org/2000/svg">
<path fill-rule="evenodd" clip-rule="evenodd" d="M12 8.25C9.92893 8.25 8.25 9.92893 8.25 12C8.25 14.0711 9.92893 15.75 12 15.75C14.0711 15.75 15.75 14.0711 15.75 12C15.75 9.92893 14.0711 8.25 12 8.25ZM9.75 12C9.75 10.7574 10.7574 9.75 12 9.75C13.2426 9.75 14.25 10.7574 14.25 12C14.25 13.2426 13.2426 14.25 12 14.25C10.7574 14.25 9.75 13.2426 9.75 12Z" fill="#16191D"/>
<path fill-rule="evenodd" clip-rule="evenodd" d="M11.158 1.98145C10.0598 1.98145 9.16949 2.87174 9.16949 3.96998C9.16949 4.16981 9.02959 4.40392 8.74786 4.52668C8.56213 4.60761 8.38003 4.69524 8.20186 4.78927C7.93012 4.93268 7.65968 4.89564 7.50336 4.77041C6.64589 4.08348 5.39391 4.22173 4.70698 5.0792L3.65441 6.39308C2.96767 7.25031 3.10588 8.50195 3.96311 9.18869C4.11914 9.31368 4.21442 9.56931 4.13408 9.86611C4.07794 10.0735 4.02979 10.2841 3.98997 10.4976C3.93363 10.7997 3.73664 10.9886 3.5414 11.0333C2.47038 11.2784 1.80091 12.3454 2.04608 13.4164L2.42144 15.0561C2.66671 16.1275 3.7341 16.7973 4.80552 16.552C5.00092 16.5073 5.26047 16.5915 5.44288 16.8384C5.57456 17.0166 5.71331 17.1892 5.85871 17.3558C6.06063 17.5871 6.08696 17.8591 6.00084 18.0406C5.52947 19.0339 5.95261 20.2213 6.94594 20.6927L8.46366 21.4129C9.45704 21.8843 10.6445 21.4611 11.1159 20.4677C11.202 20.2862 11.4292 20.1346 11.7358 20.1444C11.8236 20.1472 11.9117 20.1486 12.0001 20.1486C12.0886 20.1486 12.1768 20.1472 12.2646 20.1444C12.5713 20.1346 12.7985 20.2862 12.8846 20.4677C13.356 21.4611 14.5434 21.8843 15.5368 21.4129L17.0544 20.6927C18.0478 20.2213 18.471 19.0339 17.9996 18.0405C17.9135 17.859 17.9398 17.587 18.1417 17.3556C18.2871 17.189 18.4257 17.0165 18.5574 16.8384C18.7398 16.5915 18.9994 16.5072 19.1948 16.552C20.2663 16.7973 21.3338 16.1275 21.5791 15.056L21.9544 13.4166C22.1996 12.3455 21.53 11.2784 20.4589 11.0332C20.2637 10.9885 20.0666 10.7996 20.0103 10.4974C19.9705 10.284 19.9223 10.0734 19.8662 9.86607C19.7858 9.56928 19.8811 9.31366 20.0371 9.18867C20.8944 8.50194 21.0326 7.25032 20.3458 6.3931L19.2932 5.07919C18.6063 4.22172 17.3543 4.08347 16.4969 4.7704C16.3406 4.89563 16.0701 4.93266 15.7984 4.78926C15.6204 4.69531 15.4384 4.60774 15.2528 4.52687C14.9711 4.40408 14.8312 4.16994 14.8312 3.97007C14.8312 2.87178 13.9408 1.98145 12.8425 1.98145H11.158ZM10.6695 3.96998C10.6695 3.70017 10.8882 3.48145 11.158 3.48145H12.8425C13.1124 3.48145 13.3312 3.70021 13.3312 3.97007C13.3312 4.87045 13.9267 5.58519 14.6536 5.90196C14.8048 5.96787 14.9531 6.03925 15.0983 6.11586C15.8005 6.48645 16.7316 6.50438 17.4347 5.94107C17.6456 5.77209 17.9536 5.8061 18.1226 6.01702L19.1752 7.33094C19.3439 7.54162 19.31 7.84923 19.0993 8.018C18.3965 8.58099 18.2111 9.49266 18.4183 10.258C18.464 10.4269 18.5032 10.5985 18.5357 10.7725C18.6813 11.5533 19.2457 12.2943 20.1242 12.4954C20.3878 12.5557 20.5525 12.8183 20.4922 13.0818L20.1169 14.7213C20.0565 14.9852 19.7935 15.1502 19.5296 15.0898C18.6524 14.889 17.8225 15.3089 17.351 15.9469C17.2435 16.0924 17.1303 16.2333 17.0116 16.3693C16.4892 16.9679 16.2583 17.8699 16.6444 18.6836C16.7607 18.9285 16.6563 19.2213 16.4114 19.3375L14.8937 20.0577C14.6488 20.174 14.356 20.0696 14.2398 19.8247C13.854 19.0117 13.0103 18.6198 12.2168 18.6452C12.1449 18.6475 12.0726 18.6486 12.0001 18.6486C11.9277 18.6486 11.8555 18.6475 11.7837 18.6452C10.9901 18.6199 10.1465 19.0117 9.76071 19.8247C9.64448 20.0696 9.35168 20.174 9.10673 20.0577L7.58901 19.3375C7.34411 19.2213 7.23979 18.9286 7.356 18.6837C7.74212 17.87 7.51121 16.968 6.98886 16.3695C6.87007 16.2334 6.75676 16.0924 6.64924 15.9469C6.17776 15.3089 5.34794 14.889 4.4708 15.0898C4.20692 15.1502 3.94403 14.9853 3.88362 14.7214L3.50826 13.0817C3.44795 12.8182 3.61264 12.5557 3.87612 12.4954C4.75459 12.2943 5.31892 11.5534 5.46454 10.7726C5.497 10.5986 5.53624 10.427 5.58196 10.2581C5.78915 9.49268 5.60371 8.58101 4.90094 8.01802C4.69026 7.84923 4.65629 7.54161 4.82507 7.33092L5.87765 6.01703C6.04662 5.80611 6.3546 5.7721 6.56552 5.94108C7.26869 6.50439 8.19972 6.48646 8.90195 6.11587C9.04724 6.0392 9.19569 5.96776 9.34704 5.90181C10.0739 5.58508 10.6695 4.87036 10.6695 3.96998Z" fill="#16191D"/>
</svg>
