<svg width="24" height="24" viewBox="0 0 24 24" fill="none" xmlns="http://www.w3.org/2000/svg">
<path d="M9 21.2466C9 20.8324 9.33579 20.4966 9.75 20.4966H14.25C14.6642 20.4966 15 20.8324 15 21.2466C15 21.6609 14.6642 21.9966 14.25 21.9966H9.75C9.33579 21.9966 9 21.6609 9 21.2466Z" fill="#16191D"/>
<path d="M12 2.00684C8.27208 2.00684 5.25 5.02891 5.25 8.75684C5.25 10.7277 6.09562 12.5021 7.44154 13.7351C7.94579 14.1971 8.23907 14.7288 8.23907 15.2424V15.9969C8.23907 17.6537 9.58222 18.9969 11.2391 18.9969H12.7613C14.4182 18.9969 15.7613 17.6537 15.7613 15.9969V15.2421C15.7613 14.7285 16.0546 14.1968 16.5587 13.7349C17.9045 12.5019 18.75 10.7275 18.75 8.75684C18.75 5.02891 15.7279 2.00684 12 2.00684ZM9.87604 9.6573C10.1058 9.31265 10.5715 9.21952 10.9161 9.44928L12.0001 10.1719L13.0841 9.44928C13.4287 9.21952 13.8944 9.31265 14.1241 9.6573C14.3539 10.0019 14.2608 10.4676 13.9161 10.6974L12.7501 11.4747L12.7501 16.752C12.7501 17.1662 12.4143 17.502 12.0001 17.502C11.5859 17.502 11.2501 17.1662 11.2501 16.752L11.2501 11.4747L10.0841 10.6974C9.73941 10.4676 9.64628 10.0019 9.87604 9.6573Z" fill="#16191D"/>
</svg>
