<svg width="21" height="21" viewBox="0 0 21 21" fill="none" xmlns="http://www.w3.org/2000/svg">
<path fill-rule="evenodd" clip-rule="evenodd" d="M16.5229 4.50856C16.2299 4.21576 15.755 4.21592 15.4622 4.50891L10.9927 8.98137L6.52326 4.50891C6.23046 4.21592 5.75559 4.21576 5.4626 4.50855C5.16961 4.80135 5.16945 5.27622 5.46224 5.56921L10.4622 10.5725C10.6029 10.7133 10.7937 10.7924 10.9927 10.7924C11.1917 10.7924 11.3826 10.7133 11.5232 10.5725L16.5232 5.56922C16.816 5.27623 16.8159 4.80135 16.5229 4.50856ZM16.5238 10.5097C16.2308 10.2169 15.7559 10.2171 15.4631 10.5101L10.9937 14.9825L6.52416 10.5101C6.23136 10.2171 5.75649 10.2169 5.4635 10.5097C5.17051 10.8025 5.17035 11.2774 5.46315 11.5704L10.4631 16.5737C10.6038 16.7145 10.7947 16.7936 10.9937 16.7936C11.1927 16.7936 11.3835 16.7145 11.5242 16.5737L16.5242 11.5704C16.817 11.2774 16.8168 10.8025 16.5238 10.5097Z" fill="#576175"/>
</svg>
