<svg width="24" height="24" viewBox="0 0 24 24" fill="none" xmlns="http://www.w3.org/2000/svg">
<path d="M11.4888 4.05866C12.9916 2.55591 15.0849 2.00374 17.0114 2.407C17.6972 2.55055 18.1158 3.07909 18.1904 3.67003C18.2616 4.23428 18.0216 4.8238 17.5258 5.2011L15.0865 7.05752C15.0235 7.10545 14.9869 7.18038 14.9879 7.25952L15.0083 8.92391C15.0099 9.05959 15.1195 9.16917 15.2552 9.17083L16.9196 9.19118C16.9987 9.19215 17.0737 9.15559 17.1216 9.0926L18.8901 6.76875C19.2763 6.26129 19.8824 6.0226 20.4558 6.10948C21.0591 6.20088 21.5806 6.653 21.6869 7.36208C21.961 9.19125 21.3886 11.1294 19.9741 12.5439C18.2217 14.2963 15.667 14.7563 13.5073 13.9151C13.2784 13.826 13.1045 13.902 13.0404 13.9803L7.40063 20.8734L7.37418 20.8998C6.83555 21.4385 6.06478 21.7151 5.31616 21.7338C4.5603 21.7528 3.74241 21.5105 3.13171 20.8998C1.94775 19.7159 2.03113 17.7579 3.13171 16.6574L3.15816 16.6309L10.0518 10.9907C10.1301 10.9266 10.2061 10.7528 10.117 10.5239C9.27664 8.36459 9.73688 5.81059 11.4888 4.05866ZM16.7021 3.87476C15.2543 3.57238 13.6813 3.98746 12.5495 5.11932C11.2293 6.43945 10.8845 8.36021 11.5149 9.97992C11.785 10.6741 11.69 11.5884 11.0017 12.1516L4.16926 17.7417C3.65156 18.287 3.62735 19.2742 4.19237 19.8392C4.46029 20.1071 4.85322 20.245 5.27856 20.2343C5.69649 20.2238 6.06609 20.0716 6.29045 19.8615L11.8795 13.0304C12.4428 12.3419 13.3574 12.247 14.0517 12.5174C15.6716 13.1484 17.593 12.8037 18.9134 11.4833C19.977 10.4197 20.4076 8.96691 20.2049 7.59389C20.1755 7.59922 20.1285 7.61833 20.0838 7.67716L18.3152 10.001C17.9797 10.4419 17.4552 10.6978 16.9012 10.6911L15.2369 10.6707C14.2871 10.6591 13.52 9.892 13.5084 8.94225L13.488 7.27786C13.4813 6.72387 13.7372 6.19939 14.1781 5.86387L16.6174 4.00745C16.682 3.95828 16.6993 3.90457 16.7021 3.87476Z" fill="#16191D"/>
</svg>
