<svg width="24" height="24" viewBox="0 0 24 24" fill="none" xmlns="http://www.w3.org/2000/svg">
<path d="M9.04171 4.94447C9.25175 4.53841 8.88402 4.07601 8.46828 4.26617C5.91169 5.43556 4.03561 7.83536 3.59755 10.7081C3.55334 10.998 3.78493 11.25 4.07825 11.25H6.81523C7.07845 11.25 7.29575 11.0458 7.32092 10.7838C7.51756 8.73647 8.10507 6.75525 9.04171 4.94447Z" fill="#16191D"/>
<path d="M7.32092 13.2162C7.29575 12.9542 7.07845 12.75 6.81523 12.75H4.07825C3.78493 12.75 3.55334 13.002 3.59755 13.2919C4.03561 16.1646 5.91168 18.5644 8.46827 19.7338C8.88402 19.924 9.25175 19.4616 9.04171 19.0555C8.10507 17.2448 7.51756 15.2635 7.32092 13.2162Z" fill="#16191D"/>
<path d="M11.9587 20.4999C11.8082 20.4992 11.6676 20.4263 11.5785 20.3051C10.0647 18.2482 9.11798 15.8269 8.8361 13.2859C8.80406 12.997 9.03423 12.75 9.32483 12.75H14.6766C14.9672 12.75 15.1973 12.997 15.1653 13.2859C14.8834 15.8269 13.9367 18.2482 12.4229 20.3051C12.3338 20.4263 12.1932 20.4992 12.0428 20.4999C12.0285 20.5 12.0143 20.5 12 20.5C11.9862 20.5 11.9724 20.5 11.9587 20.4999Z" fill="#16191D"/>
<path d="M14.9601 19.0547C14.7501 19.4608 15.1179 19.9232 15.5336 19.733C18.0893 18.5632 19.9645 16.1639 20.4024 13.2919C20.4467 13.002 20.2151 12.75 19.9217 12.75H17.1862C16.9229 12.75 16.7056 12.9542 16.6805 13.2162C16.4839 15.2632 15.8965 17.2442 14.9601 19.0547Z" fill="#16191D"/>
<path d="M16.6805 10.7838C16.7056 11.0458 16.9229 11.25 17.1862 11.25H19.9217C20.2151 11.25 20.4467 10.998 20.4024 10.7081C19.9645 7.83607 18.0893 5.43676 15.5336 4.26705C15.1179 4.07676 14.7501 4.53916 14.9601 4.94528C15.8965 6.75583 16.4839 8.73678 16.6805 10.7838Z" fill="#16191D"/>
<path d="M11.5785 3.69485C11.6676 3.57368 11.8082 3.50081 11.9587 3.5001C11.9724 3.50003 11.9862 3.5 12 3.5C12.0143 3.5 12.0285 3.50004 12.0428 3.50011C12.1932 3.50085 12.3338 3.57371 12.4229 3.69486C13.9367 5.7518 14.8834 8.17312 15.1653 10.7141C15.1973 11.003 14.9672 11.25 14.6766 11.25H9.32483C9.03423 11.25 8.80406 11.003 8.8361 10.7141C9.11798 8.17312 10.0647 5.7518 11.5785 3.69485Z" fill="#16191D"/>
</svg>
