<svg width="24" height="24" viewBox="0 0 24 24" fill="none" xmlns="http://www.w3.org/2000/svg">
<path d="M20.2027 17.709C20.617 17.709 20.9527 17.3732 20.9527 16.959V11.9399C20.9527 11.5257 20.617 11.1899 20.2027 11.1899C19.7885 11.1899 19.4527 11.5257 19.4527 11.9399V15.1494L13.3943 9.09095C13.1303 8.82703 12.7125 8.79734 12.4139 9.02128L8.87827 11.673L4.26818 7.06293C3.97529 6.77004 3.50042 6.77004 3.20752 7.06293C2.91463 7.35582 2.91463 7.8307 3.20752 8.12359L8.27756 13.1936C8.54148 13.4576 8.9593 13.4872 9.25789 13.2633L12.7936 10.6116L18.391 16.209H15.1837C14.7694 16.209 14.4337 16.5448 14.4337 16.959C14.4337 17.3732 14.7694 17.709 15.1837 17.709H20.2027Z" fill="#16191D"/>
</svg>
