<svg width="24" height="24" viewBox="0 0 24 24" fill="none" xmlns="http://www.w3.org/2000/svg">
<path d="M4.25 5.75C3.83578 5.75 3.5 6.08579 3.5 6.5V7.24321L11.5998 12.5054C11.849 12.6673 12.1702 12.6668 12.4188 12.5043L20.5 7.22122V6.5C20.5 6.08579 20.1642 5.75 19.75 5.75H4.25ZM22 7.6149V6.5C22 5.25736 20.9926 4.25 19.75 4.25H4.25C3.00736 4.25 2 5.25736 2 6.5V7.63814C1.99988 7.64581 1.99988 7.65348 2 7.66113V17.5C2 18.7426 3.00736 19.75 4.25 19.75H19.75C20.9926 19.75 22 18.7426 22 17.5V7.63761C22.0001 7.63004 22.0001 7.62247 22 7.6149ZM20.5 9.01332V16.9477L15.4476 12.3163L20.5 9.01332ZM19.7008 18.25H4.56525L10.0085 13.2604L10.7827 13.7633C11.5301 14.2489 12.4936 14.2475 13.2396 13.7598L14.1518 13.1634L19.7008 18.25ZM3.5 17.1916V9.03197L8.70938 12.4164L3.5 17.1916Z" fill="#16191D"/>
</svg>
