<svg width="24" height="24" viewBox="0 0 24 24" fill="none" xmlns="http://www.w3.org/2000/svg">
<path fill-rule="evenodd" clip-rule="evenodd" d="M12.5046 2.30127C12.2247 2.06376 11.7947 2.04747 11.5147 2.28498C11.1365 2.60267 10.7411 2.90107 10.3376 3.18576C9.63272 3.68322 8.7928 4.20017 8.10387 4.43168C7.51471 4.62966 6.67841 4.73914 5.94523 4.79531C5.52633 4.8274 5.10604 4.84903 4.68582 4.84977C4.48689 4.84969 4.29608 4.92866 4.15537 5.06928C4.01462 5.20995 3.93555 5.40078 3.93555 5.59977V11.9999C3.93555 16.5204 7.95854 19.9324 11.6641 21.8136L12.3365 21.8132C16.0274 19.9629 20.0645 16.4706 20.0645 11.9999V5.59977C20.0645 5.40078 19.9854 5.20995 19.8446 5.06928C19.4618 4.68667 18.5564 4.83374 18.0548 4.79531C17.3216 4.73914 16.4853 4.62966 15.8961 4.43168C15.2072 4.20017 14.3673 3.68322 13.6624 3.18576C13.0612 2.76151 12.6025 2.38313 12.5046 2.30127ZM12 3.81961C10.9623 4.62756 9.83625 5.43196 8.58167 5.85354C7.57668 6.19126 6.49006 6.28023 5.43555 6.32918V11.9999C5.43555 15.7914 8.97522 18.6018 12 20.2917C15.0248 18.6018 18.5645 15.7914 18.5645 11.9999V6.32918C17.5099 6.28023 16.4233 6.19126 15.4183 5.85354C14.1638 5.43196 13.0377 4.62756 12 3.81961Z" fill="#16191D"/>
<path d="M9.94439 8.8856C9.6515 8.5927 9.17663 8.5927 8.88373 8.8856C8.59084 9.17849 8.59084 9.65336 8.88373 9.94626L10.9374 11.9999L8.88373 14.0536C8.59084 14.3465 8.59084 14.8213 8.88373 15.1142C9.17663 15.4071 9.6515 15.4071 9.94439 15.1142L11.998 13.0606L14.0517 15.1142C14.3446 15.4071 14.8195 15.4071 15.1124 15.1142C15.4053 14.8213 15.4053 14.3465 15.1124 14.0536L13.0587 11.9999L15.1124 9.94626C15.4053 9.65336 15.4053 9.17849 15.1124 8.8856C14.8195 8.5927 14.3446 8.5927 14.0517 8.8856L11.998 10.9393L9.94439 8.8856Z" fill="#16191D"/>
<path d="M11.6641 21.8136C11.8753 21.9191 12.1243 21.9194 12.3354 21.8138L11.9998 21.8137L11.6641 21.8136Z" fill="#16191D"/>
</svg>
