<svg width="24" height="24" viewBox="0 0 24 24" fill="none" xmlns="http://www.w3.org/2000/svg">
<path d="M19.8466 5.06968C19.7059 4.92905 19.515 4.85008 19.3161 4.85017C18.8959 4.84941 18.4756 4.8278 18.0567 4.79571C17.3235 4.73955 16.4872 4.63006 15.8981 4.43208C15.2092 4.20058 14.3692 3.68362 13.6643 3.18616C13.0631 2.76192 12.6044 2.38346 12.5065 2.3016C12.021 1.89383 11.5861 2.23748 11.1917 2.54922L11.19 2.55051C10.9798 2.71661 10.6834 2.94355 10.3396 3.18616C9.63467 3.68362 8.79475 4.20058 8.10583 4.43208C7.51666 4.63006 6.68037 4.73955 5.94718 4.79571C5.58952 4.82311 5.27227 4.83677 5.04474 4.84354C4.93117 4.84693 4.84046 4.84858 4.77883 4.84939C4.74803 4.8498 4.72453 4.84999 4.70911 4.85008L4.69215 4.85016L4.68777 4.85017C4.48884 4.8501 4.29803 4.92906 4.15732 5.06968C4.01658 5.21035 3.9375 5.40118 3.9375 5.60017V12.0003C3.9375 15.0781 5.97742 17.5542 7.85085 19.1935C9.51935 20.6534 11.1645 21.5515 11.5712 21.765C11.6 21.7802 11.629 21.7951 11.6581 21.8099L11.6636 21.8127L11.6661 21.814C11.8772 21.9195 12.1262 21.9198 12.3374 21.8142L12.002 21.1434L12.3385 21.8136L12.3403 21.8127C12.3712 21.7971 12.402 21.7811 12.4327 21.765C12.8394 21.5515 14.4846 20.6534 16.1531 19.1935C18.0265 17.5542 20.0664 15.0781 20.0664 12.0003V5.60017C20.0664 5.40118 19.9873 5.21035 19.8466 5.06968ZM9.94439 8.88569L11.998 10.9393L14.0517 8.88569C14.3446 8.59279 14.8195 8.59279 15.1124 8.88569C15.4053 9.17858 15.4053 9.65345 15.1124 9.94635L13.0587 12L15.1124 14.0537C15.4053 14.3465 15.4053 14.8214 15.1124 15.1143C14.8195 15.4072 14.3446 15.4072 14.0517 15.1143L11.998 13.0607L9.94439 15.1143C9.6515 15.4072 9.17663 15.4072 8.88373 15.1143C8.59084 14.8214 8.59084 14.3465 8.88373 14.0537L10.9374 12L8.88373 9.94635C8.59084 9.65345 8.59084 9.17858 8.88373 8.88569C9.17663 8.59279 9.6515 8.59279 9.94439 8.88569Z" fill="#16191D"/>
</svg>
