<svg width="24" height="24" viewBox="0 0 24 24" fill="none" xmlns="http://www.w3.org/2000/svg">
<path d="M6.33584 6.34272C6.62873 6.04983 7.10361 6.04982 7.3965 6.34271L16.3721 15.3181L16.3703 10.0481C16.3702 9.63388 16.7059 9.29798 17.1201 9.29784C17.5343 9.2977 17.8702 9.63338 17.8703 10.0476L17.8727 17.121C17.8727 17.32 17.7937 17.5109 17.653 17.6516C17.5123 17.7923 17.3214 17.8713 17.1224 17.8713L10.049 17.8689C9.63479 17.8688 9.29912 17.5329 9.29926 17.1187C9.29939 16.7044 9.63529 16.3688 10.0495 16.3689L15.3033 16.3707L6.33586 7.40338C6.04296 7.11049 6.04295 6.63562 6.33584 6.34272Z" fill="#16191D"/>
</svg>
