<svg width="24" height="24" viewBox="0 0 24 24" fill="none" xmlns="http://www.w3.org/2000/svg">
<path d="M5.46136 3.62819C5.88819 3.1514 6.49784 2.87891 7.13777 2.87891H16.8623C17.5022 2.87891 18.1118 3.1514 18.5387 3.62819L21.4547 6.88564C22.1914 7.70853 22.2218 8.94442 21.5267 9.80262L12.9713 20.364C12.471 20.9816 11.529 20.9816 11.0287 20.364L2.47337 9.80262C1.77818 8.94442 1.80866 7.70853 2.5453 6.88564L5.46136 3.62819ZM7.13777 4.37891C6.92446 4.37891 6.72125 4.46974 6.57897 4.62867L3.91806 7.6011L7.71912 7.6011L10.4653 4.37891H7.13777ZM13.5921 4.37891L16.3889 7.6011L20.082 7.6011L17.4211 4.62867C17.2788 4.46974 17.0756 4.37891 16.8623 4.37891H13.5921ZM20.1645 9.1011L16.5784 9.1011L13.8384 16.9106L20.1645 9.1011ZM12.1071 19.0479C12.0347 19.0517 11.9622 19.0505 11.89 19.0443L12 19.1801L12.1071 19.0479ZM10.2596 17.0315L7.5303 9.1011L3.8355 9.1011L10.2596 17.0315ZM9.11664 9.1011L12.0244 17.5501L14.9888 9.1011L9.11664 9.1011ZM14.4026 7.6011L12.0248 4.86158L9.68998 7.6011L14.4026 7.6011Z" fill="#16191D"/>
</svg>
