<svg width="24" height="24" viewBox="0 0 24 24" fill="none" xmlns="http://www.w3.org/2000/svg">
<path d="M4.55334 5.25439C4.55334 4.84018 4.88913 4.50439 5.30334 4.50439H13.3004C13.7146 4.50439 14.0504 4.16861 14.0504 3.75439C14.0504 3.34018 13.7146 3.00439 13.3004 3.00439H5.30334C4.0607 3.00439 3.05334 4.01175 3.05334 5.25439V18.751C3.05334 19.9936 4.0607 21.001 5.30334 21.001H13.3004C13.7146 21.001 14.0504 20.6652 14.0504 20.251C14.0504 19.8368 13.7146 19.501 13.3004 19.501H5.30334C4.88913 19.501 4.55334 19.1652 4.55334 18.751V5.25439Z" fill="#16191D"/>
<path d="M20.7711 12.5308L16.7711 16.5308C16.4782 16.8237 16.0033 16.8237 15.7105 16.5308C15.4176 16.2379 15.4176 15.7631 15.7105 15.4702L18.4301 12.7505L8.72564 12.7505C8.31143 12.7505 7.97564 12.4147 7.97564 12.0005C7.97564 11.5863 8.31143 11.2505 8.72564 11.2505L18.4301 11.2505L15.7105 8.53082C15.4176 8.23793 15.4176 7.76305 15.7105 7.47016C16.0033 7.17726 16.4782 7.17726 16.7711 7.47016L20.7711 11.4702C21.064 11.7631 21.064 12.2379 20.7711 12.5308Z" fill="#16191D"/>
</svg>
