<svg width="24" height="24" viewBox="0 0 24 24" fill="none" xmlns="http://www.w3.org/2000/svg">
<path d="M12 1.99854C12.4142 1.99854 12.75 2.33432 12.75 2.74854V4.24854C12.75 4.66275 12.4142 4.99854 12 4.99854C11.5858 4.99854 11.25 4.66275 11.25 4.24854V2.74854C11.25 2.33432 11.5858 1.99854 12 1.99854Z" fill="#16191D"/>
<path d="M6.47656 12.0005C6.47656 8.94998 8.94949 6.47705 12 6.47705C15.0505 6.47705 17.5234 8.94998 17.5234 12.0005C17.5234 15.051 15.0505 17.5239 12 17.5239C8.94949 17.5239 6.47656 15.051 6.47656 12.0005ZM12 7.97705C9.77792 7.97705 7.97656 9.77841 7.97656 12.0005C7.97656 14.2226 9.77792 16.0239 12 16.0239C14.2221 16.0239 16.0234 14.2226 16.0234 12.0005C16.0234 9.77841 14.2221 7.97705 12 7.97705Z" fill="#16191D"/>
<path d="M12.75 19.7524C12.75 19.3382 12.4142 19.0024 12 19.0024C11.5858 19.0024 11.25 19.3382 11.25 19.7524V21.2524C11.25 21.6667 11.5858 22.0024 12 22.0024C12.4142 22.0024 12.75 21.6667 12.75 21.2524V19.7524Z" fill="#16191D"/>
<path d="M1.99841 12.0005C1.99841 11.5863 2.3342 11.2505 2.74841 11.2505H4.24841C4.66263 11.2505 4.99841 11.5863 4.99841 12.0005C4.99841 12.4147 4.66263 12.7505 4.24841 12.7505H2.74841C2.3342 12.7505 1.99841 12.4147 1.99841 12.0005Z" fill="#16191D"/>
<path d="M19.7516 11.2505C19.3374 11.2505 19.0016 11.5863 19.0016 12.0005C19.0016 12.4147 19.3374 12.7505 19.7516 12.7505H21.2516C21.6658 12.7505 22.0016 12.4147 22.0016 12.0005C22.0016 11.5863 21.6658 11.2505 21.2516 11.2505H19.7516Z" fill="#16191D"/>
<path d="M4.92774 19.0727C4.63485 18.7798 4.63485 18.3049 4.92774 18.012L5.9884 16.9514C6.28129 16.6585 6.75617 16.6585 7.04906 16.9514C7.34195 17.2443 7.34195 17.7191 7.04906 18.012L5.9884 19.0727C5.69551 19.3656 5.22063 19.3656 4.92774 19.0727Z" fill="#16191D"/>
<path d="M16.9509 5.9886C16.658 6.28149 16.658 6.75637 16.9509 7.04926C17.2438 7.34215 17.7187 7.34215 18.0116 7.04926L19.0723 5.9886C19.3651 5.69571 19.3651 5.22083 19.0723 4.92794C18.7794 4.63505 18.3045 4.63505 18.0116 4.92794L16.9509 5.9886Z" fill="#16191D"/>
<path d="M4.92762 4.92817C5.22051 4.63527 5.69538 4.63527 5.98828 4.92817L7.04894 5.98883C7.34183 6.28172 7.34183 6.75659 7.04894 7.04949C6.75604 7.34238 6.28117 7.34238 5.98828 7.04949L4.92762 5.98883C4.63472 5.69593 4.63472 5.22106 4.92762 4.92817Z" fill="#16191D"/>
<path d="M18.0115 16.9516C17.7186 16.6587 17.2437 16.6587 16.9508 16.9516C16.6579 17.2445 16.6579 17.7194 16.9508 18.0123L18.0115 19.0729C18.3044 19.3658 18.7792 19.3658 19.0721 19.0729C19.365 18.78 19.365 18.3052 19.0721 18.0123L18.0115 16.9516Z" fill="#16191D"/>
</svg>
