<svg width="24" height="24" viewBox="0 0 24 24" fill="none" xmlns="http://www.w3.org/2000/svg">
<path d="M17.6563 6.35298C17.9492 6.64587 17.9492 7.12075 17.6563 7.41364L8.68886 16.3809L13.9427 16.3792C14.3569 16.379 14.6928 16.7147 14.6929 17.1289C14.6931 17.5431 14.3574 17.879 13.9432 17.8792L6.86976 17.8815C6.67076 17.8816 6.47989 17.8026 6.33918 17.6618C6.19846 17.5211 6.11944 17.3303 6.11951 17.1313L6.12185 10.0578C6.12199 9.64363 6.45789 9.30796 6.8721 9.30809C7.28632 9.30823 7.62199 9.64413 7.62185 10.0583L7.62011 15.3283L16.5957 6.35297C16.8886 6.06007 17.3634 6.06008 17.6563 6.35298Z" fill="#16191D"/>
</svg>
