<svg width="24" height="24" viewBox="0 0 24 24" fill="none" xmlns="http://www.w3.org/2000/svg">
<path d="M20.2402 8.74026C19.8259 8.74012 19.4903 8.40422 19.4904 7.99001L19.4912 5.5659L13.7022 11.3546C13.4093 11.6475 12.9345 11.6475 12.6416 11.3546C12.3487 11.0617 12.3487 10.5868 12.6416 10.2939L18.4362 4.49962L16.0008 4.50043C15.5866 4.50057 15.2507 4.16489 15.2506 3.75068C15.2504 3.33647 15.5861 3.00057 16.0003 3.00043L20.2416 2.99902C20.4406 2.99896 20.6314 3.07798 20.7721 3.21869C20.8521 3.29861 20.9121 3.3947 20.949 3.49927C20.9836 3.59566 20.9979 3.69773 20.9918 3.7988L20.9904 7.9905C20.9903 8.40472 20.6544 8.74039 20.2402 8.74026Z" fill="#16191D"/>
<path d="M5.25391 5.50013C4.83969 5.50013 4.50391 5.83592 4.50391 6.25013V18.7501C4.50391 19.1643 4.83969 19.5001 5.25391 19.5001H17.75C18.1642 19.5001 18.5 19.1643 18.5 18.7501V12.0079C18.5 11.5937 18.8358 11.2579 19.25 11.2579C19.6642 11.2579 20 11.5937 20 12.0079V18.7501C20 19.9928 18.9926 21.0001 17.75 21.0001H5.25391C4.01127 21.0001 3.00391 19.9928 3.00391 18.7501V6.25013C3.00391 5.00749 4.01127 4.00013 5.25391 4.00013H11.9923C12.4065 4.00013 12.7423 4.33592 12.7423 4.75013C12.7423 5.16435 12.4065 5.50013 11.9923 5.50013H5.25391Z" fill="#16191D"/>
</svg>
