<svg width="24" height="24" viewBox="0 0 24 24" fill="none" xmlns="http://www.w3.org/2000/svg">
<path d="M4.28748 4.50049C3.87326 4.50049 3.53748 4.83627 3.53748 5.25049V18.7505C3.53748 19.1647 3.87326 19.5005 4.28748 19.5005H11.0328L11.0328 4.50049H4.28748ZM12.5328 4.50049L12.5328 19.5005H19.7875C20.2017 19.5005 20.5375 19.1647 20.5375 18.7505V5.25049C20.5375 4.83627 20.2017 4.50049 19.7875 4.50049H12.5328ZM2.03748 5.25049C2.03748 4.00785 3.04484 3.00049 4.28748 3.00049H19.7875C21.0301 3.00049 22.0375 4.00785 22.0375 5.25049V18.7505C22.0375 19.9931 21.0301 21.0005 19.7875 21.0005H4.28748C3.04484 21.0005 2.03748 19.9931 2.03748 18.7505V5.25049ZM5.03513 9.00049C5.03513 8.58627 5.37092 8.25049 5.78513 8.25049H8.78513C9.19935 8.25049 9.53513 8.58627 9.53513 9.00049C9.53513 9.4147 9.19935 9.75049 8.78513 9.75049H5.78513C5.37092 9.75049 5.03513 9.4147 5.03513 9.00049ZM5.03513 12.0005C5.03513 11.5863 5.37092 11.2505 5.78513 11.2505H8.78513C9.19935 11.2505 9.53513 11.5863 9.53513 12.0005C9.53513 12.4147 9.19935 12.7505 8.78513 12.7505H5.78513C5.37092 12.7505 5.03513 12.4147 5.03513 12.0005ZM5.03513 15.0005C5.03513 14.5863 5.37092 14.2505 5.78513 14.2505H8.78513C9.19935 14.2505 9.53513 14.5863 9.53513 15.0005C9.53513 15.4147 9.19935 15.7505 8.78513 15.7505H5.78513C5.37092 15.7505 5.03513 15.4147 5.03513 15.0005Z" fill="#16191D"/>
</svg>
