<svg width="24" height="24" viewBox="0 0 24 24" fill="none" xmlns="http://www.w3.org/2000/svg">
<path fill-rule="evenodd" clip-rule="evenodd" d="M5.46135 3.62819C5.88817 3.1514 6.49783 2.87891 7.13776 2.87891H16.8622C17.5022 2.87891 18.1118 3.1514 18.5386 3.62819L21.4547 6.88564C22.1914 7.70853 22.2218 8.94442 21.5266 9.80262L12.9713 20.364C12.471 20.9816 11.529 20.9816 11.0287 20.364L2.47335 9.80262C1.77816 8.94442 1.80864 7.70853 2.54529 6.88564L5.46135 3.62819ZM7.13776 4.37891C6.92445 4.37891 6.72123 4.46974 6.57896 4.62867L3.91804 7.6011L7.71911 7.6011L10.4653 4.37891H7.13776ZM13.592 4.37891L16.3889 7.6011L20.082 7.6011L17.421 4.62867C17.2788 4.46974 17.0755 4.37891 16.8622 4.37891H13.592ZM20.1645 9.1011L16.5784 9.1011L13.8384 16.9106L20.1645 9.1011ZM12.107 19.0479C12.0347 19.0517 11.9622 19.0505 11.89 19.0443L12 19.1801L12.107 19.0479ZM10.2595 17.0315L7.53028 9.1011L3.83548 9.1011L10.2595 17.0315ZM9.11663 9.1011L12.0244 17.5501L14.9888 9.1011L9.11663 9.1011ZM14.4026 7.6011L12.0248 4.86158L9.68997 7.6011L14.4026 7.6011Z" fill="#16191D"/>
</svg>
