<svg width="24" height="24" viewBox="0 0 24 24" fill="none" xmlns="http://www.w3.org/2000/svg">
<path d="M6.33588 6.34272C6.62877 6.04983 7.10364 6.04982 7.39654 6.34271L16.3721 15.3181L16.3704 10.0481C16.3702 9.63388 16.7059 9.29798 17.1201 9.29784C17.5343 9.2977 17.8702 9.63338 17.8704 10.0476L17.8727 17.121C17.8728 17.32 17.7937 17.5109 17.653 17.6516C17.5123 17.7923 17.3215 17.8713 17.1225 17.8713L10.049 17.8689C9.63483 17.8688 9.29915 17.5329 9.29929 17.1187C9.29943 16.7044 9.63532 16.3688 10.0495 16.3689L15.3033 16.3707L6.33589 7.40338C6.04299 7.11049 6.04299 6.63562 6.33588 6.34272Z" fill="#16191D"/>
</svg>
