<svg width="21" height="21" viewBox="0 0 21 21" fill="none" xmlns="http://www.w3.org/2000/svg">
<path d="M3.54785 3.79492C3.54785 3.38071 3.88364 3.04492 4.29785 3.04492H12.2949C12.7091 3.04492 13.0449 2.70914 13.0449 2.29492C13.0449 1.88071 12.7091 1.54492 12.2949 1.54492H4.29785C3.05521 1.54492 2.04785 2.55228 2.04785 3.79492V17.2915C2.04785 18.5341 3.05521 19.5415 4.29785 19.5415H12.2949C12.7091 19.5415 13.0449 19.2057 13.0449 18.7915C13.0449 18.3773 12.7091 18.0415 12.2949 18.0415H4.29785C3.88364 18.0415 3.54785 17.7057 3.54785 17.2915V3.79492Z" fill="#576175"/>
<path d="M19.7657 11.0713L15.7657 15.0713C15.4728 15.3642 14.9979 15.3642 14.705 15.0713C14.4121 14.7785 14.4121 14.3036 14.705 14.0107L17.4247 11.291L7.72021 11.291C7.30599 11.291 6.97021 10.9552 6.97021 10.541C6.97021 10.1268 7.30599 9.79102 7.72021 9.79102L17.4247 9.79102L14.705 7.07135C14.4121 6.77845 14.4121 6.30358 14.705 6.01069C14.9979 5.71779 15.4728 5.71779 15.7657 6.01069L19.7657 10.0107C20.0586 10.3036 20.0586 10.7785 19.7657 11.0713Z" fill="#576175"/>
</svg>
