<svg width="20" height="20" viewBox="0 0 20 20" fill="none" xmlns="http://www.w3.org/2000/svg">
<path d="M18.2029 15.1568C18.6171 15.1568 18.9529 14.821 18.9529 14.4068V9.38768C18.9529 8.97347 18.6171 8.63768 18.2029 8.63768C17.7886 8.63768 17.4529 8.97347 17.4529 9.38768V12.5974L11.3942 6.5387C11.1303 6.27478 10.7125 6.24509 10.4139 6.46903L6.87821 9.12077L2.26812 4.51069C1.97523 4.21779 1.50036 4.21779 1.20746 4.51069C0.91457 4.80358 0.91457 5.27845 1.20746 5.57135L6.2775 10.6414C6.54142 10.9053 6.95924 10.935 7.25783 10.7111L10.7935 8.05931L16.3909 13.6568H13.1838C12.7696 13.6568 12.4338 13.9925 12.4338 14.4068C12.4338 14.821 12.7696 15.1568 13.1838 15.1568H18.2029Z" fill="#576175"/>
</svg>
