<svg width="21" height="21" viewBox="0 0 21 21" fill="none" xmlns="http://www.w3.org/2000/svg">
<path d="M14.3521 7.18256C14.645 7.47546 14.645 7.95033 14.3521 8.24322L12.0543 10.541L14.3521 12.8388C14.645 13.1317 14.645 13.6066 14.3521 13.8995C14.0592 14.1924 13.5843 14.1924 13.2914 13.8995L10.9937 11.6017L8.69525 13.9001C8.40236 14.193 7.92749 14.193 7.63459 13.9001C7.3417 13.6072 7.3417 13.1323 7.63459 12.8394L9.93299 10.541L7.6346 8.24262C7.3417 7.94972 7.3417 7.47485 7.6346 7.18196C7.92749 6.88906 8.40236 6.88906 8.69526 7.18196L10.9937 9.48036L13.2914 7.18256C13.5843 6.88967 14.0592 6.88967 14.3521 7.18256Z" fill="#576175"/>
<path fill-rule="evenodd" clip-rule="evenodd" d="M19.9932 5.56044V15.5216C19.9932 16.0731 19.9932 16.5321 19.9626 16.9067C19.9307 17.297 19.8619 17.6614 19.6866 18.0054C19.417 18.5346 18.9867 18.9648 18.4575 19.2345C18.1136 19.4097 17.7492 19.4785 17.3589 19.5104C16.9842 19.541 16.5253 19.541 15.9738 19.541L6.01257 19.541C5.46104 19.541 5.00209 19.541 4.62745 19.5104C4.23714 19.4785 3.87277 19.4097 3.52882 19.2345C2.99961 18.9648 2.56935 18.5346 2.29971 18.0054C2.12446 17.6614 2.05565 17.297 2.02376 16.9067C1.99315 16.5321 1.99315 16.0731 1.99316 15.5216V5.56042C1.99315 5.00889 1.99315 4.54994 2.02376 4.1753C2.05565 3.78499 2.12446 3.42062 2.29971 3.07667C2.56936 2.54746 2.99961 2.1172 3.52882 1.84756C3.87277 1.67231 4.23714 1.6035 4.62745 1.57161C5.00209 1.541 5.46104 1.54101 6.01257 1.54102H15.9737C16.5253 1.54101 16.9842 1.541 17.3589 1.57161C17.7492 1.6035 18.1136 1.67231 18.4575 1.84756C18.9867 2.11721 19.417 2.54746 19.6866 3.07667C19.8619 3.42062 19.9307 3.78499 19.9626 4.1753C19.9932 4.54995 19.9932 5.0089 19.9932 5.56044ZM18.4676 4.29745C18.4432 3.9999 18.3997 3.8549 18.3501 3.75765C18.2243 3.51069 18.0235 3.30991 17.7765 3.18407C17.6793 3.13452 17.5343 3.09094 17.2367 3.06663C16.9304 3.0416 16.5331 3.04102 15.9432 3.04102L6.04317 3.04102C5.45324 3.04102 5.0559 3.0416 4.74959 3.06663C4.45205 3.09094 4.30705 3.13452 4.2098 3.18407C3.96284 3.3099 3.76205 3.51069 3.63622 3.75765C3.58667 3.8549 3.54309 3.9999 3.51878 4.29744C3.49375 4.60375 3.49317 5.00109 3.49317 5.59102L3.49317 15.491C3.49317 16.0809 3.49375 16.4783 3.51877 16.7846C3.54308 17.0821 3.58667 17.2271 3.63622 17.3244C3.76205 17.5713 3.96284 17.7721 4.2098 17.898C4.30705 17.9475 4.45205 17.9911 4.74959 18.0154C5.05589 18.0404 5.45324 18.041 6.04317 18.041L15.9432 18.041C16.5331 18.041 16.9304 18.0404 17.2367 18.0154C17.5343 17.9911 17.6793 17.9475 17.7765 17.898C18.0235 17.7721 18.2243 17.5713 18.3501 17.3244C18.3997 17.2271 18.4432 17.0821 18.4676 16.7846C18.4926 16.4783 18.4932 16.0809 18.4932 15.491V5.59102C18.4932 5.00109 18.4926 4.60375 18.4676 4.29745Z" fill="#576175"/>
</svg>
