<svg width="24" height="24" viewBox="0 0 24 24" fill="none" xmlns="http://www.w3.org/2000/svg">
<path d="M13.4997 9.75018C13.4997 8.92192 12.8283 8.25049 12 8.25049C11.1717 8.25049 10.5003 8.92192 10.5003 9.75018C10.5003 10.5784 11.1717 11.2499 12 11.2499C12.8283 11.2499 13.4997 10.5784 13.4997 9.75018Z" fill="#16191D"/>
<path d="M9.00031 14.2492C9.00031 13.4209 8.32887 12.7495 7.50061 12.7495C6.67235 12.7495 6.00092 13.4209 6.00092 14.2492C6.00092 15.0775 6.67235 15.7489 7.50061 15.7489C8.32887 15.7489 9.00031 15.0775 9.00031 14.2492Z" fill="#16191D"/>
<path d="M13.4997 14.2492C13.4997 13.4209 12.8283 12.7495 12 12.7495C11.1717 12.7495 10.5003 13.4209 10.5003 14.2492C10.5003 15.0775 11.1717 15.7489 12 15.7489C12.8283 15.7489 13.4997 15.0775 13.4997 14.2492Z" fill="#16191D"/>
<path d="M16.4994 12.7495C17.3276 12.7495 17.9991 13.4209 17.9991 14.2492C17.9991 15.0775 17.3276 15.7489 16.4994 15.7489C15.6711 15.7489 14.9997 15.0775 14.9997 14.2492C14.9997 13.4209 15.6711 12.7495 16.4994 12.7495Z" fill="#16191D"/>
<path d="M7.50061 8.25049C8.32887 8.25049 9.00031 8.92192 9.00031 9.75018C9.00031 10.5784 8.32887 11.2499 7.50061 11.2499C6.67235 11.2499 6.00092 10.5784 6.00092 9.75018C6.00092 8.92192 6.67235 8.25049 7.50061 8.25049Z" fill="#16191D"/>
<path d="M17.9991 9.75018C17.9991 8.92192 17.3276 8.25049 16.4994 8.25049C15.6711 8.25049 14.9997 8.92192 14.9997 9.75018C14.9997 10.5784 15.6711 11.2499 16.4994 11.2499C17.3276 11.2499 17.9991 10.5784 17.9991 9.75018Z" fill="#16191D"/>
</svg>
