<svg width="24" height="24" viewBox="0 0 24 24" fill="none" xmlns="http://www.w3.org/2000/svg">
<path d="M12.001 1.99854C6.47759 1.99854 2 6.47612 2 11.9995C2 17.5229 6.47759 22.0005 12.001 22.0005C17.5244 22.0005 22.002 17.5229 22.002 11.9995C22.002 6.47612 17.5244 1.99854 12.001 1.99854ZM16.5751 8.54519L14.5011 13.2031C14.2211 13.832 13.7154 14.3329 13.084 14.607L8.53382 16.5824C7.82637 16.8896 7.10845 16.1716 7.41568 15.4641L9.39167 10.9142C9.66578 10.2831 10.1665 9.77761 10.7951 9.49762L15.4528 7.42298C16.1644 7.10602 16.892 7.83354 16.5751 8.54519Z" fill="#16191D"/>
</svg>
