<svg width="21" height="21" viewBox="0 0 21 21" fill="none" xmlns="http://www.w3.org/2000/svg">
<path d="M5.49481 9.04199C6.32307 9.04199 6.99451 9.71343 6.99451 10.5417C6.99451 11.3699 6.32307 12.0414 5.49481 12.0414C4.66655 12.0414 3.99512 11.3699 3.99512 10.5417C3.99512 9.71343 4.66655 9.04199 5.49481 9.04199Z" fill="#576175"/>
<path d="M9.99432 9.04199C10.8226 9.04199 11.494 9.71343 11.494 10.5417C11.494 11.3699 10.8226 12.0414 9.99432 12.0414C9.16607 12.0414 8.49463 11.3699 8.49463 10.5417C8.49463 9.71343 9.16607 9.04199 9.99432 9.04199Z" fill="#576175"/>
<path d="M15.993 10.5417C15.993 9.71343 15.3216 9.04199 14.4933 9.04199C13.6651 9.04199 12.9937 9.71343 12.9937 10.5417C12.9937 11.3699 13.6651 12.0414 14.4933 12.0414C15.3216 12.0414 15.993 11.3699 15.993 10.5417Z" fill="#576175"/>
</svg>
