<svg width="21" height="21" viewBox="0 0 21 21" fill="none" xmlns="http://www.w3.org/2000/svg">
<path d="M5.55747 9.79115L9.27469 6.0764C9.56768 5.78361 9.56783 5.30873 9.27504 5.01574C8.98224 4.72275 8.50737 4.7226 8.21438 5.01539L3.21106 10.0154C3.0703 10.1561 2.99121 10.3469 2.99121 10.5459C2.99121 10.7449 3.0703 10.9357 3.21106 11.0764L8.21438 16.0764C8.50737 16.3692 8.98224 16.369 9.27504 16.0761C9.56783 15.7831 9.56768 15.3082 9.27469 15.0154L5.54797 11.2912L18.2402 11.291C18.6544 11.291 18.9902 10.9552 18.9902 10.541C18.9902 10.1268 18.6544 9.79101 18.2402 9.79101L5.55747 9.79115Z" fill="#576175"/>
</svg>
