<svg width="24" height="24" viewBox="0 0 24 24" fill="none" xmlns="http://www.w3.org/2000/svg">
<path d="M20 7.40049C20.3314 7.40049 20.6 7.66912 20.6 8.00049V19.0005C20.6 19.3319 20.3314 19.6005 20 19.6005H4C3.66863 19.6005 3.4 19.3319 3.4 19.0005V8.00049C3.4 7.66912 3.66863 7.40049 4 7.40049H20ZM4 6.00049C2.89543 6.00049 2 6.89592 2 8.00049V19.0005C2 20.1051 2.89543 21.0005 4 21.0005H20C21.1046 21.0005 22 20.1051 22 19.0005V8.00049C22 6.89592 21.1046 6.00049 20 6.00049H4Z" fill="#16191D"/>
<path d="M14 4.40049C14.3314 4.40049 14.6 4.66912 14.6 5.00049V19.6005H9.4V5.00049C9.4 4.66912 9.66863 4.40049 10 4.40049H14ZM10 3.00049C8.89543 3.00049 8 3.89592 8 5.00049V21.0005H16V5.00049C16 3.89592 15.1046 3.00049 14 3.00049H10Z" fill="#16191D"/>
<path d="M8 5.00049L7.99999 7.00046H16L16 5.00049C16 3.89592 15.1046 3.00049 14 3.00049H10C8.89543 3.00049 8 3.89592 8 5.00049ZM14 4.40049C14.3314 4.40049 14.6 4.66912 14.6 5.00049L14.6 6.80046H9.39999L9.4 5.00049C9.4 4.66912 9.66863 4.40049 10 4.40049H14Z" fill="#16191D"/>
</svg>
