<svg width="24" height="24" viewBox="0 0 24 24" fill="none" xmlns="http://www.w3.org/2000/svg">
<path d="M19 5.00024L12 3.50022L4.5 5.00024V6.50024L12 8.00024L19.5 6.50024L19 5.00024Z" fill="#16191D"/>
<path d="M12 3.50022L12.1571 2.76687L12.0052 2.73431L11.8529 2.76478L12 3.50022ZM19 5.00024L19.7115 4.76307L19.576 4.35666L19.1571 4.26689L19 5.00024ZM19.5 6.50024L19.6471 7.23568L20.4802 7.06906L20.2115 6.26307L19.5 6.50024ZM12 8.00024L11.8529 8.73568L12 8.7651L12.1471 8.73568L12 8.00024ZM4.5 6.50024H3.75V7.1151L4.35291 7.23568L4.5 6.50024ZM4.5 5.00024L4.35291 4.26481L3.75 4.38539V5.00024H4.5ZM19.25 5.778C19.25 5.81789 19.2264 5.97525 18.9071 6.22692C18.5962 6.47193 18.0999 6.72537 17.4197 6.9521C16.0672 7.40294 14.151 7.69466 12 7.69466V9.19466C14.2673 9.19466 16.3511 8.88943 17.894 8.37513C18.6616 8.11928 19.3368 7.79811 19.8356 7.40504C20.3259 7.01864 20.75 6.47448 20.75 5.778H19.25ZM12 7.69466C9.84904 7.69466 7.93284 7.40294 6.58032 6.9521C5.90013 6.72537 5.4038 6.47193 5.09291 6.22692C4.77357 5.97525 4.75 5.81789 4.75 5.778H3.25C3.25 6.47448 3.67415 7.01864 4.16445 7.40504C4.66321 7.79811 5.33844 8.11928 6.10597 8.37513C7.64888 8.88943 9.73268 9.19466 12 9.19466V7.69466ZM4.75 5.778C4.75 5.7381 4.77357 5.58074 5.09291 5.32907C5.4038 5.08406 5.90013 4.83062 6.58032 4.60389C7.93284 4.15305 9.84904 3.86133 12 3.86133V2.36133C9.73268 2.36133 7.64888 2.66656 6.10597 3.18086C5.33844 3.43671 4.66321 3.75788 4.16445 4.15095C3.67415 4.53735 3.25 5.08151 3.25 5.778H4.75ZM12 3.86133C14.151 3.86133 16.0672 4.15305 17.4197 4.60389C18.0999 4.83062 18.5962 5.08406 18.9071 5.32907C19.2264 5.58074 19.25 5.7381 19.25 5.778H20.75C20.75 5.08151 20.3259 4.53735 19.8356 4.15095C19.3368 3.75788 18.6616 3.43671 17.894 3.18086C16.3511 2.66656 14.2673 2.36133 12 2.36133V3.86133ZM19.25 12.0002C19.25 12.0433 19.2252 12.2012 18.9092 12.4516C18.6007 12.696 18.1074 12.9491 17.4292 13.1755C16.0805 13.6257 14.1646 13.9169 12 13.9169V15.4169C14.2798 15.4169 16.3639 15.1125 17.9042 14.5983C18.6704 14.3425 19.3437 14.0211 19.8408 13.6272C20.3304 13.2393 20.75 12.6949 20.75 12.0002H19.25ZM12 13.9169C9.83535 13.9169 7.91946 13.6257 6.57083 13.1755C5.89264 12.9491 5.39928 12.696 5.0908 12.4516C4.77483 12.2012 4.75 12.0433 4.75 12.0002H3.25C3.25 12.6949 3.66962 13.2393 4.1592 13.6272C4.65627 14.0211 5.32958 14.3425 6.09583 14.5983C7.6361 15.1125 9.7202 15.4169 12 15.4169V13.9169ZM3.25 5.778V18.2224H4.75V5.778H3.25ZM3.25 18.2224C3.25 18.9171 3.66962 19.4615 4.1592 19.8494C4.65627 20.2433 5.32958 20.5647 6.09583 20.8205C7.6361 21.3347 9.7202 21.6391 12 21.6391V20.1391C9.83535 20.1391 7.91946 19.8479 6.57083 19.3977C5.89264 19.1713 5.39928 18.9182 5.0908 18.6738C4.77483 18.4234 4.75 18.2655 4.75 18.2224H3.25ZM12 21.6391C14.2798 21.6391 16.3639 21.3347 17.9042 20.8205C18.6704 20.5647 19.3437 20.2433 19.8408 19.8494C20.3304 19.4615 20.75 18.9171 20.75 18.2224H19.25C19.25 18.2655 19.2252 18.4234 18.9092 18.6738C18.6007 18.9182 18.1074 19.1713 17.4292 19.3977C16.0805 19.8479 14.1646 20.1391 12 20.1391V21.6391ZM20.75 18.2224V5.778H19.25V18.2224H20.75ZM11.8429 4.23357L18.8429 5.7336L19.1571 4.26689L12.1571 2.76687L11.8429 4.23357ZM18.2885 5.23742L18.7885 6.73742L20.2115 6.26307L19.7115 4.76307L18.2885 5.23742ZM19.3529 5.76481L11.8529 7.26481L12.1471 8.73568L19.6471 7.23568L19.3529 5.76481ZM12.1471 7.26481L4.64709 5.76481L4.35291 7.23568L11.8529 8.73568L12.1471 7.26481ZM5.25 6.50024V5.00024H3.75V6.50024H5.25ZM4.64709 5.73568L12.1471 4.23565L11.8529 2.76478L4.35291 4.26481L4.64709 5.73568Z" fill="#16191D"/>
</svg>
