<svg width="24" height="24" viewBox="0 0 24 24" fill="none" xmlns="http://www.w3.org/2000/svg">
<path d="M12.5046 2.30173C12.2247 2.06421 11.7947 2.04792 11.5147 2.28544C11.1365 2.60312 10.7411 2.90152 10.3376 3.18621C9.63272 3.68367 8.7928 4.20063 8.10387 4.43213C7.51471 4.63011 6.67841 4.7396 5.94523 4.79576C5.52633 4.82786 5.10604 4.84949 4.68582 4.85022C4.48689 4.85015 4.29608 4.92911 4.15537 5.06973C4.01462 5.2104 3.93555 5.40123 3.93555 5.60022V12.0004C3.93555 16.5208 7.95854 19.9328 11.6641 21.814L12.3365 21.8137C16.0274 19.9633 20.0645 16.471 20.0645 12.0004V5.60022C20.0645 5.40123 19.9854 5.2104 19.8446 5.06973C19.4618 4.68712 18.5564 4.83419 18.0548 4.79576C17.3216 4.7396 16.4853 4.63011 15.8961 4.43213C15.2072 4.20063 14.3673 3.68367 13.6624 3.18621C13.0612 2.76197 12.6025 2.38358 12.5046 2.30173ZM12 3.82006C13.0377 4.62802 14.1638 5.43241 15.4183 5.854C16.4233 6.19172 17.5099 6.28068 18.5645 6.32963V12.0004C18.5645 15.7919 15.0248 18.6022 12 20.2922C8.97522 18.6022 5.43555 15.7919 5.43555 12.0004V6.32963C6.49006 6.28068 7.57668 6.19172 8.58167 5.854C9.83625 5.43241 10.9623 4.62802 12 3.82006Z" fill="#16191D"/>
<path d="M9.94439 8.88605C9.6515 8.59316 9.17663 8.59316 8.88373 8.88605C8.59084 9.17894 8.59084 9.65382 8.88373 9.94671L10.9374 12.0004L8.88373 14.054C8.59084 14.3469 8.59084 14.8218 8.88373 15.1147C9.17663 15.4076 9.6515 15.4076 9.94439 15.1147L11.998 13.061L14.0517 15.1147C14.3446 15.4076 14.8195 15.4076 15.1124 15.1147C15.4053 14.8218 15.4053 14.3469 15.1124 14.054L13.0587 12.0004L15.1124 9.94671C15.4053 9.65382 15.4053 9.17894 15.1124 8.88605C14.8195 8.59316 14.3446 8.59316 14.0517 8.88605L11.998 10.9397L9.94439 8.88605Z" fill="#16191D"/>
<path d="M11.6641 21.814C11.8753 21.9196 12.1243 21.9198 12.3354 21.8143L11.6641 21.814Z" fill="#16191D"/>
</svg>
