<svg width="24" height="24" viewBox="0 0 24 24" fill="none" xmlns="http://www.w3.org/2000/svg">
<path fill-rule="evenodd" clip-rule="evenodd" d="M17.5297 18.0326C17.2367 18.3254 16.7618 18.3252 16.469 18.0322L11.9996 13.5598L7.53008 18.0322C7.23728 18.3252 6.76241 18.3254 6.46942 18.0326C6.17643 17.7398 6.17627 17.2649 6.46907 16.9719L11.469 11.9686C11.6097 11.8278 11.8006 11.7487 11.9995 11.7487C12.1985 11.7487 12.3894 11.8278 12.5301 11.9686L17.5301 16.9719C17.8229 17.2649 17.8227 17.7398 17.5297 18.0326ZM17.5306 12.0314C17.2376 12.3242 16.7628 12.324 16.47 12.031L12.0005 7.55857L7.53098 12.031C7.23818 12.324 6.76331 12.3242 6.47032 12.0314C6.17733 11.7386 6.17717 11.2637 6.46997 10.9707L11.47 5.9674C11.6106 5.82664 11.8015 5.74756 12.0005 5.74756C12.1995 5.74756 12.3903 5.82664 12.531 5.9674L17.531 10.9707C17.8238 11.2637 17.8236 11.7386 17.5306 12.0314Z" fill="#16191D"/>
</svg>
