<svg width="24" height="24" viewBox="0 0 24 24" fill="none" xmlns="http://www.w3.org/2000/svg">
<path d="M9.75031 9.00037C10.5786 9.00037 11.25 8.32893 11.25 7.50067C11.25 6.67241 10.5786 6.00098 9.75031 6.00098C8.92205 6.00098 8.25061 6.67241 8.25061 7.50067C8.25061 8.32893 8.92205 9.00037 9.75031 9.00037Z" fill="#16191D"/>
<path d="M9.75031 13.4994C10.5786 13.4994 11.25 12.828 11.25 11.9997C11.25 11.1714 10.5786 10.5 9.75031 10.5C8.92205 10.5 8.25061 11.1714 8.25061 11.9997C8.25061 12.828 8.92205 13.4994 9.75031 13.4994Z" fill="#16191D"/>
<path d="M11.25 16.4997C11.25 17.328 10.5786 17.9994 9.75031 17.9994C8.92205 17.9994 8.25061 17.328 8.25061 16.4997C8.25061 15.6714 8.92205 15 9.75031 15C10.5786 15 11.25 15.6714 11.25 16.4997Z" fill="#16191D"/>
<path d="M14.2497 13.4994C15.078 13.4994 15.7494 12.828 15.7494 11.9997C15.7494 11.1714 15.078 10.5 14.2497 10.5C13.4214 10.5 12.75 11.1714 12.75 11.9997C12.75 12.828 13.4214 13.4994 14.2497 13.4994Z" fill="#16191D"/>
<path d="M15.7494 7.50067C15.7494 8.32893 15.078 9.00037 14.2497 9.00037C13.4214 9.00037 12.75 8.32893 12.75 7.50067C12.75 6.67241 13.4214 6.00098 14.2497 6.00098C15.078 6.00098 15.7494 6.67241 15.7494 7.50067Z" fill="#16191D"/>
<path d="M14.2497 17.9994C15.078 17.9994 15.7494 17.328 15.7494 16.4997C15.7494 15.6714 15.078 15 14.2497 15C13.4214 15 12.75 15.6714 12.75 16.4997C12.75 17.328 13.4214 17.9994 14.2497 17.9994Z" fill="#16191D"/>
</svg>
