<svg width="21" height="21" viewBox="0 0 21 21" fill="none" xmlns="http://www.w3.org/2000/svg">
<path d="M6.52123 12.2614C6.22843 11.9684 5.75356 11.9683 5.46057 12.2611C5.16758 12.5539 5.16742 13.0288 5.46022 13.3217L10.4602 18.3251C10.6009 18.4658 10.7917 18.5449 10.9907 18.5449C11.1897 18.5449 11.3806 18.4658 11.5212 18.3251L16.5212 13.3217C16.814 13.0288 16.8139 12.5539 16.5209 12.2611C16.2279 11.9683 15.753 11.9684 15.4602 12.2614L11.746 15.9782L11.7461 3.29591C11.7461 2.88169 11.4103 2.5459 10.9961 2.5459C10.5819 2.54589 10.2461 2.88168 10.2461 3.29589L10.246 15.9886L6.52123 12.2614Z" fill="#576175"/>
</svg>
