<svg width="21" height="21" viewBox="0 0 21 21" fill="none" xmlns="http://www.w3.org/2000/svg">
<path d="M11.4935 6.04169C11.4935 6.86995 10.8221 7.54138 9.99384 7.54138C9.16558 7.54138 8.49414 6.86995 8.49414 6.04169C8.49414 5.21343 9.16558 4.54199 9.99384 4.54199C10.8221 4.54199 11.4935 5.21343 11.4935 6.04169Z" fill="#576175"/>
<path d="M11.4935 10.5417C11.4935 11.3699 10.8221 12.0414 9.99384 12.0414C9.16558 12.0414 8.49414 11.3699 8.49414 10.5417C8.49414 9.71343 9.16558 9.04199 9.99384 9.04199C10.8221 9.04199 11.4935 9.71343 11.4935 10.5417Z" fill="#576175"/>
<path d="M9.99384 16.5404C10.8221 16.5404 11.4935 15.869 11.4935 15.0407C11.4935 14.2125 10.8221 13.541 9.99384 13.541C9.16558 13.541 8.49414 14.2125 8.49414 15.0407C8.49414 15.869 9.16558 16.5404 9.99384 16.5404Z" fill="#576175"/>
</svg>
