<svg width="24" height="24" viewBox="0 0 24 24" fill="none" xmlns="http://www.w3.org/2000/svg">
<path fill-rule="evenodd" clip-rule="evenodd" d="M3.125 5.25C3.125 4.07639 4.0764 3.125 5.25 3.125H18.75C19.9236 3.125 20.875 4.0764 20.875 5.25V13.4412C20.875 14.0048 20.6511 14.5453 20.2526 14.9438L14.9438 20.2526C14.5453 20.6511 14.0048 20.875 13.4412 20.875H5.25C4.0764 20.875 3.125 19.9236 3.125 18.75V5.25ZM5.25 4.375C4.76675 4.375 4.375 4.76675 4.375 5.25V18.75C4.375 19.2332 4.76675 19.625 5.25 19.625H13.4412C13.4419 19.625 13.4426 19.625 13.4434 19.625V15.5576C13.4434 14.384 14.3948 13.4326 15.5684 13.4326H19.625V5.25C19.625 4.76675 19.2332 4.375 18.75 4.375H5.25ZM18.746 14.6826H15.5684C15.0851 14.6826 14.6934 15.0744 14.6934 15.5576V18.7353L18.746 14.6826ZM7.50977 8.11592C7.50977 7.77074 7.78959 7.49092 8.13477 7.49092H14.6348C14.9799 7.49092 15.2598 7.77074 15.2598 8.11592C15.2598 8.4611 14.9799 8.74092 14.6348 8.74092H8.13477C7.78959 8.74092 7.50977 8.4611 7.50977 8.11592ZM7.50977 10.8659C7.50977 10.5207 7.78959 10.2409 8.13477 10.2409H11.1348C11.4799 10.2409 11.7598 10.5207 11.7598 10.8659C11.7598 11.2111 11.4799 11.4909 11.1348 11.4909H8.13477C7.78959 11.4909 7.50977 11.2111 7.50977 10.8659Z" fill="#16191D"/>
</svg>
