<svg width="24" height="24" viewBox="0 0 24 24" fill="none" xmlns="http://www.w3.org/2000/svg">
<path d="M10.75 9.83594C10.75 9.42172 10.4142 9.08594 10 9.08594C9.58579 9.08594 9.25 9.42172 9.25 9.83594V16.8359C9.25 17.2502 9.58579 17.5859 10 17.5859C10.4142 17.5859 10.75 17.2502 10.75 16.8359V9.83594Z" fill="#16191D"/>
<path d="M14 9.08594C14.4142 9.08594 14.75 9.42172 14.75 9.83594V16.8359C14.75 17.2502 14.4142 17.5859 14 17.5859C13.5858 17.5859 13.25 17.2502 13.25 16.8359V9.83594C13.25 9.42172 13.5858 9.08594 14 9.08594Z" fill="#16191D"/>
<path d="M18.0771 7.16699H18.8191C19.2333 7.16699 19.5691 6.83121 19.5691 6.41699C19.5691 6.00278 19.2333 5.66699 18.8191 5.66699H15.9067L15.4529 4.22469C15.2235 3.49579 14.5477 3 13.7836 3H10.2155C9.45135 3 8.77557 3.4958 8.54619 4.22469L8.09231 5.66699H5.18091C4.76669 5.66699 4.43091 6.00278 4.43091 6.41699C4.43091 6.83121 4.76669 7.16699 5.18091 7.16699H5.92383V18.2437C5.92383 19.7624 7.15505 20.9937 8.67383 20.9937H15.3271C16.8458 20.9937 18.0771 19.7624 18.0771 18.2437V7.16699ZM10.2155 4.5H13.7836C13.8927 4.5 13.9893 4.57083 14.022 4.67496L14.3342 5.66699H9.66483L9.97702 4.67496C10.0098 4.57083 10.1063 4.5 10.2155 4.5ZM8.65365 7.16699H15.3454C15.3526 7.1671 15.3599 7.1671 15.3671 7.16699H16.5771V18.2437C16.5771 18.934 16.0174 19.4937 15.3271 19.4937H8.67383C7.98347 19.4937 7.42383 18.934 7.42383 18.2437V7.16699H8.63196C8.6392 7.1671 8.64643 7.1671 8.65365 7.16699Z" fill="#16191D"/>
</svg>
