<svg width="24" height="24" viewBox="0 0 24 24" fill="none" xmlns="http://www.w3.org/2000/svg">
<path fill-rule="evenodd" clip-rule="evenodd" d="M4.28906 20.9995C3.04642 20.9995 2.03906 19.9922 2.03906 18.7495V5.24951C2.03906 4.00687 3.04642 2.99951 4.28906 2.99951H19.7891C21.0317 2.99951 22.0391 4.00687 22.0391 5.24951V18.7495C22.0391 19.9922 21.0317 20.9995 19.7891 20.9995H4.28906ZM19.7891 19.4995H12.5352L12.5352 4.49951H19.7891C20.2033 4.49951 20.5391 4.8353 20.5391 5.24951V18.7495C20.5391 19.1637 20.2033 19.4995 19.7891 19.4995ZM5.78516 8.24951C5.37094 8.24951 5.03516 8.5853 5.03516 8.99951C5.03516 9.41373 5.37094 9.74951 5.78516 9.74951H8.78516C9.19937 9.74951 9.53516 9.41373 9.53516 8.99951C9.53516 8.5853 9.19937 8.24951 8.78516 8.24951H5.78516ZM5.03516 11.9995C5.03516 11.5853 5.37094 11.2495 5.78516 11.2495H8.78516C9.19937 11.2495 9.53516 11.5853 9.53516 11.9995C9.53516 12.4137 9.19937 12.7495 8.78516 12.7495H5.78516C5.37094 12.7495 5.03516 12.4137 5.03516 11.9995ZM5.78516 14.2495C5.37094 14.2495 5.03516 14.5853 5.03516 14.9995C5.03516 15.4137 5.37094 15.7495 5.78516 15.7495H8.78516C9.19937 15.7495 9.53516 15.4137 9.53516 14.9995C9.53516 14.5853 9.19937 14.2495 8.78516 14.2495H5.78516Z" fill="#16191D"/>
</svg>
