<svg width="24" height="24" viewBox="0 0 24 24" fill="none" xmlns="http://www.w3.org/2000/svg">
<path d="M21 16.8312V7.16878C21 6.63532 21 6.18862 20.9693 5.82344C20.9371 5.44169 20.8674 5.08243 20.6891 4.74316C20.4163 4.22396 19.9833 3.80609 19.4561 3.54559C19.1142 3.37667 18.7524 3.31037 18.3639 3.27959C17.9902 3.24998 17.532 3.24999 16.9798 3.25L7.0202 3.25C6.468 3.24999 6.00983 3.24998 5.63612 3.27959C5.2476 3.31037 4.8858 3.37667 4.54392 3.54558C4.01667 3.80609 3.58369 4.22396 3.31088 4.74316C3.13261 5.08243 3.06291 5.44168 3.03075 5.82344C2.99998 6.18863 2.99999 6.63531 3 7.16879L3 16.8312C2.99999 17.3647 2.99998 17.8114 3.03075 18.1766C3.06291 18.5583 3.1326 18.9176 3.31088 19.2568C3.58369 19.776 4.01667 20.1939 4.54392 20.4544C4.8858 20.6233 5.2476 20.6896 5.63612 20.7204C6.00983 20.75 6.46797 20.75 7.02016 20.75H16.9798C17.532 20.75 17.9902 20.75 18.3639 20.7204C18.7524 20.6896 19.1142 20.6233 19.4561 20.4544C19.9833 20.1939 20.4163 19.776 20.6891 19.2568C20.8674 18.9176 20.9371 18.5583 20.9693 18.1766C21 17.8114 21 17.3647 21 16.8312ZM15.3588 8.64226C15.6517 8.93516 15.6517 9.41003 15.3588 9.70292L13.061 12.0007L15.3588 14.2984C15.6516 14.5913 15.6516 15.0662 15.3588 15.3591C15.0659 15.652 14.591 15.652 14.2981 15.3591L12.0004 13.0613L9.70191 15.3598C9.40901 15.6527 8.93414 15.6527 8.64125 15.3598C8.34835 15.0669 8.34835 14.592 8.64125 14.2991L10.9397 12.0007L8.64124 9.70221C8.34835 9.40931 8.34835 8.93444 8.64124 8.64155C8.93413 8.34865 9.40901 8.34865 9.7019 8.64155L12.0004 10.94L14.2981 8.64226C14.591 8.34937 15.0659 8.34937 15.3588 8.64226Z" fill="#16191D"/>
</svg>
