<svg width="21" height="21" viewBox="0 0 21 21" fill="none" xmlns="http://www.w3.org/2000/svg">
<path d="M11.493 8.29169C11.493 7.46343 10.8216 6.79199 9.99335 6.79199C9.16509 6.79199 8.49365 7.46343 8.49365 8.29169C8.49365 9.11995 9.16509 9.79138 9.99335 9.79138C10.8216 9.79138 11.493 9.11995 11.493 8.29169Z" fill="#576175"/>
<path d="M6.99353 12.7907C6.99353 11.9625 6.32209 11.291 5.49384 11.291C4.66558 11.291 3.99414 11.9625 3.99414 12.7907C3.99414 13.619 4.66558 14.2904 5.49384 14.2904C6.32209 14.2904 6.99353 13.619 6.99353 12.7907Z" fill="#576175"/>
<path d="M11.493 12.7907C11.493 11.9625 10.8216 11.291 9.99335 11.291C9.16509 11.291 8.49365 11.9625 8.49365 12.7907C8.49365 13.619 9.16509 14.2904 9.99335 14.2904C10.8216 14.2904 11.493 13.619 11.493 12.7907Z" fill="#576175"/>
<path d="M14.4924 11.291C15.3206 11.291 15.9921 11.9625 15.9921 12.7907C15.9921 13.619 15.3206 14.2904 14.4924 14.2904C13.6641 14.2904 12.9927 13.619 12.9927 12.7907C12.9927 11.9625 13.6641 11.291 14.4924 11.291Z" fill="#576175"/>
<path d="M5.49384 6.79199C6.32209 6.79199 6.99353 7.46343 6.99353 8.29169C6.99353 9.11995 6.32209 9.79138 5.49384 9.79138C4.66558 9.79138 3.99414 9.11995 3.99414 8.29169C3.99414 7.46343 4.66558 6.79199 5.49384 6.79199Z" fill="#576175"/>
<path d="M15.9921 8.29169C15.9921 7.46343 15.3206 6.79199 14.4924 6.79199C13.6641 6.79199 12.9927 7.46343 12.9927 8.29169C12.9927 9.11995 13.6641 9.79138 14.4924 9.79138C15.3206 9.79138 15.9921 9.11995 15.9921 8.29169Z" fill="#576175"/>
</svg>
