<svg width="21" height="21" viewBox="0 0 21 21" fill="none" xmlns="http://www.w3.org/2000/svg">
<g clip-path="url(#clip0_1505_60871)">
<path d="M14.8129 2.41603C12.9915 1.5327 10.9201 1.30826 8.95167 1.78097C6.98327 2.25367 5.23968 3.39426 4.01797 5.0084C3.20621 6.08091 2.65984 7.31816 2.40704 8.62024C2.3281 9.02686 2.59373 9.42049 3.00035 9.49944C3.40697 9.57838 3.8006 9.31275 3.87955 8.90613C4.08917 7.82642 4.54201 6.80151 5.21401 5.91366C6.22628 4.57623 7.67097 3.63117 9.30193 3.2395C10.9329 2.84783 12.6492 3.03379 14.1584 3.76569C15.4711 4.40227 16.2995 5.53356 17.3105 6.91411L17.4041 7.04177H15.0376C14.6234 7.04177 14.2876 7.37755 14.2876 7.79177C14.2876 8.20598 14.6234 8.54177 15.0376 8.54177H19.2802C19.6945 8.54177 20.0302 8.20598 20.0302 7.79177V3.54913C20.0302 3.13491 19.6945 2.79913 19.2802 2.79913C18.866 2.79913 18.5302 3.13491 18.5302 3.54913V6.03893L18.5138 6.01635C17.5395 4.67745 16.4835 3.22619 14.8129 2.41603Z" fill="#576175"/>
<path d="M13.083 19.2933C11.1146 19.766 9.04317 19.5415 7.2217 18.6582C5.55112 17.848 4.49509 16.3968 3.52083 15.0579C3.51535 15.0503 3.50987 15.0428 3.50439 15.0353L3.50439 17.5251C3.50439 17.9393 3.16861 18.2751 2.75439 18.2751C2.34018 18.2751 2.00439 17.9393 2.00439 17.5251V13.2825C2.00439 12.8682 2.34018 12.5325 2.75439 12.5325H6.99704C7.41125 12.5325 7.74704 12.8682 7.74704 13.2825C7.74704 13.6967 7.41125 14.0325 6.99704 14.0325H4.63057C4.66193 14.0752 4.69309 14.1178 4.72408 14.1601C5.7351 15.5407 6.56357 16.6719 7.87622 17.3085C9.38544 18.0404 11.1017 18.2264 12.7327 17.8347C14.3637 17.4431 15.8084 16.498 16.8206 15.1606C17.4969 14.2671 17.9525 13.2357 18.1606 12.1498C18.2386 11.743 18.6316 11.4765 19.0384 11.5544C19.4452 11.6324 19.7118 12.0254 19.6338 12.4322C19.3826 13.743 18.8326 14.9878 18.0167 16.0658C16.795 17.68 15.0514 18.8206 13.083 19.2933Z" fill="#576175"/>
</g>
<defs>
<clipPath id="clip0_1505_60871">
<rect width="20" height="20" fill="white" transform="translate(0.993164 0.541016)"/>
</clipPath>
</defs>
</svg>
