<svg width="21" height="21" viewBox="0 0 21 21" fill="none" xmlns="http://www.w3.org/2000/svg">
<g clip-path="url(#clip0_1505_60935)">
<path d="M10.9932 5.79102C11.4074 5.79102 11.7432 6.1268 11.7432 6.54102V9.79102H14.9932C15.4074 9.79102 15.7432 10.1268 15.7432 10.541C15.7432 10.9552 15.4074 11.291 14.9932 11.291H11.7432V14.541C11.7432 14.9552 11.4074 15.291 10.9932 15.291C10.579 15.291 10.2432 14.9552 10.2432 14.541V11.291H6.99316C6.57895 11.291 6.24316 10.9552 6.24316 10.541C6.24316 10.1268 6.57895 9.79102 6.99316 9.79102H10.2432V6.54102C10.2432 6.1268 10.579 5.79102 10.9932 5.79102Z" fill="#576175"/>
<path fill-rule="evenodd" clip-rule="evenodd" d="M0.993164 10.541C0.993164 5.01817 5.47032 0.541016 10.9932 0.541016C16.516 0.541016 20.9932 5.01817 20.9932 10.541C20.9932 16.0639 16.516 20.541 10.9932 20.541C5.47032 20.541 0.993164 16.0639 0.993164 10.541ZM10.9932 2.04102C6.29874 2.04102 2.49316 5.8466 2.49316 10.541C2.49316 15.2354 6.29874 19.041 10.9932 19.041C15.6876 19.041 19.4932 15.2354 19.4932 10.541C19.4932 5.8466 15.6876 2.04102 10.9932 2.04102Z" fill="#576175"/>
</g>
<defs>
<clipPath id="clip0_1505_60935">
<rect width="20" height="20" fill="white" transform="translate(0.993164 0.541016)"/>
</clipPath>
</defs>
</svg>
