<svg width="24" height="24" viewBox="0 0 24 24" fill="none" xmlns="http://www.w3.org/2000/svg">
<path d="M4 7.5C4 7.08579 4.33579 6.75 4.75 6.75H17.25C17.6642 6.75 18 7.08579 18 7.5C18 7.91421 17.6642 8.25 17.25 8.25H4.75C4.33579 8.25 4 7.91421 4 7.5Z" fill="#16191D"/>
<path d="M7 12C7 11.5858 7.33579 11.25 7.75 11.25H20.25C20.6642 11.25 21 11.5858 21 12C21 12.4142 20.6642 12.75 20.25 12.75H7.75C7.33579 12.75 7 12.4142 7 12Z" fill="#16191D"/>
<path d="M4.75 15.75C4.33579 15.75 4 16.0858 4 16.5C4 16.9142 4.33579 17.25 4.75 17.25H17.25C17.6642 17.25 18 16.9142 18 16.5C18 16.0858 17.6642 15.75 17.25 15.75H4.75Z" fill="#16191D"/>
</svg>
