<svg width="21" height="21" viewBox="0 0 21 21" fill="none" xmlns="http://www.w3.org/2000/svg">
<path d="M9.74561 8.37695C9.74561 7.96274 9.40982 7.62695 8.99561 7.62695C8.58139 7.62695 8.24561 7.96274 8.24561 8.37695V15.377C8.24561 15.7912 8.58139 16.127 8.99561 16.127C9.40982 16.127 9.74561 15.7912 9.74561 15.377V8.37695Z" fill="#576175"/>
<path d="M12.9956 7.62695C13.4098 7.62695 13.7456 7.96274 13.7456 8.37695V15.377C13.7456 15.7912 13.4098 16.127 12.9956 16.127C12.5814 16.127 12.2456 15.7912 12.2456 15.377V8.37695C12.2456 7.96274 12.5814 7.62695 12.9956 7.62695Z" fill="#576175"/>
<path fill-rule="evenodd" clip-rule="evenodd" d="M17.0727 5.70801H17.8145C18.2287 5.70801 18.5645 5.37222 18.5645 4.95801C18.5645 4.54379 18.2287 4.20801 17.8145 4.20801H14.9023L14.4485 2.76571C14.2191 2.03681 13.5433 1.54102 12.7792 1.54102H9.21107C8.44694 1.54102 7.77115 2.03681 7.54178 2.76571L7.0879 4.20801H4.17627C3.76206 4.20801 3.42627 4.54379 3.42627 4.95801C3.42627 5.37222 3.76206 5.70801 4.17627 5.70801H4.91943V16.7847C4.91943 18.3035 6.15065 19.5347 7.66944 19.5347H14.3227C15.8415 19.5347 17.0727 18.3035 17.0727 16.7847V5.70801ZM9.21107 3.04102C9.10191 3.04102 9.00537 3.11184 8.9726 3.21597L8.66042 4.20801H13.3298L13.0176 3.21597C12.9849 3.11184 12.8883 3.04102 12.7792 3.04102H9.21107ZM7.64923 5.70801C7.64202 5.70811 7.63479 5.70811 7.62756 5.70801H6.41943V16.7847C6.41943 17.475 6.97908 18.0347 7.66944 18.0347H14.3227C15.013 18.0347 15.5727 17.475 15.5727 16.7847V5.70801H14.3627C14.3554 5.70811 14.3482 5.70811 14.341 5.70801H7.64923Z" fill="#576175"/>
</svg>
