<svg width="24" height="24" viewBox="0 0 24 24" fill="none" xmlns="http://www.w3.org/2000/svg">
<path d="M15.8181 4.12697C13.9966 3.24364 11.9252 3.0192 9.95681 3.4919C7.98842 3.96461 6.24482 5.1052 5.02311 6.71934C3.8014 8.33348 3.17717 10.3213 3.25677 12.3441C3.33638 14.3669 4.1149 16.2995 5.45968 17.8126C6.80446 19.3258 8.6323 20.3258 10.6318 20.6424C12.6312 20.9589 14.6786 20.5724 16.425 19.5487C18.1714 18.5249 19.5088 16.9273 20.2094 15.028C20.3527 14.6394 20.1539 14.2081 19.7653 14.0648C19.3766 13.9215 18.9454 14.1203 18.8021 14.5089C18.2216 16.0826 17.1135 17.4064 15.6664 18.2546C14.2194 19.1028 12.523 19.4231 10.8663 19.1608C9.20962 18.8985 7.69512 18.0699 6.58088 16.8162C5.46663 15.5624 4.82157 13.9611 4.75561 12.2851C4.68965 10.6091 5.20688 8.96203 6.21915 7.6246C7.23142 6.28717 8.67612 5.3421 10.3071 4.95044C11.938 4.55877 13.6543 4.74473 15.1636 5.47663C16.4762 6.11321 17.3047 7.2445 18.3157 8.62505C18.3466 8.66732 18.3778 8.70986 18.4091 8.75259H16.0432C15.629 8.75259 15.2932 9.08838 15.2932 9.50259C15.2932 9.9168 15.629 10.2526 16.0432 10.2526H20.2858C20.7 10.2526 21.0358 9.9168 21.0358 9.50259V5.25995C21.0358 4.84574 20.7 4.50995 20.2858 4.50995C19.8716 4.50995 19.5358 4.84574 19.5358 5.25995V7.75046C19.5302 7.74274 19.5246 7.73501 19.5189 7.72728C18.5447 6.38839 17.4887 4.93712 15.8181 4.12697Z" fill="#16191D"/>
</svg>
