<svg width="24" height="24" viewBox="0 0 24 24" fill="none" xmlns="http://www.w3.org/2000/svg">
<path d="M8.1948 11.4702C7.90191 11.7631 7.90191 12.2379 8.1948 12.5308L12.1948 16.5308C12.4877 16.8237 12.9626 16.8237 13.2555 16.5308C13.5484 16.2379 13.5484 15.7631 13.2555 15.4702L9.78579 12.0005L13.2555 8.53082C13.5484 8.23792 13.5484 7.76305 13.2555 7.47016C12.9626 7.17726 12.4877 7.17726 12.1948 7.47016L8.1948 11.4702Z" fill="#16191D"/>
<path d="M8.21634 12.0005C8.21634 12.4147 8.55213 12.7505 8.96634 12.7505L20.2403 12.7505C20.6545 12.7505 20.9903 12.4147 20.9903 12.0005C20.9903 11.5863 20.6545 11.2505 20.2403 11.2505L8.96634 11.2505C8.55213 11.2505 8.21634 11.5863 8.21634 12.0005Z" fill="#16191D"/>
<path d="M5.30334 4.50439C4.88913 4.50439 4.55334 4.84018 4.55334 5.25439V18.751C4.55334 19.1652 4.88913 19.501 5.30334 19.501H13.3004C13.7146 19.501 14.0504 19.8368 14.0504 20.251C14.0504 20.6652 13.7146 21.001 13.3004 21.001H5.30334C4.0607 21.001 3.05334 19.9936 3.05334 18.751V5.25439C3.05334 4.01175 4.0607 3.00439 5.30334 3.00439H13.3004C13.7146 3.00439 14.0504 3.34018 14.0504 3.75439C14.0504 4.16861 13.7146 4.50439 13.3004 4.50439H5.30334Z" fill="#16191D"/>
</svg>
