<svg width="24" height="24" viewBox="0 0 24 24" fill="none" xmlns="http://www.w3.org/2000/svg">
<path d="M12 6.49414C12.4142 6.49414 12.75 6.82993 12.75 7.24414V12.4941C12.75 12.9084 12.4142 13.2441 12 13.2441C11.5858 13.2441 11.25 12.9084 11.25 12.4941V7.24414C11.25 6.82993 11.5858 6.49414 12 6.49414Z" fill="#16191D"/>
<path d="M12 14.7568C12.5523 14.7568 13 15.2046 13 15.7568V15.7578C13 16.3101 12.5523 16.7578 12 16.7578C11.4477 16.7578 11 16.3101 11 15.7578V15.7568C11 15.2046 11.4477 14.7568 12 14.7568Z" fill="#16191D"/>
<path d="M11.5167 2.28551C11.7966 2.048 12.2074 2.04809 12.4873 2.2856L12.4912 2.28885L12.5065 2.30173C12.5758 2.35965 12.8257 2.56606 13.1789 2.83212C13.3249 2.94208 13.4885 3.06223 13.6643 3.18629C14.3692 3.68375 15.2092 4.20071 15.8981 4.43221C16.4872 4.63019 17.3235 4.73968 18.0567 4.79584C18.4144 4.82324 18.7316 4.8369 18.9592 4.84367C19.0727 4.84706 19.1634 4.84871 19.2251 4.84952C19.2559 4.84993 19.2794 4.85012 19.2948 4.85021L19.3118 4.85029L19.3161 4.8503C19.515 4.85021 19.7059 4.92918 19.8466 5.06981C19.9873 5.21048 20.0664 5.40131 20.0664 5.6003V12.0004C20.0664 15.0782 18.0265 17.5544 16.1531 19.1936C15.2006 20.027 14.2517 20.679 13.5423 21.1224C13.1869 21.3445 12.8896 21.5155 12.6795 21.6318C12.5744 21.69 12.4909 21.7346 12.4327 21.7651C12.4036 21.7804 12.3808 21.7922 12.3648 21.8004L12.3458 21.8101L12.3403 21.8129L12.3385 21.8138C12.3385 21.8138 12.3374 21.8143 12.002 21.1435L11.6661 21.8141L11.6636 21.8129L11.6581 21.8101L11.6391 21.8004C11.6231 21.7922 11.6003 21.7804 11.5712 21.7651C11.513 21.7346 11.4295 21.69 11.3244 21.6318C11.1143 21.5155 10.817 21.3445 10.4616 21.1224C9.75225 20.679 8.80332 20.027 7.85085 19.1936C5.97742 17.5544 3.9375 15.0782 3.9375 12.0004V5.6003C3.9375 5.40131 4.01658 5.21048 4.15732 5.06981C4.29803 4.92919 4.48884 4.85023 4.68777 4.8503L4.69215 4.85029L4.70911 4.85021C4.72453 4.85012 4.74803 4.84993 4.77883 4.84952C4.84046 4.84871 4.93117 4.84706 5.04474 4.84367C5.27227 4.8369 5.58952 4.82324 5.94718 4.79584C6.68037 4.73968 7.51666 4.63019 8.10583 4.43221C8.79475 4.20071 9.63467 3.68375 10.3396 3.18629C10.6834 2.94368 10.9798 2.71674 11.19 2.55064C11.2949 2.46773 11.3779 2.40034 11.434 2.3542C11.4621 2.33114 11.4834 2.31341 11.4974 2.30173L11.5127 2.28885L11.5167 2.28551ZM11.2045 4.41186C10.4799 4.92316 9.49122 5.54909 8.58363 5.85408C7.80841 6.11458 6.8161 6.23367 6.06176 6.29146C5.83467 6.30886 5.6231 6.3211 5.4375 6.32971V12.0004C5.4375 14.4085 7.0548 16.5039 8.8386 18.0647C9.71475 18.8314 10.5944 19.4365 11.2566 19.8504C11.5595 20.0397 11.8152 20.1879 12.0019 20.2923C12.1887 20.1879 12.4444 20.0397 12.7473 19.8504C13.4095 19.4365 14.2892 18.8314 15.1653 18.0647C16.9491 16.5039 18.5664 14.4085 18.5664 12.0004V6.32971C18.3808 6.3211 18.1692 6.30886 17.9421 6.29146C17.1878 6.23367 16.1955 6.11458 15.4203 5.85408C14.5127 5.54909 13.524 4.92316 12.7994 4.41186C12.4891 4.19287 12.2155 3.98638 12.002 3.82014C11.7884 3.98638 11.5148 4.19287 11.2045 4.41186Z" fill="#16191D"/>
<path d="M11.6661 21.8141C11.8772 21.9197 12.1262 21.9199 12.3374 21.8143L12.002 21.1435C11.6665 21.8143 11.6661 21.8141 11.6661 21.8141Z" fill="#16191D"/>
</svg>
