<svg width="24" height="24" viewBox="0 0 24 24" fill="none" xmlns="http://www.w3.org/2000/svg">
<path fill-rule="evenodd" clip-rule="evenodd" d="M4.02551 9.81989L3.42524 10.2331C3.08404 10.4679 2.61706 10.3817 2.38221 10.0405C2.14736 9.69929 2.23357 9.23231 2.57478 8.99746L10.6929 3.40978C11.4611 2.88099 12.476 2.88098 13.2442 3.40976L21.3626 8.99745C21.7038 9.23229 21.7901 9.69927 21.5552 10.0405C21.3204 10.3817 20.8534 10.4679 20.5122 10.2331L19.9745 9.86301L19.9745 19.2208C19.9745 20.1873 19.191 20.9708 18.2245 20.9708H15.1696C14.2463 20.9708 13.4973 20.2233 13.4954 19.3L13.4885 16.0023C13.4868 15.1802 12.8199 14.5146 11.9978 14.5146C11.1732 14.5146 10.5053 15.184 10.507 16.0085L10.5138 19.2969C10.5157 20.2208 9.76733 20.9708 8.84344 20.9708H5.77551C4.80902 20.9708 4.02551 20.1873 4.02551 19.2208L4.02551 9.81989ZM11.5433 4.64538C11.7994 4.46912 12.1377 4.46912 12.3938 4.64538L18.4745 8.8306L18.4745 19.2208C18.4745 19.3588 18.3626 19.4708 18.2245 19.4708H15.1696C15.0735 19.4708 14.9956 19.393 14.9954 19.2969L14.9885 15.9992C14.9851 14.3499 13.6471 13.0146 11.9978 13.0146C10.3436 13.0146 9.00356 14.3574 9.007 16.0116L9.01383 19.3C9.01403 19.3943 8.93769 19.4708 8.84344 19.4708H5.77551C5.63744 19.4708 5.52551 19.3588 5.52551 19.2208L5.52551 8.78744L11.5433 4.64538Z" fill="#16191D"/>
</svg>
