<svg width="24" height="24" viewBox="0 0 24 24" fill="none" xmlns="http://www.w3.org/2000/svg">
<path d="M17.6522 6.34906C17.7929 6.48978 17.8719 6.68064 17.8718 6.87964L17.8695 13.9531C17.8694 14.3673 17.5335 14.7029 17.1193 14.7028C16.705 14.7027 16.3694 14.3668 16.3695 13.9526L16.3713 8.68256L7.39568 17.6579C7.10278 17.9508 6.62791 17.9508 6.33502 17.6579C6.04213 17.365 6.04214 16.8902 6.33503 16.5973L15.3025 7.63L10.0487 7.63174C9.63447 7.63188 9.29857 7.29621 9.29843 6.88199C9.2983 6.46778 9.63397 6.13188 10.0482 6.13174L17.1216 6.12939C17.3206 6.12933 17.5115 6.20835 17.6522 6.34906Z" fill="#16191D"/>
</svg>
