<svg width="24" height="24" viewBox="0 0 24 24" fill="none" xmlns="http://www.w3.org/2000/svg">
<path fill-rule="evenodd" clip-rule="evenodd" d="M19.8466 5.0692C19.7059 4.92856 19.515 4.8496 19.3161 4.84968C18.8959 4.84892 18.4756 4.82732 18.0567 4.79523C17.3235 4.73906 16.4872 4.62957 15.8981 4.43159C15.2092 4.20009 14.3692 3.68313 13.6643 3.18568C13.0631 2.76143 12.6044 2.38297 12.5065 2.30111C12.021 1.89334 11.5861 2.237 11.1917 2.54873L11.19 2.55002C10.9798 2.71612 10.6834 2.94306 10.3396 3.18568C9.63467 3.68313 8.79475 4.20009 8.10583 4.43159C7.51666 4.62957 6.68037 4.73906 5.94718 4.79523C5.58952 4.82263 5.27227 4.83628 5.04474 4.84306C4.93117 4.84644 4.84046 4.8481 4.77883 4.84891C4.74803 4.84931 4.72453 4.8495 4.70911 4.8496L4.69215 4.84967L4.68777 4.84968C4.48884 4.84961 4.29803 4.92857 4.15732 5.0692C4.01658 5.20986 3.9375 5.40069 3.9375 5.59968V11.9998C3.9375 15.0776 5.97742 17.5537 7.85085 19.193C9.51935 20.6529 11.1645 21.551 11.5712 21.7645C11.6 21.7797 11.629 21.7946 11.6581 21.8094L11.6636 21.8123L11.6661 21.8135C11.8772 21.919 12.1262 21.9193 12.3374 21.8137L12.002 21.1429L12.3385 21.8132L12.3403 21.8123C12.3712 21.7966 12.402 21.7806 12.4327 21.7645C12.8394 21.551 14.4846 20.6529 16.1531 19.193C18.0265 17.5537 20.0664 15.0776 20.0664 11.9998V5.59968C20.0664 5.40069 19.9873 5.20986 19.8466 5.0692ZM16.0636 10.1049C16.3575 9.81306 16.3592 9.33819 16.0673 9.04427C15.7755 8.75036 15.3006 8.74871 15.0067 9.04058L10.689 13.3283L9.06364 11.7142C8.76972 11.4223 8.29485 11.424 8.00298 11.7179C7.71111 12.0118 7.71277 12.4867 8.00668 12.7785L10.1605 14.9174C10.453 15.2079 10.925 15.2079 11.2175 14.9174L16.0636 10.1049Z" fill="#16191D"/>
</svg>
