<svg width="21" height="21" viewBox="0 0 21 21" fill="none" xmlns="http://www.w3.org/2000/svg">
<g clip-path="url(#clip0_1505_60931)">
<path d="M14.5235 7.01069C14.8164 7.30358 14.8164 7.77845 14.5235 8.07135L12.0538 10.541L14.5235 13.0107C14.8164 13.3036 14.8164 13.7785 14.5235 14.0713C14.2306 14.3642 13.7557 14.3642 13.4628 14.0713L10.9932 11.6017L8.52349 14.0713C8.2306 14.3642 7.75573 14.3642 7.46283 14.0713C7.16994 13.7785 7.16994 13.3036 7.46283 13.0107L9.9325 10.541L7.46283 8.07135C7.16994 7.77845 7.16994 7.30358 7.46283 7.01069C7.75573 6.71779 8.2306 6.71779 8.52349 7.01069L10.9932 9.48036L13.4628 7.01069C13.7557 6.71779 14.2306 6.71779 14.5235 7.01069Z" fill="#576175"/>
<path fill-rule="evenodd" clip-rule="evenodd" d="M0.993164 10.541C0.993164 5.01817 5.47032 0.541016 10.9932 0.541016C16.516 0.541016 20.9932 5.01817 20.9932 10.541C20.9932 16.0639 16.516 20.541 10.9932 20.541C5.47032 20.541 0.993164 16.0639 0.993164 10.541ZM10.9932 2.04102C6.29874 2.04102 2.49316 5.8466 2.49316 10.541C2.49316 15.2354 6.29874 19.041 10.9932 19.041C15.6876 19.041 19.4932 15.2354 19.4932 10.541C19.4932 5.8466 15.6876 2.04102 10.9932 2.04102Z" fill="#576175"/>
</g>
<defs>
<clipPath id="clip0_1505_60931">
<rect width="20" height="20" fill="white" transform="translate(0.993164 0.541016)"/>
</clipPath>
</defs>
</svg>
