<svg width="24" height="24" viewBox="0 0 24 24" fill="none" xmlns="http://www.w3.org/2000/svg">
<path d="M7.01936 3.00049H16.9805C17.5321 3.00048 17.991 3.00047 18.3657 3.03108C18.756 3.06297 19.1203 3.13178 19.4643 3.30703C19.9935 3.57668 20.4237 4.00693 20.6934 4.53614C20.8686 4.88009 20.9375 5.24446 20.9693 5.63477C21 6.00941 21 6.46836 20.9999 7.01989V16.9811C21 17.5326 21 17.9916 20.9693 18.3662C20.9375 18.7565 20.8686 19.1209 20.6934 19.4648C20.4237 19.994 19.9935 20.4243 19.4643 20.6939C19.1203 20.8692 18.756 20.938 18.3657 20.9699C17.991 21.0005 17.5321 21.0005 16.9805 21.0005H7.01934C6.46781 21.0005 6.00886 21.0005 5.63422 20.9699C5.24391 20.938 4.87954 20.8692 4.53559 20.6939C4.00639 20.4243 3.57613 19.994 3.30648 19.4648C3.13123 19.1209 3.06242 18.7565 3.03053 18.3662C2.99992 17.9916 2.99993 17.5326 2.99994 16.9811V7.01991C2.99993 6.46837 2.99992 6.00942 3.03053 5.63477C3.06242 5.24446 3.13123 4.88009 3.30648 4.53614C3.57613 4.00694 4.00639 3.57668 4.53559 3.30703C4.87954 3.13178 5.24391 3.06297 5.63422 3.03108C6.00887 3.00047 6.46782 3.00048 7.01936 3.00049ZM5.75637 4.5261C5.45882 4.55041 5.31382 4.59399 5.21658 4.64354C4.96961 4.76938 4.76883 4.97016 4.64299 5.21713C4.59344 5.31437 4.54986 5.45937 4.52555 5.75692C4.50052 6.06322 4.49994 6.46056 4.49994 7.05049V16.9505C4.49994 17.5404 4.50052 17.9378 4.52555 18.2441C4.54986 18.5416 4.59344 18.6866 4.64299 18.7839C4.76883 19.0308 4.96961 19.2316 5.21658 19.3574C5.31382 19.407 5.45882 19.4506 5.75637 19.4749C6.06267 19.4999 6.46001 19.5005 7.04994 19.5005H16.9499C17.5399 19.5005 17.9372 19.4999 18.2435 19.4749C18.5411 19.4506 18.6861 19.407 18.7833 19.3574C19.0303 19.2316 19.2311 19.0308 19.3569 18.7839C19.4064 18.6866 19.45 18.5416 19.4743 18.2441C19.4994 17.9378 19.4999 17.5404 19.4999 16.9505V7.05049C19.4999 6.46056 19.4994 6.06322 19.4743 5.75692C19.45 5.45937 19.4064 5.31437 19.3569 5.21713C19.2311 4.97016 19.0303 4.76938 18.7833 4.64354C18.6861 4.59399 18.5411 4.55041 18.2435 4.5261C17.9372 4.50107 17.5399 4.50049 16.9499 4.50049H7.04994C6.46001 4.50049 6.06267 4.50107 5.75637 4.5261Z" fill="#16191D"/>
</svg>
