<svg width="24" height="24" viewBox="0 0 24 24" fill="none" xmlns="http://www.w3.org/2000/svg">
<path d="M9.25 12.7822C9.25 11.2634 10.4812 10.0322 12 10.0322C13.5188 10.0322 14.75 11.2634 14.75 12.7822C14.75 14.301 13.5188 15.5322 12 15.5322C10.4812 15.5322 9.25 14.301 9.25 12.7822Z" fill="#16191D"/>
<path d="M10.3004 2.97754C9.42487 2.97754 8.62886 3.4854 8.25991 4.27937L7.63365 5.62708C7.49944 5.9159 7.19746 6.08847 6.88049 6.05746L5.54203 5.92655C3.77818 5.75403 2.25 7.14004 2.25 8.91231V17.2741C2.25 19.3452 3.92893 21.0241 6 21.0241H18C20.0711 21.0241 21.75 19.3452 21.75 17.2741V8.9123C21.75 7.14003 20.2218 5.75403 18.458 5.92655L17.1195 6.05746C16.8025 6.08847 16.5006 5.9159 16.3663 5.62708L15.7401 4.27937C15.3711 3.4854 14.5751 2.97754 13.6996 2.97754H10.3004ZM12 8.53223C14.3472 8.53223 16.25 10.435 16.25 12.7822C16.25 15.1294 14.3472 17.0322 12 17.0322C9.65279 17.0322 7.75 15.1294 7.75 12.7822C7.75 10.435 9.65279 8.53223 12 8.53223Z" fill="#16191D"/>
</svg>
