<svg width="24" height="24" viewBox="0 0 24 24" fill="none" xmlns="http://www.w3.org/2000/svg">
<path d="M9 21.2466C9 20.8324 9.33579 20.4966 9.75 20.4966H14.25C14.6642 20.4966 15 20.8324 15 21.2466C15 21.6609 14.6642 21.9966 14.25 21.9966H9.75C9.33579 21.9966 9 21.6609 9 21.2466Z" fill="#16191D"/>
<path d="M6.75 8.75684C6.75 5.85734 9.10051 3.50684 12 3.50684C14.8995 3.50684 17.25 5.85734 17.25 8.75684C17.25 10.2896 16.5941 11.6681 15.5454 12.6289C14.8678 13.2497 14.2613 14.1528 14.2613 15.2421V15.9969C14.2613 16.8253 13.5898 17.4969 12.7613 17.4969H12.75L12.75 11.4746L13.916 10.6973C14.2607 10.4675 14.3538 10.0019 14.124 9.65722C13.8943 9.31257 13.4286 9.21944 13.084 9.4492L12 10.1719L10.916 9.4492C10.5714 9.21944 10.1057 9.31257 9.87596 9.65722C9.6462 10.0019 9.73933 10.4675 10.084 10.6973L11.25 11.4746L11.25 17.4969H11.2391C10.4106 17.4969 9.73907 16.8253 9.73907 15.9969V15.2424C9.73907 14.1531 9.13251 13.25 8.4548 12.6291C7.40597 11.6683 6.75 10.2897 6.75 8.75684ZM12 2.00684C8.27208 2.00684 5.25 5.02891 5.25 8.75684C5.25 10.7277 6.09562 12.5021 7.44154 13.7351C7.94579 14.1971 8.23907 14.7288 8.23907 15.2424V15.9969C8.23907 17.6537 9.58222 18.9969 11.2391 18.9969H12.7613C14.4182 18.9969 15.7613 17.6537 15.7613 15.9969V15.2421C15.7613 14.7285 16.0546 14.1968 16.5587 13.7349C17.9045 12.5019 18.75 10.7275 18.75 8.75684C18.75 5.02891 15.7279 2.00684 12 2.00684Z" fill="#16191D"/>
</svg>
