<svg width="21" height="21" viewBox="0 0 21 21" fill="none" xmlns="http://www.w3.org/2000/svg">
<path d="M15.5235 8.07135C15.8164 7.77845 15.8164 7.30358 15.5235 7.01069C15.2306 6.71779 14.7557 6.71779 14.4628 7.01069L9.49317 11.9804L7.5235 10.0107C7.2306 9.71779 6.75573 9.71779 6.46284 10.0107C6.16994 10.3036 6.16994 10.7785 6.46284 11.0713L8.96284 13.5713C9.25573 13.8642 9.7306 13.8642 10.0235 13.5713L15.5235 8.07135Z" fill="#576175"/>
<path fill-rule="evenodd" clip-rule="evenodd" d="M6.01259 1.54102C5.46105 1.54101 5.00209 1.541 4.62745 1.57161C4.23714 1.6035 3.87276 1.67231 3.52882 1.84756C2.99961 2.1172 2.56935 2.54746 2.29971 3.07667C2.12446 3.42062 2.05565 3.78499 2.02376 4.1753C1.99315 4.54994 1.99315 5.00889 1.99316 5.56043V15.5216C1.99315 16.0731 1.99315 16.5321 2.02376 16.9067C2.05565 17.297 2.12446 17.6614 2.29971 18.0054C2.56935 18.5346 2.99961 18.9648 3.52882 19.2345C3.87276 19.4097 4.23714 19.4785 4.62745 19.5104C5.00209 19.541 5.46104 19.541 6.01257 19.541H15.9738C16.5253 19.541 16.9842 19.541 17.3589 19.5104C17.7492 19.4785 18.1136 19.4097 18.4575 19.2345C18.9867 18.9648 19.417 18.5346 19.6866 18.0054C19.8619 17.6614 19.9307 17.297 19.9626 16.9067C19.9932 16.5321 19.9932 16.0731 19.9932 15.5216V5.56042C19.9932 5.00889 19.9932 4.54994 19.9626 4.1753C19.9307 3.78499 19.8619 3.42062 19.6866 3.07667C19.417 2.54746 18.9867 2.1172 18.4575 1.84756C18.1136 1.67231 17.7492 1.6035 17.3589 1.57161C16.9842 1.541 16.5253 1.54101 15.9738 1.54102H6.01259ZM4.2098 3.18407C4.30705 3.13452 4.45205 3.09094 4.74959 3.06663C5.05589 3.0416 5.45324 3.04102 6.04317 3.04102H15.9432C16.5331 3.04102 16.9304 3.0416 17.2367 3.06663C17.5343 3.09094 17.6793 3.13452 17.7765 3.18407C18.0235 3.3099 18.2243 3.51069 18.3501 3.75765C18.3997 3.8549 18.4432 3.9999 18.4676 4.29744C18.4926 4.60375 18.4932 5.00109 18.4932 5.59102V15.491C18.4932 16.0809 18.4926 16.4783 18.4676 16.7846C18.4432 17.0821 18.3997 17.2271 18.3501 17.3244C18.2243 17.5713 18.0235 17.7721 17.7765 17.898C17.6793 17.9475 17.5343 17.9911 17.2367 18.0154C16.9304 18.0404 16.5331 18.041 15.9432 18.041H6.04316C5.45324 18.041 5.05589 18.0404 4.74959 18.0154C4.45205 17.9911 4.30705 17.9475 4.2098 17.898C3.96284 17.7721 3.76205 17.5713 3.63622 17.3244C3.58667 17.2271 3.54308 17.0821 3.51877 16.7846C3.49375 16.4783 3.49317 16.0809 3.49317 15.491V5.59102C3.49317 5.00109 3.49375 4.60375 3.51877 4.29744C3.54308 3.9999 3.58667 3.8549 3.63622 3.75765C3.76205 3.51069 3.96284 3.3099 4.2098 3.18407Z" fill="#576175"/>
</svg>
