<svg width="24" height="24" viewBox="0 0 24 24" fill="none" xmlns="http://www.w3.org/2000/svg">
<path fill-rule="evenodd" clip-rule="evenodd" d="M19.8446 5.06935C19.7039 4.92871 19.4918 4.84966 19.2928 4.84975C19.2466 4.84947 19.1275 4.84828 18.9572 4.84321C18.7297 4.83643 18.4124 4.82278 18.0548 4.79538C17.3216 4.73921 16.4853 4.62973 15.8961 4.43174C15.2072 4.20024 14.3673 3.68328 13.6624 3.18583C13.5037 3.07388 13.3552 2.96528 13.2205 2.86444C13.0634 2.74674 12.9251 2.63963 12.8119 2.55017C12.4303 2.24856 11.9688 1.89872 11.4954 2.30043C11.4954 2.30043 11.3454 2.42582 11.1881 2.55017C10.9779 2.71627 10.6815 2.94321 10.3376 3.18583C9.63272 3.68328 8.7928 4.20024 8.10387 4.43174C7.51471 4.62973 6.67841 4.73921 5.94523 4.79538C5.58757 4.82278 5.27031 4.83643 5.04279 4.84321C4.92922 4.84659 4.83851 4.84825 4.77688 4.84906C4.74607 4.84946 4.72257 4.84966 4.70715 4.84975L4.6902 4.84982L4.68582 4.84983C4.48689 4.84976 4.29608 4.92872 4.15537 5.06935C4.01462 5.21001 3.93555 5.40084 3.93555 5.59983V12C3.93555 15.0777 5.97547 17.5539 7.8489 19.1931C8.80136 20.0265 9.75029 20.6786 10.4596 21.1219C10.8151 21.344 11.1123 21.515 11.3225 21.6313C11.4276 21.6895 11.511 21.7341 11.5692 21.7647C11.5983 21.78 11.6211 21.7917 11.6372 21.7999L11.6561 21.8096L11.6617 21.8124L11.6641 21.8136C11.6641 21.8136 11.6714 21.8136 11.6845 21.8136C11.797 21.8136 12.3365 21.8133 12.3365 21.8133L12.3383 21.8124L12.3439 21.8096L12.3628 21.7999C12.3789 21.7917 12.4017 21.78 12.4308 21.7647C12.489 21.7341 12.5724 21.6895 12.6775 21.6313C12.8877 21.515 13.1849 21.344 13.5404 21.1219C14.2497 20.6786 15.1986 20.0265 16.1511 19.1931C18.0245 17.5539 20.0645 15.0777 20.0645 12V5.59983C20.0645 5.40084 19.9854 5.21001 19.8446 5.06935ZM12 3.81967C11.7865 3.98592 11.5128 4.19241 11.2025 4.41139C10.478 4.9227 9.48926 5.54863 8.58167 5.85361C7.80646 6.11411 6.81414 6.23321 6.05981 6.291C5.83272 6.30839 5.62115 6.32063 5.43555 6.32925V12C5.43555 14.4081 7.05285 16.5034 8.83665 18.0643C9.7128 18.8309 10.5925 19.436 11.2546 19.8499C11.5575 20.0392 11.8132 20.1874 12 20.2918C12.1868 20.1874 12.4425 20.0392 12.7454 19.8499C13.4075 19.436 14.2872 18.8309 15.1633 18.0643C16.9471 16.5034 18.5645 14.4081 18.5645 12V6.32925C18.3789 6.32063 18.1673 6.30839 17.9402 6.291C17.1859 6.23321 16.1935 6.11411 15.4183 5.85361C14.5107 5.54863 13.522 4.9227 12.7975 4.41139C12.4872 4.19241 12.2135 3.98592 12 3.81967Z" fill="#16191D"/>
<path d="M16.0636 10.1056C16.3575 9.81369 16.3592 9.33882 16.0673 9.04491C15.7755 8.751 15.3006 8.74935 15.0067 9.04122L10.689 13.3289L9.06364 11.7148C8.76972 11.423 8.29485 11.4246 8.00298 11.7185C7.71111 12.0124 7.71277 12.4873 8.00668 12.7792L10.1605 14.9181C10.453 15.2085 10.925 15.2085 11.2175 14.9181L16.0636 10.1056Z" fill="#16191D"/>
<path d="M11.6641 21.8136C11.8753 21.9192 12.1243 21.9194 12.3354 21.8139L11.6845 21.8136C11.6714 21.8136 11.6641 21.8136 11.6641 21.8136Z" fill="#16191D"/>
</svg>
