<svg width="24" height="24" viewBox="0 0 24 24" fill="none" xmlns="http://www.w3.org/2000/svg">
<path fill-rule="evenodd" clip-rule="evenodd" d="M3.25 4.24951C3.25 3.00687 4.25736 1.99951 5.5 1.99951H18.5C19.7426 1.99951 20.75 3.00687 20.75 4.24951V16.7262C20.7513 16.7442 20.752 16.7624 20.752 16.7808C20.752 17.195 20.4162 17.5308 20.002 17.5308H18.997C18.9581 17.618 18.9155 17.7173 18.8728 17.8242C18.7146 18.2202 18.5901 18.6333 18.579 18.9191C18.5697 19.1576 18.633 19.4774 18.7337 19.8123C18.7698 19.9321 18.8106 20.0538 18.8546 20.1744C18.8997 20.2979 18.9452 20.4127 18.9873 20.5137H20.002C20.4162 20.5137 20.752 20.8495 20.752 21.2637C20.752 21.6779 20.4162 22.0137 20.002 22.0137H6.24145C4.66579 22.0137 3.37465 20.7955 3.25851 19.2495H3.25V4.24951ZM17.3837 20.5137C17.2229 20.0426 17.0582 19.423 17.0801 18.8607C17.0976 18.4105 17.2378 17.9233 17.3797 17.5308H6.24145C5.41775 17.5308 4.75 18.1985 4.75 19.0222C4.75 19.8459 5.41775 20.5137 6.24145 20.5137H17.3837ZM15.293 10.7856C15.7072 10.7856 16.043 11.1214 16.043 11.5356C16.043 11.9499 15.7072 12.2856 15.293 12.2856H9.29297C8.87876 12.2856 8.54297 11.9499 8.54297 11.5356C8.54297 11.1214 8.87876 10.7856 9.29297 10.7856H15.293ZM13.7461 8.53564C13.7461 8.12143 13.4103 7.78564 12.9961 7.78564H9.29297C8.87876 7.78564 8.54297 8.12143 8.54297 8.53564C8.54297 8.94986 8.87876 9.28564 9.29297 9.28564H12.9961C13.4103 9.28564 13.7461 8.94986 13.7461 8.53564Z" fill="#16191D"/>
</svg>
