<svg width="24" height="24" viewBox="0 0 24 24" fill="none" xmlns="http://www.w3.org/2000/svg">
<path d="M16.9806 3H7.01942C6.4679 2.99999 6.00892 2.99998 5.63428 3.03059C5.24397 3.06248 4.8796 3.1313 4.53565 3.30655C4.00645 3.57619 3.57619 4.00645 3.30655 4.53565C3.1313 4.8796 3.06248 5.24397 3.03059 5.63428C2.99998 6.00892 2.99999 6.46786 3 7.01939V16.9806C2.99999 17.5321 2.99998 17.9911 3.03059 18.3657C3.06248 18.756 3.1313 19.1204 3.30655 19.4643C3.57619 19.9936 4.00645 20.4238 4.53565 20.6935C4.8796 20.8687 5.24397 20.9375 5.63428 20.9694C6.00893 21 6.46787 21 7.0194 21H16.9806C17.5321 21 17.9911 21 18.3657 20.9694C18.756 20.9375 19.1204 20.8687 19.4643 20.6935C19.9936 20.4238 20.4238 19.9936 20.6935 19.4643C20.8687 19.1204 20.9375 18.756 20.9694 18.3657C21 17.9911 21 17.5321 21 16.9806V7.0194C21 6.46787 21 6.00893 20.9694 5.63428C20.9375 5.24397 20.8687 4.8796 20.6935 4.53565C20.4238 4.00645 19.9936 3.57619 19.4643 3.30655C19.1204 3.1313 18.756 3.06248 18.3657 3.03059C17.9911 2.99998 17.5321 2.99999 16.9806 3ZM16.5303 9.78033L11.0303 15.2803C10.7374 15.5732 10.2626 15.5732 9.96967 15.2803L7.46967 12.7803C7.17678 12.4874 7.17678 12.0126 7.46967 11.7197C7.76256 11.4268 8.23744 11.4268 8.53033 11.7197L10.5 13.6893L15.4697 8.71967C15.7626 8.42678 16.2374 8.42678 16.5303 8.71967C16.8232 9.01256 16.8232 9.48744 16.5303 9.78033Z" fill="#16191D"/>
</svg>
