<svg width="24" height="24" viewBox="0 0 24 24" fill="none" xmlns="http://www.w3.org/2000/svg">
<path d="M9.25 12.7817C9.25 11.263 10.4812 10.0317 12 10.0317C13.5188 10.0317 14.75 11.263 14.75 12.7817C14.75 14.3005 13.5188 15.5317 12 15.5317C10.4812 15.5317 9.25 14.3005 9.25 12.7817Z" fill="#16191D"/>
<path d="M10.3004 2.97705C9.42487 2.97705 8.62886 3.48491 8.25991 4.27888L7.63365 5.62659C7.49944 5.91541 7.19746 6.08798 6.88049 6.05698L5.54203 5.92606C3.77818 5.75354 2.25 7.13955 2.25 8.91182V17.2736C2.25 19.3447 3.92893 21.0236 6 21.0236H18C20.0711 21.0236 21.75 19.3447 21.75 17.2736V8.91181C21.75 7.13955 20.2218 5.75354 18.458 5.92606L17.1195 6.05698C16.8025 6.08798 16.5006 5.91542 16.3663 5.62659L15.7401 4.27888C15.3711 3.48491 14.5751 2.97705 13.6996 2.97705H10.3004ZM12 8.53174C14.3472 8.53174 16.25 10.4345 16.25 12.7817C16.25 15.1289 14.3472 17.0317 12 17.0317C9.65279 17.0317 7.75 15.1289 7.75 12.7817C7.75 10.4345 9.65279 8.53174 12 8.53174Z" fill="#16191D"/>
</svg>
