<svg width="21" height="21" viewBox="0 0 21 21" fill="none" xmlns="http://www.w3.org/2000/svg">
<path d="M4.98946 16.5456C3.525 15.0811 3.525 12.7067 4.98946 11.2423L6.92223 9.30951C7.21513 9.01662 7.21513 8.54174 6.92223 8.24885C6.62934 7.95596 6.15446 7.95596 5.86157 8.24885L3.9288 10.1816C1.87855 12.2319 1.87855 15.556 3.9288 17.6062C5.97905 19.6565 9.30317 19.6565 11.3534 17.6062L13.2862 15.6735C13.5791 15.3806 13.5791 14.9057 13.2862 14.6128C12.9933 14.3199 12.5184 14.3199 12.2255 14.6128L10.2928 16.5456C8.8283 18.01 6.45393 18.01 4.98946 16.5456Z" fill="#576175"/>
<path d="M8.6847 5.42572C8.39181 5.71861 8.39181 6.19349 8.6847 6.48638C8.9776 6.77927 9.45247 6.77927 9.74536 6.48638L11.6959 4.53585C13.1604 3.07138 15.5347 3.07138 16.9992 4.53585C18.4637 6.00032 18.4637 8.37468 16.9992 9.83915L15.0625 11.7758C14.7696 12.0687 14.7696 12.5436 15.0625 12.8365C15.3554 13.1294 15.8303 13.1294 16.1232 12.8365L18.0599 10.8998C20.1101 8.84956 20.1101 5.52544 18.0599 3.47519C16.0096 1.42494 12.6855 1.42494 10.6352 3.47519L8.6847 5.42572Z" fill="#576175"/>
<path d="M7.46069 13.013C7.1678 13.3059 7.1678 13.7808 7.46069 14.0737C7.75358 14.3666 8.22846 14.3666 8.52135 14.0737L14.5283 8.06672C14.8212 7.77383 14.8212 7.29895 14.5283 7.00606C14.2354 6.71317 13.7605 6.71317 13.4676 7.00606L7.46069 13.013Z" fill="#576175"/>
</svg>
