<svg width="24" height="24" viewBox="0 0 24 24" fill="none" xmlns="http://www.w3.org/2000/svg">
<path d="M12.001 1.99902C6.47759 1.99902 2 6.47661 2 12C2 17.5234 6.47759 22.001 12.001 22.001C17.5244 22.001 22.002 17.5234 22.002 12C22.002 6.47661 17.5244 1.99902 12.001 1.99902ZM16.5751 8.54568L14.5011 13.2036C14.2211 13.8324 13.7154 14.3334 13.084 14.6075L8.53382 16.5829C7.82637 16.8901 7.10845 16.172 7.41568 15.4646L9.39167 10.9147C9.66578 10.2836 10.1665 9.7781 10.7951 9.49811L15.4528 7.42347C16.1644 7.10651 16.892 7.83403 16.5751 8.54568Z" fill="#16191D"/>
</svg>
