<svg width="24" height="24" viewBox="0 0 24 24" fill="none" xmlns="http://www.w3.org/2000/svg">
<path fill-rule="evenodd" clip-rule="evenodd" d="M8.25447 3C8.66869 3.0009 9.00375 3.33741 9.00285 3.75162L8.99637 6.748C8.99368 7.98873 7.98711 8.99313 6.74637 8.99313H3.75C3.33579 8.99313 3 8.65734 3 8.24313C3 7.82891 3.33579 7.49313 3.75 7.49313L6.74637 7.49313C7.15995 7.49313 7.49547 7.15833 7.49637 6.74475L7.50285 3.74838C7.50375 3.33416 7.84026 2.99911 8.25447 3ZM15.7572 3C16.1714 3.00029 16.507 3.33631 16.5067 3.75052L16.5046 6.74593C16.5043 7.16034 16.8402 7.49645 17.2546 7.49645L20.25 7.49645C20.6642 7.49645 21 7.83223 21 8.24645C21 8.66066 20.6642 8.99645 20.25 8.99645H17.2546C16.0113 8.99645 15.0037 7.98814 15.0046 6.74489L15.0067 3.74948C15.007 3.33527 15.343 2.99971 15.7572 3ZM6.74672 15.0012C7.99175 14.9979 9.00285 16.0062 9.00285 17.2512V20.25C9.00285 20.6642 8.66707 21 8.25285 21C7.83864 21 7.50285 20.6642 7.50285 20.25V17.2512C7.50285 16.8362 7.16582 16.5001 6.75081 16.5012L3.75204 16.5094C3.33783 16.5105 3.00113 16.1757 3 15.7615C2.99887 15.3472 3.33375 15.0105 3.74796 15.0094L6.74672 15.0012ZM17.2599 15.0101L20.2498 15.0094C20.664 15.0093 20.9999 15.345 21 15.7592C21.0001 16.1735 20.6644 16.5093 20.2502 16.5094L17.2603 16.5101C16.8461 16.5102 16.5104 16.846 16.5104 17.2601V20.25C16.5104 20.6642 16.1747 21 15.7604 21C15.3462 21 15.0104 20.6642 15.0104 20.25V17.2601C15.0104 16.0177 16.0175 15.0104 17.2599 15.0101Z" fill="#16191D"/>
</svg>
