<svg width="24" height="24" viewBox="0 0 24 24" fill="none" xmlns="http://www.w3.org/2000/svg">
<path d="M12 22C17.5228 22 22 17.5228 22 12C22 6.47715 17.5228 2 12 2C6.47715 2 2 6.47715 2 12C2 17.5228 6.47715 22 12 22ZM12.9974 19.9376C12.4495 20.0065 12 19.5523 12 19L12 5C12 4.44772 12.4495 3.99355 12.9974 4.06239C14.7514 4.28276 16.3936 5.0799 17.6569 6.34315C19.1571 7.84344 20 9.87827 20 12C20 14.1217 19.1571 16.1566 17.6569 17.6569C16.3936 18.9201 14.7514 19.7172 12.9974 19.9376Z" fill="black"/>
</svg>
