<svg width="24" height="24" viewBox="0 0 24 24" fill="none" xmlns="http://www.w3.org/2000/svg">
<path d="M7 3.0625C5.75736 3.0625 4.75 4.06986 4.75 5.3125V18.687C4.75 19.9296 5.75736 20.937 7 20.937H17C18.2426 20.937 19.25 19.9296 19.25 18.687V5.3125C19.25 4.06986 18.2426 3.0625 17 3.0625H7ZM9 8.05469C8.58579 8.05469 8.25 7.7189 8.25 7.30469C8.25 6.89047 8.58579 6.55469 9 6.55469H14.998C15.4123 6.55469 15.748 6.89047 15.748 7.30469C15.748 7.7189 15.4123 8.05469 14.998 8.05469L9 8.05469ZM9.00391 11.0596C8.58969 11.0596 8.25391 10.7238 8.25391 10.3096C8.25391 9.89536 8.58969 9.55957 9.00391 9.55957H12.0749C12.4892 9.55957 12.8249 9.89536 12.8249 10.3096C12.8249 10.7238 12.4892 11.0596 12.0749 11.0596L9.00391 11.0596ZM15.5318 13.2996C15.8237 13.5936 15.822 14.0684 15.5281 14.3603L12.6374 17.2309C12.345 17.5213 11.873 17.5213 11.5805 17.2309L10.2957 15.9551C10.0018 15.6632 10.0002 15.1883 10.292 14.8944C10.5839 14.6005 11.0588 14.5989 11.3527 14.8907L12.109 15.6417L14.4712 13.296C14.7651 13.0041 15.2399 13.0057 15.5318 13.2996Z" fill="#16191D"/>
</svg>
