<svg width="24" height="24" viewBox="0 0 24 24" fill="none" xmlns="http://www.w3.org/2000/svg">
<path fill-rule="evenodd" clip-rule="evenodd" d="M3 5.24951C3 4.00687 4.00736 2.99951 5.25 2.99951H18.75C19.9926 2.99951 21 4.00687 21 5.24951V13.4407C21 14.0374 20.7629 14.6097 20.341 15.0317L15.0322 20.3405C14.6102 20.7625 14.0379 20.9995 13.4412 20.9995H5.25C4.00736 20.9995 3 19.9922 3 18.7495V5.24951ZM18.4442 14.8071L14.8203 18.431V15.5571C14.8203 15.1429 15.1561 14.8071 15.5703 14.8071H18.4442ZM15.2578 8.11572C15.2578 8.4609 14.978 8.74072 14.6328 8.74072H8.13281C7.78763 8.74072 7.50781 8.4609 7.50781 8.11572C7.50781 7.77054 7.78763 7.49072 8.13281 7.49072H14.6328C14.978 7.49072 15.2578 7.77054 15.2578 8.11572ZM11.7578 10.8657C11.7578 11.2109 11.478 11.4907 11.1328 11.4907H8.13281C7.78763 11.4907 7.50781 11.2109 7.50781 10.8657C7.50781 10.5205 7.78763 10.2407 8.13281 10.2407H11.1328C11.478 10.2407 11.7578 10.5205 11.7578 10.8657Z" fill="#16191D"/>
</svg>
