<svg width="24" height="24" viewBox="0 0 24 24" fill="none" xmlns="http://www.w3.org/2000/svg">
<path fill-rule="evenodd" clip-rule="evenodd" d="M2 17.75C2 18.9926 3.00736 20 4.25 20H19.75C20.9926 20 22 18.9926 22 17.75V6.25C22 5.00736 20.9926 4 19.75 4H4.25C3.00736 4 2 5.00736 2 6.25V17.75ZM15.546 15.546C15.2532 15.8389 14.7783 15.8389 14.4854 15.546L12.0011 13.0617L9.51654 15.5463C9.22365 15.8391 8.74878 15.8391 8.45588 15.5463C8.16299 15.2534 8.16299 14.7785 8.45588 14.4856L10.9404 12.0011L8.45404 9.5147C8.16115 9.22181 8.16115 8.74694 8.45404 8.45404C8.74694 8.16115 9.22181 8.16115 9.51471 8.45404L12.0011 10.9404L14.4872 8.45425C14.7801 8.16136 15.255 8.16136 15.5479 8.45425C15.8408 8.74714 15.8408 9.22202 15.5479 9.51491L13.0617 12.0011L15.546 14.4854C15.8389 14.7783 15.8389 15.2532 15.546 15.546Z" fill="#16191D"/>
</svg>
