<svg width="24" height="24" viewBox="0 0 24 24" fill="none" xmlns="http://www.w3.org/2000/svg">
<path d="M4.02551 9.82038L3.42524 10.2335C3.08404 10.4684 2.61706 10.3822 2.38221 10.041C2.14736 9.69978 2.23357 9.2328 2.57478 8.99795L10.6929 3.41027C11.4611 2.88148 12.476 2.88147 13.2442 3.41025L21.3626 8.99794C21.7038 9.23278 21.7901 9.69976 21.5552 10.041C21.3204 10.3822 20.8534 10.4684 20.5122 10.2336L19.9745 9.8635L19.9745 19.2212C19.9745 20.1877 19.191 20.9712 18.2245 20.9712H15.1696C14.2463 20.9712 13.4973 20.2238 13.4954 19.3005L13.4885 16.0028C13.4868 15.1807 12.8199 14.5151 11.9978 14.5151C11.1732 14.5151 10.5053 15.1845 10.507 16.009L10.5138 19.2974C10.5157 20.2213 9.76733 20.9712 8.84344 20.9712H5.77551C4.80902 20.9712 4.02551 20.1877 4.02551 19.2212L4.02551 9.82038ZM11.5433 4.64587L5.52551 8.78793L5.52551 19.2212C5.52551 19.3593 5.63744 19.4712 5.77551 19.4712H8.84344C8.93769 19.4712 9.01403 19.3947 9.01383 19.3005L9.007 16.0121C9.00356 14.3579 10.3436 13.0151 11.9978 13.0151C13.6471 13.0151 14.9851 14.3504 14.9885 15.9997L14.9954 19.2974C14.9956 19.3935 15.0735 19.4712 15.1696 19.4712H18.2245C18.3626 19.4712 18.4745 19.3593 18.4745 19.2212L18.4745 8.83109L12.3938 4.64586C12.1377 4.46961 11.7994 4.46961 11.5433 4.64587Z" fill="#16191D"/>
</svg>
