<svg width="20" height="21" viewBox="0 0 20 21" fill="none" xmlns="http://www.w3.org/2000/svg">
<path fill-rule="evenodd" clip-rule="evenodd" d="M14.9816 1.54102H5.0204C4.46887 1.54101 4.0099 1.541 3.63526 1.57161C3.24495 1.6035 2.88058 1.67231 2.53663 1.84756C2.00742 2.11721 1.57717 2.54746 1.30752 3.07667C1.13227 3.42062 1.06346 3.78499 1.03157 4.1753C1.00096 4.54994 1.00097 5.00888 1.00098 5.56041V15.5216C1.00097 16.0731 1.00096 16.5321 1.03157 16.9067C1.06346 17.297 1.13227 17.6614 1.30752 18.0054C1.57717 18.5346 2.00742 18.9648 2.53663 19.2345C2.88058 19.4097 3.24495 19.4785 3.63526 19.5104C4.0099 19.541 4.46885 19.541 5.02038 19.541H14.9816C15.5331 19.541 15.9921 19.541 16.3667 19.5104C16.757 19.4785 17.1214 19.4097 17.4653 19.2345C17.9945 18.9648 18.4248 18.5346 18.6944 18.0054C18.8697 17.6614 18.9385 17.297 18.9704 16.9067C19.001 16.5321 19.001 16.0731 19.001 15.5216V5.56042C19.001 5.00889 19.001 4.54994 18.9704 4.1753C18.9385 3.78499 18.8697 3.42062 18.6944 3.07667C18.4248 2.54746 17.9945 2.11721 17.4653 1.84756C17.1214 1.67231 16.757 1.6035 16.3667 1.57161C15.9921 1.541 15.5331 1.54101 14.9816 1.54102ZM14.5313 8.32135C14.8242 8.02845 14.8242 7.55358 14.5313 7.26069C14.2384 6.96779 13.7635 6.96779 13.4706 7.26069L8.50098 12.2304L6.53131 10.2607C6.23841 9.96779 5.76354 9.96779 5.47065 10.2607C5.17775 10.5536 5.17775 11.0285 5.47065 11.3213L7.97065 13.8213C8.26354 14.1142 8.73841 14.1142 9.03131 13.8213L14.5313 8.32135Z" fill="#576175"/>
</svg>
