<svg width="24" height="24" viewBox="0 0 24 24" fill="none" xmlns="http://www.w3.org/2000/svg">
<path fill-rule="evenodd" clip-rule="evenodd" d="M11.4875 4.05817C12.9903 2.55542 15.0836 2.00325 17.0101 2.40651C17.6959 2.55006 18.1145 3.0786 18.1891 3.66954C18.2603 4.23379 18.0203 4.82331 17.5245 5.20061L15.0852 7.05703C15.0222 7.10496 14.9857 7.17989 14.9866 7.25903L15.007 8.92342C15.0086 9.0591 15.1182 9.16868 15.2539 9.17034L16.9183 9.1907C16.9974 9.19166 17.0724 9.1551 17.1203 9.09212L18.8888 6.76826C19.275 6.2608 19.8811 6.02211 20.4545 6.10899C21.0578 6.2004 21.5794 6.65251 21.6856 7.36159C21.9597 9.19076 21.3873 11.1289 19.9728 12.5435C18.2205 14.2958 15.6657 14.7558 13.506 13.9146C13.2771 13.8255 13.1032 13.9015 13.0391 13.9798L7.39935 20.8729L7.3729 20.8993C6.83427 21.438 6.0635 21.7146 5.31487 21.7333C4.55902 21.7523 3.74113 21.5101 3.13042 20.8993C1.94647 19.7154 2.02985 17.7575 3.13042 16.6569L3.15687 16.6304L10.0505 10.9902C10.1288 10.9261 10.2048 10.7523 10.1157 10.5235C9.27536 8.3641 9.7356 5.8101 11.4875 4.05817Z" fill="#16191D"/>
</svg>
