<svg width="24" height="24" viewBox="0 0 24 24" fill="none" xmlns="http://www.w3.org/2000/svg">
<path fill-rule="evenodd" clip-rule="evenodd" d="M2 10.9998C2 8.34761 3.05357 5.80407 4.92893 3.92871L5.98959 4.98937C4.39553 6.58343 3.5 8.74544 3.5 10.9998C3.5 13.2541 4.39553 15.4161 5.98959 17.0102L4.92893 18.0708C3.05357 16.1955 2 13.6519 2 10.9998ZM20.5 10.9998C20.5 8.74544 19.6045 6.58343 18.0104 4.98937L19.0711 3.92871C20.9464 5.80407 22 8.34761 22 10.9998C22 13.6519 20.9464 16.1955 19.0711 18.0708L18.0104 17.0102C19.6045 15.4161 20.5 13.2541 20.5 10.9998ZM4.99609 10.9998C4.99609 9.14223 5.734 7.36076 7.04749 6.04727L8.10815 7.10793C7.07597 8.14011 6.49609 9.54005 6.49609 10.9998C6.49609 12.4595 7.07597 13.8594 8.10815 14.8916L7.04749 15.9523C5.734 14.6388 4.99609 12.8573 4.99609 10.9998ZM17.5039 10.9998C17.5039 9.54005 16.924 8.14011 15.8919 7.10793L16.9525 6.04727C18.266 7.36076 19.0039 9.14223 19.0039 10.9998C19.0039 12.8573 18.266 14.6388 16.9525 15.9523L15.8918 14.8916C16.924 13.8594 17.5039 12.4595 17.5039 10.9998ZM12 9.74978C11.3096 9.74978 10.75 10.3094 10.75 10.9998C10.75 11.6901 11.3096 12.2498 12 12.2498C12.6904 12.2498 13.25 11.6901 13.25 10.9998C13.25 10.3094 12.6904 9.74978 12 9.74978ZM9.25 10.9998C9.25 9.481 10.4812 8.24978 12 8.24978C13.5188 8.24978 14.75 9.481 14.75 10.9998C14.75 12.26 13.9023 13.3222 12.7461 13.6474V21.2288C12.7461 21.643 12.4103 21.9788 11.9961 21.9788C11.5819 21.9788 11.2461 21.643 11.2461 21.2288V13.6452C10.0938 13.3174 9.25 12.2571 9.25 10.9998Z" fill="#16191D"/>
</svg>
