<svg width="21" height="21" viewBox="0 0 21 21" fill="none" xmlns="http://www.w3.org/2000/svg">
<path fill-rule="evenodd" clip-rule="evenodd" d="M17.0261 5.01178C17.3189 5.30477 17.3187 5.77964 17.0258 6.07244L12.5533 10.5419L17.0258 15.0114C17.3187 15.3042 17.3189 15.7791 17.0261 16.0721C16.7333 16.3651 16.2584 16.3652 15.9655 16.0724L10.9621 11.0724C10.8214 10.9318 10.7423 10.7409 10.7423 10.5419C10.7423 10.3429 10.8214 10.1521 10.9621 10.0114L15.9655 5.01143C16.2584 4.71863 16.7333 4.71879 17.0261 5.01178ZM11.0249 5.01086C11.3177 5.30385 11.3176 5.77873 11.0246 6.07152L6.55212 10.541L11.0246 15.0105C11.3176 15.3033 11.3177 15.7782 11.0249 16.0712C10.7321 16.3642 10.2573 16.3643 9.96428 16.0715L4.96095 11.0715C4.82019 10.9309 4.74111 10.74 4.74111 10.541C4.74111 10.342 4.82019 10.1512 4.96095 10.0105L9.96428 5.01051C10.2573 4.71771 10.7321 4.71787 11.0249 5.01086Z" fill="#576175"/>
</svg>
