<svg width="24" height="24" viewBox="0 0 24 24" fill="none" xmlns="http://www.w3.org/2000/svg">
<path d="M11.4875 4.05866C12.9903 2.55591 15.0836 2.00374 17.0101 2.407C17.6959 2.55055 18.1145 3.07909 18.1891 3.67003C18.2603 4.23428 18.0203 4.8238 17.5245 5.2011L15.0852 7.05752C15.0222 7.10545 14.9857 7.18038 14.9866 7.25952L15.007 8.92391C15.0086 9.05959 15.1182 9.16917 15.2539 9.17083L16.9183 9.19118C16.9974 9.19215 17.0724 9.15559 17.1203 9.0926L18.8888 6.76875C19.275 6.26129 19.8811 6.0226 20.4545 6.10948C21.0578 6.20088 21.5794 6.653 21.6856 7.36208C21.9597 9.19125 21.3873 11.1294 19.9728 12.5439C18.2205 14.2963 15.6657 14.7563 13.506 13.9151C13.2771 13.826 13.1032 13.902 13.0391 13.9803L7.39935 20.8734L7.3729 20.8998C6.83427 21.4385 6.0635 21.7151 5.31487 21.7338C4.55902 21.7528 3.74113 21.5105 3.13042 20.8998C1.94647 19.7159 2.02985 17.7579 3.13042 16.6574L3.15687 16.6309L10.0505 10.9907C10.1288 10.9266 10.2048 10.7528 10.1157 10.5239C9.27536 8.36459 9.7356 5.81059 11.4875 4.05866Z" fill="#16191D"/>
</svg>
