<svg width="21" height="21" viewBox="0 0 21 21" fill="none" xmlns="http://www.w3.org/2000/svg">
<path d="M2.22016 9.01462C1.92727 9.30751 1.92727 9.78238 2.22016 10.0753L6.22016 14.0753C6.51305 14.3682 6.98793 14.3682 7.28082 14.0753C7.57371 13.7824 7.57372 13.3075 7.28082 13.0146L4.56131 10.2951H16.228C17.4707 10.2951 18.478 11.3025 18.478 12.5451V15.6182C18.478 16.0324 18.8138 16.3682 19.228 16.3682C19.6422 16.3682 19.978 16.0324 19.978 15.6182V12.5451C19.978 10.474 18.2991 8.7951 16.228 8.7951H4.56099L7.28082 6.07525C7.57372 5.78236 7.57372 5.30748 7.28082 5.01459C6.98793 4.7217 6.51305 4.7217 6.22016 5.01459L2.22016 9.01462Z" fill="#576175"/>
</svg>
