<svg width="24" height="24" viewBox="0 0 24 24" fill="none" xmlns="http://www.w3.org/2000/svg">
<path d="M10.5 2.25049C5.94365 2.25049 2.25 5.94414 2.25 10.5005C2.25 15.0568 5.94365 18.7505 10.5 18.7505C12.5081 18.7505 14.3486 18.033 15.7792 16.8405L20.4697 21.5309C20.7626 21.8238 21.2374 21.8238 21.5303 21.5309C21.8232 21.238 21.8232 20.7632 21.5303 20.4703L16.8399 15.7798C18.0325 14.3492 18.75 12.5086 18.75 10.5005C18.75 5.94414 15.0563 2.25049 10.5 2.25049ZM3.75 10.5005C3.75 6.77257 6.77208 3.75049 10.5 3.75049C14.2279 3.75049 17.25 6.77257 17.25 10.5005C17.25 14.2284 14.2279 17.2505 10.5 17.2505C6.77208 17.2505 3.75 14.2284 3.75 10.5005Z" fill="#16191D"/>
</svg>
