<svg width="24" height="24" viewBox="0 0 24 24" fill="none" xmlns="http://www.w3.org/2000/svg">
<path d="M19.8446 5.06968C19.7039 4.92905 19.5131 4.85008 19.3141 4.85017C18.8939 4.84941 18.4737 4.8278 18.0548 4.79571C17.3216 4.73955 16.4853 4.63006 15.8961 4.43208C15.2072 4.20058 14.3673 3.68362 13.6624 3.18616C13.0612 2.76192 12.6025 2.38346 12.5046 2.3016C12.0184 1.89326 11.583 2.23844 11.1881 2.55051C10.9779 2.71661 10.6815 2.94355 10.3376 3.18616C9.63272 3.68362 8.7928 4.20058 8.10387 4.43208C7.51471 4.63006 6.67841 4.73955 5.94523 4.79571C5.58757 4.82311 5.27031 4.83677 5.04279 4.84354C4.92922 4.84693 4.83851 4.84858 4.77688 4.84939C4.74607 4.8498 4.72257 4.84999 4.70715 4.85008L4.6902 4.85016L4.68582 4.85017C4.48689 4.8501 4.29608 4.92906 4.15537 5.06968C4.01462 5.21035 3.93555 5.40118 3.93555 5.60017V12.0003C3.93555 15.0781 5.97547 17.5542 7.8489 19.1935C9.5174 20.6534 11.1626 21.5515 11.5692 21.765C11.5981 21.7802 11.6271 21.7951 11.6561 21.8099L11.6617 21.8127L11.6641 21.814L12 21.1434L12.3365 21.8136L12.3383 21.8127C12.3693 21.7971 12.4001 21.7811 12.4308 21.765C12.8374 21.5515 14.4826 20.6534 16.1511 19.1935C18.0245 17.5542 20.0645 15.0781 20.0645 12.0003V5.60017C20.0645 5.40118 19.9854 5.21035 19.8446 5.06968ZM12 3.82001C12.2135 3.98625 12.4872 4.19275 12.7975 4.41173C13.522 4.92304 14.5107 5.54896 15.4183 5.85395C16.1935 6.11445 17.1859 6.23354 17.9402 6.29133C18.1673 6.30873 18.3789 6.32097 18.5645 6.32958V12.0003C18.5645 14.4084 16.9471 16.5038 15.1633 18.0646C13.8864 19.1819 12.595 19.9597 12 20.2921C11.4049 19.9597 10.1136 19.1819 8.83665 18.0646C7.05285 16.5038 5.43555 14.4084 5.43555 12.0003V6.32958C5.62115 6.32097 5.83272 6.30873 6.05981 6.29133C6.81414 6.23354 7.80646 6.11445 8.58167 5.85395C9.48926 5.54896 10.478 4.92304 11.2025 4.41173C11.5128 4.19275 11.7865 3.98625 12 3.82001Z" fill="#16191D"/>
<path fill-rule="evenodd" clip-rule="evenodd" d="M11.6641 21.814L12 21.1434L12.3354 21.8142C12.1243 21.9198 11.8753 21.9195 11.6641 21.814Z" fill="#16191D"/>
</svg>
