<svg width="20" height="21" viewBox="0 0 20 21" fill="none" xmlns="http://www.w3.org/2000/svg">
<g clip-path="url(#clip0_1505_60776)">
<path fill-rule="evenodd" clip-rule="evenodd" d="M10.001 0.541016C4.47813 0.541016 0.000976562 5.01817 0.000976562 10.541C0.000976562 16.0639 4.47813 20.541 10.001 20.541C15.5238 20.541 20.001 16.0639 20.001 10.541C20.001 5.01817 15.5238 0.541016 10.001 0.541016ZM14.5313 8.32135C14.8242 8.02845 14.8242 7.55358 14.5313 7.26069C14.2384 6.96779 13.7635 6.96779 13.4706 7.26069L8.50098 12.2304L6.53131 10.2607C6.23841 9.96779 5.76354 9.96779 5.47065 10.2607C5.17775 10.5536 5.17775 11.0285 5.47065 11.3213L7.97065 13.8213C8.26354 14.1142 8.73841 14.1142 9.03131 13.8213L14.5313 8.32135Z" fill="#576175"/>
</g>
<defs>
<clipPath id="clip0_1505_60776">
<rect width="20" height="20" fill="white" transform="translate(0.000976562 0.541016)"/>
</clipPath>
</defs>
</svg>
