<svg width="24" height="24" viewBox="0 0 24 24" fill="none" xmlns="http://www.w3.org/2000/svg">
<path d="M3.22602 13.5264C2.93312 13.2335 2.93312 12.7586 3.22602 12.4657L7.22602 8.46572C7.51891 8.17282 7.99378 8.17282 8.28668 8.46571C8.57957 8.75861 8.57958 9.23348 8.28668 9.52638L5.56717 12.2459L17.2338 12.2459C18.4764 12.2459 19.4838 11.2385 19.4838 9.9959V6.9228C19.4838 6.50859 19.8195 6.1728 20.2338 6.1728C20.648 6.1728 20.9838 6.50859 20.9838 6.9228V9.9959C20.9838 12.067 19.3048 13.7459 17.2338 13.7459L5.56685 13.7459L8.28668 16.4658C8.57958 16.7587 8.57957 17.2335 8.28668 17.5264C7.99378 17.8193 7.51891 17.8193 7.22602 17.5264L3.22602 13.5264Z" fill="#16191D"/>
</svg>
