<svg width="24" height="24" viewBox="0 0 24 24" fill="none" xmlns="http://www.w3.org/2000/svg">
<path d="M12 1.99805C12.4142 1.99805 12.75 2.33383 12.75 2.74805V4.24805C12.75 4.66226 12.4142 4.99805 12 4.99805C11.5858 4.99805 11.25 4.66226 11.25 4.24805V2.74805C11.25 2.33383 11.5858 1.99805 12 1.99805Z" fill="#16191D"/>
<path fill-rule="evenodd" clip-rule="evenodd" d="M6.47656 12C6.47656 8.94949 8.94949 6.47656 12 6.47656C15.0505 6.47656 17.5234 8.94949 17.5234 12C17.5234 15.0505 15.0505 17.5234 12 17.5234C8.94949 17.5234 6.47656 15.0505 6.47656 12ZM12 7.97656C9.77792 7.97656 7.97656 9.77792 7.97656 12C7.97656 14.2221 9.77792 16.0234 12 16.0234C14.2221 16.0234 16.0234 14.2221 16.0234 12C16.0234 9.77792 14.2221 7.97656 12 7.97656Z" fill="#16191D"/>
<path d="M12.75 19.752C12.75 19.3377 12.4142 19.002 12 19.002C11.5858 19.002 11.25 19.3377 11.25 19.752V21.252C11.25 21.6662 11.5858 22.002 12 22.002C12.4142 22.002 12.75 21.6662 12.75 21.252V19.752Z" fill="#16191D"/>
<path d="M1.99841 12C1.99841 11.5858 2.3342 11.25 2.74841 11.25H4.24841C4.66263 11.25 4.99841 11.5858 4.99841 12C4.99841 12.4142 4.66263 12.75 4.24841 12.75H2.74841C2.3342 12.75 1.99841 12.4142 1.99841 12Z" fill="#16191D"/>
<path d="M19.7516 11.25C19.3374 11.25 19.0016 11.5858 19.0016 12C19.0016 12.4142 19.3374 12.75 19.7516 12.75H21.2516C21.6658 12.75 22.0016 12.4142 22.0016 12C22.0016 11.5858 21.6658 11.25 21.2516 11.25H19.7516Z" fill="#16191D"/>
<path d="M4.92774 19.0722C4.63485 18.7793 4.63485 18.3044 4.92774 18.0115L5.9884 16.9509C6.28129 16.658 6.75617 16.658 7.04906 16.9509C7.34195 17.2438 7.34195 17.7187 7.04906 18.0115L5.9884 19.0722C5.69551 19.3651 5.22063 19.3651 4.92774 19.0722Z" fill="#16191D"/>
<path d="M16.9509 5.98811C16.658 6.281 16.658 6.75588 16.9509 7.04877C17.2438 7.34166 17.7187 7.34166 18.0116 7.04877L19.0723 5.98811C19.3651 5.69522 19.3651 5.22034 19.0723 4.92745C18.7794 4.63456 18.3045 4.63456 18.0116 4.92745L16.9509 5.98811Z" fill="#16191D"/>
<path d="M4.92762 4.92768C5.22051 4.63478 5.69538 4.63478 5.98828 4.92768L7.04894 5.98834C7.34183 6.28123 7.34183 6.7561 7.04894 7.049C6.75604 7.34189 6.28117 7.34189 5.98828 7.049L4.92762 5.98834C4.63472 5.69544 4.63472 5.22057 4.92762 4.92768Z" fill="#16191D"/>
<path d="M18.0115 16.9511C17.7186 16.6582 17.2437 16.6582 16.9508 16.9511C16.6579 17.244 16.6579 17.7189 16.9508 18.0118L18.0115 19.0724C18.3044 19.3653 18.7792 19.3653 19.0721 19.0724C19.365 18.7795 19.365 18.3047 19.0721 18.0118L18.0115 16.9511Z" fill="#16191D"/>
</svg>
