<svg width="24" height="24" viewBox="0 0 24 24" fill="none" xmlns="http://www.w3.org/2000/svg">
<path d="M7.50061 10.501C8.32887 10.501 9.00031 11.1724 9.00031 12.0007C9.00031 12.8289 8.32887 13.5004 7.50061 13.5004C6.67235 13.5004 6.00092 12.8289 6.00092 12.0007C6.00092 11.1724 6.67235 10.501 7.50061 10.501Z" fill="#16191D"/>
<path d="M12 10.501C12.8283 10.501 13.4997 11.1724 13.4997 12.0007C13.4997 12.8289 12.8283 13.5004 12 13.5004C11.1717 13.5004 10.5003 12.8289 10.5003 12.0007C10.5003 11.1724 11.1717 10.501 12 10.501Z" fill="#16191D"/>
<path d="M17.9991 12.0007C17.9991 11.1724 17.3276 10.501 16.4994 10.501C15.6711 10.501 14.9997 11.1724 14.9997 12.0007C14.9997 12.8289 15.6711 13.5004 16.4994 13.5004C17.3276 13.5004 17.9991 12.8289 17.9991 12.0007Z" fill="#16191D"/>
</svg>
