<svg width="24" height="24" viewBox="0 0 24 24" fill="none" xmlns="http://www.w3.org/2000/svg">
<path d="M8.21875 6.62305C7.80454 6.62305 7.46875 6.95883 7.46875 7.37305C7.46875 7.78726 7.80454 8.12305 8.21875 8.12305H12.7188C13.133 8.12305 13.4688 7.78726 13.4688 7.37305C13.4688 6.95883 13.133 6.62305 12.7188 6.62305H8.21875Z" fill="#16191D"/>
<path d="M3 18.75C3 19.9926 4.00736 21 5.25 21H18.75C19.9926 21 21 19.9926 21 18.75V10.5588C21 9.96208 20.7629 9.38979 20.341 8.96783L15.0322 3.65901C14.6102 3.23705 14.0379 3 13.4412 3H5.25C4.00736 3 3 4.00736 3 5.25V18.75ZM5.25 19.5C4.83579 19.5 4.5 19.1642 4.5 18.75V5.25C4.5 4.83579 4.83579 4.5 5.25 4.5H13.4412C13.6401 4.5 13.8309 4.57902 13.9715 4.71967L19.2803 10.0285C19.421 10.1691 19.5 10.3599 19.5 10.5588V18.75C19.5 19.1642 19.1642 19.5 18.75 19.5H17.2539V15.502C17.2539 14.2593 16.2465 13.252 15.0039 13.252H8.96875C7.72611 13.252 6.71875 14.2593 6.71875 15.502V19.5H5.25ZM8.96875 14.752H15.0039C15.4181 14.752 15.7539 15.0877 15.7539 15.502V19.4868H8.21875V15.502C8.21875 15.0877 8.55454 14.752 8.96875 14.752Z" fill="#16191D"/>
</svg>
