<svg width="24" height="24" viewBox="0 0 24 24" fill="none" xmlns="http://www.w3.org/2000/svg">
<path d="M11.1828 20.7055C11.5965 21.7355 12.8742 21.8408 13.553 21.1331C13.6392 21.0432 13.7138 20.9428 13.7749 20.8343L17.3177 14.55C17.3821 14.4744 17.432 14.3861 17.4631 14.2895H19.6443C20.8869 14.2895 21.8943 13.2821 21.8943 12.0395V4.66433C21.8943 3.42169 20.8869 2.41433 19.6443 2.41433H15.2848C15.2731 2.41415 15.2614 2.41406 15.2497 2.41406H7.18437C5.38531 2.41406 3.83974 3.6917 3.50131 5.45864L2.22056 12.1456C1.95488 13.5327 3.01803 14.8188 4.4304 14.8188H10.6368C10.2417 16.7987 10.4351 18.8442 11.1828 20.7055ZM17.3718 3.91433H19.6443C20.0585 3.91433 20.3943 4.25012 20.3943 4.66433V12.0395C20.3943 12.4537 20.0585 12.7895 19.6443 12.7895H17.4997V4.66406C17.4997 4.40119 17.4546 4.14884 17.3718 3.91433Z" fill="#16191D"/>
</svg>
