<svg width="24" height="24" viewBox="0 0 24 24" fill="none" xmlns="http://www.w3.org/2000/svg">
<path d="M12 3C12.4142 3 12.75 3.33579 12.75 3.75V6.10352C13.9043 6.42998 14.75 7.49122 14.75 8.75C14.75 10.0088 13.9043 11.07 12.75 11.3965L12.75 20.25C12.75 20.6642 12.4142 21 12 21C11.5858 21 11.25 20.6642 11.25 20.25L11.25 11.3965C10.0957 11.07 9.25 10.0088 9.25 8.75C9.25 7.49122 10.0957 6.42998 11.25 6.10352V3.75C11.25 3.33579 11.5858 3 12 3ZM19 3C19.4142 3 19.75 3.33579 19.75 3.75V12.6035C20.9043 12.93 21.75 13.9912 21.75 15.25C21.75 16.5088 20.9043 17.57 19.75 17.8965V20.25C19.75 20.6642 19.4142 21 19 21C18.5858 21 18.25 20.6642 18.25 20.25V17.8965C17.0957 17.57 16.25 16.5088 16.25 15.25C16.25 13.9912 17.0957 12.93 18.25 12.6035V3.75C18.25 3.33579 18.5858 3 19 3ZM5 3.00049C5.41421 3.00049 5.75 3.33627 5.75 3.75049L5.75 11.1035C6.90425 11.43 7.75 12.4912 7.75 13.75C7.75 15.0088 6.90425 16.07 5.75 16.3965L5.75 20.25C5.75 20.6642 5.41421 21 5 21C4.58579 21 4.25 20.6642 4.25 20.25L4.25 16.3965C3.09575 16.07 2.25 15.0088 2.25 13.75C2.25 12.4912 3.09575 11.43 4.25 11.1035L4.25 3.75049C4.25 3.33627 4.58579 3.00049 5 3.00049ZM12 7.5C11.3096 7.5 10.75 8.05964 10.75 8.75C10.75 9.44036 11.3096 10 12 10C12.6904 10 13.25 9.44036 13.25 8.75C13.25 8.05964 12.6904 7.5 12 7.5ZM5 12.5C4.30964 12.5 3.75 13.0596 3.75 13.75C3.75 14.4404 4.30964 15 5 15C5.69036 15 6.25 14.4404 6.25 13.75C6.25 13.0596 5.69036 12.5 5 12.5ZM19 14C18.3096 14 17.75 14.5596 17.75 15.25C17.75 15.9404 18.3096 16.5 19 16.5C19.6904 16.5 20.25 15.9404 20.25 15.25C20.25 14.5596 19.6904 14 19 14Z" fill="#16191D"/>
</svg>
