<svg width="24" height="24" viewBox="0 0 24 24" fill="none" xmlns="http://www.w3.org/2000/svg">
<path d="M12 2.00049C6.47715 2.00049 2 6.47764 2 12.0005C2 17.5233 6.47715 22.0005 12 22.0005C17.5228 22.0005 22 17.5233 22 12.0005C22 6.47764 17.5228 2.00049 12 2.00049ZM15.5303 8.47016C15.8232 8.76305 15.8232 9.23793 15.5303 9.53082L13.0607 12.0005L15.5303 14.4702C15.8232 14.7631 15.8232 15.2379 15.5303 15.5308C15.2374 15.8237 14.7626 15.8237 14.4697 15.5308L12 13.0611L9.53033 15.5308C9.23744 15.8237 8.76256 15.8237 8.46967 15.5308C8.17678 15.2379 8.17678 14.7631 8.46967 14.4702L10.9393 12.0005L8.46967 9.53082C8.17678 9.23793 8.17678 8.76305 8.46967 8.47016C8.76256 8.17727 9.23744 8.17727 9.53033 8.47016L12 10.9398L14.4697 8.47016C14.7626 8.17727 15.2374 8.17727 15.5303 8.47016Z" fill="#16191D"/>
</svg>
