<svg width="21" height="21" viewBox="0 0 21 21" fill="none" xmlns="http://www.w3.org/2000/svg">
<path fill-rule="evenodd" clip-rule="evenodd" d="M4.96022 16.0703C4.66742 15.7773 4.66758 15.3024 4.96057 15.0096L9.43303 10.5401L4.96057 6.07062C4.66758 5.77783 4.66742 5.30295 4.96022 5.00996C5.25301 4.71697 5.72788 4.71681 6.02088 5.00961L11.0242 10.0096C11.165 10.1503 11.244 10.3411 11.244 10.5401C11.244 10.7391 11.165 10.9299 11.0242 11.0706L6.02088 16.0706C5.72789 16.3634 5.25301 16.3632 4.96022 16.0703ZM10.9614 16.0712C10.6686 15.7782 10.6688 15.3033 10.9617 15.0105L15.4342 10.541L10.9617 6.07152C10.6688 5.77873 10.6686 5.30385 10.9614 5.01086C11.2542 4.71787 11.7291 4.71771 12.0221 5.01051L17.0254 10.0105C17.1661 10.1512 17.2452 10.342 17.2452 10.541C17.2452 10.74 17.1661 10.9309 17.0254 11.0715L12.0221 16.0715C11.7291 16.3643 11.2542 16.3642 10.9614 16.0712Z" fill="#576175"/>
</svg>
