<svg width="24" height="24" viewBox="0 0 24 24" fill="none" xmlns="http://www.w3.org/2000/svg">
<path d="M4 4.25C4 3.00736 5.00736 2 6.25 2H14.75C15.9926 2 17 3.00736 17 4.25V16.75C17 17.9926 15.9926 19 14.75 19H6.25C5.00736 19 4 17.9926 4 16.75V4.25Z" fill="black"/>
<path d="M20 5.75C20 5.33579 19.6642 5 19.25 5C18.8358 5 18.5 5.33579 18.5 5.75V19.75C18.5 20.1642 18.1642 20.5 17.75 20.5H7.75C7.33579 20.5 7 20.8358 7 21.25C7 21.6642 7.33579 22 7.75 22H17.75C18.9926 22 20 20.9926 20 19.75V5.75Z" fill="black"/>
</svg>
