<svg width="21" height="21" viewBox="0 0 21 21" fill="none" xmlns="http://www.w3.org/2000/svg">
<g clip-path="url(#clip0_1505_60853)">
<path fill-rule="evenodd" clip-rule="evenodd" d="M10.9933 6.79102C8.92226 6.79102 7.24333 8.46995 7.24333 10.541C7.24333 12.6121 8.92226 14.291 10.9933 14.291C13.0644 14.291 14.7433 12.6121 14.7433 10.541C14.7433 8.46995 13.0644 6.79102 10.9933 6.79102ZM8.74333 10.541C8.74333 9.29838 9.75069 8.29102 10.9933 8.29102C12.236 8.29102 13.2433 9.29838 13.2433 10.541C13.2433 11.7837 12.236 12.791 10.9933 12.791C9.75069 12.791 8.74333 11.7837 8.74333 10.541Z" fill="#576175"/>
<path fill-rule="evenodd" clip-rule="evenodd" d="M10.1513 0.522461C9.05307 0.522461 8.16277 1.41276 8.16277 2.51099C8.16277 2.71083 8.02288 2.94494 7.74115 3.0677C7.55542 3.14863 7.37332 3.23626 7.19515 3.33029C6.92341 3.47369 6.65297 3.43665 6.49665 3.31142C5.63918 2.62449 4.3872 2.76274 3.70027 3.62021L2.64769 4.9341C1.96095 5.79133 2.09916 7.04296 2.95639 7.7297C3.11242 7.8547 3.2077 8.11033 3.12736 8.40712C3.07123 8.61449 3.02308 8.8251 2.98326 9.03861C2.92692 9.34067 2.72993 9.52958 2.53469 9.57427C1.46367 9.81945 0.794194 10.8864 1.03937 11.9575L1.41473 13.5971C1.66 14.6686 2.72739 15.3383 3.79881 15.093C3.9942 15.0483 4.25376 15.1325 4.43617 15.3794C4.56784 15.5576 4.70659 15.7302 4.852 15.8968C5.05392 16.1282 5.08024 16.4001 4.99413 16.5816C4.52276 17.5749 4.94589 18.7623 5.93923 19.2337L7.45695 19.9539C8.45033 20.4253 9.63777 20.0021 10.1092 19.0087C10.1953 18.8273 10.4225 18.6756 10.7291 18.6854C10.8169 18.6882 10.905 18.6897 10.9934 18.6897C11.0819 18.6897 11.1701 18.6882 11.2579 18.6854C11.5645 18.6756 11.7918 18.8272 11.8779 19.0087C12.3493 20.0021 13.5367 20.4253 14.5301 19.9539L16.0477 19.2337C17.0411 18.7623 17.4643 17.5749 16.9929 16.5815C16.9067 16.4 16.9331 16.128 17.135 15.8966C17.2803 15.7301 17.419 15.5575 17.5506 15.3794C17.7331 15.1325 17.9927 15.0483 18.1881 15.093C19.2596 15.3383 20.3271 14.6685 20.5723 13.597L20.9476 11.9576C21.1928 10.8865 20.5233 9.81944 19.4522 9.57424C19.2569 9.52954 19.0599 9.34058 19.0036 9.03847C18.9637 8.82499 18.9156 8.61441 18.8595 8.40708C18.7791 8.1103 18.8744 7.85468 19.0304 7.72969C19.8876 7.04295 20.0259 5.79134 19.3391 4.93412L18.2865 3.6202C17.5996 2.76274 16.3476 2.62449 15.4902 3.31142C15.3338 3.43664 15.0634 3.47368 14.7917 3.33028C14.6136 3.23633 14.4317 3.14876 14.2461 3.06788C13.9644 2.94509 13.8245 2.71096 13.8245 2.51109C13.8245 1.4128 12.9341 0.522461 11.8358 0.522461H10.1513ZM9.66277 2.51099C9.66277 2.24118 9.8815 2.02246 10.1513 2.02246H11.8358C12.1057 2.02246 12.3245 2.24123 12.3245 2.51109C12.3245 3.41147 12.92 4.1262 13.6469 4.44298C13.7981 4.50888 13.9464 4.58027 14.0916 4.65688C14.7938 5.02747 15.7248 5.0454 16.428 4.48208C16.6389 4.31311 16.9469 4.34712 17.1159 4.55804L18.1685 5.87195C18.3372 6.08263 18.3033 6.39024 18.0926 6.55902C17.3898 7.12201 17.2044 8.03367 17.4116 8.79903C17.4573 8.96792 17.4965 9.13951 17.529 9.31352C17.6746 10.0943 18.239 10.8353 19.1175 11.0364C19.3811 11.0968 19.5458 11.3593 19.4855 11.6229L19.1102 13.2623C19.0497 13.5263 18.7868 13.6912 18.5229 13.6308C17.6457 13.43 16.8158 13.8499 16.3443 14.488C16.2368 14.6334 16.1236 14.7743 16.0048 14.9103C15.4825 15.5089 15.2516 16.4109 15.6377 17.2246C15.7539 17.4695 15.6496 17.7623 15.4047 17.8786L13.887 18.5987C13.6421 18.715 13.3493 18.6106 13.233 18.3657C12.8473 17.5527 12.0036 17.1608 11.21 17.1862C11.1381 17.1885 11.0659 17.1897 10.9934 17.1897C10.921 17.1897 10.8488 17.1885 10.7769 17.1862C9.98342 17.1609 9.13976 17.5528 8.754 18.3657C8.63776 18.6106 8.34497 18.715 8.10002 18.5987L6.5823 17.8785C6.3374 17.7623 6.23308 17.4696 6.34929 17.2247C6.73541 16.411 6.5045 15.509 5.98214 14.9105C5.86336 14.7744 5.75004 14.6334 5.64253 14.4879C5.17104 13.8499 4.34123 13.43 3.46409 13.6308C3.2002 13.6913 2.93731 13.5263 2.8769 13.2624L2.50155 11.6227C2.44123 11.3593 2.60593 11.0968 2.86941 11.0364C3.74787 10.8354 4.31221 10.0944 4.45783 9.31364C4.49029 9.1396 4.52952 8.96799 4.57525 8.79907C4.78243 8.0337 4.59699 7.12203 3.89423 6.55903C3.68354 6.39025 3.64957 6.08262 3.81836 5.87193L4.87093 4.55805C5.03991 4.34712 5.34788 4.31311 5.55881 4.48209C6.26198 5.04541 7.19301 5.02748 7.89524 4.65689C8.04053 4.58021 8.18898 4.50878 8.34033 4.44283C9.06723 4.1261 9.66277 3.41137 9.66277 2.51099Z" fill="#576175"/>
</g>
<defs>
<clipPath id="clip0_1505_60853">
<rect width="20" height="20" fill="white" transform="translate(0.993164 0.541016)"/>
</clipPath>
</defs>
</svg>
