<svg width="24" height="24" viewBox="0 0 24 24" fill="none" xmlns="http://www.w3.org/2000/svg">
<path d="M8.43004 10.5047C8.12 10.8715 7.90076 11.3628 7.90076 11.8803C7.90076 12.3978 8.12 12.8891 8.43004 13.2559C8.76912 13.657 9.07958 13.7604 9.15283 13.7604C9.56705 13.7604 9.90283 14.0962 9.90283 14.5104C9.90283 14.9246 9.56705 15.2604 9.15283 15.2604C8.44069 15.2604 7.75012 14.775 7.2845 14.2242C6.78986 13.6391 6.40076 12.8154 6.40076 11.8803C6.40076 10.9452 6.78986 10.1215 7.2845 9.53635C7.75012 8.98555 8.44069 8.5002 9.15283 8.5002C9.56705 8.5002 9.90283 8.83599 9.90283 9.2502C9.90283 9.66442 9.56705 10.0002 9.15283 10.0002C9.07958 10.0002 8.76912 10.1036 8.43004 10.5047Z" fill="#16191D"/>
<path fill-rule="evenodd" clip-rule="evenodd" d="M4.38099 9.45948C4.29573 9.16693 4.25 8.85769 4.25 8.53824C4.25 6.8154 5.57495 5.40203 7.26148 5.26148C7.40203 3.57495 8.8154 2.25 10.5382 2.25C12.3543 2.25 13.8265 3.72219 13.8265 5.53824V7.22375H15.7947V5.69811C15.345 5.4385 15.0424 4.95264 15.0424 4.39609C15.0424 3.56636 15.715 2.89374 16.5447 2.89374C17.3744 2.89374 18.0471 3.56636 18.0471 4.39609C18.0471 4.95267 17.7444 5.43856 17.2947 5.69815V7.97375C17.2947 8.38796 16.9589 8.72375 16.5447 8.72375H13.8265V9.99648H18.5616C18.8075 9.50201 19.3179 9.16223 19.9076 9.16223C20.7373 9.16223 21.41 9.83486 21.41 10.6646C21.41 11.4943 20.7373 12.1669 19.9076 12.1669C19.3856 12.1669 18.9257 11.9006 18.6564 11.4965H13.8265V12.9808H19.9968C20.411 12.9808 20.7468 13.3166 20.7468 13.7308V17.5368C21.1965 17.7964 21.4992 18.2823 21.4992 18.8389C21.4992 19.6686 20.8266 20.3412 19.9969 20.3412C19.1671 20.3412 18.4945 19.6686 18.4945 18.8389C18.4945 18.2823 18.7971 17.7965 19.2468 17.5369V14.4808H13.8265V15.662H15.5435C15.9577 15.662 16.2935 15.9978 16.2935 16.412V18.4069C16.7551 18.6632 17.0674 19.1557 17.0674 19.7212C17.0674 20.5509 16.3948 21.2235 15.5651 21.2235C14.7354 21.2235 14.0627 20.5509 14.0627 19.7212C14.0627 19.1736 14.3557 18.6944 14.7935 18.4318V17.162H13.8265V18.5382C13.8265 20.3543 12.3543 21.8265 10.5382 21.8265C9.1789 21.8265 8.01327 21.0022 7.51213 19.8264C5.70811 19.8123 4.25 18.3456 4.25 16.5382C4.25 16.2188 4.29573 15.9096 4.38099 15.617C3.1358 15.1488 2.25 13.947 2.25 12.5382C2.25 11.1295 3.1358 9.92773 4.38099 9.45948ZM10.5382 3.75C9.55062 3.75 8.75 4.55062 8.75 5.53824C8.75 5.66324 8.76271 5.78448 8.78667 5.901C8.83745 6.14803 8.76068 6.40403 8.58236 6.58236C8.40403 6.76068 8.14803 6.83745 7.901 6.78667C7.78448 6.76271 7.66324 6.75 7.53824 6.75C6.55062 6.75 5.75 7.55062 5.75 8.53824C5.75 8.84324 5.82582 9.12912 5.95967 9.37951C6.15799 9.51447 6.28824 9.74203 6.28824 10C6.28824 10.4142 5.95245 10.75 5.53824 10.75C5.5205 10.75 5.50286 10.7503 5.48531 10.7508C4.52241 10.7785 3.75 11.5683 3.75 12.5382C3.75 13.5082 4.5224 14.2979 5.4853 14.3257C5.76154 14.3337 6.01101 14.4929 6.13455 14.7401C6.2581 14.9873 6.23569 15.2824 6.07624 15.5081C5.87065 15.7992 5.75 16.1535 5.75 16.5382C5.75 17.5259 6.55062 18.3265 7.53824 18.3265C7.66191 18.3265 7.7819 18.314 7.89728 18.2906C8.09329 18.2507 8.29711 18.2908 8.46342 18.4019C8.62973 18.5131 8.74476 18.686 8.78294 18.8824C8.94297 19.7054 9.66889 20.3265 10.5382 20.3265C11.5259 20.3265 12.3265 19.5259 12.3265 18.5382V5.53824C12.3265 4.55062 11.5259 3.75 10.5382 3.75Z" fill="#16191D"/>
</svg>
