<svg width="24" height="24" viewBox="0 0 24 24" fill="none" xmlns="http://www.w3.org/2000/svg">
<path fill-rule="evenodd" clip-rule="evenodd" d="M3.47656 4.24951C3.47656 3.00687 4.48392 1.99951 5.72656 1.99951H18.5C19.7426 1.99951 20.75 3.00687 20.75 4.24951V19.7495C20.75 20.9922 19.7426 21.9995 18.5 21.9995H5.72656C4.48392 21.9995 3.47656 20.9922 3.47656 19.7495V17.2495H2.71484C2.30063 17.2495 1.96484 16.9137 1.96484 16.4995C1.96484 16.0853 2.30063 15.7495 2.71484 15.7495H3.47656V12.7495H2.71484C2.30063 12.7495 1.96484 12.4137 1.96484 11.9995C1.96484 11.5853 2.30063 11.2495 2.71484 11.2495H3.47656V8.24951H2.71484C2.30063 8.24951 1.96484 7.91373 1.96484 7.49951C1.96484 7.0853 2.30063 6.74951 2.71484 6.74951H3.47656V4.24951ZM4.97656 17.2495H5.71484C6.12906 17.2495 6.46484 16.9137 6.46484 16.4995C6.46484 16.0853 6.12906 15.7495 5.71484 15.7495H4.97656V12.7495H5.71484C6.12906 12.7495 6.46484 12.4137 6.46484 11.9995C6.46484 11.5853 6.12906 11.2495 5.71484 11.2495H4.97656V8.24951H5.71484C6.12906 8.24951 6.46484 7.91373 6.46484 7.49951C6.46484 7.0853 6.12906 6.74951 5.71484 6.74951H4.97656V4.24951C4.97656 3.8353 5.31235 3.49951 5.72656 3.49951H7.97266L7.97266 20.4995H5.72656C5.31235 20.4995 4.97656 20.1637 4.97656 19.7495V17.2495Z" fill="#16191D"/>
</svg>
