<svg width="21" height="21" viewBox="0 0 21 21" fill="none" xmlns="http://www.w3.org/2000/svg">
<path d="M15.4602 8.82937C15.753 9.12236 16.2279 9.12252 16.5209 8.82973C16.8139 8.53693 16.814 8.06206 16.5212 7.76907L11.5212 2.76574C11.3806 2.62498 11.1897 2.5459 10.9907 2.5459C10.7917 2.5459 10.6009 2.62498 10.4602 2.76574L5.46022 7.76906C5.16742 8.06206 5.16758 8.53693 5.46057 8.82973C5.75356 9.12252 6.22843 9.12236 6.52123 8.82937L10.2355 5.11265L10.2354 17.7949C10.2353 18.2091 10.5711 18.5449 10.9853 18.5449C11.3996 18.5449 11.7353 18.2091 11.7354 17.7949L11.7355 5.10217L15.4602 8.82937Z" fill="#576175"/>
</svg>
