<svg width="21" height="21" viewBox="0 0 21 21" fill="none" xmlns="http://www.w3.org/2000/svg">
<path d="M6.99255 6.04071C6.99255 6.86897 6.32112 7.54041 5.49286 7.54041C4.6646 7.54041 3.99316 6.86897 3.99316 6.04071C3.99316 5.21245 4.6646 4.54102 5.49286 4.54102C6.32112 4.54102 6.99255 5.21245 6.99255 6.04071Z" fill="#576175"/>
<path d="M6.99255 10.5397C6.99255 11.368 6.32112 12.0394 5.49286 12.0394C4.6646 12.0394 3.99316 11.368 3.99316 10.5397C3.99316 9.71148 4.6646 9.04004 5.49286 9.04004C6.32112 9.04004 6.99255 9.71148 6.99255 10.5397Z" fill="#576175"/>
<path d="M5.49286 16.5394C6.32112 16.5394 6.99255 15.868 6.99255 15.0397C6.99255 14.2115 6.32112 13.54 5.49286 13.54C4.6646 13.54 3.99316 14.2115 3.99316 15.0397C3.99316 15.868 4.6646 16.5394 5.49286 16.5394Z" fill="#576175"/>
<path d="M11.4921 10.5397C11.4921 11.368 10.8206 12.0394 9.99237 12.0394C9.16411 12.0394 8.49268 11.368 8.49268 10.5397C8.49268 9.71148 9.16411 9.04004 9.99237 9.04004C10.8206 9.04004 11.4921 9.71148 11.4921 10.5397Z" fill="#576175"/>
<path d="M9.99237 7.54041C10.8206 7.54041 11.4921 6.86897 11.4921 6.04071C11.4921 5.21245 10.8206 4.54102 9.99237 4.54102C9.16411 4.54102 8.49268 5.21245 8.49268 6.04071C8.49268 6.86897 9.16411 7.54041 9.99237 7.54041Z" fill="#576175"/>
<path d="M11.4921 15.0397C11.4921 15.868 10.8206 16.5394 9.99237 16.5394C9.16411 16.5394 8.49268 15.868 8.49268 15.0397C8.49268 14.2115 9.16411 13.54 9.99237 13.54C10.8206 13.54 11.4921 14.2115 11.4921 15.0397Z" fill="#576175"/>
<path d="M14.4919 12.0394C15.3201 12.0394 15.9916 11.368 15.9916 10.5397C15.9916 9.71148 15.3201 9.04004 14.4919 9.04004C13.6636 9.04004 12.9922 9.71148 12.9922 10.5397C12.9922 11.368 13.6636 12.0394 14.4919 12.0394Z" fill="#576175"/>
<path d="M15.9916 6.04071C15.9916 6.86897 15.3201 7.54041 14.4919 7.54041C13.6636 7.54041 12.9922 6.86897 12.9922 6.04071C12.9922 5.21245 13.6636 4.54102 14.4919 4.54102C15.3201 4.54102 15.9916 5.21245 15.9916 6.04071Z" fill="#576175"/>
<path d="M14.4919 16.5394C15.3201 16.5394 15.9916 15.868 15.9916 15.0397C15.9916 14.2115 15.3201 13.54 14.4919 13.54C13.6636 13.54 12.9922 14.2115 12.9922 15.0397C12.9922 15.868 13.6636 16.5394 14.4919 16.5394Z" fill="#576175"/>
</svg>
