<svg width="21" height="21" viewBox="0 0 21 21" fill="none" xmlns="http://www.w3.org/2000/svg">
<path d="M19.2351 7.28127C18.8209 7.28113 18.4852 6.94524 18.4854 6.53102L18.4862 4.10703L12.6975 9.89538C12.4046 10.1883 11.9298 10.1883 11.6369 9.89535C11.344 9.60245 11.344 9.12758 11.6369 8.83469L17.4312 3.04064L14.9958 3.04145C14.5816 3.04158 14.2457 2.70591 14.2455 2.2917C14.2454 1.87748 14.5811 1.54159 14.9953 1.54145L19.2365 1.54004C19.4355 1.53997 19.6264 1.619 19.7671 1.75971C19.8299 1.82254 19.8804 1.89537 19.9171 1.97445C19.972 2.09102 19.9952 2.21882 19.9867 2.34488L19.9854 6.53152C19.9852 6.94573 19.6493 7.28141 19.2351 7.28127Z" fill="#576175"/>
<path d="M4.24902 4.04104C3.83481 4.04104 3.49902 4.37682 3.49902 4.79104V17.291C3.49902 17.7052 3.83481 18.041 4.24902 18.041H16.7451C17.1593 18.041 17.4951 17.7052 17.4951 17.291V10.5488C17.4951 10.1346 17.8309 9.79885 18.2451 9.79885C18.6593 9.79885 18.9951 10.1346 18.9951 10.5488V17.291C18.9951 18.5337 17.9878 19.541 16.7451 19.541H4.24902C3.00638 19.541 1.99902 18.5337 1.99902 17.291V4.79104C1.99902 3.5484 3.00638 2.54104 4.24902 2.54104H10.9875C11.4017 2.54104 11.7375 2.87682 11.7375 3.29104C11.7375 3.70525 11.4017 4.04104 10.9875 4.04104H4.24902Z" fill="#576175"/>
</svg>
