<svg width="24" height="24" viewBox="0 0 24 24" fill="none" xmlns="http://www.w3.org/2000/svg">
<path fill-rule="evenodd" clip-rule="evenodd" d="M17.6522 6.34858C17.7929 6.48929 17.8719 6.68016 17.8718 6.87916L17.8695 13.9526C17.8694 14.3668 17.5335 14.7025 17.1193 14.7023C16.705 14.7022 16.3694 14.3663 16.3695 13.9521L16.3713 8.68207L7.39568 17.6575C7.10278 17.9503 6.62791 17.9503 6.33502 17.6574C6.04213 17.3645 6.04214 16.8897 6.33503 16.5968L15.3025 7.62951L10.0487 7.63126C9.63447 7.63139 9.29857 7.29572 9.29843 6.8815C9.2983 6.46729 9.63397 6.13139 10.0482 6.13126L17.1216 6.12891C17.3206 6.12884 17.5115 6.20786 17.6522 6.34858Z" fill="#16191D"/>
</svg>
