<svg width="24" height="24" viewBox="0 0 24 24" fill="none" xmlns="http://www.w3.org/2000/svg">
<path d="M12.4854 2.28492C12.2054 2.0474 11.7907 2.05066 11.5108 2.28817L12.4854 2.28492ZM14.334 13.6681C14.334 12.1623 15.5547 10.9417 17.0605 10.9417C18.5663 10.9417 19.7869 12.1623 19.7869 13.6681V14.4795H20.2113C21.0397 14.4795 21.7113 15.1511 21.7113 15.9795V20.052C21.7113 20.8804 21.0397 21.552 20.2113 21.552H13.9098C13.0814 21.552 12.4098 20.8804 12.4098 20.052V15.9795C12.4098 15.1511 13.0814 14.4795 13.9098 14.4795H14.334V13.6681ZM15.834 14.4795H18.2869V13.6681C18.2869 12.9908 17.7378 12.4417 17.0605 12.4417C16.3831 12.4417 15.834 12.9908 15.834 13.6681V14.4795ZM20.2113 15.9795H13.9098V20.052H20.2113L20.2113 15.9795Z" fill="#16191D"/>
<path d="M12.4892 2.28817L12.4854 2.28492C12.2054 2.0474 11.7907 2.05066 11.5108 2.28817L11.4954 2.30105C11.4815 2.31273 11.4601 2.33046 11.4321 2.35352C11.376 2.39966 11.293 2.46705 11.1881 2.54996C10.9779 2.71606 10.6815 2.943 10.3376 3.18561C9.63272 3.68307 8.7928 4.20003 8.10387 4.43153C7.51471 4.62951 6.67841 4.739 5.94523 4.79516C5.58757 4.82256 5.27031 4.83622 5.04279 4.84299C4.92922 4.84638 4.83851 4.84803 4.77688 4.84884L4.70715 4.84953L4.6902 4.84961L4.68582 4.84962C4.48689 4.84955 4.29608 4.92851 4.15537 5.06913C4.01462 5.2098 3.93555 5.40063 3.93555 5.59962V11.9998C3.93555 13.9575 4.7635 15.6697 5.82946 17.0637C6.89527 18.4575 8.2326 19.5784 9.34236 20.3734C9.67908 20.6146 10.1476 20.5372 10.3888 20.2005C10.63 19.8638 10.5526 19.3952 10.2159 19.154C9.17337 18.4072 7.96392 17.3856 7.02101 16.1525C6.07825 14.9197 5.43555 13.5208 5.43555 11.9998V6.32903C5.62115 6.32042 5.83272 6.30818 6.05981 6.29078C6.81414 6.23299 7.80646 6.1139 8.58167 5.8534C9.48926 5.54841 10.478 4.92248 11.2025 4.41118C11.5128 4.19219 11.7865 3.9857 12 3.81946C12.2135 3.9857 12.4872 4.19219 12.7975 4.41118C13.522 4.92248 14.5107 5.54841 15.4183 5.8534C16.1935 6.1139 17.1859 6.23299 17.9402 6.29078C18.1673 6.30818 18.3789 6.32042 18.5645 6.32903V9.07729C18.5645 9.49151 18.9002 9.82729 19.3145 9.82729C19.7287 9.82729 20.0645 9.49151 20.0645 9.07729V5.59962C20.0645 5.40063 19.9854 5.2098 19.8446 5.06913C19.7039 4.9285 19.5125 4.84953 19.3135 4.84962L19.3098 4.84961L19.2928 4.84953L19.2231 4.84884C19.1615 4.84803 19.0708 4.84638 18.9572 4.84299C18.7297 4.83622 18.4124 4.82256 18.0548 4.79516C17.3216 4.739 16.4853 4.62951 15.8961 4.43153C15.2072 4.20003 14.3673 3.68307 13.6624 3.18561C13.3185 2.943 13.0221 2.71606 12.8119 2.54996C12.707 2.46705 12.624 2.39966 12.5679 2.35352C12.5399 2.33046 12.5185 2.31273 12.5046 2.30105L12.4892 2.28817Z" fill="#16191D"/>
</svg>
