<svg xmlns="http://www.w3.org/2000/svg" width="24" height="24" viewBox="0 0 24 24" fill="none">
  <path d="M18.5473 2.6619C19.0577 2.18622 19.9967 2.1737 20.4052 2.94832C20.9572 3.99508 21.902 6.50403 21.8744 11.3702C21.8469 16.2074 20.9376 18.7743 20.4122 19.8558C20.0214 20.6603 19.053 20.6708 18.5258 20.1799C17.7334 19.4419 16.0522 17.9589 14.7007 17.2728C13.9617 16.8977 12.9171 16.5572 12.0236 16.3058C11.7891 16.2398 11.5685 16.1809 11.3711 16.13V18.3078C11.3711 18.5372 11.3079 18.7623 11.1885 18.9582L9.81436 21.2133C9.40522 21.8847 8.40413 21.7969 8.11818 21.0644L6.09667 15.8869C3.86177 15.6241 2.12793 13.7235 2.12793 11.4179C2.12793 8.93265 4.14265 6.91793 6.62793 6.91793H10.5707C10.5746 6.91705 10.5786 6.91614 10.5827 6.91521C10.6595 6.89781 10.7719 6.87185 10.9122 6.83809C11.1931 6.77051 11.5842 6.67201 12.0242 6.54866C12.9177 6.29817 13.9623 5.95889 14.7012 5.58452C16.0655 4.89333 17.7654 3.39061 18.5473 2.6619ZM11.375 8.26933V14.5842C11.6577 14.6536 12.0236 14.7475 12.4299 14.8619C13.3401 15.118 14.503 15.4902 15.3797 15.9353C16.7653 16.6387 18.3533 17.9938 19.2411 18.7998C19.6847 17.7154 20.3514 15.4173 20.3744 11.3617C20.3974 7.30988 19.7177 5.07501 19.2655 4.0394C18.3819 4.84237 16.7772 6.21427 15.3791 6.92259C14.5023 7.36681 13.3393 7.73781 12.4291 7.99297C12.0232 8.10677 11.6576 8.20025 11.375 8.26933ZM9.875 14.4179V8.41793H6.62793C4.97108 8.41793 3.62793 9.76108 3.62793 11.4179C3.62793 13.0748 4.97108 14.4179 6.62793 14.4179H9.875ZM9.87109 15.9179H7.71906L9.11146 19.4842L9.87109 18.2376V15.9179Z" fill="#16191D"/>
</svg>