<svg xmlns="http://www.w3.org/2000/svg" width="24" height="24" viewBox="0 0 24 24" fill="none">
  <path d="M12.5046 2.30124C12.2247 2.06372 11.7947 2.04743 11.5147 2.28495C11.1365 2.60264 10.7411 2.90103 10.3376 3.18573C9.63272 3.68318 8.7928 4.20014 8.10387 4.43164C7.51471 4.62962 6.67841 4.73911 5.94523 4.79528C5.52633 4.82737 5.10604 4.849 4.68582 4.84973C4.48689 4.84966 4.29608 4.92862 4.15537 5.06925C4.01462 5.20991 3.93555 5.40074 3.93555 5.59973V11.9999C3.93555 16.5204 7.95854 19.9323 11.6641 21.8135L12.3365 21.8132C16.0274 19.9629 20.0645 16.4706 20.0645 11.9999V5.59973C20.0645 5.40074 19.9854 5.20991 19.8446 5.06925C19.4618 4.68663 18.5564 4.83371 18.0548 4.79528C17.3216 4.73911 16.4853 4.62962 15.8961 4.43164C15.2072 4.20014 14.3673 3.68318 13.6624 3.18573C13.0612 2.76148 12.6025 2.38309 12.5046 2.30124ZM12 3.81957C13.0377 4.62753 14.1638 5.43193 15.4183 5.85351C16.4233 6.19123 17.5099 6.28019 18.5645 6.32915V11.9999C18.5645 15.7914 15.0248 18.6017 12 20.2917C8.97522 18.6017 5.43555 15.7914 5.43555 11.9999V6.32915C6.49006 6.28019 7.57668 6.19123 8.58167 5.85351C9.83625 5.43193 10.9623 4.62753 12 3.81957Z" fill="#16191D"/>
  <path d="M9.94439 8.88556C9.6515 8.59267 9.17663 8.59267 8.88373 8.88556C8.59084 9.17846 8.59084 9.65333 8.88373 9.94622L10.9374 11.9999L8.88373 14.0535C8.59084 14.3464 8.59084 14.8213 8.88373 15.1142C9.17663 15.4071 9.6515 15.4071 9.94439 15.1142L11.998 13.0605L14.0517 15.1142C14.3446 15.4071 14.8195 15.4071 15.1124 15.1142C15.4053 14.8213 15.4053 14.3464 15.1124 14.0535L13.0587 11.9999L15.1124 9.94622C15.4053 9.65333 15.4053 9.17846 15.1124 8.88556C14.8195 8.59267 14.3446 8.59267 14.0517 8.88556L11.998 10.9392L9.94439 8.88556Z" fill="#16191D"/>
  <path d="M11.6641 21.8135C11.8753 21.9191 12.1243 21.9193 12.3354 21.8138L11.9998 21.8136L11.6641 21.8135Z" fill="#16191D"/>
</svg>