<svg width="21" height="21" viewBox="0 0 21 21" fill="none" xmlns="http://www.w3.org/2000/svg">
<path d="M10.9902 1.5498C11.1893 1.5498 11.3801 1.62891 11.5208 1.76969L15.5208 5.77301C15.8136 6.06603 15.8134 6.5409 15.5203 6.83367C15.2273 7.12644 14.7525 7.12625 14.4597 6.83323L11.7402 4.11153L11.7402 13.8243C11.7402 14.2385 11.4045 14.5743 10.9902 14.5743C10.576 14.5743 10.2402 14.2385 10.2402 13.8243L10.2402 4.11153L7.52078 6.83323C7.22801 7.12625 6.75314 7.12644 6.46012 6.83367C6.16711 6.5409 6.16691 6.06603 6.45968 5.77301L10.4597 1.76969C10.6004 1.62891 10.7912 1.5498 10.9902 1.5498Z" fill="#576175"/>
<path d="M4.24316 18.0498C3.82895 18.0498 3.49316 17.714 3.49316 17.2998L3.49316 12.7948C3.49316 12.3806 3.15738 12.0448 2.74316 12.0448C2.32895 12.0448 1.99316 12.3806 1.99316 12.7948V17.2998C1.99316 18.5424 3.00052 19.5498 4.24316 19.5498H17.7397C18.9824 19.5498 19.9897 18.5424 19.9897 17.2998V12.7948C19.9897 12.3806 19.654 12.0448 19.2397 12.0448C18.8255 12.0448 18.4897 12.3806 18.4897 12.7948V17.2998C18.4897 17.714 18.154 18.0498 17.7397 18.0498H4.24316Z" fill="#576175"/>
</svg>
