<svg width="24" height="24" viewBox="0 0 24 24" fill="none" xmlns="http://www.w3.org/2000/svg">
<path d="M9.18385 6.60085C8.75812 6.60085 8.413 6.94597 8.413 7.3717C8.413 7.79742 8.75812 8.14254 9.18385 8.14254H18.4344C18.8601 8.14254 19.2053 7.79742 19.2053 7.3717C19.2053 6.94597 18.8601 6.60085 18.4344 6.60085H9.18385Z" fill="#16191D"/>
<path d="M9.18385 11.2259C8.75812 11.2259 8.413 11.5711 8.413 11.9968C8.413 12.4225 8.75812 12.7676 9.18385 12.7676H18.4344C18.8601 12.7676 19.2053 12.4225 19.2053 11.9968C19.2053 11.5711 18.8601 11.2259 18.4344 11.2259H9.18385Z" fill="#16191D"/>
<path d="M8.413 16.6219C8.413 16.1961 8.75812 15.851 9.18385 15.851H18.4344C18.8601 15.851 19.2053 16.1961 19.2053 16.6219C19.2053 17.0476 18.8601 17.3927 18.4344 17.3927H9.18385C8.75812 17.3927 8.413 17.0476 8.413 16.6219Z" fill="#16191D"/>
<path d="M5.84314 17.6497C6.41077 17.6497 6.87093 17.1895 6.87093 16.6219C6.87093 16.0542 6.41077 15.5941 5.84314 15.5941C5.2755 15.5941 4.81534 16.0542 4.81534 16.6219C4.81534 17.1895 5.2755 17.6497 5.84314 17.6497Z" fill="#16191D"/>
<path d="M7.69292 6.54001C7.86866 6.71574 7.86866 7.00067 7.69292 7.1764L6.20361 8.66571C6.03536 8.83396 5.77834 8.87567 5.56552 8.76926L4.60399 8.28849C4.3817 8.17735 4.29159 7.90704 4.40274 7.68475C4.51388 7.46246 4.78419 7.37236 5.00648 7.48351L5.74417 7.85235L7.05652 6.54001C7.23226 6.36427 7.51718 6.36427 7.69292 6.54001ZM7.69292 11.165C7.86866 11.3407 7.86866 11.6256 7.69292 11.8014L6.20361 13.2907C6.03536 13.4589 5.77834 13.5006 5.56552 13.3942L4.60399 12.9134C4.3817 12.8023 4.29159 12.532 4.40274 12.3097C4.51388 12.0874 4.78419 11.9973 5.00648 12.1085L5.74417 12.4773L7.05652 11.165C7.23226 10.9892 7.51718 10.9892 7.69292 11.165Z" fill="#16191D"/>
</svg>
