<svg xmlns="http://www.w3.org/2000/svg" width="24" height="24" viewBox="0 0 24 24" fill="none">
  <path d="M19.8446 5.06953C19.7039 4.92889 19.4918 4.84985 19.2928 4.84993C19.2466 4.84965 19.1275 4.84846 18.9572 4.84339C18.7297 4.83661 18.4124 4.82296 18.0548 4.79556C17.3216 4.73939 16.4853 4.62991 15.8961 4.43193C15.2072 4.20042 14.3673 3.68347 13.6624 3.18601C13.5037 3.07406 13.3552 2.96546 13.2205 2.86462C13.0634 2.74692 12.9251 2.63981 12.8119 2.55035C12.4303 2.24874 11.9688 1.8989 11.4954 2.30062C11.4954 2.30062 11.3454 2.42601 11.1881 2.55035C10.9779 2.71645 10.6815 2.94339 10.3376 3.18601C9.63272 3.68347 8.7928 4.20042 8.10387 4.43193C7.51471 4.62991 6.67841 4.73939 5.94523 4.79556C5.58757 4.82296 5.27031 4.83661 5.04279 4.84339C4.92922 4.84677 4.83851 4.84843 4.77688 4.84924C4.74607 4.84964 4.72257 4.84984 4.70715 4.84993L4.6902 4.85001L4.68582 4.85001C4.48689 4.84994 4.29608 4.9289 4.15537 5.06953C4.01462 5.21019 3.93555 5.40103 3.93555 5.60001V12.0002C3.93555 15.0779 5.97547 17.5541 7.8489 19.1933C8.80136 20.0267 9.75029 20.6787 10.4596 21.1221C10.8151 21.3442 11.1123 21.5152 11.3225 21.6315C11.4276 21.6897 11.511 21.7343 11.5692 21.7649C11.5983 21.7801 11.6211 21.7919 11.6372 21.8001L11.6561 21.8098L11.6617 21.8126L11.6641 21.8138C11.6641 21.8138 11.6714 21.8138 11.6845 21.8138C11.797 21.8138 12.3365 21.8135 12.3365 21.8135L12.3383 21.8126L12.3439 21.8098L12.3628 21.8001C12.3789 21.7919 12.4017 21.7801 12.4308 21.7649C12.489 21.7343 12.5724 21.6897 12.6775 21.6315C12.8877 21.5152 13.1849 21.3442 13.5404 21.1221C14.2497 20.6787 15.1986 20.0267 16.1511 19.1933C18.0245 17.5541 20.0645 15.0779 20.0645 12.0002V5.60001C20.0645 5.40103 19.9854 5.21019 19.8446 5.06953ZM12 3.81986C12.2135 3.9861 12.4872 4.19259 12.7975 4.41158C13.522 4.92288 14.5107 5.54881 15.4183 5.85379C16.1935 6.1143 17.1859 6.23339 17.9402 6.29118C18.1673 6.30857 18.3789 6.32081 18.5645 6.32943V12.0002C18.5645 14.4083 16.9471 16.5036 15.1633 18.0645C14.2872 18.8311 13.4075 19.4362 12.7454 19.8501C12.4425 20.0394 12.1868 20.1876 12 20.292C11.8132 20.1876 11.5575 20.0394 11.2546 19.8501C10.5925 19.4362 9.7128 18.8311 8.83665 18.0645C7.05285 16.5036 5.43555 14.4083 5.43555 12.0002V6.32943C5.62115 6.32081 5.83272 6.30857 6.05981 6.29118C6.81414 6.23339 7.80646 6.1143 8.58167 5.85379C9.48926 5.54881 10.478 4.92288 11.2025 4.41158C11.5128 4.19259 11.7865 3.9861 12 3.81986Z" fill="#16191D"/>
  <path d="M16.0636 10.1057C16.3575 9.81388 16.3592 9.33901 16.0673 9.04509C15.7755 8.75118 15.3006 8.74953 15.0067 9.0414L10.689 13.3291L9.06364 11.715C8.76972 11.4231 8.29485 11.4248 8.00298 11.7187C7.71111 12.0126 7.71277 12.4875 8.00668 12.7794L10.1605 14.9182C10.453 15.2087 10.925 15.2087 11.2175 14.9182L16.0636 10.1057Z" fill="#16191D"/>
  <path d="M11.6641 21.8138C11.8753 21.9194 12.1243 21.9196 12.3354 21.814L11.6845 21.8138C11.6714 21.8138 11.6641 21.8138 11.6641 21.8138Z" fill="#16191D"/>
</svg>