<svg width="24" height="24" viewBox="0 0 24 24" fill="none" xmlns="http://www.w3.org/2000/svg">
<path d="M9.75 12C9.75 10.7574 10.7574 9.75 12 9.75C13.2426 9.75 14.25 10.7574 14.25 12C14.25 13.2426 13.2426 14.25 12 14.25C10.7574 14.25 9.75 13.2426 9.75 12Z" fill="#16191D"/>
<path fill-rule="evenodd" clip-rule="evenodd" d="M11.1586 1.98145C10.0604 1.98145 9.1701 2.87174 9.1701 3.96998C9.1701 4.16981 9.0302 4.40392 8.74847 4.52668C8.56274 4.60761 8.38064 4.69524 8.20247 4.78927C7.93073 4.93268 7.66029 4.89564 7.50397 4.77041C6.6465 4.08348 5.39452 4.22173 4.70759 5.0792L3.65502 6.39308C2.96828 7.25031 3.10649 8.50195 3.96372 9.18869C4.11975 9.31368 4.21503 9.56931 4.13469 9.86611C4.07855 10.0735 4.0304 10.2841 3.99058 10.4976C3.93424 10.7997 3.73725 10.9886 3.54201 11.0333C2.471 11.2784 1.80152 12.3454 2.0467 13.4164L2.42205 15.0561C2.66732 16.1275 3.73471 16.7973 4.80613 16.552C5.00153 16.5073 5.26108 16.5915 5.44349 16.8384C5.57517 17.0166 5.71392 17.1892 5.85932 17.3558C6.06124 17.5871 6.08757 17.8591 6.00145 18.0406C5.53008 19.0339 5.95322 20.2213 6.94655 20.6927L8.46427 21.4129C9.45765 21.8843 10.6451 21.4611 11.1165 20.4677C11.2026 20.2862 11.4298 20.1346 11.7364 20.1444C11.8242 20.1472 11.9123 20.1486 12.0007 20.1486C12.0892 20.1486 12.1774 20.1472 12.2653 20.1444C12.5719 20.1346 12.7991 20.2862 12.8852 20.4677C13.3566 21.4611 14.544 21.8843 15.5374 21.4129L17.0551 20.6927C18.0484 20.2213 18.4716 19.0339 18.0002 18.0405C17.9141 17.859 17.9404 17.587 18.1423 17.3556C18.2877 17.189 18.4264 17.0165 18.558 16.8384C18.7404 16.5915 19 16.5072 19.1955 16.552C20.2669 16.7973 21.3344 16.1275 21.5797 15.056L21.955 13.4166C22.2002 12.3455 21.5306 11.2784 20.4596 11.0332C20.2643 10.9885 20.0672 10.7996 20.0109 10.4974C19.9711 10.284 19.9229 10.0734 19.8668 9.86607C19.7865 9.56928 19.8817 9.31366 20.0378 9.18867C20.895 8.50194 21.0332 7.25032 20.3464 6.3931L19.2939 5.07919C18.6069 4.22172 17.3549 4.08347 16.4975 4.7704C16.3412 4.89563 16.0707 4.93266 15.799 4.78926C15.621 4.69531 15.439 4.60774 15.2534 4.52687C14.9717 4.40408 14.8318 4.16994 14.8318 3.97007C14.8318 2.87178 13.9414 1.98145 12.8432 1.98145H11.1586ZM12 8.25C9.92893 8.25 8.25 9.92893 8.25 12C8.25 14.0711 9.92893 15.75 12 15.75C14.0711 15.75 15.75 14.0711 15.75 12C15.75 9.92893 14.0711 8.25 12 8.25Z" fill="#16191D"/>
</svg>
