<svg width="24" height="24" viewBox="0 0 24 24" fill="none" xmlns="http://www.w3.org/2000/svg">
<path d="M7.01562 6.97949C7.01562 4.22751 9.24655 1.99658 11.9985 1.99658C14.7505 1.99658 16.9814 4.22751 16.9814 6.97949C16.9814 9.47604 15.1454 11.5438 12.75 11.9061V17.4939C12.75 17.9081 12.4142 18.2439 12 18.2439C11.5858 18.2439 11.25 17.9081 11.25 17.4939V11.9066C8.85313 11.5455 7.01562 9.47706 7.01562 6.97949Z" fill="#16191D"/>
<path d="M7.34747 13.3335C7.47648 13.7271 7.26198 14.1508 6.86837 14.2798C5.75747 14.6439 4.88982 15.1091 4.3146 15.6105C3.73903 16.1122 3.51562 16.5923 3.51562 17.0129C3.51562 17.7103 4.16481 18.5827 5.78231 19.3243C7.33438 20.0359 9.53124 20.4958 11.998 20.4958C14.4649 20.4958 16.6617 20.0359 18.2138 19.3243C19.8313 18.5827 20.4805 17.7103 20.4805 17.0129C20.4805 16.5923 20.2571 16.1122 19.6815 15.6105C19.1063 15.1091 18.2386 14.6439 17.1277 14.2798C16.7341 14.1508 16.5196 13.7271 16.6486 13.3335C16.7776 12.9399 17.2013 12.7254 17.5949 12.8544C18.8264 13.258 19.8933 13.8053 20.6671 14.4797C21.4405 15.1539 21.9805 16.0128 21.9805 17.0129C21.9805 18.6533 20.5629 19.8974 18.8389 20.6878C17.0495 21.5082 14.6302 21.9958 11.998 21.9958C9.36593 21.9958 6.94658 21.5082 5.15716 20.6878C3.43318 19.8974 2.01562 18.6533 2.01562 17.0129C2.01562 16.0128 2.5556 15.1539 3.32902 14.4797C4.10278 13.8053 5.1697 13.258 6.40118 12.8544C6.79479 12.7254 7.21846 12.9399 7.34747 13.3335Z" fill="#16191D"/>
</svg>
