<svg width="24" height="24" viewBox="0 0 24 24" fill="none" xmlns="http://www.w3.org/2000/svg">
<path d="M6.74994 7.5C6.74994 7.08579 7.08573 6.75 7.49994 6.75H16.4999C16.9142 6.75 17.2499 7.08579 17.2499 7.5V16.5C17.2499 16.9142 16.9142 17.25 16.4999 17.25H7.49994C7.08573 17.25 6.74994 16.9142 6.74994 16.5V7.5ZM10.7797 9.25C10.6576 9.24997 10.5251 9.24994 10.4105 9.2593C10.2807 9.2699 10.1093 9.29614 9.93245 9.38624C9.69725 9.50608 9.50602 9.69731 9.38618 9.93251C9.29608 10.1093 9.26984 10.2808 9.25924 10.4105C9.24988 10.5252 9.24991 10.6576 9.24994 10.7798V13.2202C9.24991 13.3424 9.24988 13.4748 9.25924 13.5895C9.26984 13.7192 9.29608 13.8907 9.38618 14.0675C9.50602 14.3027 9.69725 14.4939 9.93245 14.6138C10.1093 14.7039 10.2807 14.7301 10.4105 14.7407C10.5251 14.7501 10.6576 14.75 10.7797 14.75H13.2202C13.3423 14.75 13.4748 14.7501 13.5894 14.7407C13.7192 14.7301 13.8906 14.7039 14.0674 14.6138C14.3026 14.4939 14.4939 14.3027 14.6137 14.0675C14.7038 13.8907 14.73 13.7192 14.7406 13.5895C14.75 13.4748 14.75 13.3424 14.7499 13.2202V10.7798C14.75 10.6576 14.75 10.5252 14.7406 10.4105C14.73 10.2808 14.7038 10.1093 14.6137 9.93251C14.4939 9.69731 14.3026 9.50608 14.0674 9.38624C13.8906 9.29614 13.7192 9.2699 13.5894 9.2593C13.4748 9.24994 13.3423 9.24997 13.2202 9.25L10.7999 9.25L10.7797 9.25Z" fill="#16191D"/>
<path d="M10.4999 2.79688V5.25H13.4999V2.79688C13.4999 2.38266 13.8357 2.04688 14.2499 2.04688C14.6642 2.04688 14.9999 2.38266 14.9999 2.79688V5.25H16.4999C17.7426 5.25 18.7499 6.25736 18.7499 7.5V9H21.2538C21.6681 9 22.0038 9.33579 22.0038 9.75C22.0038 10.1642 21.6681 10.5 21.2538 10.5H18.7499V13.5H21.2538C21.6681 13.5 22.0038 13.8358 22.0038 14.25C22.0038 14.6642 21.6681 15 21.2538 15H18.7499V16.5C18.7499 17.7426 17.7426 18.75 16.4999 18.75H14.9999V21.2031C14.9999 21.6173 14.6642 21.9531 14.2499 21.9531C13.8357 21.9531 13.4999 21.6173 13.4999 21.2031V18.75H10.4999V21.2031C10.4999 21.6173 10.1642 21.9531 9.74994 21.9531C9.33573 21.9531 8.99994 21.6173 8.99994 21.2031V18.75H7.49994C6.2573 18.75 5.24994 17.7426 5.24994 16.5V15H2.8476C2.43338 15 2.0976 14.6642 2.0976 14.25C2.0976 13.8358 2.43338 13.5 2.8476 13.5H5.24994V10.5H2.8476C2.43338 10.5 2.0976 10.1642 2.0976 9.75C2.0976 9.33579 2.43338 9 2.8476 9H5.24994V7.5C5.24994 6.25736 6.2573 5.25 7.49994 5.25H8.99994V2.79688C8.99994 2.38266 9.33573 2.04688 9.74994 2.04688C10.1642 2.04688 10.4999 2.38266 10.4999 2.79688ZM7.49994 6.75C7.08573 6.75 6.74994 7.08579 6.74994 7.5V16.5C6.74994 16.9142 7.08573 17.25 7.49994 17.25H16.4999C16.9142 17.25 17.2499 16.9142 17.2499 16.5V7.5C17.2499 7.08579 16.9142 6.75 16.4999 6.75H7.49994Z" fill="#16191D"/>
<path d="M10.7499 10.8V13.2L10.75 13.25L10.7999 13.25H13.1999L13.2499 13.25L13.2499 13.2V10.8L13.2499 10.75L13.1999 10.75H10.7999L10.75 10.75L10.7499 10.8Z" fill="#16191D"/>
</svg>
