<svg width="24" height="24" viewBox="0 0 24 24" fill="none" xmlns="http://www.w3.org/2000/svg">
<path d="M18.5473 2.66239C19.0577 2.18671 19.9967 2.17418 20.4052 2.94881C20.9572 3.99557 21.902 6.50451 21.8744 11.3707C21.8469 16.2079 20.9376 18.7748 20.4122 19.8563C20.0214 20.6608 19.053 20.6713 18.5258 20.1803C17.7334 19.4424 16.0522 17.9594 14.7007 17.2733C13.9617 16.8981 12.9171 16.5577 12.0236 16.3063C11.7891 16.2403 11.5685 16.1814 11.3711 16.1305V18.3083C11.3711 18.5377 11.3079 18.7628 11.1885 18.9587L9.81436 21.2138C9.40522 21.8852 8.40413 21.7973 8.11818 21.0649L6.09667 15.8874C3.86177 15.6245 2.12793 13.724 2.12793 11.4184C2.12793 8.93314 4.14265 6.91842 6.62793 6.91842H10.5707C10.5746 6.91754 10.5786 6.91663 10.5827 6.9157C10.6595 6.8983 10.7719 6.87234 10.9122 6.83858C11.1931 6.77099 11.5842 6.67249 12.0242 6.54914C12.9177 6.29866 13.9623 5.95938 14.7012 5.58501C16.0655 4.89382 17.7654 3.3911 18.5473 2.66239ZM11.375 8.26982V14.5847C11.6577 14.6541 12.0236 14.748 12.4299 14.8624C13.3401 15.1185 14.503 15.4907 15.3797 15.9357C16.7653 16.6392 18.3533 17.9943 19.2411 18.8003C19.6847 17.7159 20.3514 15.4178 20.3744 11.3622C20.3974 7.31037 19.7177 5.0755 19.2655 4.03989C18.3819 4.84286 16.7772 6.21476 15.3791 6.92308C14.5023 7.3673 13.3393 7.7383 12.4291 7.99346C12.0232 8.10726 11.6576 8.20073 11.375 8.26982ZM9.875 14.4184V8.41842H6.62793C4.97108 8.41842 3.62793 9.76157 3.62793 11.4184C3.62793 13.0753 4.97108 14.4184 6.62793 14.4184H9.875ZM9.87109 15.9184H7.71906L9.11146 19.4847L9.87109 18.2381V15.9184Z" fill="#16191D"/>
</svg>
