<svg width="21" height="21" viewBox="0 0 21 21" fill="none" xmlns="http://www.w3.org/2000/svg">
<g clip-path="url(#clip0_1505_60901)">
<path fill-rule="evenodd" clip-rule="evenodd" d="M3.01862 8.3605L2.41847 8.77359C2.07726 9.00844 1.61028 8.92222 1.37543 8.58102C1.14058 8.23982 1.2268 7.77284 1.568 7.53799L9.68609 1.95031C10.4543 1.42152 11.4692 1.42151 12.2374 1.95029L20.3559 7.53798C20.6971 7.77282 20.7833 8.2398 20.5485 8.58101C20.3136 8.92221 19.8466 9.00844 19.5054 8.77359L18.9676 8.40346L18.9676 17.7611C18.9676 18.7276 18.1841 19.5111 17.2176 19.5111H14.1627C13.2394 19.5111 12.4904 18.7637 12.4885 17.8404L12.4817 14.5427C12.48 13.7206 11.813 13.055 10.9909 13.055C10.1663 13.055 9.49839 13.7243 9.5001 14.5489L9.50694 17.8373C9.50886 18.7611 8.76044 19.5111 7.83656 19.5111H4.76862C3.80213 19.5111 3.01862 18.7276 3.01862 17.7611L3.01862 8.3605ZM10.5366 3.18591C10.7926 3.00965 11.1309 3.00964 11.387 3.1859L17.4676 7.37105L17.4676 17.7611C17.4676 17.8992 17.3557 18.0111 17.2176 18.0111H14.1627C14.0667 18.0111 13.9887 17.9333 13.9885 17.8373L13.9817 14.5396C13.9782 12.8902 12.6402 11.555 10.9909 11.555C9.33669 11.555 7.99667 12.8978 8.00011 14.552L8.00694 17.8404C8.00714 17.9346 7.9308 18.0111 7.83656 18.0111H4.76863C4.63055 18.0111 4.51862 17.8992 4.51862 17.7611L4.51862 7.32805L10.5366 3.18591Z" fill="#576175"/>
</g>
<defs>
<clipPath id="clip0_1505_60901">
<rect width="20" height="20" fill="white" transform="translate(20.9932 0.541016) rotate(90)"/>
</clipPath>
</defs>
</svg>
