<svg width="24" height="24" viewBox="0 0 24 24" fill="none" xmlns="http://www.w3.org/2000/svg">
<path fill-rule="evenodd" clip-rule="evenodd" d="M19.8466 5.0692C19.7059 4.92856 19.515 4.8496 19.3161 4.84968C18.8959 4.84892 18.4756 4.82732 18.0567 4.79523C17.3235 4.73906 16.4872 4.62957 15.8981 4.43159C15.2092 4.20009 14.3692 3.68313 13.6643 3.18568C13.0631 2.76143 12.6044 2.38297 12.5065 2.30111C12.0203 1.89278 11.5849 2.23795 11.19 2.55002C10.9798 2.71612 10.6834 2.94306 10.3396 3.18568C9.63467 3.68313 8.79475 4.20009 8.10583 4.43159C7.51666 4.62957 6.68037 4.73906 5.94718 4.79523C5.58952 4.82263 5.27227 4.83628 5.04474 4.84306C4.93117 4.84644 4.84046 4.8481 4.77883 4.84891C4.74803 4.84931 4.72453 4.8495 4.70911 4.8496L4.69215 4.84967L4.68777 4.84968C4.48884 4.84961 4.29803 4.92857 4.15732 5.0692C4.01658 5.20986 3.9375 5.40069 3.9375 5.59968V11.9998C3.9375 15.0776 5.97742 17.5537 7.85085 19.193C9.51935 20.6529 11.1645 21.551 11.5712 21.7645C11.6 21.7797 11.629 21.7946 11.6581 21.8094L11.6636 21.8123L11.6661 21.8135L12.002 21.1429L12.3385 21.8132L12.3403 21.8123C12.3712 21.7966 12.402 21.7806 12.4327 21.7645C12.8394 21.551 14.4846 20.6529 16.1531 19.193C18.0265 17.5537 20.0664 15.0776 20.0664 11.9998V5.59968C20.0664 5.40069 19.9873 5.20986 19.8466 5.0692ZM12.002 3.81952C11.7884 3.98577 11.5148 4.19226 11.2045 4.41124C10.4799 4.92255 9.49122 5.54847 8.58363 5.85346C7.80841 6.11396 6.8161 6.23306 6.06176 6.29084C5.83467 6.30824 5.6231 6.32048 5.4375 6.3291V11.9998C5.4375 14.4079 7.0548 16.5033 8.8386 18.0641C10.1156 19.1814 11.4069 19.9592 12.0019 20.2916C12.597 19.9592 13.8884 19.1814 15.1653 18.0641C16.9491 16.5033 18.5664 14.4079 18.5664 11.9998V6.3291C18.3808 6.32048 18.1692 6.30824 17.9421 6.29084C17.1878 6.23306 16.1955 6.11396 15.4203 5.85346C14.5127 5.54847 13.524 4.92255 12.7994 4.41124C12.4891 4.19226 12.2155 3.98577 12.002 3.81952Z" fill="#16191D"/>
<path fill-rule="evenodd" clip-rule="evenodd" d="M11.6661 21.8135L12.002 21.1429L12.3374 21.8137C12.1262 21.9193 11.8772 21.919 11.6661 21.8135Z" fill="#16191D"/>
<path d="M11.2045 4.41124C11.5148 4.19226 11.7884 3.98577 12.002 3.81952C12.2155 3.98577 12.4891 4.19226 12.7994 4.41124C13.524 4.92255 14.5127 5.54847 15.4203 5.85346C16.1955 6.11396 17.1878 6.23306 17.9421 6.29084C18.1692 6.30824 18.3808 6.32048 18.5664 6.3291V11.9998C18.5664 14.4079 16.9491 16.5033 15.1653 18.0641C13.8884 19.1814 12.597 19.9592 12.0019 20.2916C11.4069 19.9592 10.1156 19.1814 8.8386 18.0641C7.0548 16.5033 5.4375 14.4079 5.4375 11.9998V6.3291C5.6231 6.32048 5.83467 6.30824 6.06176 6.29084C6.8161 6.23306 7.80841 6.11396 8.58363 5.85346C9.49122 5.54847 10.4799 4.92255 11.2045 4.41124Z" fill="#16191D"/>
</svg>
