<svg width="24" height="24" viewBox="0 0 24 24" fill="none" xmlns="http://www.w3.org/2000/svg">
<path d="M12 2C6.47715 2 2 6.47715 2 12C2 17.5228 6.47715 22 12 22C17.5228 22 22 17.5228 22 12C22 6.47715 17.5228 2 12 2ZM16.5303 9.78033L11.0303 15.2803C10.7374 15.5732 10.2626 15.5732 9.96967 15.2803L7.46967 12.7803C7.17678 12.4874 7.17678 12.0126 7.46967 11.7197C7.76256 11.4268 8.23744 11.4268 8.53033 11.7197L10.5 13.6893L15.4697 8.71967C15.7626 8.42678 16.2374 8.42678 16.5303 8.71967C16.8232 9.01256 16.8232 9.48744 16.5303 9.78033Z" fill="#16191D"/>
</svg>
