<svg width="24" height="24" viewBox="0 0 24 24" fill="none" xmlns="http://www.w3.org/2000/svg">
<path fill-rule="evenodd" clip-rule="evenodd" d="M19.8466 5.0692C19.7059 4.92856 19.515 4.8496 19.3161 4.84968C18.8959 4.84892 18.4756 4.82732 18.0567 4.79523C17.3235 4.73906 16.4872 4.62957 15.8981 4.43159C15.2092 4.20009 14.3692 3.68313 13.6643 3.18568C13.0631 2.76143 12.6044 2.38297 12.5065 2.30111C12.021 1.89334 11.5861 2.237 11.1917 2.54873L11.19 2.55002C10.9798 2.71612 10.6834 2.94306 10.3396 3.18568C9.63467 3.68313 8.79475 4.20009 8.10583 4.43159C7.51666 4.62957 6.68037 4.73906 5.94718 4.79523C5.58952 4.82263 5.27227 4.83628 5.04474 4.84306C4.93117 4.84644 4.84046 4.8481 4.77883 4.84891C4.74803 4.84931 4.72453 4.8495 4.70911 4.8496L4.69215 4.84967L4.68777 4.84968C4.48884 4.84961 4.29803 4.92857 4.15732 5.0692C4.01658 5.20986 3.9375 5.40069 3.9375 5.59968V11.9998C3.9375 15.0776 5.97742 17.5537 7.85085 19.193C9.51935 20.6529 11.1645 21.551 11.5712 21.7645C11.6 21.7797 11.629 21.7946 11.6581 21.8094L11.6636 21.8123L11.6661 21.8135C11.8772 21.919 12.1262 21.9193 12.3374 21.8137L12.002 21.1429L12.3385 21.8132L12.3403 21.8123C12.3712 21.7966 12.402 21.7806 12.4327 21.7645C12.8394 21.551 14.4846 20.6529 16.1531 19.193C18.0265 17.5537 20.0664 15.0776 20.0664 11.9998V5.59968C20.0664 5.40069 19.9873 5.20986 19.8466 5.0692ZM9.94439 8.8852C9.6515 8.5923 9.17663 8.5923 8.88373 8.8852C8.59084 9.17809 8.59084 9.65296 8.88373 9.94586L10.9374 11.9995L8.88373 14.0532C8.59084 14.3461 8.59084 14.8209 8.88373 15.1138C9.17663 15.4067 9.6515 15.4067 9.94439 15.1138L11.998 13.0602L14.0517 15.1138C14.3446 15.4067 14.8195 15.4067 15.1124 15.1138C15.4053 14.8209 15.4053 14.3461 15.1124 14.0532L13.0587 11.9995L15.1124 9.94586C15.4053 9.65296 15.4053 9.17809 15.1124 8.8852C14.8195 8.5923 14.3446 8.5923 14.0517 8.8852L11.998 10.9389L9.94439 8.8852Z" fill="#16191D"/>
</svg>
