<svg width="24" height="24" viewBox="0 0 24 24" fill="none" xmlns="http://www.w3.org/2000/svg">
<path d="M11.3724 16.1296C11.5697 16.1805 11.7902 16.2394 12.0245 16.3053C12.9181 16.5568 13.9627 16.8972 14.7016 17.2723C16.0532 17.9584 17.7344 19.4414 18.5268 20.1794C19.054 20.6703 20.0223 20.6598 20.4132 19.8553C20.9386 18.7738 21.8479 16.2069 21.8754 11.3697C21.903 6.50354 20.9582 3.9946 20.4062 2.94783C19.9976 2.17321 19.0587 2.18573 18.5483 2.66141C17.7664 3.39012 16.0665 4.89284 14.7022 5.58403C13.9632 5.9584 12.9187 6.29769 12.0252 6.54817C11.5852 6.67152 11.194 6.77002 10.9132 6.83761C10.7729 6.87137 10.6605 6.89732 10.5837 6.91472L10.5693 6.91797H6.62891C4.14362 6.91797 2.12891 8.93269 2.12891 11.418C2.12891 13.7236 3.86291 15.6243 6.09797 15.887L8.11946 21.0645C8.40542 21.7969 9.40651 21.8847 9.81565 21.2133L11.1898 18.9583C11.3092 18.7623 11.3724 18.5373 11.3724 18.3078V16.1296ZM9.87598 14.418H6.62891C4.97205 14.418 3.62891 13.0748 3.62891 11.418C3.62891 9.76111 4.97205 8.41797 6.62891 8.41797H9.87598L9.87598 14.418Z" fill="#16191D"/>
</svg>
