<svg width="24" height="24" viewBox="0 0 24 24" fill="none" xmlns="http://www.w3.org/2000/svg">
<path d="M19.8466 5.06968C19.7059 4.92905 19.515 4.85008 19.3161 4.85017C18.8959 4.84941 18.4756 4.8278 18.0567 4.79571C17.3235 4.73955 16.4872 4.63006 15.8981 4.43208C15.2092 4.20058 14.3692 3.68362 13.6643 3.18616C13.0631 2.76192 12.6044 2.38346 12.5065 2.3016C12.0203 1.89326 11.5849 2.23844 11.19 2.55051C10.9798 2.71661 10.6834 2.94355 10.3396 3.18616C9.63467 3.68362 8.79475 4.20058 8.10583 4.43208C7.51666 4.63006 6.68037 4.73955 5.94718 4.79571C5.58952 4.82311 5.27227 4.83677 5.04474 4.84354C4.93117 4.84693 4.84046 4.84858 4.77883 4.84939C4.74803 4.8498 4.72453 4.84999 4.70911 4.85008L4.69215 4.85016L4.68777 4.85017C4.48884 4.8501 4.29803 4.92906 4.15732 5.06968C4.01658 5.21035 3.9375 5.40118 3.9375 5.60017V12.0003C3.9375 15.0781 5.97742 17.5542 7.85085 19.1935C9.51935 20.6534 11.1645 21.5515 11.5712 21.765C11.6 21.7802 11.629 21.7951 11.6581 21.8099L11.6636 21.8127L11.6661 21.814L12.002 21.1434L12.3385 21.8136L12.3403 21.8127C12.3712 21.7971 12.402 21.7811 12.4327 21.765C12.8394 21.5515 14.4846 20.6534 16.1531 19.1935C18.0265 17.5542 20.0664 15.0781 20.0664 12.0003V5.60017C20.0664 5.40118 19.9873 5.21035 19.8466 5.06968ZM12.002 3.82001C11.7884 3.98625 11.5148 4.19275 11.2045 4.41173C10.4799 4.92304 9.49122 5.54896 8.58363 5.85395C7.80841 6.11445 6.8161 6.23354 6.06176 6.29133C5.83467 6.30873 5.6231 6.32097 5.4375 6.32958V12.0003C5.4375 14.4084 7.0548 16.5038 8.8386 18.0646C10.1156 19.1819 11.4069 19.9597 12.0019 20.2921C12.597 19.9597 13.8884 19.1819 15.1653 18.0646C16.9491 16.5038 18.5664 14.4084 18.5664 12.0003V6.32958C18.3808 6.32097 18.1692 6.30873 17.9421 6.29133C17.1878 6.23354 16.1955 6.11445 15.4203 5.85395C14.5127 5.54896 13.524 4.92304 12.7994 4.41173C12.4891 4.19275 12.2155 3.98625 12.002 3.82001Z" fill="#16191D"/>
<path fill-rule="evenodd" clip-rule="evenodd" d="M11.6661 21.814L12.002 21.1434L12.3374 21.8142C12.1262 21.9198 11.8772 21.9195 11.6661 21.814Z" fill="#16191D"/>
<path d="M11.2045 4.41173C11.5148 4.19275 11.7884 3.98625 12.002 3.82001C12.2155 3.98625 12.4891 4.19275 12.7994 4.41173C13.524 4.92304 14.5127 5.54896 15.4203 5.85395C16.1955 6.11445 17.1878 6.23354 17.9421 6.29133C18.1692 6.30873 18.3808 6.32097 18.5664 6.32958V12.0003C18.5664 14.4084 16.9491 16.5038 15.1653 18.0646C13.8884 19.1819 12.597 19.9597 12.0019 20.2921C11.4069 19.9597 10.1156 19.1819 8.8386 18.0646C7.0548 16.5038 5.4375 14.4084 5.4375 12.0003V6.32958C5.6231 6.32097 5.83467 6.30873 6.06176 6.29133C6.8161 6.23354 7.80841 6.11445 8.58363 5.85395C9.49122 5.54896 10.4799 4.92304 11.2045 4.41173Z" fill="#16191D"/>
</svg>
