<svg width="24" height="24" viewBox="0 0 24 24" fill="none" xmlns="http://www.w3.org/2000/svg">
<path d="M9 21.2462C9 20.8319 9.33579 20.4962 9.75 20.4962H14.25C14.6642 20.4962 15 20.8319 15 21.2462C15 21.6604 14.6642 21.9962 14.25 21.9962H9.75C9.33579 21.9962 9 21.6604 9 21.2462Z" fill="#16191D"/>
<path d="M12 2.00635C8.27208 2.00635 5.25 5.02843 5.25 8.75635C5.25 10.7272 6.09562 12.5016 7.44154 13.7346C7.94579 14.1966 8.23907 14.7284 8.23907 15.2419V15.9964C8.23907 17.6533 9.58222 18.9964 11.2391 18.9964H12.7613C14.4182 18.9964 15.7613 17.6533 15.7613 15.9964V15.2416C15.7613 14.728 16.0546 14.1963 16.5587 13.7344C17.9045 12.5014 18.75 10.7271 18.75 8.75635C18.75 5.02843 15.7279 2.00635 12 2.00635ZM9.87604 9.65681C10.1058 9.31216 10.5715 9.21903 10.9161 9.4488L12.0001 10.1714L13.0841 9.4488C13.4287 9.21903 13.8944 9.31216 14.1241 9.65681C14.3539 10.0015 14.2608 10.4671 13.9161 10.6969L12.7501 11.4742L12.7501 16.7515C12.7501 17.1658 12.4143 17.5015 12.0001 17.5015C11.5859 17.5015 11.2501 17.1658 11.2501 16.7515L11.2501 11.4742L10.0841 10.6969C9.73941 10.4671 9.64628 10.0015 9.87604 9.65681Z" fill="#16191D"/>
</svg>
