<svg width="21" height="21" viewBox="0 0 21 21" fill="none" xmlns="http://www.w3.org/2000/svg">
<path d="M7.74384 7.54138C8.57209 7.54138 9.24353 6.86995 9.24353 6.04169C9.24353 5.21343 8.57209 4.54199 7.74384 4.54199C6.91558 4.54199 6.24414 5.21343 6.24414 6.04169C6.24414 6.86995 6.91558 7.54138 7.74384 7.54138Z" fill="#576175"/>
<path d="M7.74384 12.0404C8.57209 12.0404 9.24353 11.369 9.24353 10.5407C9.24353 9.71245 8.57209 9.04102 7.74384 9.04102C6.91558 9.04102 6.24414 9.71245 6.24414 10.5407C6.24414 11.369 6.91558 12.0404 7.74384 12.0404Z" fill="#576175"/>
<path d="M9.24353 15.0407C9.24353 15.869 8.57209 16.5404 7.74384 16.5404C6.91558 16.5404 6.24414 15.869 6.24414 15.0407C6.24414 14.2125 6.91558 13.541 7.74384 13.541C8.57209 13.541 9.24353 14.2125 9.24353 15.0407Z" fill="#576175"/>
<path d="M12.2433 12.0404C13.0716 12.0404 13.743 11.369 13.743 10.5407C13.743 9.71245 13.0716 9.04102 12.2433 9.04102C11.4151 9.04102 10.7437 9.71245 10.7437 10.5407C10.7437 11.369 11.4151 12.0404 12.2433 12.0404Z" fill="#576175"/>
<path d="M13.743 6.04169C13.743 6.86995 13.0716 7.54138 12.2433 7.54138C11.4151 7.54138 10.7437 6.86995 10.7437 6.04169C10.7437 5.21343 11.4151 4.54199 12.2433 4.54199C13.0716 4.54199 13.743 5.21343 13.743 6.04169Z" fill="#576175"/>
<path d="M12.2433 16.5404C13.0716 16.5404 13.743 15.869 13.743 15.0407C13.743 14.2125 13.0716 13.541 12.2433 13.541C11.4151 13.541 10.7437 14.2125 10.7437 15.0407C10.7437 15.869 11.4151 16.5404 12.2433 16.5404Z" fill="#576175"/>
</svg>
