<svg width="21" height="21" viewBox="0 0 21 21" fill="none" xmlns="http://www.w3.org/2000/svg">
<path fill-rule="evenodd" clip-rule="evenodd" d="M10.9932 3.79102C11.4074 3.79102 11.7432 4.1268 11.7432 4.54102V9.79102H16.9932C17.4074 9.79102 17.7432 10.1268 17.7432 10.541C17.7432 10.9552 17.4074 11.291 16.9932 11.291H11.7432V16.541C11.7432 16.9552 11.4074 17.291 10.9932 17.291C10.579 17.291 10.2432 16.9552 10.2432 16.541V11.291H4.99316C4.57895 11.291 4.24316 10.9552 4.24316 10.541C4.24316 10.1268 4.57895 9.79102 4.99316 9.79102H10.2432V4.54102C10.2432 4.1268 10.579 3.79102 10.9932 3.79102Z" fill="#576175"/>
</svg>
