<svg width="24" height="24" viewBox="0 0 24 24" fill="none" xmlns="http://www.w3.org/2000/svg">
<path fill-rule="evenodd" clip-rule="evenodd" d="M7 3.06201C5.75736 3.06201 4.75 4.06937 4.75 5.31201V18.6865C4.75 19.9291 5.75736 20.9365 7 20.9365H17C18.2426 20.9365 19.25 19.9291 19.25 18.6865V5.31201C19.25 4.06937 18.2426 3.06201 17 3.06201H7ZM9 6.5542C8.58579 6.5542 8.25 6.88999 8.25 7.3042C8.25 7.71841 8.58579 8.0542 9 8.0542L14.998 8.0542C15.4123 8.0542 15.748 7.71841 15.748 7.3042C15.748 6.88999 15.4123 6.5542 14.998 6.5542H9ZM9.00391 9.55908C8.58969 9.55908 8.25391 9.89487 8.25391 10.3091C8.25391 10.7233 8.58969 11.0591 9.00391 11.0591L12.0749 11.0591C12.4892 11.0591 12.8249 10.7233 12.8249 10.3091C12.8249 9.89487 12.4892 9.55908 12.0749 9.55908L9.00391 9.55908ZM15.5318 13.2992C15.8237 13.5931 15.822 14.0679 15.5281 14.3598L12.6374 17.2304C12.345 17.5209 11.873 17.5209 11.5805 17.2304L10.2957 15.9546C10.0018 15.6627 10.0002 15.1879 10.292 14.8939C10.5839 14.6 11.0588 14.5984 11.3527 14.8902L12.109 15.6413L14.4712 13.2955C14.7651 13.0036 15.2399 13.0052 15.5318 13.2992Z" fill="#16191D"/>
</svg>
