<svg width="24" height="24" viewBox="0 0 24 24" fill="none" xmlns="http://www.w3.org/2000/svg">
<path fill-rule="evenodd" clip-rule="evenodd" d="M11.1828 20.705C11.5965 21.7351 12.8742 21.8404 13.553 21.1326C13.6392 21.0427 13.7138 20.9423 13.7749 20.8338L17.3177 14.5495C17.3821 14.4739 17.432 14.3857 17.4631 14.289H19.6443C20.8869 14.289 21.8943 13.2816 21.8943 12.039V4.66384C21.8943 3.4212 20.8869 2.41384 19.6443 2.41384H15.2848C15.2731 2.41366 15.2614 2.41357 15.2497 2.41357H7.18437C5.38531 2.41357 3.83974 3.69121 3.50131 5.45816L2.22056 12.1451C1.95488 13.5322 3.01803 14.8183 4.4304 14.8183H10.6368C10.2417 16.7982 10.4351 18.8437 11.1828 20.705ZM17.3718 3.91384C17.4546 4.14835 17.4997 4.4007 17.4997 4.66357V12.789H19.6443C20.0585 12.789 20.3943 12.4532 20.3943 12.039V4.66384C20.3943 4.24963 20.0585 3.91384 19.6443 3.91384H17.3718Z" fill="#16191D"/>
</svg>
