<svg width="24" height="24" viewBox="0 0 24 24" fill="none" xmlns="http://www.w3.org/2000/svg">
<path d="M16.2422 2.0127C14.1711 2.0127 12.4922 3.69163 12.4922 5.7627C12.4922 6.16782 12.5564 6.55795 12.6753 6.92344L8.4309 9.37393C7.75038 8.6803 6.80239 8.25 5.75391 8.25C3.68284 8.25 2.00391 9.92893 2.00391 12C2.00391 14.0711 3.68284 15.75 5.75391 15.75C6.73859 15.75 7.63464 15.3705 8.30374 14.7497L12.6084 17.235C12.5325 17.5324 12.4922 17.844 12.4922 18.165C12.4922 20.2361 14.1711 21.915 16.2422 21.915C18.3133 21.915 19.9922 20.2361 19.9922 18.165C19.9922 16.094 18.3133 14.415 16.2422 14.415C15.0298 14.415 13.9519 14.9903 13.2664 15.8828L9.18117 13.5243C9.38861 13.0585 9.50391 12.5427 9.50391 12C9.50391 11.5182 9.41305 11.0576 9.24754 10.6345L13.4162 8.22774C14.1036 9.01519 15.1148 9.5127 16.2422 9.5127C18.3133 9.5127 19.9922 7.83376 19.9922 5.7627C19.9922 3.69163 18.3133 2.0127 16.2422 2.0127Z" fill="#16191D"/>
</svg>
