<svg width="24" height="24" viewBox="0 0 24 24" fill="none" xmlns="http://www.w3.org/2000/svg">
<path d="M17.7282 8.33621C17.6148 7.03449 17.0676 5.85703 16.232 4.94914L17.6127 3.56842C17.9056 3.27552 17.9056 2.80065 17.6127 2.50776C17.3199 2.21486 16.845 2.21486 16.5521 2.50776L15.0766 3.98328C14.1869 3.41881 13.1317 3.09194 12.0001 3.09194C10.9107 3.09194 9.89211 3.39489 9.02389 3.92114L7.61065 2.5079C7.31776 2.215 6.84288 2.215 6.54999 2.5079C6.2571 2.80079 6.2571 3.27566 6.54999 3.56856L7.84684 4.86541C6.96703 5.78408 6.38901 6.9941 6.27206 8.33621H5.26356C4.9938 8.33621 4.74482 8.19133 4.61152 7.9568L3.90608 6.71561C3.7014 6.3555 3.24355 6.22949 2.88344 6.43417C2.52333 6.63884 2.39732 7.09669 2.60199 7.4568L3.30744 8.69799C3.70733 9.40158 4.45427 9.83621 5.26356 9.83621H6.0098C4.96234 11.1468 4.33607 12.8087 4.33607 14.6169C4.33607 15.6543 4.5422 16.6434 4.91564 17.5456L3.19843 19.2628C2.90554 19.5557 2.90554 20.0305 3.19843 20.3234C3.49132 20.6163 3.9662 20.6163 4.25909 20.3234L5.65954 18.923C6.4723 20.1171 7.61348 21.0695 8.95256 21.6502L9.58117 21.9229L9.90935 21.3214C10.0471 21.069 10.1804 20.8139 10.3092 20.5561C11.462 20.8839 12.6858 20.8694 13.8304 20.5144C13.9555 20.7659 14.0848 21.0149 14.2184 21.2613L14.5527 21.8782L15.1904 21.5857C16.467 21.0002 17.5554 20.0739 18.3388 18.923L19.739 20.3232C20.0319 20.6161 20.5068 20.6161 20.7996 20.3232C21.0925 20.0303 21.0925 19.5554 20.7996 19.2625L19.0827 17.5456C19.4561 16.6434 19.6622 15.6543 19.6622 14.6169C19.6622 12.8087 19.036 11.1468 17.9885 9.83621H18.7367C19.546 9.83621 20.2929 9.40158 20.6928 8.69799L21.3983 7.4568C21.6029 7.09669 21.4769 6.63884 21.1168 6.43417C20.7567 6.22949 20.2989 6.3555 20.0942 6.71561L19.3887 7.9568C19.2554 8.19133 19.0065 8.33621 18.7367 8.33621H17.7282ZM13.1985 19.1356C12.462 19.3307 11.6888 19.3431 10.9467 19.1718C11.4039 18.0894 11.784 16.9666 12.0802 15.8103C12.3731 16.9538 12.7481 18.0644 13.1985 19.1356ZM12.0001 4.59194C14.1323 4.59194 15.8977 6.162 16.2033 8.20903C15.1726 7.5314 13.9685 7.09576 12.6719 6.98295L12.6691 6.95237L12.0889 6.9536L11.4925 6.93862L11.4896 6.97048C10.1318 7.05962 8.87059 7.5024 7.79715 8.20758C8.1034 6.16126 9.8685 4.59194 12.0001 4.59194Z" fill="#16191D"/>
</svg>
