<svg width="24" height="24" viewBox="0 0 24 24" fill="none" xmlns="http://www.w3.org/2000/svg">
<path d="M12.7459 3.7583L12.7458 13.4628L15.4655 10.7431C15.7584 10.4502 16.2333 10.4502 16.5262 10.7431C16.8191 11.036 16.8191 11.5109 16.5262 11.8038L12.5262 15.8038C12.2333 16.0967 11.7584 16.0967 11.4655 15.8038L7.46552 11.8038C7.17263 11.5109 7.17263 11.036 7.46552 10.7431C7.75841 10.4502 8.23329 10.4502 8.52618 10.7431L11.2458 13.4628L11.2459 3.7583C11.2459 3.34409 11.5816 3.0083 11.9959 3.0083C12.4101 3.0083 12.7459 3.34409 12.7459 3.7583Z" fill="#16191D"/>
<path d="M5.24927 19.4951C4.83505 19.4951 4.49927 19.1593 4.49927 18.7451L4.49927 14.2451C4.49927 13.8309 4.16348 13.4951 3.74927 13.4951C3.33505 13.4951 2.99927 13.8309 2.99927 14.2451V18.7451C2.99927 19.9878 4.00663 20.9951 5.24927 20.9951H18.7458C19.9885 20.9951 20.9958 19.9878 20.9958 18.7451V14.2451C20.9958 13.8309 20.6601 13.4951 20.2458 13.4951C19.8316 13.4951 19.4958 13.8309 19.4958 14.2451V18.7451C19.4958 19.1593 19.1601 19.4951 18.7458 19.4951H5.24927Z" fill="#16191D"/>
</svg>
