<svg width="24" height="24" viewBox="0 0 24 24" fill="none" xmlns="http://www.w3.org/2000/svg">
<path d="M6.33918 6.34906C6.47989 6.20835 6.67076 6.12933 6.86976 6.12939L13.9432 6.13174C14.3574 6.13188 14.6931 6.46778 14.6929 6.88199C14.6928 7.29621 14.3569 7.63188 13.9427 7.63174L8.68886 7.63L17.6563 16.5973C17.9492 16.8902 17.9492 17.365 17.6563 17.6579C17.3634 17.9508 16.8886 17.9508 16.5957 17.6579L7.62011 8.68256L7.62185 13.9526C7.62199 14.3668 7.28632 14.7027 6.8721 14.7028C6.45789 14.7029 6.12199 14.3673 6.12185 13.9531L6.11951 6.87964C6.11944 6.68064 6.19846 6.48978 6.33918 6.34906Z" fill="#16191D"/>
</svg>
