<svg width="24" height="24" viewBox="0 0 24 24" fill="none" xmlns="http://www.w3.org/2000/svg">
<path d="M12 1.99951C10.0078 1.99951 8.15161 2.58209 6.59258 3.58618C6.25918 3.80091 6.09248 3.90827 6.00056 4.09222C5.92594 4.24154 5.90348 4.45143 5.94481 4.61316C5.99573 4.81239 6.1529 4.96957 6.46725 5.28392L9.66788 8.48455C9.80499 8.62165 10.0194 8.66258 10.1908 8.57193C10.7308 8.28627 11.3465 8.12451 12 8.12451C12.4394 8.12451 12.8616 8.19763 13.2553 8.33237C13.6894 8.48093 13.9065 8.55521 14.0331 8.55461C14.1709 8.55395 14.2323 8.53969 14.3563 8.47967C14.4703 8.42449 14.5882 8.30656 14.8241 8.07071L17.5801 5.31474C17.8929 5.00186 18.0494 4.84542 18.1005 4.64701C18.142 4.48591 18.1202 4.27679 18.0465 4.12765C17.9558 3.94398 17.7905 3.83607 17.4599 3.62025C15.8902 2.59528 14.0147 1.99951 12 1.99951Z" fill="#16191D"/>
<path d="M20.3405 6.48063C20.1235 6.15332 20.015 5.98966 19.8316 5.90016C19.6827 5.82747 19.4744 5.80658 19.314 5.84825C19.1166 5.89955 18.9609 6.05517 18.6497 6.36641L15.905 9.11108C15.6655 9.35058 15.5458 9.47033 15.4904 9.58579C15.4301 9.71149 15.4161 9.77353 15.4167 9.91294C15.4171 10.041 15.4953 10.2606 15.6516 10.6998C15.7963 11.1061 15.875 11.5436 15.875 11.9995C15.875 12.4245 15.8066 12.8334 15.6802 13.216C15.5382 13.6457 15.4673 13.8605 15.4688 13.9859C15.4705 14.1222 15.485 14.1832 15.5447 14.3057C15.5997 14.4184 15.7161 14.5347 15.9488 14.7675L18.7148 17.5334C19.0291 17.8478 19.1863 18.0049 19.3855 18.0558C19.5472 18.0972 19.7571 18.0747 19.9064 18.0001C20.0904 17.9082 20.1977 17.7416 20.4125 17.4082C21.4171 15.849 22 13.9923 22 11.9995C22 9.95958 21.3892 8.06232 20.3405 6.48063Z" fill="#16191D"/>
<path d="M17.5695 20.3062C17.8941 20.0882 18.0563 19.9791 18.1447 19.7961C18.2166 19.6473 18.2367 19.4398 18.1949 19.28C18.1434 19.0834 17.9885 18.9285 17.6787 18.6186L14.9435 15.8835C14.7009 15.6408 14.5795 15.5195 14.4628 15.4639C14.3356 15.4034 14.2731 15.3897 14.1323 15.3913C14.003 15.3927 13.7812 15.4743 13.3377 15.6374C12.9208 15.7908 12.4702 15.8745 12 15.8745C11.545 15.8745 11.1083 15.7961 10.7027 15.652C10.2638 15.4961 10.0443 15.4182 9.91637 15.4178C9.77706 15.4173 9.71505 15.4313 9.58945 15.4916C9.47407 15.5469 9.35442 15.6666 9.11512 15.9059L6.36983 18.6512C6.0585 18.9625 5.90284 19.1182 5.85155 19.3157C5.80988 19.4761 5.83082 19.6844 5.90357 19.8334C5.99314 20.0167 6.15688 20.1252 6.48438 20.3422C8.06541 21.3895 9.96147 21.9995 12 21.9995C14.0618 21.9995 15.9778 21.3756 17.5695 20.3062Z" fill="#16191D"/>
<path d="M8.125 11.9995C8.125 12.4398 8.19843 12.8629 8.33371 13.2573C8.4827 13.6917 8.55719 13.9089 8.55664 14.0356C8.55605 14.1734 8.54181 14.235 8.48177 14.359C8.42658 14.4731 8.30855 14.5911 8.0725 14.8272L5.31717 17.5825C5.00437 17.8953 4.84798 18.0517 4.64963 18.1028C4.48856 18.1443 4.27949 18.1226 4.13036 18.049C3.94671 17.9583 3.83876 17.7931 3.62287 17.4627C2.5966 15.8923 2 14.0156 2 11.9995C2 9.9372 2.62429 8.02069 3.6942 6.42867C3.91225 6.10421 4.02127 5.94198 4.20433 5.85361C4.35307 5.78181 4.56056 5.76165 4.72033 5.80348C4.91698 5.85496 5.07187 6.00986 5.38165 6.31964L8.60722 9.54521C8.73056 9.66855 8.76165 9.86353 8.67211 10.0132C8.32467 10.5941 8.125 11.2735 8.125 11.9995Z" fill="#16191D"/>
</svg>
