<svg width="24" height="24" viewBox="0 0 24 24" fill="none" xmlns="http://www.w3.org/2000/svg">
<path fill-rule="evenodd" clip-rule="evenodd" d="M19.2066 18.7414C19.1571 19.0472 18.9247 19.2912 18.6216 19.3553C14.7811 20.1685 10.8465 19.0826 7.88427 16.1203C4.92357 13.1596 3.82255 9.23331 4.64236 5.38664C4.70682 5.08421 4.95028 4.85234 5.2555 4.8027L5.36596 4.78489C5.43619 4.77362 5.5369 4.75754 5.65919 4.73825C5.90362 4.6997 6.23499 4.64821 6.58184 4.59661C6.92798 4.54511 7.29287 4.49301 7.60331 4.45351C7.89404 4.41653 8.18967 4.38335 8.36458 4.38282C8.8581 4.38133 9.32598 4.52115 9.72112 4.76982C9.89598 4.87958 10.0321 5.03486 10.1252 5.15346C10.2289 5.28561 10.33 5.43903 10.4251 5.59798C10.616 5.91685 10.8098 6.30317 10.9822 6.68925C11.1551 7.0764 11.3134 7.47902 11.4301 7.83437C11.5358 8.15659 11.6411 8.53691 11.6402 8.83326C11.6394 9.09093 11.5064 9.33016 11.288 9.46681L9.58184 10.5341C9.90606 11.4466 10.4326 12.3019 11.1627 13.032C11.8292 13.6986 12.5986 14.1949 13.4206 14.5226L14.5334 12.7224C14.6696 12.502 14.91 12.3675 15.1691 12.3667C15.4896 12.3657 15.89 12.4775 16.2378 12.5966C16.6151 12.7259 17.0368 12.9022 17.4393 13.0972C17.8402 13.2914 18.2402 13.5128 18.5681 13.7368C18.7317 13.8485 18.89 13.9694 19.0251 14.0964C19.1495 14.2135 19.3027 14.3801 19.3976 14.5908C19.5449 14.9155 19.6218 15.2723 19.6206 15.6412C19.6201 15.8186 19.5876 16.1141 19.551 16.4058C19.512 16.7163 19.4606 17.0798 19.4099 17.4241C19.359 17.7692 19.3082 18.0982 19.2702 18.3408C19.2511 18.4622 19.2353 18.5621 19.2242 18.6318L19.2066 18.7414Z" fill="#16191D"/>
</svg>
