<svg width="21" height="21" viewBox="0 0 21 21" fill="none" xmlns="http://www.w3.org/2000/svg">
<path d="M19.1971 5.38379C19.6113 5.38379 19.9471 5.71958 19.9471 6.13379V11.1516C19.9471 11.5658 19.6113 11.9016 19.1971 11.9016C18.7829 11.9016 18.4471 11.5658 18.4471 11.1516V7.94308L12.3905 13.9997C12.1266 14.2636 11.7087 14.2933 11.4102 14.0694L7.8755 11.4184L3.26666 16.0272C2.97377 16.3201 2.49889 16.3201 2.206 16.0272C1.9131 15.7344 1.9131 15.2595 2.206 14.9666L7.27479 9.8978C7.53871 9.63388 7.95653 9.60418 8.25512 9.82813L11.7898 12.4791L17.3851 6.88379H14.1793C13.7651 6.88379 13.4293 6.548 13.4293 6.13379C13.4293 5.71958 13.7651 5.38379 14.1793 5.38379H19.1971Z" fill="#576175"/>
</svg>
