<svg width="24" height="24" viewBox="0 0 24 24" fill="none" xmlns="http://www.w3.org/2000/svg">
<path d="M4.5 3.25C3.25736 3.25 2.25 4.25736 2.25 5.5V16C2.25 16.4142 2.58579 16.75 3 16.75H4.25C4.25 18.2688 5.48122 19.5007 7 19.5007C8.51878 19.5007 9.75 18.2695 9.75 16.7507L15 16.75C15.0884 16.75 15.1732 16.7347 15.2519 16.7066C15.2517 16.7211 15.2516 16.7355 15.2516 16.75C15.2516 18.2688 16.4828 19.5 18.0016 19.5C19.5204 19.5 20.7516 18.2688 20.7516 16.75C20.7516 16.6657 20.7478 16.5823 20.7404 16.5H21.0016C21.4158 16.5 21.7516 16.1642 21.7516 15.75V12C21.7516 11.8257 21.6909 11.6568 21.5799 11.5224L17.9794 7.16241C17.8369 6.98988 17.6249 6.88997 17.4011 6.88997H15.75V5.5C15.75 4.25736 14.7426 3.25 13.5 3.25H4.5ZM7 14.0007C6.03405 14.0007 5.18564 14.4985 4.69537 15.25H3.75V5.5C3.75 5.08579 4.08579 4.75 4.5 4.75H13.5C13.9142 4.75 14.25 5.08579 14.25 5.5V15.25H9.30463C8.81436 14.4985 7.96595 14.0007 7 14.0007ZM5.84075 16.2817C6.02685 15.8224 6.47675 15.5007 7 15.5007C7.52325 15.5007 7.97315 15.8224 8.15925 16.2817C8.21753 16.4255 8.25 16.5834 8.25 16.7507C8.25 17.441 7.69036 18.0007 7 18.0007C6.30964 18.0007 5.75 17.441 5.75 16.7507C5.75 16.5834 5.78247 16.4255 5.84075 16.2817ZM15.7523 8.38997H17.0478L20.0289 12H15.7557L15.7523 8.38997ZM16.7766 16.5H16.778C16.8938 15.9302 17.3976 15.5014 18.0015 15.5014C18.6055 15.5014 19.1093 15.9302 19.2251 16.5H19.2266C19.243 16.5808 19.2516 16.6644 19.2516 16.75C19.2516 17.4404 18.6919 18 18.0016 18C17.3112 18 16.7516 17.4404 16.7516 16.75C16.7516 16.6644 16.7602 16.5808 16.7766 16.5Z" fill="#16191D"/>
</svg>
