<svg width="24" height="24" viewBox="0 0 24 24" fill="none" xmlns="http://www.w3.org/2000/svg">
<path d="M4.5 2.25C3.25736 2.25 2.25 3.25736 2.25 4.5V19.5C2.25 20.7426 3.25736 21.75 4.5 21.75H19.5C20.7426 21.75 21.75 20.7426 21.75 19.5V4.5C21.75 3.25736 20.7426 2.25 19.5 2.25H4.5ZM17.75 6V18C17.75 18.4142 17.4142 18.75 17 18.75C16.5858 18.75 16.25 18.4142 16.25 18V6C16.25 5.58579 16.5858 5.25 17 5.25C17.4142 5.25 17.75 5.58579 17.75 6ZM12.75 10.99V11C12.75 11.4142 12.4142 11.75 12 11.75C11.5858 11.75 11.25 11.4142 11.25 11V10.99C11.25 10.5758 11.5858 10.24 12 10.24C12.4142 10.24 12.75 10.5758 12.75 10.99ZM7.75 11V18C7.75 18.4142 7.41421 18.75 7 18.75C6.58579 18.75 6.25 18.4142 6.25 18L6.25 11C6.25 10.5858 6.58579 10.25 7 10.25C7.41421 10.25 7.75 10.5858 7.75 11ZM12.75 14V18C12.75 18.4142 12.4142 18.75 12 18.75C11.5858 18.75 11.25 18.4142 11.25 18V14C11.25 13.5858 11.5858 13.25 12 13.25C12.4142 13.25 12.75 13.5858 12.75 14Z" fill="#16191D"/>
</svg>
