<svg width="24" height="24" viewBox="0 0 24 24" fill="none" xmlns="http://www.w3.org/2000/svg">
<path d="M7.36751 5.5368C4.37795 7.80383 3.47294 11.995 5.39776 15.3289C7.48396 18.9423 12.1044 20.1803 15.7178 18.0941C16.8393 17.4467 17.7315 16.5559 18.3668 15.5266C14.5935 16.3906 10.5428 14.7521 8.50633 11.2248C7.47306 9.43511 7.12045 7.43873 7.36751 5.5368ZM4.09872 16.0789C1.5983 11.748 3.08216 6.21017 7.41301 3.70975C7.66579 3.56381 7.92287 3.43136 8.1834 3.31222C8.78274 3.03815 9.41881 3.61486 9.20457 4.2381C8.51811 6.23505 8.66763 8.50416 9.80537 10.4748C11.7694 13.8766 15.9803 15.1734 19.4812 13.5725C20.0806 13.2984 20.7167 13.8751 20.5024 14.4984C19.8174 16.4912 18.4362 18.2567 16.4678 19.3932C12.137 21.8936 6.59914 20.4097 4.09872 16.0789Z" fill="#16191D"/>
</svg>
