<svg width="24" height="24" viewBox="0 0 24 24" fill="none" xmlns="http://www.w3.org/2000/svg">
<path d="M7.5 2.75293C6.67157 2.75293 6 3.4245 6 4.25293V5.75293H4.25C3.00736 5.75293 2 6.76029 2 8.00293V16.48C2 17.3084 2.67157 17.98 3.5 17.98H6V19.7524C6 20.5809 6.67157 21.2524 7.5 21.2524H16.5C17.3284 21.2524 18 20.5809 18 19.7524V17.98H20.5C21.3284 17.98 22 17.3084 22 16.48V8.00293C22 6.76029 20.9926 5.75293 19.75 5.75293H18V4.25293C18 3.4245 17.3284 2.75293 16.5 2.75293H7.5ZM16.5 5.75293H7.5V4.25293H16.5V5.75293ZM7.5 15.1611H16.5V19.7524H7.5V15.1611ZM18.25 9.87695C18.25 10.4983 17.7463 11.002 17.125 11.002C16.5037 11.002 16 10.4983 16 9.87695C16 9.25563 16.5037 8.75195 17.125 8.75195C17.7463 8.75195 18.25 9.25563 18.25 9.87695Z" fill="#16191D"/>
</svg>
