<svg width="20" height="21" viewBox="0 0 20 21" fill="none" xmlns="http://www.w3.org/2000/svg">
<g clip-path="url(#clip0_1516_60560)">
<path d="M9.47016 5.73432C9.76305 5.44143 10.2379 5.44143 10.5308 5.73432L13.5308 8.73432C13.8237 9.02721 13.8237 9.50209 13.5308 9.79498C13.2379 10.0879 12.7631 10.0879 12.4702 9.79498L10.7505 8.07531L10.7505 14.8169C10.7505 15.2311 10.4147 15.5669 10.0005 15.5669C9.58627 15.5669 9.25049 15.2311 9.25049 14.8169L9.25049 8.07531L7.53082 9.79498C7.23793 10.0879 6.76305 10.0879 6.47016 9.79498C6.17727 9.50209 6.17727 9.02721 6.47016 8.73432L9.47016 5.73432Z" fill="#576175"/>
<path fill-rule="evenodd" clip-rule="evenodd" d="M0.00195312 16.291C0.00195312 17.5337 1.00931 18.541 2.25195 18.541H17.752C18.9946 18.541 20.002 17.5337 20.002 16.291V4.79102C20.002 3.54838 18.9946 2.54102 17.752 2.54102H2.25195C1.00931 2.54102 0.00195312 3.54838 0.00195312 4.79102V16.291ZM2.25195 17.041C1.83774 17.041 1.50195 16.7052 1.50195 16.291V4.79102C1.50195 4.3768 1.83774 4.04102 2.25195 4.04102H17.752C18.1662 4.04102 18.502 4.3768 18.502 4.79102V16.291C18.502 16.7052 18.1662 17.041 17.752 17.041H2.25195Z" fill="#576175"/>
</g>
<defs>
<clipPath id="clip0_1516_60560">
<rect width="20" height="20" fill="white" transform="translate(0.000488281 0.541016)"/>
</clipPath>
</defs>
</svg>
