<svg width="24" height="24" viewBox="0 0 24 24" fill="none" xmlns="http://www.w3.org/2000/svg">
<path d="M5.99605 18.0041C4.53159 16.5396 4.53159 14.1652 5.99605 12.7008L7.92882 10.768C8.22172 10.4751 8.22172 10.0002 7.92882 9.70735C7.63593 9.41445 7.16106 9.41445 6.86816 9.70735L4.93539 11.6401C2.88514 13.6904 2.88514 17.0145 4.93539 19.0647C6.98565 21.115 10.3098 21.115 12.36 19.0647L14.2928 17.132C14.5857 16.8391 14.5857 16.3642 14.2928 16.0713C13.9999 15.7784 13.525 15.7784 13.2321 16.0713L11.2994 18.0041C9.83489 19.4685 7.46052 19.4685 5.99605 18.0041Z" fill="#16191D"/>
<path d="M9.6913 6.88422C9.3984 7.17711 9.3984 7.65198 9.6913 7.94488C9.98419 8.23777 10.4591 8.23777 10.752 7.94488L12.7025 5.99434C14.167 4.52988 16.5413 4.52988 18.0058 5.99435C19.4703 7.45881 19.4703 9.83318 18.0058 11.2976L16.0691 13.2343C15.7762 13.5272 15.7762 14.0021 16.0691 14.295C16.362 14.5879 16.8369 14.5879 17.1298 14.295L19.0664 12.3583C21.1167 10.3081 21.1167 6.98394 19.0664 4.93369C17.0162 2.88343 13.6921 2.88343 11.6418 4.93368L9.6913 6.88422Z" fill="#16191D"/>
<path d="M8.46734 14.4715C8.17445 14.7644 8.17445 15.2393 8.46734 15.5322C8.76024 15.8251 9.23511 15.8251 9.528 15.5322L15.535 9.52522C15.8279 9.23232 15.8279 8.75745 15.535 8.46456C15.2421 8.17166 14.7672 8.17166 14.4743 8.46456L8.46734 14.4715Z" fill="#16191D"/>
</svg>
