<svg width="24" height="24" viewBox="0 0 24 24" fill="none" xmlns="http://www.w3.org/2000/svg">
<path d="M6.25 2C5.00736 2 4 3.00736 4 4.25V16.75C4 17.9926 5.00736 19 6.25 19H14.75C15.9926 19 17 17.9926 17 16.75V4.25C17 3.00736 15.9926 2 14.75 2H6.25ZM5.5 4.25C5.5 3.83579 5.83579 3.5 6.25 3.5H14.75C15.1642 3.5 15.5 3.83579 15.5 4.25V16.75C15.5 17.1642 15.1642 17.5 14.75 17.5H6.25C5.83579 17.5 5.5 17.1642 5.5 16.75V4.25Z" fill="black"/>
<path d="M20 5.75C20 5.33579 19.6642 5 19.25 5C18.8358 5 18.5 5.33579 18.5 5.75V19.75C18.5 20.1642 18.1642 20.5 17.75 20.5H7.75C7.33579 20.5 7 20.8358 7 21.25C7 21.6642 7.33579 22 7.75 22H17.75C18.9926 22 20 20.9926 20 19.75V5.75Z" fill="black"/>
</svg>
