<svg width="24" height="24" viewBox="0 0 24 24" fill="none" xmlns="http://www.w3.org/2000/svg">
<path d="M11.9961 3.00928C12.1951 3.00928 12.386 3.08838 12.5266 3.22917L16.5266 7.23249C16.8194 7.5255 16.8192 8.00037 16.5262 8.29315C16.2332 8.58592 15.7583 8.58572 15.4655 8.29271L12.7461 5.571L12.7461 15.2838C12.7461 15.698 12.4103 16.0338 11.9961 16.0338C11.5819 16.0338 11.2461 15.698 11.2461 15.2838L11.2461 5.571L8.52664 8.2927C8.23387 8.58572 7.759 8.58592 7.46598 8.29314C7.17297 8.00037 7.17277 7.5255 7.46554 7.23248L11.4655 3.22917C11.6062 3.08838 11.7971 3.00928 11.9961 3.00928Z" fill="#16191D"/>
<path d="M5.24902 19.5093C4.83481 19.5093 4.49902 19.1735 4.49902 18.7593L4.49902 14.2543C4.49902 13.8401 4.16324 13.5043 3.74902 13.5043C3.33481 13.5043 2.99902 13.8401 2.99902 14.2543V18.7593C2.99902 20.0019 4.00638 21.0093 5.24902 21.0093H18.7456C19.9882 21.0093 20.9956 20.0019 20.9956 18.7593V14.2543C20.9956 13.8401 20.6598 13.5043 20.2456 13.5043C19.8314 13.5043 19.4956 13.8401 19.4956 14.2543V18.7593C19.4956 19.1735 19.1598 19.5093 18.7456 19.5093H5.24902Z" fill="#16191D"/>
</svg>
