<svg width="24" height="24" viewBox="0 0 24 24" fill="none" xmlns="http://www.w3.org/2000/svg">
<path d="M9.18385 6.60063C8.75812 6.60063 8.413 6.94575 8.413 7.37148C8.413 7.79721 8.75812 8.14233 9.18385 8.14233H18.4344C18.8601 8.14233 19.2053 7.79721 19.2053 7.37148C19.2053 6.94575 18.8601 6.60063 18.4344 6.60063H9.18385Z" fill="#16191D"/>
<path d="M9.18385 11.2257C8.75812 11.2257 8.413 11.5708 8.413 11.9966C8.413 12.4223 8.75812 12.7674 9.18385 12.7674H18.4344C18.8601 12.7674 19.2053 12.4223 19.2053 11.9966C19.2053 11.5708 18.8601 11.2257 18.4344 11.2257H9.18385Z" fill="#16191D"/>
<path d="M8.413 16.6216C8.413 16.1959 8.75812 15.8508 9.18385 15.8508H18.4344C18.8601 15.8508 19.2053 16.1959 19.2053 16.6216C19.2053 17.0474 18.8601 17.3925 18.4344 17.3925H9.18385C8.75812 17.3925 8.413 17.0474 8.413 16.6216Z" fill="#16191D"/>
<path d="M5.84314 17.6494C6.41077 17.6494 6.87093 17.1893 6.87093 16.6216C6.87093 16.054 6.41077 15.5939 5.84314 15.5939C5.2755 15.5939 4.81534 16.054 4.81534 16.6216C4.81534 17.1893 5.2755 17.6494 5.84314 17.6494Z" fill="#16191D"/>
<path d="M7.69292 11.1645C7.86866 11.3402 7.86866 11.6251 7.69292 11.8009L6.20361 13.2902C6.03536 13.4584 5.77834 13.5001 5.56552 13.3937L4.60399 12.913C4.3817 12.8018 4.29159 12.5315 4.40274 12.3092C4.51388 12.0869 4.78419 11.9968 5.00648 12.108L5.74417 12.4768L7.05652 11.1645C7.23226 10.9887 7.51718 10.9887 7.69292 11.1645Z" fill="#16191D"/>
<path d="M7.69292 6.53952C7.86866 6.71525 7.86866 7.00018 7.69292 7.17591L6.20361 8.66522C6.03536 8.83347 5.77834 8.87518 5.56552 8.76877L4.60399 8.288C4.3817 8.17686 4.29159 7.90655 4.40274 7.68426C4.51388 7.46197 4.78419 7.37187 5.00648 7.48302L5.74417 7.85187L7.05652 6.53952C7.23226 6.36378 7.51718 6.36378 7.69292 6.53952Z" fill="#16191D"/>
</svg>
