<svg width="24" height="24" viewBox="0 0 24 24" fill="none" xmlns="http://www.w3.org/2000/svg">
<path d="M3.41881 5.44397C2.61931 4.46424 3.31643 2.99561 4.58097 2.99561H19.4172C20.683 2.99561 21.3797 4.4668 20.5776 5.44606L14.9971 12.2595L14.9997 17.7004C15 18.287 14.6583 18.82 14.125 19.0645L11.1237 20.4411C10.1314 20.8962 9.00074 20.1726 8.99839 19.0809L8.9837 12.2633L3.41881 5.44397ZM19.4172 4.49561H4.58097L10.1459 11.3149C10.3637 11.5819 10.483 11.9156 10.4837 12.2601L10.4984 19.0776L13.4997 17.7011L13.4971 12.2602C13.497 11.9134 13.617 11.5773 13.8367 11.309L19.4172 4.49561Z" fill="#16191D"/>
<path d="M4.58097 4.49561H19.4172L13.8367 11.309C13.617 11.5773 13.497 11.9134 13.4971 12.2602L13.4997 17.7011L10.4984 19.0776L10.4837 12.2601C10.483 11.9156 10.3637 11.5819 10.1459 11.3149L4.58097 4.49561Z" fill="#16191D"/>
</svg>
