<svg width="24" height="24" viewBox="0 0 24 24" fill="none" xmlns="http://www.w3.org/2000/svg">
<path d="M5.33984 8.67271C5.33984 4.99368 8.32229 2.01123 12.0013 2.01123C15.6804 2.01123 18.6628 4.99368 18.6628 8.67271C18.6628 10.7846 17.4229 12.8759 16.1501 14.4899C14.8549 16.1321 13.4107 17.4219 12.7895 17.949C12.3313 18.3378 11.6684 18.3362 11.212 17.946C10.5919 17.4159 9.14816 16.118 7.85319 14.4732C6.58142 12.8578 5.33984 10.7679 5.33984 8.67271ZM11.9992 5.51904C10.2565 5.51904 8.84375 6.93178 8.84375 8.67447C8.84375 10.4172 10.2565 11.8299 11.9992 11.8299C13.7419 11.8299 15.1546 10.4172 15.1546 8.67447C15.1546 6.93178 13.7419 5.51904 11.9992 5.51904Z" fill="#16191D"/>
<path d="M4.40198 15.5227C4.72169 15.2594 4.76737 14.7867 4.50401 14.467C4.24065 14.1473 3.76798 14.1016 3.44827 14.365C2.61042 15.0551 2.01562 15.9483 2.01562 16.9988C2.01562 18.6394 3.43387 19.8834 5.15842 20.6737C6.94851 21.4941 9.36879 21.9817 12.002 21.9817C14.6351 21.9817 17.0554 21.4941 18.8455 20.6737C20.57 19.8834 21.9883 18.6394 21.9883 16.9988C21.9883 15.9483 21.3935 15.0551 20.5556 14.365C20.2359 14.1016 19.7633 14.1473 19.4999 14.467C19.2365 14.7867 19.2822 15.2594 19.6019 15.5227C20.2415 16.0496 20.4883 16.5578 20.4883 16.9988C20.4883 17.696 19.8389 18.5684 18.2206 19.3101C16.6678 20.0217 14.4699 20.4817 12.002 20.4817C9.53403 20.4817 7.33615 20.0217 5.78335 19.3101C4.165 18.5684 3.51562 17.696 3.51562 16.9988C3.51562 16.5578 3.76242 16.0496 4.40198 15.5227Z" fill="#16191D"/>
</svg>
