<svg width="24" height="24" viewBox="0 0 24 24" fill="none" xmlns="http://www.w3.org/2000/svg">
<path fill-rule="evenodd" clip-rule="evenodd" d="M12.002 2.01074C7.48336 2.01074 3.82031 5.67379 3.82031 10.1924C3.82031 12.8013 5.39738 15.43 7.02359 17.4724C8.67425 19.5456 10.4974 21.1635 11.2128 21.77C11.6693 22.157 12.3322 22.1582 12.7901 21.773C13.5068 21.17 15.3304 19.5626 16.9812 17.4931C18.6084 15.4532 20.1836 12.8229 20.1836 10.1924C20.1836 5.67379 16.5205 2.01074 12.002 2.01074ZM12 13C13.6569 13 15 11.6569 15 10C15 8.34315 13.6569 7 12 7C10.3431 7 9 8.34315 9 10C9 11.6569 10.3431 13 12 13Z" fill="#16191D"/>
</svg>
