<svg width="24" height="24" viewBox="0 0 24 24" fill="none" xmlns="http://www.w3.org/2000/svg">
<path fill-rule="evenodd" clip-rule="evenodd" d="M6.24234 2.76351C6.47708 3.10479 6.39072 3.57174 6.04944 3.80648C4.96287 4.55386 4.02682 5.49924 3.29026 6.59316C3.05891 6.93675 2.59284 7.02774 2.24925 6.7964C1.90566 6.56505 1.81467 6.09898 2.04602 5.75539C2.8878 4.50519 3.95758 3.42476 5.19937 2.57061C5.54064 2.33587 6.0076 2.42223 6.24234 2.76351ZM17.7575 2.76351C17.9923 2.42223 18.4592 2.33587 18.8005 2.57061C20.0423 3.42476 21.1121 4.50519 21.9539 5.75539C22.1852 6.09898 22.0942 6.56505 21.7506 6.7964C21.407 7.02774 20.941 6.93675 20.7096 6.59316C19.9731 5.49924 19.037 4.55386 17.9504 3.80648C17.6092 3.57174 17.5228 3.10479 17.7575 2.76351ZM11.9999 4.95758C7.85781 4.95758 4.49994 8.31544 4.49994 12.4576C4.49994 16.5997 7.85781 19.9576 11.9999 19.9576C16.1421 19.9576 19.4999 16.5997 19.4999 12.4576C19.4999 8.31544 16.1421 4.95758 11.9999 4.95758ZM2.99994 12.4576C2.99994 7.48702 7.02938 3.45758 11.9999 3.45758C16.9705 3.45758 20.9999 7.48702 20.9999 12.4576C20.9999 17.4281 16.9705 21.4576 11.9999 21.4576C7.02938 21.4576 2.99994 17.4281 2.99994 12.4576ZM11.8749 6.70758C12.2892 6.70758 12.6249 7.04337 12.6249 7.45758V11.8779C12.6249 11.9675 12.6729 12.0503 12.7507 12.0948L15.2384 13.5194C15.5978 13.7252 15.7223 14.1834 15.5165 14.5429C15.3107 14.9023 14.8524 15.0269 14.493 14.821L12.0053 13.3965C11.4608 13.0847 11.1249 12.5053 11.1249 11.8779V7.45758C11.1249 7.04337 11.4607 6.70758 11.8749 6.70758Z" fill="#16191D"/>
</svg>
