<svg width="21" height="21" viewBox="0 0 21 21" fill="none" xmlns="http://www.w3.org/2000/svg">
<g clip-path="url(#clip0_1505_60804)">
<path d="M10.9941 0.539062C11.4084 0.539062 11.7441 0.874849 11.7441 1.28906V2.78906C11.7441 3.20328 11.4084 3.53906 10.9941 3.53906C10.5799 3.53906 10.2441 3.20328 10.2441 2.78906V1.28906C10.2441 0.874849 10.5799 0.539062 10.9941 0.539062Z" fill="#576175"/>
<path fill-rule="evenodd" clip-rule="evenodd" d="M5.4707 10.541C5.4707 7.49051 7.94363 5.01758 10.9941 5.01758C14.0447 5.01758 16.5176 7.49051 16.5176 10.541C16.5176 13.5915 14.0447 16.0645 10.9941 16.0645C7.94363 16.0645 5.4707 13.5915 5.4707 10.541ZM10.9941 6.51758C8.77206 6.51758 6.9707 8.31893 6.9707 10.541C6.9707 12.7631 8.77206 14.5645 10.9941 14.5645C13.2162 14.5645 15.0176 12.7631 15.0176 10.541C15.0176 8.31893 13.2162 6.51758 10.9941 6.51758Z" fill="#576175"/>
<path d="M11.7441 18.293C11.7441 17.8788 11.4084 17.543 10.9941 17.543C10.5799 17.543 10.2441 17.8788 10.2441 18.293V19.793C10.2441 20.2072 10.5799 20.543 10.9941 20.543C11.4084 20.543 11.7441 20.2072 11.7441 19.793V18.293Z" fill="#576175"/>
<path d="M0.992676 10.541C0.992676 10.1268 1.32846 9.79102 1.74268 9.79102H3.24268C3.65689 9.79102 3.99268 10.1268 3.99268 10.541C3.99268 10.9552 3.65689 11.291 3.24268 11.291H1.74268C1.32846 11.291 0.992676 10.9552 0.992676 10.541Z" fill="#576175"/>
<path d="M18.7456 9.79102C18.3314 9.79102 17.9956 10.1268 17.9956 10.541C17.9956 10.9552 18.3314 11.291 18.7456 11.291H20.2456C20.6598 11.291 20.9956 10.9552 20.9956 10.541C20.9956 10.1268 20.6598 9.79102 20.2456 9.79102H18.7456Z" fill="#576175"/>
<path d="M3.92182 17.6133C3.62893 17.3204 3.62893 16.8456 3.92182 16.5527L4.98248 15.492C5.27537 15.1991 5.75025 15.1991 6.04314 15.492C6.33603 15.7849 6.33603 16.2598 6.04314 16.5527L4.98248 17.6133C4.68959 17.9062 4.21471 17.9062 3.92182 17.6133Z" fill="#576175"/>
<path d="M15.9453 4.52924C15.6524 4.82213 15.6524 5.29701 15.9453 5.5899C16.2381 5.88279 16.713 5.88279 17.0059 5.5899L18.0666 4.52924C18.3595 4.23635 18.3595 3.76147 18.0666 3.46858C17.7737 3.17569 17.2988 3.17569 17.0059 3.46858L15.9453 4.52924Z" fill="#576175"/>
<path d="M3.92182 3.46869C4.21471 3.1758 4.68959 3.1758 4.98248 3.46869L6.04314 4.52935C6.33603 4.82225 6.33603 5.29712 6.04314 5.59001C5.75025 5.88291 5.27537 5.88291 4.98248 5.59001L3.92182 4.52935C3.62893 4.23646 3.62893 3.76159 3.92182 3.46869Z" fill="#576175"/>
<path d="M17.0054 15.4921C16.7125 15.1992 16.2377 15.1992 15.9448 15.4921C15.6519 15.785 15.6519 16.2599 15.9448 16.5528L17.0054 17.6135C17.2983 17.9063 17.7732 17.9063 18.0661 17.6135C18.359 17.3206 18.359 16.8457 18.0661 16.5528L17.0054 15.4921Z" fill="#576175"/>
</g>
<defs>
<clipPath id="clip0_1505_60804">
<rect width="20" height="20" fill="white" transform="translate(0.993164 0.541016)"/>
</clipPath>
</defs>
</svg>
