<svg width="21" height="21" viewBox="0 0 21 21" fill="none" xmlns="http://www.w3.org/2000/svg">
<path d="M4.00488 6.04102C4.00488 5.6268 4.34067 5.29102 4.75488 5.29102H17.2549C17.6691 5.29102 18.0049 5.6268 18.0049 6.04102C18.0049 6.45523 17.6691 6.79102 17.2549 6.79102H4.75488C4.34067 6.79102 4.00488 6.45523 4.00488 6.04102Z" fill="#576175"/>
<path d="M4.00488 10.541C4.00488 10.1268 4.34067 9.79102 4.75488 9.79102H17.2549C17.6691 9.79102 18.0049 10.1268 18.0049 10.541C18.0049 10.9552 17.6691 11.291 17.2549 11.291H4.75488C4.34067 11.291 4.00488 10.9552 4.00488 10.541Z" fill="#576175"/>
<path d="M4.75488 14.291C4.34067 14.291 4.00488 14.6268 4.00488 15.041C4.00488 15.4552 4.34067 15.791 4.75488 15.791H17.2549C17.6691 15.791 18.0049 15.4552 18.0049 15.041C18.0049 14.6268 17.6691 14.291 17.2549 14.291H4.75488Z" fill="#576175"/>
</svg>
