<svg width="24" height="24" viewBox="0 0 24 24" fill="none" xmlns="http://www.w3.org/2000/svg">
<path d="M13.4999 7.50067C13.4999 8.32893 12.8284 9.00037 12.0002 9.00037C11.1719 9.00037 10.5005 8.32893 10.5005 7.50067C10.5005 6.67241 11.1719 6.00098 12.0002 6.00098C12.8284 6.00098 13.4999 6.67241 13.4999 7.50067Z" fill="#16191D"/>
<path d="M13.4999 12.0007C13.4999 12.8289 12.8284 13.5004 12.0002 13.5004C11.1719 13.5004 10.5005 12.8289 10.5005 12.0007C10.5005 11.1724 11.1719 10.501 12.0002 10.501C12.8284 10.501 13.4999 11.1724 13.4999 12.0007Z" fill="#16191D"/>
<path d="M12.0002 17.9994C12.8284 17.9994 13.4999 17.328 13.4999 16.4997C13.4999 15.6714 12.8284 15 12.0002 15C11.1719 15 10.5005 15.6714 10.5005 16.4997C10.5005 17.328 11.1719 17.9994 12.0002 17.9994Z" fill="#16191D"/>
</svg>
