<svg width="24" height="24" viewBox="0 0 24 24" fill="none" xmlns="http://www.w3.org/2000/svg">
<path d="M7.50061 10.5005C8.32887 10.5005 9.00031 11.1719 9.00031 12.0002C9.00031 12.8284 8.32887 13.4999 7.50061 13.4999C6.67235 13.4999 6.00092 12.8284 6.00092 12.0002C6.00092 11.1719 6.67235 10.5005 7.50061 10.5005Z" fill="#16191D"/>
<path d="M12 10.5005C12.8283 10.5005 13.4997 11.1719 13.4997 12.0002C13.4997 12.8284 12.8283 13.4999 12 13.4999C11.1717 13.4999 10.5003 12.8284 10.5003 12.0002C10.5003 11.1719 11.1717 10.5005 12 10.5005Z" fill="#16191D"/>
<path d="M17.9991 12.0002C17.9991 11.1719 17.3276 10.5005 16.4994 10.5005C15.6711 10.5005 14.9997 11.1719 14.9997 12.0002C14.9997 12.8284 15.6711 13.4999 16.4994 13.4999C17.3276 13.4999 17.9991 12.8284 17.9991 12.0002Z" fill="#16191D"/>
</svg>
