<svg width="24" height="24" viewBox="0 0 24 24" fill="none" xmlns="http://www.w3.org/2000/svg">
<path d="M4.25 8.53824C4.25 8.85769 4.29573 9.16693 4.38099 9.45948C3.1358 9.92773 2.25 11.1295 2.25 12.5382C2.25 13.947 3.1358 15.1488 4.38099 15.617C4.29573 15.9096 4.25 16.2188 4.25 16.5382C4.25 18.3456 5.70811 19.8123 7.51213 19.8264C8.01327 21.0022 9.1789 21.8265 10.5382 21.8265C12.3543 21.8265 13.8265 20.3543 13.8265 18.5382V17.162H14.7935V18.4318C14.3557 18.6944 14.0627 19.1736 14.0627 19.7212C14.0627 20.5509 14.7354 21.2235 15.5651 21.2235C16.3948 21.2235 17.0674 20.5509 17.0674 19.7212C17.0674 19.1557 16.7551 18.6632 16.2935 18.4069V16.412C16.2935 15.9978 15.9577 15.662 15.5435 15.662H13.8265V14.4808H19.2468V17.5369C18.7971 17.7965 18.4945 18.2823 18.4945 18.8389C18.4945 19.6686 19.1671 20.3412 19.9969 20.3412C20.8266 20.3412 21.4992 19.6686 21.4992 18.8389C21.4992 18.2823 21.1965 17.7964 20.7468 17.5368V13.7308C20.7468 13.3166 20.411 12.9808 19.9968 12.9808H13.8265V11.4965H18.6564C18.9257 11.9006 19.3856 12.1669 19.9076 12.1669C20.7373 12.1669 21.41 11.4943 21.41 10.6646C21.41 9.83486 20.7373 9.16223 19.9076 9.16223C19.3179 9.16223 18.8075 9.50201 18.5616 9.99648H13.8265V8.72375H16.5447C16.9589 8.72375 17.2947 8.38796 17.2947 7.97375V5.69815C17.7444 5.43856 18.0471 4.95267 18.0471 4.39609C18.0471 3.56636 17.3744 2.89374 16.5447 2.89374C15.715 2.89374 15.0424 3.56636 15.0424 4.39609C15.0424 4.95264 15.345 5.4385 15.7947 5.69811V7.22375H13.8265V5.53824C13.8265 3.72219 12.3543 2.25 10.5382 2.25C8.8154 2.25 7.40203 3.57495 7.26148 5.26148C5.57495 5.40203 4.25 6.8154 4.25 8.53824ZM7.90076 11.8803C7.90076 12.3978 8.12 12.8891 8.43004 13.2559C8.76912 13.657 9.07958 13.7604 9.15283 13.7604C9.56705 13.7604 9.90283 14.0962 9.90283 14.5104C9.90283 14.9246 9.56705 15.2604 9.15283 15.2604C8.44069 15.2604 7.75012 14.775 7.2845 14.2242C6.78986 13.6391 6.40076 12.8154 6.40076 11.8803C6.40076 10.9452 6.78986 10.1215 7.2845 9.53636C7.75012 8.98557 8.44069 8.50021 9.15283 8.50021C9.56705 8.50021 9.90283 8.836 9.90283 9.25021C9.90283 9.66443 9.56705 10.0002 9.15283 10.0002C9.07958 10.0002 8.76912 10.1036 8.43004 10.5047C8.12 10.8715 7.90076 11.3628 7.90076 11.8803Z" fill="#16191D"/>
</svg>
