<svg width="24" height="24" viewBox="0 0 24 24" fill="none" xmlns="http://www.w3.org/2000/svg">
<path fill-rule="evenodd" clip-rule="evenodd" d="M8.1948 11.4697C7.90191 11.7626 7.90191 12.2374 8.1948 12.5303L12.1948 16.5303C12.4877 16.8232 12.9626 16.8232 13.2555 16.5303C13.5484 16.2374 13.5484 15.7626 13.2555 15.4697L9.78579 12L13.2555 8.53033C13.5484 8.23744 13.5484 7.76256 13.2555 7.46967C12.9626 7.17678 12.4877 7.17678 12.1948 7.46967L8.1948 11.4697Z" fill="#16191D"/>
<path fill-rule="evenodd" clip-rule="evenodd" d="M8.21634 12C8.21634 12.4142 8.55213 12.75 8.96634 12.75L20.2403 12.75C20.6545 12.75 20.9903 12.4142 20.9903 12C20.9903 11.5858 20.6545 11.25 20.2403 11.25L8.96634 11.25C8.55213 11.25 8.21634 11.5858 8.21634 12Z" fill="#16191D"/>
<path fill-rule="evenodd" clip-rule="evenodd" d="M5.30334 4.50391C4.88913 4.50391 4.55334 4.83969 4.55334 5.25391V18.7505C4.55334 19.1647 4.88913 19.5005 5.30334 19.5005H13.3004C13.7146 19.5005 14.0504 19.8363 14.0504 20.2505C14.0504 20.6647 13.7146 21.0005 13.3004 21.0005H5.30334C4.0607 21.0005 3.05334 19.9931 3.05334 18.7505V5.25391C3.05334 4.01126 4.0607 3.00391 5.30334 3.00391H13.3004C13.7146 3.00391 14.0504 3.33969 14.0504 3.75391C14.0504 4.16812 13.7146 4.50391 13.3004 4.50391H5.30334Z" fill="#16191D"/>
</svg>
