<svg width="24" height="24" viewBox="0 0 24 24" fill="none" xmlns="http://www.w3.org/2000/svg">
<path fill-rule="evenodd" clip-rule="evenodd" d="M19.4716 11.2258V7.8216C19.4716 6.71615 18.5755 5.82001 17.4701 5.82001C17.2946 5.82001 17.1243 5.8426 16.9621 5.88503C16.881 4.85405 16.0186 4.04272 14.9668 4.04272C14.7937 4.04272 14.6258 4.06469 14.4656 4.10599V4.02229C14.4656 2.92051 13.5724 2.02734 12.4706 2.02734C11.3689 2.02734 10.4757 2.92051 10.4757 4.02229V4.10611C10.3154 4.06473 10.1473 4.04272 9.974 4.04272C8.86856 4.04272 7.97242 4.93886 7.97242 6.0443V9.78559C7.2296 9.46529 6.3257 9.53761 5.62213 10.1097C4.88571 10.7085 4.59605 11.7001 4.89439 12.6012L6.48486 17.4048C7.38788 20.1321 9.93734 21.9735 12.8103 21.9735C16.4902 21.9735 19.4734 18.9903 19.4734 15.3104V11.2778C19.4734 11.2603 19.4728 11.243 19.4716 11.2258ZM12.4706 3.52734C12.1973 3.52734 11.9757 3.74894 11.9757 4.02229V11.9342C11.9757 12.3484 11.6399 12.6842 11.2257 12.6842C10.8115 12.6842 10.4757 12.3484 10.4757 11.9342V11.8508L10.4756 11.8385V6.0443C10.4756 5.76728 10.251 5.54272 9.974 5.54272C9.69699 5.54272 9.47242 5.76728 9.47242 6.0443V11.8385C9.47242 11.8588 9.47162 11.8789 9.47004 11.8987L10.0258 13.6237C10.1528 14.018 9.93621 14.4406 9.54195 14.5676C9.1477 14.6946 8.72512 14.478 8.59809 14.0837L7.81141 11.642C7.642 11.1162 6.99706 10.925 6.56845 11.2735C6.31538 11.4793 6.21584 11.8201 6.31836 12.1297L7.90883 16.9333C8.60857 19.0466 10.5841 20.4735 12.8103 20.4735C15.6618 20.4735 17.9734 18.1619 17.9734 15.3104V11.8905C17.9722 11.8733 17.9716 11.856 17.9716 11.8385V7.8216C17.9716 7.54458 17.7471 7.32001 17.4701 7.32001C17.193 7.32001 16.9685 7.54458 16.9685 7.8216V11.8385C16.9685 12.188 16.7294 12.4817 16.4058 12.5649C16.3834 12.5707 16.3606 12.5754 16.3375 12.5791C16.2987 12.5853 16.2589 12.5885 16.2184 12.5885C15.8042 12.5885 15.4684 12.2527 15.4684 11.8385V6.0443C15.4684 5.76728 15.2438 5.54272 14.9668 5.54272C14.6963 5.54272 14.4758 5.75689 14.4656 6.02493V11.9342C14.4656 12.3484 14.1298 12.6842 13.7156 12.6842C13.3014 12.6842 12.9656 12.3484 12.9656 11.9342V11.8622C12.9653 11.8543 12.9652 11.8464 12.9652 11.8385V6.0443C12.9652 6.03136 12.9653 6.01845 12.9656 6.00557V4.02229C12.9656 3.74894 12.744 3.52734 12.4706 3.52734Z" fill="#16191D"/>
</svg>
