<svg width="24" height="24" viewBox="0 0 24 24" fill="none" xmlns="http://www.w3.org/2000/svg">
<path fill-rule="evenodd" clip-rule="evenodd" d="M11.4888 4.05817C12.9916 2.55542 15.0849 2.00325 17.0114 2.40651C17.6972 2.55006 18.1158 3.0786 18.1904 3.66954C18.2616 4.23379 18.0216 4.82331 17.5258 5.20061L15.0865 7.05703C15.0235 7.10496 14.9869 7.17989 14.9879 7.25903L15.0083 8.92342C15.0099 9.0591 15.1195 9.16868 15.2552 9.17034L16.9196 9.1907C16.9987 9.19166 17.0737 9.1551 17.1216 9.09212L18.8901 6.76826C19.2763 6.2608 19.8824 6.02211 20.4558 6.10899C21.0591 6.2004 21.5806 6.65251 21.6869 7.36159C21.961 9.19076 21.3886 11.1289 19.9741 12.5435C18.2217 14.2958 15.667 14.7558 13.5073 13.9146C13.2784 13.8255 13.1045 13.9015 13.0404 13.9798L7.40063 20.8729L7.37418 20.8993C6.83555 21.438 6.06478 21.7146 5.31616 21.7333C4.5603 21.7523 3.74241 21.5101 3.13171 20.8993C1.94775 19.7154 2.03113 17.7575 3.13171 16.6569L3.15816 16.6304L10.0518 10.9902C10.1301 10.9261 10.2061 10.7523 10.117 10.5235C9.27664 8.3641 9.73688 5.8101 11.4888 4.05817ZM16.7021 3.87428C15.2543 3.57189 13.6813 3.98697 12.5495 5.11883C11.2293 6.43896 10.8845 8.35972 11.5149 9.97943C11.785 10.6736 11.69 11.5879 11.0017 12.1511L4.16926 17.7412C3.65156 18.2866 3.62735 19.2737 4.19237 19.8387C4.46029 20.1066 4.85322 20.2445 5.27856 20.2338C5.69649 20.2233 6.06609 20.0711 6.29045 19.861L11.8795 13.03C12.4428 12.3415 13.3574 12.2465 14.0517 12.5169C15.6716 13.1479 17.593 12.8032 18.9134 11.4828C19.977 10.4192 20.4076 8.96642 20.2049 7.59341C20.1755 7.59873 20.1285 7.61784 20.0838 7.67667L18.3152 10.0005C17.9797 10.4414 17.4552 10.6974 16.9012 10.6906L15.2369 10.6702C14.2871 10.6586 13.52 9.89151 13.5084 8.94176L13.488 7.27737C13.4813 6.72338 13.7372 6.19891 14.1781 5.86338L16.6174 4.00696C16.682 3.95779 16.6993 3.90408 16.7021 3.87428Z" fill="#16191D"/>
</svg>
