<svg width="24" height="24" viewBox="0 0 24 24" fill="none" xmlns="http://www.w3.org/2000/svg">
<path d="M2.13978 13.475C1.9585 13.2238 1.95037 12.8869 2.11931 12.6272C4.25992 9.33658 7.80997 7.32227 11.9992 7.32227C16.1863 7.32227 19.7412 9.32006 21.8815 12.6198C22.0497 12.8792 22.0416 13.2153 21.8608 13.4662L21.7953 13.5569C21.7536 13.6146 21.6938 13.6971 21.6209 13.7973C21.4754 13.9973 21.2775 14.2681 21.0687 14.5498C20.8603 14.831 20.6392 15.1259 20.4476 15.3733C20.2682 15.605 20.0826 15.8375 19.9593 15.9616C19.6114 16.3116 19.1816 16.5436 18.7264 16.6471C18.5252 16.6932 18.3191 16.6796 18.1694 16.6616C18.0027 16.6415 17.8227 16.6045 17.643 16.5593C17.2826 16.4688 16.8723 16.3327 16.4774 16.1816C16.0814 16.0301 15.6848 15.8574 15.351 15.6886C15.0484 15.5355 14.705 15.341 14.4961 15.1309C14.3145 14.9481 14.2394 14.6849 14.2972 14.4338L14.7489 12.4727C13.8745 12.0567 12.8973 11.8242 11.8648 11.8242C10.9222 11.8242 10.0271 12.0173 9.21418 12.3668L9.70033 14.4266C9.75985 14.6788 9.68498 14.9439 9.50232 15.1276C9.27637 15.355 8.91422 15.5591 8.584 15.7207C8.22583 15.8961 7.80297 16.0696 7.3805 16.2164C6.95973 16.3626 6.52022 16.4888 6.13006 16.5623C5.93543 16.599 5.73794 16.6255 5.5526 16.6311C5.38184 16.6364 5.15569 16.6269 4.9396 16.5449C4.60589 16.4196 4.29925 16.2216 4.03918 15.96C3.91413 15.8342 3.72814 15.6022 3.54773 15.37C3.35574 15.1229 3.13503 14.8295 2.92748 14.5502C2.7195 14.2702 2.52271 14.0016 2.37805 13.8032C2.30568 13.7039 2.24624 13.622 2.20484 13.5649L2.13978 13.475ZM3.66574 13.0231C3.79812 13.2043 3.9612 13.4263 4.13156 13.6556C4.33644 13.9314 4.54984 14.215 4.7322 14.4497C4.92613 14.6993 5.05472 14.8539 5.10305 14.9025C5.20649 15.0066 5.3222 15.0821 5.44269 15.1312C5.45412 15.132 5.47484 15.1328 5.50666 15.1319C5.58873 15.1293 5.70423 15.1162 5.85233 15.0883C6.14761 15.0326 6.51248 14.93 6.8883 14.7994C7.2624 14.6695 7.62832 14.5185 7.9244 14.3736C7.99644 14.3383 8.06264 14.3042 8.12256 14.2717L7.61602 12.1255C7.53791 11.7945 7.69224 11.4525 7.99204 11.292C9.14818 10.6732 10.4664 10.3242 11.8648 10.3242C13.364 10.3242 14.7718 10.7264 15.9854 11.4299C16.2701 11.595 16.414 11.9264 16.3401 12.2471L15.8743 14.2696C15.9216 14.2953 15.9729 14.3222 16.028 14.35C16.3078 14.4916 16.6563 14.644 17.0135 14.7807C17.3717 14.9178 17.7228 15.0328 18.0083 15.1045C18.1516 15.1405 18.2659 15.1623 18.349 15.1724C18.3852 15.1767 18.408 15.1779 18.4197 15.1782C18.592 15.1341 18.7574 15.043 18.8954 14.9041C18.9405 14.8588 19.0672 14.7059 19.2616 14.455C19.4437 14.2197 19.6577 13.9345 19.8635 13.6568C20.036 13.4239 20.2014 13.1983 20.3352 13.0147C18.4508 10.3939 15.4952 8.82227 11.9992 8.82227C8.50585 8.82227 5.55246 10.4051 3.66574 13.0231Z" fill="#16191D"/>
</svg>
