<svg width="21" height="21" viewBox="0 0 21 21" fill="none" xmlns="http://www.w3.org/2000/svg">
<path d="M15.7672 5.01557L19.7672 9.01559C20.06 9.30849 20.06 9.78336 19.7672 10.0763L15.7672 14.0763C15.4743 14.3692 14.9994 14.3692 14.7065 14.0763C14.4136 13.7834 14.4136 13.3085 14.7065 13.0156L17.426 10.2961H5.75929C4.51665 10.2961 3.50928 11.3034 3.50928 12.5461V15.6192C3.50928 16.0334 3.17349 16.3692 2.75928 16.3692C2.34506 16.3692 2.00928 16.0334 2.00928 15.6192V12.5461C2.00928 10.475 3.68822 8.79608 5.75929 8.79608H17.4263L14.7065 6.07623C14.4136 5.78334 14.4136 5.30846 14.7065 5.01557C14.9994 4.72267 15.4743 4.72268 15.7672 5.01557Z" fill="#576175"/>
</svg>
