<svg width="24" height="24" viewBox="0 0 24 24" fill="none" xmlns="http://www.w3.org/2000/svg">
<path d="M13.1429 2.00049C14.2474 2.00049 15.1429 2.89592 15.1429 4.00049V4.2862H17.7143C18.8189 4.2862 19.7143 5.18163 19.7143 6.2862V20.0005C19.7143 20.1583 19.8422 20.2862 20 20.2862H21.1429C21.6162 20.2862 22 20.67 22 21.1433C22 21.6167 21.6162 22.0005 21.1429 22.0005H20C18.8954 22.0005 18 21.1051 18 20.0005V6.2862C18 6.12841 17.8721 6.00049 17.7143 6.00049H15.1429V20.0005C15.1429 21.1051 14.2474 22.0005 13.1429 22.0005H2.85714C2.38376 22.0005 2 21.6167 2 21.1433C2 20.67 2.38376 20.2862 2.85714 20.2862H4.28571V4.00049C4.28571 2.89592 5.18114 2.00049 6.28571 2.00049H13.1429ZM10.8571 10.8576C10.226 10.8576 9.71429 11.3693 9.71429 12.0005C9.71429 12.6317 10.226 13.1433 10.8571 13.1433C11.4883 13.1433 12 12.6317 12 12.0005C12 11.3693 11.4883 10.8576 10.8571 10.8576Z" fill="#16191D"/>
</svg>
