<svg width="21" height="21" viewBox="0 0 21 21" fill="none" xmlns="http://www.w3.org/2000/svg">
<path fill-rule="evenodd" clip-rule="evenodd" d="M6.36086 4.07782C3.37129 6.34484 2.46629 10.536 4.39111 13.8699C6.47731 17.4833 11.0978 18.7213 14.7112 16.6351C15.8326 15.9877 16.7248 15.0969 17.3601 14.0676C13.5869 14.9316 9.53617 13.2931 7.49968 9.7658C6.46641 7.97613 6.1138 5.97975 6.36086 4.07782ZM3.09207 14.6199C0.59165 10.289 2.07551 4.75118 6.40636 2.25077C6.65914 2.10483 6.91621 1.97238 7.17674 1.85324C7.77608 1.57916 8.41216 2.15588 8.19792 2.77912C7.51146 4.77607 7.66098 7.04518 8.79872 9.0158C10.7627 12.4176 14.9737 13.7145 18.4746 12.1135C19.0739 11.8394 19.71 12.4161 19.4958 13.0394C18.8107 15.0322 17.4295 16.7977 15.4612 17.9342C11.1303 20.4346 5.59249 18.9507 3.09207 14.6199Z" fill="#576175"/>
</svg>
