<svg width="24" height="24" viewBox="0 0 24 24" fill="none" xmlns="http://www.w3.org/2000/svg">
<path d="M4.55334 5.25391C4.55334 4.83969 4.88913 4.50391 5.30334 4.50391H13.3004C13.7146 4.50391 14.0504 4.16812 14.0504 3.75391C14.0504 3.33969 13.7146 3.00391 13.3004 3.00391H5.30334C4.0607 3.00391 3.05334 4.01126 3.05334 5.25391V18.7505C3.05334 19.9931 4.0607 21.0005 5.30334 21.0005H13.3004C13.7146 21.0005 14.0504 20.6647 14.0504 20.2505C14.0504 19.8363 13.7146 19.5005 13.3004 19.5005H5.30334C4.88913 19.5005 4.55334 19.1647 4.55334 18.7505V5.25391Z" fill="#16191D"/>
<path d="M20.7711 12.5303L16.7711 16.5303C16.4782 16.8232 16.0033 16.8232 15.7105 16.5303C15.4176 16.2374 15.4176 15.7626 15.7105 15.4697L18.4301 12.75L8.72564 12.75C8.31143 12.75 7.97564 12.4142 7.97564 12C7.97564 11.5858 8.31143 11.25 8.72564 11.25L18.4301 11.25L15.7105 8.53033C15.4176 8.23744 15.4176 7.76256 15.7105 7.46967C16.0033 7.17678 16.4782 7.17678 16.7711 7.46967L20.7711 11.4697C21.064 11.7626 21.064 12.2374 20.7711 12.5303Z" fill="#16191D"/>
</svg>
