<svg width="24" height="24" viewBox="0 0 24 24" fill="none" xmlns="http://www.w3.org/2000/svg">
<path fill-rule="evenodd" clip-rule="evenodd" d="M12.4854 2.28525C12.2054 2.04774 11.7907 2.05099 11.5108 2.28851L12.4854 2.28525ZM14.334 13.6685C14.334 12.1627 15.5547 10.942 17.0605 10.942C18.5663 10.942 19.7869 12.1627 19.7869 13.6685V14.4799H20.2113C21.0397 14.4799 21.7113 15.1515 21.7113 15.9799V20.0523C21.7113 20.8808 21.0397 21.5523 20.2113 21.5523H13.9098C13.0814 21.5523 12.4098 20.8808 12.4098 20.0523V15.9799C12.4098 15.1515 13.0814 14.4799 13.9098 14.4799H14.334V13.6685ZM15.834 14.4799H18.2869V13.6685C18.2869 12.9911 17.7378 12.442 17.0605 12.442C16.3831 12.442 15.834 12.9911 15.834 13.6685V14.4799ZM20.2113 15.9799H13.9098V20.0523H20.2113L20.2113 15.9799Z" fill="#16191D"/>
<path d="M12.4892 2.28851L12.4854 2.28525C12.2054 2.04774 11.7907 2.05099 11.5108 2.28851L11.4954 2.30139C11.4815 2.31307 11.4601 2.33079 11.4321 2.35386C11.376 2.4 11.293 2.46738 11.1881 2.55029C10.9779 2.71639 10.6815 2.94333 10.3376 3.18595C9.63272 3.68341 8.7928 4.20036 8.10387 4.43187C7.51471 4.62985 6.67841 4.73933 5.94523 4.7955C5.58757 4.8229 5.27031 4.83655 5.04279 4.84333C4.92922 4.84671 4.83851 4.84837 4.77688 4.84918L4.70715 4.84987L4.6902 4.84995L4.68582 4.84995C4.48689 4.84988 4.29608 4.92884 4.15537 5.06947C4.01462 5.21013 3.93555 5.40097 3.93555 5.59995V12.0001C3.93555 13.9578 4.7635 15.67 5.82946 17.064C6.89527 18.4578 8.2326 19.5788 9.34236 20.3738C9.67908 20.615 10.1476 20.5376 10.3888 20.2008C10.63 19.8641 10.5526 19.3956 10.2159 19.1544C9.17337 18.4075 7.96392 17.3859 7.02101 16.1529C6.07825 14.92 5.43555 13.5211 5.43555 12.0001V6.32937C5.62115 6.32075 5.83272 6.30851 6.05981 6.29112C6.81414 6.23333 7.80646 6.11424 8.58167 5.85373C9.48926 5.54875 10.478 4.92282 11.2025 4.41152C11.5128 4.19253 11.7865 3.98604 12 3.8198C12.2135 3.98604 12.4872 4.19253 12.7975 4.41152C13.522 4.92282 14.5107 5.54875 15.4183 5.85373C16.1935 6.11424 17.1859 6.23333 17.9402 6.29112C18.1673 6.30851 18.3789 6.32075 18.5645 6.32937V9.07763C18.5645 9.49184 18.9002 9.82763 19.3145 9.82763C19.7287 9.82763 20.0645 9.49184 20.0645 9.07763V5.59995C20.0645 5.40097 19.9854 5.21013 19.8446 5.06947C19.7039 4.92883 19.5125 4.84987 19.3135 4.84995L19.3098 4.84995L19.2928 4.84987L19.2231 4.84918C19.1615 4.84837 19.0708 4.84671 18.9572 4.84333C18.7297 4.83655 18.4124 4.8229 18.0548 4.7955C17.3216 4.73933 16.4853 4.62985 15.8961 4.43187C15.2072 4.20036 14.3673 3.68341 13.6624 3.18595C13.3185 2.94333 13.0221 2.71639 12.8119 2.55029C12.707 2.46738 12.624 2.4 12.5679 2.35386C12.5399 2.33079 12.5185 2.31307 12.5046 2.30139L12.4892 2.28851Z" fill="#16191D"/>
</svg>
