<svg width="24" height="24" viewBox="0 0 24 24" fill="none" xmlns="http://www.w3.org/2000/svg">
<path d="M12.8912 3.2954C12.4774 2.26534 11.1997 2.16005 10.521 2.86779C10.4348 2.9577 10.3602 3.05809 10.299 3.1666L6.75624 9.45091C6.69188 9.52648 6.64199 9.61474 6.61085 9.71143H4.42969C3.18705 9.71143 2.17969 10.7188 2.17969 11.9614V19.3366C2.17969 20.5792 3.18704 21.5866 4.42969 21.5866H8.78907C8.80077 21.5867 8.81248 21.5868 8.82422 21.5868H16.8896C18.6886 21.5868 20.2342 20.3092 20.5726 18.5422L21.8534 11.8553C22.1191 10.4682 21.0559 9.18208 19.6436 9.18208H13.4371C13.8323 7.20221 13.6388 5.1567 12.8912 3.2954ZM6.70215 20.0866H4.42969C4.01547 20.0866 3.67969 19.7508 3.67969 19.3366V11.9614C3.67969 11.5472 4.01548 11.2114 4.42969 11.2114H6.57422V19.3368C6.57422 19.5997 6.6193 19.8521 6.70215 20.0866Z" fill="#16191D"/>
</svg>
