<svg width="24" height="24" viewBox="0 0 24 24" fill="none" xmlns="http://www.w3.org/2000/svg">
<path fill-rule="evenodd" clip-rule="evenodd" d="M8.07897 4.17798C8.32427 3.47546 8.98702 3.00488 9.73114 3.00488L16.2199 3.00489C17.5293 3.00489 18.3749 4.3903 17.7763 5.55491L14.8468 11.2542H17.2703C18.3904 11.2542 18.9451 12.614 18.1447 13.3975L10.6182 20.7648C9.75964 21.6052 8.32545 20.8686 8.50843 19.6811L9.57585 12.7542H6.84484C5.98416 12.7542 5.38098 11.9047 5.66471 11.0921L8.07897 4.17798ZM9.73114 4.50488C9.62484 4.50488 9.53016 4.57211 9.49512 4.67247L7.19693 11.2542H9.86732C10.6336 11.2542 11.2194 11.9373 11.1027 12.6946L10.1052 19.168L16.6575 12.7542H14.4372C13.5019 12.7542 12.8979 11.7646 13.3255 10.9328L16.4422 4.86918C16.5277 4.70281 16.4069 4.50489 16.2199 4.50489L9.73114 4.50488Z" fill="#16191D"/>
</svg>
