<svg width="21" height="21" viewBox="0 0 21 21" fill="none" xmlns="http://www.w3.org/2000/svg">
<g clip-path="url(#clip0_1505_60849)">
<path fill-rule="evenodd" clip-rule="evenodd" d="M6.24764 1.54102C6.66185 1.54191 6.99691 1.87843 6.99601 2.29264L6.98953 5.28901C6.98684 6.52975 5.98027 7.53414 4.73953 7.53414H1.74316C1.32895 7.53414 0.993164 7.19836 0.993164 6.78414C0.993164 6.36993 1.32895 6.03414 1.74316 6.03414L4.73953 6.03414C5.15311 6.03414 5.48864 5.69935 5.48953 5.28577L5.49602 2.28939C5.49691 1.87518 5.83343 1.54012 6.24764 1.54102ZM13.7504 1.54102C14.1646 1.5413 14.5001 1.87732 14.4998 2.29154L14.4978 5.28694C14.4975 5.70136 14.8333 6.03746 15.2478 6.03746L18.2432 6.03746C18.6574 6.03746 18.9932 6.37325 18.9932 6.78746C18.9932 7.20168 18.6574 7.53746 18.2432 7.53746H15.2478C14.0045 7.53746 12.9969 6.52915 12.9978 5.2859L12.9998 2.2905C13.0001 1.87628 13.3361 1.54073 13.7504 1.54102ZM4.73989 13.5423C5.98492 13.5389 6.99602 14.5472 6.99602 15.7923V18.791C6.99602 19.2053 6.66023 19.541 6.24602 19.541C5.8318 19.541 5.49602 19.2053 5.49602 18.791V15.7923C5.49602 15.3772 5.15898 15.0411 4.74397 15.0423L1.74521 15.0504C1.33099 15.0516 0.994295 14.7167 0.993167 14.3025C0.992039 13.8883 1.32691 13.5516 1.74112 13.5504L4.73989 13.5423ZM15.2531 13.5511L18.243 13.5504C18.6572 13.5503 18.9931 13.886 18.9932 14.3003C18.9933 14.7145 18.6576 15.0503 18.2433 15.0504L15.2534 15.0511C14.8393 15.0512 14.5036 15.387 14.5036 15.8011V18.791C14.5036 19.2052 14.1678 19.541 13.7536 19.541C13.3394 19.541 13.0036 19.2052 13.0036 18.791V15.8011C13.0036 14.5587 14.0107 13.5514 15.2531 13.5511Z" fill="#576175"/>
</g>
<defs>
<clipPath id="clip0_1505_60849">
<rect width="20" height="20" fill="white" transform="translate(0.118164 0.541016)"/>
</clipPath>
</defs>
</svg>
