<svg width="24" height="24" viewBox="0 0 24 24" fill="none" xmlns="http://www.w3.org/2000/svg">
<path d="M12.001 3.49902C7.30602 3.49902 3.5 7.30504 3.5 12C3.5 16.695 7.30602 20.501 12.001 20.501C16.6959 20.501 20.502 16.695 20.502 12C20.502 7.30504 16.6959 3.49902 12.001 3.49902ZM2 12C2 6.47661 6.47759 1.99902 12.001 1.99902C17.5244 1.99902 22.002 6.47661 22.002 12C22.002 17.5234 17.5244 22.001 12.001 22.001C6.47759 22.001 2 17.5234 2 12ZM15.4528 7.42375C16.1644 7.10679 16.892 7.83432 16.5751 8.54596L14.5011 13.2039C14.2211 13.8327 13.7155 14.3337 13.084 14.6078L8.53383 16.5832C7.82638 16.8903 7.10847 16.1723 7.41569 15.4649L9.39169 10.915C9.6658 10.2838 10.1666 9.77838 10.7951 9.49839L15.4528 7.42375ZM14.5159 9.48316L11.4055 10.8686C11.1198 10.9959 10.8921 11.2256 10.7675 11.5125L9.4479 14.5511L12.4867 13.2319C12.7737 13.1073 13.0035 12.8796 13.1308 12.5937L14.5159 9.48316Z" fill="#16191D"/>
</svg>
