<svg width="21" height="21" viewBox="0 0 21 21" fill="none" xmlns="http://www.w3.org/2000/svg">
<path fill-rule="evenodd" clip-rule="evenodd" d="M19.9922 15.3723V5.7098C19.9922 5.17633 19.9922 4.72964 19.9614 4.36445C19.9293 3.9827 19.8596 3.62345 19.6813 3.28418C19.4085 2.76498 18.9755 2.34711 18.4483 2.0866C18.1064 1.91768 17.7446 1.85139 17.3561 1.82061C16.9824 1.791 16.5242 1.79101 15.972 1.79102H6.01239C5.46019 1.79101 5.00202 1.791 4.62831 1.82061C4.23978 1.85139 3.87799 1.91768 3.53611 2.0866C3.00886 2.34711 2.57587 2.76498 2.30306 3.28418C2.1248 3.62345 2.0551 3.9827 2.02294 4.36445C1.99217 4.72963 1.99218 5.17628 1.99219 5.70973V15.3722C1.99218 15.9057 1.99217 16.3524 2.02294 16.7176C2.0551 17.0993 2.1248 17.4586 2.30306 17.7979C2.57588 18.3171 3.00886 18.7349 3.53611 18.9954C3.87799 19.1644 4.23978 19.2306 4.62831 19.2614C5.00202 19.291 5.46016 19.291 6.01235 19.291H15.972C16.5242 19.291 16.9824 19.291 17.3561 19.2614C17.7446 19.2306 18.1064 19.1644 18.4483 18.9954C18.9755 18.7349 19.4085 18.3171 19.6813 17.7979C19.8596 17.4586 19.9293 17.0993 19.9614 16.7176C19.9922 16.3524 19.9922 15.9057 19.9922 15.3723ZM14.3512 13.8991C14.0584 14.192 13.5835 14.192 13.2906 13.8991L10.9928 11.6013L8.69439 13.8997C8.4015 14.1926 7.92663 14.1926 7.63373 13.8997C7.34084 13.6068 7.34084 13.1319 7.63373 12.839L9.93213 10.5406L7.63374 8.24225C7.34084 7.94935 7.34084 7.47448 7.63374 7.18159C7.92663 6.88869 8.4015 6.88869 8.6944 7.18159L10.9928 9.47998L13.2906 7.18219C13.5835 6.8893 14.0584 6.8893 14.3512 7.18219C14.6441 7.47508 14.6441 7.94996 14.3512 8.24285L12.0535 10.5406L14.3512 12.8384C14.6441 13.1313 14.6441 13.6062 14.3512 13.8991Z" fill="#576175"/>
</svg>
