<svg width="24" height="24" viewBox="0 0 24 24" fill="none" xmlns="http://www.w3.org/2000/svg">
<path fill-rule="evenodd" clip-rule="evenodd" d="M17.5297 5.96754C17.2367 5.67475 16.7618 5.6749 16.469 5.96789L11.9995 10.4404L7.53005 5.96789C7.23725 5.6749 6.76238 5.67474 6.46939 5.96754C6.1764 6.26033 6.17624 6.73521 6.46904 7.0282L11.469 12.0315C11.6097 12.1723 11.8005 12.2514 11.9995 12.2514C12.1985 12.2514 12.3894 12.1723 12.53 12.0315L17.53 7.0282C17.8228 6.73521 17.8227 6.26034 17.5297 5.96754ZM17.5306 11.9687C17.2376 11.6759 16.7627 11.6761 16.4699 11.9691L12.0004 16.4415L7.53095 11.9691C7.23815 11.6761 6.76328 11.6759 6.47029 11.9687C6.1773 12.2615 6.17714 12.7364 6.46994 13.0294L11.4699 18.0327C11.6106 18.1735 11.8014 18.2525 12.0004 18.2525C12.1994 18.2525 12.3903 18.1735 12.5309 18.0327L17.5309 13.0294C17.8237 12.7364 17.8236 12.2615 17.5306 11.9687Z" fill="#16191D"/>
</svg>
