<svg width="21" height="21" viewBox="0 0 21 21" fill="none" xmlns="http://www.w3.org/2000/svg">
<path d="M12.7063 15.0154C12.4133 15.3082 12.4131 15.7831 12.7059 16.0761C12.9987 16.369 13.4736 16.3692 13.7666 16.0764L18.7699 11.0764C18.9107 10.9357 18.9897 10.7449 18.9897 10.5459C18.9897 10.3469 18.9107 10.1561 18.7699 10.0154L13.7666 5.01539C13.4736 4.7226 12.9987 4.72275 12.7059 5.01574C12.4131 5.30873 12.4133 5.78361 12.7063 6.0764L16.4235 9.79115L3.74073 9.79102C3.32652 9.79101 2.99073 10.1268 2.99072 10.541C2.99072 10.9552 3.3265 11.291 3.74071 11.291L16.433 11.2912L12.7063 15.0154Z" fill="#576175"/>
</svg>
