<svg width="24" height="24" viewBox="0 0 24 24" fill="none" xmlns="http://www.w3.org/2000/svg">
<path d="M9.18383 6.60059C8.75811 6.60059 8.41299 6.94571 8.41299 7.37143C8.41299 7.79716 8.75811 8.14228 9.18383 8.14228H18.4344C18.8601 8.14228 19.2052 7.79716 19.2052 7.37143C19.2052 6.94571 18.8601 6.60059 18.4344 6.60059H9.18383Z" fill="#16191D"/>
<path d="M9.18383 11.2257C8.75811 11.2257 8.41299 11.5708 8.41299 11.9965C8.41299 12.4222 8.75811 12.7674 9.18383 12.7674H18.4344C18.8601 12.7674 19.2052 12.4222 19.2052 11.9965C19.2052 11.5708 18.8601 11.2257 18.4344 11.2257H9.18383Z" fill="#16191D"/>
<path d="M8.41299 16.6216C8.41299 16.1959 8.75811 15.8507 9.18383 15.8507H18.4344C18.8601 15.8507 19.2052 16.1959 19.2052 16.6216C19.2052 17.0473 18.8601 17.3924 18.4344 17.3924H9.18383C8.75811 17.3924 8.41299 17.0473 8.41299 16.6216Z" fill="#16191D"/>
<path d="M5.84312 17.6494C6.41075 17.6494 6.87091 17.1892 6.87091 16.6216C6.87091 16.054 6.41075 15.5938 5.84312 15.5938C5.27548 15.5938 4.81532 16.054 4.81532 16.6216C4.81532 17.1892 5.27548 17.6494 5.84312 17.6494Z" fill="#16191D"/>
<path d="M4.80522 12.5102L5.76676 12.991C5.80633 13.0108 5.85412 13.003 5.8854 12.9717L7.37471 11.4824" stroke="#16191D" stroke-width="0.9" stroke-linecap="round"/>
<path d="M4.80522 7.88571L5.76676 8.36647C5.80633 8.38626 5.85412 8.3785 5.8854 8.34722L7.37471 6.85791" stroke="#16191D" stroke-width="0.9" stroke-linecap="round"/>
</svg>
