<svg width="24" height="24" viewBox="0 0 24 24" fill="none" xmlns="http://www.w3.org/2000/svg">
<path d="M2 11.0003C2 8.3481 3.05357 5.80456 4.92893 3.9292L5.98959 4.98986C4.39553 6.58392 3.5 8.74593 3.5 11.0003C3.5 13.2546 4.39553 15.4166 5.98959 17.0107L4.92893 18.0713C3.05357 16.196 2 13.6524 2 11.0003ZM20.5 11.0003C20.5 8.74593 19.6045 6.58392 18.0104 4.98986L19.0711 3.9292C20.9464 5.80456 22 8.3481 22 11.0003C22 13.6524 20.9464 16.196 19.0711 18.0713L18.0104 17.0107C19.6045 15.4166 20.5 13.2546 20.5 11.0003ZM4.99609 11.0003C4.99609 9.14272 5.734 7.36124 7.04749 6.04776L8.10815 7.10842C7.07597 8.1406 6.49609 9.54054 6.49609 11.0003C6.49609 12.46 7.07597 13.8599 8.10815 14.8921L7.04749 15.9528C5.734 14.6393 4.99609 12.8578 4.99609 11.0003ZM17.5039 11.0003C17.5039 9.54054 16.924 8.1406 15.8919 7.10842L16.9525 6.04776C18.266 7.36124 19.0039 9.14272 19.0039 11.0003C19.0039 12.8578 18.266 14.6393 16.9525 15.9528L15.8918 14.8921C16.924 13.8599 17.5039 12.46 17.5039 11.0003ZM12 9.75027C11.3096 9.75027 10.75 10.3099 10.75 11.0003C10.75 11.6906 11.3096 12.2503 12 12.2503C12.6904 12.2503 13.25 11.6906 13.25 11.0003C13.25 10.3099 12.6904 9.75027 12 9.75027ZM9.25 11.0003C9.25 9.48148 10.4812 8.25027 12 8.25027C13.5188 8.25027 14.75 9.48148 14.75 11.0003C14.75 12.2605 13.9023 13.3227 12.7461 13.6479V21.2293C12.7461 21.6435 12.4103 21.9793 11.9961 21.9793C11.5819 21.9793 11.2461 21.6435 11.2461 21.2293V13.6456C10.0938 13.3179 9.25 12.2576 9.25 11.0003Z" fill="#16191D"/>
</svg>
