<svg width="24" height="24" viewBox="0 0 24 24" fill="none" xmlns="http://www.w3.org/2000/svg">
<path fill-rule="evenodd" clip-rule="evenodd" d="M12 3.5C7.30558 3.5 3.5 7.30558 3.5 12C3.5 14.0936 4.25692 16.0104 5.51204 17.4918L17.4918 5.51204C16.0104 4.25692 14.0936 3.5 12 3.5ZM18.5467 6.57837L6.57837 18.5467C8.04982 19.7667 9.93927 20.5 12 20.5C16.6944 20.5 20.5 16.6944 20.5 12C20.5 9.93927 19.7667 8.04982 18.5467 6.57837ZM2 12C2 6.47715 6.47715 2 12 2C17.5228 2 22 6.47715 22 12C22 17.5228 17.5228 22 12 22C6.47715 22 2 17.5228 2 12Z" fill="#16191D"/>
</svg>
