<svg width="24" height="24" viewBox="0 0 24 24" fill="none" xmlns="http://www.w3.org/2000/svg">
<path d="M12 1.99805C12.4142 1.99805 12.75 2.33383 12.75 2.74805V4.24805C12.75 4.66226 12.4142 4.99805 12 4.99805C11.5858 4.99805 11.25 4.66226 11.25 4.24805V2.74805C11.25 2.33383 11.5858 1.99805 12 1.99805Z" fill="#16191D"/>
<path d="M6.47656 12C6.47656 8.94949 8.94949 6.47656 12 6.47656C15.0505 6.47656 17.5234 8.94949 17.5234 12C17.5234 15.0505 15.0505 17.5234 12 17.5234C8.94949 17.5234 6.47656 15.0505 6.47656 12Z" fill="#16191D"/>
<path d="M12.75 19.752C12.75 19.3377 12.4142 19.002 12 19.002C11.5858 19.002 11.25 19.3377 11.25 19.752V21.252C11.25 21.6662 11.5858 22.002 12 22.002C12.4142 22.002 12.75 21.6662 12.75 21.252V19.752Z" fill="#16191D"/>
<path d="M2 12C2 11.5858 2.33579 11.25 2.75 11.25H4.25C4.66421 11.25 5 11.5858 5 12C5 12.4142 4.66421 12.75 4.25 12.75H2.75C2.33579 12.75 2 12.4142 2 12Z" fill="#16191D"/>
<path d="M19.75 11.25C19.3358 11.25 19 11.5858 19 12C19 12.4142 19.3358 12.75 19.75 12.75H21.25C21.6642 12.75 22 12.4142 22 12C22 11.5858 21.6642 11.25 21.25 11.25H19.75Z" fill="#16191D"/>
<path d="M4.9267 19.0723C4.63381 18.7794 4.63381 18.3046 4.9267 18.0117L5.98736 16.951C6.28025 16.6581 6.75513 16.6581 7.04802 16.951C7.34091 17.2439 7.34091 17.7188 7.04802 18.0117L5.98736 19.0723C5.69447 19.3652 5.21959 19.3652 4.9267 19.0723Z" fill="#16191D"/>
<path d="M16.9501 5.98822C16.6572 6.28112 16.6572 6.75599 16.9501 7.04888C17.243 7.34178 17.7179 7.34178 18.0108 7.04888L19.0715 5.98822C19.3644 5.69533 19.3644 5.22046 19.0715 4.92756C18.7786 4.63467 18.3037 4.63467 18.0108 4.92756L16.9501 5.98822Z" fill="#16191D"/>
<path d="M4.9267 4.92768C5.21959 4.63478 5.69447 4.63478 5.98736 4.92768L7.04802 5.98834C7.34091 6.28123 7.34091 6.7561 7.04802 7.049C6.75513 7.34189 6.28025 7.34189 5.98736 7.049L4.9267 5.98834C4.63381 5.69544 4.63381 5.22057 4.9267 4.92768Z" fill="#16191D"/>
<path d="M18.0108 16.9511C17.7179 16.6582 17.243 16.6582 16.9501 16.9511C16.6572 17.244 16.6572 17.7189 16.9501 18.0118L18.0108 19.0724C18.3037 19.3653 18.7786 19.3653 19.0715 19.0724C19.3644 18.7795 19.3644 18.3047 19.0715 18.0118L18.0108 16.9511Z" fill="#16191D"/>
</svg>
