<svg width="24" height="24" viewBox="0 0 24 24" fill="none" xmlns="http://www.w3.org/2000/svg">
<path d="M16.043 11.5293C16.043 11.1151 15.7072 10.7793 15.293 10.7793H9.29297C8.87876 10.7793 8.54297 11.1151 8.54297 11.5293C8.54297 11.9435 8.87876 12.2793 9.29297 12.2793H15.293C15.7072 12.2793 16.043 11.9435 16.043 11.5293Z" fill="#16191D"/>
<path d="M13.7461 8.5293C13.7461 8.11508 13.4103 7.7793 12.9961 7.7793H9.29297C8.87876 7.7793 8.54297 8.11508 8.54297 8.5293C8.54297 8.94351 8.87876 9.2793 9.29297 9.2793H12.9961C13.4103 9.2793 13.7461 8.94351 13.7461 8.5293Z" fill="#16191D"/>
<path d="M5.5 1.99316C4.25736 1.99316 3.25 3.00052 3.25 4.24316V19.2432H3.25851C3.37465 20.7891 4.66579 22.0073 6.24145 22.0073H20.002C20.4162 22.0073 20.752 21.6715 20.752 21.2573C20.752 20.8431 20.4162 20.5073 20.002 20.5073H18.9848H17.3834H6.24145C5.41775 20.5073 4.75 19.8396 4.75 19.0159C4.75 18.1922 5.41775 17.5244 6.24145 17.5244H17.38H18.9974H20.002C20.4162 17.5244 20.75 17.2007 20.75 16.7865V4.24316C20.75 3.00052 19.7426 1.99316 18.5 1.99316H5.5ZM19.25 16.0244H6.24145C5.69834 16.0244 5.18904 16.1691 4.75 16.4222V4.24316C4.75 3.82895 5.08579 3.49316 5.5 3.49316H18.5C18.9142 3.49316 19.25 3.82895 19.25 4.24316V16.0244Z" fill="#16191D"/>
<path d="M18.9974 17.5244H17.38C17.2381 17.9171 17.0977 18.4047 17.0801 18.8552C17.0582 19.4171 17.2227 20.0364 17.3834 20.5073H18.9848C18.889 20.278 18.805 20.0435 18.7338 19.8067C18.633 19.4719 18.5697 19.152 18.579 18.9136C18.5901 18.6278 18.7147 18.2146 18.8729 17.8187C18.9157 17.7114 18.9584 17.6118 18.9974 17.5244Z" fill="#16191D"/>
</svg>
