<svg width="20" height="21" viewBox="0 0 20 21" fill="none" xmlns="http://www.w3.org/2000/svg">
<path fill-rule="evenodd" clip-rule="evenodd" d="M19.001 15.3722L19.001 5.7098C19.001 5.17632 19.001 4.72964 18.9702 4.36445C18.9381 3.9827 18.8684 3.62345 18.6901 3.28418C18.4173 2.76498 17.9843 2.34711 17.4571 2.0866C17.1152 1.91768 16.7534 1.85139 16.3649 1.82061C15.9911 1.791 15.533 1.79101 14.9808 1.79102H5.02117C4.46897 1.79101 4.01081 1.791 3.6371 1.82061C3.24857 1.85139 2.88678 1.91768 2.5449 2.0866C2.01765 2.34711 1.58467 2.76498 1.31185 3.28418C1.13358 3.62345 1.06389 3.9827 1.03173 4.36445C1.00096 4.72963 1.00097 5.17628 1.00098 5.70973V15.3722C1.00097 15.9057 1.00096 16.3524 1.03173 16.7176C1.06389 17.0993 1.13358 17.4586 1.31185 17.7979C1.58466 18.3171 2.01765 18.7349 2.5449 18.9954C2.88678 19.1644 3.24857 19.2306 3.6371 19.2614C4.01081 19.291 4.46895 19.291 5.02114 19.291H14.9808C15.533 19.291 15.9911 19.291 16.3649 19.2614C16.7534 19.2306 17.1152 19.1644 17.4571 18.9954C17.9843 18.7349 18.4173 18.3171 18.6901 17.7979C18.8684 17.4586 18.9381 17.0993 18.9702 16.7176C19.001 16.3524 19.001 15.9057 19.001 15.3722ZM10.001 5.79102C10.4152 5.79102 10.751 6.1268 10.751 6.54102V9.79102H14.001C14.4152 9.79102 14.751 10.1268 14.751 10.541C14.751 10.9552 14.4152 11.291 14.001 11.291H10.751L10.751 14.541C10.751 14.9552 10.4152 15.291 10.001 15.291C9.58676 15.291 9.25098 14.9552 9.25098 14.541V11.291H6.00098C5.58676 11.291 5.25098 10.9552 5.25098 10.541C5.25098 10.1268 5.58676 9.79102 6.00098 9.79102H9.25098V6.54102C9.25098 6.1268 9.58676 5.79102 10.001 5.79102Z" fill="#576175"/>
</svg>
