<svg width="24" height="24" viewBox="0 0 24 24" fill="none" xmlns="http://www.w3.org/2000/svg">
<path fill-rule="evenodd" clip-rule="evenodd" d="M1.74997 2.5C1.74997 2.08579 2.08576 1.75 2.49997 1.75H3.99997C4.28405 1.75 4.54375 1.9105 4.67079 2.16459L5.9635 4.75H17.0729C18.7457 4.75 19.8333 6.51046 19.0853 8.00637L18.7665 8.644C18.7621 8.65274 18.7623 8.65232 18.7623 8.65232L17.5854 11.0062C17.2043 11.7684 16.4252 12.25 15.5729 12.25H8.87497L7.94797 13.486C7.55737 14.0068 7.92897 14.75 8.57997 14.75H18.5C18.9142 14.75 19.25 15.0858 19.25 15.5C19.25 15.9142 18.9142 16.25 18.5 16.25H8.57997C6.69291 16.25 5.61573 14.0957 6.74797 12.586L7.62185 11.4208L3.53644 3.25H2.49997C2.08576 3.25 1.74997 2.91421 1.74997 2.5ZM8.96349 10.75H15.5729C15.857 10.75 16.1167 10.5895 16.2438 10.3354L17.7437 7.33555C17.9931 6.83676 17.6303 6.25 17.0729 6.25H6.71349L8.96349 10.75Z" fill="#16191D"/>
<path fill-rule="evenodd" clip-rule="evenodd" d="M7.99997 17.5C8.8284 17.5 9.49997 18.1716 9.49997 19V19.0313C9.49997 19.8597 8.8284 20.5313 7.99997 20.5313C7.17154 20.5313 6.49997 19.8597 6.49997 19.0313V19C6.49997 18.1716 7.17154 17.5 7.99997 17.5Z" fill="#16191D"/>
<path fill-rule="evenodd" clip-rule="evenodd" d="M16 17.5C16.8284 17.5 17.5 18.1716 17.5 19V19.0313C17.5 19.8597 16.8284 20.5313 16 20.5313C15.1715 20.5313 14.5 19.8597 14.5 19.0313V19C14.5 18.1716 15.1715 17.5 16 17.5Z" fill="#16191D"/>
</svg>
