<svg width="20" height="20" viewBox="0 0 20 20" fill="none" xmlns="http://www.w3.org/2000/svg">
<path fill-rule="evenodd" clip-rule="evenodd" d="M7.2323 1.75669C7.23238 1.34248 7.56823 1.00676 7.98244 1.00684H11.9822C12.3964 1.00676 12.7322 1.34248 12.7323 1.75669C12.7324 2.17091 12.3967 2.50676 11.9824 2.50684L10.75 2.50707V3.36493C12.5357 3.53641 14.1444 4.31387 15.3681 5.48924L15.6972 5.1601L15.5528 5.01568C15.2599 4.72279 15.2599 4.24791 15.5528 3.95502C15.8457 3.66213 16.3206 3.66213 16.6135 3.95502L18.0277 5.36924C18.3206 5.66213 18.3206 6.137 18.0277 6.4299C17.7348 6.72279 17.2599 6.72279 16.967 6.4299L16.7579 6.22076L16.3474 6.63124C17.2312 7.8902 17.75 9.42406 17.75 11.0791C17.75 15.3593 14.2802 18.8291 10 18.8291C5.71979 18.8291 2.25 15.3593 2.25 11.0791C2.25 7.05191 5.3217 3.74215 9.25 3.36493V2.50708L7.98216 2.50684C7.56794 2.50676 7.23222 2.17091 7.2323 1.75669ZM9.90994 4.82974C6.49968 4.87791 3.75 7.65739 3.75 11.0791C3.75 14.5309 6.54822 17.3291 10 17.3291C13.4518 17.3291 16.25 14.5309 16.25 11.0791C16.25 9.55457 15.7042 8.15752 14.7972 7.07274L14.2909 6.56641L14.3071 6.55017C13.2063 5.50288 11.724 4.85282 10.0901 4.82974C10.0605 4.83327 10.0305 4.83509 10 4.83509C9.96952 4.83509 9.93947 4.83327 9.90994 4.82974ZM10 6.25C10.4142 6.25 10.75 6.58579 10.75 7V11C10.75 11.4142 10.4142 11.75 10 11.75C9.58579 11.75 9.25 11.4142 9.25 11V7C9.25 6.58579 9.58579 6.25 10 6.25Z" fill="#576175"/>
</svg>
