<svg width="24" height="24" viewBox="0 0 24 24" fill="none" xmlns="http://www.w3.org/2000/svg">
<path d="M15.2891 4.41867H8.71094V3.75C8.71094 3.33579 8.37515 3 7.96094 3C7.54672 3 7.21094 3.33579 7.21094 3.75V4.41867H5.75391C4.23512 4.41867 3.00391 5.64989 3.00391 7.16867V18.2505C3.00391 19.7693 4.23512 21.0005 5.75391 21.0005H13.8225L12.8419 20.019C11.9636 19.1399 11.9643 17.7153 12.8434 16.837C13.7224 15.9587 15.1471 15.9594 16.0253 16.8385L16.2508 17.0641L18.6568 14.6559C19.2901 14.022 20.2074 13.8448 20.9995 14.1246V7.16867C20.9995 5.64989 19.7683 4.41867 18.2495 4.41867H16.7891V3.75C16.7891 3.33579 16.4533 3 16.0391 3C15.6248 3 15.2891 3.33579 15.2891 3.75V4.41867ZM7.96094 7.32785C8.37515 7.32785 8.71094 6.99206 8.71094 6.57785V5.91867H15.2891V6.57785C15.2891 6.99206 15.6248 7.32785 16.0391 7.32785C16.4533 7.32785 16.7891 6.99206 16.7891 6.57785V5.91867H18.2495C18.9399 5.91867 19.4995 6.47831 19.4995 7.16867V8.91476H4.50391V7.16867C4.50391 6.47831 5.06355 5.91867 5.75391 5.91867H7.21094V6.57785C7.21094 6.99206 7.54672 7.32785 7.96094 7.32785Z" fill="#16191D"/>
<path d="M20.7791 16.7762C21.0719 16.4831 21.0716 16.0083 20.7786 15.7155C20.4856 15.4228 20.0107 15.423 19.7179 15.716L16.2508 19.1865L14.9642 17.8987C14.6714 17.6056 14.1965 17.6054 13.9035 17.8982C13.6105 18.1909 13.6103 18.6658 13.903 18.9588L15.7202 20.7777C15.8609 20.9185 16.0517 20.9976 16.2508 20.9976C16.4498 20.9976 16.6407 20.9185 16.7813 20.7777L20.7791 16.7762Z" fill="#16191D"/>
</svg>
