<svg width="24" height="24" viewBox="0 0 24 24" fill="none" xmlns="http://www.w3.org/2000/svg">
<path fill-rule="evenodd" clip-rule="evenodd" d="M7.20813 6.57834C7.20813 6.99255 7.54392 7.32834 7.95813 7.32834C8.37234 7.32834 8.70813 6.99255 8.70813 6.57834V5.91867H15.2783V6.57834C15.2783 6.99255 15.6141 7.32834 16.0283 7.32834C16.4425 7.32834 16.7783 6.99255 16.7783 6.57834V5.91867H18.2365C18.9269 5.91867 19.4865 6.47831 19.4865 7.16867V8.91574H4.50012V7.16867C4.50012 6.47831 5.05977 5.91867 5.75012 5.91867H7.20813V6.57834ZM8.70813 4.41867H15.2783V3.75049C15.2783 3.33627 15.6141 3.00049 16.0283 3.00049C16.4425 3.00049 16.7783 3.33627 16.7783 3.75049V4.41867H18.2365C19.7553 4.41867 20.9865 5.64989 20.9865 7.16867V12.7096C20.9865 13.1238 20.6507 13.4596 20.2365 13.4596C19.8223 13.4596 19.4865 13.1238 19.4865 12.7096V10.4157H4.50012V18.2505C4.50012 18.9409 5.05977 19.5005 5.75012 19.5005H11.9933C12.4075 19.5005 12.7433 19.8363 12.7433 20.2505C12.7433 20.6648 12.4075 21.0005 11.9933 21.0005H5.75012C4.23134 21.0005 3.00012 19.7693 3.00012 18.2505V7.16867C3.00012 5.64989 4.23134 4.41867 5.75012 4.41867H7.20813V3.75049C7.20813 3.33627 7.54392 3.00049 7.95813 3.00049C8.37234 3.00049 8.70813 3.33627 8.70813 3.75049V4.41867ZM20.7806 16.7764C21.0733 16.4834 21.0731 16.0085 20.7801 15.7157C20.487 15.423 20.0122 15.4232 19.7194 15.7162L16.2522 19.1867L14.9656 17.8989C14.6729 17.6058 14.198 17.6056 13.905 17.8984C13.6119 18.1911 13.6117 18.666 13.9045 18.959L15.7216 20.7779C15.8623 20.9187 16.0532 20.9978 16.2522 20.9978C16.4513 20.9978 16.6421 20.9187 16.7828 20.7779L20.7806 16.7764Z" fill="#16191D"/>
</svg>
