<svg width="21" height="20" viewBox="0 0 21 20" fill="none" xmlns="http://www.w3.org/2000/svg">
<g clip-path="url(#clip0_1505_60581)">
<path fill-rule="evenodd" clip-rule="evenodd" d="M11.7244 2.95044C10.0934 2.55877 8.37714 2.74473 6.86792 3.47663C5.55527 4.11321 4.7268 5.2445 3.71578 6.62505C3.68479 6.66737 3.65363 6.70992 3.62227 6.7527H5.98873C6.40295 6.7527 6.73873 7.08849 6.73873 7.5027C6.73873 7.91692 6.40295 8.2527 5.98873 8.2527H0.996094V3.26006C0.996094 2.84585 1.33188 2.51006 1.74609 2.51006C2.16031 2.51006 2.49609 2.84585 2.49609 3.26006V5.74987C2.50157 5.74234 2.50705 5.73481 2.51253 5.72728C3.48679 4.38839 4.54282 2.93712 6.21339 2.12697C8.03486 1.24364 10.1063 1.0192 12.0747 1.4919C14.0431 1.96461 15.7867 3.1052 17.0084 4.71934C18.2301 6.33348 18.8543 8.3213 18.7747 10.3441C18.6951 12.3669 17.9166 14.2995 16.5718 15.8126C15.227 17.3258 13.3992 18.3258 11.3997 18.6424C9.40027 18.9589 7.35291 18.5724 5.60649 17.5487C3.86007 16.5249 2.52265 14.9273 1.82211 13.028C1.67876 12.6394 1.8776 12.2081 2.26622 12.0648C2.65484 11.9215 3.08608 12.1203 3.22943 12.5089C3.80988 14.0826 4.91803 15.4064 6.36506 16.2546C7.81209 17.1028 9.50847 17.4231 11.1652 17.1608C12.8219 16.8985 14.3364 16.0699 15.4506 14.8162C16.5648 13.5624 17.2099 11.9611 17.2759 10.2851C17.3418 8.60908 16.8246 6.96203 15.8123 5.6246C14.8001 4.28717 13.3554 3.3421 11.7244 2.95044ZM9.65043 4.25C10.0646 4.25 10.4004 4.58579 10.4004 5V9.42029C10.4004 9.50992 10.4484 9.5927 10.5262 9.63724L13.0139 11.0618C13.3733 11.2676 13.4978 11.7259 13.292 12.0853C13.0862 12.4448 12.6279 12.5693 12.2684 12.3635L9.7808 10.9389C9.23633 10.6271 8.90043 10.0477 8.90043 9.42029V5C8.90043 4.58579 9.23622 4.25 9.65043 4.25Z" fill="#576175"/>
</g>
<defs>
<clipPath id="clip0_1505_60581">
<rect width="20" height="20" fill="white" transform="matrix(-1 0 0 1 20.0312 0)"/>
</clipPath>
</defs>
</svg>
