<svg width="20" height="20" viewBox="0 0 20 20" fill="none" xmlns="http://www.w3.org/2000/svg">
<path fill-rule="evenodd" clip-rule="evenodd" d="M10.0001 2.29102C7.40868 2.29102 5.2461 4.50826 5.2461 7.32228V10.0622C5.2461 10.2287 5.21283 10.3935 5.14826 10.547L3.42315 14.6468H16.577L14.8519 10.547C14.7873 10.3935 14.754 10.2287 14.754 10.0622V7.32228C14.754 4.50894 12.5921 2.29102 10.0001 2.29102ZM3.7461 7.32228C3.7461 3.75016 6.51163 0.791016 10.0001 0.791016C13.4894 0.791016 16.254 3.75113 16.254 7.32228V10.0117L18.1056 14.412C18.4522 15.2359 17.8473 16.1468 16.9534 16.1468H12.6533C12.662 16.2386 12.6664 16.3314 12.6664 16.425C12.6664 17.9197 11.5142 19.2094 10.0002 19.2094C8.4862 19.2094 7.33395 17.9197 7.33395 16.425C7.33395 16.3314 7.33834 16.2386 7.34708 16.1468H3.04673C2.15288 16.1468 1.5479 15.2359 1.89457 14.412L3.7461 10.0117V7.32228ZM8.85994 16.1542C8.843 16.2398 8.83395 16.3303 8.83395 16.425C8.83395 17.1771 9.39792 17.7094 10.0002 17.7094C10.6025 17.7094 11.1664 17.1771 11.1664 16.425C11.1664 16.3367 11.1586 16.2522 11.1438 16.1718L8.85994 16.1542Z" fill="#576175"/>
</svg>
