<svg width="20" height="20" viewBox="0 0 20 20" fill="none" xmlns="http://www.w3.org/2000/svg">
<path fill-rule="evenodd" clip-rule="evenodd" d="M5.96228 1.00293C6.37649 1.00293 6.71228 1.33872 6.71228 1.75293V2.42106H13.287V1.75293C13.287 1.33872 13.6228 1.00293 14.037 1.00293C14.4512 1.00293 14.787 1.33872 14.787 1.75293V2.42106H16.2476C17.7663 2.42106 18.9976 3.65228 18.9976 5.17106V10.712C18.9976 11.1262 18.6618 11.462 18.2476 11.462C17.8333 11.462 17.4976 11.1262 17.4976 10.712V8.4179H2.50195V16.2529C2.50195 16.9433 3.0616 17.5029 3.75195 17.5029H9.99976C10.414 17.5029 10.7498 17.8387 10.7498 18.2529C10.7498 18.6671 10.414 19.0029 9.99976 19.0029H3.75195C2.23317 19.0029 1.00195 17.7717 1.00195 16.2529V5.17106C1.00195 3.65228 2.23317 2.42106 3.75195 2.42106H5.21228V1.75293C5.21228 1.33872 5.54807 1.00293 5.96228 1.00293ZM5.21228 3.92106H3.75195C3.0616 3.92106 2.50195 4.4807 2.50195 5.17106V6.9179H17.4976V5.17106C17.4976 4.4807 16.9379 3.92106 16.2476 3.92106H14.787V4.58078C14.787 4.99499 14.4512 5.33078 14.037 5.33078C13.6228 5.33078 13.287 4.99499 13.287 4.58078V3.92106H6.71228V4.58078C6.71228 4.99499 6.37649 5.33078 5.96228 5.33078C5.54807 5.33078 5.21228 4.99499 5.21228 4.58078V3.92106ZM15.34 11.6795C15.7542 11.6795 16.09 12.0153 16.09 12.4295V14.5906L18.2499 14.5908C18.6641 14.5908 18.9999 14.9266 18.9999 15.3408C18.9999 15.755 18.6641 16.0908 18.2498 16.0908L16.09 16.0906V18.2517C16.09 18.6659 15.7542 19.0017 15.34 19.0017C14.9258 19.0017 14.59 18.6659 14.59 18.2517V16.0906L12.4299 16.0908C12.0157 16.0908 11.6799 15.755 11.6799 15.3408C11.6799 14.9266 12.0156 14.5908 12.4298 14.5908L14.59 14.5906V12.4295C14.59 12.0153 14.9258 11.6795 15.34 11.6795Z" fill="#576175"/>
</svg>
