<svg width="24" height="24" viewBox="0 0 24 24" fill="none" xmlns="http://www.w3.org/2000/svg">
<path d="M14.0744 3.4919C12.106 3.0192 10.0346 3.24364 8.21317 4.12697C6.54259 4.93712 5.48656 6.38839 4.5123 7.72728L4.49587 7.74987L4.49587 5.25995C4.49586 4.84574 4.16008 4.50995 3.74587 4.50995C3.33165 4.50995 2.99586 4.84574 2.99586 5.25995V9.50259C2.99586 9.9168 3.33165 10.2526 3.74587 10.2526H7.98851C8.40272 10.2526 8.73851 9.9168 8.73851 9.50259C8.73851 9.08838 8.40272 8.75259 7.98851 8.75259H5.62213L5.71553 8.62508C6.72654 7.24454 7.55505 6.11321 8.86769 5.47663C10.3769 4.74473 12.0932 4.55877 13.7242 4.95044C15.3551 5.3421 16.7998 6.28717 17.8121 7.6246C18.8244 8.96203 19.3416 10.6091 19.2756 12.2851C19.2097 13.9611 18.5646 15.5624 17.4504 16.8162C16.3361 18.0699 14.8216 18.8985 13.1649 19.1608C11.5082 19.4231 9.81186 19.1028 8.36483 18.2546C6.9178 17.4064 5.80965 16.0826 5.2292 14.5089C5.08586 14.1203 4.65462 13.9215 4.266 14.0648C3.87737 14.2081 3.67854 14.6394 3.82188 15.028C4.52242 16.9273 5.85984 18.5249 7.60626 19.5487C9.35268 20.5724 11.4 20.9589 13.3995 20.6424C15.399 20.3258 17.2268 19.3258 18.5716 17.8126C19.9164 16.2995 20.6949 14.3669 20.7745 12.3441C20.8541 10.3213 20.2298 8.33348 19.0081 6.71934C17.7864 5.1052 16.0428 3.96461 14.0744 3.4919Z" fill="#16191D"/>
<path d="M12.4002 7C12.4002 6.58579 12.0644 6.25 11.6502 6.25C11.236 6.25 10.9002 6.58579 10.9002 7V11.4203C10.9002 12.0477 11.2361 12.6271 11.7806 12.9389L14.2682 14.3635C14.6277 14.5693 15.0859 14.4448 15.2918 14.0853C15.4976 13.7259 15.3731 13.2676 15.0136 13.0618L12.526 11.6372C12.4482 11.5927 12.4002 11.5099 12.4002 11.4203V7Z" fill="#16191D"/>
</svg>
