<svg width="20" height="20" viewBox="0 0 20 20" fill="none" xmlns="http://www.w3.org/2000/svg">
<path fill-rule="evenodd" clip-rule="evenodd" d="M5.95801 1C6.37222 1 6.70801 1.33579 6.70801 1.75V2.41867H13.2783V1.75C13.2783 1.33579 13.6141 1 14.0283 1C14.4425 1 14.7783 1.33579 14.7783 1.75V2.41867H16.2364C17.7552 2.41867 18.9864 3.64989 18.9864 5.16867V10.7096C18.9864 11.1238 18.6506 11.4596 18.2364 11.4596C17.8222 11.4596 17.4864 11.1238 17.4864 10.7096V8.41476H2.5V16.2505C2.5 16.9409 3.05964 17.5005 3.75 17.5005H9.9932C10.4074 17.5005 10.7432 17.8363 10.7432 18.2505C10.7432 18.6648 10.4074 19.0005 9.9932 19.0005H3.75C2.23122 19.0005 1 17.7693 1 16.2505V5.16867C1 3.64989 2.23122 2.41867 3.75 2.41867H5.20801V1.75C5.20801 1.33579 5.54379 1 5.95801 1ZM5.20801 3.91867H3.75C3.05964 3.91867 2.5 4.47831 2.5 5.16867V6.91476H17.4864V5.16867C17.4864 4.47831 16.9267 3.91867 16.2364 3.91867H14.7783V4.57785C14.7783 4.99206 14.4425 5.32785 14.0283 5.32785C13.6141 5.32785 13.2783 4.99206 13.2783 4.57785V3.91867H6.70801V4.57785C6.70801 4.99206 6.37222 5.32785 5.95801 5.32785C5.54379 5.32785 5.20801 4.99206 5.20801 4.57785V3.91867ZM18.7801 13.7152C19.0731 14.008 19.0733 14.4829 18.7806 14.7759L14.7828 18.7774C14.6421 18.9182 14.4513 18.9973 14.2522 18.9973C14.0532 18.9973 13.8623 18.9182 13.7216 18.7774L11.9045 16.9586C11.6117 16.6655 11.6119 16.1906 11.905 15.8979C12.198 15.6051 12.6729 15.6054 12.9656 15.8984L14.2522 17.1862L17.7194 13.7157C18.0122 13.4227 18.487 13.4225 18.7801 13.7152Z" fill="#576175"/>
</svg>
