<svg width="24" height="24" viewBox="0 0 24 24" fill="none" xmlns="http://www.w3.org/2000/svg">
<path d="M15.2891 4.41867H8.71094V3.75C8.71094 3.33579 8.37515 3 7.96094 3C7.54672 3 7.21094 3.33579 7.21094 3.75V4.41867H5.75391C4.23512 4.41867 3.00391 5.64989 3.00391 7.16867V18.2505C3.00391 19.7693 4.23512 21.0005 5.75391 21.0005H15.2171C15.1345 20.7663 15.0895 20.5144 15.0895 20.2519V19.5908H14.4297C13.187 19.5908 12.1797 18.5835 12.1797 17.3408C12.1797 16.0982 13.187 15.0908 14.4297 15.0908H15.0895V14.4297C15.0895 13.187 16.0969 12.1797 17.3395 12.1797C18.5822 12.1797 19.5895 13.187 19.5895 14.4297V15.0908H20.2497C20.5126 15.0908 20.765 15.1359 20.9995 15.2188V7.16867C20.9995 5.64989 19.7683 4.41867 18.2495 4.41867H16.7891V3.75C16.7891 3.33579 16.4533 3 16.0391 3C15.6248 3 15.2891 3.33579 15.2891 3.75V4.41867ZM7.96094 7.32785C8.37515 7.32785 8.71094 6.99206 8.71094 6.57785V5.91867H15.2891V6.57785C15.2891 6.99206 15.6248 7.32785 16.0391 7.32785C16.4533 7.32785 16.7891 6.99206 16.7891 6.57785V5.91867H18.2495C18.9399 5.91867 19.4995 6.47831 19.4995 7.16867V8.91476H4.50391V7.16867C4.50391 6.47831 5.06355 5.91867 5.75391 5.91867H7.21094V6.57785C7.21094 6.99206 7.54672 7.32785 7.96094 7.32785Z" fill="#16191D"/>
<path d="M17.3395 13.6797C17.7537 13.6797 18.0895 14.0155 18.0895 14.4297V16.5908H20.2497C20.6639 16.5908 20.9997 16.9266 20.9997 17.3408C20.9997 17.755 20.6639 18.0908 20.2497 18.0908H18.0895V20.2519C18.0895 20.6661 17.7537 21.0019 17.3395 21.0019C16.9253 21.0019 16.5895 20.6661 16.5895 20.2519V18.0908H14.4297C14.0155 18.0908 13.6797 17.755 13.6797 17.3408C13.6797 16.9266 14.0155 16.5908 14.4297 16.5908H16.5895V14.4297C16.5895 14.0155 16.9253 13.6797 17.3395 13.6797Z" fill="#16191D"/>
</svg>
