<svg width="24" height="24" viewBox="0 0 24 24" fill="none" xmlns="http://www.w3.org/2000/svg">
<path d="M12.75 9.00049C12.75 8.58627 12.4142 8.25049 12 8.25049C11.5858 8.25049 11.25 8.58627 11.25 9.00049V13.0005C11.25 13.4147 11.5858 13.7505 12 13.7505C12.4142 13.7505 12.75 13.4147 12.75 13.0005V9.00049Z" fill="#16191D"/>
<path fill-rule="evenodd" clip-rule="evenodd" d="M9.2323 3.75718C9.23238 3.34297 9.56823 3.00725 9.98244 3.00732H13.9822C14.3964 3.00724 14.7322 3.34297 14.7323 3.75718C14.7324 4.17139 14.3967 4.50724 13.9824 4.50732L12.75 4.50756V5.36541C14.5358 5.5369 16.1445 6.31438 17.3681 7.48978L17.6972 7.16069L17.5528 7.01628C17.2599 6.72339 17.2599 6.24852 17.5528 5.95562C17.8457 5.66273 18.3206 5.66273 18.6135 5.95562L20.0277 7.36984C20.3206 7.66273 20.3206 8.1376 20.0277 8.4305C19.7348 8.72339 19.2599 8.72339 18.967 8.4305L18.7579 8.22135L18.3474 8.63179C19.2312 9.89073 19.75 11.4246 19.75 13.0796C19.75 17.3598 16.2802 20.8296 12 20.8296C7.71979 20.8296 4.25 17.3598 4.25 13.0796C4.25 9.0524 7.3217 5.74264 11.25 5.36541V4.50756L9.98216 4.50732C9.56794 4.50725 9.23222 4.1714 9.2323 3.75718ZM16.3072 8.55071L16.2909 8.56701L16.7979 9.07397C17.7044 10.1586 18.25 11.5554 18.25 13.0796C18.25 16.5314 15.4518 19.3296 12 19.3296C8.54822 19.3296 5.75 16.5314 5.75 13.0796C5.75 9.65788 8.49968 6.87839 11.9099 6.83023C11.9395 6.83376 11.9695 6.83558 12 6.83558C12.0305 6.83558 12.0605 6.83376 12.0901 6.83023C13.724 6.8533 15.2063 7.50339 16.3072 8.55071Z" fill="#16191D"/>
</svg>
