<svg width="21" height="20" viewBox="0 0 21 20" fill="none" xmlns="http://www.w3.org/2000/svg">
<g clip-path="url(#clip0_1505_60594)">
<path fill-rule="evenodd" clip-rule="evenodd" d="M10.125 1.5C5.43058 1.5 1.625 5.30558 1.625 10C1.625 14.6944 5.43058 18.5 10.125 18.5C14.8194 18.5 18.625 14.6944 18.625 10C18.625 5.30558 14.8194 1.5 10.125 1.5ZM0.125 10C0.125 4.47715 4.60215 0 10.125 0C15.6478 0 20.125 4.47715 20.125 10C20.125 15.5228 15.6478 20 10.125 20C4.60215 20 0.125 15.5228 0.125 10ZM10 4.25C10.4142 4.25 10.75 4.58579 10.75 5V9.42029C10.75 9.50992 10.798 9.5927 10.8758 9.63724L13.3634 11.0618C13.7229 11.2676 13.8474 11.7259 13.6416 12.0853C13.4357 12.4448 12.9775 12.5693 12.618 12.3635L10.1304 10.9389C9.58589 10.6271 9.25 10.0477 9.25 9.42029V5C9.25 4.58579 9.58579 4.25 10 4.25Z" fill="#576175"/>
</g>
<defs>
<clipPath id="clip0_1505_60594">
<rect width="20" height="20" fill="white" transform="translate(0.125)"/>
</clipPath>
</defs>
</svg>
