<svg width="24" height="24" viewBox="0 0 24 24" fill="none" xmlns="http://www.w3.org/2000/svg">
<path fill-rule="evenodd" clip-rule="evenodd" d="M12.125 2C6.60215 2 2.125 6.47715 2.125 12C2.125 17.5228 6.60215 22 12.125 22C17.6478 22 22.125 17.5228 22.125 12C22.125 6.47715 17.6478 2 12.125 2ZM12.75 7C12.75 6.58579 12.4142 6.25 12 6.25C11.5858 6.25 11.25 6.58579 11.25 7V11.4203C11.25 12.0477 11.5859 12.6271 12.1304 12.9389L14.618 14.3635C14.9775 14.5693 15.4357 14.4448 15.6416 14.0853C15.8474 13.7259 15.7229 13.2676 15.3634 13.0618L12.8758 11.6372C12.798 11.5927 12.75 11.5099 12.75 11.4203V7Z" fill="#16191D"/>
</svg>
