<svg xmlns="http://www.w3.org/2000/svg" width="24" height="24" viewBox="0 0 24 24" fill="none">
  <path d="M12.75 9.00098C12.75 8.58676 12.4142 8.25098 12 8.25098C11.5858 8.25098 11.25 8.58676 11.25 9.00098V13.001C11.25 13.4152 11.5858 13.751 12 13.751C12.4142 13.751 12.75 13.4152 12.75 13.001V9.00098Z" fill="#16191D"/>
  <path d="M9.2323 3.75767C9.23238 3.34346 9.56823 3.00773 9.98244 3.00781H13.9822C14.3964 3.00773 14.7322 3.34345 14.7323 3.75767C14.7324 4.17188 14.3967 4.50773 13.9824 4.50781L12.75 4.50805V5.3659C14.5358 5.53738 16.1445 6.31487 17.3681 7.49027L17.6972 7.16118L17.5528 7.01677C17.2599 6.72388 17.2599 6.249 17.5528 5.95611C17.8457 5.66322 18.3206 5.66322 18.6135 5.95611L20.0277 7.37033C20.3206 7.66322 20.3206 8.13809 20.0277 8.43098C19.7348 8.72388 19.2599 8.72388 18.967 8.43098L18.7579 8.22184L18.3474 8.63228C19.2312 9.89122 19.75 11.4251 19.75 13.0801C19.75 17.3603 16.2802 20.8301 12 20.8301C7.71979 20.8301 4.25 17.3603 4.25 13.0801C4.25 9.05289 7.3217 5.74313 11.25 5.3659V4.50805L9.98216 4.50781C9.56794 4.50773 9.23222 4.17188 9.2323 3.75767ZM16.3072 8.5512C15.2063 7.50388 13.724 6.85379 12.0901 6.83071C12.0605 6.83425 12.0305 6.83607 12 6.83607C11.9695 6.83607 11.9395 6.83425 11.9099 6.83071C8.49968 6.87888 5.75 9.65837 5.75 13.0801C5.75 16.5319 8.54822 19.3301 12 19.3301C15.4518 19.3301 18.25 16.5319 18.25 13.0801C18.25 11.5559 17.7044 10.1591 16.7979 9.07446L16.2909 8.5675L16.3072 8.5512Z" fill="#16191D"/>
</svg>