<svg width="24" height="24" viewBox="0 0 24 24" fill="none" xmlns="http://www.w3.org/2000/svg">
<path fill-rule="evenodd" clip-rule="evenodd" d="M15.2872 4.4216H8.71252V3.75342C8.71252 3.3392 8.37674 3.00342 7.96252 3.00342C7.54831 3.00342 7.21252 3.3392 7.21252 3.75342V4.4216H5.7522C4.23341 4.4216 3.0022 5.65282 3.0022 7.1716V18.2535C3.0022 19.7723 4.23341 21.0035 5.7522 21.0035H12C12.4142 21.0035 12.75 20.6677 12.75 20.2535C12.75 19.8393 12.4142 19.5035 12 19.5035H5.7522C5.06184 19.5035 4.5022 18.9438 4.5022 18.2535V10.4187H19.4978V12.7125C19.4978 13.1267 19.8336 13.4625 20.2478 13.4625C20.662 13.4625 20.9978 13.1267 20.9978 12.7125V7.1716C20.9978 5.65282 19.7666 4.4216 18.2478 4.4216H16.7872V3.75342C16.7872 3.3392 16.4514 3.00342 16.0372 3.00342C15.623 3.00342 15.2872 3.3392 15.2872 3.75342V4.4216ZM7.96252 7.33127C7.54831 7.33127 7.21252 6.99548 7.21252 6.58127V5.9216H5.7522C5.06184 5.9216 4.5022 6.48124 4.5022 7.1716V8.91867H19.4978V7.1716C19.4978 6.48124 18.9382 5.9216 18.2478 5.9216H16.7872V6.58127C16.7872 6.99548 16.4514 7.33127 16.0372 7.33127C15.623 7.33127 15.2872 6.99548 15.2872 6.58127V5.9216H8.71252V6.58127C8.71252 6.99548 8.37674 7.33127 7.96252 7.33127Z" fill="#16191D"/>
<path d="M17.3402 13.6799C17.7544 13.6799 18.0902 14.0157 18.0902 14.4299V16.5915H20.2501C20.6643 16.5915 21.0001 16.9273 21.0001 17.3415C21.0001 17.7557 20.6643 18.0915 20.2501 18.0915H18.0902V20.2521C18.0902 20.6663 17.7544 21.0021 17.3402 21.0021C16.926 21.0021 16.5902 20.6663 16.5902 20.2521V18.0915H14.4301C14.0159 18.0915 13.6801 17.7557 13.6801 17.3415C13.6801 16.9273 14.0159 16.5915 14.4301 16.5915H16.5902V14.4299C16.5902 14.0157 16.926 13.6799 17.3402 13.6799Z" fill="#16191D"/>
</svg>
