<svg width="24" height="24" viewBox="0 0 24 24" fill="none" xmlns="http://www.w3.org/2000/svg">
<path fill-rule="evenodd" clip-rule="evenodd" d="M15.2872 4.41867H8.71252V3.75049C8.71252 3.33627 8.37674 3.00049 7.96252 3.00049C7.54831 3.00049 7.21252 3.33627 7.21252 3.75049V4.41867H5.7522C4.23341 4.41867 3.0022 5.64989 3.0022 7.16867V18.2505C3.0022 19.7693 4.23341 21.0005 5.7522 21.0005H18.2478C19.7666 21.0005 20.9978 19.7693 20.9978 18.2505V7.16867C20.9978 5.64989 19.7666 4.41867 18.2478 4.41867H16.7872V3.75049C16.7872 3.33627 16.4514 3.00049 16.0372 3.00049C15.623 3.00049 15.2872 3.33627 15.2872 3.75049V4.41867ZM7.96252 7.32834C7.54831 7.32834 7.21252 6.99255 7.21252 6.57834V5.91867H5.7522C5.06184 5.91867 4.5022 6.47831 4.5022 7.16867V8.91574H19.4978V7.16867C19.4978 6.47831 18.9382 5.91867 18.2478 5.91867H16.7872V6.57834C16.7872 6.99255 16.4514 7.32834 16.0372 7.32834C15.623 7.32834 15.2872 6.99255 15.2872 6.57834V5.91867H8.71252V6.57834C8.71252 6.99255 8.37674 7.32834 7.96252 7.32834ZM4.5022 10.4157V18.2505C4.5022 18.9409 5.06184 19.5005 5.7522 19.5005H18.2478C18.9382 19.5005 19.4978 18.9409 19.4978 18.2505V10.4157H4.5022Z" fill="#16191D"/>
</svg>
