<svg width="24" height="24" viewBox="0 0 24 24" fill="none" xmlns="http://www.w3.org/2000/svg">
<path d="M12 2.7915C8.51151 2.7915 5.74598 5.75065 5.74598 9.32277V12.0122L3.89445 16.4125C3.54777 17.2363 4.15276 18.1473 5.0466 18.1473H9.347C9.33826 18.2391 9.33386 18.332 9.33386 18.4255C9.33386 19.9202 10.4861 21.21 12.0001 21.21C13.5141 21.21 14.6664 19.9202 14.6664 18.4255C14.6664 18.332 14.662 18.2391 14.6532 18.1473H18.9533C19.8471 18.1473 20.4521 17.2363 20.1055 16.4125L18.2539 12.0122V9.32277C18.2539 5.75162 15.4893 2.7915 12 2.7915ZM7.24598 9.32277C7.24598 6.50874 9.40856 4.2915 12 4.2915C14.592 4.2915 16.7539 6.50943 16.7539 9.32277V12.0626C16.7539 12.2291 16.7872 12.394 16.8518 12.5474L18.5769 16.6473H5.42303L7.14814 12.5474C7.21271 12.394 7.24598 12.2291 7.24598 12.0626V9.32277ZM10.8599 18.1547L13.1437 18.1724C13.1585 18.2528 13.1664 18.3373 13.1664 18.4255C13.1664 19.1776 12.6024 19.71 12.0001 19.71C11.3978 19.71 10.8339 19.1776 10.8339 18.4255C10.8339 18.3308 10.8429 18.2404 10.8599 18.1547Z" fill="#16191D"/>
</svg>
