<svg width="24" height="24" viewBox="0 0 24 24" fill="none" xmlns="http://www.w3.org/2000/svg">
<path fill-rule="evenodd" clip-rule="evenodd" d="M9.98061 3.00684C9.5664 3.00676 9.23055 3.34248 9.23047 3.75669C9.23039 4.17091 9.56611 4.50676 9.98033 4.50684L11.2482 4.50708V5.3651C7.32074 5.74318 4.25 9.05254 4.25 13.0791C4.25 17.3593 7.71979 20.8291 12 20.8291C16.2802 20.8291 19.75 17.3593 19.75 13.0791C19.75 11.4241 19.2312 9.8902 18.3474 8.63124L18.7573 8.2213L18.9659 8.4299C19.2588 8.72279 19.7337 8.72279 20.0266 8.4299C20.3195 8.137 20.3195 7.66213 20.0266 7.36924L18.6124 5.95502C18.3195 5.66213 17.8446 5.66213 17.5517 5.95502C17.2588 6.24791 17.2588 6.72279 17.5517 7.01568L17.6967 7.16064L17.3681 7.48924C16.144 6.31347 14.5346 5.53587 12.7482 5.36475V4.50707L13.9806 4.50684C14.3948 4.50676 14.7305 4.17091 14.7305 3.75669C14.7304 3.34248 14.3945 3.00676 13.9803 3.00684H9.98061ZM12 8.25C12.4142 8.25 12.75 8.58579 12.75 9V13C12.75 13.4142 12.4142 13.75 12 13.75C11.5858 13.75 11.25 13.4142 11.25 13V9C11.25 8.58579 11.5858 8.25 12 8.25Z" fill="#16191D"/>
</svg>
