<svg width="24" height="24" viewBox="0 0 24 24" fill="none" xmlns="http://www.w3.org/2000/svg">
<path d="M12.0015 2.79102C8.51309 2.79102 5.74756 5.75016 5.74756 9.32228V12.0117L3.89603 16.412C3.54936 17.2359 4.15435 18.1468 5.04819 18.1468H9.34512C9.33641 18.2385 9.33203 18.3311 9.33203 18.4246C9.33203 19.9193 10.4843 21.209 11.9983 21.209C13.5123 21.209 14.6645 19.9193 14.6645 18.4246C14.6645 18.3311 14.6601 18.2385 14.6514 18.1468H18.9549C19.8487 18.1468 20.4537 17.2359 20.107 16.412L18.2555 12.0117V9.32228C18.2555 5.75113 15.4909 2.79102 12.0015 2.79102ZM10.858 18.1537L13.1419 18.1714C13.1567 18.2518 13.1645 18.3363 13.1645 18.4246C13.1645 19.1766 12.6006 19.709 11.9983 19.709C11.396 19.709 10.832 19.1766 10.832 18.4246C10.832 18.3298 10.8411 18.2394 10.858 18.1537Z" fill="#16191D"/>
</svg>
