<svg width="20" height="20" viewBox="0 0 20 20" fill="none" xmlns="http://www.w3.org/2000/svg">
<path fill-rule="evenodd" clip-rule="evenodd" d="M5.96228 1C6.37649 1 6.71228 1.33579 6.71228 1.75V2.41813H13.287V1.75C13.287 1.33579 13.6228 1 14.037 1C14.4512 1 14.787 1.33579 14.787 1.75V2.41813H16.2476C17.7663 2.41813 18.9976 3.64935 18.9976 5.16813V16.25C18.9976 17.7688 17.7663 19 16.2476 19H3.75195C2.23317 19 1.00195 17.7688 1.00195 16.25V5.16813C1.00195 3.64935 2.23317 2.41813 3.75195 2.41813H5.21228V1.75C5.21228 1.33579 5.54807 1 5.96228 1ZM5.21228 3.91813H3.75195C3.0616 3.91813 2.50195 4.47777 2.50195 5.16813V6.91497H17.4976V5.16813C17.4976 4.47778 16.9379 3.91813 16.2476 3.91813H14.787V4.57785C14.787 4.99206 14.4512 5.32785 14.037 5.32785C13.6228 5.32785 13.287 4.99206 13.287 4.57785V3.91813H6.71228V4.57785C6.71228 4.99206 6.37649 5.32785 5.96228 5.32785C5.54807 5.32785 5.21228 4.99206 5.21228 4.57785V3.91813ZM17.4976 8.41497H2.50195V16.25C2.50195 16.9404 3.0616 17.5 3.75195 17.5H16.2476C16.9379 17.5 17.4976 16.9404 17.4976 16.25V8.41497Z" fill="#576175"/>
</svg>
