<svg width="24" height="24" viewBox="0 0 24 24" fill="none" xmlns="http://www.w3.org/2000/svg">
<path d="M9.98061 3.00732C9.5664 3.00725 9.23055 3.34297 9.23047 3.75718C9.23039 4.1714 9.56611 4.50725 9.98033 4.50732L11.2482 4.50756V5.36559C7.32074 5.74367 4.25 9.05302 4.25 13.0796C4.25 17.3598 7.71979 20.8296 12 20.8296C16.2802 20.8296 19.75 17.3598 19.75 13.0796C19.75 11.4246 19.2312 9.89068 18.3474 8.63173L18.7573 8.22179L18.9659 8.43038C19.2588 8.72328 19.7337 8.72328 20.0266 8.43038C20.3195 8.13749 20.3195 7.66262 20.0266 7.36972L18.6124 5.95551C18.3195 5.66262 17.8446 5.66262 17.5517 5.95551C17.2588 6.2484 17.2588 6.72328 17.5517 7.01617L17.6967 7.16113L17.3681 7.48973C16.144 6.31396 14.5346 5.53636 12.7482 5.36524V4.50756L13.9806 4.50732C14.3948 4.50724 14.7305 4.17139 14.7305 3.75718C14.7304 3.34297 14.3945 3.00724 13.9803 3.00732H9.98061ZM12 8.25049C12.4142 8.25049 12.75 8.58627 12.75 9.00049V13.0005C12.75 13.4147 12.4142 13.7505 12 13.7505C11.5858 13.7505 11.25 13.4147 11.25 13.0005V9.00049C11.25 8.58627 11.5858 8.25049 12 8.25049Z" fill="#16191D"/>
</svg>
