<svg width="24" height="24" viewBox="0 0 24 24" fill="none" xmlns="http://www.w3.org/2000/svg">
<path fill-rule="evenodd" clip-rule="evenodd" d="M12 2.79102C8.51151 2.79102 5.74598 5.75016 5.74598 9.32228V12.0117L3.89445 16.412C3.54777 17.2359 4.15276 18.1468 5.0466 18.1468H9.347C9.33826 18.2386 9.33386 18.3315 9.33386 18.4251C9.33386 19.9197 10.4861 21.2095 12.0001 21.2095C13.5141 21.2095 14.6664 19.9197 14.6664 18.4251C14.6664 18.3315 14.662 18.2386 14.6532 18.1468H18.9533C19.8471 18.1468 20.4521 17.2359 20.1055 16.412L18.2539 12.0117V9.32228C18.2539 5.75113 15.4893 2.79102 12 2.79102ZM7.24598 9.32228C7.24598 6.50826 9.40856 4.29102 12 4.29102C14.592 4.29102 16.7539 6.50894 16.7539 9.32228V12.0622C16.7539 12.2287 16.7872 12.3935 16.8518 12.547L18.5769 16.6468H5.42303L7.14814 12.547C7.21271 12.3935 7.24598 12.2287 7.24598 12.0622V9.32228ZM10.8599 18.1542L13.1437 18.1719C13.1585 18.2523 13.1664 18.3368 13.1664 18.4251C13.1664 19.1771 12.6024 19.7095 12.0001 19.7095C11.3978 19.7095 10.8339 19.1771 10.8339 18.4251C10.8339 18.3303 10.8429 18.2399 10.8599 18.1542Z" fill="#16191D"/>
</svg>
