<svg width="24" height="24" viewBox="0 0 24 24" fill="none" xmlns="http://www.w3.org/2000/svg">
<path d="M14.0744 3.49239C12.106 3.01969 10.0346 3.24412 8.21317 4.12746C6.54259 4.93761 5.48656 6.38888 4.5123 7.72777L4.49587 7.75035L4.49587 5.26044C4.49586 4.84622 4.16008 4.51044 3.74587 4.51044C3.33165 4.51044 2.99586 4.84622 2.99586 5.26044V9.50308C2.99586 9.91729 3.33165 10.2531 3.74587 10.2531H7.98851C8.40272 10.2531 8.73851 9.91729 8.73851 9.50308C8.73851 9.08886 8.40272 8.75308 7.98851 8.75308H5.62213L5.71553 8.62557C6.72654 7.24502 7.55505 6.1137 8.86769 5.47712C10.3769 4.74522 12.0932 4.55926 13.7242 4.95092C15.3551 5.34259 16.7998 6.28765 17.8121 7.62509C18.8244 8.96252 19.3416 10.6096 19.2756 12.2856C19.2097 13.9616 18.5646 15.5629 17.4504 16.8167C16.3361 18.0704 14.8216 18.899 13.1649 19.1613C11.5082 19.4236 9.81186 19.1033 8.36483 18.2551C6.9178 17.4068 5.80965 16.0831 5.2292 14.5094C5.08586 14.1208 4.65462 13.922 4.266 14.0653C3.87737 14.2086 3.67854 14.6399 3.82188 15.0285C4.52242 16.9278 5.85984 18.5254 7.60626 19.5491C9.35268 20.5729 11.4 20.9594 13.3995 20.6429C15.399 20.3263 17.2268 19.3263 18.5716 17.8131C19.9164 16.3 20.6949 14.3674 20.7745 12.3446C20.8541 10.3218 20.2298 8.33397 19.0081 6.71983C17.7864 5.10569 16.0428 3.96509 14.0744 3.49239Z" fill="#16191D"/>
<path d="M12.4002 7.00049C12.4002 6.58627 12.0644 6.25049 11.6502 6.25049C11.236 6.25049 10.9002 6.58627 10.9002 7.00049V11.4208C10.9002 12.0482 11.2361 12.6276 11.7806 12.9394L14.2682 14.3639C14.6277 14.5698 15.0859 14.4453 15.2918 14.0858C15.4976 13.7264 15.3731 13.2681 15.0136 13.0623L12.526 11.6377C12.4482 11.5932 12.4002 11.5104 12.4002 11.4208V7.00049Z" fill="#16191D"/>
</svg>
