<svg width="32" height="32" viewBox="0 0 32 32" fill="none" xmlns="http://www.w3.org/2000/svg">
<path d="M25.3333 5.33335H24V4.00002C24 3.26669 23.4 2.66669 22.6667 2.66669C21.9333 2.66669 21.3333 3.26669 21.3333 4.00002V5.33335H10.6667V4.00002C10.6667 3.26669 10.0667 2.66669 9.33333 2.66669C8.6 2.66669 8 3.26669 8 4.00002V5.33335H6.66667C5.18667 5.33335 4.01333 6.53335 4.01333 8.00002L4 26.6667C4 28.1334 5.18667 29.3334 6.66667 29.3334H25.3333C26.8 29.3334 28 28.1334 28 26.6667V8.00002C28 6.53335 26.8 5.33335 25.3333 5.33335ZM24 26.6667H8C7.26667 26.6667 6.66667 26.0667 6.66667 25.3334V12H25.3333V25.3334C25.3333 26.0667 24.7333 26.6667 24 26.6667ZM10.6667 14.6667H14.6667C15.4 14.6667 16 15.2667 16 16V20C16 20.7334 15.4 21.3334 14.6667 21.3334H10.6667C9.93333 21.3334 9.33333 20.7334 9.33333 20V16C9.33333 15.2667 9.93333 14.6667 10.6667 14.6667Z" fill="#16181D"/>
</svg>
