<svg width="24" height="24" viewBox="0 0 24 24" fill="none" xmlns="http://www.w3.org/2000/svg">
<path d="M7.33765 7.00879C7.33765 4.52351 9.35237 2.50879 11.8376 2.50879C14.3229 2.50879 16.3376 4.52351 16.3376 7.00879C16.3376 9.49407 14.3229 11.5088 11.8376 11.5088C9.35237 11.5088 7.33765 9.49407 7.33765 7.00879Z" fill="#16191D"/>
<path d="M14.6089 13.4704C13.7483 13.1471 12.82 12.9707 11.8494 12.9707C7.24816 12.9707 3.59937 16.9345 3.59937 21.7207C3.59937 22.1349 3.93515 22.4707 4.34937 22.4707H15.1532C14.5637 22.065 14.1772 21.3856 14.1772 20.6159V19.9561H13.5173C12.2747 19.9561 11.2673 18.9487 11.2673 17.7061C11.2673 16.4634 12.2747 15.4561 13.5173 15.4561H14.1772V14.7959C14.1772 14.3003 14.3374 13.8422 14.6089 13.4704Z" fill="#16191D"/>
<path d="M16.4272 14.0459C16.8414 14.0459 17.1772 14.3817 17.1772 14.7959V16.9561H19.3373C19.7515 16.9561 20.0873 17.2918 20.0873 17.7061C20.0873 18.1203 19.7515 18.4561 19.3373 18.4561H17.1772V20.6159C17.1772 21.0301 16.8414 21.3659 16.4272 21.3659C16.013 21.3659 15.6772 21.0301 15.6772 20.6159V18.4561H13.5173C13.1031 18.4561 12.7673 18.1203 12.7673 17.7061C12.7673 17.2918 13.1031 16.9561 13.5173 16.9561H15.6772V14.7959C15.6772 14.3817 16.013 14.0459 16.4272 14.0459Z" fill="#16191D"/>
</svg>
