<svg width="24" height="24" viewBox="0 0 24 24" fill="none" xmlns="http://www.w3.org/2000/svg">
<path d="M8.86842 3.9458C6.8141 3.9458 5.14874 5.61116 5.14874 7.66547C5.14874 9.71979 6.8141 11.3851 8.86842 11.3851C10.9227 11.3851 12.5881 9.71979 12.5881 7.66547C12.5881 5.61116 10.9227 3.9458 8.86842 3.9458ZM6.64874 7.66547C6.64874 6.43958 7.64252 5.4458 8.86842 5.4458C10.0943 5.4458 11.0881 6.43958 11.0881 7.66547C11.0881 8.89137 10.0943 9.88515 8.86842 9.88515C7.64252 9.88515 6.64874 8.89137 6.64874 7.66547Z" fill="#16191D"/>
<path d="M8.86843 12.2192C5.12914 12.2192 2.17908 15.4378 2.17908 19.3045C2.17908 19.7188 2.51486 20.0545 2.92908 20.0545H14.8078C15.222 20.0545 15.5578 19.7188 15.5578 19.3045C15.5578 15.4378 12.6077 12.2192 8.86843 12.2192ZM8.86843 13.7192C11.46 13.7192 13.6693 15.7903 14.0118 18.5545H3.7251C4.06753 15.7903 6.27687 13.7192 8.86843 13.7192Z" fill="#16191D"/>
<path d="M13.1883 9.99713C13.1883 8.27134 14.5873 6.87231 16.3131 6.87231C18.0389 6.87231 19.4379 8.27134 19.4379 9.99713C19.4379 11.7229 18.0389 13.122 16.3131 13.122C14.5873 13.122 13.1883 11.7229 13.1883 9.99713ZM16.3131 8.37231C15.4157 8.37231 14.6883 9.09977 14.6883 9.99713C14.6883 10.8945 15.4157 11.622 16.3131 11.622C17.2105 11.622 17.9379 10.8945 17.9379 9.99713C17.9379 9.09977 17.2105 8.37231 16.3131 8.37231Z" fill="#16191D"/>
<path d="M17.0339 18.5544L20.2501 18.5544C20.1991 18.2865 20.1207 18.0239 20.0158 17.7707C19.8144 17.2845 19.5192 16.8427 19.1471 16.4705C18.7749 16.0983 18.3331 15.8031 17.8468 15.6017C17.3598 15.4 16.5264 15.2165 15.7988 15.2926C15.3868 15.3356 15.0179 15.0366 14.9748 14.6246C14.9318 14.2127 15.2308 13.8438 15.6428 13.8007C16.6679 13.6935 17.7534 13.9394 18.4209 14.2159C19.0891 14.4927 19.6963 14.8984 20.2077 15.4098C20.7192 15.9213 21.1249 16.5285 21.4017 17.1967C21.6785 17.8649 21.8209 18.5811 21.8209 19.3044C21.8209 19.7187 21.4851 20.0544 21.0709 20.0544H17.0339C16.6197 20.0544 16.2839 19.7187 16.2839 19.3044C16.2839 18.8902 16.6197 18.5544 17.0339 18.5544Z" fill="#16191D"/>
</svg>
