<svg width="24" height="24" viewBox="0 0 24 24" fill="none" xmlns="http://www.w3.org/2000/svg">
<path d="M7.91882 7.00879C7.91882 4.52351 9.93354 2.50879 12.4188 2.50879C14.9041 2.50879 16.9188 4.52351 16.9188 7.00879C16.9188 9.49407 14.9041 11.5088 12.4188 11.5088C9.93354 11.5088 7.91882 9.49407 7.91882 7.00879Z" fill="#16191D"/>
<path d="M12.4188 12.9561C7.81761 12.9561 4.16882 16.9199 4.16882 21.7061C4.16882 22.1203 4.50461 22.4561 4.91882 22.4561H15.2151C14.8649 22.3535 14.5347 22.1641 14.2585 21.8879L12.4403 20.0697C11.5616 19.191 11.5616 17.7664 12.4403 16.8877C13.319 16.0091 14.7436 16.0091 15.6223 16.8877L15.8495 17.1149L17.848 15.1164C16.4035 13.7744 14.5095 12.9561 12.4188 12.9561Z" fill="#16191D"/>
<path d="M20.4509 16.921C20.7438 16.6281 20.7438 16.1532 20.4509 15.8603C20.158 15.5674 19.6832 15.5674 19.3903 15.8603L15.9206 19.33L14.6327 18.0421C14.3399 17.7492 13.865 17.7492 13.5721 18.0421C13.2792 18.335 13.2792 18.8099 13.5721 19.1028L15.3903 20.921C15.6832 21.2138 16.158 21.2138 16.4509 20.921L20.4509 16.921Z" fill="#16191D"/>
</svg>
