<svg width="24" height="24" viewBox="0 0 24 24" fill="none" xmlns="http://www.w3.org/2000/svg">
<path fill-rule="evenodd" clip-rule="evenodd" d="M12 2.00879C9.51472 2.00879 7.5 4.02351 7.5 6.50879C7.5 8.99407 9.51472 11.0088 12 11.0088C14.4853 11.0088 16.5 8.99407 16.5 6.50879C16.5 4.02351 14.4853 2.00879 12 2.00879ZM9 6.50879C9 4.85193 10.3431 3.50879 12 3.50879C13.6569 3.50879 15 4.85193 15 6.50879C15 8.16564 13.6569 9.50879 12 9.50879C10.3431 9.50879 9 8.16564 9 6.50879Z" fill="#16191D"/>
<path fill-rule="evenodd" clip-rule="evenodd" d="M12 12.4561C7.39879 12.4561 3.75 16.4199 3.75 21.2061C3.75 21.6203 4.08579 21.9561 4.5 21.9561H19.5C19.9142 21.9561 20.25 21.6203 20.25 21.2061C20.25 16.4199 16.6012 12.4561 12 12.4561ZM12 13.9561C15.4525 13.9561 18.3637 16.7677 18.7146 20.4561H5.28545C5.63635 16.7677 8.54747 13.9561 12 13.9561Z" fill="#16191D"/>
</svg>
