<svg width="24" height="24" viewBox="0 0 24 24" fill="none" xmlns="http://www.w3.org/2000/svg">
<path fill-rule="evenodd" clip-rule="evenodd" d="M12 4.4248C11.4201 4.4248 10.95 4.89491 10.95 5.4748C10.95 6.0547 11.4201 6.5248 12 6.5248C12.5799 6.5248 13.05 6.0547 13.05 5.4748C13.05 4.89491 12.5799 4.4248 12 4.4248ZM9.44995 5.4748C9.44995 4.06648 10.5916 2.9248 12 2.9248C13.4083 2.9248 14.55 4.06648 14.55 5.4748C14.55 6.6221 13.7923 7.59242 12.75 7.91271V9.97363H19.75C20.9926 9.97363 22 10.981 22 12.2236V18.8236C22 20.0663 20.9926 21.0736 19.75 21.0736H4.25C3.00736 21.0736 2 20.0663 2 18.8236V12.2236C2 10.981 3.00736 9.97363 4.25 9.97363H11.25V7.91274C10.2077 7.59248 9.44995 6.62213 9.44995 5.4748ZM12 11.4736H4.25C3.83579 11.4736 3.5 11.8094 3.5 12.2236V18.8236C3.5 19.2378 3.83579 19.5736 4.25 19.5736H19.75C20.1642 19.5736 20.5 19.2378 20.5 18.8236V12.2236C20.5 11.8094 20.1642 11.4736 19.75 11.4736H12ZM10.0598 15.4678C10.0598 16.2962 9.38824 16.9678 8.55981 16.9678C7.73139 16.9678 7.05981 16.2962 7.05981 15.4678C7.05981 14.6393 7.73139 13.9678 8.55981 13.9678C9.38824 13.9678 10.0598 14.6393 10.0598 15.4678ZM15.3281 16.9678C16.1566 16.9678 16.8281 16.2962 16.8281 15.4678C16.8281 14.6393 16.1566 13.9678 15.3281 13.9678C14.4997 13.9678 13.8281 14.6393 13.8281 15.4678C13.8281 16.2962 14.4997 16.9678 15.3281 16.9678Z" fill="#16191D"/>
</svg>
