<svg width="24" height="24" viewBox="0 0 24 24" fill="none" xmlns="http://www.w3.org/2000/svg">
<path d="M16.9959 2.24775C16.7185 2.55537 16.743 3.02961 17.0506 3.307C18.9997 5.06452 20.0009 7.09065 20.038 9.1094C20.0751 11.1265 19.1501 13.1615 17.2712 14.9422C16.9705 15.2272 16.9578 15.7019 17.2427 16.0025C17.5277 16.3032 18.0024 16.3159 18.303 16.031C20.4179 14.0266 21.5842 11.6078 21.5377 9.08182C21.4913 6.55748 20.2381 4.16147 18.0551 2.19302C17.7475 1.91563 17.2733 1.94013 16.9959 2.24775Z" fill="#16191D"/>
<path d="M9.55884 5.37255C7.4488 5.37255 5.73828 7.08308 5.73828 9.19311C5.73828 11.3031 7.4488 13.0137 9.55884 13.0137C11.6689 13.0137 13.3794 11.3031 13.3794 9.19311C13.3794 7.08308 11.6689 5.37255 9.55884 5.37255Z" fill="#16191D"/>
<path d="M9.56641 13.8599C5.72571 13.8599 2.69922 17.1805 2.69922 21.1655C2.69922 21.5797 3.03501 21.9155 3.44922 21.9155H15.6836C16.0978 21.9155 16.4336 21.5797 16.4336 21.1655C16.4336 17.1805 13.4071 13.8599 9.56641 13.8599Z" fill="#16191D"/>
<path d="M15.7331 7.41048C15.3982 7.16679 15.3242 6.69771 15.5679 6.36277C15.8116 6.02782 16.2806 5.95384 16.6156 6.19753C17.0869 6.5404 17.4708 6.98938 17.7364 7.50815C18.002 8.02691 18.1418 8.60091 18.1445 9.18371C18.1472 9.76651 18.0126 10.3418 17.7518 10.8629C17.4909 11.3841 17.1111 11.8366 16.6429 12.1837C16.3102 12.4305 15.8405 12.3608 15.5938 12.0281C15.347 11.6954 15.4167 11.2256 15.7494 10.9789C16.0285 10.772 16.2549 10.5022 16.4104 10.1916C16.5659 9.88088 16.6461 9.53797 16.6445 9.19056C16.6429 8.84315 16.5596 8.50099 16.4013 8.19175C16.2429 7.8825 16.014 7.61487 15.7331 7.41048Z" fill="#16191D"/>
</svg>
