<svg width="20" height="20" viewBox="0 0 20 20" fill="none" xmlns="http://www.w3.org/2000/svg">
<path fill-rule="evenodd" clip-rule="evenodd" d="M6.8686 1.94531C4.81428 1.94531 3.14893 3.61067 3.14893 5.66499C3.14893 7.71931 4.81428 9.38466 6.8686 9.38466C8.92292 9.38466 10.5883 7.71931 10.5883 5.66499C10.5883 3.61067 8.92292 1.94531 6.8686 1.94531ZM4.64893 5.66499C4.64893 4.43909 5.64271 3.44531 6.8686 3.44531C8.09449 3.44531 9.08827 4.43909 9.08827 5.66499C9.08827 6.89088 8.09449 7.88466 6.8686 7.88466C5.64271 7.88466 4.64893 6.89088 4.64893 5.66499Z" fill="#576175"/>
<path fill-rule="evenodd" clip-rule="evenodd" d="M6.86855 10.2188C3.12926 10.2188 0.179199 13.4373 0.179199 17.3041C0.179199 17.7183 0.514986 18.0541 0.929199 18.0541H12.8079C13.2221 18.0541 13.5579 17.7183 13.5579 17.3041C13.5579 13.4373 10.6078 10.2188 6.86855 10.2188ZM6.86855 11.7188C9.4601 11.7188 11.6694 13.7898 12.0119 16.5541H1.72522C2.06765 13.7898 4.27699 11.7188 6.86855 11.7188Z" fill="#576175"/>
<path fill-rule="evenodd" clip-rule="evenodd" d="M11.1885 7.99689C11.1885 6.2711 12.5875 4.87207 14.3133 4.87207C16.0391 4.87207 17.4381 6.2711 17.4381 7.99689C17.4381 9.72268 16.0391 11.1217 14.3133 11.1217C12.5875 11.1217 11.1885 9.72268 11.1885 7.99689ZM14.3133 6.37207C13.4159 6.37207 12.6885 7.09953 12.6885 7.99689C12.6885 8.89425 13.4159 9.62171 14.3133 9.62171C15.2107 9.62171 15.9381 8.89425 15.9381 7.99689C15.9381 7.09953 15.2107 6.37207 14.3133 6.37207Z" fill="#576175"/>
<path d="M15.0338 16.5547L18.25 16.5547C18.199 16.2868 18.1206 16.0241 18.0157 15.771C17.8143 15.2847 17.5191 14.8429 17.1469 14.4707C16.7748 14.0986 16.333 13.8034 15.8467 13.602C15.3597 13.4002 14.5263 13.2167 13.7986 13.2928C13.3867 13.3359 13.0178 13.0368 12.9747 12.6249C12.9316 12.2129 13.2307 11.844 13.6426 11.8009C14.6677 11.6938 15.7533 11.9397 16.4207 12.2161C17.089 12.4929 17.6962 12.8986 18.2076 13.4101C18.719 13.9215 19.1248 14.5287 19.4015 15.1969C19.6783 15.8652 19.8208 16.5814 19.8208 17.3047C19.8208 17.7189 19.485 18.0547 19.0708 18.0547H15.0338C14.6196 18.0547 14.2838 17.7189 14.2838 17.3047C14.2838 16.8905 14.6196 16.5547 15.0338 16.5547Z" fill="#576175"/>
</svg>
