<svg width="24" height="24" viewBox="0 0 24 24" fill="none" xmlns="http://www.w3.org/2000/svg">
<path d="M16.9977 2.24677C17.2751 1.93916 17.7493 1.91465 18.0569 2.19204C20.2399 4.16049 21.4931 6.55651 21.5395 9.08084C21.586 11.6068 20.4197 14.0256 18.3048 16.03C18.0042 16.3149 17.5295 16.3022 17.2445 16.0016C16.9596 15.7009 16.9723 15.2262 17.273 14.9413C19.152 13.1605 20.0769 11.1256 20.0398 9.10842C20.0027 7.08967 19.0015 5.06354 17.0524 3.30602C16.7448 3.02863 16.7203 2.55439 16.9977 2.24677Z" fill="#16191D"/>
<path fill-rule="evenodd" clip-rule="evenodd" d="M9.55884 5.37208C7.4488 5.37208 5.73828 7.0826 5.73828 9.19263C5.73828 11.3027 7.4488 13.0132 9.55884 13.0132C11.6689 13.0132 13.3794 11.3027 13.3794 9.19263C13.3794 7.0826 11.6689 5.37208 9.55884 5.37208ZM7.23828 9.19263C7.23828 7.91103 8.27723 6.87208 9.55884 6.87208C10.8404 6.87208 11.8794 7.91103 11.8794 9.19263C11.8794 10.4742 10.8404 11.5132 9.55884 11.5132C8.27723 11.5132 7.23828 10.4742 7.23828 9.19263Z" fill="#16191D"/>
<path fill-rule="evenodd" clip-rule="evenodd" d="M9.56641 13.8594C5.72571 13.8594 2.69922 17.18 2.69922 21.165C2.69922 21.5793 3.03501 21.915 3.44922 21.915H15.6836C16.0978 21.915 16.4336 21.5793 16.4336 21.165C16.4336 17.18 13.4071 13.8594 9.56641 13.8594ZM9.56641 15.3594C12.2545 15.3594 14.5474 17.5258 14.8896 20.415H4.24323C4.58538 17.5258 6.87828 15.3594 9.56641 15.3594Z" fill="#16191D"/>
<path d="M16.617 6.19724C16.2821 5.95356 15.813 6.02753 15.5693 6.36248C15.3256 6.69743 15.3996 7.1665 15.7345 7.41019C16.0155 7.61458 16.2444 7.88222 16.4027 8.19146C16.561 8.5007 16.6443 8.84286 16.6459 9.19028C16.6475 9.53769 16.5673 9.8806 16.4118 10.1913C16.2563 10.5019 16.0299 10.7717 15.7509 10.9786C15.4181 11.2254 15.3485 11.6951 15.5952 12.0278C15.8419 12.3605 16.3117 12.4302 16.6444 12.1834C17.1125 11.8363 17.4923 11.3838 17.7532 10.8626C18.014 10.3415 18.1486 9.76622 18.1459 9.18342C18.1433 8.60062 18.0035 8.02663 17.7379 7.50786C17.4723 6.98909 17.0883 6.54012 16.617 6.19724Z" fill="#16191D"/>
</svg>
