<svg width="20" height="20" viewBox="0 0 20 20" fill="none" xmlns="http://www.w3.org/2000/svg">
<path fill-rule="evenodd" clip-rule="evenodd" d="M10 1.50879C8.34315 1.50879 7 2.85193 7 4.50879C7 6.16564 8.34315 7.50879 10 7.50879C11.6569 7.50879 13 6.16564 13 4.50879C13 2.85193 11.6569 1.50879 10 1.50879ZM5.5 4.50879C5.5 2.02351 7.51472 0.00878906 10 0.00878906C12.4853 0.00878906 14.5 2.02351 14.5 4.50879C14.5 6.99407 12.4853 9.00879 10 9.00879C7.51472 9.00879 5.5 6.99407 5.5 4.50879ZM3.28545 18.4561H16.7146C16.3637 14.7677 13.4525 11.9561 10 11.9561C6.54747 11.9561 3.63635 14.7677 3.28545 18.4561ZM1.75 19.2061C1.75 14.4199 5.39879 10.4561 10 10.4561C14.6012 10.4561 18.25 14.4199 18.25 19.2061C18.25 19.6203 17.9142 19.9561 17.5 19.9561H2.5C2.08579 19.9561 1.75 19.6203 1.75 19.2061Z" fill="#576175"/>
</svg>
