<svg width="24" height="24" viewBox="0 0 24 24" fill="none" xmlns="http://www.w3.org/2000/svg">
<path d="M8.86836 3.44629C6.81404 3.44629 5.14868 5.11164 5.14868 7.16596C5.14868 9.22028 6.81404 10.8856 8.86836 10.8856C10.9227 10.8856 12.588 9.22028 12.588 7.16596C12.588 5.11164 10.9227 3.44629 8.86836 3.44629Z" fill="#16191D"/>
<path d="M8.86843 11.7192C5.12914 11.7192 2.17908 14.9378 2.17908 18.8045C2.17908 19.2188 2.51486 19.5545 2.92908 19.5545H14.8078C15.222 19.5545 15.5578 19.2188 15.5578 18.8045C15.5578 14.9378 12.6077 11.7192 8.86843 11.7192Z" fill="#16191D"/>
<path d="M13.1884 9.49738C13.1884 7.77159 14.5874 6.37256 16.3132 6.37256C18.039 6.37256 19.438 7.77159 19.438 9.49738C19.438 11.2232 18.039 12.6222 16.3132 12.6222C14.5874 12.6222 13.1884 11.2232 13.1884 9.49738ZM16.3132 7.87256C15.4158 7.87256 14.6884 8.60001 14.6884 9.49738C14.6884 10.3947 15.4158 11.1222 16.3132 11.1222C17.2105 11.1222 17.938 10.3947 17.938 9.49738C17.938 8.60001 17.2105 7.87256 16.3132 7.87256Z" fill="#16191D"/>
<path d="M17.0339 18.0547L20.2501 18.0547C20.1991 17.7868 20.1207 17.5241 20.0158 17.271C19.8144 16.7847 19.5192 16.3429 19.1471 15.9707C18.7749 15.5986 18.3331 15.3034 17.8468 15.102C17.3598 14.9002 16.5264 14.7167 15.7988 14.7928C15.3868 14.8359 15.0179 14.5368 14.9748 14.1249C14.9318 13.7129 15.2308 13.344 15.6428 13.3009C16.6679 13.1938 17.7534 13.4397 18.4209 13.7161C19.0891 13.9929 19.6963 14.3986 20.2077 14.9101C20.7192 15.4215 21.1249 16.0287 21.4017 16.6969C21.6785 17.3652 21.8209 18.0814 21.8209 18.8047C21.8209 19.2189 21.4851 19.5547 21.0709 19.5547H17.0339C16.6197 19.5547 16.2839 19.2189 16.2839 18.8047C16.2839 18.3905 16.6197 18.0547 17.0339 18.0547Z" fill="#16191D"/>
</svg>
