<svg width="24" height="24" viewBox="0 0 24 24" fill="none" xmlns="http://www.w3.org/2000/svg">
<path d="M12 2.00879C9.51472 2.00879 7.5 4.02351 7.5 6.50879C7.5 8.99407 9.51472 11.0088 12 11.0088C14.4853 11.0088 16.5 8.99407 16.5 6.50879C16.5 4.02351 14.4853 2.00879 12 2.00879ZM9 6.50879C9 4.85193 10.3431 3.50879 12 3.50879C13.6569 3.50879 15 4.85193 15 6.50879C15 8.16564 13.6569 9.50879 12 9.50879C10.3431 9.50879 9 8.16564 9 6.50879Z" fill="#16191D"/>
<path d="M17.34 14.2959C17.34 13.8817 17.0042 13.5459 16.59 13.5459C16.1758 13.5459 15.84 13.8817 15.84 14.2959V16.4561H13.68C13.2658 16.4561 12.93 16.7918 12.93 17.2061C12.93 17.6203 13.2658 17.9561 13.68 17.9561H15.84V20.1159C15.84 20.5301 16.1758 20.8659 16.59 20.8659C17.0042 20.8659 17.34 20.5301 17.34 20.1159V17.9561H19.5C19.9142 17.9561 20.25 17.6203 20.25 17.2061C20.25 16.7918 19.9142 16.4561 19.5 16.4561H17.34V14.2959Z" fill="#16191D"/>
<path d="M12 13.9766C8.54747 13.9766 5.63635 16.7882 5.28545 20.4766H12C12.4142 20.4766 12.75 20.8123 12.75 21.2266C12.75 21.6408 12.4142 21.9766 12 21.9766H4.5C4.08579 21.9766 3.75 21.6408 3.75 21.2266C3.75 16.4404 7.39879 12.4766 12 12.4766C12.4142 12.4766 12.75 12.8123 12.75 13.2266C12.75 13.6408 12.4142 13.9766 12 13.9766Z" fill="#16191D"/>
</svg>
