<svg width="24" height="24" viewBox="0 0 24 24" fill="none" xmlns="http://www.w3.org/2000/svg">
<path d="M8.86836 3.4458C6.81404 3.4458 5.14868 5.11116 5.14868 7.16547C5.14868 9.21979 6.81404 10.8851 8.86836 10.8851C10.9227 10.8851 12.588 9.21979 12.588 7.16547C12.588 5.11116 10.9227 3.4458 8.86836 3.4458Z" fill="#16191D"/>
<path d="M8.86843 11.7188C5.12914 11.7188 2.17908 14.9373 2.17908 18.8041C2.17908 19.2183 2.51486 19.5541 2.92908 19.5541H14.8078C15.222 19.5541 15.5578 19.2183 15.5578 18.8041C15.5578 14.9373 12.6077 11.7188 8.86843 11.7188Z" fill="#16191D"/>
<path fill-rule="evenodd" clip-rule="evenodd" d="M13.1884 9.49689C13.1884 7.7711 14.5874 6.37207 16.3132 6.37207C18.039 6.37207 19.438 7.7711 19.438 9.49689C19.438 11.2227 18.039 12.6217 16.3132 12.6217C14.5874 12.6217 13.1884 11.2227 13.1884 9.49689ZM16.3132 7.87207C15.4158 7.87207 14.6884 8.59953 14.6884 9.49689C14.6884 10.3943 15.4158 11.1217 16.3132 11.1217C17.2105 11.1217 17.938 10.3943 17.938 9.49689C17.938 8.59953 17.2105 7.87207 16.3132 7.87207Z" fill="#16191D"/>
<path d="M17.0339 18.0542L20.2501 18.0542C20.1991 17.7863 20.1207 17.5237 20.0158 17.2705C19.8144 16.7842 19.5192 16.3424 19.1471 15.9702C18.7749 15.5981 18.3331 15.3029 17.8468 15.1015C17.3598 14.8997 16.5264 14.7162 15.7988 14.7923C15.3868 14.8354 15.0179 14.5364 14.9748 14.1244C14.9318 13.7124 15.2308 13.3435 15.6428 13.3005C16.6679 13.1933 17.7534 13.4392 18.4209 13.7156C19.0891 13.9924 19.6963 14.3981 20.2077 14.9096C20.7192 15.421 21.1249 16.0282 21.4017 16.6965C21.6785 17.3647 21.8209 18.0809 21.8209 18.8042C21.8209 19.2184 21.4851 19.5542 21.0709 19.5542H17.0339C16.6197 19.5542 16.2839 19.2184 16.2839 18.8042C16.2839 18.39 16.6197 18.0542 17.0339 18.0542Z" fill="#16191D"/>
</svg>
