<svg width="24" height="24" viewBox="0 0 24 24" fill="none" xmlns="http://www.w3.org/2000/svg">
<path fill-rule="evenodd" clip-rule="evenodd" d="M8.86842 3.94531C6.8141 3.94531 5.14874 5.61067 5.14874 7.66499C5.14874 9.71931 6.8141 11.3847 8.86842 11.3847C10.9227 11.3847 12.5881 9.71931 12.5881 7.66499C12.5881 5.61067 10.9227 3.94531 8.86842 3.94531ZM6.64874 7.66499C6.64874 6.43909 7.64252 5.44531 8.86842 5.44531C10.0943 5.44531 11.0881 6.43909 11.0881 7.66499C11.0881 8.89088 10.0943 9.88466 8.86842 9.88466C7.64252 9.88466 6.64874 8.89088 6.64874 7.66499Z" fill="#16191D"/>
<path fill-rule="evenodd" clip-rule="evenodd" d="M8.86843 12.2188C5.12914 12.2188 2.17908 15.4373 2.17908 19.3041C2.17908 19.7183 2.51486 20.0541 2.92908 20.0541H14.8078C15.222 20.0541 15.5578 19.7183 15.5578 19.3041C15.5578 15.4373 12.6077 12.2188 8.86843 12.2188ZM8.86843 13.7188C11.46 13.7188 13.6693 15.7898 14.0118 18.5541H3.7251C4.06753 15.7898 6.27687 13.7188 8.86843 13.7188Z" fill="#16191D"/>
<path fill-rule="evenodd" clip-rule="evenodd" d="M13.1883 9.99664C13.1883 8.27085 14.5873 6.87183 16.3131 6.87183C18.0389 6.87183 19.4379 8.27085 19.4379 9.99664C19.4379 11.7224 18.0389 13.1215 16.3131 13.1215C14.5873 13.1215 13.1883 11.7224 13.1883 9.99664ZM16.3131 8.37183C15.4157 8.37183 14.6883 9.09928 14.6883 9.99664C14.6883 10.894 15.4157 11.6215 16.3131 11.6215C17.2105 11.6215 17.9379 10.894 17.9379 9.99664C17.9379 9.09928 17.2105 8.37183 16.3131 8.37183Z" fill="#16191D"/>
<path d="M17.0339 18.554L20.2501 18.554C20.1991 18.286 20.1207 18.0234 20.0158 17.7702C19.8144 17.284 19.5192 16.8422 19.1471 16.47C18.7749 16.0978 18.3331 15.8026 17.8468 15.6012C17.3598 15.3995 16.5264 15.216 15.7988 15.2921C15.3868 15.3352 15.0179 15.0361 14.9748 14.6241C14.9318 14.2122 15.2308 13.8433 15.6428 13.8002C16.6679 13.693 17.7534 13.9389 18.4209 14.2154C19.0891 14.4922 19.6963 14.8979 20.2077 15.4093C20.7192 15.9208 21.1249 16.528 21.4017 17.1962C21.6785 17.8644 21.8209 18.5807 21.8209 19.304C21.8209 19.7182 21.4851 20.054 21.0709 20.054H17.0339C16.6197 20.054 16.2839 19.7182 16.2839 19.304C16.2839 18.8897 16.6197 18.554 17.0339 18.554Z" fill="#16191D"/>
</svg>
