<svg width="20" height="20" viewBox="0 0 20 20" fill="none" xmlns="http://www.w3.org/2000/svg">
<g clip-path="url(#clip0_1505_60602)">
<path d="M8.05957 13.4678C8.05957 14.2962 7.388 14.9678 6.55957 14.9678C5.73114 14.9678 5.05957 14.2962 5.05957 13.4678C5.05957 12.6393 5.73114 11.9678 6.55957 11.9678C7.388 11.9678 8.05957 12.6393 8.05957 13.4678Z" fill="#576175"/>
<path d="M13.3281 14.9678C14.1566 14.9678 14.8281 14.2962 14.8281 13.4678C14.8281 12.6393 14.1566 11.9678 13.3281 11.9678C12.4997 11.9678 11.8281 12.6393 11.8281 13.4678C11.8281 14.2962 12.4997 14.9678 13.3281 14.9678Z" fill="#576175"/>
<path fill-rule="evenodd" clip-rule="evenodd" d="M7.4502 3.4748C7.4502 2.06648 8.59187 0.924805 10.0002 0.924805C11.4085 0.924805 12.5502 2.06648 12.5502 3.4748C12.5502 4.62219 11.7924 5.59258 10.75 5.91279V7.97363H17.75C18.9926 7.97363 20 8.98099 20 10.2236V16.8236C20 18.0663 18.9926 19.0736 17.75 19.0736H2.25C1.00736 19.0736 0 18.0663 0 16.8236V10.2236C0 8.98099 1.00736 7.97363 2.25 7.97363H9.25V5.91266C8.2078 5.59233 7.4502 4.62204 7.4502 3.4748ZM10.0002 2.4248C9.4203 2.4248 8.9502 2.89491 8.9502 3.4748C8.9502 4.0547 9.4203 4.5248 10.0002 4.5248C10.5801 4.5248 11.0502 4.0547 11.0502 3.4748C11.0502 2.89491 10.5801 2.4248 10.0002 2.4248ZM2.25 9.47363C1.83579 9.47363 1.5 9.80942 1.5 10.2236V16.8236C1.5 17.2378 1.83579 17.5736 2.25 17.5736H17.75C18.1642 17.5736 18.5 17.2378 18.5 16.8236V10.2236C18.5 9.80942 18.1642 9.47363 17.75 9.47363H2.25Z" fill="#576175"/>
</g>
<defs>
<clipPath id="clip0_1505_60602">
<rect width="20" height="20" fill="white"/>
</clipPath>
</defs>
</svg>
