<svg width="20" height="20" viewBox="0 0 20 20" fill="none" xmlns="http://www.w3.org/2000/svg">
<path fill-rule="evenodd" clip-rule="evenodd" d="M10 1.50879C8.34315 1.50879 7 2.85193 7 4.50879C7 6.16564 8.34315 7.50879 10 7.50879C11.6569 7.50879 13 6.16564 13 4.50879C13 2.85193 11.6569 1.50879 10 1.50879ZM5.5 4.50879C5.5 2.02351 7.51472 0.00878906 10 0.00878906C12.4853 0.00878906 14.5 2.02351 14.5 4.50879C14.5 6.99407 12.4853 9.00879 10 9.00879C7.51472 9.00879 5.5 6.99407 5.5 4.50879ZM3.28545 18.4766C3.63635 14.7882 6.54747 11.9766 10 11.9766C10.4142 11.9766 10.75 11.6408 10.75 11.2266C10.75 10.8123 10.4142 10.4766 10 10.4766C5.39879 10.4766 1.75 14.4404 1.75 19.2266C1.75 19.6408 2.08579 19.9766 2.5 19.9766H10C10.4142 19.9766 10.75 19.6408 10.75 19.2266C10.75 18.8123 10.4142 18.4766 10 18.4766H3.28545ZM14.59 11.5459C15.0042 11.5459 15.34 11.8817 15.34 12.2959V14.4559L17.5 14.4561C17.9143 14.4561 18.25 14.7919 18.25 15.2061C18.25 15.6203 17.9142 15.9561 17.5 15.9561L15.34 15.9559V18.1159C15.34 18.5301 15.0042 18.8659 14.59 18.8659C14.1758 18.8659 13.84 18.5301 13.84 18.1159V15.9559L11.68 15.9561C11.2658 15.9561 10.93 15.6203 10.93 15.2061C10.93 14.7919 11.2657 14.4561 11.68 14.4561L13.84 14.4559V12.2959C13.84 11.8817 14.1758 11.5459 14.59 11.5459Z" fill="#576175"/>
</svg>
