<svg width="24" height="24" viewBox="0 0 24 24" fill="none" xmlns="http://www.w3.org/2000/svg">
<path d="M9.70569 5.97529C9.70569 4.56697 10.8474 3.42529 12.2557 3.42529C13.664 3.42529 14.8057 4.56697 14.8057 5.97529C14.8057 7.12232 14.0484 8.09246 13.0065 8.41297V10.4741H20.0065C21.2491 10.4741 22.2565 11.4815 22.2565 12.7241V19.3241C22.2565 20.5668 21.2491 21.5741 20.0065 21.5741H4.50647C3.26383 21.5741 2.25647 20.5668 2.25647 19.3241V12.7241C2.25647 11.4815 3.26383 10.4741 4.50647 10.4741H11.5065V8.41345C10.4638 8.09343 9.70569 7.12289 9.70569 5.97529ZM12.2557 4.92529C11.6758 4.92529 11.2057 5.39539 11.2057 5.97529C11.2057 6.55519 11.6758 7.02529 12.2557 7.02529C12.8356 7.02529 13.3057 6.55519 13.3057 5.97529C13.3057 5.39539 12.8356 4.92529 12.2557 4.92529ZM8.81506 17.4683C9.64349 17.4683 10.3151 16.7967 10.3151 15.9683C10.3151 15.1398 9.64349 14.4683 8.81506 14.4683C7.98664 14.4683 7.31506 15.1398 7.31506 15.9683C7.31506 16.7967 7.98664 17.4683 8.81506 17.4683ZM17.0846 15.9683C17.0846 15.1398 16.413 14.4683 15.5846 14.4683C14.7562 14.4683 14.0846 15.1398 14.0846 15.9683C14.0846 16.7967 14.7562 17.4683 15.5846 17.4683C16.413 17.4683 17.0846 16.7967 17.0846 15.9683Z" fill="#16191D"/>
</svg>
