<svg width="24" height="24" viewBox="0 0 24 24" fill="none" xmlns="http://www.w3.org/2000/svg">
<path d="M9.70569 5.9748C9.70569 4.56648 10.8474 3.4248 12.2557 3.4248C13.664 3.4248 14.8057 4.56648 14.8057 5.9748C14.8057 7.12183 14.0484 8.09197 13.0065 8.41249V10.4736H20.0065C21.2491 10.4736 22.2565 11.481 22.2565 12.7236V19.3236C22.2565 20.5663 21.2491 21.5736 20.0065 21.5736H4.50647C3.26383 21.5736 2.25647 20.5663 2.25647 19.3236V12.7236C2.25647 11.481 3.26383 10.4736 4.50647 10.4736H11.5065V8.41297C10.4638 8.09294 9.70569 7.1224 9.70569 5.9748ZM12.2557 4.9248C11.6758 4.9248 11.2057 5.39491 11.2057 5.9748C11.2057 6.5547 11.6758 7.0248 12.2557 7.0248C12.8356 7.0248 13.3057 6.5547 13.3057 5.9748C13.3057 5.39491 12.8356 4.9248 12.2557 4.9248ZM8.81506 17.4678C9.64349 17.4678 10.3151 16.7962 10.3151 15.9678C10.3151 15.1393 9.64349 14.4678 8.81506 14.4678C7.98664 14.4678 7.31506 15.1393 7.31506 15.9678C7.31506 16.7962 7.98664 17.4678 8.81506 17.4678ZM17.0846 15.9678C17.0846 15.1393 16.413 14.4678 15.5846 14.4678C14.7562 14.4678 14.0846 15.1393 14.0846 15.9678C14.0846 16.7962 14.7562 17.4678 15.5846 17.4678C16.413 17.4678 17.0846 16.7962 17.0846 15.9678Z" fill="#16191D"/>
</svg>
