<svg width="24" height="24" viewBox="0 0 24 24" fill="none" xmlns="http://www.w3.org/2000/svg">
<path fill-rule="evenodd" clip-rule="evenodd" d="M12 2.00879C9.51472 2.00879 7.5 4.02351 7.5 6.50879C7.5 8.99407 9.51472 11.0088 12 11.0088C14.4853 11.0088 16.5 8.99407 16.5 6.50879C16.5 4.02351 14.4853 2.00879 12 2.00879ZM9 6.50879C9 4.85193 10.3431 3.50879 12 3.50879C13.6569 3.50879 15 4.85193 15 6.50879C15 8.16564 13.6569 9.50879 12 9.50879C10.3431 9.50879 9 8.16564 9 6.50879Z" fill="#16191D"/>
<path d="M5.28545 20.4766C5.63635 16.7882 8.54747 13.9766 12 13.9766C12.4142 13.9766 12.75 13.6408 12.75 13.2266C12.75 12.8123 12.4142 12.4766 12 12.4766C7.39879 12.4766 3.75 16.4404 3.75 21.2266C3.75 21.6408 4.08579 21.9766 4.5 21.9766H12C12.4142 21.9766 12.75 21.6408 12.75 21.2266C12.75 20.8123 12.4142 20.4766 12 20.4766H5.28545Z" fill="#16191D"/>
<path d="M20.0303 14.6757C20.3232 14.9686 20.3232 15.4435 20.0303 15.7364L16.0303 19.7364C15.7374 20.0293 15.2626 20.0293 14.9697 19.7364L13.1515 17.9182C12.8586 17.6253 12.8586 17.1504 13.1515 16.8575C13.4444 16.5646 13.9193 16.5646 14.2122 16.8575L15.5 18.1454L18.9697 14.6757C19.2626 14.3828 19.7374 14.3828 20.0303 14.6757Z" fill="#16191D"/>
</svg>
