<svg width="24" height="24" viewBox="0 0 24 24" fill="none" xmlns="http://www.w3.org/2000/svg">
<path d="M12 6.62012C12.4142 6.62012 12.75 6.9559 12.75 7.37012V10.7246C12.75 11.1388 12.4142 11.4746 12 11.4746C11.5858 11.4746 11.25 11.1388 11.25 10.7246V7.37012C11.25 6.9559 11.5858 6.62012 12 6.62012Z" fill="#16191D"/>
<path d="M12 4.42578C11.4201 4.42578 10.95 4.89588 10.95 5.47578C10.95 6.05568 11.4201 6.52578 12 6.52578C12.5799 6.52578 13.05 6.05568 13.05 5.47578C13.05 4.89588 12.5799 4.42578 12 4.42578ZM9.44995 5.47578C9.44995 4.06746 10.5916 2.92578 12 2.92578C13.4083 2.92578 14.55 4.06746 14.55 5.47578C14.55 6.88411 13.4083 8.02578 12 8.02578C10.5916 8.02578 9.44995 6.88411 9.44995 5.47578Z" fill="#16191D"/>
<path d="M2 12.2246C2 10.982 3.00736 9.97461 4.25 9.97461H19.75C20.9926 9.97461 22 10.982 22 12.2246V18.8246C22 20.0673 20.9926 21.0746 19.75 21.0746H4.25C3.00736 21.0746 2 20.0672 2 18.8246V12.2246ZM4.25 11.4746C3.83579 11.4746 3.5 11.8104 3.5 12.2246V18.8246C3.5 19.2388 3.83579 19.5746 4.25 19.5746H19.75C20.1642 19.5746 20.5 19.2388 20.5 18.8246V12.2246C20.5 11.8104 20.1642 11.4746 19.75 11.4746H4.25Z" fill="#16191D"/>
<path d="M10.0598 15.4688C10.0598 16.2972 9.38824 16.9688 8.55981 16.9688C7.73139 16.9688 7.05981 16.2972 7.05981 15.4688C7.05981 14.6403 7.73139 13.9688 8.55981 13.9688C9.38824 13.9688 10.0598 14.6403 10.0598 15.4688Z" fill="#16191D"/>
<path d="M16.8281 15.4688C16.8281 16.2972 16.1566 16.9688 15.3281 16.9688C14.4997 16.9688 13.8281 16.2972 13.8281 15.4688C13.8281 14.6403 14.4997 13.9688 15.3281 13.9688C16.1566 13.9688 16.8281 14.6403 16.8281 15.4688Z" fill="#16191D"/>
</svg>
